<?xml version="1.0" encoding="UTF-8" standalone="no"?>
<!DOCTYPE svg PUBLIC "-//W3C//DTD SVG 1.1//EN"
 "http://www.w3.org/Graphics/SVG/1.1/DTD/svg11.dtd">
<!-- Generated by graphviz version 2.38.0 (20140413.2041)
 -->
<!-- Title: G Pages: 1 -->
<svg width="545pt" height="603pt"
 viewBox="0.00 0.00 545.09 602.74" xmlns="http://www.w3.org/2000/svg" xmlns:xlink="http://www.w3.org/1999/xlink">
<g id="graph0" class="graph" transform="scale(1 1) rotate(0) translate(4 598.74)">
<title>G</title>
<polygon fill="white" stroke="none" points="-4,4 -4,-598.74 541.085,-598.74 541.085,4 -4,4"/>
<!-- GS -->
<g id="node1" class="node"><title>GS</title>
<ellipse fill="none" stroke="grey" stroke-width="2" cx="335.697" cy="-576.74" rx="102.882" ry="18"/>
<text text-anchor="middle" x="335.697" y="-573.04" font-family="Times,serif" font-size="14.00">Ch.6 &#45; Object Abstraction</text>
</g>
<!-- SU -->
<g id="node2" class="node"><title>SU</title>
<ellipse fill="none" stroke="black" cx="216.697" cy="-395.74" rx="35.194" ry="18"/>
<text text-anchor="middle" x="216.697" y="-392.04" font-family="Times,serif" font-size="14.00">setup()</text>
</g>
<!-- GS&#45;&gt;SU -->
<g id="edge1" class="edge"><title>GS&#45;&gt;SU</title>
<path fill="none" stroke="black" d="M317.667,-558.823C300.147,-541.668 273.629,-513.728 255.697,-485.74 243.026,-465.965 232.603,-441.377 225.73,-423.059"/>
<polygon fill="black" stroke="black" points="228.995,-421.797 222.285,-413.598 222.417,-424.192 228.995,-421.797"/>
</g>
<!-- MX -->
<g id="node12" class="node"><title>MX</title>
<ellipse fill="none" stroke="black" cx="448.697" cy="-242.87" rx="88.2768" ry="26.7407"/>
<text text-anchor="middle" x="448.697" y="-246.67" font-family="Times,serif" font-size="14.00">MiniX[6]: </text>
<text text-anchor="middle" x="448.697" y="-231.67" font-family="Times,serif" font-size="14.00">Games with objects</text>
</g>
<!-- GS&#45;&gt;MX -->
<g id="edge5" class="edge"><title>GS&#45;&gt;MX</title>
<path fill="none" stroke="black" d="M380.754,-560.425C418.994,-544.236 467.697,-514.613 467.697,-468.74 467.697,-468.74 467.697,-468.74 467.697,-394.74 467.697,-355.303 461.227,-310.518 455.838,-280.055"/>
<polygon fill="black" stroke="black" points="459.225,-279.12 453.989,-269.91 452.339,-280.375 459.225,-279.12"/>
</g>
<!-- RR -->
<g id="node13" class="node"><title>RR</title>
<ellipse fill="none" stroke="black" cx="335.697" cy="-467.74" rx="71.4873" ry="18"/>
<text text-anchor="middle" x="335.697" y="-464.04" font-family="Times,serif" font-size="14.00">Required reading</text>
</g>
<!-- GS&#45;&gt;RR -->
<g id="edge6" class="edge"><title>GS&#45;&gt;RR</title>
<path fill="none" stroke="black" d="M335.697,-548.351C335.697,-532.353 335.697,-512.229 335.697,-496.216"/>
<polygon fill="black" stroke="black" points="332.197,-548.549 335.697,-558.549 339.197,-548.549 332.197,-548.549"/>
<polygon fill="black" stroke="black" points="339.197,-495.889 335.697,-485.889 332.197,-495.889 339.197,-495.889"/>
</g>
<!-- ST -->
<g id="node3" class="node"><title>ST</title>
<ellipse fill="none" stroke="black" cx="189.697" cy="-323.74" rx="31.6951" ry="18"/>
<text text-anchor="middle" x="189.697" y="-320.04" font-family="Times,serif" font-size="14.00">start()</text>
</g>
<!-- SU&#45;&gt;ST -->
<g id="edge2" class="edge"><title>SU&#45;&gt;ST</title>
<path fill="none" stroke="black" d="M210.161,-377.795C207.076,-369.799 203.324,-360.071 199.879,-351.14"/>
<polygon fill="black" stroke="black" points="203.037,-349.6 196.172,-341.529 196.506,-352.119 203.037,-349.6"/>
</g>
<!-- MW -->
<g id="node11" class="node"><title>MW</title>
<ellipse fill="none" stroke="black" cx="277.697" cy="-323.74" rx="38.1938" ry="18"/>
<text text-anchor="middle" x="277.697" y="-320.04" font-family="Times,serif" font-size="14.00">While()</text>
</g>
<!-- SU&#45;&gt;MW -->
<g id="edge7" class="edge"><title>SU&#45;&gt;MW</title>
<path fill="none" stroke="black" d="M237.25,-371.155C243.697,-363.756 250.81,-355.594 257.249,-348.204"/>
<polygon fill="black" stroke="black" points="234.47,-369.017 230.538,-378.856 239.747,-373.616 234.47,-369.017"/>
<polygon fill="black" stroke="black" points="259.978,-350.4 263.91,-340.561 254.701,-345.801 259.978,-350.4"/>
</g>
<!-- DE -->
<g id="node4" class="node"><title>DE</title>
<ellipse fill="none" stroke="black" cx="130.697" cy="-242.87" rx="81.135" ry="26.7407"/>
<text text-anchor="middle" x="130.697" y="-246.67" font-family="Times,serif" font-size="14.00">Exercise in class: </text>
<text text-anchor="middle" x="130.697" y="-231.67" font-family="Times,serif" font-size="14.00">Decode</text>
</g>
<!-- ST&#45;&gt;DE -->
<g id="edge3" class="edge"><title>ST&#45;&gt;DE</title>
<path fill="none" stroke="black" d="M177.757,-306.78C171.381,-298.255 163.283,-287.431 155.61,-277.173"/>
<polygon fill="black" stroke="black" points="158.38,-275.034 149.588,-269.123 152.775,-279.227 158.38,-275.034"/>
</g>
<!-- ST&#45;&gt;MW -->
<g id="edge17" class="edge"><title>ST&#45;&gt;MW</title>
<path fill="none" stroke="black" d="M221.665,-323.74C224.128,-323.74 226.59,-323.74 229.052,-323.74"/>
<polygon fill="black" stroke="black" points="229.175,-327.24 239.175,-323.74 229.175,-320.24 229.175,-327.24"/>
</g>
<!-- SC -->
<g id="node5" class="node"><title>SC</title>
<ellipse fill="none" stroke="black" cx="124.697" cy="-162" rx="53.8905" ry="18"/>
<text text-anchor="middle" x="124.697" y="-158.3" font-family="Times,serif" font-size="14.00">Source code</text>
</g>
<!-- DE&#45;&gt;SC -->
<g id="edge4" class="edge"><title>DE&#45;&gt;SC</title>
<path fill="none" stroke="black" d="M128.699,-215.607C128.082,-207.506 127.402,-198.568 126.781,-190.392"/>
<polygon fill="black" stroke="black" points="130.255,-189.926 126.007,-180.22 123.275,-190.457 130.255,-189.926"/>
</g>
<!-- CL -->
<g id="node6" class="node"><title>CL</title>
<ellipse fill="none" stroke="black" cx="121.697" cy="-90" rx="27.8951" ry="18"/>
<text text-anchor="middle" x="121.697" y="-86.3" font-family="Times,serif" font-size="14.00">class</text>
</g>
<!-- SC&#45;&gt;CL -->
<g id="edge10" class="edge"><title>SC&#45;&gt;CL</title>
<path fill="none" stroke="black" d="M123.955,-143.697C123.624,-135.983 123.227,-126.712 122.859,-118.112"/>
<polygon fill="black" stroke="black" points="126.355,-117.945 122.43,-108.104 119.361,-118.245 126.355,-117.945"/>
</g>
<!-- OO -->
<g id="node7" class="node"><title>OO</title>
<ellipse fill="none" stroke="black" cx="37.6967" cy="-90" rx="37.8943" ry="18"/>
<text text-anchor="middle" x="37.6967" y="-86.3" font-family="Times,serif" font-size="14.00">Objects</text>
</g>
<!-- SC&#45;&gt;OO -->
<g id="edge11" class="edge"><title>SC&#45;&gt;OO</title>
<path fill="none" stroke="black" d="M104.955,-145.116C92.832,-135.362 77.1576,-122.75 63.9906,-112.156"/>
<polygon fill="black" stroke="black" points="66.1557,-109.406 56.1704,-105.864 61.7675,-114.86 66.1557,-109.406"/>
</g>
<!-- COC -->
<g id="node8" class="node"><title>COC</title>
<ellipse fill="none" stroke="black" cx="254.697" cy="-90" rx="87.1846" ry="18"/>
<text text-anchor="middle" x="254.697" y="-86.3" font-family="Times,serif" font-size="14.00">Class&#45;Object creation</text>
</g>
<!-- SC&#45;&gt;COC -->
<g id="edge12" class="edge"><title>SC&#45;&gt;COC</title>
<path fill="none" stroke="black" d="M151.949,-146.326C170.498,-136.338 195.323,-122.971 215.924,-111.878"/>
<polygon fill="black" stroke="black" points="217.613,-114.943 224.759,-107.121 214.294,-108.78 217.613,-114.943"/>
</g>
<!-- EiC -->
<g id="node9" class="node"><title>EiC</title>
<ellipse fill="none" stroke="black" cx="121.697" cy="-18" rx="69.5877" ry="18"/>
<text text-anchor="middle" x="121.697" y="-14.3" font-family="Times,serif" font-size="14.00">Exercise in class</text>
</g>
<!-- CL&#45;&gt;EiC -->
<g id="edge13" class="edge"><title>CL&#45;&gt;EiC</title>
<path fill="none" stroke="black" d="M121.697,-71.6966C121.697,-63.9827 121.697,-54.7125 121.697,-46.1124"/>
<polygon fill="black" stroke="black" points="125.197,-46.1043 121.697,-36.1043 118.197,-46.1044 125.197,-46.1043"/>
</g>
<!-- OO&#45;&gt;EiC -->
<g id="edge14" class="edge"><title>OO&#45;&gt;EiC</title>
<path fill="none" stroke="black" d="M55.9234,-73.811C67.0855,-64.5093 81.5878,-52.424 94.1335,-41.9693"/>
<polygon fill="black" stroke="black" points="96.5989,-44.4708 102.041,-35.3801 92.1176,-39.0932 96.5989,-44.4708"/>
</g>
<!-- COC&#45;&gt;EiC -->
<g id="edge15" class="edge"><title>COC&#45;&gt;EiC</title>
<path fill="none" stroke="black" d="M224.184,-72.9406C205.163,-62.9297 180.521,-49.9604 160.167,-39.2478"/>
<polygon fill="black" stroke="black" points="161.632,-36.0637 151.153,-34.5034 158.372,-42.2581 161.632,-36.0637"/>
</g>
<!-- COC&#45;&gt;MW -->
<g id="edge20" class="edge"><title>COC&#45;&gt;MW</title>
<path fill="none" stroke="black" d="M255.981,-108.029C258.434,-139.84 264.129,-210.44 270.697,-269.74 271.63,-278.172 272.79,-287.34 273.895,-295.643"/>
<polygon fill="black" stroke="black" points="270.43,-296.139 275.244,-305.577 277.366,-295.196 270.43,-296.139"/>
</g>
<!-- FN -->
<g id="node10" class="node"><title>FN</title>
<ellipse fill="none" stroke="black" cx="266.697" cy="-18" rx="57.6901" ry="18"/>
<text text-anchor="middle" x="266.697" y="-14.3" font-family="Times,serif" font-size="14.00">Further notes</text>
</g>
<!-- EiC&#45;&gt;FN -->
<g id="edge16" class="edge"><title>EiC&#45;&gt;FN</title>
<path fill="none" stroke="black" d="M191.365,-18C193.806,-18 196.248,-18 198.689,-18"/>
<polygon fill="black" stroke="black" points="198.726,-21.5001 208.726,-18 198.726,-14.5001 198.726,-21.5001"/>
</g>
<!-- MW&#45;&gt;MX -->
<g id="edge19" class="edge"><title>MW&#45;&gt;MX</title>
<path fill="none" stroke="black" d="M304.041,-310.59C327.373,-299.828 362.233,-283.75 391.885,-270.073"/>
<polygon fill="black" stroke="black" points="393.694,-273.093 401.308,-265.727 390.762,-266.737 393.694,-273.093"/>
</g>
<!-- Notes -->
<g id="node15" class="node"><title>Notes</title>
<ellipse fill="none" stroke="black" cx="310.697" cy="-242.87" rx="31.3957" ry="18"/>
<text text-anchor="middle" x="310.697" y="-239.17" font-family="Times,serif" font-size="14.00">Notes</text>
</g>
<!-- MW&#45;&gt;Notes -->
<g id="edge18" class="edge"><title>MW&#45;&gt;Notes</title>
<path fill="none" stroke="black" d="M284.695,-306.014C289.07,-295.557 294.797,-281.869 299.763,-270.002"/>
<polygon fill="black" stroke="black" points="303.077,-271.148 303.708,-260.572 296.62,-268.446 303.077,-271.148"/>
</g>
<!-- RR&#45;&gt;SU -->
<g id="edge9" class="edge"><title>RR&#45;&gt;SU</title>
<path fill="none" stroke="black" d="M308.991,-451.031C290.853,-440.361 266.802,-426.214 247.8,-415.036"/>
<polygon fill="black" stroke="black" points="249.319,-411.869 238.925,-409.815 245.77,-417.903 249.319,-411.869"/>
</g>
<!-- RR&#45;&gt;MX -->
<g id="edge8" class="edge"><title>RR&#45;&gt;MX</title>
<path fill="none" stroke="black" d="M367.344,-451.462C382.657,-442.512 399.998,-429.794 410.697,-413.74 437.619,-373.343 445.716,-316.755 448.013,-280.204"/>
<polygon fill="black" stroke="black" points="451.52,-280.166 448.537,-270 444.529,-279.808 451.52,-280.166"/>
</g>
<!-- FR -->
<g id="node14" class="node"><title>FR</title>
<ellipse fill="none" stroke="black" cx="335.697" cy="-395.74" rx="65.7887" ry="18"/>
<text text-anchor="middle" x="335.697" y="-392.04" font-family="Times,serif" font-size="14.00">Further reading</text>
</g>
<!-- RR&#45;&gt;FR -->
<g id="edge21" class="edge"><title>RR&#45;&gt;FR</title>
<path fill="none" stroke="black" d="M335.697,-449.437C335.697,-441.723 335.697,-432.453 335.697,-423.853"/>
<polygon fill="black" stroke="black" points="339.197,-423.844 335.697,-413.844 332.197,-423.844 339.197,-423.844"/>
</g>
</g>
</svg>
