<?xml version="1.0" encoding="UTF-8" standalone="no"?>
<!DOCTYPE svg PUBLIC "-//W3C//DTD SVG 1.1//EN"
 "http://www.w3.org/Graphics/SVG/1.1/DTD/svg11.dtd">
<!-- Generated by graphviz version 2.38.0 (20140413.2041)
 -->
<!-- Title: G Pages: 1 -->
<svg width="632pt" height="603pt"
 viewBox="0.00 0.00 631.68 602.74" xmlns="http://www.w3.org/2000/svg" xmlns:xlink="http://www.w3.org/1999/xlink">
<g id="graph0" class="graph" transform="scale(1 1) rotate(0) translate(4 598.74)">
<title>G</title>
<polygon fill="white" stroke="none" points="-4,4 -4,-598.74 627.676,-598.74 627.676,4 -4,4"/>
<!-- GS -->
<g id="node1" class="node"><title>GS</title>
<polygon fill="none" stroke="black" points="468.696,-594.74 307.696,-594.74 307.696,-558.74 468.696,-558.74 468.696,-594.74"/>
<text text-anchor="middle" x="388.196" y="-573.04" font-family="Hershey-Noailles-help-me" font-size="14.00">6. Object abstraction</text>
</g>
<!-- SU -->
<g id="node2" class="node"><title>SU</title>
<ellipse fill="none" stroke="black" cx="247.196" cy="-395.74" rx="42.4939" ry="18"/>
<text text-anchor="middle" x="247.196" y="-392.04" font-family="Hershey-Noailles-help-me" font-size="14.00">setup()</text>
</g>
<!-- GS&#45;&gt;SU -->
<g id="edge1" class="edge"><title>GS&#45;&gt;SU</title>
<path fill="none" stroke="black" d="M365.877,-558.651C344.934,-541.794 313.699,-514.447 292.196,-485.74 277.678,-466.358 265.592,-441.589 257.613,-423.105"/>
<polygon fill="black" stroke="black" points="260.813,-421.685 253.72,-413.815 254.357,-424.391 260.813,-421.685"/>
</g>
<!-- MX -->
<g id="node12" class="node"><title>MX</title>
<ellipse fill="none" stroke="black" cx="516.196" cy="-242.87" rx="107.46" ry="26.7407"/>
<text text-anchor="middle" x="516.196" y="-246.67" font-family="Hershey-Noailles-help-me" font-size="14.00">MiniX: </text>
<text text-anchor="middle" x="516.196" y="-231.67" font-family="Hershey-Noailles-help-me" font-size="14.00">Games with objects</text>
</g>
<!-- GS&#45;&gt;MX -->
<g id="edge5" class="edge"><title>GS&#45;&gt;MX</title>
<path fill="none" stroke="black" d="M447.14,-558.651C488.036,-542.759 535.196,-514.51 535.196,-468.74 535.196,-468.74 535.196,-468.74 535.196,-394.74 535.196,-355.303 528.726,-310.518 523.337,-280.055"/>
<polygon fill="black" stroke="black" points="526.725,-279.12 521.489,-269.91 519.838,-280.375 526.725,-279.12"/>
</g>
<!-- RR -->
<g id="node13" class="node"><title>RR</title>
<ellipse fill="none" stroke="black" cx="388.196" cy="-467.74" rx="87.1846" ry="18"/>
<text text-anchor="middle" x="388.196" y="-464.04" font-family="Hershey-Noailles-help-me" font-size="14.00">Required reading</text>
</g>
<!-- GS&#45;&gt;RR -->
<g id="edge6" class="edge"><title>GS&#45;&gt;RR</title>
<path fill="none" stroke="black" d="M388.196,-548.351C388.196,-532.353 388.196,-512.229 388.196,-496.216"/>
<polygon fill="black" stroke="black" points="384.696,-548.549 388.196,-558.549 391.696,-548.549 384.696,-548.549"/>
<polygon fill="black" stroke="black" points="391.696,-495.889 388.196,-485.889 384.696,-495.889 391.696,-495.889"/>
</g>
<!-- ST -->
<g id="node3" class="node"><title>ST</title>
<ellipse fill="none" stroke="black" cx="218.196" cy="-323.74" rx="38.9931" ry="18"/>
<text text-anchor="middle" x="218.196" y="-320.04" font-family="Hershey-Noailles-help-me" font-size="14.00">start()</text>
</g>
<!-- SU&#45;&gt;ST -->
<g id="edge2" class="edge"><title>SU&#45;&gt;ST</title>
<path fill="none" stroke="black" d="M240.176,-377.795C236.828,-369.713 232.746,-359.862 229.014,-350.852"/>
<polygon fill="black" stroke="black" points="232.212,-349.428 225.152,-341.529 225.745,-352.107 232.212,-349.428"/>
</g>
<!-- MW -->
<g id="node11" class="node"><title>MW</title>
<ellipse fill="none" stroke="black" cx="319.196" cy="-323.74" rx="43.5923" ry="18"/>
<text text-anchor="middle" x="319.196" y="-320.04" font-family="Hershey-Noailles-help-me" font-size="14.00">While()</text>
</g>
<!-- SU&#45;&gt;MW -->
<g id="edge7" class="edge"><title>SU&#45;&gt;MW</title>
<path fill="none" stroke="black" d="M270.842,-371.751C278.722,-364.09 287.501,-355.555 295.393,-347.882"/>
<polygon fill="black" stroke="black" points="268.264,-369.376 263.534,-378.856 273.144,-374.395 268.264,-369.376"/>
<polygon fill="black" stroke="black" points="298.193,-350.042 302.923,-340.561 293.313,-345.023 298.193,-350.042"/>
</g>
<!-- DE -->
<g id="node4" class="node"><title>DE</title>
<ellipse fill="none" stroke="black" cx="150.196" cy="-242.87" rx="96.3333" ry="26.7407"/>
<text text-anchor="middle" x="150.196" y="-246.67" font-family="Hershey-Noailles-help-me" font-size="14.00">Exercise in class: </text>
<text text-anchor="middle" x="150.196" y="-231.67" font-family="Hershey-Noailles-help-me" font-size="14.00">Decode</text>
</g>
<!-- ST&#45;&gt;DE -->
<g id="edge3" class="edge"><title>ST&#45;&gt;DE</title>
<path fill="none" stroke="black" d="M204.435,-306.78C197.013,-298.171 187.568,-287.216 178.647,-276.869"/>
<polygon fill="black" stroke="black" points="181.15,-274.412 171.969,-269.123 175.848,-278.982 181.15,-274.412"/>
</g>
<!-- ST&#45;&gt;MW -->
<g id="edge17" class="edge"><title>ST&#45;&gt;MW</title>
<path fill="none" stroke="black" d="M257.255,-323.74C260.032,-323.74 262.81,-323.74 265.587,-323.74"/>
<polygon fill="black" stroke="black" points="265.644,-327.24 275.644,-323.74 265.643,-320.24 265.644,-327.24"/>
</g>
<!-- SC -->
<g id="node5" class="node"><title>SC</title>
<ellipse fill="none" stroke="black" cx="142.196" cy="-162" rx="64.9885" ry="18"/>
<text text-anchor="middle" x="142.196" y="-158.3" font-family="Hershey-Noailles-help-me" font-size="14.00">Source code</text>
</g>
<!-- DE&#45;&gt;SC -->
<g id="edge4" class="edge"><title>DE&#45;&gt;SC</title>
<path fill="none" stroke="black" d="M147.532,-215.607C146.71,-207.506 145.804,-198.568 144.975,-190.392"/>
<polygon fill="black" stroke="black" points="148.434,-189.816 143.943,-180.22 141.47,-190.522 148.434,-189.816"/>
</g>
<!-- CL -->
<g id="node6" class="node"><title>CL</title>
<ellipse fill="none" stroke="black" cx="138.196" cy="-90" rx="31.6951" ry="18"/>
<text text-anchor="middle" x="138.196" y="-86.3" font-family="Hershey-Noailles-help-me" font-size="14.00">class</text>
</g>
<!-- SC&#45;&gt;CL -->
<g id="edge10" class="edge"><title>SC&#45;&gt;CL</title>
<path fill="none" stroke="black" d="M141.207,-143.697C140.767,-135.983 140.237,-126.712 139.745,-118.112"/>
<polygon fill="black" stroke="black" points="143.238,-117.888 139.173,-108.104 136.25,-118.288 143.238,-117.888"/>
</g>
<!-- OO -->
<g id="node7" class="node"><title>OO</title>
<ellipse fill="none" stroke="black" cx="44.1961" cy="-90" rx="44.393" ry="18"/>
<text text-anchor="middle" x="44.1961" y="-86.3" font-family="Hershey-Noailles-help-me" font-size="14.00">Objects</text>
</g>
<!-- SC&#45;&gt;OO -->
<g id="edge11" class="edge"><title>SC&#45;&gt;OO</title>
<path fill="none" stroke="black" d="M119.467,-144.765C105.759,-134.974 88.1578,-122.401 73.4228,-111.876"/>
<polygon fill="black" stroke="black" points="75.3011,-108.917 65.1294,-105.952 71.2324,-114.613 75.3011,-108.917"/>
</g>
<!-- COC -->
<g id="node8" class="node"><title>COC</title>
<ellipse fill="none" stroke="black" cx="294.196" cy="-90" rx="105.881" ry="18"/>
<text text-anchor="middle" x="294.196" y="-86.3" font-family="Hershey-Noailles-help-me" font-size="14.00">Class&#45;Object creation</text>
</g>
<!-- SC&#45;&gt;COC -->
<g id="edge12" class="edge"><title>SC&#45;&gt;COC</title>
<path fill="none" stroke="black" d="M174.431,-146.155C196.434,-136.022 225.861,-122.47 250.039,-111.336"/>
<polygon fill="black" stroke="black" points="251.741,-114.405 259.36,-107.043 248.813,-108.047 251.741,-114.405"/>
</g>
<!-- EiC -->
<g id="node9" class="node"><title>EiC</title>
<ellipse fill="none" stroke="black" cx="138.196" cy="-18" rx="82.5854" ry="18"/>
<text text-anchor="middle" x="138.196" y="-14.3" font-family="Hershey-Noailles-help-me" font-size="14.00">Exercise in class</text>
</g>
<!-- CL&#45;&gt;EiC -->
<g id="edge13" class="edge"><title>CL&#45;&gt;EiC</title>
<path fill="none" stroke="black" d="M138.196,-71.6966C138.196,-63.9827 138.196,-54.7125 138.196,-46.1124"/>
<polygon fill="black" stroke="black" points="141.696,-46.1043 138.196,-36.1043 134.696,-46.1044 141.696,-46.1043"/>
</g>
<!-- OO&#45;&gt;EiC -->
<g id="edge14" class="edge"><title>OO&#45;&gt;EiC</title>
<path fill="none" stroke="black" d="M64.5927,-73.811C77.3215,-64.3321 93.932,-51.9626 108.151,-41.3737"/>
<polygon fill="black" stroke="black" points="110.27,-44.16 116.2,-35.3801 106.089,-38.5457 110.27,-44.16"/>
</g>
<!-- COC&#45;&gt;EiC -->
<g id="edge15" class="edge"><title>COC&#45;&gt;EiC</title>
<path fill="none" stroke="black" d="M258.407,-72.9406C235.615,-62.7137 205.943,-49.3993 181.782,-38.5576"/>
<polygon fill="black" stroke="black" points="183.036,-35.2845 172.48,-34.3838 180.171,-41.671 183.036,-35.2845"/>
</g>
<!-- COC&#45;&gt;MW -->
<g id="edge20" class="edge"><title>COC&#45;&gt;MW</title>
<path fill="none" stroke="black" d="M295.043,-108.069C296.755,-139.946 301.164,-210.65 309.196,-269.74 310.349,-278.221 311.953,-287.403 313.54,-295.703"/>
<polygon fill="black" stroke="black" points="310.129,-296.497 315.505,-305.627 316.996,-295.138 310.129,-296.497"/>
</g>
<!-- FN -->
<g id="node10" class="node"><title>FN</title>
<ellipse fill="none" stroke="black" cx="311.196" cy="-18" rx="72.2875" ry="18"/>
<text text-anchor="middle" x="311.196" y="-14.3" font-family="Hershey-Noailles-help-me" font-size="14.00">Further notes</text>
</g>
<!-- EiC&#45;&gt;FN -->
<g id="edge16" class="edge"><title>EiC&#45;&gt;FN</title>
<path fill="none" stroke="black" d="M220.979,-18C223.6,-18 226.221,-18 228.842,-18"/>
<polygon fill="black" stroke="black" points="228.952,-21.5001 238.952,-18 228.952,-14.5001 228.952,-21.5001"/>
</g>
<!-- MW&#45;&gt;MX -->
<g id="edge19" class="edge"><title>MW&#45;&gt;MX</title>
<path fill="none" stroke="black" d="M349.546,-310.59C376.577,-299.767 417.039,-283.568 451.325,-269.842"/>
<polygon fill="black" stroke="black" points="452.832,-273.008 460.815,-266.042 450.23,-266.51 452.832,-273.008"/>
</g>
<!-- Notes -->
<g id="node15" class="node"><title>Notes</title>
<ellipse fill="none" stroke="black" cx="354.196" cy="-242.87" rx="36.2938" ry="18"/>
<text text-anchor="middle" x="354.196" y="-239.17" font-family="Hershey-Noailles-help-me" font-size="14.00">Notes</text>
</g>
<!-- MW&#45;&gt;Notes -->
<g id="edge18" class="edge"><title>MW&#45;&gt;Notes</title>
<path fill="none" stroke="black" d="M326.791,-305.626C331.408,-295.22 337.398,-281.722 342.6,-270.001"/>
<polygon fill="black" stroke="black" points="345.88,-271.239 346.737,-260.679 339.481,-268.4 345.88,-271.239"/>
</g>
<!-- RR&#45;&gt;SU -->
<g id="edge9" class="edge"><title>RR&#45;&gt;SU</title>
<path fill="none" stroke="black" d="M356.201,-450.856C334.446,-440.056 305.634,-425.752 283.096,-414.563"/>
<polygon fill="black" stroke="black" points="284.373,-411.289 273.86,-409.977 281.26,-417.559 284.373,-411.289"/>
</g>
<!-- RR&#45;&gt;MX -->
<g id="edge8" class="edge"><title>RR&#45;&gt;MX</title>
<path fill="none" stroke="black" d="M428.858,-451.559C446.514,-443.005 465.922,-430.598 478.196,-413.74 506.933,-374.272 514.533,-316.968 516.23,-280.057"/>
<polygon fill="black" stroke="black" points="519.738,-279.871 516.575,-269.76 512.742,-279.637 519.738,-279.871"/>
</g>
<!-- FR -->
<g id="node14" class="node"><title>FR</title>
<ellipse fill="none" stroke="black" cx="388.196" cy="-395.74" rx="81.4863" ry="18"/>
<text text-anchor="middle" x="388.196" y="-392.04" font-family="Hershey-Noailles-help-me" font-size="14.00">Further reading</text>
</g>
<!-- RR&#45;&gt;FR -->
<g id="edge21" class="edge"><title>RR&#45;&gt;FR</title>
<path fill="none" stroke="black" d="M388.196,-449.437C388.196,-441.723 388.196,-432.453 388.196,-423.853"/>
<polygon fill="black" stroke="black" points="391.696,-423.844 388.196,-413.844 384.696,-423.844 391.696,-423.844"/>
</g>
</g>
</svg>
