<?xml version="1.0" encoding="UTF-8" standalone="no"?>
<!DOCTYPE svg PUBLIC "-//W3C//DTD SVG 1.1//EN"
 "http://www.w3.org/Graphics/SVG/1.1/DTD/svg11.dtd">
<!-- Generated by graphviz version 2.38.0 (20140413.2041)
 -->
<!-- Title: G Pages: 1 -->
<svg width="644pt" height="404pt"
 viewBox="0.00 0.00 643.54 404.48" xmlns="http://www.w3.org/2000/svg" xmlns:xlink="http://www.w3.org/1999/xlink">
<g id="graph0" class="graph" transform="scale(1 1) rotate(0) translate(4 400.48)">
<title>G</title>
<polygon fill="white" stroke="none" points="-4,4 -4,-400.48 639.536,-400.48 639.536,4 -4,4"/>
<!-- GS -->
<g id="node1" class="node"><title>GS</title>
<ellipse fill="none" stroke="grey" stroke-width="2" cx="102.691" cy="-378.48" rx="102.882" ry="18"/>
<text text-anchor="middle" x="102.691" y="-374.78" font-family="Times,serif" font-size="14.00">Ch.6 &#45; Object Abstraction</text>
</g>
<!-- SU -->
<g id="node2" class="node"><title>SU</title>
<ellipse fill="none" stroke="black" cx="227.691" cy="-260.61" rx="35.194" ry="18"/>
<text text-anchor="middle" x="227.691" y="-256.91" font-family="Times,serif" font-size="14.00">setup()</text>
</g>
<!-- GS&#45;&gt;SU -->
<g id="edge1" class="edge"><title>GS&#45;&gt;SU</title>
<path fill="none" stroke="black" d="M120.867,-360.632C142.863,-340.243 179.949,-305.865 204.122,-283.458"/>
<polygon fill="black" stroke="black" points="206.527,-286.001 211.481,-276.636 201.768,-280.867 206.527,-286.001"/>
</g>
<!-- MX -->
<g id="node12" class="node"><title>MX</title>
<ellipse fill="none" stroke="black" cx="102.691" cy="-98.8701" rx="88.2768" ry="26.7407"/>
<text text-anchor="middle" x="102.691" y="-102.67" font-family="Times,serif" font-size="14.00">MiniX 6: </text>
<text text-anchor="middle" x="102.691" y="-87.6701" font-family="Times,serif" font-size="14.00">Games with objects</text>
</g>
<!-- GS&#45;&gt;MX -->
<g id="edge5" class="edge"><title>GS&#45;&gt;MX</title>
<path fill="none" stroke="black" d="M80.5368,-360.651C61.1048,-344.373 34.2065,-317.769 22.6909,-287.48 14.2028,-265.155 16.3357,-256.764 22.6909,-233.74 32.9821,-196.457 56.6984,-159.099 75.6525,-133.358"/>
<polygon fill="black" stroke="black" points="78.657,-135.186 81.8716,-125.091 73.0631,-130.978 78.657,-135.186"/>
</g>
<!-- RR -->
<g id="node13" class="node"><title>RR</title>
<ellipse fill="none" stroke="black" cx="102.691" cy="-260.61" rx="71.4873" ry="18"/>
<text text-anchor="middle" x="102.691" y="-256.91" font-family="Times,serif" font-size="14.00">Required reading</text>
</g>
<!-- GS&#45;&gt;RR -->
<g id="edge6" class="edge"><title>GS&#45;&gt;RR</title>
<path fill="none" stroke="black" d="M102.691,-350.289C102.691,-331.798 102.691,-307.426 102.691,-288.912"/>
<polygon fill="black" stroke="black" points="99.191,-350.383 102.691,-360.383 106.191,-350.383 99.191,-350.383"/>
<polygon fill="black" stroke="black" points="106.191,-288.777 102.691,-278.777 99.191,-288.777 106.191,-288.777"/>
</g>
<!-- ST -->
<g id="node3" class="node"><title>ST</title>
<ellipse fill="none" stroke="black" cx="312.691" cy="-260.61" rx="31.6951" ry="18"/>
<text text-anchor="middle" x="312.691" y="-256.91" font-family="Times,serif" font-size="14.00">start()</text>
</g>
<!-- SU&#45;&gt;ST -->
<g id="edge2" class="edge"><title>SU&#45;&gt;ST</title>
<path fill="none" stroke="black" d="M262.886,-260.61C265.496,-260.61 268.107,-260.61 270.717,-260.61"/>
<polygon fill="black" stroke="black" points="270.785,-264.11 280.785,-260.61 270.785,-257.11 270.785,-264.11"/>
</g>
<!-- MW -->
<g id="node11" class="node"><title>MW</title>
<ellipse fill="none" stroke="black" cx="234.691" cy="-179.74" rx="38.1938" ry="18"/>
<text text-anchor="middle" x="234.691" y="-176.04" font-family="Times,serif" font-size="14.00">While()</text>
</g>
<!-- SU&#45;&gt;MW -->
<g id="edge7" class="edge"><title>SU&#45;&gt;MW</title>
<path fill="none" stroke="black" d="M230.097,-232.5C230.799,-224.593 231.566,-215.951 232.269,-208.032"/>
<polygon fill="black" stroke="black" points="226.608,-232.226 229.21,-242.497 233.58,-232.845 226.608,-232.226"/>
<polygon fill="black" stroke="black" points="235.777,-208.091 233.175,-197.82 228.805,-207.472 235.777,-208.091"/>
</g>
<!-- DE -->
<g id="node4" class="node"><title>DE</title>
<ellipse fill="none" stroke="black" cx="443.691" cy="-260.61" rx="81.135" ry="26.7407"/>
<text text-anchor="middle" x="443.691" y="-264.41" font-family="Times,serif" font-size="14.00">Exercise in class: </text>
<text text-anchor="middle" x="443.691" y="-249.41" font-family="Times,serif" font-size="14.00">Decode</text>
</g>
<!-- ST&#45;&gt;DE -->
<g id="edge3" class="edge"><title>ST&#45;&gt;DE</title>
<path fill="none" stroke="black" d="M344.673,-260.61C347.121,-260.61 349.569,-260.61 352.016,-260.61"/>
<polygon fill="black" stroke="black" points="352.079,-264.11 362.079,-260.61 352.079,-257.11 352.079,-264.11"/>
</g>
<!-- ST&#45;&gt;MW -->
<g id="edge17" class="edge"><title>ST&#45;&gt;MW</title>
<path fill="none" stroke="black" d="M297.652,-244.403C286.254,-232.878 270.398,-216.845 257.45,-203.753"/>
<polygon fill="black" stroke="black" points="259.738,-201.089 250.218,-196.44 254.761,-206.012 259.738,-201.089"/>
</g>
<!-- SC -->
<g id="node5" class="node"><title>SC</title>
<ellipse fill="none" stroke="black" cx="439.691" cy="-179.74" rx="55.7903" ry="18"/>
<text text-anchor="middle" x="439.691" y="-176.04" font-family="Times,serif" font-size="14.00">Source Code</text>
</g>
<!-- DE&#45;&gt;SC -->
<g id="edge4" class="edge"><title>DE&#45;&gt;SC</title>
<path fill="none" stroke="black" d="M442.359,-233.348C441.948,-225.247 441.495,-216.308 441.08,-208.132"/>
<polygon fill="black" stroke="black" points="444.566,-207.77 440.564,-197.96 437.575,-208.125 444.566,-207.77"/>
</g>
<!-- CL -->
<g id="node6" class="node"><title>CL</title>
<ellipse fill="none" stroke="black" cx="432.691" cy="-98.8701" rx="27.8951" ry="18"/>
<text text-anchor="middle" x="432.691" y="-95.1701" font-family="Times,serif" font-size="14.00">class</text>
</g>
<!-- SC&#45;&gt;CL -->
<g id="edge10" class="edge"><title>SC&#45;&gt;CL</title>
<path fill="none" stroke="black" d="M438.172,-161.626C437.273,-151.498 436.114,-138.44 435.094,-126.942"/>
<polygon fill="black" stroke="black" points="438.577,-126.602 434.207,-116.95 431.605,-127.221 438.577,-126.602"/>
</g>
<!-- OO -->
<g id="node7" class="node"><title>OO</title>
<ellipse fill="none" stroke="black" cx="516.691" cy="-98.8701" rx="37.8943" ry="18"/>
<text text-anchor="middle" x="516.691" y="-95.1701" font-family="Times,serif" font-size="14.00">Objects</text>
</g>
<!-- SC&#45;&gt;OO -->
<g id="edge11" class="edge"><title>SC&#45;&gt;OO</title>
<path fill="none" stroke="black" d="M455.645,-162.398C466.808,-150.964 481.875,-135.532 494.247,-122.859"/>
<polygon fill="black" stroke="black" points="497.061,-124.986 501.543,-115.386 492.053,-120.096 497.061,-124.986"/>
</g>
<!-- COC -->
<g id="node8" class="node"><title>COC</title>
<ellipse fill="none" stroke="black" cx="299.691" cy="-98.8701" rx="87.1846" ry="18"/>
<text text-anchor="middle" x="299.691" y="-95.1701" font-family="Times,serif" font-size="14.00">Class&#45;Object creation</text>
</g>
<!-- SC&#45;&gt;COC -->
<g id="edge12" class="edge"><title>SC&#45;&gt;COC</title>
<path fill="none" stroke="black" d="M413.028,-163.72C391.502,-151.592 360.961,-134.387 337.005,-120.891"/>
<polygon fill="black" stroke="black" points="338.609,-117.778 328.179,-115.919 335.174,-123.877 338.609,-117.778"/>
</g>
<!-- EiC -->
<g id="node9" class="node"><title>EiC</title>
<ellipse fill="none" stroke="black" cx="432.691" cy="-18" rx="69.5877" ry="18"/>
<text text-anchor="middle" x="432.691" y="-14.3" font-family="Times,serif" font-size="14.00">Exercise in class</text>
</g>
<!-- CL&#45;&gt;EiC -->
<g id="edge13" class="edge"><title>CL&#45;&gt;EiC</title>
<path fill="none" stroke="black" d="M432.691,-80.7564C432.691,-70.7312 432.691,-57.8362 432.691,-46.4246"/>
<polygon fill="black" stroke="black" points="436.191,-46.0802 432.691,-36.0802 429.191,-46.0803 436.191,-46.0802"/>
</g>
<!-- OO&#45;&gt;EiC -->
<g id="edge14" class="edge"><title>OO&#45;&gt;EiC</title>
<path fill="none" stroke="black" d="M500.095,-82.2879C488.105,-71.0296 471.689,-55.6166 458.06,-42.8199"/>
<polygon fill="black" stroke="black" points="460.098,-39.9324 450.412,-35.639 455.307,-45.0355 460.098,-39.9324"/>
</g>
<!-- COC&#45;&gt;EiC -->
<g id="edge15" class="edge"><title>COC&#45;&gt;EiC</title>
<path fill="none" stroke="black" d="M326.926,-81.7192C347.232,-69.6778 375.147,-53.1238 397.2,-40.0463"/>
<polygon fill="black" stroke="black" points="399.13,-42.9709 405.946,-34.8597 395.56,-36.95 399.13,-42.9709"/>
</g>
<!-- COC&#45;&gt;MW -->
<g id="edge20" class="edge"><title>COC&#45;&gt;MW</title>
<path fill="none" stroke="black" d="M285.657,-116.899C276.541,-127.959 264.525,-142.539 254.45,-154.764"/>
<polygon fill="black" stroke="black" points="251.504,-152.837 247.845,-162.78 256.905,-157.289 251.504,-152.837"/>
</g>
<!-- FN -->
<g id="node10" class="node"><title>FN</title>
<ellipse fill="none" stroke="black" cx="577.691" cy="-18" rx="57.6901" ry="18"/>
<text text-anchor="middle" x="577.691" y="-14.3" font-family="Times,serif" font-size="14.00">Further notes</text>
</g>
<!-- EiC&#45;&gt;FN -->
<g id="edge16" class="edge"><title>EiC&#45;&gt;FN</title>
<path fill="none" stroke="black" d="M502.359,-18C504.8,-18 507.242,-18 509.683,-18"/>
<polygon fill="black" stroke="black" points="509.721,-21.5001 519.721,-18 509.721,-14.5001 509.721,-21.5001"/>
</g>
<!-- MW&#45;&gt;MX -->
<g id="edge19" class="edge"><title>MW&#45;&gt;MX</title>
<path fill="none" stroke="black" d="M211.999,-165.182C195.101,-155.085 171.42,-140.936 150.419,-128.388"/>
<polygon fill="black" stroke="black" points="151.99,-125.249 141.611,-123.125 148.4,-131.258 151.99,-125.249"/>
</g>
<!-- Notes -->
<g id="node14" class="node"><title>Notes</title>
<ellipse fill="none" stroke="black" cx="322.691" cy="-179.74" rx="31.3957" ry="18"/>
<text text-anchor="middle" x="322.691" y="-176.04" font-family="Times,serif" font-size="14.00">Notes</text>
</g>
<!-- MW&#45;&gt;Notes -->
<g id="edge18" class="edge"><title>MW&#45;&gt;Notes</title>
<path fill="none" stroke="black" d="M273.191,-179.74C275.842,-179.74 278.492,-179.74 281.143,-179.74"/>
<polygon fill="black" stroke="black" points="281.367,-183.24 291.367,-179.74 281.367,-176.24 281.367,-183.24"/>
</g>
<!-- RR&#45;&gt;SU -->
<g id="edge9" class="edge"><title>RR&#45;&gt;SU</title>
<path fill="none" stroke="black" d="M174.468,-260.61C177.076,-260.61 179.683,-260.61 182.291,-260.61"/>
<polygon fill="black" stroke="black" points="182.348,-264.11 192.348,-260.61 182.348,-257.11 182.348,-264.11"/>
</g>
<!-- RR&#45;&gt;MX -->
<g id="edge8" class="edge"><title>RR&#45;&gt;MX</title>
<path fill="none" stroke="black" d="M102.691,-242.515C102.691,-217.241 102.691,-169.313 102.691,-136.025"/>
<polygon fill="black" stroke="black" points="106.191,-135.779 102.691,-125.779 99.191,-135.779 106.191,-135.779"/>
</g>
</g>
</svg>
