<?xml version="1.0" encoding="UTF-8" standalone="no"?>
<!DOCTYPE svg PUBLIC "-//W3C//DTD SVG 1.1//EN"
 "http://www.w3.org/Graphics/SVG/1.1/DTD/svg11.dtd">
<!-- Generated by graphviz version 2.38.0 (20140413.2041)
 -->
<!-- Title: G Pages: 1 -->
<svg width="433pt" height="583pt"
 viewBox="0.00 0.00 433.23 583.48" xmlns="http://www.w3.org/2000/svg" xmlns:xlink="http://www.w3.org/1999/xlink">
<g id="graph0" class="graph" transform="scale(1 1) rotate(0) translate(4 579.48)">
<title>G</title>
<polygon fill="white" stroke="none" points="-4,4 -4,-579.48 429.233,-579.48 429.233,4 -4,4"/>
<!-- GS -->
<g id="node1" class="node"><title>GS</title>
<ellipse fill="none" stroke="grey" stroke-width="2" cx="236.845" cy="-557.48" rx="102.882" ry="18"/>
<text text-anchor="middle" x="236.845" y="-553.78" font-family="Times,serif" font-size="14.00">Ch.6 &#45; Object Abstraction</text>
</g>
<!-- SU -->
<g id="node2" class="node"><title>SU</title>
<ellipse fill="none" stroke="black" cx="135.845" cy="-413.48" rx="35.194" ry="18"/>
<text text-anchor="middle" x="135.845" y="-409.78" font-family="Times,serif" font-size="14.00">setup()</text>
</g>
<!-- GS&#45;&gt;SU -->
<g id="edge1" class="edge"><title>GS&#45;&gt;SU</title>
<path fill="none" stroke="black" d="M201.151,-540.49C185.357,-531.704 167.896,-519.335 156.845,-503.48 144.189,-485.323 139.09,-460.547 137.07,-441.746"/>
<polygon fill="black" stroke="black" points="140.553,-441.397 136.219,-431.729 133.578,-441.99 140.553,-441.397"/>
</g>
<!-- MX -->
<g id="node12" class="node"><title>MX</title>
<ellipse fill="none" stroke="black" cx="336.845" cy="-242.87" rx="88.2768" ry="26.7407"/>
<text text-anchor="middle" x="336.845" y="-246.67" font-family="Times,serif" font-size="14.00">MiniX 6: </text>
<text text-anchor="middle" x="336.845" y="-231.67" font-family="Times,serif" font-size="14.00">Games with objects</text>
</g>
<!-- GS&#45;&gt;MX -->
<g id="edge6" class="edge"><title>GS&#45;&gt;MX</title>
<path fill="none" stroke="black" d="M274.915,-540.537C290.602,-531.94 307.307,-519.711 316.845,-503.48 358.177,-433.145 351.174,-332.96 343.443,-279.964"/>
<polygon fill="black" stroke="black" points="346.892,-279.363 341.901,-270.017 339.974,-280.435 346.892,-279.363"/>
</g>
<!-- RR -->
<g id="node13" class="node"><title>RR</title>
<ellipse fill="none" stroke="black" cx="236.845" cy="-485.48" rx="71.4873" ry="18"/>
<text text-anchor="middle" x="236.845" y="-481.78" font-family="Times,serif" font-size="14.00">Required reading</text>
</g>
<!-- GS&#45;&gt;RR -->
<g id="edge5" class="edge"><title>GS&#45;&gt;RR</title>
<path fill="none" stroke="black" d="M236.845,-539.177C236.845,-531.463 236.845,-522.193 236.845,-513.593"/>
<polygon fill="black" stroke="black" points="240.345,-513.585 236.845,-503.585 233.345,-513.585 240.345,-513.585"/>
</g>
<!-- ST -->
<g id="node3" class="node"><title>ST</title>
<ellipse fill="none" stroke="black" cx="220.845" cy="-413.48" rx="31.6951" ry="18"/>
<text text-anchor="middle" x="220.845" y="-409.78" font-family="Times,serif" font-size="14.00">start()</text>
</g>
<!-- SU&#45;&gt;ST -->
<g id="edge2" class="edge"><title>SU&#45;&gt;ST</title>
<path fill="none" stroke="black" d="M171.04,-413.48C173.65,-413.48 176.261,-413.48 178.871,-413.48"/>
<polygon fill="black" stroke="black" points="178.939,-416.98 188.939,-413.48 178.939,-409.98 178.939,-416.98"/>
</g>
<!-- DE -->
<g id="node4" class="node"><title>DE</title>
<ellipse fill="none" stroke="black" cx="111.845" cy="-332.61" rx="81.135" ry="26.7407"/>
<text text-anchor="middle" x="111.845" y="-336.41" font-family="Times,serif" font-size="14.00">Exercise in class: </text>
<text text-anchor="middle" x="111.845" y="-321.41" font-family="Times,serif" font-size="14.00">Decode</text>
</g>
<!-- ST&#45;&gt;DE -->
<g id="edge3" class="edge"><title>ST&#45;&gt;DE</title>
<path fill="none" stroke="black" d="M201.859,-398.742C188.458,-389.046 169.983,-375.678 153.257,-363.575"/>
<polygon fill="black" stroke="black" points="154.859,-360.414 144.706,-357.387 150.755,-366.085 154.859,-360.414"/>
</g>
<!-- MW -->
<g id="node11" class="node"><title>MW</title>
<ellipse fill="none" stroke="black" cx="325.845" cy="-162" rx="38.1938" ry="18"/>
<text text-anchor="middle" x="325.845" y="-158.3" font-family="Times,serif" font-size="14.00">While()</text>
</g>
<!-- ST&#45;&gt;MW -->
<g id="edge15" class="edge"><title>ST&#45;&gt;MW</title>
<path fill="none" stroke="black" d="M217.759,-395.387C212.172,-359.193 204.039,-273.437 239.845,-216 250.57,-198.796 269.143,-186.323 286.291,-177.815"/>
<polygon fill="black" stroke="black" points="288.013,-180.875 295.612,-173.492 285.068,-174.525 288.013,-180.875"/>
</g>
<!-- SC -->
<g id="node5" class="node"><title>SC</title>
<ellipse fill="none" stroke="black" cx="111.845" cy="-242.87" rx="55.7903" ry="18"/>
<text text-anchor="middle" x="111.845" y="-239.17" font-family="Times,serif" font-size="14.00">Source Code</text>
</g>
<!-- DE&#45;&gt;SC -->
<g id="edge4" class="edge"><title>DE&#45;&gt;SC</title>
<path fill="none" stroke="black" d="M111.845,-305.285C111.845,-294.534 111.845,-282.099 111.845,-271.242"/>
<polygon fill="black" stroke="black" points="115.345,-271.031 111.845,-261.031 108.345,-271.031 115.345,-271.031"/>
</g>
<!-- CL -->
<g id="node6" class="node"><title>CL</title>
<ellipse fill="none" stroke="black" cx="116.845" cy="-162" rx="27.8951" ry="18"/>
<text text-anchor="middle" x="116.845" y="-158.3" font-family="Times,serif" font-size="14.00">class</text>
</g>
<!-- SC&#45;&gt;CL -->
<g id="edge9" class="edge"><title>SC&#45;&gt;CL</title>
<path fill="none" stroke="black" d="M112.93,-224.756C113.572,-214.628 114.4,-201.57 115.129,-190.072"/>
<polygon fill="black" stroke="black" points="118.622,-190.282 115.762,-180.08 111.636,-189.839 118.622,-190.282"/>
</g>
<!-- FN -->
<g id="node10" class="node"><title>FN</title>
<ellipse fill="none" stroke="black" cx="57.8449" cy="-18" rx="57.6901" ry="18"/>
<text text-anchor="middle" x="57.8449" y="-14.3" font-family="Times,serif" font-size="14.00">Further notes</text>
</g>
<!-- SC&#45;&gt;FN -->
<g id="edge10" class="edge"><title>SC&#45;&gt;FN</title>
<path fill="none" stroke="black" d="M101.081,-224.955C93.9158,-212.889 84.9176,-196.026 79.8449,-180 65.4647,-134.571 60.4832,-79.0024 58.7581,-46.4503"/>
<polygon fill="black" stroke="black" points="62.2489,-46.1681 58.289,-36.3411 55.2564,-46.4927 62.2489,-46.1681"/>
</g>
<!-- OO -->
<g id="node7" class="node"><title>OO</title>
<ellipse fill="none" stroke="black" cx="200.845" cy="-162" rx="37.8943" ry="18"/>
<text text-anchor="middle" x="200.845" y="-158.3" font-family="Times,serif" font-size="14.00">Objects</text>
</g>
<!-- CL&#45;&gt;OO -->
<g id="edge11" class="edge"><title>CL&#45;&gt;OO</title>
<path fill="none" stroke="black" d="M145.064,-162C147.669,-162 150.275,-162 152.881,-162"/>
<polygon fill="black" stroke="black" points="152.931,-165.5 162.931,-162 152.931,-158.5 152.931,-165.5"/>
</g>
<!-- COC -->
<g id="node8" class="node"><title>COC</title>
<ellipse fill="none" stroke="black" cx="200.845" cy="-90" rx="87.1846" ry="18"/>
<text text-anchor="middle" x="200.845" y="-86.3" font-family="Times,serif" font-size="14.00">Class&#45;Object creation</text>
</g>
<!-- CL&#45;&gt;COC -->
<g id="edge12" class="edge"><title>CL&#45;&gt;COC</title>
<path fill="none" stroke="black" d="M133.441,-147.17C144.686,-137.799 159.822,-125.186 172.903,-114.285"/>
<polygon fill="black" stroke="black" points="175.287,-116.855 180.728,-107.764 170.805,-111.477 175.287,-116.855"/>
</g>
<!-- OO&#45;&gt;COC -->
<g id="edge13" class="edge"><title>OO&#45;&gt;COC</title>
<path fill="none" stroke="black" d="M200.845,-143.697C200.845,-135.983 200.845,-126.712 200.845,-118.112"/>
<polygon fill="black" stroke="black" points="204.345,-118.104 200.845,-108.104 197.345,-118.104 204.345,-118.104"/>
</g>
<!-- EiC -->
<g id="node9" class="node"><title>EiC</title>
<ellipse fill="none" stroke="black" cx="202.845" cy="-18" rx="69.5877" ry="18"/>
<text text-anchor="middle" x="202.845" y="-14.3" font-family="Times,serif" font-size="14.00">Exercise in class</text>
</g>
<!-- COC&#45;&gt;EiC -->
<g id="edge14" class="edge"><title>COC&#45;&gt;EiC</title>
<path fill="none" stroke="black" d="M201.339,-71.6966C201.56,-63.9827 201.825,-54.7125 202.07,-46.1124"/>
<polygon fill="black" stroke="black" points="205.569,-46.2002 202.356,-36.1043 198.572,-46.0003 205.569,-46.2002"/>
</g>
<!-- MW&#45;&gt;MX -->
<g id="edge17" class="edge"><title>MW&#45;&gt;MX</title>
<path fill="none" stroke="black" d="M328.247,-180.22C329.284,-187.661 330.541,-196.668 331.768,-205.472"/>
<polygon fill="black" stroke="black" points="328.334,-206.187 333.182,-215.607 335.267,-205.22 328.334,-206.187"/>
</g>
<!-- Notes -->
<g id="node14" class="node"><title>Notes</title>
<ellipse fill="none" stroke="black" cx="325.845" cy="-18" rx="31.3957" ry="18"/>
<text text-anchor="middle" x="325.845" y="-14.3" font-family="Times,serif" font-size="14.00">Notes</text>
</g>
<!-- MW&#45;&gt;Notes -->
<g id="edge16" class="edge"><title>MW&#45;&gt;Notes</title>
<path fill="none" stroke="black" d="M325.845,-143.871C325.845,-119.67 325.845,-75.2108 325.845,-46.3932"/>
<polygon fill="black" stroke="black" points="329.345,-46.1892 325.845,-36.1893 322.345,-46.1893 329.345,-46.1892"/>
</g>
<!-- RR&#45;&gt;SU -->
<g id="edge8" class="edge"><title>RR&#45;&gt;SU</title>
<path fill="none" stroke="black" d="M213.673,-468.421C198.932,-458.204 179.743,-444.905 164.109,-434.069"/>
<polygon fill="black" stroke="black" points="166.052,-431.157 155.839,-428.337 162.064,-436.91 166.052,-431.157"/>
</g>
<!-- RR&#45;&gt;MX -->
<g id="edge7" class="edge"><title>RR&#45;&gt;MX</title>
<path fill="none" stroke="black" d="M245.216,-467.414C250.202,-457.085 256.567,-443.607 261.845,-431.48 284.655,-379.074 308.812,-317.377 323.361,-279.445"/>
<polygon fill="black" stroke="black" points="326.72,-280.46 327.023,-269.869 320.181,-277.959 326.72,-280.46"/>
</g>
</g>
</svg>
