<?xml version="1.0" encoding="UTF-8" standalone="no"?>
<!DOCTYPE svg PUBLIC "-//W3C//DTD SVG 1.1//EN"
 "http://www.w3.org/Graphics/SVG/1.1/DTD/svg11.dtd">
<!-- Generated by graphviz version 2.38.0 (20140413.2041)
 -->
<!-- Title: G Pages: 1 -->
<svg width="580pt" height="710pt"
 viewBox="0.00 0.00 580.08 709.74" xmlns="http://www.w3.org/2000/svg" xmlns:xlink="http://www.w3.org/1999/xlink">
<g id="graph0" class="graph" transform="scale(1 1) rotate(0) translate(4 705.74)">
<title>G</title>
<polygon fill="white" stroke="none" points="-4,4 -4,-705.74 576.078,-705.74 576.078,4 -4,4"/>
<!-- GS -->
<g id="node1" class="node"><title>GS</title>
<ellipse fill="none" stroke="grey" stroke-width="2" cx="245.447" cy="-683.74" rx="85.5853" ry="18"/>
<text text-anchor="middle" x="245.447" y="-680.04" font-family="Times,serif" font-size="14.00">Ch.3 &#45; Infinite Loops</text>
</g>
<!-- SU -->
<g id="node2" class="node"><title>SU</title>
<ellipse fill="none" stroke="black" cx="245.447" cy="-611.74" rx="35.194" ry="18"/>
<text text-anchor="middle" x="245.447" y="-608.04" font-family="Times,serif" font-size="14.00">setup()</text>
</g>
<!-- GS&#45;&gt;SU -->
<g id="edge1" class="edge"><title>GS&#45;&gt;SU</title>
<path fill="none" stroke="black" d="M245.447,-665.437C245.447,-657.723 245.447,-648.453 245.447,-639.853"/>
<polygon fill="black" stroke="black" points="248.947,-639.844 245.447,-629.844 241.947,-639.844 248.947,-639.844"/>
</g>
<!-- ST -->
<g id="node3" class="node"><title>ST</title>
<ellipse fill="none" stroke="black" cx="245.447" cy="-539.74" rx="31.6951" ry="18"/>
<text text-anchor="middle" x="245.447" y="-536.04" font-family="Times,serif" font-size="14.00">start()</text>
</g>
<!-- SU&#45;&gt;ST -->
<g id="edge2" class="edge"><title>SU&#45;&gt;ST</title>
<path fill="none" stroke="black" d="M245.447,-593.437C245.447,-585.723 245.447,-576.453 245.447,-567.853"/>
<polygon fill="black" stroke="black" points="248.947,-567.844 245.447,-557.844 241.947,-567.844 248.947,-567.844"/>
</g>
<!-- SC -->
<g id="node5" class="node"><title>SC</title>
<ellipse fill="none" stroke="black" cx="245.447" cy="-467.74" rx="55.7903" ry="18"/>
<text text-anchor="middle" x="245.447" y="-464.04" font-family="Times,serif" font-size="14.00">Source Code</text>
</g>
<!-- ST&#45;&gt;SC -->
<g id="edge3" class="edge"><title>ST&#45;&gt;SC</title>
<path fill="none" stroke="black" d="M245.447,-521.437C245.447,-513.723 245.447,-504.453 245.447,-495.853"/>
<polygon fill="black" stroke="black" points="248.947,-495.844 245.447,-485.844 241.947,-495.844 248.947,-495.844"/>
</g>
<!-- DE -->
<g id="node4" class="node"><title>DE</title>
<ellipse fill="none" stroke="black" cx="93.4469" cy="-395.74" rx="37.8943" ry="18"/>
<text text-anchor="middle" x="93.4469" y="-392.04" font-family="Times,serif" font-size="14.00">Decode</text>
</g>
<!-- SC&#45;&gt;DE -->
<g id="edge4" class="edge"><title>SC&#45;&gt;DE</title>
<path fill="none" stroke="black" d="M214.687,-452.575C189.81,-441.118 154.764,-424.978 128.745,-412.996"/>
<polygon fill="black" stroke="black" points="130.151,-409.79 119.604,-408.786 127.223,-416.148 130.151,-409.79"/>
</g>
<!-- FN -->
<g id="node6" class="node"><title>FN</title>
<ellipse fill="none" stroke="black" cx="191.447" cy="-395.74" rx="42.4939" ry="18"/>
<text text-anchor="middle" x="191.447" y="-392.04" font-family="Times,serif" font-size="14.00">Function</text>
</g>
<!-- SC&#45;&gt;FN -->
<g id="edge5" class="edge"><title>SC&#45;&gt;FN</title>
<path fill="none" stroke="black" d="M232.65,-450.151C225.992,-441.521 217.723,-430.802 210.345,-421.237"/>
<polygon fill="black" stroke="black" points="213.032,-418.99 204.152,-413.21 207.489,-423.266 213.032,-418.99"/>
</g>
<!-- TR -->
<g id="node8" class="node"><title>TR</title>
<ellipse fill="none" stroke="black" cx="299.447" cy="-395.74" rx="48.1917" ry="18"/>
<text text-anchor="middle" x="299.447" y="-392.04" font-family="Times,serif" font-size="14.00">Transform</text>
</g>
<!-- SC&#45;&gt;TR -->
<g id="edge7" class="edge"><title>SC&#45;&gt;TR</title>
<path fill="none" stroke="black" d="M258.244,-450.151C264.902,-441.521 273.17,-430.802 280.549,-421.237"/>
<polygon fill="black" stroke="black" points="283.405,-423.266 286.742,-413.21 277.862,-418.99 283.405,-423.266"/>
</g>
<!-- MW -->
<g id="node17" class="node"><title>MW</title>
<ellipse fill="none" stroke="black" cx="441.447" cy="-395.74" rx="38.1938" ry="18"/>
<text text-anchor="middle" x="441.447" y="-392.04" font-family="Times,serif" font-size="14.00">While()</text>
</g>
<!-- SC&#45;&gt;MW -->
<g id="edge17" class="edge"><title>SC&#45;&gt;MW</title>
<path fill="none" stroke="black" d="M281.396,-453.901C315.641,-441.671 367.059,-423.307 402.319,-410.714"/>
<polygon fill="black" stroke="black" points="403.568,-413.985 411.808,-407.325 401.214,-407.393 403.568,-413.985"/>
</g>
<!-- EiC -->
<g id="node7" class="node"><title>EiC</title>
<ellipse fill="none" stroke="black" cx="142.447" cy="-314.87" rx="69.5877" ry="18"/>
<text text-anchor="middle" x="142.447" y="-311.17" font-family="Times,serif" font-size="14.00">Exercise in class</text>
</g>
<!-- FN&#45;&gt;EiC -->
<g id="edge6" class="edge"><title>FN&#45;&gt;EiC</title>
<path fill="none" stroke="black" d="M181.055,-378.014C174.474,-367.42 165.831,-353.51 158.393,-341.536"/>
<polygon fill="black" stroke="black" points="161.243,-339.491 152.993,-332.844 155.297,-343.185 161.243,-339.491"/>
</g>
<!-- AP -->
<g id="node10" class="node"><title>AP</title>
<ellipse fill="none" stroke="black" cx="180.447" cy="-234" rx="71.4873" ry="18"/>
<text text-anchor="middle" x="180.447" y="-230.3" font-family="Times,serif" font-size="14.00">Asterisk Painting</text>
</g>
<!-- EiC&#45;&gt;AP -->
<g id="edge9" class="edge"><title>EiC&#45;&gt;AP</title>
<path fill="none" stroke="black" d="M150.692,-296.756C155.672,-286.421 162.121,-273.036 167.742,-261.37"/>
<polygon fill="black" stroke="black" points="171.03,-262.608 172.218,-252.08 164.724,-259.57 171.03,-262.608"/>
</g>
<!-- EiC2 -->
<g id="node9" class="node"><title>EiC2</title>
<ellipse fill="none" stroke="black" cx="299.447" cy="-314.87" rx="69.5877" ry="18"/>
<text text-anchor="middle" x="299.447" y="-311.17" font-family="Times,serif" font-size="14.00">Exercise in class</text>
</g>
<!-- TR&#45;&gt;EiC2 -->
<g id="edge8" class="edge"><title>TR&#45;&gt;EiC2</title>
<path fill="none" stroke="black" d="M299.447,-377.626C299.447,-367.601 299.447,-354.706 299.447,-343.295"/>
<polygon fill="black" stroke="black" points="302.947,-342.95 299.447,-332.95 295.947,-342.95 302.947,-342.95"/>
</g>
<!-- EiC2&#45;&gt;AP -->
<g id="edge10" class="edge"><title>EiC2&#45;&gt;AP</title>
<path fill="none" stroke="black" d="M275.366,-297.91C257.499,-286.068 232.934,-269.787 213.271,-256.755"/>
<polygon fill="black" stroke="black" points="215.17,-253.815 204.901,-251.207 211.303,-259.649 215.17,-253.815"/>
</g>
<!-- SC2 -->
<g id="node11" class="node"><title>SC2</title>
<ellipse fill="none" stroke="black" cx="180.447" cy="-162" rx="55.7903" ry="18"/>
<text text-anchor="middle" x="180.447" y="-158.3" font-family="Times,serif" font-size="14.00">Source Code</text>
</g>
<!-- AP&#45;&gt;SC2 -->
<g id="edge11" class="edge"><title>AP&#45;&gt;SC2</title>
<path fill="none" stroke="black" d="M180.447,-215.697C180.447,-207.983 180.447,-198.712 180.447,-190.112"/>
<polygon fill="black" stroke="black" points="183.947,-190.104 180.447,-180.104 176.947,-190.104 183.947,-190.104"/>
</g>
<!-- EiC3 -->
<g id="node12" class="node"><title>EiC3</title>
<ellipse fill="none" stroke="black" cx="323.447" cy="-162" rx="69.5877" ry="18"/>
<text text-anchor="middle" x="323.447" y="-158.3" font-family="Times,serif" font-size="14.00">Exercise in class</text>
</g>
<!-- SC2&#45;&gt;EiC3 -->
<g id="edge12" class="edge"><title>SC2&#45;&gt;EiC3</title>
<path fill="none" stroke="black" d="M236.586,-162C239.019,-162 241.452,-162 243.886,-162"/>
<polygon fill="black" stroke="black" points="243.89,-165.5 253.89,-162 243.89,-158.5 243.89,-165.5"/>
</g>
<!-- AR -->
<g id="node13" class="node"><title>AR</title>
<ellipse fill="none" stroke="black" cx="34.4469" cy="-90" rx="34.394" ry="18"/>
<text text-anchor="middle" x="34.4469" y="-86.3" font-family="Times,serif" font-size="14.00">Arrays</text>
</g>
<!-- SC2&#45;&gt;AR -->
<g id="edge13" class="edge"><title>SC2&#45;&gt;AR</title>
<path fill="none" stroke="black" d="M150.549,-146.666C126.581,-135.174 92.9551,-119.052 68.0563,-107.114"/>
<polygon fill="black" stroke="black" points="69.5096,-103.929 58.9792,-102.762 66.4832,-110.241 69.5096,-103.929"/>
</g>
<!-- CS -->
<g id="node14" class="node"><title>CS</title>
<ellipse fill="none" stroke="black" cx="180.447" cy="-90" rx="93.6835" ry="18"/>
<text text-anchor="middle" x="180.447" y="-86.3" font-family="Times,serif" font-size="14.00">Conditional Statements</text>
</g>
<!-- SC2&#45;&gt;CS -->
<g id="edge14" class="edge"><title>SC2&#45;&gt;CS</title>
<path fill="none" stroke="black" d="M180.447,-143.697C180.447,-135.983 180.447,-126.712 180.447,-118.112"/>
<polygon fill="black" stroke="black" points="183.947,-118.104 180.447,-108.104 176.947,-118.104 183.947,-118.104"/>
</g>
<!-- LO -->
<g id="node15" class="node"><title>LO</title>
<ellipse fill="none" stroke="black" cx="324.447" cy="-90" rx="32.4942" ry="18"/>
<text text-anchor="middle" x="324.447" y="-86.3" font-family="Times,serif" font-size="14.00">Loops</text>
</g>
<!-- SC2&#45;&gt;LO -->
<g id="edge15" class="edge"><title>SC2&#45;&gt;LO</title>
<path fill="none" stroke="black" d="M209.935,-146.666C233.616,-135.154 266.856,-118.996 291.426,-107.052"/>
<polygon fill="black" stroke="black" points="293.246,-110.059 300.71,-102.539 290.186,-103.763 293.246,-110.059"/>
</g>
<!-- WL -->
<g id="node16" class="node"><title>WL</title>
<ellipse fill="none" stroke="black" cx="324.447" cy="-18" rx="53.8905" ry="18"/>
<text text-anchor="middle" x="324.447" y="-14.3" font-family="Times,serif" font-size="14.00">While Loop</text>
</g>
<!-- LO&#45;&gt;WL -->
<g id="edge16" class="edge"><title>LO&#45;&gt;WL</title>
<path fill="none" stroke="black" d="M324.447,-71.6966C324.447,-63.9827 324.447,-54.7125 324.447,-46.1124"/>
<polygon fill="black" stroke="black" points="327.947,-46.1043 324.447,-36.1043 320.947,-46.1044 327.947,-46.1043"/>
</g>
<!-- MX -->
<g id="node18" class="node"><title>MX</title>
<ellipse fill="none" stroke="black" cx="479.447" cy="-314.87" rx="92.7622" ry="26.7407"/>
<text text-anchor="middle" x="479.447" y="-318.67" font-family="Times,serif" font-size="14.00">MiniX 3: </text>
<text text-anchor="middle" x="479.447" y="-303.67" font-family="Times,serif" font-size="14.00">Designing a throbber</text>
</g>
<!-- MW&#45;&gt;MX -->
<g id="edge18" class="edge"><title>MW&#45;&gt;MX</title>
<path fill="none" stroke="black" d="M449.506,-378.014C453.329,-370.078 458.049,-360.281 462.602,-350.831"/>
<polygon fill="black" stroke="black" points="465.873,-352.107 467.06,-341.579 459.566,-349.069 465.873,-352.107"/>
</g>
<!-- RR -->
<g id="node19" class="node"><title>RR</title>
<ellipse fill="none" stroke="black" cx="479.447" cy="-234" rx="71.4873" ry="18"/>
<text text-anchor="middle" x="479.447" y="-230.3" font-family="Times,serif" font-size="14.00">Required reading</text>
</g>
<!-- MX&#45;&gt;RR -->
<g id="edge19" class="edge"><title>MX&#45;&gt;RR</title>
<path fill="none" stroke="black" d="M479.447,-287.607C479.447,-279.506 479.447,-270.568 479.447,-262.392"/>
<polygon fill="black" stroke="black" points="482.947,-262.22 479.447,-252.22 475.947,-262.22 482.947,-262.22"/>
</g>
<!-- Notes -->
<g id="node20" class="node"><title>Notes</title>
<ellipse fill="none" stroke="black" cx="479.447" cy="-162" rx="31.3957" ry="18"/>
<text text-anchor="middle" x="479.447" y="-158.3" font-family="Times,serif" font-size="14.00">Notes</text>
</g>
<!-- RR&#45;&gt;Notes -->
<g id="edge20" class="edge"><title>RR&#45;&gt;Notes</title>
<path fill="none" stroke="black" d="M479.447,-215.697C479.447,-207.983 479.447,-198.712 479.447,-190.112"/>
<polygon fill="black" stroke="black" points="482.947,-190.104 479.447,-180.104 475.947,-190.104 482.947,-190.104"/>
</g>
</g>
</svg>
