<?xml version="1.0" encoding="UTF-8" standalone="no"?>
<!DOCTYPE svg PUBLIC "-//W3C//DTD SVG 1.1//EN"
 "http://www.w3.org/Graphics/SVG/1.1/DTD/svg11.dtd">
<!-- Generated by graphviz version 2.38.0 (20140413.2041)
 -->
<!-- Title: G Pages: 1 -->
<svg width="669pt" height="727pt"
 viewBox="0.00 0.00 668.79 727.48" xmlns="http://www.w3.org/2000/svg" xmlns:xlink="http://www.w3.org/1999/xlink">
<g id="graph0" class="graph" transform="scale(1 1) rotate(0) translate(4 723.48)">
<title>G</title>
<polygon fill="white" stroke="none" points="-4,4 -4,-723.48 664.792,-723.48 664.792,4 -4,4"/>
<!-- GS -->
<g id="node1" class="node"><title>GS</title>
<ellipse fill="none" stroke="grey" stroke-width="2" cx="85.7924" cy="-701.48" rx="85.5853" ry="18"/>
<text text-anchor="middle" x="85.7924" y="-697.78" font-family="Times,serif" font-size="14.00">Ch.3 &#45; Infinite Loops</text>
</g>
<!-- SU -->
<g id="node2" class="node"><title>SU</title>
<ellipse fill="none" stroke="black" cx="85.7924" cy="-629.48" rx="35.194" ry="18"/>
<text text-anchor="middle" x="85.7924" y="-625.78" font-family="Times,serif" font-size="14.00">setup()</text>
</g>
<!-- GS&#45;&gt;SU -->
<g id="edge1" class="edge"><title>GS&#45;&gt;SU</title>
<path fill="none" stroke="black" d="M85.7924,-683.177C85.7924,-675.463 85.7924,-666.193 85.7924,-657.593"/>
<polygon fill="black" stroke="black" points="89.2925,-657.585 85.7924,-647.585 82.2925,-657.585 89.2925,-657.585"/>
</g>
<!-- MX -->
<g id="node18" class="node"><title>MX</title>
<ellipse fill="none" stroke="black" cx="93.7924" cy="-26.8701" rx="92.7622" ry="26.7407"/>
<text text-anchor="middle" x="93.7924" y="-30.6701" font-family="Times,serif" font-size="14.00">MiniX: </text>
<text text-anchor="middle" x="93.7924" y="-15.6701" font-family="Times,serif" font-size="14.00">Designing a throbber</text>
</g>
<!-- GS&#45;&gt;MX -->
<g id="edge7" class="edge"><title>GS&#45;&gt;MX</title>
<path fill="none" stroke="black" d="M68.6406,-683.709C59.493,-673.907 48.7258,-660.859 41.7924,-647.48 22.9417,-611.106 17.7924,-599.449 17.7924,-558.48 17.7924,-558.48 17.7924,-558.48 17.7924,-178.74 17.7924,-134.696 43.9461,-90.408 65.5687,-61.319"/>
<polygon fill="black" stroke="black" points="68.5119,-63.2323 71.81,-53.1639 62.953,-58.978 68.5119,-63.2323"/>
</g>
<!-- RR -->
<g id="node19" class="node"><title>RR</title>
<ellipse fill="none" stroke="black" cx="304.792" cy="-701.48" rx="71.4873" ry="18"/>
<text text-anchor="middle" x="304.792" y="-697.78" font-family="Times,serif" font-size="14.00">Required reading</text>
</g>
<!-- GS&#45;&gt;RR -->
<g id="edge5" class="edge"><title>GS&#45;&gt;RR</title>
<path fill="none" stroke="black" d="M181.827,-701.48C195.575,-701.48 209.324,-701.48 223.072,-701.48"/>
<polygon fill="black" stroke="black" points="181.767,-697.98 171.767,-701.48 181.767,-704.98 181.767,-697.98"/>
<polygon fill="black" stroke="black" points="223.083,-704.98 233.083,-701.48 223.083,-697.98 223.083,-704.98"/>
</g>
<!-- ST -->
<g id="node3" class="node"><title>ST</title>
<ellipse fill="none" stroke="black" cx="170.792" cy="-629.48" rx="31.6951" ry="18"/>
<text text-anchor="middle" x="170.792" y="-625.78" font-family="Times,serif" font-size="14.00">start()</text>
</g>
<!-- SU&#45;&gt;ST -->
<g id="edge2" class="edge"><title>SU&#45;&gt;ST</title>
<path fill="none" stroke="black" d="M120.988,-629.48C123.598,-629.48 126.208,-629.48 128.818,-629.48"/>
<polygon fill="black" stroke="black" points="128.886,-632.98 138.886,-629.48 128.886,-625.98 128.886,-632.98"/>
</g>
<!-- MW -->
<g id="node17" class="node"><title>MW</title>
<ellipse fill="none" stroke="black" cx="93.7924" cy="-107.74" rx="38.1938" ry="18"/>
<text text-anchor="middle" x="93.7924" y="-104.04" font-family="Times,serif" font-size="14.00">While()</text>
</g>
<!-- SU&#45;&gt;MW -->
<g id="edge6" class="edge"><title>SU&#45;&gt;MW</title>
<path fill="none" stroke="black" d="M76.7889,-602.128C67.9524,-573.88 55.7924,-527.547 55.7924,-486.48 55.7924,-486.48 55.7924,-486.48 55.7924,-250.74 55.7924,-209.146 71.195,-162.957 82.3879,-134.883"/>
<polygon fill="black" stroke="black" points="73.4665,-603.23 79.8654,-611.674 80.129,-601.082 73.4665,-603.23"/>
<polygon fill="black" stroke="black" points="85.7205,-135.982 86.2848,-125.402 79.246,-133.321 85.7205,-135.982"/>
</g>
<!-- SC -->
<g id="node5" class="node"><title>SC</title>
<ellipse fill="none" stroke="black" cx="175.792" cy="-557.48" rx="53.8905" ry="18"/>
<text text-anchor="middle" x="175.792" y="-553.78" font-family="Times,serif" font-size="14.00">Source code</text>
</g>
<!-- ST&#45;&gt;SC -->
<g id="edge3" class="edge"><title>ST&#45;&gt;SC</title>
<path fill="none" stroke="black" d="M172.028,-611.177C172.579,-603.463 173.241,-594.193 173.856,-585.593"/>
<polygon fill="black" stroke="black" points="177.349,-585.809 174.571,-575.585 170.367,-585.31 177.349,-585.809"/>
</g>
<!-- ST&#45;&gt;MW -->
<g id="edge22" class="edge"><title>ST&#45;&gt;MW</title>
<path fill="none" stroke="black" d="M150.869,-615.281C138.041,-605.733 122.084,-591.694 112.792,-575.48 92.6822,-540.387 93.7924,-526.927 93.7924,-486.48 93.7924,-486.48 93.7924,-486.48 93.7924,-250.74 93.7924,-210.736 93.7924,-164.393 93.7924,-135.82"/>
<polygon fill="black" stroke="black" points="97.2925,-135.789 93.7924,-125.789 90.2925,-135.789 97.2925,-135.789"/>
</g>
<!-- DE -->
<g id="node4" class="node"><title>DE</title>
<ellipse fill="none" stroke="black" cx="343.792" cy="-485.48" rx="104.782" ry="18"/>
<text text-anchor="middle" x="343.792" y="-481.78" font-family="Times,serif" font-size="14.00">Exercise in class (Decode)</text>
</g>
<!-- SC&#45;&gt;DE -->
<g id="edge4" class="edge"><title>SC&#45;&gt;DE</title>
<path fill="none" stroke="black" d="M208.184,-542.984C233.284,-532.525 268.422,-517.885 296.64,-506.127"/>
<polygon fill="black" stroke="black" points="298.035,-509.337 305.92,-502.261 295.343,-502.876 298.035,-509.337"/>
</g>
<!-- FN -->
<g id="node6" class="node"><title>FN</title>
<ellipse fill="none" stroke="black" cx="508.792" cy="-485.48" rx="42.4939" ry="18"/>
<text text-anchor="middle" x="508.792" y="-481.78" font-family="Times,serif" font-size="14.00">Function</text>
</g>
<!-- SC&#45;&gt;FN -->
<g id="edge10" class="edge"><title>SC&#45;&gt;FN</title>
<path fill="none" stroke="black" d="M215.3,-545.168C223.054,-543.132 231.153,-541.135 238.792,-539.48 335.198,-518.605 362.035,-527.151 457.792,-503.48 461.156,-502.649 464.617,-501.701 468.075,-500.688"/>
<polygon fill="black" stroke="black" points="469.215,-503.999 477.736,-497.703 467.148,-497.311 469.215,-503.999"/>
</g>
<!-- TR -->
<g id="node8" class="node"><title>TR</title>
<ellipse fill="none" stroke="black" cx="172.792" cy="-485.48" rx="48.1917" ry="18"/>
<text text-anchor="middle" x="172.792" y="-481.78" font-family="Times,serif" font-size="14.00">Transform</text>
</g>
<!-- SC&#45;&gt;TR -->
<g id="edge13" class="edge"><title>SC&#45;&gt;TR</title>
<path fill="none" stroke="black" d="M175.051,-539.177C174.72,-531.463 174.323,-522.193 173.954,-513.593"/>
<polygon fill="black" stroke="black" points="177.45,-513.425 173.525,-503.585 170.457,-513.725 177.45,-513.425"/>
</g>
<!-- EiC -->
<g id="node7" class="node"><title>EiC</title>
<ellipse fill="none" stroke="black" cx="505.792" cy="-413.48" rx="69.5877" ry="18"/>
<text text-anchor="middle" x="505.792" y="-409.78" font-family="Times,serif" font-size="14.00">Exercise in class</text>
</g>
<!-- FN&#45;&gt;EiC -->
<g id="edge11" class="edge"><title>FN&#45;&gt;EiC</title>
<path fill="none" stroke="black" d="M508.051,-467.177C507.72,-459.463 507.323,-450.193 506.954,-441.593"/>
<polygon fill="black" stroke="black" points="510.45,-441.425 506.525,-431.585 503.457,-441.725 510.45,-441.425"/>
</g>
<!-- AP -->
<g id="node11" class="node"><title>AP</title>
<ellipse fill="none" stroke="black" cx="416.792" cy="-332.61" rx="77.5641" ry="26.7407"/>
<text text-anchor="middle" x="416.792" y="-336.41" font-family="Times,serif" font-size="14.00">Reading </text>
<text text-anchor="middle" x="416.792" y="-321.41" font-family="Times,serif" font-size="14.00">Asterisk Painting</text>
</g>
<!-- EiC&#45;&gt;AP -->
<g id="edge15" class="edge"><title>EiC&#45;&gt;AP</title>
<path fill="none" stroke="black" d="M486.918,-395.754C476.705,-386.703 463.76,-375.232 451.78,-364.615"/>
<polygon fill="black" stroke="black" points="453.89,-361.809 444.085,-357.796 449.248,-367.048 453.89,-361.809"/>
</g>
<!-- PP -->
<g id="node9" class="node"><title>PP</title>
<ellipse fill="none" stroke="black" cx="348.792" cy="-413.48" rx="69.5877" ry="18"/>
<text text-anchor="middle" x="348.792" y="-409.78" font-family="Times,serif" font-size="14.00">push() and pop()</text>
</g>
<!-- TR&#45;&gt;PP -->
<g id="edge12" class="edge"><title>TR&#45;&gt;PP</title>
<path fill="none" stroke="black" d="M204.665,-471.804C232.106,-460.89 272.045,-445.005 302.924,-432.723"/>
<polygon fill="black" stroke="black" points="304.606,-435.821 312.604,-428.873 302.019,-429.317 304.606,-435.821"/>
</g>
<!-- EiC2 -->
<g id="node10" class="node"><title>EiC2</title>
<ellipse fill="none" stroke="black" cx="191.792" cy="-413.48" rx="69.5877" ry="18"/>
<text text-anchor="middle" x="191.792" y="-409.78" font-family="Times,serif" font-size="14.00">Exercise in class</text>
</g>
<!-- TR&#45;&gt;EiC2 -->
<g id="edge14" class="edge"><title>TR&#45;&gt;EiC2</title>
<path fill="none" stroke="black" d="M177.392,-467.535C179.507,-459.741 182.069,-450.302 184.442,-441.559"/>
<polygon fill="black" stroke="black" points="187.862,-442.323 187.103,-431.756 181.106,-440.489 187.862,-442.323"/>
</g>
<!-- EiC2&#45;&gt;AP -->
<g id="edge16" class="edge"><title>EiC2&#45;&gt;AP</title>
<path fill="none" stroke="black" d="M231.242,-398.652C265.052,-386.8 314.372,-369.512 353.666,-355.738"/>
<polygon fill="black" stroke="black" points="355.145,-358.928 363.424,-352.317 352.829,-352.323 355.145,-358.928"/>
</g>
<!-- SC2 -->
<g id="node12" class="node"><title>SC2</title>
<ellipse fill="none" stroke="black" cx="416.792" cy="-251.74" rx="53.8905" ry="18"/>
<text text-anchor="middle" x="416.792" y="-248.04" font-family="Times,serif" font-size="14.00">Source code</text>
</g>
<!-- AP&#45;&gt;SC2 -->
<g id="edge17" class="edge"><title>AP&#45;&gt;SC2</title>
<path fill="none" stroke="black" d="M416.792,-305.348C416.792,-297.247 416.792,-288.308 416.792,-280.132"/>
<polygon fill="black" stroke="black" points="420.292,-279.96 416.792,-269.96 413.292,-279.96 420.292,-279.96"/>
</g>
<!-- EiC3 -->
<g id="node13" class="node"><title>EiC3</title>
<ellipse fill="none" stroke="black" cx="476.792" cy="-179.74" rx="69.5877" ry="18"/>
<text text-anchor="middle" x="476.792" y="-176.04" font-family="Times,serif" font-size="14.00">Exercise in class</text>
</g>
<!-- SC2&#45;&gt;EiC3 -->
<g id="edge18" class="edge"><title>SC2&#45;&gt;EiC3</title>
<path fill="none" stroke="black" d="M431.012,-234.151C438.376,-225.56 447.513,-214.9 455.683,-205.368"/>
<polygon fill="black" stroke="black" points="458.408,-207.567 462.258,-197.696 453.093,-203.011 458.408,-207.567"/>
</g>
<!-- AR -->
<g id="node14" class="node"><title>AR</title>
<ellipse fill="none" stroke="black" cx="598.792" cy="-179.74" rx="34.394" ry="18"/>
<text text-anchor="middle" x="598.792" y="-176.04" font-family="Times,serif" font-size="14.00">Arrays</text>
</g>
<!-- SC2&#45;&gt;AR -->
<g id="edge19" class="edge"><title>SC2&#45;&gt;AR</title>
<path fill="none" stroke="black" d="M451.111,-237.788C479.271,-227.128 520.161,-211.576 555.792,-197.74 558.002,-196.882 560.274,-195.996 562.565,-195.099"/>
<polygon fill="black" stroke="black" points="563.948,-198.316 571.975,-191.401 561.388,-191.801 563.948,-198.316"/>
</g>
<!-- CS -->
<g id="node15" class="node"><title>CS</title>
<ellipse fill="none" stroke="black" cx="213.792" cy="-179.74" rx="92.0841" ry="18"/>
<text text-anchor="middle" x="213.792" y="-176.04" font-family="Times,serif" font-size="14.00">Conditional statements</text>
</g>
<!-- SC2&#45;&gt;CS -->
<g id="edge20" class="edge"><title>SC2&#45;&gt;CS</title>
<path fill="none" stroke="black" d="M380.5,-238.226C348.915,-227.334 302.72,-211.405 266.963,-199.075"/>
<polygon fill="black" stroke="black" points="267.77,-195.651 257.176,-195.7 265.488,-202.269 267.77,-195.651"/>
</g>
<!-- LO -->
<g id="node16" class="node"><title>LO</title>
<ellipse fill="none" stroke="black" cx="356.792" cy="-179.74" rx="32.4942" ry="18"/>
<text text-anchor="middle" x="356.792" y="-176.04" font-family="Times,serif" font-size="14.00">Loops</text>
</g>
<!-- SC2&#45;&gt;LO -->
<g id="edge21" class="edge"><title>SC2&#45;&gt;LO</title>
<path fill="none" stroke="black" d="M402.573,-234.151C394.884,-225.181 385.262,-213.955 376.826,-204.113"/>
<polygon fill="black" stroke="black" points="379.253,-201.566 370.087,-196.251 373.938,-206.121 379.253,-201.566"/>
</g>
<!-- LO&#45;&gt;MW -->
<g id="edge23" class="edge"><title>LO&#45;&gt;MW</title>
<path fill="none" stroke="black" d="M332.184,-167.922C326.538,-165.682 320.513,-163.478 314.792,-161.74 239.646,-138.915 217.425,-146.898 141.792,-125.74 138.685,-124.871 135.488,-123.904 132.29,-122.885"/>
<polygon fill="black" stroke="black" points="133.375,-119.557 122.782,-119.716 131.162,-126.198 133.375,-119.557"/>
</g>
<!-- MW&#45;&gt;MX -->
<g id="edge25" class="edge"><title>MW&#45;&gt;MX</title>
<path fill="none" stroke="black" d="M93.7924,-89.6265C93.7924,-82.137 93.7924,-73.0458 93.7924,-64.168"/>
<polygon fill="black" stroke="black" points="97.2925,-63.9529 93.7924,-53.953 90.2925,-63.953 97.2925,-63.9529"/>
</g>
<!-- Notes -->
<g id="node21" class="node"><title>Notes</title>
<ellipse fill="none" stroke="black" cx="181.792" cy="-107.74" rx="31.3957" ry="18"/>
<text text-anchor="middle" x="181.792" y="-104.04" font-family="Times,serif" font-size="14.00">Notes</text>
</g>
<!-- MW&#45;&gt;Notes -->
<g id="edge24" class="edge"><title>MW&#45;&gt;Notes</title>
<path fill="none" stroke="black" d="M132.292,-107.74C134.943,-107.74 137.594,-107.74 140.244,-107.74"/>
<polygon fill="black" stroke="black" points="140.468,-111.24 150.468,-107.74 140.468,-104.24 140.468,-111.24"/>
</g>
<!-- RR&#45;&gt;SU -->
<g id="edge9" class="edge"><title>RR&#45;&gt;SU</title>
<path fill="none" stroke="black" d="M258.803,-687.569C223.333,-677.367 173.168,-662.405 129.792,-647.48 127.266,-646.611 124.669,-645.687 122.06,-644.737"/>
<polygon fill="black" stroke="black" points="123.26,-641.449 112.668,-641.229 120.812,-648.007 123.26,-641.449"/>
</g>
<!-- RR&#45;&gt;MX -->
<g id="edge8" class="edge"><title>RR&#45;&gt;MX</title>
<path fill="none" stroke="black" d="M360.809,-690.192C461.064,-670.17 660.792,-622.276 660.792,-558.48 660.792,-558.48 660.792,-558.48 660.792,-178.74 660.792,-83.2692 356.791,-46.7211 193.985,-33.9934"/>
<polygon fill="black" stroke="black" points="194.187,-30.4987 183.949,-33.2249 193.652,-37.4782 194.187,-30.4987"/>
</g>
<!-- FR -->
<g id="node20" class="node"><title>FR</title>
<ellipse fill="none" stroke="black" cx="313.792" cy="-557.48" rx="65.7887" ry="18"/>
<text text-anchor="middle" x="313.792" y="-553.78" font-family="Times,serif" font-size="14.00">Further reading</text>
</g>
<!-- RR&#45;&gt;FR -->
<g id="edge26" class="edge"><title>RR&#45;&gt;FR</title>
<path fill="none" stroke="black" d="M305.878,-683.352C307.412,-659.15 310.23,-614.691 312.056,-585.873"/>
<polygon fill="black" stroke="black" points="315.563,-585.871 312.703,-575.669 308.577,-585.428 315.563,-585.871"/>
</g>
</g>
</svg>
