<?xml version="1.0" encoding="UTF-8" standalone="no"?>
<!DOCTYPE svg PUBLIC "-//W3C//DTD SVG 1.1//EN"
 "http://www.w3.org/Graphics/SVG/1.1/DTD/svg11.dtd">
<!-- Generated by graphviz version 2.38.0 (20140413.2041)
 -->
<!-- Title: G Pages: 1 -->
<svg width="580pt" height="727pt"
 viewBox="0.00 0.00 580.08 727.48" xmlns="http://www.w3.org/2000/svg" xmlns:xlink="http://www.w3.org/1999/xlink">
<g id="graph0" class="graph" transform="scale(1 1) rotate(0) translate(4 723.48)">
<title>G</title>
<polygon fill="white" stroke="none" points="-4,4 -4,-723.48 576.078,-723.48 576.078,4 -4,4"/>
<!-- GS -->
<g id="node1" class="node"><title>GS</title>
<ellipse fill="none" stroke="grey" stroke-width="2" cx="245.447" cy="-701.48" rx="85.5853" ry="18"/>
<text text-anchor="middle" x="245.447" y="-697.78" font-family="Times,serif" font-size="14.00">Ch.3 &#45; Infinite Loops</text>
</g>
<!-- SU -->
<g id="node2" class="node"><title>SU</title>
<ellipse fill="none" stroke="black" cx="245.447" cy="-629.48" rx="35.194" ry="18"/>
<text text-anchor="middle" x="245.447" y="-625.78" font-family="Times,serif" font-size="14.00">setup()</text>
</g>
<!-- GS&#45;&gt;SU -->
<g id="edge1" class="edge"><title>GS&#45;&gt;SU</title>
<path fill="none" stroke="black" d="M245.447,-683.177C245.447,-675.463 245.447,-666.193 245.447,-657.593"/>
<polygon fill="black" stroke="black" points="248.947,-657.585 245.447,-647.585 241.947,-657.585 248.947,-657.585"/>
</g>
<!-- ST -->
<g id="node3" class="node"><title>ST</title>
<ellipse fill="none" stroke="black" cx="245.447" cy="-557.48" rx="31.6951" ry="18"/>
<text text-anchor="middle" x="245.447" y="-553.78" font-family="Times,serif" font-size="14.00">start()</text>
</g>
<!-- SU&#45;&gt;ST -->
<g id="edge2" class="edge"><title>SU&#45;&gt;ST</title>
<path fill="none" stroke="black" d="M245.447,-611.177C245.447,-603.463 245.447,-594.193 245.447,-585.593"/>
<polygon fill="black" stroke="black" points="248.947,-585.585 245.447,-575.585 241.947,-585.585 248.947,-585.585"/>
</g>
<!-- SC -->
<g id="node5" class="node"><title>SC</title>
<ellipse fill="none" stroke="black" cx="245.447" cy="-485.48" rx="55.7903" ry="18"/>
<text text-anchor="middle" x="245.447" y="-481.78" font-family="Times,serif" font-size="14.00">Source Code</text>
</g>
<!-- ST&#45;&gt;SC -->
<g id="edge3" class="edge"><title>ST&#45;&gt;SC</title>
<path fill="none" stroke="black" d="M245.447,-539.177C245.447,-531.463 245.447,-522.193 245.447,-513.593"/>
<polygon fill="black" stroke="black" points="248.947,-513.585 245.447,-503.585 241.947,-513.585 248.947,-513.585"/>
</g>
<!-- DE -->
<g id="node4" class="node"><title>DE</title>
<ellipse fill="none" stroke="black" cx="93.4469" cy="-413.48" rx="37.8943" ry="18"/>
<text text-anchor="middle" x="93.4469" y="-409.78" font-family="Times,serif" font-size="14.00">Decode</text>
</g>
<!-- SC&#45;&gt;DE -->
<g id="edge4" class="edge"><title>SC&#45;&gt;DE</title>
<path fill="none" stroke="black" d="M214.687,-470.315C189.81,-458.858 154.764,-442.718 128.745,-430.736"/>
<polygon fill="black" stroke="black" points="130.151,-427.53 119.604,-426.526 127.223,-433.888 130.151,-427.53"/>
</g>
<!-- FN -->
<g id="node6" class="node"><title>FN</title>
<ellipse fill="none" stroke="black" cx="191.447" cy="-413.48" rx="42.4939" ry="18"/>
<text text-anchor="middle" x="191.447" y="-409.78" font-family="Times,serif" font-size="14.00">Function</text>
</g>
<!-- SC&#45;&gt;FN -->
<g id="edge5" class="edge"><title>SC&#45;&gt;FN</title>
<path fill="none" stroke="black" d="M232.65,-467.891C225.992,-459.261 217.723,-448.542 210.345,-438.977"/>
<polygon fill="black" stroke="black" points="213.032,-436.73 204.152,-430.95 207.489,-441.006 213.032,-436.73"/>
</g>
<!-- TR -->
<g id="node8" class="node"><title>TR</title>
<ellipse fill="none" stroke="black" cx="299.447" cy="-413.48" rx="48.1917" ry="18"/>
<text text-anchor="middle" x="299.447" y="-409.78" font-family="Times,serif" font-size="14.00">Transform</text>
</g>
<!-- SC&#45;&gt;TR -->
<g id="edge7" class="edge"><title>SC&#45;&gt;TR</title>
<path fill="none" stroke="black" d="M258.244,-467.891C264.902,-459.261 273.17,-448.542 280.549,-438.977"/>
<polygon fill="black" stroke="black" points="283.405,-441.006 286.742,-430.95 277.862,-436.73 283.405,-441.006"/>
</g>
<!-- MW -->
<g id="node17" class="node"><title>MW</title>
<ellipse fill="none" stroke="black" cx="441.447" cy="-413.48" rx="38.1938" ry="18"/>
<text text-anchor="middle" x="441.447" y="-409.78" font-family="Times,serif" font-size="14.00">While()</text>
</g>
<!-- SC&#45;&gt;MW -->
<g id="edge17" class="edge"><title>SC&#45;&gt;MW</title>
<path fill="none" stroke="black" d="M281.396,-471.641C315.641,-459.411 367.059,-441.048 402.319,-428.454"/>
<polygon fill="black" stroke="black" points="403.568,-431.725 411.808,-425.065 401.214,-425.133 403.568,-431.725"/>
</g>
<!-- EiC -->
<g id="node7" class="node"><title>EiC</title>
<ellipse fill="none" stroke="black" cx="142.447" cy="-332.61" rx="69.5877" ry="18"/>
<text text-anchor="middle" x="142.447" y="-328.91" font-family="Times,serif" font-size="14.00">Exercise in class</text>
</g>
<!-- FN&#45;&gt;EiC -->
<g id="edge6" class="edge"><title>FN&#45;&gt;EiC</title>
<path fill="none" stroke="black" d="M181.055,-395.754C174.474,-385.16 165.831,-371.25 158.393,-359.276"/>
<polygon fill="black" stroke="black" points="161.243,-357.231 152.993,-350.584 155.297,-360.926 161.243,-357.231"/>
</g>
<!-- AP -->
<g id="node10" class="node"><title>AP</title>
<ellipse fill="none" stroke="black" cx="180.447" cy="-242.87" rx="77.5641" ry="26.7407"/>
<text text-anchor="middle" x="180.447" y="-246.67" font-family="Times,serif" font-size="14.00">Reading </text>
<text text-anchor="middle" x="180.447" y="-231.67" font-family="Times,serif" font-size="14.00">Asterisk Painting</text>
</g>
<!-- EiC&#45;&gt;AP -->
<g id="edge9" class="edge"><title>EiC&#45;&gt;AP</title>
<path fill="none" stroke="black" d="M149.774,-314.693C154.13,-304.634 159.824,-291.488 165.121,-279.257"/>
<polygon fill="black" stroke="black" points="168.489,-280.288 169.251,-269.72 162.065,-277.506 168.489,-280.288"/>
</g>
<!-- EiC2 -->
<g id="node9" class="node"><title>EiC2</title>
<ellipse fill="none" stroke="black" cx="299.447" cy="-332.61" rx="69.5877" ry="18"/>
<text text-anchor="middle" x="299.447" y="-328.91" font-family="Times,serif" font-size="14.00">Exercise in class</text>
</g>
<!-- TR&#45;&gt;EiC2 -->
<g id="edge8" class="edge"><title>TR&#45;&gt;EiC2</title>
<path fill="none" stroke="black" d="M299.447,-395.367C299.447,-385.341 299.447,-372.446 299.447,-361.035"/>
<polygon fill="black" stroke="black" points="302.947,-360.69 299.447,-350.69 295.947,-360.69 302.947,-360.69"/>
</g>
<!-- EiC2&#45;&gt;AP -->
<g id="edge10" class="edge"><title>EiC2&#45;&gt;AP</title>
<path fill="none" stroke="black" d="M277.621,-315.517C261.722,-303.795 239.728,-287.579 220.685,-273.538"/>
<polygon fill="black" stroke="black" points="222.58,-270.587 212.454,-267.469 218.426,-276.221 222.58,-270.587"/>
</g>
<!-- SC2 -->
<g id="node11" class="node"><title>SC2</title>
<ellipse fill="none" stroke="black" cx="180.447" cy="-162" rx="55.7903" ry="18"/>
<text text-anchor="middle" x="180.447" y="-158.3" font-family="Times,serif" font-size="14.00">Source Code</text>
</g>
<!-- AP&#45;&gt;SC2 -->
<g id="edge11" class="edge"><title>AP&#45;&gt;SC2</title>
<path fill="none" stroke="black" d="M180.447,-215.607C180.447,-207.506 180.447,-198.568 180.447,-190.392"/>
<polygon fill="black" stroke="black" points="183.947,-190.22 180.447,-180.22 176.947,-190.22 183.947,-190.22"/>
</g>
<!-- EiC3 -->
<g id="node12" class="node"><title>EiC3</title>
<ellipse fill="none" stroke="black" cx="323.447" cy="-162" rx="69.5877" ry="18"/>
<text text-anchor="middle" x="323.447" y="-158.3" font-family="Times,serif" font-size="14.00">Exercise in class</text>
</g>
<!-- SC2&#45;&gt;EiC3 -->
<g id="edge12" class="edge"><title>SC2&#45;&gt;EiC3</title>
<path fill="none" stroke="black" d="M236.586,-162C239.019,-162 241.452,-162 243.886,-162"/>
<polygon fill="black" stroke="black" points="243.89,-165.5 253.89,-162 243.89,-158.5 243.89,-165.5"/>
</g>
<!-- AR -->
<g id="node13" class="node"><title>AR</title>
<ellipse fill="none" stroke="black" cx="34.4469" cy="-90" rx="34.394" ry="18"/>
<text text-anchor="middle" x="34.4469" y="-86.3" font-family="Times,serif" font-size="14.00">Arrays</text>
</g>
<!-- SC2&#45;&gt;AR -->
<g id="edge13" class="edge"><title>SC2&#45;&gt;AR</title>
<path fill="none" stroke="black" d="M150.549,-146.666C126.581,-135.174 92.9551,-119.052 68.0563,-107.114"/>
<polygon fill="black" stroke="black" points="69.5096,-103.929 58.9792,-102.762 66.4832,-110.241 69.5096,-103.929"/>
</g>
<!-- CS -->
<g id="node14" class="node"><title>CS</title>
<ellipse fill="none" stroke="black" cx="180.447" cy="-90" rx="93.6835" ry="18"/>
<text text-anchor="middle" x="180.447" y="-86.3" font-family="Times,serif" font-size="14.00">Conditional Statements</text>
</g>
<!-- SC2&#45;&gt;CS -->
<g id="edge14" class="edge"><title>SC2&#45;&gt;CS</title>
<path fill="none" stroke="black" d="M180.447,-143.697C180.447,-135.983 180.447,-126.712 180.447,-118.112"/>
<polygon fill="black" stroke="black" points="183.947,-118.104 180.447,-108.104 176.947,-118.104 183.947,-118.104"/>
</g>
<!-- LO -->
<g id="node15" class="node"><title>LO</title>
<ellipse fill="none" stroke="black" cx="324.447" cy="-90" rx="32.4942" ry="18"/>
<text text-anchor="middle" x="324.447" y="-86.3" font-family="Times,serif" font-size="14.00">Loops</text>
</g>
<!-- SC2&#45;&gt;LO -->
<g id="edge15" class="edge"><title>SC2&#45;&gt;LO</title>
<path fill="none" stroke="black" d="M209.935,-146.666C233.616,-135.154 266.856,-118.996 291.426,-107.052"/>
<polygon fill="black" stroke="black" points="293.246,-110.059 300.71,-102.539 290.186,-103.763 293.246,-110.059"/>
</g>
<!-- WL -->
<g id="node16" class="node"><title>WL</title>
<ellipse fill="none" stroke="black" cx="324.447" cy="-18" rx="53.8905" ry="18"/>
<text text-anchor="middle" x="324.447" y="-14.3" font-family="Times,serif" font-size="14.00">While Loop</text>
</g>
<!-- LO&#45;&gt;WL -->
<g id="edge16" class="edge"><title>LO&#45;&gt;WL</title>
<path fill="none" stroke="black" d="M324.447,-71.6966C324.447,-63.9827 324.447,-54.7125 324.447,-46.1124"/>
<polygon fill="black" stroke="black" points="327.947,-46.1043 324.447,-36.1043 320.947,-46.1044 327.947,-46.1043"/>
</g>
<!-- MX -->
<g id="node18" class="node"><title>MX</title>
<ellipse fill="none" stroke="black" cx="479.447" cy="-332.61" rx="92.7622" ry="26.7407"/>
<text text-anchor="middle" x="479.447" y="-336.41" font-family="Times,serif" font-size="14.00">MiniX 3: </text>
<text text-anchor="middle" x="479.447" y="-321.41" font-family="Times,serif" font-size="14.00">Designing a throbber</text>
</g>
<!-- MW&#45;&gt;MX -->
<g id="edge18" class="edge"><title>MW&#45;&gt;MX</title>
<path fill="none" stroke="black" d="M449.506,-395.754C453.329,-387.818 458.049,-378.021 462.602,-368.571"/>
<polygon fill="black" stroke="black" points="465.873,-369.847 467.06,-359.319 459.566,-366.809 465.873,-369.847"/>
</g>
<!-- RR -->
<g id="node19" class="node"><title>RR</title>
<ellipse fill="none" stroke="black" cx="479.447" cy="-242.87" rx="71.4873" ry="18"/>
<text text-anchor="middle" x="479.447" y="-239.17" font-family="Times,serif" font-size="14.00">Required reading</text>
</g>
<!-- MX&#45;&gt;RR -->
<g id="edge19" class="edge"><title>MX&#45;&gt;RR</title>
<path fill="none" stroke="black" d="M479.447,-305.285C479.447,-294.534 479.447,-282.099 479.447,-271.242"/>
<polygon fill="black" stroke="black" points="482.947,-271.031 479.447,-261.031 475.947,-271.031 482.947,-271.031"/>
</g>
<!-- Notes -->
<g id="node20" class="node"><title>Notes</title>
<ellipse fill="none" stroke="black" cx="479.447" cy="-162" rx="31.3957" ry="18"/>
<text text-anchor="middle" x="479.447" y="-158.3" font-family="Times,serif" font-size="14.00">Notes</text>
</g>
<!-- RR&#45;&gt;Notes -->
<g id="edge20" class="edge"><title>RR&#45;&gt;Notes</title>
<path fill="none" stroke="black" d="M479.447,-224.756C479.447,-214.731 479.447,-201.836 479.447,-190.425"/>
<polygon fill="black" stroke="black" points="482.947,-190.08 479.447,-180.08 475.947,-190.08 482.947,-190.08"/>
</g>
</g>
</svg>
