<?xml version="1.0" encoding="UTF-8" standalone="no"?>
<!DOCTYPE svg PUBLIC "-//W3C//DTD SVG 1.1//EN"
 "http://www.w3.org/Graphics/SVG/1.1/DTD/svg11.dtd">
<!-- Generated by graphviz version 2.38.0 (20140413.2041)
 -->
<!-- Title: G Pages: 1 -->
<svg width="781pt" height="745pt"
 viewBox="0.00 0.00 780.55 745.22" xmlns="http://www.w3.org/2000/svg" xmlns:xlink="http://www.w3.org/1999/xlink">
<g id="graph0" class="graph" transform="scale(1 1) rotate(0) translate(4 741.22)">
<title>G</title>
<polygon fill="white" stroke="none" points="-4,4 -4,-741.22 776.551,-741.22 776.551,4 -4,4"/>
<!-- GS -->
<g id="node1" class="node"><title>GS</title>
<polygon fill="none" stroke="black" points="179.051,-737.22 56.0513,-737.22 56.0513,-701.22 179.051,-701.22 179.051,-737.22"/>
<text text-anchor="middle" x="117.551" y="-715.52" font-family="Hershey-Noailles-help-me" font-size="14.00">3. Infinite loops</text>
</g>
<!-- SU -->
<g id="node2" class="node"><title>SU</title>
<ellipse fill="none" stroke="black" cx="117.551" cy="-647.22" rx="42.4939" ry="18"/>
<text text-anchor="middle" x="117.551" y="-643.52" font-family="Hershey-Noailles-help-me" font-size="14.00">setup()</text>
</g>
<!-- GS&#45;&gt;SU -->
<g id="edge1" class="edge"><title>GS&#45;&gt;SU</title>
<path fill="none" stroke="black" d="M117.551,-700.917C117.551,-693.203 117.551,-683.933 117.551,-675.333"/>
<polygon fill="black" stroke="black" points="121.051,-675.325 117.551,-665.325 114.051,-675.325 121.051,-675.325"/>
</g>
<!-- MX -->
<g id="node18" class="node"><title>MX</title>
<ellipse fill="none" stroke="black" cx="114.551" cy="-26.8701" rx="114.603" ry="26.7407"/>
<text text-anchor="middle" x="114.551" y="-30.6701" font-family="Hershey-Noailles-help-me" font-size="14.00">MiniX: </text>
<text text-anchor="middle" x="114.551" y="-15.6701" font-family="Hershey-Noailles-help-me" font-size="14.00">Designing a throbber</text>
</g>
<!-- GS&#45;&gt;MX -->
<g id="edge7" class="edge"><title>GS&#45;&gt;MX</title>
<path fill="none" stroke="black" d="M97.0475,-701.106C86.6521,-691.491 74.5657,-678.728 66.5513,-665.22 45.3924,-629.558 38.5513,-617.687 38.5513,-576.22 38.5513,-576.22 38.5513,-576.22 38.5513,-178.74 38.5513,-137.885 42.6631,-125.967 61.5513,-89.7401 66.808,-79.6581 73.9896,-69.8069 81.3689,-61.0359"/>
<polygon fill="black" stroke="black" points="84.1851,-63.1331 88.1518,-53.3089 78.9244,-58.5152 84.1851,-63.1331"/>
</g>
<!-- RR -->
<g id="node19" class="node"><title>RR</title>
<ellipse fill="none" stroke="black" cx="354.551" cy="-719.22" rx="87.1846" ry="18"/>
<text text-anchor="middle" x="354.551" y="-715.52" font-family="Hershey-Noailles-help-me" font-size="14.00">Required reading</text>
</g>
<!-- GS&#45;&gt;RR -->
<g id="edge5" class="edge"><title>GS&#45;&gt;RR</title>
<path fill="none" stroke="black" d="M189.435,-719.22C212.009,-719.22 234.582,-719.22 257.155,-719.22"/>
<polygon fill="black" stroke="black" points="189.116,-715.72 179.116,-719.22 189.116,-722.72 189.116,-715.72"/>
<polygon fill="black" stroke="black" points="257.176,-722.72 267.176,-719.22 257.176,-715.72 257.176,-722.72"/>
</g>
<!-- ST -->
<g id="node3" class="node"><title>ST</title>
<ellipse fill="none" stroke="black" cx="216.551" cy="-647.22" rx="38.9931" ry="18"/>
<text text-anchor="middle" x="216.551" y="-643.52" font-family="Hershey-Noailles-help-me" font-size="14.00">start()</text>
</g>
<!-- SU&#45;&gt;ST -->
<g id="edge2" class="edge"><title>SU&#45;&gt;ST</title>
<path fill="none" stroke="black" d="M160.09,-647.22C162.42,-647.22 164.749,-647.22 167.079,-647.22"/>
<polygon fill="black" stroke="black" points="167.293,-650.72 177.293,-647.22 167.293,-643.72 167.293,-650.72"/>
</g>
<!-- MW -->
<g id="node17" class="node"><title>MW</title>
<ellipse fill="none" stroke="black" cx="114.551" cy="-107.74" rx="43.5923" ry="18"/>
<text text-anchor="middle" x="114.551" y="-104.04" font-family="Hershey-Noailles-help-me" font-size="14.00">While()</text>
</g>
<!-- SU&#45;&gt;MW -->
<g id="edge6" class="edge"><title>SU&#45;&gt;MW</title>
<path fill="none" stroke="black" d="M105.958,-620.21C93.8345,-590.595 76.5513,-540.464 76.5513,-495.35 76.5513,-495.35 76.5513,-495.35 76.5513,-250.74 76.5513,-209.373 91.7861,-163.462 102.963,-135.345"/>
<polygon fill="black" stroke="black" points="102.734,-621.571 109.84,-629.43 109.185,-618.856 102.734,-621.571"/>
<polygon fill="black" stroke="black" points="106.308,-136.413 106.861,-125.833 99.8305,-133.759 106.308,-136.413"/>
</g>
<!-- SC -->
<g id="node5" class="node"><title>SC</title>
<ellipse fill="none" stroke="black" cx="225.551" cy="-575.22" rx="64.9885" ry="18"/>
<text text-anchor="middle" x="225.551" y="-571.52" font-family="Hershey-Noailles-help-me" font-size="14.00">Source code</text>
</g>
<!-- ST&#45;&gt;SC -->
<g id="edge3" class="edge"><title>ST&#45;&gt;SC</title>
<path fill="none" stroke="black" d="M218.776,-628.917C219.768,-621.203 220.96,-611.933 222.065,-603.333"/>
<polygon fill="black" stroke="black" points="225.548,-603.689 223.352,-593.325 218.605,-602.797 225.548,-603.689"/>
</g>
<!-- ST&#45;&gt;MW -->
<g id="edge22" class="edge"><title>ST&#45;&gt;MW</title>
<path fill="none" stroke="black" d="M194.103,-632.37C180.228,-622.833 162.953,-609.054 151.551,-593.22 124.377,-555.484 114.551,-541.853 114.551,-495.35 114.551,-495.35 114.551,-495.35 114.551,-250.74 114.551,-210.736 114.551,-164.393 114.551,-135.82"/>
<polygon fill="black" stroke="black" points="118.051,-135.789 114.551,-125.789 111.051,-135.789 118.051,-135.789"/>
</g>
<!-- DE -->
<g id="node4" class="node"><title>DE</title>
<ellipse fill="none" stroke="black" cx="388.551" cy="-494.35" rx="89.6056" ry="26.7407"/>
<text text-anchor="middle" x="388.551" y="-498.15" font-family="Hershey-Noailles-help-me" font-size="14.00">Exercise in class</text>
<text text-anchor="middle" x="388.551" y="-483.15" font-family="Hershey-Noailles-help-me" font-size="14.00">(Decode)</text>
</g>
<!-- SC&#45;&gt;DE -->
<g id="edge4" class="edge"><title>SC&#45;&gt;DE</title>
<path fill="none" stroke="black" d="M256.594,-559.2C278.23,-548.731 307.688,-534.477 333.282,-522.093"/>
<polygon fill="black" stroke="black" points="335.038,-525.132 342.515,-517.626 331.989,-518.831 335.038,-525.132"/>
</g>
<!-- FN -->
<g id="node6" class="node"><title>FN</title>
<ellipse fill="none" stroke="black" cx="570.551" cy="-494.35" rx="49.2915" ry="18"/>
<text text-anchor="middle" x="570.551" y="-490.65" font-family="Hershey-Noailles-help-me" font-size="14.00">Function</text>
</g>
<!-- SC&#45;&gt;FN -->
<g id="edge10" class="edge"><title>SC&#45;&gt;FN</title>
<path fill="none" stroke="black" d="M273.263,-562.99C281.996,-561.011 291.038,-559.013 299.551,-557.22 382.8,-539.694 405.032,-541.911 487.551,-521.22 500.143,-518.063 513.643,-514.107 526.019,-510.246"/>
<polygon fill="black" stroke="black" points="527.19,-513.546 535.664,-507.186 525.074,-506.874 527.19,-513.546"/>
</g>
<!-- TR -->
<g id="node8" class="node"><title>TR</title>
<ellipse fill="none" stroke="black" cx="225.551" cy="-494.35" rx="55.4913" ry="18"/>
<text text-anchor="middle" x="225.551" y="-490.65" font-family="Hershey-Noailles-help-me" font-size="14.00">Transform</text>
</g>
<!-- SC&#45;&gt;TR -->
<g id="edge13" class="edge"><title>SC&#45;&gt;TR</title>
<path fill="none" stroke="black" d="M225.551,-557.107C225.551,-547.082 225.551,-534.187 225.551,-522.775"/>
<polygon fill="black" stroke="black" points="229.051,-522.43 225.551,-512.431 222.051,-522.431 229.051,-522.43"/>
</g>
<!-- EiC -->
<g id="node7" class="node"><title>EiC</title>
<ellipse fill="none" stroke="black" cx="595.551" cy="-413.48" rx="82.5854" ry="18"/>
<text text-anchor="middle" x="595.551" y="-409.78" font-family="Hershey-Noailles-help-me" font-size="14.00">Exercise in class</text>
</g>
<!-- FN&#45;&gt;EiC -->
<g id="edge11" class="edge"><title>FN&#45;&gt;EiC</title>
<path fill="none" stroke="black" d="M575.976,-476.237C579.219,-466.005 583.41,-452.783 587.081,-441.201"/>
<polygon fill="black" stroke="black" points="590.452,-442.151 590.137,-431.56 583.779,-440.035 590.452,-442.151"/>
</g>
<!-- AP -->
<g id="node11" class="node"><title>AP</title>
<ellipse fill="none" stroke="black" cx="494.551" cy="-332.61" rx="94.0904" ry="26.7407"/>
<text text-anchor="middle" x="494.551" y="-336.41" font-family="Hershey-Noailles-help-me" font-size="14.00">Reading </text>
<text text-anchor="middle" x="494.551" y="-321.41" font-family="Hershey-Noailles-help-me" font-size="14.00">Asterisk Painting</text>
</g>
<!-- EiC&#45;&gt;AP -->
<g id="edge15" class="edge"><title>EiC&#45;&gt;AP</title>
<path fill="none" stroke="black" d="M574.132,-395.754C562.418,-386.606 547.537,-374.986 533.82,-364.275"/>
<polygon fill="black" stroke="black" points="535.947,-361.495 525.912,-358.099 531.639,-367.012 535.947,-361.495"/>
</g>
<!-- PP -->
<g id="node9" class="node"><title>PP</title>
<ellipse fill="none" stroke="black" cx="410.551" cy="-413.48" rx="84.485" ry="18"/>
<text text-anchor="middle" x="410.551" y="-409.78" font-family="Hershey-Noailles-help-me" font-size="14.00">push() and pop()</text>
</g>
<!-- TR&#45;&gt;PP -->
<g id="edge12" class="edge"><title>TR&#45;&gt;PP</title>
<path fill="none" stroke="black" d="M257.776,-479.612C287.456,-466.959 331.8,-448.054 365.079,-433.866"/>
<polygon fill="black" stroke="black" points="366.76,-436.954 374.587,-429.813 364.015,-430.515 366.76,-436.954"/>
</g>
<!-- EiC2 -->
<g id="node10" class="node"><title>EiC2</title>
<ellipse fill="none" stroke="black" cx="225.551" cy="-413.48" rx="82.5854" ry="18"/>
<text text-anchor="middle" x="225.551" y="-409.78" font-family="Hershey-Noailles-help-me" font-size="14.00">Exercise in class</text>
</g>
<!-- TR&#45;&gt;EiC2 -->
<g id="edge14" class="edge"><title>TR&#45;&gt;EiC2</title>
<path fill="none" stroke="black" d="M225.551,-476.237C225.551,-466.211 225.551,-453.316 225.551,-441.905"/>
<polygon fill="black" stroke="black" points="229.051,-441.56 225.551,-431.56 222.051,-441.56 229.051,-441.56"/>
</g>
<!-- EiC2&#45;&gt;AP -->
<g id="edge16" class="edge"><title>EiC2&#45;&gt;AP</title>
<path fill="none" stroke="black" d="M272.715,-398.652C313.581,-386.67 373.398,-369.132 420.622,-355.286"/>
<polygon fill="black" stroke="black" points="421.885,-358.563 430.497,-352.391 419.916,-351.846 421.885,-358.563"/>
</g>
<!-- SC2 -->
<g id="node12" class="node"><title>SC2</title>
<ellipse fill="none" stroke="black" cx="494.551" cy="-251.74" rx="64.9885" ry="18"/>
<text text-anchor="middle" x="494.551" y="-248.04" font-family="Hershey-Noailles-help-me" font-size="14.00">Source code</text>
</g>
<!-- AP&#45;&gt;SC2 -->
<g id="edge17" class="edge"><title>AP&#45;&gt;SC2</title>
<path fill="none" stroke="black" d="M494.551,-305.348C494.551,-297.247 494.551,-288.308 494.551,-280.132"/>
<polygon fill="black" stroke="black" points="498.051,-279.96 494.551,-269.96 491.051,-279.96 498.051,-279.96"/>
</g>
<!-- EiC3 -->
<g id="node13" class="node"><title>EiC3</title>
<ellipse fill="none" stroke="black" cx="563.551" cy="-179.74" rx="82.5854" ry="18"/>
<text text-anchor="middle" x="563.551" y="-176.04" font-family="Hershey-Noailles-help-me" font-size="14.00">Exercise in class</text>
</g>
<!-- SC2&#45;&gt;EiC3 -->
<g id="edge18" class="edge"><title>SC2&#45;&gt;EiC3</title>
<path fill="none" stroke="black" d="M510.903,-234.151C519.457,-225.474 530.09,-214.686 539.557,-205.082"/>
<polygon fill="black" stroke="black" points="542.31,-207.275 546.837,-197.696 537.325,-202.361 542.31,-207.275"/>
</g>
<!-- AR -->
<g id="node14" class="node"><title>AR</title>
<ellipse fill="none" stroke="black" cx="704.551" cy="-179.74" rx="40.0939" ry="18"/>
<text text-anchor="middle" x="704.551" y="-176.04" font-family="Hershey-Noailles-help-me" font-size="14.00">Arrays</text>
</g>
<!-- SC2&#45;&gt;AR -->
<g id="edge19" class="edge"><title>SC2&#45;&gt;AR</title>
<path fill="none" stroke="black" d="M534.972,-237.631C567.569,-227.012 614.572,-211.593 655.551,-197.74 658.31,-196.807 661.154,-195.839 664.018,-194.859"/>
<polygon fill="black" stroke="black" points="665.416,-198.079 673.733,-191.516 663.139,-191.46 665.416,-198.079"/>
</g>
<!-- CS -->
<g id="node15" class="node"><title>CS</title>
<ellipse fill="none" stroke="black" cx="257.551" cy="-179.74" rx="115.08" ry="18"/>
<text text-anchor="middle" x="257.551" y="-176.04" font-family="Hershey-Noailles-help-me" font-size="14.00">Conditional statements</text>
</g>
<!-- SC2&#45;&gt;CS -->
<g id="edge20" class="edge"><title>SC2&#45;&gt;CS</title>
<path fill="none" stroke="black" d="M451.907,-238.145C414.77,-227.176 360.486,-211.143 318.72,-198.807"/>
<polygon fill="black" stroke="black" points="319.514,-195.392 308.932,-195.916 317.531,-202.105 319.514,-195.392"/>
</g>
<!-- LO -->
<g id="node16" class="node"><title>LO</title>
<ellipse fill="none" stroke="black" cx="426.551" cy="-179.74" rx="36.2938" ry="18"/>
<text text-anchor="middle" x="426.551" y="-176.04" font-family="Hershey-Noailles-help-me" font-size="14.00">Loops</text>
</g>
<!-- SC2&#45;&gt;LO -->
<g id="edge21" class="edge"><title>SC2&#45;&gt;LO</title>
<path fill="none" stroke="black" d="M478.436,-234.151C469.548,-225.001 458.38,-213.505 448.684,-203.524"/>
<polygon fill="black" stroke="black" points="451.097,-200.985 441.619,-196.251 446.076,-205.863 451.097,-200.985"/>
</g>
<!-- LO&#45;&gt;MW -->
<g id="edge23" class="edge"><title>LO&#45;&gt;MW</title>
<path fill="none" stroke="black" d="M399.224,-167.449C393.455,-165.34 387.356,-163.309 381.551,-161.74 288.444,-136.579 261.268,-148.528 167.551,-125.74 163.96,-124.867 160.258,-123.875 156.56,-122.82"/>
<polygon fill="black" stroke="black" points="157.439,-119.429 146.855,-119.915 155.431,-126.135 157.439,-119.429"/>
</g>
<!-- MW&#45;&gt;MX -->
<g id="edge25" class="edge"><title>MW&#45;&gt;MX</title>
<path fill="none" stroke="black" d="M114.551,-89.6265C114.551,-82.137 114.551,-73.0458 114.551,-64.168"/>
<polygon fill="black" stroke="black" points="118.051,-63.9529 114.551,-53.953 111.051,-63.953 118.051,-63.9529"/>
</g>
<!-- Notes -->
<g id="node21" class="node"><title>Notes</title>
<ellipse fill="none" stroke="black" cx="212.551" cy="-107.74" rx="36.2938" ry="18"/>
<text text-anchor="middle" x="212.551" y="-104.04" font-family="Hershey-Noailles-help-me" font-size="14.00">Notes</text>
</g>
<!-- MW&#45;&gt;Notes -->
<g id="edge24" class="edge"><title>MW&#45;&gt;Notes</title>
<path fill="none" stroke="black" d="M158.192,-107.74C160.793,-107.74 163.394,-107.74 165.995,-107.74"/>
<polygon fill="black" stroke="black" points="166.029,-111.24 176.029,-107.74 166.029,-104.24 166.029,-111.24"/>
</g>
<!-- RR&#45;&gt;SU -->
<g id="edge9" class="edge"><title>RR&#45;&gt;SU</title>
<path fill="none" stroke="black" d="M303.849,-704.424C266.351,-694.063 214.106,-679.296 168.551,-665.22 165.475,-664.27 162.301,-663.267 159.113,-662.243"/>
<polygon fill="black" stroke="black" points="160.177,-658.908 149.584,-659.138 158.008,-665.564 160.177,-658.908"/>
</g>
<!-- RR&#45;&gt;MX -->
<g id="edge8" class="edge"><title>RR&#45;&gt;MX</title>
<path fill="none" stroke="black" d="M426.408,-708.876C545.92,-691.303 772.551,-648.456 772.551,-576.22 772.551,-576.22 772.551,-576.22 772.551,-178.74 772.551,-70.2924 428.686,-39.796 238.119,-31.2221"/>
<polygon fill="black" stroke="black" points="238.183,-27.7216 228.04,-30.7826 237.878,-34.715 238.183,-27.7216"/>
</g>
<!-- FR -->
<g id="node20" class="node"><title>FR</title>
<ellipse fill="none" stroke="black" cx="389.551" cy="-575.22" rx="81.4863" ry="18"/>
<text text-anchor="middle" x="389.551" y="-571.52" font-family="Hershey-Noailles-help-me" font-size="14.00">Further reading</text>
</g>
<!-- RR&#45;&gt;FR -->
<g id="edge26" class="edge"><title>RR&#45;&gt;FR</title>
<path fill="none" stroke="black" d="M358.773,-701.092C364.764,-676.784 375.793,-632.039 382.893,-603.234"/>
<polygon fill="black" stroke="black" points="386.32,-603.957 385.315,-593.41 379.523,-602.281 386.32,-603.957"/>
</g>
</g>
</svg>
