<?xml version="1.0" encoding="UTF-8" standalone="no"?>
<!DOCTYPE svg PUBLIC "-//W3C//DTD SVG 1.1//EN"
 "http://www.w3.org/Graphics/SVG/1.1/DTD/svg11.dtd">
<!-- Generated by graphviz version 2.38.0 (20140413.2041)
 -->
<!-- Title: G Pages: 1 -->
<svg width="654pt" height="799pt"
 viewBox="0.00 0.00 654.00 799.48" xmlns="http://www.w3.org/2000/svg" xmlns:xlink="http://www.w3.org/1999/xlink">
<g id="graph0" class="graph" transform="scale(1 1) rotate(0) translate(4 795.48)">
<title>G</title>
<polygon fill="white" stroke="none" points="-4,4 -4,-795.48 650,-795.48 650,4 -4,4"/>
<!-- GS -->
<g id="node1" class="node"><title>GS</title>
<ellipse fill="none" stroke="grey" stroke-width="2" cx="99" cy="-773.48" rx="85.5853" ry="18"/>
<text text-anchor="middle" x="99" y="-769.78" font-family="Times,serif" font-size="14.00">Ch.3 &#45; Infinite Loops</text>
</g>
<!-- SU -->
<g id="node2" class="node"><title>SU</title>
<ellipse fill="none" stroke="black" cx="236" cy="-701.48" rx="35.194" ry="18"/>
<text text-anchor="middle" x="236" y="-697.78" font-family="Times,serif" font-size="14.00">setup()</text>
</g>
<!-- GS&#45;&gt;SU -->
<g id="edge1" class="edge"><title>GS&#45;&gt;SU</title>
<path fill="none" stroke="black" d="M130.087,-756.596C151.778,-745.513 180.688,-730.742 202.823,-719.432"/>
<polygon fill="black" stroke="black" points="204.542,-722.484 211.854,-714.817 201.357,-716.251 204.542,-722.484"/>
</g>
<!-- MX -->
<g id="node18" class="node"><title>MX</title>
<ellipse fill="none" stroke="black" cx="390" cy="-26.8701" rx="92.7622" ry="26.7407"/>
<text text-anchor="middle" x="390" y="-30.6701" font-family="Times,serif" font-size="14.00">MiniX 3: </text>
<text text-anchor="middle" x="390" y="-15.6701" font-family="Times,serif" font-size="14.00">Designing a throbber</text>
</g>
<!-- GS&#45;&gt;MX -->
<g id="edge7" class="edge"><title>GS&#45;&gt;MX</title>
<path fill="none" stroke="black" d="M77.0287,-755.864C47.8625,-731.729 0,-683.974 0,-630.48 0,-630.48 0,-630.48 0,-178.74 0,-114.37 187.136,-66.786 302.149,-43.6192"/>
<polygon fill="black" stroke="black" points="302.89,-47.0404 312.015,-41.656 301.524,-40.175 302.89,-47.0404"/>
</g>
<!-- RR -->
<g id="node19" class="node"><title>RR</title>
<ellipse fill="none" stroke="black" cx="310" cy="-773.48" rx="71.4873" ry="18"/>
<text text-anchor="middle" x="310" y="-769.78" font-family="Times,serif" font-size="14.00">Required reading</text>
</g>
<!-- GS&#45;&gt;RR -->
<g id="edge5" class="edge"><title>GS&#45;&gt;RR</title>
<path fill="none" stroke="black" d="M195.515,-773.48C206.434,-773.48 217.352,-773.48 228.271,-773.48"/>
<polygon fill="black" stroke="black" points="195.131,-769.98 185.131,-773.48 195.131,-776.98 195.131,-769.98"/>
<polygon fill="black" stroke="black" points="228.298,-776.98 238.298,-773.48 228.298,-769.98 228.298,-776.98"/>
</g>
<!-- ST -->
<g id="node3" class="node"><title>ST</title>
<ellipse fill="none" stroke="black" cx="421" cy="-701.48" rx="31.6951" ry="18"/>
<text text-anchor="middle" x="421" y="-697.78" font-family="Times,serif" font-size="14.00">start()</text>
</g>
<!-- SU&#45;&gt;ST -->
<g id="edge2" class="edge"><title>SU&#45;&gt;ST</title>
<path fill="none" stroke="black" d="M271.41,-701.48C307.196,-701.48 342.982,-701.48 378.768,-701.48"/>
<polygon fill="black" stroke="black" points="378.862,-704.98 388.862,-701.48 378.862,-697.98 378.862,-704.98"/>
</g>
<!-- MW -->
<g id="node17" class="node"><title>MW</title>
<ellipse fill="none" stroke="black" cx="390" cy="-107.74" rx="38.1938" ry="18"/>
<text text-anchor="middle" x="390" y="-104.04" font-family="Times,serif" font-size="14.00">While()</text>
</g>
<!-- SU&#45;&gt;MW -->
<g id="edge6" class="edge"><title>SU&#45;&gt;MW</title>
<path fill="none" stroke="black" d="M194.641,-690.678C136.6,-674.177 38,-634.899 38,-558.48 38,-558.48 38,-558.48 38,-250.74 38,-185.253 250.183,-135.857 345.073,-117.042"/>
<polygon fill="black" stroke="black" points="194.057,-694.147 204.626,-693.407 195.903,-687.394 194.057,-694.147"/>
<polygon fill="black" stroke="black" points="345.82,-120.462 354.962,-115.107 344.476,-113.592 345.82,-120.462"/>
</g>
<!-- SC -->
<g id="node5" class="node"><title>SC</title>
<ellipse fill="none" stroke="black" cx="421" cy="-629.48" rx="55.7903" ry="18"/>
<text text-anchor="middle" x="421" y="-625.78" font-family="Times,serif" font-size="14.00">Source Code</text>
</g>
<!-- ST&#45;&gt;SC -->
<g id="edge3" class="edge"><title>ST&#45;&gt;SC</title>
<path fill="none" stroke="black" d="M421,-683.177C421,-675.463 421,-666.193 421,-657.593"/>
<polygon fill="black" stroke="black" points="424.5,-657.585 421,-647.585 417.5,-657.585 424.5,-657.585"/>
</g>
<!-- ST&#45;&gt;MW -->
<g id="edge22" class="edge"><title>ST&#45;&gt;MW</title>
<path fill="none" stroke="black" d="M449.401,-693.208C501.714,-677.913 608,-637.156 608,-558.48 608,-558.48 608,-558.48 608,-250.74 608,-208.187 489.905,-151.349 427.555,-124.306"/>
<polygon fill="black" stroke="black" points="428.623,-120.956 418.053,-120.229 425.863,-127.389 428.623,-120.956"/>
</g>
<!-- DE -->
<g id="node4" class="node"><title>DE</title>
<ellipse fill="none" stroke="black" cx="525" cy="-557.48" rx="37.8943" ry="18"/>
<text text-anchor="middle" x="525" y="-553.78" font-family="Times,serif" font-size="14.00">Decode</text>
</g>
<!-- SC&#45;&gt;DE -->
<g id="edge4" class="edge"><title>SC&#45;&gt;DE</title>
<path fill="none" stroke="black" d="M444.081,-612.945C459.229,-602.749 479.177,-589.323 495.476,-578.352"/>
<polygon fill="black" stroke="black" points="497.761,-581.033 504.103,-572.546 493.852,-575.226 497.761,-581.033"/>
</g>
<!-- FN -->
<g id="node6" class="node"><title>FN</title>
<ellipse fill="none" stroke="black" cx="300" cy="-557.48" rx="42.4939" ry="18"/>
<text text-anchor="middle" x="300" y="-553.78" font-family="Times,serif" font-size="14.00">Function</text>
</g>
<!-- SC&#45;&gt;FN -->
<g id="edge10" class="edge"><title>SC&#45;&gt;FN</title>
<path fill="none" stroke="black" d="M395.042,-613.463C376.938,-602.99 352.628,-588.926 333.127,-577.644"/>
<polygon fill="black" stroke="black" points="334.675,-574.497 324.267,-572.519 331.17,-580.556 334.675,-574.497"/>
</g>
<!-- TR -->
<g id="node8" class="node"><title>TR</title>
<ellipse fill="none" stroke="black" cx="421" cy="-557.48" rx="48.1917" ry="18"/>
<text text-anchor="middle" x="421" y="-553.78" font-family="Times,serif" font-size="14.00">Transform</text>
</g>
<!-- SC&#45;&gt;TR -->
<g id="edge12" class="edge"><title>SC&#45;&gt;TR</title>
<path fill="none" stroke="black" d="M421,-611.177C421,-603.463 421,-594.193 421,-585.593"/>
<polygon fill="black" stroke="black" points="424.5,-585.585 421,-575.585 417.5,-585.585 424.5,-585.585"/>
</g>
<!-- EiC -->
<g id="node7" class="node"><title>EiC</title>
<ellipse fill="none" stroke="black" cx="288" cy="-485.48" rx="69.5877" ry="18"/>
<text text-anchor="middle" x="288" y="-481.78" font-family="Times,serif" font-size="14.00">Exercise in class</text>
</g>
<!-- FN&#45;&gt;EiC -->
<g id="edge11" class="edge"><title>FN&#45;&gt;EiC</title>
<path fill="none" stroke="black" d="M297.034,-539.177C295.711,-531.463 294.122,-522.193 292.648,-513.593"/>
<polygon fill="black" stroke="black" points="296.072,-512.849 290.932,-503.585 289.172,-514.032 296.072,-512.849"/>
</g>
<!-- AP -->
<g id="node10" class="node"><title>AP</title>
<ellipse fill="none" stroke="black" cx="339" cy="-404.61" rx="77.5641" ry="26.7407"/>
<text text-anchor="middle" x="339" y="-408.41" font-family="Times,serif" font-size="14.00">Reading </text>
<text text-anchor="middle" x="339" y="-393.41" font-family="Times,serif" font-size="14.00">Asterisk Painting</text>
</g>
<!-- EiC&#45;&gt;AP -->
<g id="edge14" class="edge"><title>EiC&#45;&gt;AP</title>
<path fill="none" stroke="black" d="M299.066,-467.367C304.315,-459.25 310.78,-449.252 316.967,-439.683"/>
<polygon fill="black" stroke="black" points="320.038,-441.38 322.529,-431.083 314.16,-437.579 320.038,-441.38"/>
</g>
<!-- EiC2 -->
<g id="node9" class="node"><title>EiC2</title>
<ellipse fill="none" stroke="black" cx="445" cy="-485.48" rx="69.5877" ry="18"/>
<text text-anchor="middle" x="445" y="-481.78" font-family="Times,serif" font-size="14.00">Exercise in class</text>
</g>
<!-- TR&#45;&gt;EiC2 -->
<g id="edge13" class="edge"><title>TR&#45;&gt;EiC2</title>
<path fill="none" stroke="black" d="M426.81,-539.535C429.511,-531.656 432.789,-522.097 435.813,-513.274"/>
<polygon fill="black" stroke="black" points="439.145,-514.35 439.077,-503.756 432.523,-512.08 439.145,-514.35"/>
</g>
<!-- EiC2&#45;&gt;AP -->
<g id="edge15" class="edge"><title>EiC2&#45;&gt;AP</title>
<path fill="none" stroke="black" d="M423.294,-468.329C410.517,-458.823 393.961,-446.504 378.907,-435.304"/>
<polygon fill="black" stroke="black" points="380.845,-432.383 370.733,-429.221 376.666,-437.999 380.845,-432.383"/>
</g>
<!-- SC2 -->
<g id="node11" class="node"><title>SC2</title>
<ellipse fill="none" stroke="black" cx="339" cy="-323.74" rx="55.7903" ry="18"/>
<text text-anchor="middle" x="339" y="-320.04" font-family="Times,serif" font-size="14.00">Source Code</text>
</g>
<!-- AP&#45;&gt;SC2 -->
<g id="edge16" class="edge"><title>AP&#45;&gt;SC2</title>
<path fill="none" stroke="black" d="M339,-377.348C339,-369.247 339,-360.308 339,-352.132"/>
<polygon fill="black" stroke="black" points="342.5,-351.96 339,-341.96 335.5,-351.96 342.5,-351.96"/>
</g>
<!-- EiC3 -->
<g id="node12" class="node"><title>EiC3</title>
<ellipse fill="none" stroke="black" cx="510" cy="-251.74" rx="69.5877" ry="18"/>
<text text-anchor="middle" x="510" y="-248.04" font-family="Times,serif" font-size="14.00">Exercise in class</text>
</g>
<!-- SC2&#45;&gt;EiC3 -->
<g id="edge17" class="edge"><title>SC2&#45;&gt;EiC3</title>
<path fill="none" stroke="black" d="M372.376,-309.077C398.748,-298.282 435.819,-283.107 464.842,-271.226"/>
<polygon fill="black" stroke="black" points="466.421,-274.361 474.35,-267.334 463.769,-267.883 466.421,-274.361"/>
</g>
<!-- AR -->
<g id="node13" class="node"><title>AR</title>
<ellipse fill="none" stroke="black" cx="100" cy="-251.74" rx="34.394" ry="18"/>
<text text-anchor="middle" x="100" y="-248.04" font-family="Times,serif" font-size="14.00">Arrays</text>
</g>
<!-- SC2&#45;&gt;AR -->
<g id="edge18" class="edge"><title>SC2&#45;&gt;AR</title>
<path fill="none" stroke="black" d="M295.376,-312.438C255.379,-302.641 194.691,-286.887 143,-269.74 140.6,-268.944 138.139,-268.086 135.67,-267.194"/>
<polygon fill="black" stroke="black" points="136.799,-263.88 126.207,-263.642 134.339,-270.433 136.799,-263.88"/>
</g>
<!-- CS -->
<g id="node14" class="node"><title>CS</title>
<ellipse fill="none" stroke="black" cx="246" cy="-251.74" rx="93.6835" ry="18"/>
<text text-anchor="middle" x="246" y="-248.04" font-family="Times,serif" font-size="14.00">Conditional Statements</text>
</g>
<!-- SC2&#45;&gt;CS -->
<g id="edge19" class="edge"><title>SC2&#45;&gt;CS</title>
<path fill="none" stroke="black" d="M317.897,-306.856C305.559,-297.57 289.78,-285.693 276.15,-275.433"/>
<polygon fill="black" stroke="black" points="278.085,-272.509 267.99,-269.292 273.875,-278.102 278.085,-272.509"/>
</g>
<!-- LO -->
<g id="node15" class="node"><title>LO</title>
<ellipse fill="none" stroke="black" cx="390" cy="-251.74" rx="32.4942" ry="18"/>
<text text-anchor="middle" x="390" y="-248.04" font-family="Times,serif" font-size="14.00">Loops</text>
</g>
<!-- SC2&#45;&gt;LO -->
<g id="edge20" class="edge"><title>SC2&#45;&gt;LO</title>
<path fill="none" stroke="black" d="M351.086,-306.151C357.465,-297.396 365.41,-286.491 372.455,-276.822"/>
<polygon fill="black" stroke="black" points="375.292,-278.872 378.352,-268.728 369.634,-274.75 375.292,-278.872"/>
</g>
<!-- WL -->
<g id="node16" class="node"><title>WL</title>
<ellipse fill="none" stroke="black" cx="349" cy="-179.74" rx="53.8905" ry="18"/>
<text text-anchor="middle" x="349" y="-176.04" font-family="Times,serif" font-size="14.00">While Loop</text>
</g>
<!-- LO&#45;&gt;WL -->
<g id="edge21" class="edge"><title>LO&#45;&gt;WL</title>
<path fill="none" stroke="black" d="M380.491,-234.505C375.665,-226.266 369.685,-216.057 364.238,-206.756"/>
<polygon fill="black" stroke="black" points="367.104,-204.724 359.03,-197.864 361.064,-208.262 367.104,-204.724"/>
</g>
<!-- LO&#45;&gt;MW -->
<g id="edge23" class="edge"><title>LO&#45;&gt;MW</title>
<path fill="none" stroke="black" d="M398.902,-234.092C403.835,-223.911 409.469,-210.442 412,-197.74 415.127,-182.049 415.127,-177.432 412,-161.74 410.181,-152.611 406.758,-143.085 403.146,-134.669"/>
<polygon fill="black" stroke="black" points="406.244,-133.027 398.902,-125.388 399.878,-135.938 406.244,-133.027"/>
</g>
<!-- WL&#45;&gt;MW -->
<g id="edge26" class="edge"><title>WL&#45;&gt;MW</title>
<path fill="none" stroke="black" d="M358.925,-161.795C363.76,-153.541 369.675,-143.441 375.042,-134.278"/>
<polygon fill="black" stroke="black" points="378.132,-135.927 380.166,-125.529 372.092,-132.389 378.132,-135.927"/>
</g>
<!-- MW&#45;&gt;MX -->
<g id="edge25" class="edge"><title>MW&#45;&gt;MX</title>
<path fill="none" stroke="black" d="M390,-89.6265C390,-82.137 390,-73.0458 390,-64.168"/>
<polygon fill="black" stroke="black" points="393.5,-63.9529 390,-53.953 386.5,-63.953 393.5,-63.9529"/>
</g>
<!-- Notes -->
<g id="node20" class="node"><title>Notes</title>
<ellipse fill="none" stroke="black" cx="478" cy="-107.74" rx="31.3957" ry="18"/>
<text text-anchor="middle" x="478" y="-104.04" font-family="Times,serif" font-size="14.00">Notes</text>
</g>
<!-- MW&#45;&gt;Notes -->
<g id="edge24" class="edge"><title>MW&#45;&gt;Notes</title>
<path fill="none" stroke="black" d="M428.5,-107.74C431.151,-107.74 433.801,-107.74 436.452,-107.74"/>
<polygon fill="black" stroke="black" points="436.676,-111.24 446.676,-107.74 436.676,-104.24 436.676,-111.24"/>
</g>
<!-- RR&#45;&gt;SU -->
<g id="edge9" class="edge"><title>RR&#45;&gt;SU</title>
<path fill="none" stroke="black" d="M292.463,-755.891C282.627,-746.587 270.225,-734.855 259.552,-724.759"/>
<polygon fill="black" stroke="black" points="261.817,-722.084 252.147,-717.754 257.006,-727.169 261.817,-722.084"/>
</g>
<!-- RR&#45;&gt;MX -->
<g id="edge8" class="edge"><title>RR&#45;&gt;MX</title>
<path fill="none" stroke="black" d="M381.668,-772.488C480.348,-768.299 646,-744.314 646,-630.48 646,-630.48 646,-630.48 646,-178.74 646,-99.375 553.548,-60.9135 479.763,-42.8556"/>
<polygon fill="black" stroke="black" points="480.483,-39.4295 469.947,-40.5448 478.879,-46.2433 480.483,-39.4295"/>
</g>
</g>
</svg>
