<?xml version="1.0" encoding="UTF-8" standalone="no"?>
<!DOCTYPE svg PUBLIC "-//W3C//DTD SVG 1.1//EN"
 "http://www.w3.org/Graphics/SVG/1.1/DTD/svg11.dtd">
<!-- Generated by graphviz version 2.38.0 (20140413.2041)
 -->
<!-- Title: G Pages: 1 -->
<svg width="652pt" height="799pt"
 viewBox="0.00 0.00 652.00 799.48" xmlns="http://www.w3.org/2000/svg" xmlns:xlink="http://www.w3.org/1999/xlink">
<g id="graph0" class="graph" transform="scale(1 1) rotate(0) translate(4 795.48)">
<title>G</title>
<polygon fill="white" stroke="none" points="-4,4 -4,-795.48 648,-795.48 648,4 -4,4"/>
<!-- GS -->
<g id="node1" class="node"><title>GS</title>
<ellipse fill="none" stroke="grey" stroke-width="2" cx="229" cy="-773.48" rx="85.5853" ry="18"/>
<text text-anchor="middle" x="229" y="-769.78" font-family="Times,serif" font-size="14.00">Ch.3 &#45; Infinite Loops</text>
</g>
<!-- SU -->
<g id="node2" class="node"><title>SU</title>
<ellipse fill="none" stroke="black" cx="232" cy="-701.48" rx="35.194" ry="18"/>
<text text-anchor="middle" x="232" y="-697.78" font-family="Times,serif" font-size="14.00">setup()</text>
</g>
<!-- GS&#45;&gt;SU -->
<g id="edge1" class="edge"><title>GS&#45;&gt;SU</title>
<path fill="none" stroke="black" d="M229.742,-755.177C230.072,-747.463 230.469,-738.193 230.838,-729.593"/>
<polygon fill="black" stroke="black" points="234.335,-729.725 231.267,-719.585 227.342,-729.425 234.335,-729.725"/>
</g>
<!-- MX -->
<g id="node18" class="node"><title>MX</title>
<ellipse fill="none" stroke="black" cx="387" cy="-26.8701" rx="92.7622" ry="26.7407"/>
<text text-anchor="middle" x="387" y="-30.6701" font-family="Times,serif" font-size="14.00">MiniX[3]: </text>
<text text-anchor="middle" x="387" y="-15.6701" font-family="Times,serif" font-size="14.00">Designing a throbber</text>
</g>
<!-- GS&#45;&gt;MX -->
<g id="edge7" class="edge"><title>GS&#45;&gt;MX</title>
<path fill="none" stroke="black" d="M165.515,-761.324C97.7435,-745.338 0,-708.72 0,-630.48 0,-630.48 0,-630.48 0,-178.74 0,-114.865 185.323,-67.1465 299.48,-43.8115"/>
<polygon fill="black" stroke="black" points="300.505,-47.1753 309.615,-41.7656 299.12,-40.3137 300.505,-47.1753"/>
</g>
<!-- RR -->
<g id="node19" class="node"><title>RR</title>
<ellipse fill="none" stroke="black" cx="440" cy="-773.48" rx="71.4873" ry="18"/>
<text text-anchor="middle" x="440" y="-769.78" font-family="Times,serif" font-size="14.00">Required reading</text>
</g>
<!-- GS&#45;&gt;RR -->
<g id="edge5" class="edge"><title>GS&#45;&gt;RR</title>
<path fill="none" stroke="black" d="M325.515,-773.48C336.434,-773.48 347.352,-773.48 358.271,-773.48"/>
<polygon fill="black" stroke="black" points="325.131,-769.98 315.131,-773.48 325.131,-776.98 325.131,-769.98"/>
<polygon fill="black" stroke="black" points="358.298,-776.98 368.298,-773.48 358.298,-769.98 358.298,-776.98"/>
</g>
<!-- ST -->
<g id="node3" class="node"><title>ST</title>
<ellipse fill="none" stroke="black" cx="322" cy="-701.48" rx="31.6951" ry="18"/>
<text text-anchor="middle" x="322" y="-697.78" font-family="Times,serif" font-size="14.00">start()</text>
</g>
<!-- SU&#45;&gt;ST -->
<g id="edge2" class="edge"><title>SU&#45;&gt;ST</title>
<path fill="none" stroke="black" d="M267.156,-701.48C271.296,-701.48 275.435,-701.48 279.575,-701.48"/>
<polygon fill="black" stroke="black" points="279.865,-704.98 289.865,-701.48 279.865,-697.98 279.865,-704.98"/>
</g>
<!-- MW -->
<g id="node17" class="node"><title>MW</title>
<ellipse fill="none" stroke="black" cx="387" cy="-107.74" rx="38.1938" ry="18"/>
<text text-anchor="middle" x="387" y="-104.04" font-family="Times,serif" font-size="14.00">While()</text>
</g>
<!-- SU&#45;&gt;MW -->
<g id="edge6" class="edge"><title>SU&#45;&gt;MW</title>
<path fill="none" stroke="black" d="M191.03,-690.282C134.104,-673.371 38,-633.686 38,-558.48 38,-558.48 38,-558.48 38,-250.74 38,-185.812 247.865,-136.192 342.112,-117.183"/>
<polygon fill="black" stroke="black" points="190.254,-693.7 200.831,-693.084 192.178,-686.97 190.254,-693.7"/>
<polygon fill="black" stroke="black" points="342.814,-120.612 351.939,-115.227 341.448,-113.746 342.814,-120.612"/>
</g>
<!-- SC -->
<g id="node5" class="node"><title>SC</title>
<ellipse fill="none" stroke="black" cx="322" cy="-629.48" rx="53.8905" ry="18"/>
<text text-anchor="middle" x="322" y="-625.78" font-family="Times,serif" font-size="14.00">Source code</text>
</g>
<!-- ST&#45;&gt;SC -->
<g id="edge3" class="edge"><title>ST&#45;&gt;SC</title>
<path fill="none" stroke="black" d="M322,-683.177C322,-675.463 322,-666.193 322,-657.593"/>
<polygon fill="black" stroke="black" points="325.5,-657.585 322,-647.585 318.5,-657.585 325.5,-657.585"/>
</g>
<!-- ST&#45;&gt;MW -->
<g id="edge23" class="edge"><title>ST&#45;&gt;MW</title>
<path fill="none" stroke="black" d="M346.214,-689.775C414.893,-659.234 606,-572.951 606,-558.48 606,-558.48 606,-558.48 606,-250.74 606,-208.05 487.364,-151.277 424.727,-124.278"/>
<polygon fill="black" stroke="black" points="425.754,-120.91 415.182,-120.207 423.007,-127.349 425.754,-120.91"/>
</g>
<!-- DE -->
<g id="node4" class="node"><title>DE</title>
<ellipse fill="none" stroke="black" cx="426" cy="-557.48" rx="37.8943" ry="18"/>
<text text-anchor="middle" x="426" y="-553.78" font-family="Times,serif" font-size="14.00">Decode</text>
</g>
<!-- SC&#45;&gt;DE -->
<g id="edge4" class="edge"><title>SC&#45;&gt;DE</title>
<path fill="none" stroke="black" d="M344.823,-613.118C359.958,-602.931 379.969,-589.462 396.336,-578.447"/>
<polygon fill="black" stroke="black" points="398.657,-581.103 404.999,-572.615 394.749,-575.296 398.657,-581.103"/>
</g>
<!-- FN -->
<g id="node6" class="node"><title>FN</title>
<ellipse fill="none" stroke="black" cx="189" cy="-557.48" rx="42.4939" ry="18"/>
<text text-anchor="middle" x="189" y="-553.78" font-family="Times,serif" font-size="14.00">Function</text>
</g>
<!-- SC&#45;&gt;FN -->
<g id="edge10" class="edge"><title>SC&#45;&gt;FN</title>
<path fill="none" stroke="black" d="M294.442,-613.976C273.937,-603.184 245.804,-588.377 223.755,-576.772"/>
<polygon fill="black" stroke="black" points="225.197,-573.576 214.718,-572.016 221.937,-579.771 225.197,-573.576"/>
</g>
<!-- TR -->
<g id="node8" class="node"><title>TR</title>
<ellipse fill="none" stroke="black" cx="322" cy="-557.48" rx="48.1917" ry="18"/>
<text text-anchor="middle" x="322" y="-553.78" font-family="Times,serif" font-size="14.00">Transform</text>
</g>
<!-- SC&#45;&gt;TR -->
<g id="edge13" class="edge"><title>SC&#45;&gt;TR</title>
<path fill="none" stroke="black" d="M322,-611.177C322,-603.463 322,-594.193 322,-585.593"/>
<polygon fill="black" stroke="black" points="325.5,-585.585 322,-575.585 318.5,-585.585 325.5,-585.585"/>
</g>
<!-- EiC -->
<g id="node7" class="node"><title>EiC</title>
<ellipse fill="none" stroke="black" cx="165" cy="-485.48" rx="69.5877" ry="18"/>
<text text-anchor="middle" x="165" y="-481.78" font-family="Times,serif" font-size="14.00">Exercise in class</text>
</g>
<!-- FN&#45;&gt;EiC -->
<g id="edge11" class="edge"><title>FN&#45;&gt;EiC</title>
<path fill="none" stroke="black" d="M183.19,-539.535C180.489,-531.656 177.211,-522.097 174.187,-513.274"/>
<polygon fill="black" stroke="black" points="177.477,-512.08 170.923,-503.756 170.855,-514.35 177.477,-512.08"/>
</g>
<!-- AP -->
<g id="node11" class="node"><title>AP</title>
<ellipse fill="none" stroke="black" cx="283" cy="-404.61" rx="77.5641" ry="26.7407"/>
<text text-anchor="middle" x="283" y="-408.41" font-family="Times,serif" font-size="14.00">Reading </text>
<text text-anchor="middle" x="283" y="-393.41" font-family="Times,serif" font-size="14.00">Asterisk Painting</text>
</g>
<!-- EiC&#45;&gt;AP -->
<g id="edge15" class="edge"><title>EiC&#45;&gt;AP</title>
<path fill="none" stroke="black" d="M188.879,-468.52C203.445,-458.784 222.502,-446.046 239.655,-434.581"/>
<polygon fill="black" stroke="black" points="242.049,-437.191 248.418,-428.724 238.159,-431.371 242.049,-437.191"/>
</g>
<!-- PP -->
<g id="node9" class="node"><title>PP</title>
<ellipse fill="none" stroke="black" cx="479" cy="-485.48" rx="69.5877" ry="18"/>
<text text-anchor="middle" x="479" y="-481.78" font-family="Times,serif" font-size="14.00">push() and pop()</text>
</g>
<!-- TR&#45;&gt;PP -->
<g id="edge12" class="edge"><title>TR&#45;&gt;PP</title>
<path fill="none" stroke="black" d="M351.9,-543.149C375.855,-532.468 409.765,-517.349 436.535,-505.414"/>
<polygon fill="black" stroke="black" points="437.97,-508.606 445.678,-501.337 435.119,-502.213 437.97,-508.606"/>
</g>
<!-- EiC2 -->
<g id="node10" class="node"><title>EiC2</title>
<ellipse fill="none" stroke="black" cx="322" cy="-485.48" rx="69.5877" ry="18"/>
<text text-anchor="middle" x="322" y="-481.78" font-family="Times,serif" font-size="14.00">Exercise in class</text>
</g>
<!-- TR&#45;&gt;EiC2 -->
<g id="edge14" class="edge"><title>TR&#45;&gt;EiC2</title>
<path fill="none" stroke="black" d="M322,-539.177C322,-531.463 322,-522.193 322,-513.593"/>
<polygon fill="black" stroke="black" points="325.5,-513.585 322,-503.585 318.5,-513.585 325.5,-513.585"/>
</g>
<!-- EiC2&#45;&gt;AP -->
<g id="edge16" class="edge"><title>EiC2&#45;&gt;AP</title>
<path fill="none" stroke="black" d="M313.538,-467.367C309.64,-459.483 304.864,-449.826 300.258,-440.51"/>
<polygon fill="black" stroke="black" points="303.316,-438.8 295.746,-431.387 297.042,-441.903 303.316,-438.8"/>
</g>
<!-- SC2 -->
<g id="node12" class="node"><title>SC2</title>
<ellipse fill="none" stroke="black" cx="283" cy="-323.74" rx="53.8905" ry="18"/>
<text text-anchor="middle" x="283" y="-320.04" font-family="Times,serif" font-size="14.00">Source code</text>
</g>
<!-- AP&#45;&gt;SC2 -->
<g id="edge17" class="edge"><title>AP&#45;&gt;SC2</title>
<path fill="none" stroke="black" d="M283,-377.348C283,-369.247 283,-360.308 283,-352.132"/>
<polygon fill="black" stroke="black" points="286.5,-351.96 283,-341.96 279.5,-351.96 286.5,-351.96"/>
</g>
<!-- EiC3 -->
<g id="node13" class="node"><title>EiC3</title>
<ellipse fill="none" stroke="black" cx="508" cy="-251.74" rx="69.5877" ry="18"/>
<text text-anchor="middle" x="508" y="-248.04" font-family="Times,serif" font-size="14.00">Exercise in class</text>
</g>
<!-- SC2&#45;&gt;EiC3 -->
<g id="edge18" class="edge"><title>SC2&#45;&gt;EiC3</title>
<path fill="none" stroke="black" d="M321.168,-310.866C358.195,-299.346 414.667,-281.777 455.833,-268.97"/>
<polygon fill="black" stroke="black" points="456.912,-272.3 465.421,-265.987 454.833,-265.616 456.912,-272.3"/>
</g>
<!-- AR -->
<g id="node14" class="node"><title>AR</title>
<ellipse fill="none" stroke="black" cx="100" cy="-251.74" rx="34.394" ry="18"/>
<text text-anchor="middle" x="100" y="-248.04" font-family="Times,serif" font-size="14.00">Arrays</text>
</g>
<!-- SC2&#45;&gt;AR -->
<g id="edge19" class="edge"><title>SC2&#45;&gt;AR</title>
<path fill="none" stroke="black" d="M248.71,-309.714C220.567,-299.011 179.685,-283.437 144,-269.74 141.506,-268.783 138.933,-267.793 136.341,-266.795"/>
<polygon fill="black" stroke="black" points="137.575,-263.52 126.985,-263.188 135.056,-270.051 137.575,-263.52"/>
</g>
<!-- CS -->
<g id="node15" class="node"><title>CS</title>
<ellipse fill="none" stroke="black" cx="245" cy="-251.74" rx="92.0841" ry="18"/>
<text text-anchor="middle" x="245" y="-248.04" font-family="Times,serif" font-size="14.00">Conditional statements</text>
</g>
<!-- SC2&#45;&gt;CS -->
<g id="edge20" class="edge"><title>SC2&#45;&gt;CS</title>
<path fill="none" stroke="black" d="M273.801,-305.795C269.432,-297.747 264.111,-287.945 259.237,-278.966"/>
<polygon fill="black" stroke="black" points="262.225,-277.134 254.378,-270.015 256.073,-280.474 262.225,-277.134"/>
</g>
<!-- LO -->
<g id="node16" class="node"><title>LO</title>
<ellipse fill="none" stroke="black" cx="388" cy="-251.74" rx="32.4942" ry="18"/>
<text text-anchor="middle" x="388" y="-248.04" font-family="Times,serif" font-size="14.00">Loops</text>
</g>
<!-- SC2&#45;&gt;LO -->
<g id="edge21" class="edge"><title>SC2&#45;&gt;LO</title>
<path fill="none" stroke="black" d="M306.043,-307.378C321.773,-296.891 342.721,-282.926 359.5,-271.74"/>
<polygon fill="black" stroke="black" points="361.466,-274.636 367.845,-266.177 357.583,-268.811 361.466,-274.636"/>
</g>
<!-- LO&#45;&gt;MW -->
<g id="edge24" class="edge"><title>LO&#45;&gt;MW</title>
<path fill="none" stroke="black" d="M391.248,-233.628C393.046,-223.282 395.095,-209.803 396,-197.74 397.197,-181.785 397.344,-177.684 396,-161.74 395.283,-153.239 393.931,-144.052 392.488,-135.752"/>
<polygon fill="black" stroke="black" points="395.914,-135.029 390.654,-125.833 389.031,-136.302 395.914,-135.029"/>
</g>
<!-- WL -->
<g id="node22" class="node"><title>WL</title>
<ellipse fill="none" stroke="black" cx="360" cy="-179.74" rx="27" ry="18"/>
<text text-anchor="middle" x="360" y="-176.04" font-family="Times,serif" font-size="14.00">WL</text>
</g>
<!-- LO&#45;&gt;WL -->
<g id="edge22" class="edge"><title>LO&#45;&gt;WL</title>
<path fill="none" stroke="black" d="M381.222,-233.795C377.989,-225.713 374.049,-215.862 370.445,-206.852"/>
<polygon fill="black" stroke="black" points="373.679,-205.514 366.716,-197.529 367.18,-208.114 373.679,-205.514"/>
</g>
<!-- MW&#45;&gt;MX -->
<g id="edge26" class="edge"><title>MW&#45;&gt;MX</title>
<path fill="none" stroke="black" d="M387,-89.6265C387,-82.137 387,-73.0458 387,-64.168"/>
<polygon fill="black" stroke="black" points="390.5,-63.9529 387,-53.953 383.5,-63.953 390.5,-63.9529"/>
</g>
<!-- Notes -->
<g id="node21" class="node"><title>Notes</title>
<ellipse fill="none" stroke="black" cx="475" cy="-107.74" rx="31.3957" ry="18"/>
<text text-anchor="middle" x="475" y="-104.04" font-family="Times,serif" font-size="14.00">Notes</text>
</g>
<!-- MW&#45;&gt;Notes -->
<g id="edge25" class="edge"><title>MW&#45;&gt;Notes</title>
<path fill="none" stroke="black" d="M425.5,-107.74C428.151,-107.74 430.801,-107.74 433.452,-107.74"/>
<polygon fill="black" stroke="black" points="433.676,-111.24 443.676,-107.74 433.676,-104.24 433.676,-111.24"/>
</g>
<!-- RR&#45;&gt;SU -->
<g id="edge9" class="edge"><title>RR&#45;&gt;SU</title>
<path fill="none" stroke="black" d="M398.441,-758.781C366.334,-748.16 320.806,-733.019 281,-719.48 277.422,-718.263 273.701,-716.989 269.978,-715.708"/>
<polygon fill="black" stroke="black" points="270.818,-712.295 260.223,-712.338 268.532,-718.911 270.818,-712.295"/>
</g>
<!-- RR&#45;&gt;MX -->
<g id="edge8" class="edge"><title>RR&#45;&gt;MX</title>
<path fill="none" stroke="black" d="M490.952,-760.772C551.375,-743.513 644,-704.918 644,-630.48 644,-630.48 644,-630.48 644,-178.74 644,-99.1448 551.187,-60.7298 477.113,-42.7456"/>
<polygon fill="black" stroke="black" points="477.793,-39.3103 467.259,-40.4449 476.202,-46.1269 477.793,-39.3103"/>
</g>
<!-- FR -->
<g id="node20" class="node"><title>FR</title>
<ellipse fill="none" stroke="black" cx="440" cy="-701.48" rx="65.7887" ry="18"/>
<text text-anchor="middle" x="440" y="-697.78" font-family="Times,serif" font-size="14.00">Further reading</text>
</g>
<!-- RR&#45;&gt;FR -->
<g id="edge28" class="edge"><title>RR&#45;&gt;FR</title>
<path fill="none" stroke="black" d="M440,-755.177C440,-747.463 440,-738.193 440,-729.593"/>
<polygon fill="black" stroke="black" points="443.5,-729.585 440,-719.585 436.5,-729.585 443.5,-729.585"/>
</g>
<!-- WL&#45;&gt;MW -->
<g id="edge27" class="edge"><title>WL&#45;&gt;MW</title>
<path fill="none" stroke="black" d="M366.399,-162.151C369.514,-154.075 373.334,-144.171 376.835,-135.095"/>
<polygon fill="black" stroke="black" points="380.126,-136.286 380.46,-125.696 373.595,-133.767 380.126,-136.286"/>
</g>
</g>
</svg>
