<?xml version="1.0" encoding="UTF-8" standalone="no"?>
<!DOCTYPE svg PUBLIC "-//W3C//DTD SVG 1.1//EN"
 "http://www.w3.org/Graphics/SVG/1.1/DTD/svg11.dtd">
<!-- Generated by graphviz version 2.38.0 (20140413.2041)
 -->
<!-- Title: G Pages: 1 -->
<svg width="624pt" height="710pt"
 viewBox="0.00 0.00 624.17 709.74" xmlns="http://www.w3.org/2000/svg" xmlns:xlink="http://www.w3.org/1999/xlink">
<g id="graph0" class="graph" transform="scale(1 1) rotate(0) translate(4 705.74)">
<title>G</title>
<polygon fill="white" stroke="none" points="-4,4 -4,-705.74 620.175,-705.74 620.175,4 -4,4"/>
<!-- GS -->
<g id="node1" class="node"><title>GS</title>
<ellipse fill="none" stroke="grey" stroke-width="2" cx="289.544" cy="-683.74" rx="85.5853" ry="18"/>
<text text-anchor="middle" x="289.544" y="-680.04" font-family="Times,serif" font-size="14.00">Ch.3 &#45; Infinite Loops</text>
</g>
<!-- SU -->
<g id="node2" class="node"><title>SU</title>
<ellipse fill="none" stroke="black" cx="289.544" cy="-611.74" rx="35.194" ry="18"/>
<text text-anchor="middle" x="289.544" y="-608.04" font-family="Times,serif" font-size="14.00">setup()</text>
</g>
<!-- GS&#45;&gt;SU -->
<g id="edge1" class="edge"><title>GS&#45;&gt;SU</title>
<path fill="none" stroke="black" d="M289.544,-665.437C289.544,-657.723 289.544,-648.453 289.544,-639.853"/>
<polygon fill="black" stroke="black" points="293.044,-639.844 289.544,-629.844 286.044,-639.844 293.044,-639.844"/>
</g>
<!-- ST -->
<g id="node3" class="node"><title>ST</title>
<ellipse fill="none" stroke="black" cx="289.544" cy="-539.74" rx="31.6951" ry="18"/>
<text text-anchor="middle" x="289.544" y="-536.04" font-family="Times,serif" font-size="14.00">start()</text>
</g>
<!-- SU&#45;&gt;ST -->
<g id="edge2" class="edge"><title>SU&#45;&gt;ST</title>
<path fill="none" stroke="black" d="M289.544,-593.437C289.544,-585.723 289.544,-576.453 289.544,-567.853"/>
<polygon fill="black" stroke="black" points="293.044,-567.844 289.544,-557.844 286.044,-567.844 293.044,-567.844"/>
</g>
<!-- SC -->
<g id="node5" class="node"><title>SC</title>
<ellipse fill="none" stroke="black" cx="289.544" cy="-467.74" rx="55.7903" ry="18"/>
<text text-anchor="middle" x="289.544" y="-464.04" font-family="Times,serif" font-size="14.00">Source Code</text>
</g>
<!-- ST&#45;&gt;SC -->
<g id="edge3" class="edge"><title>ST&#45;&gt;SC</title>
<path fill="none" stroke="black" d="M289.544,-521.437C289.544,-513.723 289.544,-504.453 289.544,-495.853"/>
<polygon fill="black" stroke="black" points="293.044,-495.844 289.544,-485.844 286.044,-495.844 293.044,-495.844"/>
</g>
<!-- DE -->
<g id="node4" class="node"><title>DE</title>
<ellipse fill="none" stroke="black" cx="137.544" cy="-395.74" rx="37.8943" ry="18"/>
<text text-anchor="middle" x="137.544" y="-392.04" font-family="Times,serif" font-size="14.00">Decode</text>
</g>
<!-- SC&#45;&gt;DE -->
<g id="edge4" class="edge"><title>SC&#45;&gt;DE</title>
<path fill="none" stroke="black" d="M258.784,-452.575C233.907,-441.118 198.861,-424.978 172.842,-412.996"/>
<polygon fill="black" stroke="black" points="174.248,-409.79 163.701,-408.786 171.32,-416.148 174.248,-409.79"/>
</g>
<!-- FN -->
<g id="node6" class="node"><title>FN</title>
<ellipse fill="none" stroke="black" cx="235.544" cy="-395.74" rx="42.4939" ry="18"/>
<text text-anchor="middle" x="235.544" y="-392.04" font-family="Times,serif" font-size="14.00">Function</text>
</g>
<!-- SC&#45;&gt;FN -->
<g id="edge5" class="edge"><title>SC&#45;&gt;FN</title>
<path fill="none" stroke="black" d="M276.747,-450.151C270.089,-441.521 261.82,-430.802 254.442,-421.237"/>
<polygon fill="black" stroke="black" points="257.129,-418.99 248.249,-413.21 251.586,-423.266 257.129,-418.99"/>
</g>
<!-- TR -->
<g id="node8" class="node"><title>TR</title>
<ellipse fill="none" stroke="black" cx="343.544" cy="-395.74" rx="48.1917" ry="18"/>
<text text-anchor="middle" x="343.544" y="-392.04" font-family="Times,serif" font-size="14.00">Transform</text>
</g>
<!-- SC&#45;&gt;TR -->
<g id="edge7" class="edge"><title>SC&#45;&gt;TR</title>
<path fill="none" stroke="black" d="M302.341,-450.151C308.999,-441.521 317.267,-430.802 324.646,-421.237"/>
<polygon fill="black" stroke="black" points="327.502,-423.266 330.838,-413.21 321.959,-418.99 327.502,-423.266"/>
</g>
<!-- MW -->
<g id="node17" class="node"><title>MW</title>
<ellipse fill="none" stroke="black" cx="485.544" cy="-395.74" rx="38.1938" ry="18"/>
<text text-anchor="middle" x="485.544" y="-392.04" font-family="Times,serif" font-size="14.00">While()</text>
</g>
<!-- SC&#45;&gt;MW -->
<g id="edge17" class="edge"><title>SC&#45;&gt;MW</title>
<path fill="none" stroke="black" d="M325.493,-453.901C359.738,-441.671 411.155,-423.307 446.416,-410.714"/>
<polygon fill="black" stroke="black" points="447.665,-413.985 455.905,-407.325 445.311,-407.393 447.665,-413.985"/>
</g>
<!-- EiC -->
<g id="node7" class="node"><title>EiC</title>
<ellipse fill="none" stroke="black" cx="186.544" cy="-314.87" rx="69.5877" ry="18"/>
<text text-anchor="middle" x="186.544" y="-311.17" font-family="Times,serif" font-size="14.00">Exercise in class</text>
</g>
<!-- FN&#45;&gt;EiC -->
<g id="edge6" class="edge"><title>FN&#45;&gt;EiC</title>
<path fill="none" stroke="black" d="M225.152,-378.014C218.571,-367.42 209.928,-353.51 202.489,-341.536"/>
<polygon fill="black" stroke="black" points="205.34,-339.491 197.089,-332.844 199.394,-343.185 205.34,-339.491"/>
</g>
<!-- AP -->
<g id="node10" class="node"><title>AP</title>
<ellipse fill="none" stroke="black" cx="264.544" cy="-234" rx="71.4873" ry="18"/>
<text text-anchor="middle" x="264.544" y="-230.3" font-family="Times,serif" font-size="14.00">Asterisk Painting</text>
</g>
<!-- EiC&#45;&gt;AP -->
<g id="edge9" class="edge"><title>EiC&#45;&gt;AP</title>
<path fill="none" stroke="black" d="M203.086,-297.144C214.047,-286.06 228.6,-271.345 240.792,-259.016"/>
<polygon fill="black" stroke="black" points="243.483,-261.274 248.026,-251.702 238.506,-256.351 243.483,-261.274"/>
</g>
<!-- EiC2 -->
<g id="node9" class="node"><title>EiC2</title>
<ellipse fill="none" stroke="black" cx="343.544" cy="-314.87" rx="69.5877" ry="18"/>
<text text-anchor="middle" x="343.544" y="-311.17" font-family="Times,serif" font-size="14.00">Exercise in class</text>
</g>
<!-- TR&#45;&gt;EiC2 -->
<g id="edge8" class="edge"><title>TR&#45;&gt;EiC2</title>
<path fill="none" stroke="black" d="M343.544,-377.626C343.544,-367.601 343.544,-354.706 343.544,-343.295"/>
<polygon fill="black" stroke="black" points="347.044,-342.95 343.544,-332.95 340.044,-342.95 347.044,-342.95"/>
</g>
<!-- EiC2&#45;&gt;AP -->
<g id="edge10" class="edge"><title>EiC2&#45;&gt;AP</title>
<path fill="none" stroke="black" d="M326.79,-297.144C315.688,-286.06 300.949,-271.345 288.6,-259.016"/>
<polygon fill="black" stroke="black" points="290.823,-256.291 281.274,-251.702 285.878,-261.244 290.823,-256.291"/>
</g>
<!-- SC2 -->
<g id="node11" class="node"><title>SC2</title>
<ellipse fill="none" stroke="black" cx="264.544" cy="-162" rx="55.7903" ry="18"/>
<text text-anchor="middle" x="264.544" y="-158.3" font-family="Times,serif" font-size="14.00">Source Code</text>
</g>
<!-- AP&#45;&gt;SC2 -->
<g id="edge11" class="edge"><title>AP&#45;&gt;SC2</title>
<path fill="none" stroke="black" d="M264.544,-215.697C264.544,-207.983 264.544,-198.712 264.544,-190.112"/>
<polygon fill="black" stroke="black" points="268.044,-190.104 264.544,-180.104 261.044,-190.104 268.044,-190.104"/>
</g>
<!-- EiC3 -->
<g id="node12" class="node"><title>EiC3</title>
<ellipse fill="none" stroke="black" cx="69.5438" cy="-90" rx="69.5877" ry="18"/>
<text text-anchor="middle" x="69.5438" y="-86.3" font-family="Times,serif" font-size="14.00">Exercise in class</text>
</g>
<!-- SC2&#45;&gt;EiC3 -->
<g id="edge12" class="edge"><title>SC2&#45;&gt;EiC3</title>
<path fill="none" stroke="black" d="M228.778,-148.161C197.755,-137.025 152.568,-120.804 118.248,-108.484"/>
<polygon fill="black" stroke="black" points="119.021,-105.042 108.427,-104.958 116.656,-111.631 119.021,-105.042"/>
</g>
<!-- AR -->
<g id="node13" class="node"><title>AR</title>
<ellipse fill="none" stroke="black" cx="191.544" cy="-90" rx="34.394" ry="18"/>
<text text-anchor="middle" x="191.544" y="-86.3" font-family="Times,serif" font-size="14.00">Arrays</text>
</g>
<!-- SC2&#45;&gt;AR -->
<g id="edge13" class="edge"><title>SC2&#45;&gt;AR</title>
<path fill="none" stroke="black" d="M247.613,-144.765C237.852,-135.405 225.44,-123.503 214.776,-113.278"/>
<polygon fill="black" stroke="black" points="217.024,-110.584 207.384,-106.189 212.179,-115.636 217.024,-110.584"/>
</g>
<!-- CS -->
<g id="node14" class="node"><title>CS</title>
<ellipse fill="none" stroke="black" cx="337.544" cy="-90" rx="93.6835" ry="18"/>
<text text-anchor="middle" x="337.544" y="-86.3" font-family="Times,serif" font-size="14.00">Conditional Statements</text>
</g>
<!-- SC2&#45;&gt;CS -->
<g id="edge14" class="edge"><title>SC2&#45;&gt;CS</title>
<path fill="none" stroke="black" d="M281.475,-144.765C290.671,-135.946 302.221,-124.871 312.444,-115.068"/>
<polygon fill="black" stroke="black" points="315.147,-117.326 319.942,-107.878 310.302,-112.273 315.147,-117.326"/>
</g>
<!-- LO -->
<g id="node15" class="node"><title>LO</title>
<ellipse fill="none" stroke="black" cx="481.544" cy="-90" rx="32.4942" ry="18"/>
<text text-anchor="middle" x="481.544" y="-86.3" font-family="Times,serif" font-size="14.00">Loops</text>
</g>
<!-- SC2&#45;&gt;LO -->
<g id="edge15" class="edge"><title>SC2&#45;&gt;LO</title>
<path fill="none" stroke="black" d="M305.82,-149.839C341.731,-139.828 395.011,-124.249 440.544,-108 442.667,-107.242 444.84,-106.436 447.023,-105.602"/>
<polygon fill="black" stroke="black" points="448.537,-108.767 456.547,-101.832 445.961,-102.258 448.537,-108.767"/>
</g>
<!-- WL -->
<g id="node16" class="node"><title>WL</title>
<ellipse fill="none" stroke="black" cx="481.544" cy="-18" rx="53.8905" ry="18"/>
<text text-anchor="middle" x="481.544" y="-14.3" font-family="Times,serif" font-size="14.00">While Loop</text>
</g>
<!-- LO&#45;&gt;WL -->
<g id="edge16" class="edge"><title>LO&#45;&gt;WL</title>
<path fill="none" stroke="black" d="M481.544,-71.6966C481.544,-63.9827 481.544,-54.7125 481.544,-46.1124"/>
<polygon fill="black" stroke="black" points="485.044,-46.1043 481.544,-36.1043 478.044,-46.1044 485.044,-46.1043"/>
</g>
<!-- MX -->
<g id="node18" class="node"><title>MX</title>
<ellipse fill="none" stroke="black" cx="523.544" cy="-314.87" rx="92.7622" ry="26.7407"/>
<text text-anchor="middle" x="523.544" y="-318.67" font-family="Times,serif" font-size="14.00">MiniX 3: </text>
<text text-anchor="middle" x="523.544" y="-303.67" font-family="Times,serif" font-size="14.00">Designing a throbber</text>
</g>
<!-- MW&#45;&gt;MX -->
<g id="edge18" class="edge"><title>MW&#45;&gt;MX</title>
<path fill="none" stroke="black" d="M493.603,-378.014C497.426,-370.078 502.146,-360.281 506.699,-350.831"/>
<polygon fill="black" stroke="black" points="509.97,-352.107 511.157,-341.579 503.663,-349.069 509.97,-352.107"/>
</g>
<!-- RR -->
<g id="node19" class="node"><title>RR</title>
<ellipse fill="none" stroke="black" cx="523.544" cy="-234" rx="71.4873" ry="18"/>
<text text-anchor="middle" x="523.544" y="-230.3" font-family="Times,serif" font-size="14.00">Required reading</text>
</g>
<!-- MX&#45;&gt;RR -->
<g id="edge19" class="edge"><title>MX&#45;&gt;RR</title>
<path fill="none" stroke="black" d="M523.544,-287.607C523.544,-279.506 523.544,-270.568 523.544,-262.392"/>
<polygon fill="black" stroke="black" points="527.044,-262.22 523.544,-252.22 520.044,-262.22 527.044,-262.22"/>
</g>
<!-- Notes -->
<g id="node20" class="node"><title>Notes</title>
<ellipse fill="none" stroke="black" cx="523.544" cy="-162" rx="31.3957" ry="18"/>
<text text-anchor="middle" x="523.544" y="-158.3" font-family="Times,serif" font-size="14.00">Notes</text>
</g>
<!-- RR&#45;&gt;Notes -->
<g id="edge20" class="edge"><title>RR&#45;&gt;Notes</title>
<path fill="none" stroke="black" d="M523.544,-215.697C523.544,-207.983 523.544,-198.712 523.544,-190.112"/>
<polygon fill="black" stroke="black" points="527.044,-190.104 523.544,-180.104 520.044,-190.104 527.044,-190.104"/>
</g>
</g>
</svg>
