<?xml version="1.0" encoding="UTF-8" standalone="no"?>
<!DOCTYPE svg PUBLIC "-//W3C//DTD SVG 1.1//EN"
 "http://www.w3.org/Graphics/SVG/1.1/DTD/svg11.dtd">
<!-- Generated by graphviz version 2.38.0 (20140413.2041)
 -->
<!-- Title: G Pages: 1 -->
<svg width="668pt" height="727pt"
 viewBox="0.00 0.00 667.63 727.48" xmlns="http://www.w3.org/2000/svg" xmlns:xlink="http://www.w3.org/1999/xlink">
<g id="graph0" class="graph" transform="scale(1 1) rotate(0) translate(4 723.48)">
<title>G</title>
<polygon fill="white" stroke="none" points="-4,4 -4,-723.48 663.631,-723.48 663.631,4 -4,4"/>
<!-- GS -->
<g id="node1" class="node"><title>GS</title>
<ellipse fill="none" stroke="grey" stroke-width="2" cx="92.631" cy="-701.48" rx="85.5853" ry="18"/>
<text text-anchor="middle" x="92.631" y="-697.78" font-family="Times,serif" font-size="14.00">Ch.3 &#45; Infinite Loops</text>
</g>
<!-- SU -->
<g id="node2" class="node"><title>SU</title>
<ellipse fill="none" stroke="black" cx="92.631" cy="-629.48" rx="35.194" ry="18"/>
<text text-anchor="middle" x="92.631" y="-625.78" font-family="Times,serif" font-size="14.00">setup()</text>
</g>
<!-- GS&#45;&gt;SU -->
<g id="edge1" class="edge"><title>GS&#45;&gt;SU</title>
<path fill="none" stroke="black" d="M92.631,-683.177C92.631,-675.463 92.631,-666.193 92.631,-657.593"/>
<polygon fill="black" stroke="black" points="96.1311,-657.585 92.631,-647.585 89.1311,-657.585 96.1311,-657.585"/>
</g>
<!-- MX -->
<g id="node18" class="node"><title>MX</title>
<ellipse fill="none" stroke="black" cx="92.631" cy="-26.8701" rx="92.7622" ry="26.7407"/>
<text text-anchor="middle" x="92.631" y="-30.6701" font-family="Times,serif" font-size="14.00">MiniX[3]: </text>
<text text-anchor="middle" x="92.631" y="-15.6701" font-family="Times,serif" font-size="14.00">Designing a throbber</text>
</g>
<!-- GS&#45;&gt;MX -->
<g id="edge7" class="edge"><title>GS&#45;&gt;MX</title>
<path fill="none" stroke="black" d="M76.5133,-683.673C54.2042,-658.567 16.631,-608.811 16.631,-558.48 16.631,-558.48 16.631,-558.48 16.631,-178.74 16.631,-134.696 42.7847,-90.408 64.4073,-61.319"/>
<polygon fill="black" stroke="black" points="67.3505,-63.2323 70.6486,-53.1639 61.7916,-58.978 67.3505,-63.2323"/>
</g>
<!-- RR -->
<g id="node19" class="node"><title>RR</title>
<ellipse fill="none" stroke="black" cx="315.631" cy="-701.48" rx="71.4873" ry="18"/>
<text text-anchor="middle" x="315.631" y="-697.78" font-family="Times,serif" font-size="14.00">Required reading</text>
</g>
<!-- GS&#45;&gt;RR -->
<g id="edge5" class="edge"><title>GS&#45;&gt;RR</title>
<path fill="none" stroke="black" d="M188.435,-701.48C203.507,-701.48 218.579,-701.48 233.65,-701.48"/>
<polygon fill="black" stroke="black" points="188.434,-697.98 178.434,-701.48 188.434,-704.98 188.434,-697.98"/>
<polygon fill="black" stroke="black" points="234.085,-704.98 244.085,-701.48 234.085,-697.98 234.085,-704.98"/>
</g>
<!-- ST -->
<g id="node3" class="node"><title>ST</title>
<ellipse fill="none" stroke="black" cx="177.631" cy="-629.48" rx="31.6951" ry="18"/>
<text text-anchor="middle" x="177.631" y="-625.78" font-family="Times,serif" font-size="14.00">start()</text>
</g>
<!-- SU&#45;&gt;ST -->
<g id="edge2" class="edge"><title>SU&#45;&gt;ST</title>
<path fill="none" stroke="black" d="M127.826,-629.48C130.437,-629.48 133.047,-629.48 135.657,-629.48"/>
<polygon fill="black" stroke="black" points="135.725,-632.98 145.725,-629.48 135.725,-625.98 135.725,-632.98"/>
</g>
<!-- MW -->
<g id="node17" class="node"><title>MW</title>
<ellipse fill="none" stroke="black" cx="92.631" cy="-107.74" rx="38.1938" ry="18"/>
<text text-anchor="middle" x="92.631" y="-104.04" font-family="Times,serif" font-size="14.00">While()</text>
</g>
<!-- SU&#45;&gt;MW -->
<g id="edge6" class="edge"><title>SU&#45;&gt;MW</title>
<path fill="none" stroke="black" d="M81.2265,-602.337C70.0336,-574.263 54.631,-528.074 54.631,-486.48 54.631,-486.48 54.631,-486.48 54.631,-250.74 54.631,-209.146 70.0336,-162.957 81.2265,-134.883"/>
<polygon fill="black" stroke="black" points="78.0846,-603.9 85.1234,-611.818 84.5591,-601.238 78.0846,-603.9"/>
<polygon fill="black" stroke="black" points="84.5591,-135.982 85.1234,-125.402 78.0846,-133.321 84.5591,-135.982"/>
</g>
<!-- SC -->
<g id="node5" class="node"><title>SC</title>
<ellipse fill="none" stroke="black" cx="190.631" cy="-557.48" rx="53.8905" ry="18"/>
<text text-anchor="middle" x="190.631" y="-553.78" font-family="Times,serif" font-size="14.00">Source code</text>
</g>
<!-- ST&#45;&gt;SC -->
<g id="edge3" class="edge"><title>ST&#45;&gt;SC</title>
<path fill="none" stroke="black" d="M180.778,-611.535C182.21,-603.826 183.94,-594.507 185.549,-585.844"/>
<polygon fill="black" stroke="black" points="189.038,-586.227 187.423,-575.756 182.156,-584.948 189.038,-586.227"/>
</g>
<!-- ST&#45;&gt;MW -->
<g id="edge23" class="edge"><title>ST&#45;&gt;MW</title>
<path fill="none" stroke="black" d="M161.048,-614.036C150.384,-604.056 136.849,-590.006 127.631,-575.48 104.856,-539.593 92.631,-528.985 92.631,-486.48 92.631,-486.48 92.631,-486.48 92.631,-250.74 92.631,-210.736 92.631,-164.393 92.631,-135.82"/>
<polygon fill="black" stroke="black" points="96.1311,-135.789 92.631,-125.789 89.1311,-135.789 96.1311,-135.789"/>
</g>
<!-- DE -->
<g id="node4" class="node"><title>DE</title>
<ellipse fill="none" stroke="black" cx="294.631" cy="-485.48" rx="37.8943" ry="18"/>
<text text-anchor="middle" x="294.631" y="-481.78" font-family="Times,serif" font-size="14.00">Decode</text>
</g>
<!-- SC&#45;&gt;DE -->
<g id="edge4" class="edge"><title>SC&#45;&gt;DE</title>
<path fill="none" stroke="black" d="M213.454,-541.118C228.589,-530.931 248.6,-517.462 264.967,-506.447"/>
<polygon fill="black" stroke="black" points="267.288,-509.103 273.63,-500.615 263.38,-503.296 267.288,-509.103"/>
</g>
<!-- FN -->
<g id="node6" class="node"><title>FN</title>
<ellipse fill="none" stroke="black" cx="448.631" cy="-485.48" rx="42.4939" ry="18"/>
<text text-anchor="middle" x="448.631" y="-481.78" font-family="Times,serif" font-size="14.00">Function</text>
</g>
<!-- SC&#45;&gt;FN -->
<g id="edge10" class="edge"><title>SC&#45;&gt;FN</title>
<path fill="none" stroke="black" d="M231.227,-545.466C278.259,-532.705 355.498,-511.749 404.13,-498.554"/>
<polygon fill="black" stroke="black" points="405.317,-501.859 414.052,-495.862 403.484,-495.103 405.317,-501.859"/>
</g>
<!-- TR -->
<g id="node8" class="node"><title>TR</title>
<ellipse fill="none" stroke="black" cx="190.631" cy="-485.48" rx="48.1917" ry="18"/>
<text text-anchor="middle" x="190.631" y="-481.78" font-family="Times,serif" font-size="14.00">Transform</text>
</g>
<!-- SC&#45;&gt;TR -->
<g id="edge13" class="edge"><title>SC&#45;&gt;TR</title>
<path fill="none" stroke="black" d="M190.631,-539.177C190.631,-531.463 190.631,-522.193 190.631,-513.593"/>
<polygon fill="black" stroke="black" points="194.131,-513.585 190.631,-503.585 187.131,-513.585 194.131,-513.585"/>
</g>
<!-- EiC -->
<g id="node7" class="node"><title>EiC</title>
<ellipse fill="none" stroke="black" cx="504.631" cy="-413.48" rx="69.5877" ry="18"/>
<text text-anchor="middle" x="504.631" y="-409.78" font-family="Times,serif" font-size="14.00">Exercise in class</text>
</g>
<!-- FN&#45;&gt;EiC -->
<g id="edge11" class="edge"><title>FN&#45;&gt;EiC</title>
<path fill="none" stroke="black" d="M461.619,-468.245C468.417,-459.748 476.89,-449.157 484.514,-439.627"/>
<polygon fill="black" stroke="black" points="487.418,-441.599 490.932,-431.604 481.952,-437.226 487.418,-441.599"/>
</g>
<!-- AP -->
<g id="node11" class="node"><title>AP</title>
<ellipse fill="none" stroke="black" cx="415.631" cy="-332.61" rx="77.5641" ry="26.7407"/>
<text text-anchor="middle" x="415.631" y="-336.41" font-family="Times,serif" font-size="14.00">Reading </text>
<text text-anchor="middle" x="415.631" y="-321.41" font-family="Times,serif" font-size="14.00">Asterisk Painting</text>
</g>
<!-- EiC&#45;&gt;AP -->
<g id="edge15" class="edge"><title>EiC&#45;&gt;AP</title>
<path fill="none" stroke="black" d="M485.756,-395.754C475.543,-386.703 462.598,-375.232 450.618,-364.615"/>
<polygon fill="black" stroke="black" points="452.729,-361.809 442.924,-357.796 448.086,-367.048 452.729,-361.809"/>
</g>
<!-- PP -->
<g id="node9" class="node"><title>PP</title>
<ellipse fill="none" stroke="black" cx="347.631" cy="-413.48" rx="69.5877" ry="18"/>
<text text-anchor="middle" x="347.631" y="-409.78" font-family="Times,serif" font-size="14.00">push() and pop()</text>
</g>
<!-- TR&#45;&gt;PP -->
<g id="edge12" class="edge"><title>TR&#45;&gt;PP</title>
<path fill="none" stroke="black" d="M220.531,-471.149C244.486,-460.468 278.396,-445.349 305.166,-433.414"/>
<polygon fill="black" stroke="black" points="306.601,-436.606 314.309,-429.337 303.75,-430.213 306.601,-436.606"/>
</g>
<!-- EiC2 -->
<g id="node10" class="node"><title>EiC2</title>
<ellipse fill="none" stroke="black" cx="190.631" cy="-413.48" rx="69.5877" ry="18"/>
<text text-anchor="middle" x="190.631" y="-409.78" font-family="Times,serif" font-size="14.00">Exercise in class</text>
</g>
<!-- TR&#45;&gt;EiC2 -->
<g id="edge14" class="edge"><title>TR&#45;&gt;EiC2</title>
<path fill="none" stroke="black" d="M190.631,-467.177C190.631,-459.463 190.631,-450.193 190.631,-441.593"/>
<polygon fill="black" stroke="black" points="194.131,-441.585 190.631,-431.585 187.131,-441.585 194.131,-441.585"/>
</g>
<!-- EiC2&#45;&gt;AP -->
<g id="edge16" class="edge"><title>EiC2&#45;&gt;AP</title>
<path fill="none" stroke="black" d="M230.08,-398.652C263.891,-386.8 313.21,-369.512 352.504,-355.738"/>
<polygon fill="black" stroke="black" points="353.984,-358.928 362.263,-352.317 351.668,-352.323 353.984,-358.928"/>
</g>
<!-- SC2 -->
<g id="node12" class="node"><title>SC2</title>
<ellipse fill="none" stroke="black" cx="415.631" cy="-251.74" rx="53.8905" ry="18"/>
<text text-anchor="middle" x="415.631" y="-248.04" font-family="Times,serif" font-size="14.00">Source code</text>
</g>
<!-- AP&#45;&gt;SC2 -->
<g id="edge17" class="edge"><title>AP&#45;&gt;SC2</title>
<path fill="none" stroke="black" d="M415.631,-305.348C415.631,-297.247 415.631,-288.308 415.631,-280.132"/>
<polygon fill="black" stroke="black" points="419.131,-279.96 415.631,-269.96 412.131,-279.96 419.131,-279.96"/>
</g>
<!-- EiC3 -->
<g id="node13" class="node"><title>EiC3</title>
<ellipse fill="none" stroke="black" cx="475.631" cy="-179.74" rx="69.5877" ry="18"/>
<text text-anchor="middle" x="475.631" y="-176.04" font-family="Times,serif" font-size="14.00">Exercise in class</text>
</g>
<!-- SC2&#45;&gt;EiC3 -->
<g id="edge18" class="edge"><title>SC2&#45;&gt;EiC3</title>
<path fill="none" stroke="black" d="M429.85,-234.151C437.214,-225.56 446.351,-214.9 454.522,-205.368"/>
<polygon fill="black" stroke="black" points="457.247,-207.567 461.097,-197.696 451.932,-203.011 457.247,-207.567"/>
</g>
<!-- AR -->
<g id="node14" class="node"><title>AR</title>
<ellipse fill="none" stroke="black" cx="597.631" cy="-179.74" rx="34.394" ry="18"/>
<text text-anchor="middle" x="597.631" y="-176.04" font-family="Times,serif" font-size="14.00">Arrays</text>
</g>
<!-- SC2&#45;&gt;AR -->
<g id="edge19" class="edge"><title>SC2&#45;&gt;AR</title>
<path fill="none" stroke="black" d="M449.95,-237.788C478.109,-227.128 519,-211.576 554.631,-197.74 556.841,-196.882 559.113,-195.996 561.404,-195.099"/>
<polygon fill="black" stroke="black" points="562.787,-198.316 570.813,-191.401 560.226,-191.801 562.787,-198.316"/>
</g>
<!-- CS -->
<g id="node15" class="node"><title>CS</title>
<ellipse fill="none" stroke="black" cx="212.631" cy="-179.74" rx="92.0841" ry="18"/>
<text text-anchor="middle" x="212.631" y="-176.04" font-family="Times,serif" font-size="14.00">Conditional statements</text>
</g>
<!-- SC2&#45;&gt;CS -->
<g id="edge20" class="edge"><title>SC2&#45;&gt;CS</title>
<path fill="none" stroke="black" d="M379.339,-238.226C347.753,-227.334 301.558,-211.405 265.802,-199.075"/>
<polygon fill="black" stroke="black" points="266.609,-195.651 256.014,-195.7 264.327,-202.269 266.609,-195.651"/>
</g>
<!-- LO -->
<g id="node16" class="node"><title>LO</title>
<ellipse fill="none" stroke="black" cx="355.631" cy="-179.74" rx="32.4942" ry="18"/>
<text text-anchor="middle" x="355.631" y="-176.04" font-family="Times,serif" font-size="14.00">Loops</text>
</g>
<!-- SC2&#45;&gt;LO -->
<g id="edge21" class="edge"><title>SC2&#45;&gt;LO</title>
<path fill="none" stroke="black" d="M401.412,-234.151C393.723,-225.181 384.101,-213.955 375.665,-204.113"/>
<polygon fill="black" stroke="black" points="378.091,-201.566 368.926,-196.251 372.777,-206.121 378.091,-201.566"/>
</g>
<!-- LO&#45;&gt;MW -->
<g id="edge24" class="edge"><title>LO&#45;&gt;MW</title>
<path fill="none" stroke="black" d="M331.022,-167.922C325.377,-165.682 319.351,-163.478 313.631,-161.74 238.485,-138.915 216.263,-146.898 140.631,-125.74 137.523,-124.871 134.326,-123.904 131.128,-122.885"/>
<polygon fill="black" stroke="black" points="132.214,-119.557 121.62,-119.716 130.001,-126.198 132.214,-119.557"/>
</g>
<!-- WL -->
<g id="node22" class="node"><title>WL</title>
<ellipse fill="none" stroke="black" cx="355.631" cy="-107.74" rx="27" ry="18"/>
<text text-anchor="middle" x="355.631" y="-104.04" font-family="Times,serif" font-size="14.00">WL</text>
</g>
<!-- LO&#45;&gt;WL -->
<g id="edge22" class="edge"><title>LO&#45;&gt;WL</title>
<path fill="none" stroke="black" d="M355.631,-161.437C355.631,-153.723 355.631,-144.453 355.631,-135.853"/>
<polygon fill="black" stroke="black" points="359.131,-135.844 355.631,-125.844 352.131,-135.844 359.131,-135.844"/>
</g>
<!-- MW&#45;&gt;MX -->
<g id="edge26" class="edge"><title>MW&#45;&gt;MX</title>
<path fill="none" stroke="black" d="M92.631,-89.6265C92.631,-82.137 92.631,-73.0458 92.631,-64.168"/>
<polygon fill="black" stroke="black" points="96.1311,-63.9529 92.631,-53.953 89.1311,-63.953 96.1311,-63.9529"/>
</g>
<!-- Notes -->
<g id="node21" class="node"><title>Notes</title>
<ellipse fill="none" stroke="black" cx="180.631" cy="-107.74" rx="31.3957" ry="18"/>
<text text-anchor="middle" x="180.631" y="-104.04" font-family="Times,serif" font-size="14.00">Notes</text>
</g>
<!-- MW&#45;&gt;Notes -->
<g id="edge25" class="edge"><title>MW&#45;&gt;Notes</title>
<path fill="none" stroke="black" d="M131.131,-107.74C133.782,-107.74 136.432,-107.74 139.083,-107.74"/>
<polygon fill="black" stroke="black" points="139.307,-111.24 149.307,-107.74 139.307,-104.24 139.307,-111.24"/>
</g>
<!-- RR&#45;&gt;SU -->
<g id="edge9" class="edge"><title>RR&#45;&gt;SU</title>
<path fill="none" stroke="black" d="M268.946,-687.774C232.634,-677.623 181.116,-662.632 136.631,-647.48 134.102,-646.619 131.503,-645.701 128.893,-644.755"/>
<polygon fill="black" stroke="black" points="130.09,-641.466 119.497,-641.256 127.647,-648.026 130.09,-641.466"/>
</g>
<!-- RR&#45;&gt;MX -->
<g id="edge8" class="edge"><title>RR&#45;&gt;MX</title>
<path fill="none" stroke="black" d="M370.139,-689.761C467.137,-669.114 659.631,-620.345 659.631,-558.48 659.631,-558.48 659.631,-558.48 659.631,-178.74 659.631,-83.2692 355.63,-46.7211 192.823,-33.9934"/>
<polygon fill="black" stroke="black" points="193.025,-30.4987 182.787,-33.2249 192.491,-37.4782 193.025,-30.4987"/>
</g>
<!-- FR -->
<g id="node20" class="node"><title>FR</title>
<ellipse fill="none" stroke="black" cx="328.631" cy="-557.48" rx="65.7887" ry="18"/>
<text text-anchor="middle" x="328.631" y="-553.78" font-family="Times,serif" font-size="14.00">Further reading</text>
</g>
<!-- RR&#45;&gt;FR -->
<g id="edge27" class="edge"><title>RR&#45;&gt;FR</title>
<path fill="none" stroke="black" d="M317.199,-683.352C319.415,-659.15 323.485,-614.691 326.123,-585.873"/>
<polygon fill="black" stroke="black" points="329.631,-585.947 327.057,-575.669 322.66,-585.309 329.631,-585.947"/>
</g>
</g>
</svg>
