<?xml version="1.0" encoding="UTF-8" standalone="no"?>
<!DOCTYPE svg PUBLIC "-//W3C//DTD SVG 1.1//EN"
 "http://www.w3.org/Graphics/SVG/1.1/DTD/svg11.dtd">
<!-- Generated by graphviz version 2.38.0 (20140413.2041)
 -->
<!-- Title: G Pages: 1 -->
<svg width="703pt" height="710pt"
 viewBox="0.00 0.00 703.04 709.74" xmlns="http://www.w3.org/2000/svg" xmlns:xlink="http://www.w3.org/1999/xlink">
<g id="graph0" class="graph" transform="scale(1 1) rotate(0) translate(4 705.74)">
<title>G</title>
<polygon fill="white" stroke="none" points="-4,4 -4,-705.74 699.037,-705.74 699.037,4 -4,4"/>
<!-- GS -->
<g id="node1" class="node"><title>GS</title>
<ellipse fill="none" stroke="grey" stroke-width="2" cx="107.494" cy="-683.74" rx="85.5853" ry="18"/>
<text text-anchor="middle" x="107.494" y="-680.04" font-family="Times,serif" font-size="14.00">Ch.3 &#45; Infinite Loops</text>
</g>
<!-- SU -->
<g id="node2" class="node"><title>SU</title>
<ellipse fill="none" stroke="black" cx="107.494" cy="-611.74" rx="35.194" ry="18"/>
<text text-anchor="middle" x="107.494" y="-608.04" font-family="Times,serif" font-size="14.00">setup()</text>
</g>
<!-- GS&#45;&gt;SU -->
<g id="edge1" class="edge"><title>GS&#45;&gt;SU</title>
<path fill="none" stroke="black" d="M107.494,-665.437C107.494,-657.723 107.494,-648.453 107.494,-639.853"/>
<polygon fill="black" stroke="black" points="110.994,-639.844 107.494,-629.844 103.994,-639.844 110.994,-639.844"/>
</g>
<!-- MX -->
<g id="node18" class="node"><title>MX</title>
<ellipse fill="none" stroke="black" cx="98.4937" cy="-314.87" rx="92.7622" ry="26.7407"/>
<text text-anchor="middle" x="98.4937" y="-318.67" font-family="Times,serif" font-size="14.00">MiniX 3: </text>
<text text-anchor="middle" x="98.4937" y="-303.67" font-family="Times,serif" font-size="14.00">Designing a throbber</text>
</g>
<!-- GS&#45;&gt;MX -->
<g id="edge6" class="edge"><title>GS&#45;&gt;MX</title>
<path fill="none" stroke="black" d="M124.922,-666.108C134.156,-656.349 144.918,-643.298 151.494,-629.74 169.145,-593.348 170.494,-581.187 170.494,-540.74 170.494,-540.74 170.494,-540.74 170.494,-466.74 170.494,-423.023 145.566,-378.519 125.046,-349.289"/>
<polygon fill="black" stroke="black" points="127.819,-347.151 119.126,-341.095 122.145,-351.251 127.819,-347.151"/>
</g>
<!-- RR -->
<g id="node19" class="node"><title>RR</title>
<ellipse fill="none" stroke="black" cx="71.4937" cy="-539.74" rx="71.4873" ry="18"/>
<text text-anchor="middle" x="71.4937" y="-536.04" font-family="Times,serif" font-size="14.00">Required reading</text>
</g>
<!-- GS&#45;&gt;RR -->
<g id="edge5" class="edge"><title>GS&#45;&gt;RR</title>
<path fill="none" stroke="black" d="M88.4789,-666.123C79.0095,-656.559 68.5289,-643.688 63.4937,-629.74 56.272,-609.735 59.0793,-585.633 63.2452,-567.558"/>
<polygon fill="black" stroke="black" points="66.6821,-568.247 65.7895,-557.69 59.9038,-566.499 66.6821,-568.247"/>
</g>
<!-- ST -->
<g id="node3" class="node"><title>ST</title>
<ellipse fill="none" stroke="black" cx="230.494" cy="-611.74" rx="31.6951" ry="18"/>
<text text-anchor="middle" x="230.494" y="-608.04" font-family="Times,serif" font-size="14.00">start()</text>
</g>
<!-- SU&#45;&gt;ST -->
<g id="edge2" class="edge"><title>SU&#45;&gt;ST</title>
<path fill="none" stroke="black" d="M143.048,-611.74C158.035,-611.74 173.022,-611.74 188.009,-611.74"/>
<polygon fill="black" stroke="black" points="188.385,-615.24 198.385,-611.74 188.385,-608.24 188.385,-615.24"/>
</g>
<!-- SC -->
<g id="node5" class="node"><title>SC</title>
<ellipse fill="none" stroke="black" cx="376.494" cy="-539.74" rx="55.7903" ry="18"/>
<text text-anchor="middle" x="376.494" y="-536.04" font-family="Times,serif" font-size="14.00">Source Code</text>
</g>
<!-- ST&#45;&gt;SC -->
<g id="edge3" class="edge"><title>ST&#45;&gt;SC</title>
<path fill="none" stroke="black" d="M253.951,-599.493C276.448,-588.707 310.831,-572.222 337.457,-559.456"/>
<polygon fill="black" stroke="black" points="339.015,-562.591 346.519,-555.112 335.988,-556.279 339.015,-562.591"/>
</g>
<!-- MW -->
<g id="node17" class="node"><title>MW</title>
<ellipse fill="none" stroke="black" cx="219.494" cy="-90" rx="38.1938" ry="18"/>
<text text-anchor="middle" x="219.494" y="-86.3" font-family="Times,serif" font-size="14.00">While()</text>
</g>
<!-- ST&#45;&gt;MW -->
<g id="edge21" class="edge"><title>ST&#45;&gt;MW</title>
<path fill="none" stroke="black" d="M228.32,-593.724C225.115,-567.109 219.494,-513.99 219.494,-468.74 219.494,-468.74 219.494,-468.74 219.494,-233 219.494,-192.996 219.494,-146.653 219.494,-118.08"/>
<polygon fill="black" stroke="black" points="222.994,-118.049 219.494,-108.049 215.994,-118.049 222.994,-118.049"/>
</g>
<!-- DE -->
<g id="node4" class="node"><title>DE</title>
<ellipse fill="none" stroke="black" cx="534.494" cy="-467.74" rx="37.8943" ry="18"/>
<text text-anchor="middle" x="534.494" y="-464.04" font-family="Times,serif" font-size="14.00">Decode</text>
</g>
<!-- SC&#45;&gt;DE -->
<g id="edge4" class="edge"><title>SC&#45;&gt;DE</title>
<path fill="none" stroke="black" d="M408.088,-524.743C434.188,-513.179 471.244,-496.762 498.489,-484.691"/>
<polygon fill="black" stroke="black" points="499.958,-487.869 507.683,-480.618 497.122,-481.469 499.958,-487.869"/>
</g>
<!-- FN -->
<g id="node6" class="node"><title>FN</title>
<ellipse fill="none" stroke="black" cx="322.494" cy="-467.74" rx="42.4939" ry="18"/>
<text text-anchor="middle" x="322.494" y="-464.04" font-family="Times,serif" font-size="14.00">Function</text>
</g>
<!-- SC&#45;&gt;FN -->
<g id="edge9" class="edge"><title>SC&#45;&gt;FN</title>
<path fill="none" stroke="black" d="M363.696,-522.151C357.039,-513.521 348.77,-502.802 341.391,-493.237"/>
<polygon fill="black" stroke="black" points="344.078,-490.99 335.199,-485.21 338.536,-495.266 344.078,-490.99"/>
</g>
<!-- TR -->
<g id="node8" class="node"><title>TR</title>
<ellipse fill="none" stroke="black" cx="430.494" cy="-467.74" rx="48.1917" ry="18"/>
<text text-anchor="middle" x="430.494" y="-464.04" font-family="Times,serif" font-size="14.00">Transform</text>
</g>
<!-- SC&#45;&gt;TR -->
<g id="edge11" class="edge"><title>SC&#45;&gt;TR</title>
<path fill="none" stroke="black" d="M389.291,-522.151C395.949,-513.521 404.217,-502.802 411.596,-493.237"/>
<polygon fill="black" stroke="black" points="414.451,-495.266 417.788,-485.21 408.909,-490.99 414.451,-495.266"/>
</g>
<!-- EiC -->
<g id="node7" class="node"><title>EiC</title>
<ellipse fill="none" stroke="black" cx="322.494" cy="-395.74" rx="69.5877" ry="18"/>
<text text-anchor="middle" x="322.494" y="-392.04" font-family="Times,serif" font-size="14.00">Exercise in class</text>
</g>
<!-- FN&#45;&gt;EiC -->
<g id="edge10" class="edge"><title>FN&#45;&gt;EiC</title>
<path fill="none" stroke="black" d="M322.494,-449.437C322.494,-441.723 322.494,-432.453 322.494,-423.853"/>
<polygon fill="black" stroke="black" points="325.994,-423.844 322.494,-413.844 318.994,-423.844 325.994,-423.844"/>
</g>
<!-- AP -->
<g id="node10" class="node"><title>AP</title>
<ellipse fill="none" stroke="black" cx="479.494" cy="-314.87" rx="77.5641" ry="26.7407"/>
<text text-anchor="middle" x="479.494" y="-318.67" font-family="Times,serif" font-size="14.00">Reading </text>
<text text-anchor="middle" x="479.494" y="-303.67" font-family="Times,serif" font-size="14.00">Asterisk Painting</text>
</g>
<!-- EiC&#45;&gt;AP -->
<g id="edge13" class="edge"><title>EiC&#45;&gt;AP</title>
<path fill="none" stroke="black" d="M352.765,-379.533C373.954,-368.889 402.797,-354.399 427.615,-341.932"/>
<polygon fill="black" stroke="black" points="429.189,-345.058 436.554,-337.441 426.047,-338.803 429.189,-345.058"/>
</g>
<!-- EiC2 -->
<g id="node9" class="node"><title>EiC2</title>
<ellipse fill="none" stroke="black" cx="479.494" cy="-395.74" rx="69.5877" ry="18"/>
<text text-anchor="middle" x="479.494" y="-392.04" font-family="Times,serif" font-size="14.00">Exercise in class</text>
</g>
<!-- TR&#45;&gt;EiC2 -->
<g id="edge12" class="edge"><title>TR&#45;&gt;EiC2</title>
<path fill="none" stroke="black" d="M442.106,-450.151C448,-441.732 455.284,-431.325 461.853,-421.941"/>
<polygon fill="black" stroke="black" points="464.757,-423.896 467.624,-413.696 459.022,-419.882 464.757,-423.896"/>
</g>
<!-- EiC2&#45;&gt;AP -->
<g id="edge14" class="edge"><title>EiC2&#45;&gt;AP</title>
<path fill="none" stroke="black" d="M479.494,-377.626C479.494,-370.137 479.494,-361.046 479.494,-352.168"/>
<polygon fill="black" stroke="black" points="482.994,-351.953 479.494,-341.953 475.994,-351.953 482.994,-351.953"/>
</g>
<!-- SC2 -->
<g id="node11" class="node"><title>SC2</title>
<ellipse fill="none" stroke="black" cx="482.494" cy="-234" rx="55.7903" ry="18"/>
<text text-anchor="middle" x="482.494" y="-230.3" font-family="Times,serif" font-size="14.00">Source Code</text>
</g>
<!-- AP&#45;&gt;SC2 -->
<g id="edge15" class="edge"><title>AP&#45;&gt;SC2</title>
<path fill="none" stroke="black" d="M480.493,-287.607C480.801,-279.506 481.141,-270.568 481.452,-262.392"/>
<polygon fill="black" stroke="black" points="484.956,-262.346 481.839,-252.22 477.961,-262.08 484.956,-262.346"/>
</g>
<!-- EiC3 -->
<g id="node12" class="node"><title>EiC3</title>
<ellipse fill="none" stroke="black" cx="625.494" cy="-234" rx="69.5877" ry="18"/>
<text text-anchor="middle" x="625.494" y="-230.3" font-family="Times,serif" font-size="14.00">Exercise in class</text>
</g>
<!-- SC2&#45;&gt;EiC3 -->
<g id="edge16" class="edge"><title>SC2&#45;&gt;EiC3</title>
<path fill="none" stroke="black" d="M538.632,-234C541.066,-234 543.499,-234 545.933,-234"/>
<polygon fill="black" stroke="black" points="545.937,-237.5 555.937,-234 545.937,-230.5 545.937,-237.5"/>
</g>
<!-- AR -->
<g id="node13" class="node"><title>AR</title>
<ellipse fill="none" stroke="black" cx="570.494" cy="-162" rx="34.394" ry="18"/>
<text text-anchor="middle" x="570.494" y="-158.3" font-family="Times,serif" font-size="14.00">Arrays</text>
</g>
<!-- SC2&#45;&gt;AR -->
<g id="edge17" class="edge"><title>SC2&#45;&gt;AR</title>
<path fill="none" stroke="black" d="M502.462,-217.116C514.893,-207.228 531.014,-194.404 544.443,-183.722"/>
<polygon fill="black" stroke="black" points="546.753,-186.357 552.4,-177.393 542.395,-180.879 546.753,-186.357"/>
</g>
<!-- CS -->
<g id="node14" class="node"><title>CS</title>
<ellipse fill="none" stroke="black" cx="341.494" cy="-162" rx="93.6835" ry="18"/>
<text text-anchor="middle" x="341.494" y="-158.3" font-family="Times,serif" font-size="14.00">Conditional Statements</text>
</g>
<!-- SC2&#45;&gt;CS -->
<g id="edge18" class="edge"><title>SC2&#45;&gt;CS</title>
<path fill="none" stroke="black" d="M453.278,-218.496C432.86,-208.359 405.309,-194.681 382.668,-183.441"/>
<polygon fill="black" stroke="black" points="384.134,-180.262 373.621,-178.95 381.022,-186.531 384.134,-180.262"/>
</g>
<!-- LO -->
<g id="node15" class="node"><title>LO</title>
<ellipse fill="none" stroke="black" cx="485.494" cy="-162" rx="32.4942" ry="18"/>
<text text-anchor="middle" x="485.494" y="-158.3" font-family="Times,serif" font-size="14.00">Loops</text>
</g>
<!-- SC2&#45;&gt;LO -->
<g id="edge19" class="edge"><title>SC2&#45;&gt;LO</title>
<path fill="none" stroke="black" d="M483.235,-215.697C483.566,-207.983 483.963,-198.712 484.332,-190.112"/>
<polygon fill="black" stroke="black" points="487.829,-190.245 484.761,-180.104 480.836,-189.945 487.829,-190.245"/>
</g>
<!-- WL -->
<g id="node16" class="node"><title>WL</title>
<ellipse fill="none" stroke="black" cx="485.494" cy="-90" rx="53.8905" ry="18"/>
<text text-anchor="middle" x="485.494" y="-86.3" font-family="Times,serif" font-size="14.00">While Loop</text>
</g>
<!-- LO&#45;&gt;WL -->
<g id="edge20" class="edge"><title>LO&#45;&gt;WL</title>
<path fill="none" stroke="black" d="M485.494,-143.697C485.494,-135.983 485.494,-126.712 485.494,-118.112"/>
<polygon fill="black" stroke="black" points="488.994,-118.104 485.494,-108.104 481.994,-118.104 488.994,-118.104"/>
</g>
<!-- LO&#45;&gt;MW -->
<g id="edge22" class="edge"><title>LO&#45;&gt;MW</title>
<path fill="none" stroke="black" d="M461.019,-150.096C455.635,-147.911 449.92,-145.751 444.494,-144 383.245,-124.232 310.436,-108.432 264.587,-99.3863"/>
<polygon fill="black" stroke="black" points="265.149,-95.9299 254.664,-97.451 263.809,-102.8 265.149,-95.9299"/>
</g>
<!-- MW&#45;&gt;MX -->
<g id="edge24" class="edge"><title>MW&#45;&gt;MX</title>
<path fill="none" stroke="black" d="M210.44,-107.677C190.792,-143.865 143.893,-230.25 117.455,-278.946"/>
<polygon fill="black" stroke="black" points="114.306,-277.41 112.611,-287.868 120.458,-280.75 114.306,-277.41"/>
</g>
<!-- Notes -->
<g id="node20" class="node"><title>Notes</title>
<ellipse fill="none" stroke="black" cx="219.494" cy="-18" rx="31.3957" ry="18"/>
<text text-anchor="middle" x="219.494" y="-14.3" font-family="Times,serif" font-size="14.00">Notes</text>
</g>
<!-- MW&#45;&gt;Notes -->
<g id="edge23" class="edge"><title>MW&#45;&gt;Notes</title>
<path fill="none" stroke="black" d="M219.494,-71.6966C219.494,-63.9827 219.494,-54.7125 219.494,-46.1124"/>
<polygon fill="black" stroke="black" points="222.994,-46.1043 219.494,-36.1043 215.994,-46.1044 222.994,-46.1043"/>
</g>
<!-- RR&#45;&gt;SU -->
<g id="edge8" class="edge"><title>RR&#45;&gt;SU</title>
<path fill="none" stroke="black" d="M80.214,-557.696C84.4398,-565.913 89.6049,-575.956 94.2994,-585.085"/>
<polygon fill="black" stroke="black" points="91.2761,-586.859 98.9622,-594.151 97.5011,-583.657 91.2761,-586.859"/>
</g>
<!-- RR&#45;&gt;MX -->
<g id="edge7" class="edge"><title>RR&#45;&gt;MX</title>
<path fill="none" stroke="black" d="M73.5675,-521.622C77.9506,-485.442 88.2365,-400.537 94.1341,-351.856"/>
<polygon fill="black" stroke="black" points="97.6292,-352.107 95.3573,-341.759 90.68,-351.265 97.6292,-352.107"/>
</g>
</g>
</svg>
