<?xml version="1.0" encoding="UTF-8" standalone="no"?>
<!DOCTYPE svg PUBLIC "-//W3C//DTD SVG 1.1//EN"
 "http://www.w3.org/Graphics/SVG/1.1/DTD/svg11.dtd">
<!-- Generated by graphviz version 2.38.0 (20140413.2041)
 -->
<!-- Title: G Pages: 1 -->
<svg width="901pt" height="583pt"
 viewBox="0.00 0.00 900.67 583.48" xmlns="http://www.w3.org/2000/svg" xmlns:xlink="http://www.w3.org/1999/xlink">
<g id="graph0" class="graph" transform="scale(1 1) rotate(0) translate(4 579.48)">
<title>G</title>
<polygon fill="white" stroke="none" points="-4,4 -4,-579.48 896.672,-579.48 896.672,4 -4,4"/>
<!-- GS -->
<g id="node1" class="node"><title>GS</title>
<ellipse fill="none" stroke="grey" stroke-width="2" cx="749.74" cy="-557.48" rx="82.5854" ry="18"/>
<text text-anchor="middle" x="749.74" y="-553.78" font-family="Times,serif" font-size="14.00">Ch.4 &#45; Data Capture</text>
</g>
<!-- SU -->
<g id="node2" class="node"><title>SU</title>
<ellipse fill="none" stroke="black" cx="654.74" cy="-413.48" rx="35.194" ry="18"/>
<text text-anchor="middle" x="654.74" y="-409.78" font-family="Times,serif" font-size="14.00">setup()</text>
</g>
<!-- GS&#45;&gt;SU -->
<g id="edge1" class="edge"><title>GS&#45;&gt;SU</title>
<path fill="none" stroke="black" d="M713.991,-541.028C697.985,-532.299 680.362,-519.824 669.74,-503.48 657.891,-485.249 654.48,-460.632 653.841,-441.909"/>
<polygon fill="black" stroke="black" points="657.339,-441.625 653.742,-431.659 650.339,-441.693 657.339,-441.625"/>
</g>
<!-- MX -->
<g id="node19" class="node"><title>MX</title>
<ellipse fill="none" stroke="black" cx="829.74" cy="-98.8701" rx="62.8651" ry="26.7407"/>
<text text-anchor="middle" x="829.74" y="-102.67" font-family="Times,serif" font-size="14.00">MiniX 4: </text>
<text text-anchor="middle" x="829.74" y="-87.6701" font-family="Times,serif" font-size="14.00">Capture ALL</text>
</g>
<!-- GS&#45;&gt;MX -->
<g id="edge6" class="edge"><title>GS&#45;&gt;MX</title>
<path fill="none" stroke="black" d="M784.769,-541.045C800.81,-532.258 818.672,-519.728 829.74,-503.48 852.511,-470.052 848.74,-454.927 848.74,-414.48 848.74,-414.48 848.74,-414.48 848.74,-250.74 848.74,-211.303 842.27,-166.518 836.881,-136.055"/>
<polygon fill="black" stroke="black" points="840.269,-135.12 835.032,-125.91 833.382,-136.375 840.269,-135.12"/>
</g>
<!-- RR -->
<g id="node20" class="node"><title>RR</title>
<ellipse fill="none" stroke="black" cx="749.74" cy="-485.48" rx="71.4873" ry="18"/>
<text text-anchor="middle" x="749.74" y="-481.78" font-family="Times,serif" font-size="14.00">Required reading</text>
</g>
<!-- GS&#45;&gt;RR -->
<g id="edge5" class="edge"><title>GS&#45;&gt;RR</title>
<path fill="none" stroke="black" d="M749.74,-539.177C749.74,-531.463 749.74,-522.193 749.74,-513.593"/>
<polygon fill="black" stroke="black" points="753.24,-513.585 749.74,-503.585 746.24,-513.585 753.24,-513.585"/>
</g>
<!-- ST -->
<g id="node3" class="node"><title>ST</title>
<ellipse fill="none" stroke="black" cx="739.74" cy="-413.48" rx="31.6951" ry="18"/>
<text text-anchor="middle" x="739.74" y="-409.78" font-family="Times,serif" font-size="14.00">start()</text>
</g>
<!-- SU&#45;&gt;ST -->
<g id="edge2" class="edge"><title>SU&#45;&gt;ST</title>
<path fill="none" stroke="black" d="M689.935,-413.48C692.545,-413.48 695.156,-413.48 697.766,-413.48"/>
<polygon fill="black" stroke="black" points="697.834,-416.98 707.834,-413.48 697.834,-409.98 697.834,-416.98"/>
</g>
<!-- DE -->
<g id="node4" class="node"><title>DE</title>
<ellipse fill="none" stroke="black" cx="572.74" cy="-332.61" rx="81.135" ry="26.7407"/>
<text text-anchor="middle" x="572.74" y="-336.41" font-family="Times,serif" font-size="14.00">Exercise in class: </text>
<text text-anchor="middle" x="572.74" y="-321.41" font-family="Times,serif" font-size="14.00">Decode</text>
</g>
<!-- ST&#45;&gt;DE -->
<g id="edge3" class="edge"><title>ST&#45;&gt;DE</title>
<path fill="none" stroke="black" d="M716.167,-401.347C693.19,-390.496 657.416,-373.601 627.345,-359.399"/>
<polygon fill="black" stroke="black" points="628.754,-356.193 618.217,-355.088 625.764,-362.523 628.754,-356.193"/>
</g>
<!-- MW -->
<g id="node18" class="node"><title>MW</title>
<ellipse fill="none" stroke="black" cx="728.74" cy="-179.74" rx="38.1938" ry="18"/>
<text text-anchor="middle" x="728.74" y="-176.04" font-family="Times,serif" font-size="14.00">While()</text>
</g>
<!-- ST&#45;&gt;MW -->
<g id="edge25" class="edge"><title>ST&#45;&gt;MW</title>
<path fill="none" stroke="black" d="M739.046,-395.472C737.734,-363.695 734.751,-293.148 731.74,-233.74 731.318,-225.42 730.82,-216.368 730.353,-208.138"/>
<polygon fill="black" stroke="black" points="733.834,-207.705 729.764,-197.923 726.845,-208.108 733.834,-207.705"/>
</g>
<!-- SC -->
<g id="node5" class="node"><title>SC</title>
<ellipse fill="none" stroke="black" cx="382.74" cy="-332.61" rx="55.7903" ry="18"/>
<text text-anchor="middle" x="382.74" y="-328.91" font-family="Times,serif" font-size="14.00">Source Code</text>
</g>
<!-- DE&#45;&gt;SC -->
<g id="edge4" class="edge"><title>DE&#45;&gt;SC</title>
<path fill="none" stroke="black" d="M491.367,-332.61C477.26,-332.61 463.153,-332.61 449.047,-332.61"/>
<polygon fill="black" stroke="black" points="448.775,-329.11 438.775,-332.61 448.775,-336.11 448.775,-329.11"/>
</g>
<!-- DOM -->
<g id="node6" class="node"><title>DOM</title>
<ellipse fill="none" stroke="black" cx="347.74" cy="-251.74" rx="65.7887" ry="18"/>
<text text-anchor="middle" x="347.74" y="-248.04" font-family="Times,serif" font-size="14.00">DOM elements</text>
</g>
<!-- SC&#45;&gt;DOM -->
<g id="edge9" class="edge"><title>SC&#45;&gt;DOM</title>
<path fill="none" stroke="black" d="M375.145,-314.497C370.559,-304.161 364.619,-290.776 359.442,-279.11"/>
<polygon fill="black" stroke="black" points="362.575,-277.541 355.32,-269.82 356.177,-280.38 362.575,-277.541"/>
</g>
<!-- MC -->
<g id="node7" class="node"><title>MC</title>
<ellipse fill="none" stroke="black" cx="494.74" cy="-251.74" rx="63.8893" ry="18"/>
<text text-anchor="middle" x="494.74" y="-248.04" font-family="Times,serif" font-size="14.00">Mouse capture</text>
</g>
<!-- SC&#45;&gt;MC -->
<g id="edge10" class="edge"><title>SC&#45;&gt;MC</title>
<path fill="none" stroke="black" d="M404.868,-316.028C421.674,-304.193 445,-287.767 463.676,-274.615"/>
<polygon fill="black" stroke="black" points="465.728,-277.451 471.889,-268.831 461.698,-271.727 465.728,-277.451"/>
</g>
<!-- KC -->
<g id="node8" class="node"><title>KC</title>
<ellipse fill="none" stroke="black" cx="649.74" cy="-251.74" rx="73.387" ry="18"/>
<text text-anchor="middle" x="649.74" y="-248.04" font-family="Times,serif" font-size="14.00">Keyboard capture</text>
</g>
<!-- SC&#45;&gt;KC -->
<g id="edge11" class="edge"><title>SC&#45;&gt;KC</title>
<path fill="none" stroke="black" d="M422.424,-319.888C468.143,-306.383 543.544,-284.11 594.863,-268.95"/>
<polygon fill="black" stroke="black" points="595.872,-272.302 604.471,-266.112 593.889,-265.589 595.872,-272.302"/>
</g>
<!-- AC -->
<g id="node9" class="node"><title>AC</title>
<ellipse fill="none" stroke="black" cx="76.7399" cy="-251.74" rx="61.1893" ry="18"/>
<text text-anchor="middle" x="76.7399" y="-248.04" font-family="Times,serif" font-size="14.00">Audio capture</text>
</g>
<!-- SC&#45;&gt;AC -->
<g id="edge12" class="edge"><title>SC&#45;&gt;AC</title>
<path fill="none" stroke="black" d="M340.513,-320.726C285.958,-306.665 190.903,-282.165 131.033,-266.734"/>
<polygon fill="black" stroke="black" points="131.567,-263.257 121.01,-264.151 129.82,-270.036 131.567,-263.257"/>
</g>
<!-- FT -->
<g id="node10" class="node"><title>FT</title>
<ellipse fill="none" stroke="black" cx="209.74" cy="-251.74" rx="53.8905" ry="18"/>
<text text-anchor="middle" x="209.74" y="-248.04" font-family="Times,serif" font-size="14.00">Face tracker</text>
</g>
<!-- SC&#45;&gt;FT -->
<g id="edge13" class="edge"><title>SC&#45;&gt;FT</title>
<path fill="none" stroke="black" d="M351.811,-317.51C323.274,-304.5 280.743,-285.11 249.654,-270.937"/>
<polygon fill="black" stroke="black" points="250.952,-267.682 240.401,-266.718 248.048,-274.051 250.952,-267.682"/>
</g>
<!-- EiC -->
<g id="node11" class="node"><title>EiC</title>
<ellipse fill="none" stroke="black" cx="404.74" cy="-179.74" rx="69.5877" ry="18"/>
<text text-anchor="middle" x="404.74" y="-176.04" font-family="Times,serif" font-size="14.00">Exercise in class</text>
</g>
<!-- DOM&#45;&gt;EiC -->
<g id="edge14" class="edge"><title>DOM&#45;&gt;EiC</title>
<path fill="none" stroke="black" d="M361.538,-233.795C368.469,-225.283 376.999,-214.808 384.642,-205.422"/>
<polygon fill="black" stroke="black" points="387.469,-207.494 391.069,-197.529 382.041,-203.073 387.469,-207.494"/>
</g>
<!-- MC&#45;&gt;EiC -->
<g id="edge15" class="edge"><title>MC&#45;&gt;EiC</title>
<path fill="none" stroke="black" d="M473.866,-234.505C462.024,-225.294 447.017,-213.623 434.015,-203.509"/>
<polygon fill="black" stroke="black" points="435.855,-200.507 425.812,-197.13 431.557,-206.032 435.855,-200.507"/>
</g>
<!-- KC&#45;&gt;EiC -->
<g id="edge16" class="edge"><title>KC&#45;&gt;EiC</title>
<path fill="none" stroke="black" d="M603.945,-237.656C562.956,-225.945 502.796,-208.756 459.322,-196.335"/>
<polygon fill="black" stroke="black" points="460.06,-192.906 449.484,-193.524 458.137,-199.637 460.06,-192.906"/>
</g>
<!-- AC&#45;&gt;EiC -->
<g id="edge17" class="edge"><title>AC&#45;&gt;EiC</title>
<path fill="none" stroke="black" d="M121.871,-239.53C130.132,-237.549 138.686,-235.545 146.74,-233.74 212.625,-218.977 288.338,-203.613 340.624,-193.251"/>
<polygon fill="black" stroke="black" points="341.627,-196.621 350.759,-191.247 340.27,-189.754 341.627,-196.621"/>
</g>
<!-- FT&#45;&gt;EiC -->
<g id="edge18" class="edge"><title>FT&#45;&gt;EiC</title>
<path fill="none" stroke="black" d="M245.053,-238.064C276.153,-226.9 321.74,-210.535 356.253,-198.146"/>
<polygon fill="black" stroke="black" points="357.443,-201.437 365.672,-194.764 355.078,-194.849 357.443,-201.437"/>
</g>
<!-- CC -->
<g id="node12" class="node"><title>CC</title>
<ellipse fill="none" stroke="black" cx="458.74" cy="-98.8701" rx="96.3833" ry="18"/>
<text text-anchor="middle" x="458.74" y="-95.1701" font-family="Times,serif" font-size="14.00">The Concept of Capture</text>
</g>
<!-- EiC&#45;&gt;CC -->
<g id="edge19" class="edge"><title>EiC&#45;&gt;CC</title>
<path fill="none" stroke="black" d="M416.457,-161.626C423.675,-151.085 433.065,-137.369 441.163,-125.542"/>
<polygon fill="black" stroke="black" points="444.284,-127.179 447.046,-116.95 438.508,-123.224 444.284,-127.179"/>
</g>
<!-- WA -->
<g id="node13" class="node"><title>WA</title>
<ellipse fill="none" stroke="black" cx="113.74" cy="-18" rx="113.98" ry="18"/>
<text text-anchor="middle" x="113.74" y="-14.3" font-family="Times,serif" font-size="14.00">Web Analytics and Heatmap</text>
</g>
<!-- CC&#45;&gt;WA -->
<g id="edge20" class="edge"><title>CC&#45;&gt;WA</title>
<path fill="none" stroke="black" d="M400.215,-84.4908C340.999,-70.9535 249.349,-50.0015 185.722,-35.4557"/>
<polygon fill="black" stroke="black" points="186.288,-31.995 175.76,-33.1783 184.728,-38.8189 186.288,-31.995"/>
</g>
<!-- FE -->
<g id="node14" class="node"><title>FE</title>
<ellipse fill="none" stroke="black" cx="309.74" cy="-18" rx="64.189" ry="18"/>
<text text-anchor="middle" x="309.74" y="-14.3" font-family="Times,serif" font-size="14.00">Form elements</text>
</g>
<!-- CC&#45;&gt;FE -->
<g id="edge21" class="edge"><title>CC&#45;&gt;FE</title>
<path fill="none" stroke="black" d="M428.228,-81.7192C404.797,-69.3165 372.322,-52.1265 347.295,-38.8789"/>
<polygon fill="black" stroke="black" points="348.917,-35.7777 338.442,-34.1927 345.642,-41.9644 348.917,-35.7777"/>
</g>
<!-- ML -->
<g id="node15" class="node"><title>ML</title>
<ellipse fill="none" stroke="black" cx="458.74" cy="-18" rx="66.8882" ry="18"/>
<text text-anchor="middle" x="458.74" y="-14.3" font-family="Times,serif" font-size="14.00">Metrics of likes</text>
</g>
<!-- CC&#45;&gt;ML -->
<g id="edge22" class="edge"><title>CC&#45;&gt;ML</title>
<path fill="none" stroke="black" d="M458.74,-80.7564C458.74,-70.7312 458.74,-57.8362 458.74,-46.4246"/>
<polygon fill="black" stroke="black" points="462.24,-46.0802 458.74,-36.0802 455.24,-46.0803 462.24,-46.0802"/>
</g>
<!-- VD -->
<g id="node16" class="node"><title>VD</title>
<ellipse fill="none" stroke="black" cx="629.74" cy="-18" rx="85.5853" ry="18"/>
<text text-anchor="middle" x="629.74" y="-14.3" font-family="Times,serif" font-size="14.00">Voice and audio data</text>
</g>
<!-- CC&#45;&gt;VD -->
<g id="edge23" class="edge"><title>CC&#45;&gt;VD</title>
<path fill="none" stroke="black" d="M493.344,-81.9095C520.174,-69.5348 557.517,-52.3112 586.347,-39.0139"/>
<polygon fill="black" stroke="black" points="588.156,-42.0342 595.771,-34.6676 585.224,-35.6777 588.156,-42.0342"/>
</g>
<!-- HT -->
<g id="node17" class="node"><title>HT</title>
<ellipse fill="none" stroke="black" cx="794.74" cy="-18" rx="61.1893" ry="18"/>
<text text-anchor="middle" x="794.74" y="-14.3" font-family="Times,serif" font-size="14.00">Health tracker</text>
</g>
<!-- CC&#45;&gt;HT -->
<g id="edge24" class="edge"><title>CC&#45;&gt;HT</title>
<path fill="none" stroke="black" d="M516.895,-84.5147C570.81,-72.0924 653.242,-52.9965 724.74,-36 729.436,-34.8837 734.306,-33.7177 739.193,-32.5422"/>
<polygon fill="black" stroke="black" points="740.294,-35.8771 749.194,-30.1291 738.652,-29.0724 740.294,-35.8771"/>
</g>
<!-- CC&#45;&gt;MW -->
<g id="edge26" class="edge"><title>CC&#45;&gt;MW</title>
<path fill="none" stroke="black" d="M508.219,-114.323C559.567,-129.323 638.976,-152.519 687.182,-166.601"/>
<polygon fill="black" stroke="black" points="686.393,-170.016 696.974,-169.461 688.356,-163.297 686.393,-170.016"/>
</g>
<!-- MW&#45;&gt;MX -->
<g id="edge28" class="edge"><title>MW&#45;&gt;MX</title>
<path fill="none" stroke="black" d="M747.737,-163.905C760.273,-154.116 777.121,-140.96 792.284,-129.119"/>
<polygon fill="black" stroke="black" points="794.769,-131.619 800.497,-122.706 790.461,-126.102 794.769,-131.619"/>
</g>
<!-- Notes -->
<g id="node21" class="node"><title>Notes</title>
<ellipse fill="none" stroke="black" cx="717.74" cy="-98.8701" rx="31.3957" ry="18"/>
<text text-anchor="middle" x="717.74" y="-95.1701" font-family="Times,serif" font-size="14.00">Notes</text>
</g>
<!-- MW&#45;&gt;Notes -->
<g id="edge27" class="edge"><title>MW&#45;&gt;Notes</title>
<path fill="none" stroke="black" d="M726.353,-161.626C724.94,-151.498 723.119,-138.44 721.516,-126.942"/>
<polygon fill="black" stroke="black" points="724.97,-126.371 720.122,-116.95 718.037,-127.338 724.97,-126.371"/>
</g>
<!-- RR&#45;&gt;SU -->
<g id="edge8" class="edge"><title>RR&#45;&gt;SU</title>
<path fill="none" stroke="black" d="M727.706,-468.245C714.144,-458.251 696.648,-445.36 682.189,-434.706"/>
<polygon fill="black" stroke="black" points="684.206,-431.844 674.079,-428.73 680.053,-437.48 684.206,-431.844"/>
</g>
<!-- RR&#45;&gt;MX -->
<g id="edge7" class="edge"><title>RR&#45;&gt;MX</title>
<path fill="none" stroke="black" d="M761.307,-467.428C767.746,-457.327 775.496,-444.077 780.74,-431.48 798.036,-389.93 806.74,-378.617 806.74,-333.61 806.74,-333.61 806.74,-333.61 806.74,-250.74 806.74,-211.16 814.572,-166.398 821.095,-135.981"/>
<polygon fill="black" stroke="black" points="824.593,-136.372 823.333,-125.852 817.758,-134.861 824.593,-136.372"/>
</g>
</g>
</svg>
