<?xml version="1.0" encoding="UTF-8" standalone="no"?>
<!DOCTYPE svg PUBLIC "-//W3C//DTD SVG 1.1//EN"
 "http://www.w3.org/Graphics/SVG/1.1/DTD/svg11.dtd">
<!-- Generated by graphviz version 2.44.1 (0)
 -->
<!-- Title: G Pages: 1 -->
<svg width="1167pt" height="673pt"
 viewBox="0.00 0.00 1166.76 673.22" xmlns="http://www.w3.org/2000/svg" xmlns:xlink="http://www.w3.org/1999/xlink">
<g id="graph0" class="graph" transform="scale(1 1) rotate(0) translate(4 669.22)">
<title>G</title>
<polygon fill="white" stroke="transparent" points="-4,4 -4,-669.22 1162.76,-669.22 1162.76,4 -4,4"/>
<!-- GS -->
<g id="node1" class="node">
<title>GS</title>
<polygon fill="none" stroke="black" points="1052.09,-665.22 933.09,-665.22 933.09,-629.22 1052.09,-629.22 1052.09,-665.22"/>
<text text-anchor="middle" x="992.59" y="-643.52" font-family="Hershey-Noailles-help-me" font-size="14.00">4. Data capture</text>
</g>
<!-- SU -->
<g id="node2" class="node">
<title>SU</title>
<ellipse fill="none" stroke="black" cx="900.59" cy="-575.22" rx="44.39" ry="18"/>
<text text-anchor="middle" x="900.59" y="-571.52" font-family="Hershey-Noailles-help-me" font-size="14.00">setup()</text>
</g>
<!-- GS&#45;&gt;SU -->
<g id="edge1" class="edge">
<title>GS&#45;&gt;SU</title>
<path fill="none" stroke="black" d="M969.85,-628.92C957.45,-619.48 942,-607.73 928.83,-597.71"/>
<polygon fill="black" stroke="black" points="930.65,-594.69 920.57,-591.42 926.41,-600.26 930.65,-594.69"/>
</g>
<!-- MX -->
<g id="node19" class="node">
<title>MX</title>
<ellipse fill="none" stroke="black" cx="1091.59" cy="-98.87" rx="67.35" ry="26.74"/>
<text text-anchor="middle" x="1091.59" y="-102.67" font-family="Hershey-Noailles-help-me" font-size="14.00">MiniX: </text>
<text text-anchor="middle" x="1091.59" y="-87.67" font-family="Hershey-Noailles-help-me" font-size="14.00">Capture ALL</text>
</g>
<!-- GS&#45;&gt;MX -->
<g id="edge8" class="edge">
<title>GS&#45;&gt;MX</title>
<path fill="none" stroke="black" d="M1027.87,-629.03C1068.46,-606.48 1129.59,-562.8 1129.59,-504.22 1129.59,-504.22 1129.59,-504.22 1129.59,-268.48 1129.59,-220.63 1127.44,-208.1 1115.59,-161.74 1113.33,-152.9 1110.17,-143.61 1106.89,-134.99"/>
<polygon fill="black" stroke="black" points="1110.1,-133.61 1103.16,-125.61 1103.6,-136.19 1110.1,-133.61"/>
</g>
<!-- RR -->
<g id="node20" class="node">
<title>RR</title>
<ellipse fill="none" stroke="black" cx="992.59" cy="-422.35" rx="85.29" ry="18"/>
<text text-anchor="middle" x="992.59" y="-418.65" font-family="Hershey-Noailles-help-me" font-size="14.00">Required reading</text>
</g>
<!-- GS&#45;&gt;RR -->
<g id="edge6" class="edge">
<title>GS&#45;&gt;RR</title>
<path fill="none" stroke="black" d="M992.59,-618.86C992.59,-576.03 992.59,-493.63 992.59,-450.77"/>
<polygon fill="black" stroke="black" points="989.09,-619.1 992.59,-629.1 996.09,-619.1 989.09,-619.1"/>
<polygon fill="black" stroke="black" points="996.09,-450.53 992.59,-440.53 989.09,-450.53 996.09,-450.53"/>
</g>
<!-- ST -->
<g id="node3" class="node">
<title>ST</title>
<ellipse fill="none" stroke="black" cx="811.59" cy="-503.22" rx="40.09" ry="18"/>
<text text-anchor="middle" x="811.59" y="-499.52" font-family="Hershey-Noailles-help-me" font-size="14.00">start()</text>
</g>
<!-- SU&#45;&gt;ST -->
<g id="edge2" class="edge">
<title>SU&#45;&gt;ST</title>
<path fill="none" stroke="black" d="M880.84,-558.69C868.45,-548.95 852.32,-536.26 838.74,-525.58"/>
<polygon fill="black" stroke="black" points="840.7,-522.66 830.67,-519.23 836.37,-528.16 840.7,-522.66"/>
</g>
<!-- MW -->
<g id="node18" class="node">
<title>MW</title>
<ellipse fill="none" stroke="black" cx="860.59" cy="-188.61" rx="42.49" ry="18"/>
<text text-anchor="middle" x="860.59" y="-184.91" font-family="Hershey-Noailles-help-me" font-size="14.00">While()</text>
</g>
<!-- SU&#45;&gt;MW -->
<g id="edge7" class="edge">
<title>SU&#45;&gt;MW</title>
<path fill="none" stroke="black" d="M894.49,-546.99C888.29,-516.9 879.59,-466.92 879.59,-423.35 879.59,-423.35 879.59,-423.35 879.59,-340.48 879.59,-296.98 871.72,-246.98 866.11,-216.86"/>
<polygon fill="black" stroke="black" points="891.14,-548.08 896.64,-557.13 897.99,-546.62 891.14,-548.08"/>
<polygon fill="black" stroke="black" points="869.48,-215.88 864.16,-206.72 862.61,-217.2 869.48,-215.88"/>
</g>
<!-- DE -->
<g id="node4" class="node">
<title>DE</title>
<ellipse fill="none" stroke="black" cx="473.59" cy="-422.35" rx="96.33" ry="26.74"/>
<text text-anchor="middle" x="473.59" y="-426.15" font-family="Hershey-Noailles-help-me" font-size="14.00">Exercise in class: </text>
<text text-anchor="middle" x="473.59" y="-411.15" font-family="Hershey-Noailles-help-me" font-size="14.00">Decode</text>
</g>
<!-- ST&#45;&gt;DE -->
<g id="edge3" class="edge">
<title>ST&#45;&gt;DE</title>
<path fill="none" stroke="black" d="M776.69,-494.08C724.9,-481.99 626.21,-458.96 555.51,-442.47"/>
<polygon fill="black" stroke="black" points="556.26,-439.05 545.72,-440.18 554.67,-445.86 556.26,-439.05"/>
</g>
<!-- ST&#45;&gt;MW -->
<g id="edge27" class="edge">
<title>ST&#45;&gt;MW</title>
<path fill="none" stroke="black" d="M814.29,-484.97C822.39,-433.3 846.49,-279.52 856.33,-216.75"/>
<polygon fill="black" stroke="black" points="859.8,-217.23 857.89,-206.81 852.89,-216.15 859.8,-217.23"/>
</g>
<!-- SC -->
<g id="node5" class="node">
<title>SC</title>
<ellipse fill="none" stroke="black" cx="473.59" cy="-341.48" rx="65.79" ry="18"/>
<text text-anchor="middle" x="473.59" y="-337.78" font-family="Hershey-Noailles-help-me" font-size="14.00">Source code</text>
</g>
<!-- DE&#45;&gt;SC -->
<g id="edge4" class="edge">
<title>DE&#45;&gt;SC</title>
<path fill="none" stroke="black" d="M467.21,-395.53C466.74,-387.31 466.72,-378.2 467.13,-369.88"/>
<polygon fill="black" stroke="black" points="470.62,-370.13 467.88,-359.89 463.64,-369.6 470.62,-370.13"/>
</g>
<!-- SC&#45;&gt;DE -->
<g id="edge5" class="edge">
<title>SC&#45;&gt;DE</title>
<path fill="none" stroke="black" d="M479.3,-359.89C480.09,-367.41 480.43,-376.49 480.32,-385.35"/>
<polygon fill="black" stroke="black" points="476.81,-385.41 479.97,-395.53 483.81,-385.65 476.81,-385.41"/>
</g>
<!-- DOM -->
<g id="node6" class="node">
<title>DOM</title>
<ellipse fill="none" stroke="black" cx="204.59" cy="-188.61" rx="152.97" ry="26.74"/>
<text text-anchor="middle" x="204.59" y="-192.41" font-family="Hershey-Noailles-help-me" font-size="14.00">DOM elements:</text>
<text text-anchor="middle" x="204.59" y="-177.41" font-family="Hershey-Noailles-help-me" font-size="14.00"> creating and styling a button</text>
</g>
<!-- SC&#45;&gt;DOM -->
<g id="edge11" class="edge">
<title>SC&#45;&gt;DOM</title>
<path fill="none" stroke="black" d="M408.36,-339.32C323.95,-336.29 183.85,-325.49 151.59,-287.48 135.07,-268.02 149.72,-242.58 167.76,-222.51"/>
<polygon fill="black" stroke="black" points="170.44,-224.77 174.79,-215.11 165.36,-219.95 170.44,-224.77"/>
</g>
<!-- MC -->
<g id="node7" class="node">
<title>MC</title>
<ellipse fill="none" stroke="black" cx="382.59" cy="-269.48" rx="75.29" ry="18"/>
<text text-anchor="middle" x="382.59" y="-265.78" font-family="Hershey-Noailles-help-me" font-size="14.00">Mouse capture</text>
</g>
<!-- SC&#45;&gt;MC -->
<g id="edge12" class="edge">
<title>SC&#45;&gt;MC</title>
<path fill="none" stroke="black" d="M452.48,-324.24C440.51,-315.03 425.34,-303.36 412.19,-293.25"/>
<polygon fill="black" stroke="black" points="413.96,-290.19 403.89,-286.87 409.69,-295.74 413.96,-290.19"/>
</g>
<!-- KC -->
<g id="node8" class="node">
<title>KC</title>
<ellipse fill="none" stroke="black" cx="564.59" cy="-269.48" rx="89.08" ry="18"/>
<text text-anchor="middle" x="564.59" y="-265.78" font-family="Hershey-Noailles-help-me" font-size="14.00">Keyboard capture</text>
</g>
<!-- SC&#45;&gt;KC -->
<g id="edge13" class="edge">
<title>SC&#45;&gt;KC</title>
<path fill="none" stroke="black" d="M494.69,-324.24C506.58,-315.1 521.62,-303.53 534.7,-293.47"/>
<polygon fill="black" stroke="black" points="537.17,-295.98 542.96,-287.11 532.9,-290.44 537.17,-295.98"/>
</g>
<!-- AC -->
<g id="node9" class="node">
<title>AC</title>
<ellipse fill="none" stroke="black" cx="742.59" cy="-269.48" rx="70.69" ry="18"/>
<text text-anchor="middle" x="742.59" y="-265.78" font-family="Hershey-Noailles-help-me" font-size="14.00">Audio capture</text>
</g>
<!-- SC&#45;&gt;AC -->
<g id="edge14" class="edge">
<title>SC&#45;&gt;AC</title>
<path fill="none" stroke="black" d="M519.53,-328.53C565.29,-316.62 635.68,-298.3 685.12,-285.43"/>
<polygon fill="black" stroke="black" points="686.23,-288.76 695.03,-282.86 684.47,-281.99 686.23,-288.76"/>
</g>
<!-- FT -->
<g id="node10" class="node">
<title>FT</title>
<ellipse fill="none" stroke="black" cx="224.59" cy="-269.48" rx="64.19" ry="18"/>
<text text-anchor="middle" x="224.59" y="-265.78" font-family="Hershey-Noailles-help-me" font-size="14.00">Face tracker</text>
</g>
<!-- SC&#45;&gt;FT -->
<g id="edge15" class="edge">
<title>SC&#45;&gt;FT</title>
<path fill="none" stroke="black" d="M429.36,-328.05C387.13,-316.18 323.43,-298.27 278.31,-285.58"/>
<polygon fill="black" stroke="black" points="278.98,-282.14 268.41,-282.8 277.09,-288.87 278.98,-282.14"/>
</g>
<!-- EiC -->
<g id="node11" class="node">
<title>EiC</title>
<ellipse fill="none" stroke="black" cx="494.59" cy="-188.61" rx="83.39" ry="18"/>
<text text-anchor="middle" x="494.59" y="-184.91" font-family="Hershey-Noailles-help-me" font-size="14.00">Exercise in class</text>
</g>
<!-- DOM&#45;&gt;EiC -->
<g id="edge16" class="edge">
<title>DOM&#45;&gt;EiC</title>
<path fill="none" stroke="black" d="M357.52,-188.61C372.09,-188.61 386.67,-188.61 401.24,-188.61"/>
<polygon fill="black" stroke="black" points="401.33,-192.11 411.33,-188.61 401.33,-185.11 401.33,-192.11"/>
</g>
<!-- MC&#45;&gt;EiC -->
<g id="edge17" class="edge">
<title>MC&#45;&gt;EiC</title>
<path fill="none" stroke="black" d="M405.52,-252.33C422.02,-240.71 444.49,-224.89 462.73,-212.05"/>
<polygon fill="black" stroke="black" points="465.14,-214.63 471.3,-206.01 461.11,-208.91 465.14,-214.63"/>
</g>
<!-- KC&#45;&gt;EiC -->
<g id="edge18" class="edge">
<title>KC&#45;&gt;EiC</title>
<path fill="none" stroke="black" d="M549.4,-251.37C539.7,-240.44 526.98,-226.1 516.23,-214"/>
<polygon fill="black" stroke="black" points="518.76,-211.58 509.51,-206.42 513.53,-216.22 518.76,-211.58"/>
</g>
<!-- AC&#45;&gt;EiC -->
<g id="edge19" class="edge">
<title>AC&#45;&gt;EiC</title>
<path fill="none" stroke="black" d="M700.24,-255.01C658.48,-241.73 594.48,-221.38 548.98,-206.91"/>
<polygon fill="black" stroke="black" points="549.87,-203.52 539.28,-203.82 547.75,-210.19 549.87,-203.52"/>
</g>
<!-- FT&#45;&gt;EiC -->
<g id="edge20" class="edge">
<title>FT&#45;&gt;EiC</title>
<path fill="none" stroke="black" d="M267.37,-255.98C313.23,-242.59 386.3,-221.24 437.15,-206.39"/>
<polygon fill="black" stroke="black" points="438.39,-209.67 447.01,-203.51 436.43,-202.95 438.39,-209.67"/>
</g>
<!-- CC -->
<g id="node12" class="node">
<title>CC</title>
<ellipse fill="none" stroke="black" cx="530.59" cy="-98.87" rx="112.38" ry="18"/>
<text text-anchor="middle" x="530.59" y="-95.17" font-family="Hershey-Noailles-help-me" font-size="14.00">The concept of capture</text>
</g>
<!-- EiC&#45;&gt;CC -->
<g id="edge21" class="edge">
<title>EiC&#45;&gt;CC</title>
<path fill="none" stroke="black" d="M501.7,-170.28C506.86,-157.7 513.94,-140.46 519.79,-126.18"/>
<polygon fill="black" stroke="black" points="523.06,-127.45 523.61,-116.87 516.58,-124.79 523.06,-127.45"/>
</g>
<!-- WA -->
<g id="node13" class="node">
<title>WA</title>
<ellipse fill="none" stroke="black" cx="132.59" cy="-18" rx="132.68" ry="18"/>
<text text-anchor="middle" x="132.59" y="-14.3" font-family="Hershey-Noailles-help-me" font-size="14.00">Web analytics and heatmap</text>
</g>
<!-- CC&#45;&gt;WA -->
<g id="edge22" class="edge">
<title>CC&#45;&gt;WA</title>
<path fill="none" stroke="black" d="M462.62,-84.4C393.92,-70.79 287.71,-49.74 214.42,-35.22"/>
<polygon fill="black" stroke="black" points="214.8,-31.72 204.31,-33.21 213.44,-38.59 214.8,-31.72"/>
</g>
<!-- FE -->
<g id="node14" class="node">
<title>FE</title>
<ellipse fill="none" stroke="black" cx="360.59" cy="-18" rx="77.19" ry="18"/>
<text text-anchor="middle" x="360.59" y="-14.3" font-family="Hershey-Noailles-help-me" font-size="14.00">Form elements</text>
</g>
<!-- CC&#45;&gt;FE -->
<g id="edge23" class="edge">
<title>CC&#45;&gt;FE</title>
<path fill="none" stroke="black" d="M495.78,-81.72C468.9,-69.25 431.58,-51.94 402.97,-38.66"/>
<polygon fill="black" stroke="black" points="404.17,-35.36 393.62,-34.33 401.22,-41.71 404.17,-35.36"/>
</g>
<!-- ML -->
<g id="node15" class="node">
<title>ML</title>
<ellipse fill="none" stroke="black" cx="530.59" cy="-18" rx="74.99" ry="18"/>
<text text-anchor="middle" x="530.59" y="-14.3" font-family="Hershey-Noailles-help-me" font-size="14.00">Metrics of likes</text>
</g>
<!-- CC&#45;&gt;ML -->
<g id="edge24" class="edge">
<title>CC&#45;&gt;ML</title>
<path fill="none" stroke="black" d="M530.59,-80.76C530.59,-70.73 530.59,-57.84 530.59,-46.42"/>
<polygon fill="black" stroke="black" points="534.09,-46.08 530.59,-36.08 527.09,-46.08 534.09,-46.08"/>
</g>
<!-- VD -->
<g id="node16" class="node">
<title>VD</title>
<ellipse fill="none" stroke="black" cx="725.59" cy="-18" rx="102.88" ry="18"/>
<text text-anchor="middle" x="725.59" y="-14.3" font-family="Hershey-Noailles-help-me" font-size="14.00">Voice and audio data</text>
</g>
<!-- CC&#45;&gt;VD -->
<g id="edge25" class="edge">
<title>CC&#45;&gt;VD</title>
<path fill="none" stroke="black" d="M570.05,-81.91C600.94,-69.41 644.06,-51.98 677.06,-38.63"/>
<polygon fill="black" stroke="black" points="678.56,-41.8 686.52,-34.8 675.94,-35.31 678.56,-41.8"/>
</g>
<!-- HT -->
<g id="node17" class="node">
<title>HT</title>
<ellipse fill="none" stroke="black" cx="918.59" cy="-18" rx="72.59" ry="18"/>
<text text-anchor="middle" x="918.59" y="-14.3" font-family="Hershey-Noailles-help-me" font-size="14.00">Health tracker</text>
</g>
<!-- CC&#45;&gt;HT -->
<g id="edge26" class="edge">
<title>CC&#45;&gt;HT</title>
<path fill="none" stroke="black" d="M598,-84.45C660.22,-72.02 755.18,-52.95 837.59,-36 843.27,-34.83 849.17,-33.61 855.08,-32.38"/>
<polygon fill="black" stroke="black" points="855.93,-35.78 865.01,-30.31 854.51,-28.92 855.93,-35.78"/>
</g>
<!-- CC&#45;&gt;MW -->
<g id="edge28" class="edge">
<title>CC&#45;&gt;MW</title>
<path fill="none" stroke="black" d="M586,-114.6C650.58,-131.77 756.02,-159.81 815.7,-175.68"/>
<polygon fill="black" stroke="black" points="815.02,-179.12 825.58,-178.3 816.82,-172.35 815.02,-179.12"/>
</g>
<!-- MW&#45;&gt;MX -->
<g id="edge30" class="edge">
<title>MW&#45;&gt;MX</title>
<path fill="none" stroke="black" d="M891.26,-175.96C927.7,-162.12 989.23,-138.75 1034.51,-121.55"/>
<polygon fill="black" stroke="black" points="1035.81,-124.8 1043.91,-117.98 1033.32,-118.26 1035.81,-124.8"/>
</g>
<!-- Notes -->
<g id="node22" class="node">
<title>Notes</title>
<ellipse fill="none" stroke="black" cx="860.59" cy="-98.87" rx="36.29" ry="18"/>
<text text-anchor="middle" x="860.59" y="-95.17" font-family="Hershey-Noailles-help-me" font-size="14.00">Notes</text>
</g>
<!-- MW&#45;&gt;Notes -->
<g id="edge29" class="edge">
<title>MW&#45;&gt;Notes</title>
<path fill="none" stroke="black" d="M860.59,-170.28C860.59,-157.94 860.59,-141.12 860.59,-127.01"/>
<polygon fill="black" stroke="black" points="864.09,-126.87 860.59,-116.87 857.09,-126.87 864.09,-126.87"/>
</g>
<!-- RR&#45;&gt;SU -->
<g id="edge10" class="edge">
<title>RR&#45;&gt;SU</title>
<path fill="none" stroke="black" d="M982.06,-440.61C965.92,-467.09 934.94,-517.88 916.18,-548.64"/>
<polygon fill="black" stroke="black" points="913,-547.14 910.79,-557.5 918.98,-550.78 913,-547.14"/>
</g>
<!-- RR&#45;&gt;MX -->
<g id="edge9" class="edge">
<title>RR&#45;&gt;MX</title>
<path fill="none" stroke="black" d="M1024.21,-405.51C1041.64,-394.99 1061.87,-379.44 1072.59,-359.48 1111.09,-287.78 1104.82,-188.48 1097.72,-135.9"/>
<polygon fill="black" stroke="black" points="1101.15,-135.12 1096.26,-125.72 1094.22,-136.11 1101.15,-135.12"/>
</g>
<!-- FR -->
<g id="node21" class="node">
<title>FR</title>
<ellipse fill="none" stroke="black" cx="985.59" cy="-341.48" rx="77.99" ry="18"/>
<text text-anchor="middle" x="985.59" y="-337.78" font-family="Hershey-Noailles-help-me" font-size="14.00">Further reading</text>
</g>
<!-- RR&#45;&gt;FR -->
<g id="edge31" class="edge">
<title>RR&#45;&gt;FR</title>
<path fill="none" stroke="black" d="M991.07,-404.24C990.17,-394.11 989.01,-381.05 987.99,-369.55"/>
<polygon fill="black" stroke="black" points="991.47,-369.21 987.1,-359.56 984.5,-369.83 991.47,-369.21"/>
</g>
</g>
</svg>
