<?xml version="1.0" encoding="UTF-8" standalone="no"?>
<!DOCTYPE svg PUBLIC "-//W3C//DTD SVG 1.1//EN"
 "http://www.w3.org/Graphics/SVG/1.1/DTD/svg11.dtd">
<!-- Generated by graphviz version 2.38.0 (20140413.2041)
 -->
<!-- Title: G Pages: 1 -->
<svg width="1166pt" height="673pt"
 viewBox="0.00 0.00 1166.10 673.22" xmlns="http://www.w3.org/2000/svg" xmlns:xlink="http://www.w3.org/1999/xlink">
<g id="graph0" class="graph" transform="scale(1 1) rotate(0) translate(4 669.22)">
<title>G</title>
<polygon fill="white" stroke="none" points="-4,4 -4,-669.22 1162.1,-669.22 1162.1,4 -4,4"/>
<!-- GS -->
<g id="node1" class="node"><title>GS</title>
<polygon fill="none" stroke="black" points="1044.77,-665.22 919.771,-665.22 919.771,-629.22 1044.77,-629.22 1044.77,-665.22"/>
<text text-anchor="middle" x="982.271" y="-643.52" font-family="Hershey-Noailles-help-me" font-size="14.00">4. Data capture</text>
</g>
<!-- SU -->
<g id="node2" class="node"><title>SU</title>
<ellipse fill="none" stroke="black" cx="890.271" cy="-575.22" rx="42.4939" ry="18"/>
<text text-anchor="middle" x="890.271" y="-571.52" font-family="Hershey-Noailles-help-me" font-size="14.00">setup()</text>
</g>
<!-- GS&#45;&gt;SU -->
<g id="edge1" class="edge"><title>GS&#45;&gt;SU</title>
<path fill="none" stroke="black" d="M959.529,-628.917C947.045,-619.418 931.46,-607.56 918.237,-597.499"/>
<polygon fill="black" stroke="black" points="920.023,-594.46 909.945,-591.19 915.784,-600.031 920.023,-594.46"/>
</g>
<!-- MX -->
<g id="node19" class="node"><title>MX</title>
<ellipse fill="none" stroke="black" cx="1085.27" cy="-98.8701" rx="72.6644" ry="26.7407"/>
<text text-anchor="middle" x="1085.27" y="-102.67" font-family="Hershey-Noailles-help-me" font-size="14.00">MiniX: </text>
<text text-anchor="middle" x="1085.27" y="-87.6701" font-family="Hershey-Noailles-help-me" font-size="14.00">Capture ALL</text>
</g>
<!-- GS&#45;&gt;MX -->
<g id="edge8" class="edge"><title>GS&#45;&gt;MX</title>
<path fill="none" stroke="black" d="M1018.95,-629.104C1060.73,-606.775 1123.27,-563.455 1123.27,-504.22 1123.27,-504.22 1123.27,-504.22 1123.27,-268.48 1123.27,-220.634 1121.12,-208.096 1109.27,-161.74 1107.01,-152.9 1103.85,-143.608 1100.57,-134.991"/>
<polygon fill="black" stroke="black" points="1103.79,-133.612 1096.85,-125.607 1097.28,-136.193 1103.79,-133.612"/>
</g>
<!-- RR -->
<g id="node20" class="node"><title>RR</title>
<ellipse fill="none" stroke="black" cx="982.271" cy="-422.35" rx="87.1846" ry="18"/>
<text text-anchor="middle" x="982.271" y="-418.65" font-family="Hershey-Noailles-help-me" font-size="14.00">Required reading</text>
</g>
<!-- GS&#45;&gt;RR -->
<g id="edge6" class="edge"><title>GS&#45;&gt;RR</title>
<path fill="none" stroke="black" d="M982.271,-618.859C982.271,-576.031 982.271,-493.634 982.271,-450.77"/>
<polygon fill="black" stroke="black" points="978.771,-619.102 982.271,-629.102 985.771,-619.102 978.771,-619.102"/>
<polygon fill="black" stroke="black" points="985.771,-450.527 982.271,-440.527 978.771,-450.527 985.771,-450.527"/>
</g>
<!-- ST -->
<g id="node3" class="node"><title>ST</title>
<ellipse fill="none" stroke="black" cx="800.271" cy="-503.22" rx="38.9931" ry="18"/>
<text text-anchor="middle" x="800.271" y="-499.52" font-family="Hershey-Noailles-help-me" font-size="14.00">start()</text>
</g>
<!-- SU&#45;&gt;ST -->
<g id="edge2" class="edge"><title>SU&#45;&gt;ST</title>
<path fill="none" stroke="black" d="M870.742,-559.031C858.155,-549.241 841.604,-536.368 827.704,-525.558"/>
<polygon fill="black" stroke="black" points="829.494,-522.516 819.452,-519.139 825.197,-528.041 829.494,-522.516"/>
</g>
<!-- MW -->
<g id="node18" class="node"><title>MW</title>
<ellipse fill="none" stroke="black" cx="848.271" cy="-188.61" rx="43.5923" ry="18"/>
<text text-anchor="middle" x="848.271" y="-184.91" font-family="Hershey-Noailles-help-me" font-size="14.00">While()</text>
</g>
<!-- SU&#45;&gt;MW -->
<g id="edge7" class="edge"><title>SU&#45;&gt;MW</title>
<path fill="none" stroke="black" d="M883.589,-547.026C876.798,-516.963 867.271,-467.005 867.271,-423.35 867.271,-423.35 867.271,-423.35 867.271,-340.48 867.271,-296.983 859.4,-246.98 853.79,-216.864"/>
<polygon fill="black" stroke="black" points="880.27,-548.207 885.944,-557.154 887.088,-546.621 880.27,-548.207"/>
<polygon fill="black" stroke="black" points="857.165,-215.879 851.844,-206.718 850.29,-217.198 857.165,-215.879"/>
</g>
<!-- DE -->
<g id="node4" class="node"><title>DE</title>
<ellipse fill="none" stroke="black" cx="456.271" cy="-422.35" rx="96.3333" ry="26.7407"/>
<text text-anchor="middle" x="456.271" y="-426.15" font-family="Hershey-Noailles-help-me" font-size="14.00">Exercise in class: </text>
<text text-anchor="middle" x="456.271" y="-411.15" font-family="Hershey-Noailles-help-me" font-size="14.00">Decode</text>
</g>
<!-- ST&#45;&gt;DE -->
<g id="edge3" class="edge"><title>ST&#45;&gt;DE</title>
<path fill="none" stroke="black" d="M766.029,-494.37C713.522,-482.331 611.586,-458.96 538.998,-442.317"/>
<polygon fill="black" stroke="black" points="539.487,-438.839 528.958,-440.016 537.923,-445.662 539.487,-438.839"/>
</g>
<!-- ST&#45;&gt;MW -->
<g id="edge27" class="edge"><title>ST&#45;&gt;MW</title>
<path fill="none" stroke="black" d="M802.92,-484.968C810.853,-433.301 834.465,-279.525 844.103,-216.753"/>
<polygon fill="black" stroke="black" points="847.571,-217.225 845.63,-206.809 840.653,-216.162 847.571,-217.225"/>
</g>
<!-- SC -->
<g id="node5" class="node"><title>SC</title>
<ellipse fill="none" stroke="black" cx="456.271" cy="-341.48" rx="64.9885" ry="18"/>
<text text-anchor="middle" x="456.271" y="-337.78" font-family="Hershey-Noailles-help-me" font-size="14.00">Source code</text>
</g>
<!-- DE&#45;&gt;SC -->
<g id="edge4" class="edge"><title>DE&#45;&gt;SC</title>
<path fill="none" stroke="black" d="M449.891,-395.525C449.419,-387.186 449.398,-377.921 449.827,-369.498"/>
<polygon fill="black" stroke="black" points="453.326,-369.653 450.612,-359.412 446.347,-369.11 453.326,-369.653"/>
</g>
<!-- SC&#45;&gt;DE -->
<g id="edge5" class="edge"><title>SC&#45;&gt;DE</title>
<path fill="none" stroke="black" d="M461.929,-359.412C462.766,-367.056 463.122,-376.395 462.996,-385.48"/>
<polygon fill="black" stroke="black" points="459.496,-385.411 462.65,-395.525 466.492,-385.652 459.496,-385.411"/>
</g>
<!-- DOM -->
<g id="node6" class="node"><title>DOM</title>
<ellipse fill="none" stroke="black" cx="156.271" cy="-188.61" rx="156.042" ry="26.7407"/>
<text text-anchor="middle" x="156.271" y="-192.41" font-family="Hershey-Noailles-help-me" font-size="14.00">DOM elements:</text>
<text text-anchor="middle" x="156.271" y="-177.41" font-family="Hershey-Noailles-help-me" font-size="14.00"> creating and styling a button</text>
</g>
<!-- SC&#45;&gt;DOM -->
<g id="edge11" class="edge"><title>SC&#45;&gt;DOM</title>
<path fill="none" stroke="black" d="M391.327,-339.485C306,-336.644 163.102,-326.081 130.271,-287.48 115.454,-270.06 122.408,-245.075 132.833,-224.71"/>
<polygon fill="black" stroke="black" points="136.026,-226.167 137.801,-215.721 129.9,-222.78 136.026,-226.167"/>
</g>
<!-- MC -->
<g id="node7" class="node"><title>MC</title>
<ellipse fill="none" stroke="black" cx="364.271" cy="-269.48" rx="76.8869" ry="18"/>
<text text-anchor="middle" x="364.271" y="-265.78" font-family="Hershey-Noailles-help-me" font-size="14.00">Mouse capture</text>
</g>
<!-- SC&#45;&gt;MC -->
<g id="edge12" class="edge"><title>SC&#45;&gt;MC</title>
<path fill="none" stroke="black" d="M434.933,-324.245C422.712,-314.947 407.195,-303.14 393.817,-292.961"/>
<polygon fill="black" stroke="black" points="395.889,-290.14 385.811,-286.87 391.65,-295.711 395.889,-290.14"/>
</g>
<!-- KC -->
<g id="node8" class="node"><title>KC</title>
<ellipse fill="none" stroke="black" cx="548.271" cy="-269.48" rx="89.0842" ry="18"/>
<text text-anchor="middle" x="548.271" y="-265.78" font-family="Hershey-Noailles-help-me" font-size="14.00">Keyboard capture</text>
</g>
<!-- SC&#45;&gt;KC -->
<g id="edge13" class="edge"><title>SC&#45;&gt;KC</title>
<path fill="none" stroke="black" d="M477.608,-324.245C489.741,-315.014 505.123,-303.31 518.436,-293.181"/>
<polygon fill="black" stroke="black" points="520.571,-295.954 526.41,-287.114 516.332,-290.383 520.571,-295.954"/>
</g>
<!-- AC -->
<g id="node9" class="node"><title>AC</title>
<ellipse fill="none" stroke="black" cx="728.271" cy="-269.48" rx="73.387" ry="18"/>
<text text-anchor="middle" x="728.271" y="-265.78" font-family="Hershey-Noailles-help-me" font-size="14.00">Audio capture</text>
</g>
<!-- SC&#45;&gt;AC -->
<g id="edge14" class="edge"><title>SC&#45;&gt;AC</title>
<path fill="none" stroke="black" d="M502.104,-328.685C548.234,-316.813 619.555,-298.459 669.748,-285.541"/>
<polygon fill="black" stroke="black" points="670.679,-288.916 679.491,-283.034 668.934,-282.137 670.679,-288.916"/>
</g>
<!-- FT -->
<g id="node10" class="node"><title>FT</title>
<ellipse fill="none" stroke="black" cx="204.271" cy="-269.48" rx="64.9885" ry="18"/>
<text text-anchor="middle" x="204.271" y="-265.78" font-family="Hershey-Noailles-help-me" font-size="14.00">Face tracker</text>
</g>
<!-- SC&#45;&gt;FT -->
<g id="edge15" class="edge"><title>SC&#45;&gt;FT</title>
<path fill="none" stroke="black" d="M412.087,-328.207C369.216,-316.298 304.08,-298.205 258.18,-285.455"/>
<polygon fill="black" stroke="black" points="258.975,-282.044 248.403,-282.739 257.102,-288.788 258.975,-282.044"/>
</g>
<!-- EiC -->
<g id="node11" class="node"><title>EiC</title>
<ellipse fill="none" stroke="black" cx="458.271" cy="-188.61" rx="82.5854" ry="18"/>
<text text-anchor="middle" x="458.271" y="-184.91" font-family="Hershey-Noailles-help-me" font-size="14.00">Exercise in class</text>
</g>
<!-- DOM&#45;&gt;EiC -->
<g id="edge16" class="edge"><title>DOM&#45;&gt;EiC</title>
<path fill="none" stroke="black" d="M312.579,-188.61C330.102,-188.61 347.625,-188.61 365.148,-188.61"/>
<polygon fill="black" stroke="black" points="365.466,-192.11 375.466,-188.61 365.465,-185.11 365.466,-192.11"/>
</g>
<!-- MC&#45;&gt;EiC -->
<g id="edge17" class="edge"><title>MC&#45;&gt;EiC</title>
<path fill="none" stroke="black" d="M384.206,-251.754C397.665,-240.461 415.617,-225.398 430.476,-212.931"/>
<polygon fill="black" stroke="black" points="432.953,-215.421 438.364,-206.312 428.454,-210.059 432.953,-215.421"/>
</g>
<!-- KC&#45;&gt;EiC -->
<g id="edge18" class="edge"><title>KC&#45;&gt;EiC</title>
<path fill="none" stroke="black" d="M529.184,-251.754C516.297,-240.461 499.109,-225.398 484.883,-212.931"/>
<polygon fill="black" stroke="black" points="487.157,-210.271 477.33,-206.312 482.544,-215.535 487.157,-210.271"/>
</g>
<!-- AC&#45;&gt;EiC -->
<g id="edge19" class="edge"><title>AC&#45;&gt;EiC</title>
<path fill="none" stroke="black" d="M683.079,-255.279C636.916,-241.795 565.114,-220.82 515.12,-206.217"/>
<polygon fill="black" stroke="black" points="516.007,-202.829 505.426,-203.385 514.044,-209.549 516.007,-202.829"/>
</g>
<!-- FT&#45;&gt;EiC -->
<g id="edge20" class="edge"><title>FT&#45;&gt;EiC</title>
<path fill="none" stroke="black" d="M245.929,-255.545C288.764,-242.244 355.705,-221.458 402.958,-206.785"/>
<polygon fill="black" stroke="black" points="404.214,-210.06 412.727,-203.752 402.138,-203.375 404.214,-210.06"/>
</g>
<!-- CC -->
<g id="node12" class="node"><title>CC</title>
<ellipse fill="none" stroke="black" cx="569.271" cy="-98.8701" rx="113.98" ry="18"/>
<text text-anchor="middle" x="569.271" y="-95.1701" font-family="Hershey-Noailles-help-me" font-size="14.00">The concept of capture</text>
</g>
<!-- EiC&#45;&gt;CC -->
<g id="edge21" class="edge"><title>EiC&#45;&gt;CC</title>
<path fill="none" stroke="black" d="M479.149,-171.107C496.326,-157.529 520.871,-138.128 540.009,-123"/>
<polygon fill="black" stroke="black" points="542.434,-125.545 548.109,-116.598 538.093,-120.053 542.434,-125.545"/>
</g>
<!-- WA -->
<g id="node13" class="node"><title>WA</title>
<ellipse fill="none" stroke="black" cx="166.271" cy="-18" rx="135.376" ry="18"/>
<text text-anchor="middle" x="166.271" y="-14.3" font-family="Hershey-Noailles-help-me" font-size="14.00">Web analytics and heatmap</text>
</g>
<!-- CC&#45;&gt;WA -->
<g id="edge22" class="edge"><title>CC&#45;&gt;WA</title>
<path fill="none" stroke="black" d="M500.45,-84.4014C430.885,-70.7869 323.338,-49.7393 249.132,-35.2166"/>
<polygon fill="black" stroke="black" points="249.376,-31.698 238.89,-33.2121 248.032,-38.5677 249.376,-31.698"/>
</g>
<!-- FE -->
<g id="node14" class="node"><title>FE</title>
<ellipse fill="none" stroke="black" cx="397.271" cy="-18" rx="77.1866" ry="18"/>
<text text-anchor="middle" x="397.271" y="-14.3" font-family="Hershey-Noailles-help-me" font-size="14.00">Form elements</text>
</g>
<!-- CC&#45;&gt;FE -->
<g id="edge23" class="edge"><title>CC&#45;&gt;FE</title>
<path fill="none" stroke="black" d="M534.049,-81.7192C506.852,-69.2482 469.1,-51.937 440.146,-38.6604"/>
<polygon fill="black" stroke="black" points="441.241,-35.3121 430.692,-34.3253 438.323,-41.675 441.241,-35.3121"/>
</g>
<!-- ML -->
<g id="node15" class="node"><title>ML</title>
<ellipse fill="none" stroke="black" cx="569.271" cy="-18" rx="76.8869" ry="18"/>
<text text-anchor="middle" x="569.271" y="-14.3" font-family="Hershey-Noailles-help-me" font-size="14.00">Metrics of likes</text>
</g>
<!-- CC&#45;&gt;ML -->
<g id="edge24" class="edge"><title>CC&#45;&gt;ML</title>
<path fill="none" stroke="black" d="M569.271,-80.7564C569.271,-70.7312 569.271,-57.8362 569.271,-46.4246"/>
<polygon fill="black" stroke="black" points="572.771,-46.0802 569.271,-36.0802 565.771,-46.0803 572.771,-46.0802"/>
</g>
<!-- VD -->
<g id="node16" class="node"><title>VD</title>
<ellipse fill="none" stroke="black" cx="768.271" cy="-18" rx="103.982" ry="18"/>
<text text-anchor="middle" x="768.271" y="-14.3" font-family="Hershey-Noailles-help-me" font-size="14.00">Voice and audio data</text>
</g>
<!-- CC&#45;&gt;VD -->
<g id="edge25" class="edge"><title>CC&#45;&gt;VD</title>
<path fill="none" stroke="black" d="M609.541,-81.9095C641.172,-69.3734 685.358,-51.8611 719.08,-38.4956"/>
<polygon fill="black" stroke="black" points="720.732,-41.606 728.739,-34.6676 718.153,-35.0984 720.732,-41.606"/>
</g>
<!-- HT -->
<g id="node17" class="node"><title>HT</title>
<ellipse fill="none" stroke="black" cx="965.271" cy="-18" rx="75.2868" ry="18"/>
<text text-anchor="middle" x="965.271" y="-14.3" font-family="Hershey-Noailles-help-me" font-size="14.00">Health tracker</text>
</g>
<!-- CC&#45;&gt;HT -->
<g id="edge26" class="edge"><title>CC&#45;&gt;HT</title>
<path fill="none" stroke="black" d="M637.453,-84.4293C700.671,-71.9481 797.345,-52.8137 881.271,-36 887.302,-34.7916 893.577,-33.5301 899.858,-32.2642"/>
<polygon fill="black" stroke="black" points="900.59,-35.6871 909.7,-30.2783 899.206,-28.8254 900.59,-35.6871"/>
</g>
<!-- CC&#45;&gt;MW -->
<g id="edge28" class="edge"><title>CC&#45;&gt;MW</title>
<path fill="none" stroke="black" d="M618.046,-115.209C670.875,-131.823 754.362,-158.078 804.955,-173.988"/>
<polygon fill="black" stroke="black" points="804.027,-177.365 814.617,-177.027 806.127,-170.688 804.027,-177.365"/>
</g>
<!-- MW&#45;&gt;MX -->
<g id="edge30" class="edge"><title>MW&#45;&gt;MX</title>
<path fill="none" stroke="black" d="M879.742,-175.959C916.772,-162.25 979.069,-139.187 1025.39,-122.038"/>
<polygon fill="black" stroke="black" points="1026.86,-125.228 1035.02,-118.474 1024.43,-118.663 1026.86,-125.228"/>
</g>
<!-- Notes -->
<g id="node22" class="node"><title>Notes</title>
<ellipse fill="none" stroke="black" cx="848.271" cy="-98.8701" rx="36.2938" ry="18"/>
<text text-anchor="middle" x="848.271" y="-95.1701" font-family="Hershey-Noailles-help-me" font-size="14.00">Notes</text>
</g>
<!-- MW&#45;&gt;Notes -->
<g id="edge29" class="edge"><title>MW&#45;&gt;Notes</title>
<path fill="none" stroke="black" d="M848.271,-170.276C848.271,-157.938 848.271,-141.116 848.271,-127.009"/>
<polygon fill="black" stroke="black" points="851.771,-126.87 848.271,-116.87 844.771,-126.87 851.771,-126.87"/>
</g>
<!-- RR&#45;&gt;SU -->
<g id="edge10" class="edge"><title>RR&#45;&gt;SU</title>
<path fill="none" stroke="black" d="M971.745,-440.611C955.6,-467.087 924.626,-517.882 905.867,-548.644"/>
<polygon fill="black" stroke="black" points="902.686,-547.138 900.468,-557.498 908.662,-550.783 902.686,-547.138"/>
</g>
<!-- RR&#45;&gt;MX -->
<g id="edge9" class="edge"><title>RR&#45;&gt;MX</title>
<path fill="none" stroke="black" d="M1015.87,-405.637C1034.06,-395.243 1055.06,-379.775 1066.27,-359.48 1105.61,-288.233 1099,-188.749 1091.63,-136.017"/>
<polygon fill="black" stroke="black" points="1095.04,-135.183 1090.11,-125.808 1088.12,-136.215 1095.04,-135.183"/>
</g>
<!-- FR -->
<g id="node21" class="node"><title>FR</title>
<ellipse fill="none" stroke="black" cx="976.271" cy="-341.48" rx="81.4863" ry="18"/>
<text text-anchor="middle" x="976.271" y="-337.78" font-family="Hershey-Noailles-help-me" font-size="14.00">Further reading</text>
</g>
<!-- RR&#45;&gt;FR -->
<g id="edge31" class="edge"><title>RR&#45;&gt;FR</title>
<path fill="none" stroke="black" d="M980.969,-404.237C980.198,-394.108 979.205,-381.05 978.33,-369.552"/>
<polygon fill="black" stroke="black" points="981.819,-369.266 977.57,-359.56 974.839,-369.797 981.819,-369.266"/>
</g>
</g>
</svg>
