<?xml version="1.0" encoding="UTF-8" standalone="no"?>
<!DOCTYPE svg PUBLIC "-//W3C//DTD SVG 1.1//EN"
 "http://www.w3.org/Graphics/SVG/1.1/DTD/svg11.dtd">
<!-- Generated by graphviz version 2.38.0 (20140413.2041)
 -->
<!-- Title: G Pages: 1 -->
<svg width="964pt" height="673pt"
 viewBox="0.00 0.00 964.38 673.22" xmlns="http://www.w3.org/2000/svg" xmlns:xlink="http://www.w3.org/1999/xlink">
<g id="graph0" class="graph" transform="scale(1 1) rotate(0) translate(4 669.22)">
<title>G</title>
<polygon fill="white" stroke="none" points="-4,4 -4,-669.22 960.383,-669.22 960.383,4 -4,4"/>
<!-- GS -->
<g id="node1" class="node"><title>GS</title>
<ellipse fill="none" stroke="grey" stroke-width="2" cx="804.451" cy="-647.22" rx="82.5854" ry="18"/>
<text text-anchor="middle" x="804.451" y="-643.52" font-family="Times,serif" font-size="14.00">Ch.4 &#45; Data Capture</text>
</g>
<!-- SU -->
<g id="node2" class="node"><title>SU</title>
<ellipse fill="none" stroke="black" cx="723.451" cy="-575.22" rx="35.194" ry="18"/>
<text text-anchor="middle" x="723.451" y="-571.52" font-family="Times,serif" font-size="14.00">setup()</text>
</g>
<!-- GS&#45;&gt;SU -->
<g id="edge1" class="edge"><title>GS&#45;&gt;SU</title>
<path fill="none" stroke="black" d="M785.255,-629.631C774.232,-620.105 760.265,-608.035 748.399,-597.78"/>
<polygon fill="black" stroke="black" points="750.436,-594.915 740.581,-591.024 745.858,-600.211 750.436,-594.915"/>
</g>
<!-- MX -->
<g id="node19" class="node"><title>MX</title>
<ellipse fill="none" stroke="black" cx="893.451" cy="-98.8701" rx="62.8651" ry="26.7407"/>
<text text-anchor="middle" x="893.451" y="-102.67" font-family="Times,serif" font-size="14.00">MiniX: </text>
<text text-anchor="middle" x="893.451" y="-87.6701" font-family="Times,serif" font-size="14.00">Capture ALL</text>
</g>
<!-- GS&#45;&gt;MX -->
<g id="edge8" class="edge"><title>GS&#45;&gt;MX</title>
<path fill="none" stroke="black" d="M833.906,-630.34C871.423,-607.719 931.451,-562.431 931.451,-504.22 931.451,-504.22 931.451,-504.22 931.451,-268.48 931.451,-220.574 928.199,-208.183 916.451,-161.74 914.205,-152.861 911.119,-143.496 907.938,-134.813"/>
<polygon fill="black" stroke="black" points="911.17,-133.466 904.344,-125.363 904.627,-135.954 911.17,-133.466"/>
</g>
<!-- RR -->
<g id="node20" class="node"><title>RR</title>
<ellipse fill="none" stroke="black" cx="804.451" cy="-422.35" rx="71.4873" ry="18"/>
<text text-anchor="middle" x="804.451" y="-418.65" font-family="Times,serif" font-size="14.00">Required reading</text>
</g>
<!-- GS&#45;&gt;RR -->
<g id="edge6" class="edge"><title>GS&#45;&gt;RR</title>
<path fill="none" stroke="black" d="M804.451,-618.859C804.451,-576.031 804.451,-493.634 804.451,-450.77"/>
<polygon fill="black" stroke="black" points="800.951,-619.102 804.451,-629.102 807.951,-619.102 800.951,-619.102"/>
<polygon fill="black" stroke="black" points="807.951,-450.527 804.451,-440.527 800.951,-450.527 807.951,-450.527"/>
</g>
<!-- ST -->
<g id="node3" class="node"><title>ST</title>
<ellipse fill="none" stroke="black" cx="645.451" cy="-503.22" rx="31.6951" ry="18"/>
<text text-anchor="middle" x="645.451" y="-499.52" font-family="Times,serif" font-size="14.00">start()</text>
</g>
<!-- SU&#45;&gt;ST -->
<g id="edge2" class="edge"><title>SU&#45;&gt;ST</title>
<path fill="none" stroke="black" d="M706.526,-559.031C695.647,-549.268 681.35,-536.438 669.324,-525.645"/>
<polygon fill="black" stroke="black" points="671.588,-522.974 661.808,-518.9 666.913,-528.184 671.588,-522.974"/>
</g>
<!-- MW -->
<g id="node18" class="node"><title>MW</title>
<ellipse fill="none" stroke="black" cx="686.451" cy="-188.61" rx="38.1938" ry="18"/>
<text text-anchor="middle" x="686.451" y="-184.91" font-family="Times,serif" font-size="14.00">While()</text>
</g>
<!-- SU&#45;&gt;MW -->
<g id="edge7" class="edge"><title>SU&#45;&gt;MW</title>
<path fill="none" stroke="black" d="M718.222,-546.953C712.907,-516.826 705.451,-466.813 705.451,-423.35 705.451,-423.35 705.451,-423.35 705.451,-340.48 705.451,-296.983 697.58,-246.98 691.97,-216.864"/>
<polygon fill="black" stroke="black" points="714.835,-547.89 720.065,-557.104 721.722,-546.639 714.835,-547.89"/>
<polygon fill="black" stroke="black" points="695.345,-215.879 690.025,-206.718 688.471,-217.198 695.345,-215.879"/>
</g>
<!-- DE -->
<g id="node4" class="node"><title>DE</title>
<ellipse fill="none" stroke="black" cx="348.451" cy="-422.35" rx="81.135" ry="26.7407"/>
<text text-anchor="middle" x="348.451" y="-426.15" font-family="Times,serif" font-size="14.00">Exercise in class: </text>
<text text-anchor="middle" x="348.451" y="-411.15" font-family="Times,serif" font-size="14.00">Decode</text>
</g>
<!-- ST&#45;&gt;DE -->
<g id="edge3" class="edge"><title>ST&#45;&gt;DE</title>
<path fill="none" stroke="black" d="M617.242,-494.729C572.435,-482.831 483.605,-459.241 420.333,-442.439"/>
<polygon fill="black" stroke="black" points="420.971,-438.987 410.408,-439.803 419.175,-445.753 420.971,-438.987"/>
</g>
<!-- ST&#45;&gt;MW -->
<g id="edge27" class="edge"><title>ST&#45;&gt;MW</title>
<path fill="none" stroke="black" d="M647.714,-484.968C654.49,-433.301 674.658,-279.525 682.891,-216.753"/>
<polygon fill="black" stroke="black" points="686.365,-217.18 684.195,-206.809 679.424,-216.269 686.365,-217.18"/>
</g>
<!-- SC -->
<g id="node5" class="node"><title>SC</title>
<ellipse fill="none" stroke="black" cx="348.451" cy="-341.48" rx="53.8905" ry="18"/>
<text text-anchor="middle" x="348.451" y="-337.78" font-family="Times,serif" font-size="14.00">Source code</text>
</g>
<!-- DE&#45;&gt;SC -->
<g id="edge4" class="edge"><title>DE&#45;&gt;SC</title>
<path fill="none" stroke="black" d="M342.072,-395.525C341.6,-387.186 341.578,-377.921 342.007,-369.498"/>
<polygon fill="black" stroke="black" points="345.506,-369.653 342.792,-359.412 338.527,-369.11 345.506,-369.653"/>
</g>
<!-- SC&#45;&gt;DE -->
<g id="edge5" class="edge"><title>SC&#45;&gt;DE</title>
<path fill="none" stroke="black" d="M354.109,-359.412C354.946,-367.056 355.302,-376.395 355.176,-385.48"/>
<polygon fill="black" stroke="black" points="351.677,-385.411 354.83,-395.525 358.672,-385.652 351.677,-385.411"/>
</g>
<!-- DOM -->
<g id="node6" class="node"><title>DOM</title>
<ellipse fill="none" stroke="black" cx="124.451" cy="-188.61" rx="124.402" ry="26.7407"/>
<text text-anchor="middle" x="124.451" y="-192.41" font-family="Times,serif" font-size="14.00">DOM elements:</text>
<text text-anchor="middle" x="124.451" y="-177.41" font-family="Times,serif" font-size="14.00"> creating and styling a button</text>
</g>
<!-- SC&#45;&gt;DOM -->
<g id="edge11" class="edge"><title>SC&#45;&gt;DOM</title>
<path fill="none" stroke="black" d="M295.318,-338.109C222.982,-333.639 99.2963,-321.159 71.4508,-287.48 55.1831,-267.805 69.8238,-242.37 87.8024,-222.361"/>
<polygon fill="black" stroke="black" points="90.4586,-224.647 94.7988,-214.982 85.3787,-219.83 90.4586,-224.647"/>
</g>
<!-- MC -->
<g id="node7" class="node"><title>MC</title>
<ellipse fill="none" stroke="black" cx="270.451" cy="-269.48" rx="63.8893" ry="18"/>
<text text-anchor="middle" x="270.451" y="-265.78" font-family="Times,serif" font-size="14.00">Mouse capture</text>
</g>
<!-- SC&#45;&gt;MC -->
<g id="edge12" class="edge"><title>SC&#45;&gt;MC</title>
<path fill="none" stroke="black" d="M330.36,-324.245C320.292,-315.21 307.586,-303.806 296.468,-293.829"/>
<polygon fill="black" stroke="black" points="298.494,-290.944 288.714,-286.87 293.818,-296.154 298.494,-290.944"/>
</g>
<!-- KC -->
<g id="node8" class="node"><title>KC</title>
<ellipse fill="none" stroke="black" cx="425.451" cy="-269.48" rx="73.387" ry="18"/>
<text text-anchor="middle" x="425.451" y="-265.78" font-family="Times,serif" font-size="14.00">Keyboard capture</text>
</g>
<!-- SC&#45;&gt;KC -->
<g id="edge13" class="edge"><title>SC&#45;&gt;KC</title>
<path fill="none" stroke="black" d="M366.31,-324.245C376.177,-315.275 388.612,-303.97 399.53,-294.044"/>
<polygon fill="black" stroke="black" points="402.109,-296.43 407.154,-287.114 397.4,-291.251 402.109,-296.43"/>
</g>
<!-- AC -->
<g id="node9" class="node"><title>AC</title>
<ellipse fill="none" stroke="black" cx="578.451" cy="-269.48" rx="61.1893" ry="18"/>
<text text-anchor="middle" x="578.451" y="-265.78" font-family="Times,serif" font-size="14.00">Audio capture</text>
</g>
<!-- SC&#45;&gt;AC -->
<g id="edge14" class="edge"><title>SC&#45;&gt;AC</title>
<path fill="none" stroke="black" d="M386.948,-328.764C425.624,-316.993 485.43,-298.791 527.907,-285.863"/>
<polygon fill="black" stroke="black" points="528.952,-289.204 537.499,-282.944 526.913,-282.507 528.952,-289.204"/>
</g>
<!-- FT -->
<g id="node10" class="node"><title>FT</title>
<ellipse fill="none" stroke="black" cx="134.451" cy="-269.48" rx="53.8905" ry="18"/>
<text text-anchor="middle" x="134.451" y="-265.78" font-family="Times,serif" font-size="14.00">Face tracker</text>
</g>
<!-- SC&#45;&gt;FT -->
<g id="edge15" class="edge"><title>SC&#45;&gt;FT</title>
<path fill="none" stroke="black" d="M311.175,-328.287C275.076,-316.479 220.222,-298.536 181.213,-285.776"/>
<polygon fill="black" stroke="black" points="182.251,-282.433 171.658,-282.651 180.074,-289.086 182.251,-282.433"/>
</g>
<!-- EiC -->
<g id="node11" class="node"><title>EiC</title>
<ellipse fill="none" stroke="black" cx="339.451" cy="-188.61" rx="69.5877" ry="18"/>
<text text-anchor="middle" x="339.451" y="-184.91" font-family="Times,serif" font-size="14.00">Exercise in class</text>
</g>
<!-- DOM&#45;&gt;EiC -->
<g id="edge16" class="edge"><title>DOM&#45;&gt;EiC</title>
<path fill="none" stroke="black" d="M249.168,-188.61C252.577,-188.61 255.986,-188.61 259.395,-188.61"/>
<polygon fill="black" stroke="black" points="259.622,-192.11 269.622,-188.61 259.622,-185.11 259.622,-192.11"/>
</g>
<!-- MC&#45;&gt;EiC -->
<g id="edge17" class="edge"><title>MC&#45;&gt;EiC</title>
<path fill="none" stroke="black" d="M285.084,-251.754C294.689,-240.774 307.412,-226.232 318.134,-213.976"/>
<polygon fill="black" stroke="black" points="320.889,-216.143 324.839,-206.312 315.62,-211.534 320.889,-216.143"/>
</g>
<!-- KC&#45;&gt;EiC -->
<g id="edge18" class="edge"><title>KC&#45;&gt;EiC</title>
<path fill="none" stroke="black" d="M407.212,-251.754C394.93,-240.49 378.559,-225.476 364.985,-213.027"/>
<polygon fill="black" stroke="black" points="367.104,-210.221 357.368,-206.042 362.372,-215.38 367.104,-210.221"/>
</g>
<!-- AC&#45;&gt;EiC -->
<g id="edge19" class="edge"><title>AC&#45;&gt;EiC</title>
<path fill="none" stroke="black" d="M539.252,-255.545C498.624,-242.137 434.945,-221.123 390.429,-206.433"/>
<polygon fill="black" stroke="black" points="391.269,-203.025 380.676,-203.214 389.075,-209.672 391.269,-203.025"/>
</g>
<!-- FT&#45;&gt;EiC -->
<g id="edge20" class="edge"><title>FT&#45;&gt;EiC</title>
<path fill="none" stroke="black" d="M168.302,-255.456C202.23,-242.403 254.73,-222.205 292.638,-207.621"/>
<polygon fill="black" stroke="black" points="294.351,-210.712 302.427,-203.854 291.837,-204.179 294.351,-210.712"/>
</g>
<!-- CC -->
<g id="node12" class="node"><title>CC</title>
<ellipse fill="none" stroke="black" cx="476.451" cy="-98.8701" rx="92.0841" ry="18"/>
<text text-anchor="middle" x="476.451" y="-95.1701" font-family="Times,serif" font-size="14.00">The concept of capture</text>
</g>
<!-- EiC&#45;&gt;CC -->
<g id="edge21" class="edge"><title>EiC&#45;&gt;CC</title>
<path fill="none" stroke="black" d="M364.26,-171.721C386.099,-157.735 418.106,-137.236 442.349,-121.71"/>
<polygon fill="black" stroke="black" points="444.363,-124.576 450.897,-116.236 440.588,-118.682 444.363,-124.576"/>
</g>
<!-- WA -->
<g id="node13" class="node"><title>WA</title>
<ellipse fill="none" stroke="black" cx="135.451" cy="-18" rx="109.381" ry="18"/>
<text text-anchor="middle" x="135.451" y="-14.3" font-family="Times,serif" font-size="14.00">Web analytics and heatmap</text>
</g>
<!-- CC&#45;&gt;WA -->
<g id="edge22" class="edge"><title>CC&#45;&gt;WA</title>
<path fill="none" stroke="black" d="M419.375,-84.669C360.705,-71.0991 269.241,-49.9444 206.055,-35.33"/>
<polygon fill="black" stroke="black" points="206.698,-31.8864 196.166,-33.0429 205.12,-38.7063 206.698,-31.8864"/>
</g>
<!-- FE -->
<g id="node14" class="node"><title>FE</title>
<ellipse fill="none" stroke="black" cx="327.451" cy="-18" rx="64.189" ry="18"/>
<text text-anchor="middle" x="327.451" y="-14.3" font-family="Times,serif" font-size="14.00">Form elements</text>
</g>
<!-- CC&#45;&gt;FE -->
<g id="edge23" class="edge"><title>CC&#45;&gt;FE</title>
<path fill="none" stroke="black" d="M445.939,-81.7192C422.508,-69.3165 390.033,-52.1265 365.006,-38.8789"/>
<polygon fill="black" stroke="black" points="366.628,-35.7777 356.153,-34.1927 363.353,-41.9644 366.628,-35.7777"/>
</g>
<!-- ML -->
<g id="node15" class="node"><title>ML</title>
<ellipse fill="none" stroke="black" cx="476.451" cy="-18" rx="66.8882" ry="18"/>
<text text-anchor="middle" x="476.451" y="-14.3" font-family="Times,serif" font-size="14.00">Metrics of likes</text>
</g>
<!-- CC&#45;&gt;ML -->
<g id="edge24" class="edge"><title>CC&#45;&gt;ML</title>
<path fill="none" stroke="black" d="M476.451,-80.7564C476.451,-70.7312 476.451,-57.8362 476.451,-46.4246"/>
<polygon fill="black" stroke="black" points="479.951,-46.0802 476.451,-36.0802 472.951,-46.0803 479.951,-46.0802"/>
</g>
<!-- VD -->
<g id="node16" class="node"><title>VD</title>
<ellipse fill="none" stroke="black" cx="647.451" cy="-18" rx="85.5853" ry="18"/>
<text text-anchor="middle" x="647.451" y="-14.3" font-family="Times,serif" font-size="14.00">Voice and audio data</text>
</g>
<!-- CC&#45;&gt;VD -->
<g id="edge25" class="edge"><title>CC&#45;&gt;VD</title>
<path fill="none" stroke="black" d="M510.644,-82.0991C537.644,-69.646 575.476,-52.1969 604.514,-38.8036"/>
<polygon fill="black" stroke="black" points="605.994,-41.9756 613.608,-34.6091 603.062,-35.6191 605.994,-41.9756"/>
</g>
<!-- HT -->
<g id="node17" class="node"><title>HT</title>
<ellipse fill="none" stroke="black" cx="812.451" cy="-18" rx="61.1893" ry="18"/>
<text text-anchor="middle" x="812.451" y="-14.3" font-family="Times,serif" font-size="14.00">Health tracker</text>
</g>
<!-- CC&#45;&gt;HT -->
<g id="edge26" class="edge"><title>CC&#45;&gt;HT</title>
<path fill="none" stroke="black" d="M533.825,-84.6945C587.723,-72.2773 670.607,-53.0788 742.451,-36 747.146,-34.8837 752.017,-33.7177 756.904,-32.5422"/>
<polygon fill="black" stroke="black" points="758.004,-35.8771 766.904,-30.1291 756.362,-29.0724 758.004,-35.8771"/>
</g>
<!-- CC&#45;&gt;MW -->
<g id="edge28" class="edge"><title>CC&#45;&gt;MW</title>
<path fill="none" stroke="black" d="M513.668,-115.42C551.914,-131.399 611.115,-156.134 649.327,-172.1"/>
<polygon fill="black" stroke="black" points="647.988,-175.333 658.564,-175.959 650.687,-168.874 647.988,-175.333"/>
</g>
<!-- MW&#45;&gt;MX -->
<g id="edge30" class="edge"><title>MW&#45;&gt;MX</title>
<path fill="none" stroke="black" d="M713.939,-175.959C746.112,-162.322 800.125,-139.427 840.517,-122.307"/>
<polygon fill="black" stroke="black" points="842.109,-125.433 849.95,-118.308 839.377,-118.989 842.109,-125.433"/>
</g>
<!-- Notes -->
<g id="node22" class="node"><title>Notes</title>
<ellipse fill="none" stroke="black" cx="686.451" cy="-98.8701" rx="31.3957" ry="18"/>
<text text-anchor="middle" x="686.451" y="-95.1701" font-family="Times,serif" font-size="14.00">Notes</text>
</g>
<!-- MW&#45;&gt;Notes -->
<g id="edge29" class="edge"><title>MW&#45;&gt;Notes</title>
<path fill="none" stroke="black" d="M686.451,-170.276C686.451,-157.938 686.451,-141.116 686.451,-127.009"/>
<polygon fill="black" stroke="black" points="689.951,-126.87 686.451,-116.87 682.951,-126.87 689.951,-126.87"/>
</g>
<!-- RR&#45;&gt;SU -->
<g id="edge10" class="edge"><title>RR&#45;&gt;SU</title>
<path fill="none" stroke="black" d="M795.392,-440.224C781.196,-466.665 753.621,-518.026 737.039,-548.91"/>
<polygon fill="black" stroke="black" points="733.92,-547.321 732.273,-557.787 740.087,-550.632 733.92,-547.321"/>
</g>
<!-- RR&#45;&gt;MX -->
<g id="edge9" class="edge"><title>RR&#45;&gt;MX</title>
<path fill="none" stroke="black" d="M830.769,-405.613C846.354,-394.754 864.874,-378.809 874.451,-359.48 910.49,-286.743 905.309,-188.266 899.01,-135.981"/>
<polygon fill="black" stroke="black" points="902.454,-135.327 897.705,-125.856 895.512,-136.222 902.454,-135.327"/>
</g>
<!-- FR -->
<g id="node21" class="node"><title>FR</title>
<ellipse fill="none" stroke="black" cx="799.451" cy="-341.48" rx="65.7887" ry="18"/>
<text text-anchor="middle" x="799.451" y="-337.78" font-family="Times,serif" font-size="14.00">Further reading</text>
</g>
<!-- RR&#45;&gt;FR -->
<g id="edge31" class="edge"><title>RR&#45;&gt;FR</title>
<path fill="none" stroke="black" d="M803.366,-404.237C802.724,-394.108 801.896,-381.05 801.167,-369.552"/>
<polygon fill="black" stroke="black" points="804.659,-369.319 800.534,-359.56 797.673,-369.762 804.659,-369.319"/>
</g>
</g>
</svg>
