<?xml version="1.0" encoding="UTF-8" standalone="no"?>
<!DOCTYPE svg PUBLIC "-//W3C//DTD SVG 1.1//EN"
 "http://www.w3.org/Graphics/SVG/1.1/DTD/svg11.dtd">
<!-- Generated by graphviz version 2.38.0 (20140413.2041)
 -->
<!-- Title: G Pages: 1 -->
<svg width="1143pt" height="655pt"
 viewBox="0.00 0.00 1143.50 655.48" xmlns="http://www.w3.org/2000/svg" xmlns:xlink="http://www.w3.org/1999/xlink">
<g id="graph0" class="graph" transform="scale(1 1) rotate(0) translate(4 651.48)">
<title>G</title>
<polygon fill="white" stroke="none" points="-4,4 -4,-651.48 1139.5,-651.48 1139.5,4 -4,4"/>
<!-- GS -->
<g id="node1" class="node"><title>GS</title>
<ellipse fill="none" stroke="grey" stroke-width="2" cx="185.613" cy="-629.48" rx="82.5854" ry="18"/>
<text text-anchor="middle" x="185.613" y="-625.78" font-family="Times,serif" font-size="14.00">Ch.4 &#45; Data Capture</text>
</g>
<!-- SU -->
<g id="node2" class="node"><title>SU</title>
<ellipse fill="none" stroke="black" cx="51.6125" cy="-485.48" rx="35.194" ry="18"/>
<text text-anchor="middle" x="51.6125" y="-481.78" font-family="Times,serif" font-size="14.00">setup()</text>
</g>
<!-- GS&#45;&gt;SU -->
<g id="edge1" class="edge"><title>GS&#45;&gt;SU</title>
<path fill="none" stroke="black" d="M155.156,-612.619C139.144,-603.276 119.927,-590.376 105.613,-575.48 87.8033,-556.949 73.1165,-531.541 63.5789,-512.616"/>
<polygon fill="black" stroke="black" points="66.603,-510.832 59.0714,-503.381 60.3124,-513.903 66.603,-510.832"/>
</g>
<!-- MX -->
<g id="node19" class="node"><title>MX</title>
<ellipse fill="none" stroke="black" cx="232.613" cy="-26.8701" rx="62.8651" ry="26.7407"/>
<text text-anchor="middle" x="232.613" y="-30.6701" font-family="Times,serif" font-size="14.00">MiniX 4: </text>
<text text-anchor="middle" x="232.613" y="-15.6701" font-family="Times,serif" font-size="14.00">Capture ALL</text>
</g>
<!-- GS&#45;&gt;MX -->
<g id="edge6" class="edge"><title>GS&#45;&gt;MX</title>
<path fill="none" stroke="black" d="M265.537,-624.868C493.846,-613.494 1132.61,-573.864 1132.61,-486.48 1132.61,-486.48 1132.61,-486.48 1132.61,-178.74 1132.61,-138.293 1144.15,-116.267 1113.61,-89.7401 1053.24,-37.2933 506.183,-29.2389 305.764,-28.054"/>
<polygon fill="black" stroke="black" points="305.648,-24.5534 295.629,-27.9982 305.609,-31.5533 305.648,-24.5534"/>
</g>
<!-- RR -->
<g id="node20" class="node"><title>RR</title>
<ellipse fill="none" stroke="black" cx="185.613" cy="-557.48" rx="71.4873" ry="18"/>
<text text-anchor="middle" x="185.613" y="-553.78" font-family="Times,serif" font-size="14.00">Required reading</text>
</g>
<!-- GS&#45;&gt;RR -->
<g id="edge5" class="edge"><title>GS&#45;&gt;RR</title>
<path fill="none" stroke="black" d="M185.613,-611.177C185.613,-603.463 185.613,-594.193 185.613,-585.593"/>
<polygon fill="black" stroke="black" points="189.113,-585.585 185.613,-575.585 182.113,-585.585 189.113,-585.585"/>
</g>
<!-- ST -->
<g id="node3" class="node"><title>ST</title>
<ellipse fill="none" stroke="black" cx="136.613" cy="-485.48" rx="31.6951" ry="18"/>
<text text-anchor="middle" x="136.613" y="-481.78" font-family="Times,serif" font-size="14.00">start()</text>
</g>
<!-- SU&#45;&gt;ST -->
<g id="edge2" class="edge"><title>SU&#45;&gt;ST</title>
<path fill="none" stroke="black" d="M86.8078,-485.48C89.418,-485.48 92.0283,-485.48 94.6385,-485.48"/>
<polygon fill="black" stroke="black" points="94.7064,-488.98 104.706,-485.48 94.7064,-481.98 94.7064,-488.98"/>
</g>
<!-- DE -->
<g id="node4" class="node"><title>DE</title>
<ellipse fill="none" stroke="black" cx="111.613" cy="-404.61" rx="81.135" ry="26.7407"/>
<text text-anchor="middle" x="111.613" y="-408.41" font-family="Times,serif" font-size="14.00">Exercise in class: </text>
<text text-anchor="middle" x="111.613" y="-393.41" font-family="Times,serif" font-size="14.00">Decode</text>
</g>
<!-- ST&#45;&gt;DE -->
<g id="edge3" class="edge"><title>ST&#45;&gt;DE</title>
<path fill="none" stroke="black" d="M131.188,-467.367C128.741,-459.648 125.755,-450.228 122.86,-441.093"/>
<polygon fill="black" stroke="black" points="126.141,-439.862 119.783,-431.387 119.469,-441.978 126.141,-439.862"/>
</g>
<!-- MW -->
<g id="node18" class="node"><title>MW</title>
<ellipse fill="none" stroke="black" cx="131.613" cy="-107.74" rx="38.1938" ry="18"/>
<text text-anchor="middle" x="131.613" y="-104.04" font-family="Times,serif" font-size="14.00">While()</text>
</g>
<!-- ST&#45;&gt;MW -->
<g id="edge25" class="edge"><title>ST&#45;&gt;MW</title>
<path fill="none" stroke="black" d="M112.2,-473.917C79.3383,-459.598 24.6104,-435.363 21.6125,-431.48 -7.83758,-393.342 2.61253,-372.926 2.61253,-324.74 2.61253,-324.74 2.61253,-324.74 2.61253,-250.74 2.61253,-194.004 59.7291,-149.901 97.9509,-126.739"/>
<polygon fill="black" stroke="black" points="99.8901,-129.659 106.74,-121.576 96.3448,-123.623 99.8901,-129.659"/>
</g>
<!-- SC -->
<g id="node5" class="node"><title>SC</title>
<ellipse fill="none" stroke="black" cx="541.613" cy="-404.61" rx="55.7903" ry="18"/>
<text text-anchor="middle" x="541.613" y="-400.91" font-family="Times,serif" font-size="14.00">Source Code</text>
</g>
<!-- DE&#45;&gt;SC -->
<g id="edge4" class="edge"><title>DE&#45;&gt;SC</title>
<path fill="none" stroke="black" d="M193.077,-404.61C287.109,-404.61 381.141,-404.61 475.173,-404.61"/>
<polygon fill="black" stroke="black" points="475.452,-408.11 485.452,-404.61 475.452,-401.11 475.452,-408.11"/>
</g>
<!-- DOM -->
<g id="node6" class="node"><title>DOM</title>
<ellipse fill="none" stroke="black" cx="745.613" cy="-323.74" rx="65.7887" ry="18"/>
<text text-anchor="middle" x="745.613" y="-320.04" font-family="Times,serif" font-size="14.00">DOM elements</text>
</g>
<!-- SC&#45;&gt;DOM -->
<g id="edge9" class="edge"><title>SC&#45;&gt;DOM</title>
<path fill="none" stroke="black" d="M576.218,-390.231C610.132,-377.119 662.038,-357.051 699.454,-342.586"/>
<polygon fill="black" stroke="black" points="701.049,-345.722 709.114,-338.851 698.524,-339.193 701.049,-345.722"/>
</g>
<!-- MC -->
<g id="node7" class="node"><title>MC</title>
<ellipse fill="none" stroke="black" cx="892.613" cy="-323.74" rx="63.8893" ry="18"/>
<text text-anchor="middle" x="892.613" y="-320.04" font-family="Times,serif" font-size="14.00">Mouse capture</text>
</g>
<!-- SC&#45;&gt;MC -->
<g id="edge10" class="edge"><title>SC&#45;&gt;MC</title>
<path fill="none" stroke="black" d="M586.594,-393.833C641.774,-381.793 738.153,-360.617 820.613,-341.74 825.495,-340.622 830.561,-339.451 835.641,-338.267"/>
<polygon fill="black" stroke="black" points="836.444,-341.674 845.384,-335.989 834.85,-334.858 836.444,-341.674"/>
</g>
<!-- KC -->
<g id="node8" class="node"><title>KC</title>
<ellipse fill="none" stroke="black" cx="321.613" cy="-323.74" rx="73.387" ry="18"/>
<text text-anchor="middle" x="321.613" y="-320.04" font-family="Times,serif" font-size="14.00">Keyboard capture</text>
</g>
<!-- SC&#45;&gt;KC -->
<g id="edge11" class="edge"><title>SC&#45;&gt;KC</title>
<path fill="none" stroke="black" d="M505.776,-390.763C469.029,-377.589 411.614,-357.006 370.664,-342.325"/>
<polygon fill="black" stroke="black" points="371.747,-338.995 361.153,-338.915 369.385,-345.585 371.747,-338.995"/>
</g>
<!-- AC -->
<g id="node9" class="node"><title>AC</title>
<ellipse fill="none" stroke="black" cx="474.613" cy="-323.74" rx="61.1893" ry="18"/>
<text text-anchor="middle" x="474.613" y="-320.04" font-family="Times,serif" font-size="14.00">Audio capture</text>
</g>
<!-- SC&#45;&gt;AC -->
<g id="edge12" class="edge"><title>SC&#45;&gt;AC</title>
<path fill="none" stroke="black" d="M527.404,-386.884C518.076,-375.904 505.723,-361.362 495.311,-349.106"/>
<polygon fill="black" stroke="black" points="497.943,-346.798 488.801,-341.442 492.608,-351.33 497.943,-346.798"/>
</g>
<!-- FT -->
<g id="node10" class="node"><title>FT</title>
<ellipse fill="none" stroke="black" cx="607.613" cy="-323.74" rx="53.8905" ry="18"/>
<text text-anchor="middle" x="607.613" y="-320.04" font-family="Times,serif" font-size="14.00">Face tracker</text>
</g>
<!-- SC&#45;&gt;FT -->
<g id="edge13" class="edge"><title>SC&#45;&gt;FT</title>
<path fill="none" stroke="black" d="M555.609,-386.884C564.859,-375.83 577.131,-361.166 587.43,-348.858"/>
<polygon fill="black" stroke="black" points="590.129,-351.087 593.862,-341.172 584.76,-346.595 590.129,-351.087"/>
</g>
<!-- EiC -->
<g id="node11" class="node"><title>EiC</title>
<ellipse fill="none" stroke="black" cx="607.613" cy="-251.74" rx="69.5877" ry="18"/>
<text text-anchor="middle" x="607.613" y="-248.04" font-family="Times,serif" font-size="14.00">Exercise in class</text>
</g>
<!-- DOM&#45;&gt;EiC -->
<g id="edge14" class="edge"><title>DOM&#45;&gt;EiC</title>
<path fill="none" stroke="black" d="M715.669,-307.551C695.553,-297.348 668.835,-283.795 647,-272.719"/>
<polygon fill="black" stroke="black" points="648.476,-269.544 637.975,-268.141 645.31,-275.786 648.476,-269.544"/>
</g>
<!-- MC&#45;&gt;EiC -->
<g id="edge15" class="edge"><title>MC&#45;&gt;EiC</title>
<path fill="none" stroke="black" d="M846.188,-311.338C797.14,-299.291 719.668,-280.263 666.39,-267.177"/>
<polygon fill="black" stroke="black" points="666.951,-263.71 656.405,-264.724 665.281,-270.508 666.951,-263.71"/>
</g>
<!-- KC&#45;&gt;EiC -->
<g id="edge16" class="edge"><title>KC&#45;&gt;EiC</title>
<path fill="none" stroke="black" d="M371.757,-310.467C421.273,-298.348 496.956,-279.824 549.17,-267.044"/>
<polygon fill="black" stroke="black" points="550.078,-270.425 558.959,-264.648 548.414,-263.626 550.078,-270.425"/>
</g>
<!-- AC&#45;&gt;EiC -->
<g id="edge17" class="edge"><title>AC&#45;&gt;EiC</title>
<path fill="none" stroke="black" d="M503.144,-307.723C522.426,-297.575 548.112,-284.056 569.189,-272.963"/>
<polygon fill="black" stroke="black" points="570.989,-275.971 578.208,-268.216 567.728,-269.777 570.989,-275.971"/>
</g>
<!-- FT&#45;&gt;EiC -->
<g id="edge18" class="edge"><title>FT&#45;&gt;EiC</title>
<path fill="none" stroke="black" d="M607.613,-305.437C607.613,-297.723 607.613,-288.453 607.613,-279.853"/>
<polygon fill="black" stroke="black" points="611.113,-279.844 607.613,-269.844 604.113,-279.844 611.113,-279.844"/>
</g>
<!-- CC -->
<g id="node12" class="node"><title>CC</title>
<ellipse fill="none" stroke="black" cx="607.613" cy="-179.74" rx="96.3833" ry="18"/>
<text text-anchor="middle" x="607.613" y="-176.04" font-family="Times,serif" font-size="14.00">The Concept of Capture</text>
</g>
<!-- EiC&#45;&gt;CC -->
<g id="edge19" class="edge"><title>EiC&#45;&gt;CC</title>
<path fill="none" stroke="black" d="M607.613,-233.437C607.613,-225.723 607.613,-216.453 607.613,-207.853"/>
<polygon fill="black" stroke="black" points="611.113,-207.844 607.613,-197.844 604.113,-207.844 611.113,-207.844"/>
</g>
<!-- WA -->
<g id="node13" class="node"><title>WA</title>
<ellipse fill="none" stroke="black" cx="692.613" cy="-107.74" rx="113.98" ry="18"/>
<text text-anchor="middle" x="692.613" y="-104.04" font-family="Times,serif" font-size="14.00">Web Analytics and Heatmap</text>
</g>
<!-- CC&#45;&gt;WA -->
<g id="edge20" class="edge"><title>CC&#45;&gt;WA</title>
<path fill="none" stroke="black" d="M628.189,-161.795C639.047,-152.853 652.535,-141.745 664.359,-132.008"/>
<polygon fill="black" stroke="black" points="666.732,-134.588 672.226,-125.529 662.282,-129.184 666.732,-134.588"/>
</g>
<!-- FE -->
<g id="node14" class="node"><title>FE</title>
<ellipse fill="none" stroke="black" cx="888.613" cy="-107.74" rx="64.189" ry="18"/>
<text text-anchor="middle" x="888.613" y="-104.04" font-family="Times,serif" font-size="14.00">Form elements</text>
</g>
<!-- CC&#45;&gt;FE -->
<g id="edge21" class="edge"><title>CC&#45;&gt;FE</title>
<path fill="none" stroke="black" d="M662.794,-164.994C711.691,-152.813 782.776,-135.105 832.077,-122.824"/>
<polygon fill="black" stroke="black" points="833.085,-126.18 841.942,-120.366 831.392,-119.387 833.085,-126.18"/>
</g>
<!-- ML -->
<g id="node15" class="node"><title>ML</title>
<ellipse fill="none" stroke="black" cx="1037.61" cy="-107.74" rx="66.8882" ry="18"/>
<text text-anchor="middle" x="1037.61" y="-104.04" font-family="Times,serif" font-size="14.00">Metrics of likes</text>
</g>
<!-- CC&#45;&gt;ML -->
<g id="edge22" class="edge"><title>CC&#45;&gt;ML</title>
<path fill="none" stroke="black" d="M684.528,-168.838C756.414,-159.202 866.617,-143.452 961.613,-125.74 967.317,-124.676 973.246,-123.491 979.162,-122.256"/>
<polygon fill="black" stroke="black" points="980.018,-125.652 989.067,-120.141 978.556,-118.807 980.018,-125.652"/>
</g>
<!-- VD -->
<g id="node16" class="node"><title>VD</title>
<ellipse fill="none" stroke="black" cx="334.613" cy="-107.74" rx="85.5853" ry="18"/>
<text text-anchor="middle" x="334.613" y="-104.04" font-family="Times,serif" font-size="14.00">Voice and audio data</text>
</g>
<!-- CC&#45;&gt;VD -->
<g id="edge23" class="edge"><title>CC&#45;&gt;VD</title>
<path fill="none" stroke="black" d="M553.35,-164.827C508.202,-153.25 443.916,-136.767 396.718,-124.665"/>
<polygon fill="black" stroke="black" points="397.474,-121.245 386.918,-122.152 395.736,-128.026 397.474,-121.245"/>
</g>
<!-- HT -->
<g id="node17" class="node"><title>HT</title>
<ellipse fill="none" stroke="black" cx="499.613" cy="-107.74" rx="61.1893" ry="18"/>
<text text-anchor="middle" x="499.613" y="-104.04" font-family="Times,serif" font-size="14.00">Health tracker</text>
</g>
<!-- CC&#45;&gt;HT -->
<g id="edge24" class="edge"><title>CC&#45;&gt;HT</title>
<path fill="none" stroke="black" d="M582.291,-162.328C567.351,-152.645 548.286,-140.288 532.229,-129.88"/>
<polygon fill="black" stroke="black" points="533.958,-126.83 523.663,-124.328 530.151,-132.704 533.958,-126.83"/>
</g>
<!-- CC&#45;&gt;MW -->
<g id="edge26" class="edge"><title>CC&#45;&gt;MW</title>
<path fill="none" stroke="black" d="M533.211,-168.316C458.847,-157.828 341.258,-141.059 239.613,-125.74 219.248,-122.671 196.746,-119.15 177.576,-116.111"/>
<polygon fill="black" stroke="black" points="178.02,-112.638 167.594,-114.525 176.921,-119.551 178.02,-112.638"/>
</g>
<!-- MW&#45;&gt;MX -->
<g id="edge28" class="edge"><title>MW&#45;&gt;MX</title>
<path fill="none" stroke="black" d="M150.61,-91.9053C163.146,-82.1162 179.993,-68.9599 195.157,-57.1189"/>
<polygon fill="black" stroke="black" points="197.642,-59.619 203.369,-50.7057 193.334,-54.1019 197.642,-59.619"/>
</g>
<!-- Notes -->
<g id="node21" class="node"><title>Notes</title>
<ellipse fill="none" stroke="black" cx="120.613" cy="-26.8701" rx="31.3957" ry="18"/>
<text text-anchor="middle" x="120.613" y="-23.1701" font-family="Times,serif" font-size="14.00">Notes</text>
</g>
<!-- MW&#45;&gt;Notes -->
<g id="edge27" class="edge"><title>MW&#45;&gt;Notes</title>
<path fill="none" stroke="black" d="M129.226,-89.6265C127.813,-79.4979 125.992,-66.4401 124.388,-54.9422"/>
<polygon fill="black" stroke="black" points="127.843,-54.3709 122.995,-44.9503 120.91,-55.3379 127.843,-54.3709"/>
</g>
<!-- RR&#45;&gt;SU -->
<g id="edge8" class="edge"><title>RR&#45;&gt;SU</title>
<path fill="none" stroke="black" d="M155.874,-540.945C134.689,-529.878 106.217,-515.005 84.3799,-503.598"/>
<polygon fill="black" stroke="black" points="85.9518,-500.47 75.4677,-498.942 82.7106,-506.674 85.9518,-500.47"/>
</g>
<!-- RR&#45;&gt;MX -->
<g id="edge7" class="edge"><title>RR&#45;&gt;MX</title>
<path fill="none" stroke="black" d="M192.361,-539.131C202.531,-511.379 220.613,-455.085 220.613,-405.61 220.613,-405.61 220.613,-405.61 220.613,-178.74 220.613,-139.371 224.723,-94.4036 228.133,-63.878"/>
<polygon fill="black" stroke="black" points="231.636,-64.0503 229.302,-53.7159 224.682,-63.2504 231.636,-64.0503"/>
</g>
</g>
</svg>
