<?xml version="1.0" encoding="UTF-8" standalone="no"?>
<!DOCTYPE svg PUBLIC "-//W3C//DTD SVG 1.1//EN"
 "http://www.w3.org/Graphics/SVG/1.1/DTD/svg11.dtd">
<!-- Generated by graphviz version 2.38.0 (20140413.2041)
 -->
<!-- Title: G Pages: 1 -->
<svg width="1038pt" height="1035pt"
 viewBox="0.00 0.00 1038.19 1035.22" xmlns="http://www.w3.org/2000/svg" xmlns:xlink="http://www.w3.org/1999/xlink">
<g id="graph0" class="graph" transform="scale(1 1) rotate(0) translate(4 1031.22)">
<title>G</title>
<polygon fill="white" stroke="none" points="-4,4 -4,-1031.22 1034.19,-1031.22 1034.19,4 -4,4"/>
<!-- GS -->
<g id="node1" class="node"><title>GS</title>
<polygon fill="none" stroke="black" points="919.688,-1027.22 794.688,-1027.22 794.688,-991.22 919.688,-991.22 919.688,-1027.22"/>
<text text-anchor="middle" x="857.188" y="-1005.52" font-family="Hershey-Noailles-help-me" font-size="14.00">4. Data capture</text>
</g>
<!-- SU -->
<g id="node2" class="node"><title>SU</title>
<ellipse fill="none" stroke="black" cx="742.188" cy="-865.22" rx="42.4939" ry="18"/>
<text text-anchor="middle" x="742.188" y="-861.52" font-family="Hershey-Noailles-help-me" font-size="14.00">setup()</text>
</g>
<!-- GS&#45;&gt;SU -->
<g id="edge1" class="edge"><title>GS&#45;&gt;SU</title>
<path fill="none" stroke="black" d="M808.324,-991.171C791.042,-982.849 772.986,-971.121 761.188,-955.22 747.984,-937.424 743.545,-912.414 742.23,-893.436"/>
<polygon fill="black" stroke="black" points="745.722,-893.163 741.78,-883.329 738.729,-893.475 745.722,-893.163"/>
</g>
<!-- MX -->
<g id="node19" class="node"><title>MX</title>
<ellipse fill="none" stroke="black" cx="859.188" cy="-622.61" rx="72.6644" ry="26.7407"/>
<text text-anchor="middle" x="859.188" y="-626.41" font-family="Hershey-Noailles-help-me" font-size="14.00">MiniX: </text>
<text text-anchor="middle" x="859.188" y="-611.41" font-family="Hershey-Noailles-help-me" font-size="14.00">Capture ALL</text>
</g>
<!-- GS&#45;&gt;MX -->
<g id="edge8" class="edge"><title>GS&#45;&gt;MX</title>
<path fill="none" stroke="black" d="M908.158,-991.074C959.189,-970.3 1030.19,-929.945 1030.19,-866.22 1030.19,-866.22 1030.19,-866.22 1030.19,-792.22 1030.19,-725.358 963.081,-676.098 912.945,-648.626"/>
<polygon fill="black" stroke="black" points="914.586,-645.535 904.116,-643.914 911.291,-651.711 914.586,-645.535"/>
</g>
<!-- RR -->
<g id="node20" class="node"><title>RR</title>
<ellipse fill="none" stroke="black" cx="857.188" cy="-937.22" rx="87.1846" ry="18"/>
<text text-anchor="middle" x="857.188" y="-933.52" font-family="Hershey-Noailles-help-me" font-size="14.00">Required reading</text>
</g>
<!-- GS&#45;&gt;RR -->
<g id="edge6" class="edge"><title>GS&#45;&gt;RR</title>
<path fill="none" stroke="black" d="M857.188,-980.885C857.188,-975.907 857.188,-970.711 857.188,-965.727"/>
<polygon fill="black" stroke="black" points="853.688,-980.917 857.188,-990.917 860.688,-980.917 853.688,-980.917"/>
<polygon fill="black" stroke="black" points="860.688,-965.325 857.188,-955.325 853.688,-965.325 860.688,-965.325"/>
</g>
<!-- ST -->
<g id="node3" class="node"><title>ST</title>
<ellipse fill="none" stroke="black" cx="691.188" cy="-793.22" rx="38.9931" ry="18"/>
<text text-anchor="middle" x="691.188" y="-789.52" font-family="Hershey-Noailles-help-me" font-size="14.00">start()</text>
</g>
<!-- SU&#45;&gt;ST -->
<g id="edge2" class="edge"><title>SU&#45;&gt;ST</title>
<path fill="none" stroke="black" d="M730.102,-847.631C723.877,-839.088 716.162,-828.499 709.247,-819.008"/>
<polygon fill="black" stroke="black" points="711.905,-816.712 703.188,-810.69 706.247,-820.834 711.905,-816.712"/>
</g>
<!-- MW -->
<g id="node18" class="node"><title>MW</title>
<ellipse fill="none" stroke="black" cx="739.188" cy="-271" rx="43.5923" ry="18"/>
<text text-anchor="middle" x="739.188" y="-267.3" font-family="Hershey-Noailles-help-me" font-size="14.00">While()</text>
</g>
<!-- SU&#45;&gt;MW -->
<g id="edge7" class="edge"><title>SU&#45;&gt;MW</title>
<path fill="none" stroke="black" d="M746.836,-836.929C751.56,-806.78 758.188,-756.749 758.188,-713.35 758.188,-713.35 758.188,-713.35 758.188,-414 758.188,-373.64 750.554,-327.392 744.964,-298.936"/>
<polygon fill="black" stroke="black" points="743.335,-836.658 745.197,-847.087 750.245,-837.772 743.335,-836.658"/>
<polygon fill="black" stroke="black" points="748.357,-298.057 742.942,-288.951 741.496,-299.447 748.357,-298.057"/>
</g>
<!-- DE -->
<g id="node4" class="node"><title>DE</title>
<ellipse fill="none" stroke="black" cx="526.188" cy="-712.35" rx="96.3333" ry="26.7407"/>
<text text-anchor="middle" x="526.188" y="-716.15" font-family="Hershey-Noailles-help-me" font-size="14.00">Exercise in class: </text>
<text text-anchor="middle" x="526.188" y="-701.15" font-family="Hershey-Noailles-help-me" font-size="14.00">Decode</text>
</g>
<!-- ST&#45;&gt;DE -->
<g id="edge3" class="edge"><title>ST&#45;&gt;DE</title>
<path fill="none" stroke="black" d="M665.043,-779.723C642.919,-769.148 610.436,-753.621 582.449,-740.243"/>
<polygon fill="black" stroke="black" points="583.684,-736.954 573.152,-735.799 580.665,-743.27 583.684,-736.954"/>
</g>
<!-- ST&#45;&gt;MW -->
<g id="edge27" class="edge"><title>ST&#45;&gt;MW</title>
<path fill="none" stroke="black" d="M696.107,-775.154C704.381,-744.897 720.188,-679.748 720.188,-623.61 720.188,-623.61 720.188,-623.61 720.188,-414 720.188,-373.64 727.822,-327.392 733.412,-298.936"/>
<polygon fill="black" stroke="black" points="736.88,-299.447 735.434,-288.951 730.019,-298.057 736.88,-299.447"/>
</g>
<!-- SC -->
<g id="node5" class="node"><title>SC</title>
<ellipse fill="none" stroke="black" cx="526.188" cy="-622.61" rx="64.9885" ry="18"/>
<text text-anchor="middle" x="526.188" y="-618.91" font-family="Hershey-Noailles-help-me" font-size="14.00">Source code</text>
</g>
<!-- DE&#45;&gt;SC -->
<g id="edge4" class="edge"><title>DE&#45;&gt;SC</title>
<path fill="none" stroke="black" d="M519.972,-685.5C519.286,-674.544 519.261,-661.774 519.898,-650.688"/>
<polygon fill="black" stroke="black" points="523.389,-650.941 520.712,-640.69 516.412,-650.373 523.389,-650.941"/>
</g>
<!-- SC&#45;&gt;DE -->
<g id="edge5" class="edge"><title>SC&#45;&gt;DE</title>
<path fill="none" stroke="black" d="M531.664,-640.69C532.746,-650.54 533.139,-663.311 532.842,-675.281"/>
<polygon fill="black" stroke="black" points="529.336,-675.359 532.404,-685.5 536.329,-675.659 529.336,-675.359"/>
</g>
<!-- DOM -->
<g id="node6" class="node"><title>DOM</title>
<ellipse fill="none" stroke="black" cx="212.188" cy="-495.87" rx="156.042" ry="26.7407"/>
<text text-anchor="middle" x="212.188" y="-499.67" font-family="Hershey-Noailles-help-me" font-size="14.00">DOM elements:</text>
<text text-anchor="middle" x="212.188" y="-484.67" font-family="Hershey-Noailles-help-me" font-size="14.00"> creating and styling a button</text>
</g>
<!-- SC&#45;&gt;DOM -->
<g id="edge11" class="edge"><title>SC&#45;&gt;DOM</title>
<path fill="none" stroke="black" d="M490.474,-607.422C439.839,-587.307 346.17,-550.096 281.588,-524.44"/>
<polygon fill="black" stroke="black" points="282.864,-521.181 272.279,-520.742 280.28,-527.687 282.864,-521.181"/>
</g>
<!-- MC -->
<g id="node7" class="node"><title>MC</title>
<ellipse fill="none" stroke="black" cx="299.188" cy="-415" rx="76.8869" ry="18"/>
<text text-anchor="middle" x="299.188" y="-411.3" font-family="Hershey-Noailles-help-me" font-size="14.00">Mouse capture</text>
</g>
<!-- SC&#45;&gt;MC -->
<g id="edge12" class="edge"><title>SC&#45;&gt;MC</title>
<path fill="none" stroke="black" d="M511.938,-604.955C486.488,-575.699 430.846,-513.93 377.188,-469 363.802,-457.791 348.033,-446.724 334.19,-437.625"/>
<polygon fill="black" stroke="black" points="335.712,-434.442 325.415,-431.949 331.91,-440.319 335.712,-434.442"/>
</g>
<!-- KC -->
<g id="node8" class="node"><title>KC</title>
<ellipse fill="none" stroke="black" cx="483.188" cy="-415" rx="89.0842" ry="18"/>
<text text-anchor="middle" x="483.188" y="-411.3" font-family="Hershey-Noailles-help-me" font-size="14.00">Keyboard capture</text>
</g>
<!-- SC&#45;&gt;KC -->
<g id="edge13" class="edge"><title>SC&#45;&gt;KC</title>
<path fill="none" stroke="black" d="M522.596,-604.434C515.134,-568.754 497.904,-486.365 488.901,-443.317"/>
<polygon fill="black" stroke="black" points="492.273,-442.344 486.8,-433.272 485.421,-443.777 492.273,-442.344"/>
</g>
<!-- AC -->
<g id="node9" class="node"><title>AC</title>
<ellipse fill="none" stroke="black" cx="471.188" cy="-343" rx="73.387" ry="18"/>
<text text-anchor="middle" x="471.188" y="-339.3" font-family="Hershey-Noailles-help-me" font-size="14.00">Audio capture</text>
</g>
<!-- SC&#45;&gt;AC -->
<g id="edge14" class="edge"><title>SC&#45;&gt;AC</title>
<path fill="none" stroke="black" d="M538.456,-604.719C565.436,-565.322 624.22,-465.501 581.188,-397 570.143,-379.418 551.446,-367.531 532.57,-359.555"/>
<polygon fill="black" stroke="black" points="533.611,-356.205 523.023,-355.839 531.072,-362.728 533.611,-356.205"/>
</g>
<!-- FT -->
<g id="node10" class="node"><title>FT</title>
<ellipse fill="none" stroke="black" cx="627.188" cy="-343" rx="64.9885" ry="18"/>
<text text-anchor="middle" x="627.188" y="-339.3" font-family="Hershey-Noailles-help-me" font-size="14.00">Face tracker</text>
</g>
<!-- SC&#45;&gt;FT -->
<g id="edge15" class="edge"><title>SC&#45;&gt;FT</title>
<path fill="none" stroke="black" d="M544.123,-604.953C562.531,-586.693 590.377,-555.593 604.188,-522.74 625.395,-472.293 628.36,-407.344 628.111,-371.258"/>
<polygon fill="black" stroke="black" points="631.607,-370.976 627.946,-361.033 624.607,-371.088 631.607,-370.976"/>
</g>
<!-- EiC -->
<g id="node11" class="node"><title>EiC</title>
<ellipse fill="none" stroke="black" cx="420.188" cy="-271" rx="82.5854" ry="18"/>
<text text-anchor="middle" x="420.188" y="-267.3" font-family="Hershey-Noailles-help-me" font-size="14.00">Exercise in class</text>
</g>
<!-- DOM&#45;&gt;EiC -->
<g id="edge16" class="edge"><title>DOM&#45;&gt;EiC</title>
<path fill="none" stroke="black" d="M205.913,-468.971C202.331,-448.137 200.717,-418.838 213.188,-397 245.1,-341.12 313.008,-307.343 362.366,-289.235"/>
<polygon fill="black" stroke="black" points="363.723,-292.467 371.974,-285.82 361.379,-285.871 363.723,-292.467"/>
</g>
<!-- MC&#45;&gt;EiC -->
<g id="edge17" class="edge"><title>MC&#45;&gt;EiC</title>
<path fill="none" stroke="black" d="M313.543,-397.153C334.739,-372.279 374.537,-325.574 399.066,-296.788"/>
<polygon fill="black" stroke="black" points="402.029,-298.706 405.851,-288.825 396.701,-294.166 402.029,-298.706"/>
</g>
<!-- KC&#45;&gt;EiC -->
<g id="edge18" class="edge"><title>KC&#45;&gt;EiC</title>
<path fill="none" stroke="black" d="M436.975,-399.534C418.743,-391.305 399.677,-378.956 389.188,-361 377.485,-340.967 388.258,-315.821 400.198,-297.373"/>
<polygon fill="black" stroke="black" points="403.245,-299.12 406.059,-288.906 397.489,-295.135 403.245,-299.12"/>
</g>
<!-- AC&#45;&gt;EiC -->
<g id="edge19" class="edge"><title>AC&#45;&gt;EiC</title>
<path fill="none" stroke="black" d="M458.842,-325.055C452.793,-316.753 445.385,-306.584 438.678,-297.378"/>
<polygon fill="black" stroke="black" points="441.492,-295.297 432.774,-289.275 435.834,-299.419 441.492,-295.297"/>
</g>
<!-- FT&#45;&gt;EiC -->
<g id="edge20" class="edge"><title>FT&#45;&gt;EiC</title>
<path fill="none" stroke="black" d="M587.766,-328.669C555.17,-317.646 508.595,-301.896 472.816,-289.797"/>
<polygon fill="black" stroke="black" points="473.626,-286.376 463.031,-286.488 471.383,-293.007 473.626,-286.376"/>
</g>
<!-- CC -->
<g id="node12" class="node"><title>CC</title>
<ellipse fill="none" stroke="black" cx="471.188" cy="-199" rx="113.98" ry="18"/>
<text text-anchor="middle" x="471.188" y="-195.3" font-family="Hershey-Noailles-help-me" font-size="14.00">The concept of capture</text>
</g>
<!-- EiC&#45;&gt;CC -->
<g id="edge21" class="edge"><title>EiC&#45;&gt;CC</title>
<path fill="none" stroke="black" d="M432.534,-253.055C438.583,-244.753 445.991,-234.584 452.698,-225.378"/>
<polygon fill="black" stroke="black" points="455.542,-227.419 458.602,-217.275 449.884,-223.297 455.542,-227.419"/>
</g>
<!-- WA -->
<g id="node13" class="node"><title>WA</title>
<ellipse fill="none" stroke="black" cx="135.188" cy="-90" rx="135.376" ry="18"/>
<text text-anchor="middle" x="135.188" y="-86.3" font-family="Hershey-Noailles-help-me" font-size="14.00">Web analytics and heatmap</text>
</g>
<!-- CC&#45;&gt;WA -->
<g id="edge22" class="edge"><title>CC&#45;&gt;WA</title>
<path fill="none" stroke="black" d="M423.047,-182.67C362.81,-163.487 259.677,-130.644 194.593,-109.918"/>
<polygon fill="black" stroke="black" points="195.472,-106.525 184.882,-106.825 193.348,-113.195 195.472,-106.525"/>
</g>
<!-- FE -->
<g id="node14" class="node"><title>FE</title>
<ellipse fill="none" stroke="black" cx="366.188" cy="-90" rx="77.1866" ry="18"/>
<text text-anchor="middle" x="366.188" y="-86.3" font-family="Hershey-Noailles-help-me" font-size="14.00">Form elements</text>
</g>
<!-- CC&#45;&gt;FE -->
<g id="edge23" class="edge"><title>CC&#45;&gt;FE</title>
<path fill="none" stroke="black" d="M454.318,-180.809C436.841,-162.998 409.389,-135.024 389.769,-115.03"/>
<polygon fill="black" stroke="black" points="392.172,-112.482 382.67,-107.796 387.176,-117.385 392.172,-112.482"/>
</g>
<!-- ML -->
<g id="node15" class="node"><title>ML</title>
<ellipse fill="none" stroke="black" cx="391.188" cy="-18" rx="76.8869" ry="18"/>
<text text-anchor="middle" x="391.188" y="-14.3" font-family="Hershey-Noailles-help-me" font-size="14.00">Metrics of likes</text>
</g>
<!-- CC&#45;&gt;ML -->
<g id="edge24" class="edge"><title>CC&#45;&gt;ML</title>
<path fill="none" stroke="black" d="M472.217,-180.928C472.987,-155.547 471.475,-107.09 452.188,-72 445.683,-60.1646 435.444,-49.7359 425.2,-41.3295"/>
<polygon fill="black" stroke="black" points="427.107,-38.3797 417.055,-35.0331 422.826,-43.918 427.107,-38.3797"/>
</g>
<!-- VD -->
<g id="node16" class="node"><title>VD</title>
<ellipse fill="none" stroke="black" cx="590.188" cy="-18" rx="103.982" ry="18"/>
<text text-anchor="middle" x="590.188" y="-14.3" font-family="Hershey-Noailles-help-me" font-size="14.00">Voice and audio data</text>
</g>
<!-- CC&#45;&gt;VD -->
<g id="edge25" class="edge"><title>CC&#45;&gt;VD</title>
<path fill="none" stroke="black" d="M482.598,-180.837C503.567,-149.295 548.336,-81.9538 573.001,-44.8522"/>
<polygon fill="black" stroke="black" points="576.191,-46.3767 578.812,-36.1113 570.361,-42.5013 576.191,-46.3767"/>
</g>
<!-- HT -->
<g id="node17" class="node"><title>HT</title>
<ellipse fill="none" stroke="black" cx="787.188" cy="-18" rx="75.2868" ry="18"/>
<text text-anchor="middle" x="787.188" y="-14.3" font-family="Hershey-Noailles-help-me" font-size="14.00">Health tracker</text>
</g>
<!-- CC&#45;&gt;HT -->
<g id="edge26" class="edge"><title>CC&#45;&gt;HT</title>
<path fill="none" stroke="black" d="M500.35,-181.481C558.019,-148.814 686.541,-76.0118 750.114,-40.0007"/>
<polygon fill="black" stroke="black" points="752.03,-42.9379 759.006,-34.9637 748.58,-36.8472 752.03,-42.9379"/>
</g>
<!-- CC&#45;&gt;MW -->
<g id="edge28" class="edge"><title>CC&#45;&gt;MW</title>
<path fill="none" stroke="black" d="M527.382,-214.678C576.766,-227.576 647.722,-246.11 693.638,-258.103"/>
<polygon fill="black" stroke="black" points="692.762,-261.491 703.322,-260.632 694.532,-254.718 692.762,-261.491"/>
</g>
<!-- MW&#45;&gt;MX -->
<g id="edge30" class="edge"><title>MW&#45;&gt;MX</title>
<path fill="none" stroke="black" d="M756.996,-287.504C782.71,-311.712 827.188,-361.215 827.188,-414 827.188,-496.87 827.188,-496.87 827.188,-496.87 827.188,-527.721 836.485,-561.555 845.057,-586.194"/>
<polygon fill="black" stroke="black" points="841.845,-587.604 848.532,-595.822 848.429,-585.228 841.845,-587.604"/>
</g>
<!-- Notes -->
<g id="node22" class="node"><title>Notes</title>
<ellipse fill="none" stroke="black" cx="739.188" cy="-199" rx="36.2938" ry="18"/>
<text text-anchor="middle" x="739.188" y="-195.3" font-family="Hershey-Noailles-help-me" font-size="14.00">Notes</text>
</g>
<!-- MW&#45;&gt;Notes -->
<g id="edge29" class="edge"><title>MW&#45;&gt;Notes</title>
<path fill="none" stroke="black" d="M739.188,-252.697C739.188,-244.983 739.188,-235.712 739.188,-227.112"/>
<polygon fill="black" stroke="black" points="742.688,-227.104 739.188,-217.104 735.688,-227.104 742.688,-227.104"/>
</g>
<!-- RR&#45;&gt;SU -->
<g id="edge10" class="edge"><title>RR&#45;&gt;SU</title>
<path fill="none" stroke="black" d="M830.516,-919.985C813.791,-909.805 792.126,-896.617 774.438,-885.851"/>
<polygon fill="black" stroke="black" points="775.96,-882.68 765.599,-880.47 772.321,-888.659 775.96,-882.68"/>
</g>
<!-- RR&#45;&gt;MX -->
<g id="edge9" class="edge"><title>RR&#45;&gt;MX</title>
<path fill="none" stroke="black" d="M846.412,-919.305C840.654,-909.249 834.154,-895.999 831.188,-883.22 812.924,-804.519 833.66,-709.574 847.947,-659.146"/>
<polygon fill="black" stroke="black" points="851.356,-659.958 850.793,-649.378 844.635,-658 851.356,-659.958"/>
</g>
<!-- FR -->
<g id="node21" class="node"><title>FR</title>
<ellipse fill="none" stroke="black" cx="921.188" cy="-865.22" rx="81.4863" ry="18"/>
<text text-anchor="middle" x="921.188" y="-861.52" font-family="Hershey-Noailles-help-me" font-size="14.00">Further reading</text>
</g>
<!-- RR&#45;&gt;FR -->
<g id="edge31" class="edge"><title>RR&#45;&gt;FR</title>
<path fill="none" stroke="black" d="M872.681,-919.275C880.542,-910.677 890.233,-900.077 898.882,-890.618"/>
<polygon fill="black" stroke="black" points="901.673,-892.751 905.838,-883.009 896.507,-888.028 901.673,-892.751"/>
</g>
</g>
</svg>
