<?xml version="1.0" encoding="UTF-8" standalone="no"?>
<!DOCTYPE svg PUBLIC "-//W3C//DTD SVG 1.1//EN"
 "http://www.w3.org/Graphics/SVG/1.1/DTD/svg11.dtd">
<!-- Generated by graphviz version 2.38.0 (20140413.2041)
 -->
<!-- Title: G Pages: 1 -->
<svg width="1064pt" height="439pt"
 viewBox="0.00 0.00 1063.64 439.48" xmlns="http://www.w3.org/2000/svg" xmlns:xlink="http://www.w3.org/1999/xlink">
<g id="graph0" class="graph" transform="scale(1 1) rotate(0) translate(4 435.48)">
<title>G</title>
<polygon fill="white" stroke="none" points="-4,4 -4,-435.48 1059.64,-435.48 1059.64,4 -4,4"/>
<!-- GS -->
<g id="node1" class="node"><title>GS</title>
<ellipse fill="none" stroke="grey" stroke-width="2" cx="82.5427" cy="-413.48" rx="82.5854" ry="18"/>
<text text-anchor="middle" x="82.5427" y="-409.78" font-family="Times,serif" font-size="14.00">Ch.4 &#45; Data Capture</text>
</g>
<!-- SU -->
<g id="node2" class="node"><title>SU</title>
<ellipse fill="none" stroke="black" cx="218.543" cy="-413.48" rx="35.194" ry="18"/>
<text text-anchor="middle" x="218.543" y="-409.78" font-family="Times,serif" font-size="14.00">setup()</text>
</g>
<!-- GS&#45;&gt;SU -->
<g id="edge1" class="edge"><title>GS&#45;&gt;SU</title>
<path fill="none" stroke="black" d="M165.152,-413.48C167.768,-413.48 170.383,-413.48 172.999,-413.48"/>
<polygon fill="black" stroke="black" points="173.088,-416.98 183.088,-413.48 173.088,-409.98 173.088,-416.98"/>
</g>
<!-- MX -->
<g id="node19" class="node"><title>MX</title>
<ellipse fill="none" stroke="black" cx="191.543" cy="-98.8701" rx="62.8651" ry="26.7407"/>
<text text-anchor="middle" x="191.543" y="-102.67" font-family="Times,serif" font-size="14.00">MiniX 4: </text>
<text text-anchor="middle" x="191.543" y="-87.6701" font-family="Times,serif" font-size="14.00">Capture ALL</text>
</g>
<!-- GS&#45;&gt;MX -->
<g id="edge7" class="edge"><title>GS&#45;&gt;MX</title>
<path fill="none" stroke="black" d="M80.2074,-395.283C75.2772,-352.59 67.6037,-239.592 111.543,-161.74 119.471,-147.692 132.013,-135.758 144.835,-126.231"/>
<polygon fill="black" stroke="black" points="147.083,-128.93 153.256,-120.319 143.061,-123.2 147.083,-128.93"/>
</g>
<!-- RR -->
<g id="node20" class="node"><title>RR</title>
<ellipse fill="none" stroke="black" cx="191.543" cy="-179.74" rx="71.4873" ry="18"/>
<text text-anchor="middle" x="191.543" y="-176.04" font-family="Times,serif" font-size="14.00">Required reading</text>
</g>
<!-- GS&#45;&gt;RR -->
<g id="edge5" class="edge"><title>GS&#45;&gt;RR</title>
<path fill="none" stroke="black" d="M94.8427,-386.33C115.781,-341.813 158.119,-251.8 179.133,-207.125"/>
<polygon fill="black" stroke="black" points="91.6468,-384.901 90.5577,-395.44 97.9812,-387.881 91.6468,-384.901"/>
<polygon fill="black" stroke="black" points="182.427,-208.344 183.516,-197.805 176.092,-205.365 182.427,-208.344"/>
</g>
<!-- ST -->
<g id="node3" class="node"><title>ST</title>
<ellipse fill="none" stroke="black" cx="303.543" cy="-413.48" rx="31.6951" ry="18"/>
<text text-anchor="middle" x="303.543" y="-409.78" font-family="Times,serif" font-size="14.00">start()</text>
</g>
<!-- SU&#45;&gt;ST -->
<g id="edge2" class="edge"><title>SU&#45;&gt;ST</title>
<path fill="none" stroke="black" d="M253.738,-413.48C256.348,-413.48 258.958,-413.48 261.569,-413.48"/>
<polygon fill="black" stroke="black" points="261.637,-416.98 271.637,-413.48 261.637,-409.98 261.637,-416.98"/>
</g>
<!-- MW -->
<g id="node18" class="node"><title>MW</title>
<ellipse fill="none" stroke="black" cx="319.543" cy="-179.74" rx="38.1938" ry="18"/>
<text text-anchor="middle" x="319.543" y="-176.04" font-family="Times,serif" font-size="14.00">While()</text>
</g>
<!-- SU&#45;&gt;MW -->
<g id="edge6" class="edge"><title>SU&#45;&gt;MW</title>
<path fill="none" stroke="black" d="M229.896,-386.43C249.32,-341.863 288.71,-251.484 308.156,-206.865"/>
<polygon fill="black" stroke="black" points="226.593,-385.248 225.806,-395.814 233.01,-388.045 226.593,-385.248"/>
<polygon fill="black" stroke="black" points="311.422,-208.132 312.209,-197.567 305.005,-205.335 311.422,-208.132"/>
</g>
<!-- DE -->
<g id="node4" class="node"><title>DE</title>
<ellipse fill="none" stroke="black" cx="452.543" cy="-332.61" rx="81.135" ry="26.7407"/>
<text text-anchor="middle" x="452.543" y="-336.41" font-family="Times,serif" font-size="14.00">Exercise in class: </text>
<text text-anchor="middle" x="452.543" y="-321.41" font-family="Times,serif" font-size="14.00">Decode</text>
</g>
<!-- ST&#45;&gt;DE -->
<g id="edge3" class="edge"><title>ST&#45;&gt;DE</title>
<path fill="none" stroke="black" d="M326.173,-400.502C346.199,-389.901 376.154,-374.045 401.873,-360.431"/>
<polygon fill="black" stroke="black" points="403.569,-363.493 410.77,-355.722 400.294,-357.307 403.569,-363.493"/>
</g>
<!-- ST&#45;&gt;MW -->
<g id="edge27" class="edge"><title>ST&#45;&gt;MW</title>
<path fill="none" stroke="black" d="M303.48,-395.423C303.524,-363.565 304.388,-292.891 310.543,-233.74 311.426,-225.255 312.825,-216.072 314.26,-207.772"/>
<polygon fill="black" stroke="black" points="317.719,-208.313 316.061,-197.849 310.832,-207.063 317.719,-208.313"/>
</g>
<!-- SC -->
<g id="node5" class="node"><title>SC</title>
<ellipse fill="none" stroke="black" cx="658.543" cy="-332.61" rx="55.7903" ry="18"/>
<text text-anchor="middle" x="658.543" y="-328.91" font-family="Times,serif" font-size="14.00">Source Code</text>
</g>
<!-- DE&#45;&gt;SC -->
<g id="edge4" class="edge"><title>DE&#45;&gt;SC</title>
<path fill="none" stroke="black" d="M534.218,-332.61C553.518,-332.61 572.817,-332.61 592.116,-332.61"/>
<polygon fill="black" stroke="black" points="592.208,-336.11 602.208,-332.61 592.208,-329.11 592.208,-336.11"/>
</g>
<!-- DOM -->
<g id="node6" class="node"><title>DOM</title>
<ellipse fill="none" stroke="black" cx="511.543" cy="-251.74" rx="65.7887" ry="18"/>
<text text-anchor="middle" x="511.543" y="-248.04" font-family="Times,serif" font-size="14.00">DOM elements</text>
</g>
<!-- SC&#45;&gt;DOM -->
<g id="edge10" class="edge"><title>SC&#45;&gt;DOM</title>
<path fill="none" stroke="black" d="M630.893,-316.775C607.783,-304.376 574.603,-286.574 549.09,-272.886"/>
<polygon fill="black" stroke="black" points="550.538,-269.69 540.071,-268.046 547.228,-275.858 550.538,-269.69"/>
</g>
<!-- MC -->
<g id="node7" class="node"><title>MC</title>
<ellipse fill="none" stroke="black" cx="658.543" cy="-251.74" rx="63.8893" ry="18"/>
<text text-anchor="middle" x="658.543" y="-248.04" font-family="Times,serif" font-size="14.00">Mouse capture</text>
</g>
<!-- SC&#45;&gt;MC -->
<g id="edge11" class="edge"><title>SC&#45;&gt;MC</title>
<path fill="none" stroke="black" d="M658.543,-314.497C658.543,-304.471 658.543,-291.576 658.543,-280.165"/>
<polygon fill="black" stroke="black" points="662.043,-279.82 658.543,-269.82 655.043,-279.82 662.043,-279.82"/>
</g>
<!-- KC -->
<g id="node8" class="node"><title>KC</title>
<ellipse fill="none" stroke="black" cx="813.543" cy="-251.74" rx="73.387" ry="18"/>
<text text-anchor="middle" x="813.543" y="-248.04" font-family="Times,serif" font-size="14.00">Keyboard capture</text>
</g>
<!-- SC&#45;&gt;KC -->
<g id="edge12" class="edge"><title>SC&#45;&gt;KC</title>
<path fill="none" stroke="black" d="M687.334,-316.96C711.69,-304.567 746.839,-286.681 773.862,-272.931"/>
<polygon fill="black" stroke="black" points="775.725,-275.91 783.05,-268.256 772.551,-269.671 775.725,-275.91"/>
</g>
<!-- AC -->
<g id="node9" class="node"><title>AC</title>
<ellipse fill="none" stroke="black" cx="966.543" cy="-251.74" rx="61.1893" ry="18"/>
<text text-anchor="middle" x="966.543" y="-248.04" font-family="Times,serif" font-size="14.00">Audio capture</text>
</g>
<!-- SC&#45;&gt;AC -->
<g id="edge13" class="edge"><title>SC&#45;&gt;AC</title>
<path fill="none" stroke="black" d="M701.045,-320.726C756.071,-306.636 852.029,-282.064 912.268,-266.638"/>
<polygon fill="black" stroke="black" points="913.164,-270.022 921.983,-264.151 911.427,-263.241 913.164,-270.022"/>
</g>
<!-- FT -->
<g id="node10" class="node"><title>FT</title>
<ellipse fill="none" stroke="black" cx="373.543" cy="-251.74" rx="53.8905" ry="18"/>
<text text-anchor="middle" x="373.543" y="-248.04" font-family="Times,serif" font-size="14.00">Face tracker</text>
</g>
<!-- SC&#45;&gt;FT -->
<g id="edge14" class="edge"><title>SC&#45;&gt;FT</title>
<path fill="none" stroke="black" d="M617.709,-320.31C566.56,-306.155 478.948,-281.91 423.753,-266.635"/>
<polygon fill="black" stroke="black" points="424.411,-263.186 413.84,-263.892 422.544,-269.932 424.411,-263.186"/>
</g>
<!-- CC -->
<g id="node12" class="node"><title>CC</title>
<ellipse fill="none" stroke="black" cx="658.543" cy="-98.8701" rx="96.3833" ry="18"/>
<text text-anchor="middle" x="658.543" y="-95.1701" font-family="Times,serif" font-size="14.00">The Concept of Capture</text>
</g>
<!-- SC&#45;&gt;CC -->
<g id="edge21" class="edge"><title>SC&#45;&gt;CC</title>
<path fill="none" stroke="black" d="M724.348,-330.676C821.801,-327.742 997.245,-315.993 1036.54,-269.74 1122.04,-169.111 890.664,-125.459 752.818,-108.809"/>
<polygon fill="black" stroke="black" points="724.203,-327.179 714.304,-330.956 724.398,-334.176 724.203,-327.179"/>
<polygon fill="black" stroke="black" points="752.993,-105.305 742.651,-107.609 752.172,-112.257 752.993,-105.305"/>
</g>
<!-- EiC -->
<g id="node11" class="node"><title>EiC</title>
<ellipse fill="none" stroke="black" cx="658.543" cy="-179.74" rx="69.5877" ry="18"/>
<text text-anchor="middle" x="658.543" y="-176.04" font-family="Times,serif" font-size="14.00">Exercise in class</text>
</g>
<!-- DOM&#45;&gt;EiC -->
<g id="edge15" class="edge"><title>DOM&#45;&gt;EiC</title>
<path fill="none" stroke="black" d="M542.718,-235.895C564.592,-225.479 594.053,-211.45 617.788,-200.147"/>
<polygon fill="black" stroke="black" points="619.382,-203.265 626.906,-195.805 616.373,-196.945 619.382,-203.265"/>
</g>
<!-- MC&#45;&gt;EiC -->
<g id="edge16" class="edge"><title>MC&#45;&gt;EiC</title>
<path fill="none" stroke="black" d="M658.543,-233.437C658.543,-225.723 658.543,-216.453 658.543,-207.853"/>
<polygon fill="black" stroke="black" points="662.043,-207.844 658.543,-197.844 655.043,-207.844 662.043,-207.844"/>
</g>
<!-- KC&#45;&gt;EiC -->
<g id="edge17" class="edge"><title>KC&#45;&gt;EiC</title>
<path fill="none" stroke="black" d="M779.91,-235.551C756.699,-225.069 725.659,-211.051 700.781,-199.816"/>
<polygon fill="black" stroke="black" points="702.132,-196.585 691.577,-195.659 699.25,-202.965 702.132,-196.585"/>
</g>
<!-- AC&#45;&gt;EiC -->
<g id="edge18" class="edge"><title>AC&#45;&gt;EiC</title>
<path fill="none" stroke="black" d="M920.735,-239.665C912.359,-237.671 903.692,-235.627 895.543,-233.74 835.912,-219.934 767.697,-204.743 719.81,-194.177"/>
<polygon fill="black" stroke="black" points="720.429,-190.729 709.91,-191.994 718.922,-197.565 720.429,-190.729"/>
</g>
<!-- FT&#45;&gt;EiC -->
<g id="edge19" class="edge"><title>FT&#45;&gt;EiC</title>
<path fill="none" stroke="black" d="M413.827,-239.682C421.365,-237.666 429.186,-235.61 436.543,-233.74 491.168,-219.853 553.628,-205.035 598.352,-194.609"/>
<polygon fill="black" stroke="black" points="599.237,-197.996 608.183,-192.321 597.65,-191.178 599.237,-197.996"/>
</g>
<!-- EiC&#45;&gt;CC -->
<g id="edge20" class="edge"><title>EiC&#45;&gt;CC</title>
<path fill="none" stroke="black" d="M658.543,-161.626C658.543,-151.601 658.543,-138.706 658.543,-127.295"/>
<polygon fill="black" stroke="black" points="662.043,-126.95 658.543,-116.95 655.043,-126.95 662.043,-126.95"/>
</g>
<!-- WA -->
<g id="node13" class="node"><title>WA</title>
<ellipse fill="none" stroke="black" cx="313.543" cy="-18" rx="113.98" ry="18"/>
<text text-anchor="middle" x="313.543" y="-14.3" font-family="Times,serif" font-size="14.00">Web Analytics and Heatmap</text>
</g>
<!-- CC&#45;&gt;WA -->
<g id="edge22" class="edge"><title>CC&#45;&gt;WA</title>
<path fill="none" stroke="black" d="M600.018,-84.4908C540.802,-70.9535 449.152,-50.0015 385.525,-35.4557"/>
<polygon fill="black" stroke="black" points="386.091,-31.995 375.563,-33.1783 384.531,-38.8189 386.091,-31.995"/>
</g>
<!-- FE -->
<g id="node14" class="node"><title>FE</title>
<ellipse fill="none" stroke="black" cx="509.543" cy="-18" rx="64.189" ry="18"/>
<text text-anchor="middle" x="509.543" y="-14.3" font-family="Times,serif" font-size="14.00">Form elements</text>
</g>
<!-- CC&#45;&gt;FE -->
<g id="edge23" class="edge"><title>CC&#45;&gt;FE</title>
<path fill="none" stroke="black" d="M628.031,-81.7192C604.6,-69.3165 572.125,-52.1265 547.098,-38.8789"/>
<polygon fill="black" stroke="black" points="548.72,-35.7777 538.244,-34.1927 545.445,-41.9644 548.72,-35.7777"/>
</g>
<!-- ML -->
<g id="node15" class="node"><title>ML</title>
<ellipse fill="none" stroke="black" cx="658.543" cy="-18" rx="66.8882" ry="18"/>
<text text-anchor="middle" x="658.543" y="-14.3" font-family="Times,serif" font-size="14.00">Metrics of likes</text>
</g>
<!-- CC&#45;&gt;ML -->
<g id="edge24" class="edge"><title>CC&#45;&gt;ML</title>
<path fill="none" stroke="black" d="M658.543,-80.7564C658.543,-70.7312 658.543,-57.8362 658.543,-46.4246"/>
<polygon fill="black" stroke="black" points="662.043,-46.0802 658.543,-36.0802 655.043,-46.0803 662.043,-46.0802"/>
</g>
<!-- VD -->
<g id="node16" class="node"><title>VD</title>
<ellipse fill="none" stroke="black" cx="829.543" cy="-18" rx="85.5853" ry="18"/>
<text text-anchor="middle" x="829.543" y="-14.3" font-family="Times,serif" font-size="14.00">Voice and audio data</text>
</g>
<!-- CC&#45;&gt;VD -->
<g id="edge25" class="edge"><title>CC&#45;&gt;VD</title>
<path fill="none" stroke="black" d="M693.147,-81.9095C719.977,-69.5348 757.32,-52.3112 786.15,-39.0139"/>
<polygon fill="black" stroke="black" points="787.959,-42.0342 795.573,-34.6676 785.027,-35.6777 787.959,-42.0342"/>
</g>
<!-- HT -->
<g id="node17" class="node"><title>HT</title>
<ellipse fill="none" stroke="black" cx="994.543" cy="-18" rx="61.1893" ry="18"/>
<text text-anchor="middle" x="994.543" y="-14.3" font-family="Times,serif" font-size="14.00">Health tracker</text>
</g>
<!-- CC&#45;&gt;HT -->
<g id="edge26" class="edge"><title>CC&#45;&gt;HT</title>
<path fill="none" stroke="black" d="M716.698,-84.5147C770.613,-72.0924 853.045,-52.9965 924.543,-36 929.238,-34.8837 934.109,-33.7177 938.996,-32.5422"/>
<polygon fill="black" stroke="black" points="940.096,-35.8771 948.996,-30.1291 938.454,-29.0724 940.096,-35.8771"/>
</g>
<!-- CC&#45;&gt;MW -->
<g id="edge28" class="edge"><title>CC&#45;&gt;MW</title>
<path fill="none" stroke="black" d="M600.742,-113.318C533.469,-128.969 423.886,-154.464 363.293,-168.561"/>
<polygon fill="black" stroke="black" points="362.233,-165.214 353.287,-170.889 363.82,-172.032 362.233,-165.214"/>
</g>
<!-- MW&#45;&gt;MX -->
<g id="edge30" class="edge"><title>MW&#45;&gt;MX</title>
<path fill="none" stroke="black" d="M297.247,-165.002C280.2,-154.498 256.16,-139.686 235.313,-126.84"/>
<polygon fill="black" stroke="black" points="236.954,-123.74 226.604,-121.474 233.281,-129.699 236.954,-123.74"/>
</g>
<!-- Notes -->
<g id="node21" class="node"><title>Notes</title>
<ellipse fill="none" stroke="black" cx="319.543" cy="-98.8701" rx="31.3957" ry="18"/>
<text text-anchor="middle" x="319.543" y="-95.1701" font-family="Times,serif" font-size="14.00">Notes</text>
</g>
<!-- MW&#45;&gt;Notes -->
<g id="edge29" class="edge"><title>MW&#45;&gt;Notes</title>
<path fill="none" stroke="black" d="M319.543,-161.626C319.543,-151.601 319.543,-138.706 319.543,-127.295"/>
<polygon fill="black" stroke="black" points="323.043,-126.95 319.543,-116.95 316.043,-126.95 323.043,-126.95"/>
</g>
<!-- RR&#45;&gt;SU -->
<g id="edge9" class="edge"><title>RR&#45;&gt;SU</title>
<path fill="none" stroke="black" d="M193.531,-197.805C198.176,-237.673 209.771,-337.19 215.39,-385.424"/>
<polygon fill="black" stroke="black" points="211.923,-385.912 216.557,-395.44 218.876,-385.102 211.923,-385.912"/>
</g>
<!-- RR&#45;&gt;MX -->
<g id="edge8" class="edge"><title>RR&#45;&gt;MX</title>
<path fill="none" stroke="black" d="M191.543,-161.626C191.543,-154.137 191.543,-145.046 191.543,-136.168"/>
<polygon fill="black" stroke="black" points="195.043,-135.953 191.543,-125.953 188.043,-135.953 195.043,-135.953"/>
</g>
</g>
</svg>
