<?xml version="1.0" encoding="UTF-8" standalone="no"?>
<!DOCTYPE svg PUBLIC "-//W3C//DTD SVG 1.1//EN"
 "http://www.w3.org/Graphics/SVG/1.1/DTD/svg11.dtd">
<!-- Generated by graphviz version 2.38.0 (20140413.2041)
 -->
<!-- Title: G Pages: 1 -->
<svg width="640pt" height="655pt"
 viewBox="0.00 0.00 639.50 655.48" xmlns="http://www.w3.org/2000/svg" xmlns:xlink="http://www.w3.org/1999/xlink">
<g id="graph0" class="graph" transform="scale(1 1) rotate(0) translate(4 651.48)">
<title>G</title>
<polygon fill="white" stroke="none" points="-4,4 -4,-651.48 635.5,-651.48 635.5,4 -4,4"/>
<!-- GS -->
<g id="node1" class="node"><title>GS</title>
<polygon fill="none" stroke="black" points="631.5,-647.48 508.5,-647.48 508.5,-611.48 631.5,-611.48 631.5,-647.48"/>
<text text-anchor="middle" x="570" y="-625.78" font-family="Hershey-Noailles-help-me" font-size="14.00">7. Vocable code</text>
</g>
<!-- SU -->
<g id="node2" class="node"><title>SU</title>
<ellipse fill="none" stroke="black" cx="377" cy="-557.48" rx="42.4939" ry="18"/>
<text text-anchor="middle" x="377" y="-553.78" font-family="Hershey-Noailles-help-me" font-size="14.00">setup()</text>
</g>
<!-- GS&#45;&gt;SU -->
<g id="edge1" class="edge"><title>GS&#45;&gt;SU</title>
<path fill="none" stroke="black" d="M522.787,-611.356C490.563,-599.669 448.317,-584.347 417.602,-573.206"/>
<polygon fill="black" stroke="black" points="418.657,-569.866 408.062,-569.746 416.27,-576.446 418.657,-569.866"/>
</g>
<!-- MX -->
<g id="node11" class="node"><title>MX</title>
<ellipse fill="none" stroke="black" cx="472" cy="-26.8701" rx="45.9239" ry="26.7407"/>
<text text-anchor="middle" x="472" y="-30.6701" font-family="Hershey-Noailles-help-me" font-size="14.00">MiniX: </text>
<text text-anchor="middle" x="472" y="-15.6701" font-family="Hershey-Noailles-help-me" font-size="14.00">E&#45;lit</text>
</g>
<!-- GS&#45;&gt;MX -->
<g id="edge4" class="edge"><title>GS&#45;&gt;MX</title>
<path fill="none" stroke="black" d="M581.396,-611.379C597.506,-585.503 625,-534.332 625,-486.48 625,-486.48 625,-486.48 625,-178.74 625,-117.49 562.064,-72.7476 516.922,-48.5326"/>
<polygon fill="black" stroke="black" points="518.358,-45.3343 507.872,-43.8214 515.126,-51.5434 518.358,-45.3343"/>
</g>
<!-- RR -->
<g id="node12" class="node"><title>RR</title>
<ellipse fill="none" stroke="black" cx="510" cy="-251.74" rx="87.1846" ry="18"/>
<text text-anchor="middle" x="510" y="-248.04" font-family="Hershey-Noailles-help-me" font-size="14.00">Required reading</text>
</g>
<!-- GS&#45;&gt;RR -->
<g id="edge5" class="edge"><title>GS&#45;&gt;RR</title>
<path fill="none" stroke="black" d="M570,-601.4C570,-572.827 570,-526.484 570,-486.48 570,-486.48 570,-486.48 570,-403.61 570,-357.064 545.036,-307.793 527.313,-278.679"/>
<polygon fill="black" stroke="black" points="566.5,-601.431 570,-611.431 573.5,-601.431 566.5,-601.431"/>
<polygon fill="black" stroke="black" points="530.129,-276.581 521.854,-269.964 524.196,-280.296 530.129,-276.581"/>
</g>
<!-- ST -->
<g id="node3" class="node"><title>ST</title>
<ellipse fill="none" stroke="black" cx="253" cy="-485.48" rx="38.9931" ry="18"/>
<text text-anchor="middle" x="253" y="-481.78" font-family="Hershey-Noailles-help-me" font-size="14.00">start()</text>
</g>
<!-- SU&#45;&gt;ST -->
<g id="edge2" class="edge"><title>SU&#45;&gt;ST</title>
<path fill="none" stroke="black" d="M352.502,-542.65C333.442,-531.891 306.809,-516.856 285.893,-505.049"/>
<polygon fill="black" stroke="black" points="287.454,-501.911 277.026,-500.043 284.013,-508.007 287.454,-501.911"/>
</g>
<!-- MW -->
<g id="node10" class="node"><title>MW</title>
<ellipse fill="none" stroke="black" cx="105" cy="-107.74" rx="43.5923" ry="18"/>
<text text-anchor="middle" x="105" y="-104.04" font-family="Hershey-Noailles-help-me" font-size="14.00">While()</text>
</g>
<!-- SU&#45;&gt;MW -->
<g id="edge6" class="edge"><title>SU&#45;&gt;MW</title>
<path fill="none" stroke="black" d="M328.757,-547.708C227.068,-527.842 0,-475.642 0,-405.61 0,-405.61 0,-405.61 0,-250.74 0,-207.553 12.7403,-196.026 39,-161.74 48.4913,-149.348 61.4688,-138.115 73.4054,-129.212"/>
<polygon fill="black" stroke="black" points="328.295,-551.183 338.777,-549.64 329.62,-544.31 328.295,-551.183"/>
<polygon fill="black" stroke="black" points="75.7609,-131.83 81.8484,-123.159 71.682,-126.141 75.7609,-131.83"/>
</g>
<!-- DE -->
<g id="node4" class="node"><title>DE</title>
<ellipse fill="none" stroke="black" cx="193" cy="-404.61" rx="92.7622" ry="26.7407"/>
<text text-anchor="middle" x="193" y="-408.41" font-family="Hershey-Noailles-help-me" font-size="14.00">Exercise in class </text>
<text text-anchor="middle" x="193" y="-393.41" font-family="Hershey-Noailles-help-me" font-size="14.00">(Decode)</text>
</g>
<!-- ST&#45;&gt;DE -->
<g id="edge3" class="edge"><title>ST&#45;&gt;DE</title>
<path fill="none" stroke="black" d="M240.568,-468.138C234.186,-459.749 226.165,-449.206 218.539,-439.181"/>
<polygon fill="black" stroke="black" points="221.11,-436.779 212.269,-430.94 215.538,-441.018 221.11,-436.779"/>
</g>
<!-- EiC -->
<g id="node9" class="node"><title>EiC</title>
<ellipse fill="none" stroke="black" cx="417" cy="-179.74" rx="82.5854" ry="18"/>
<text text-anchor="middle" x="417" y="-176.04" font-family="Hershey-Noailles-help-me" font-size="14.00">Exercise in class</text>
</g>
<!-- ST&#45;&gt;EiC -->
<g id="edge20" class="edge"><title>ST&#45;&gt;EiC</title>
<path fill="none" stroke="black" d="M268.368,-468.43C277.208,-458.461 287.928,-445.005 295,-431.48 322.052,-379.745 307.997,-358.496 333,-305.74 350.63,-268.542 378.345,-229.821 397.073,-205.518"/>
<polygon fill="black" stroke="black" points="399.899,-207.586 403.291,-197.549 394.38,-203.28 399.899,-207.586"/>
</g>
<!-- ST&#45;&gt;MW -->
<g id="edge14" class="edge"><title>ST&#45;&gt;MW</title>
<path fill="none" stroke="black" d="M205.139,-478.844C170.033,-472.52 123.085,-459.229 91,-431.48 50.9381,-396.832 38,-377.706 38,-324.74 38,-324.74 38,-324.74 38,-250.74 38,-210.293 38.5694,-197.744 57,-161.74 62.6877,-150.629 71.3122,-140.07 79.6891,-131.344"/>
<polygon fill="black" stroke="black" points="204.723,-482.323 215.163,-480.52 205.877,-475.418 204.723,-482.323"/>
<polygon fill="black" stroke="black" points="82.2755,-133.708 86.9068,-124.179 77.344,-128.74 82.2755,-133.708"/>
</g>
<!-- TX -->
<g id="node5" class="node"><title>TX</title>
<ellipse fill="none" stroke="black" cx="225" cy="-323.74" rx="55.4913" ry="18"/>
<text text-anchor="middle" x="225" y="-320.04" font-family="Hershey-Noailles-help-me" font-size="14.00">Textuality</text>
</g>
<!-- DE&#45;&gt;TX -->
<g id="edge9" class="edge"><title>DE&#45;&gt;TX</title>
<path fill="none" stroke="black" d="M203.478,-377.785C206.937,-369.261 210.788,-359.769 214.265,-351.198"/>
<polygon fill="black" stroke="black" points="217.614,-352.254 218.13,-341.672 211.127,-349.622 217.614,-352.254"/>
</g>
<!-- SC -->
<g id="node8" class="node"><title>SC</title>
<ellipse fill="none" stroke="black" cx="219" cy="-251.74" rx="66.8882" ry="18"/>
<text text-anchor="middle" x="219" y="-248.04" font-family="Hershey-Noailles-help-me" font-size="14.00">Source Code</text>
</g>
<!-- DE&#45;&gt;SC -->
<g id="edge18" class="edge"><title>DE&#45;&gt;SC</title>
<path fill="none" stroke="black" d="M169.469,-369.231C159.46,-350.179 151.952,-326.264 161,-305.74 166.297,-293.725 175.811,-283.252 185.623,-274.86"/>
<polygon fill="black" stroke="black" points="166.549,-371.179 174.521,-378.157 172.641,-367.731 166.549,-371.179"/>
<polygon fill="black" stroke="black" points="187.849,-277.561 193.48,-268.586 183.482,-272.09 187.849,-277.561"/>
</g>
<!-- TX&#45;&gt;SC -->
<g id="edge10" class="edge"><title>TX&#45;&gt;SC</title>
<path fill="none" stroke="black" d="M222.657,-295.405C222.219,-290.292 221.761,-284.95 221.323,-279.844"/>
<polygon fill="black" stroke="black" points="219.176,-295.772 223.517,-305.437 226.15,-295.174 219.176,-295.772"/>
<polygon fill="black" stroke="black" points="224.807,-279.509 220.466,-269.844 217.833,-280.107 224.807,-279.509"/>
</g>
<!-- CO -->
<g id="node6" class="node"><title>CO</title>
<ellipse fill="none" stroke="black" cx="172" cy="-179.74" rx="105.881" ry="18"/>
<text text-anchor="middle" x="172" y="-176.04" font-family="Hershey-Noailles-help-me" font-size="14.00">Conditional structure</text>
</g>
<!-- CO&#45;&gt;MW -->
<g id="edge19" class="edge"><title>CO&#45;&gt;MW</title>
<path fill="none" stroke="black" d="M148.647,-154.342C141.833,-147.223 134.401,-139.457 127.632,-132.385"/>
<polygon fill="black" stroke="black" points="146.338,-156.991 155.781,-161.795 151.395,-152.151 146.338,-156.991"/>
<polygon fill="black" stroke="black" points="130.051,-129.851 120.608,-125.047 124.994,-134.691 130.051,-129.851"/>
</g>
<!-- JS -->
<g id="node7" class="node"><title>JS</title>
<ellipse fill="none" stroke="black" cx="361" cy="-107.74" rx="33.5952" ry="18"/>
<text text-anchor="middle" x="361" y="-104.04" font-family="Hershey-Noailles-help-me" font-size="14.00">JSON</text>
</g>
<!-- JS&#45;&gt;MX -->
<g id="edge15" class="edge"><title>JS&#45;&gt;MX</title>
<path fill="none" stroke="black" d="M380.589,-92.8213C395.565,-82.1802 416.655,-67.1952 434.804,-54.2996"/>
<polygon fill="black" stroke="black" points="437.313,-56.8104 443.437,-48.165 433.258,-51.1041 437.313,-56.8104"/>
</g>
<!-- SC&#45;&gt;CO -->
<g id="edge12" class="edge"><title>SC&#45;&gt;CO</title>
<path fill="none" stroke="black" d="M202.017,-225.446C197.909,-219.327 193.512,-212.779 189.386,-206.634"/>
<polygon fill="black" stroke="black" points="199.142,-227.444 207.623,-233.795 204.954,-223.542 199.142,-227.444"/>
<polygon fill="black" stroke="black" points="192.079,-204.367 183.599,-198.015 186.268,-208.269 192.079,-204.367"/>
</g>
<!-- SC&#45;&gt;JS -->
<g id="edge13" class="edge"><title>SC&#45;&gt;JS</title>
<path fill="none" stroke="black" d="M250.418,-228.488C262.345,-219.477 275.755,-208.636 287,-197.74 308.025,-177.369 329.086,-151.36 343.332,-132.727"/>
<polygon fill="black" stroke="black" points="247.991,-225.931 242.047,-234.701 252.163,-231.552 247.991,-225.931"/>
<polygon fill="black" stroke="black" points="346.137,-134.821 349.374,-124.732 340.553,-130.6 346.137,-134.821"/>
</g>
<!-- SC&#45;&gt;EiC -->
<g id="edge11" class="edge"><title>SC&#45;&gt;EiC</title>
<path fill="none" stroke="black" d="M258.118,-236.91C288.994,-225.995 332.316,-210.679 365.926,-198.797"/>
<polygon fill="black" stroke="black" points="367.312,-202.019 375.574,-195.386 364.979,-195.419 367.312,-202.019"/>
</g>
<!-- MW&#45;&gt;MX -->
<g id="edge16" class="edge"><title>MW&#45;&gt;MX</title>
<path fill="none" stroke="black" d="M142.893,-98.5967C208.661,-84.463 344.073,-55.3622 419.08,-39.2428"/>
<polygon fill="black" stroke="black" points="420.208,-42.5803 429.25,-37.0573 418.738,-35.7366 420.208,-42.5803"/>
</g>
<!-- Notes -->
<g id="node14" class="node"><title>Notes</title>
<ellipse fill="none" stroke="black" cx="105" cy="-26.8701" rx="36.2938" ry="18"/>
<text text-anchor="middle" x="105" y="-23.1701" font-family="Hershey-Noailles-help-me" font-size="14.00">Notes</text>
</g>
<!-- MW&#45;&gt;Notes -->
<g id="edge17" class="edge"><title>MW&#45;&gt;Notes</title>
<path fill="none" stroke="black" d="M105,-89.6265C105,-79.6013 105,-66.7063 105,-55.2947"/>
<polygon fill="black" stroke="black" points="108.5,-54.9503 105,-44.9503 101.5,-54.9503 108.5,-54.9503"/>
</g>
<!-- RR&#45;&gt;SU -->
<g id="edge8" class="edge"><title>RR&#45;&gt;SU</title>
<path fill="none" stroke="black" d="M513.679,-269.861C516.884,-288.074 520.019,-317.537 513,-341.74 490.544,-419.166 430.882,-495.442 398.55,-532.781"/>
<polygon fill="black" stroke="black" points="395.68,-530.745 391.711,-540.568 400.939,-535.364 395.68,-530.745"/>
</g>
<!-- RR&#45;&gt;MX -->
<g id="edge7" class="edge"><title>RR&#45;&gt;MX</title>
<path fill="none" stroke="black" d="M511.112,-233.579C511.974,-215.583 512.504,-186.526 509,-161.74 504.181,-127.655 493.23,-89.9542 484.485,-63.2701"/>
<polygon fill="black" stroke="black" points="487.747,-61.9887 481.259,-53.6131 481.108,-64.2069 487.747,-61.9887"/>
</g>
<!-- FR -->
<g id="node13" class="node"><title>FR</title>
<ellipse fill="none" stroke="black" cx="423" cy="-323.74" rx="81.4863" ry="18"/>
<text text-anchor="middle" x="423" y="-320.04" font-family="Hershey-Noailles-help-me" font-size="14.00">Further reading</text>
</g>
<!-- RR&#45;&gt;FR -->
<g id="edge21" class="edge"><title>RR&#45;&gt;FR</title>
<path fill="none" stroke="black" d="M489.229,-269.453C478.017,-278.474 464.003,-289.749 451.757,-299.602"/>
<polygon fill="black" stroke="black" points="449.215,-297.155 443.618,-306.151 453.603,-302.609 449.215,-297.155"/>
</g>
</g>
</svg>
