<?xml version="1.0" encoding="UTF-8" standalone="no"?>
<!DOCTYPE svg PUBLIC "-//W3C//DTD SVG 1.1//EN"
 "http://www.w3.org/Graphics/SVG/1.1/DTD/svg11.dtd">
<!-- Generated by graphviz version 2.38.0 (20140413.2041)
 -->
<!-- Title: G Pages: 1 -->
<svg width="623pt" height="511pt"
 viewBox="0.00 0.00 622.52 511.48" xmlns="http://www.w3.org/2000/svg" xmlns:xlink="http://www.w3.org/1999/xlink">
<g id="graph0" class="graph" transform="scale(1 1) rotate(0) translate(4 507.48)">
<title>G</title>
<polygon fill="white" stroke="none" points="-4,4 -4,-507.48 618.522,-507.48 618.522,4 -4,4"/>
<!-- GS -->
<g id="node1" class="node"><title>GS</title>
<ellipse fill="none" stroke="grey" stroke-width="2" cx="477.317" cy="-485.48" rx="85.5853" ry="18"/>
<text text-anchor="middle" x="477.317" y="-481.78" font-family="Times,serif" font-size="14.00">Ch.7 &#45; Vocable Code</text>
</g>
<!-- SU -->
<g id="node2" class="node"><title>SU</title>
<ellipse fill="none" stroke="black" cx="301.317" cy="-341.48" rx="35.194" ry="18"/>
<text text-anchor="middle" x="301.317" y="-337.78" font-family="Times,serif" font-size="14.00">setup()</text>
</g>
<!-- GS&#45;&gt;SU -->
<g id="edge1" class="edge"><title>GS&#45;&gt;SU</title>
<path fill="none" stroke="black" d="M450.628,-468.331C434.707,-458.326 414.343,-444.868 397.317,-431.48 370.742,-410.584 342.638,-383.923 323.755,-365.251"/>
<polygon fill="black" stroke="black" points="325.811,-362.359 316.258,-357.779 320.869,-367.317 325.811,-362.359"/>
</g>
<!-- MX -->
<g id="node12" class="node"><title>MX</title>
<ellipse fill="none" stroke="black" cx="564.317" cy="-98.8701" rx="50.41" ry="26.7407"/>
<text text-anchor="middle" x="564.317" y="-102.67" font-family="Times,serif" font-size="14.00">MiniX 7: </text>
<text text-anchor="middle" x="564.317" y="-87.6701" font-family="Times,serif" font-size="14.00">E&#45;lit</text>
</g>
<!-- GS&#45;&gt;MX -->
<g id="edge5" class="edge"><title>GS&#45;&gt;MX</title>
<path fill="none" stroke="black" d="M509.025,-468.602C525.008,-459.417 543.81,-446.668 557.317,-431.48 586.774,-398.36 602.317,-386.805 602.317,-342.48 602.317,-342.48 602.317,-342.48 602.317,-259.61 602.317,-215.882 588.673,-167.203 577.736,-135.207"/>
<polygon fill="black" stroke="black" points="580.919,-133.707 574.301,-125.433 574.315,-136.028 580.919,-133.707"/>
</g>
<!-- RR -->
<g id="node13" class="node"><title>RR</title>
<ellipse fill="none" stroke="black" cx="477.317" cy="-413.48" rx="71.4873" ry="18"/>
<text text-anchor="middle" x="477.317" y="-409.78" font-family="Times,serif" font-size="14.00">Required reading</text>
</g>
<!-- GS&#45;&gt;RR -->
<g id="edge4" class="edge"><title>GS&#45;&gt;RR</title>
<path fill="none" stroke="black" d="M477.317,-467.177C477.317,-459.463 477.317,-450.193 477.317,-441.593"/>
<polygon fill="black" stroke="black" points="480.817,-441.585 477.317,-431.585 473.817,-441.585 480.817,-441.585"/>
</g>
<!-- ST -->
<g id="node3" class="node"><title>ST</title>
<ellipse fill="none" stroke="black" cx="386.317" cy="-341.48" rx="31.6951" ry="18"/>
<text text-anchor="middle" x="386.317" y="-337.78" font-family="Times,serif" font-size="14.00">start()</text>
</g>
<!-- SU&#45;&gt;ST -->
<g id="edge2" class="edge"><title>SU&#45;&gt;ST</title>
<path fill="none" stroke="black" d="M336.513,-341.48C339.123,-341.48 341.733,-341.48 344.343,-341.48"/>
<polygon fill="black" stroke="black" points="344.411,-344.98 354.411,-341.48 344.411,-337.98 344.411,-344.98"/>
</g>
<!-- DE -->
<g id="node4" class="node"><title>DE</title>
<ellipse fill="none" stroke="black" cx="81.3173" cy="-260.61" rx="81.135" ry="26.7407"/>
<text text-anchor="middle" x="81.3173" y="-264.41" font-family="Times,serif" font-size="14.00">Exercise in class: </text>
<text text-anchor="middle" x="81.3173" y="-249.41" font-family="Times,serif" font-size="14.00">Decode</text>
</g>
<!-- ST&#45;&gt;DE -->
<g id="edge3" class="edge"><title>ST&#45;&gt;DE</title>
<path fill="none" stroke="black" d="M362.314,-329.64C356.802,-327.401 350.915,-325.203 345.317,-323.48 269.839,-300.253 247.988,-306.402 171.317,-287.48 164.372,-285.766 157.156,-283.877 149.967,-281.924"/>
<polygon fill="black" stroke="black" points="150.779,-278.517 140.208,-279.231 148.917,-285.265 150.779,-278.517"/>
</g>
<!-- TX -->
<g id="node5" class="node"><title>TX</title>
<ellipse fill="none" stroke="black" cx="227.317" cy="-260.61" rx="46.5926" ry="18"/>
<text text-anchor="middle" x="227.317" y="-256.91" font-family="Times,serif" font-size="14.00">Textuality</text>
</g>
<!-- ST&#45;&gt;TX -->
<g id="edge8" class="edge"><title>ST&#45;&gt;TX</title>
<path fill="none" stroke="black" d="M363.197,-329.012C337.127,-316.08 294.391,-294.881 263.806,-279.71"/>
<polygon fill="black" stroke="black" points="265.25,-276.52 254.737,-275.211 262.14,-282.79 265.25,-276.52"/>
</g>
<!-- CO -->
<g id="node7" class="node"><title>CO</title>
<ellipse fill="none" stroke="black" cx="287.317" cy="-179.74" rx="49.2915" ry="18"/>
<text text-anchor="middle" x="287.317" y="-176.04" font-family="Times,serif" font-size="14.00">Conditions</text>
</g>
<!-- ST&#45;&gt;CO -->
<g id="edge10" class="edge"><title>ST&#45;&gt;CO</title>
<path fill="none" stroke="black" d="M376.28,-324.284C359.026,-296.444 323.618,-239.313 303.057,-206.136"/>
<polygon fill="black" stroke="black" points="305.921,-204.114 297.678,-197.458 299.971,-207.802 305.921,-204.114"/>
</g>
<!-- JS -->
<g id="node8" class="node"><title>JS</title>
<ellipse fill="none" stroke="black" cx="386.317" cy="-179.74" rx="31.6951" ry="18"/>
<text text-anchor="middle" x="386.317" y="-176.04" font-family="Times,serif" font-size="14.00">JSON</text>
</g>
<!-- ST&#45;&gt;JS -->
<g id="edge11" class="edge"><title>ST&#45;&gt;JS</title>
<path fill="none" stroke="black" d="M386.317,-323.385C386.317,-295.907 386.317,-241.649 386.317,-208.544"/>
<polygon fill="black" stroke="black" points="389.817,-208.196 386.317,-198.196 382.817,-208.196 389.817,-208.196"/>
</g>
<!-- MW -->
<g id="node11" class="node"><title>MW</title>
<ellipse fill="none" stroke="black" cx="467.317" cy="-260.61" rx="38.1938" ry="18"/>
<text text-anchor="middle" x="467.317" y="-256.91" font-family="Times,serif" font-size="14.00">While()</text>
</g>
<!-- ST&#45;&gt;MW -->
<g id="edge17" class="edge"><title>ST&#45;&gt;MW</title>
<path fill="none" stroke="black" d="M401.553,-325.645C413.54,-313.974 430.442,-297.515 444.11,-284.207"/>
<polygon fill="black" stroke="black" points="446.596,-286.672 451.319,-277.188 441.712,-281.657 446.596,-286.672"/>
</g>
<!-- TP -->
<g id="node6" class="node"><title>TP</title>
<ellipse fill="none" stroke="black" cx="153.317" cy="-179.74" rx="28.6953" ry="18"/>
<text text-anchor="middle" x="153.317" y="-176.04" font-family="Times,serif" font-size="14.00">Type</text>
</g>
<!-- TX&#45;&gt;TP -->
<g id="edge9" class="edge"><title>TX&#45;&gt;TP</title>
<path fill="none" stroke="black" d="M211.984,-243.268C201.116,-231.685 186.398,-215.998 174.422,-203.234"/>
<polygon fill="black" stroke="black" points="176.774,-200.625 167.379,-195.727 171.669,-205.415 176.774,-200.625"/>
</g>
<!-- SC -->
<g id="node9" class="node"><title>SC</title>
<ellipse fill="none" stroke="black" cx="248.317" cy="-98.8701" rx="55.7903" ry="18"/>
<text text-anchor="middle" x="248.317" y="-95.1701" font-family="Times,serif" font-size="14.00">Source Code</text>
</g>
<!-- TX&#45;&gt;SC -->
<g id="edge12" class="edge"><title>TX&#45;&gt;SC</title>
<path fill="none" stroke="black" d="M226.243,-242.509C225.338,-222.873 224.818,-189.763 229.317,-161.74 231.207,-149.97 234.794,-137.329 238.346,-126.561"/>
<polygon fill="black" stroke="black" points="241.727,-127.495 241.685,-116.9 235.111,-125.208 241.727,-127.495"/>
</g>
<!-- TP&#45;&gt;SC -->
<g id="edge13" class="edge"><title>TP&#45;&gt;SC</title>
<path fill="none" stroke="black" d="M169.865,-165.002C184.027,-153.244 204.692,-136.089 221.257,-122.336"/>
<polygon fill="black" stroke="black" points="223.556,-124.977 229.014,-115.896 219.084,-119.591 223.556,-124.977"/>
</g>
<!-- CO&#45;&gt;SC -->
<g id="edge14" class="edge"><title>CO&#45;&gt;SC</title>
<path fill="none" stroke="black" d="M278.855,-161.626C273.658,-151.116 266.901,-137.452 261.065,-125.65"/>
<polygon fill="black" stroke="black" points="264.199,-124.092 256.629,-116.679 257.924,-127.195 264.199,-124.092"/>
</g>
<!-- JS&#45;&gt;SC -->
<g id="edge15" class="edge"><title>JS&#45;&gt;SC</title>
<path fill="none" stroke="black" d="M364.755,-166.417C342.92,-153.937 308.801,-134.438 283.13,-119.766"/>
<polygon fill="black" stroke="black" points="284.855,-116.721 274.436,-114.798 281.382,-122.798 284.855,-116.721"/>
</g>
<!-- EiC -->
<g id="node10" class="node"><title>EiC</title>
<ellipse fill="none" stroke="black" cx="248.317" cy="-18" rx="69.5877" ry="18"/>
<text text-anchor="middle" x="248.317" y="-14.3" font-family="Times,serif" font-size="14.00">Exercise in class</text>
</g>
<!-- SC&#45;&gt;EiC -->
<g id="edge16" class="edge"><title>SC&#45;&gt;EiC</title>
<path fill="none" stroke="black" d="M248.317,-80.7564C248.317,-70.7312 248.317,-57.8362 248.317,-46.4246"/>
<polygon fill="black" stroke="black" points="251.817,-46.0802 248.317,-36.0802 244.817,-46.0803 251.817,-46.0802"/>
</g>
<!-- MW&#45;&gt;MX -->
<g id="edge19" class="edge"><title>MW&#45;&gt;MX</title>
<path fill="none" stroke="black" d="M478.224,-243.199C486.387,-230.806 497.747,-213.327 507.317,-197.74 520.226,-176.716 534.173,-152.791 545.04,-133.859"/>
<polygon fill="black" stroke="black" points="548.181,-135.418 550.11,-125 542.105,-131.941 548.181,-135.418"/>
</g>
<!-- Notes -->
<g id="node14" class="node"><title>Notes</title>
<ellipse fill="none" stroke="black" cx="467.317" cy="-179.74" rx="31.3957" ry="18"/>
<text text-anchor="middle" x="467.317" y="-176.04" font-family="Times,serif" font-size="14.00">Notes</text>
</g>
<!-- MW&#45;&gt;Notes -->
<g id="edge18" class="edge"><title>MW&#45;&gt;Notes</title>
<path fill="none" stroke="black" d="M467.317,-242.497C467.317,-232.471 467.317,-219.576 467.317,-208.165"/>
<polygon fill="black" stroke="black" points="470.817,-207.82 467.317,-197.82 463.817,-207.82 470.817,-207.82"/>
</g>
<!-- RR&#45;&gt;SU -->
<g id="edge7" class="edge"><title>RR&#45;&gt;SU</title>
<path fill="none" stroke="black" d="M440.85,-397.976C410.596,-385.943 367.794,-368.92 337.593,-356.908"/>
<polygon fill="black" stroke="black" points="338.848,-353.64 328.262,-353.197 336.26,-360.145 338.848,-353.64"/>
</g>
<!-- RR&#45;&gt;MX -->
<g id="edge6" class="edge"><title>RR&#45;&gt;MX</title>
<path fill="none" stroke="black" d="M482.615,-395.133C489.937,-371.036 503.473,-326.043 514.317,-287.48 529.122,-234.832 545.244,-173.561 555.068,-135.744"/>
<polygon fill="black" stroke="black" points="558.543,-136.284 557.665,-125.726 551.767,-134.527 558.543,-136.284"/>
</g>
</g>
</svg>
