<?xml version="1.0" encoding="UTF-8" standalone="no"?>
<!DOCTYPE svg PUBLIC "-//W3C//DTD SVG 1.1//EN"
 "http://www.w3.org/Graphics/SVG/1.1/DTD/svg11.dtd">
<!-- Generated by graphviz version 2.38.0 (20140413.2041)
 -->
<!-- Title: G Pages: 1 -->
<svg width="595pt" height="655pt"
 viewBox="0.00 0.00 594.79 655.48" xmlns="http://www.w3.org/2000/svg" xmlns:xlink="http://www.w3.org/1999/xlink">
<g id="graph0" class="graph" transform="scale(1 1) rotate(0) translate(4 651.48)">
<title>G</title>
<polygon fill="white" stroke="none" points="-4,4 -4,-651.48 590.792,-651.48 590.792,4 -4,4"/>
<!-- GS -->
<g id="node1" class="node"><title>GS</title>
<ellipse fill="none" stroke="grey" stroke-width="2" cx="501" cy="-629.48" rx="85.5853" ry="18"/>
<text text-anchor="middle" x="501" y="-625.78" font-family="Times,serif" font-size="14.00">Ch.7 &#45; Vocable Code</text>
</g>
<!-- SU -->
<g id="node2" class="node"><title>SU</title>
<ellipse fill="none" stroke="black" cx="329" cy="-557.48" rx="35.194" ry="18"/>
<text text-anchor="middle" x="329" y="-553.78" font-family="Times,serif" font-size="14.00">setup()</text>
</g>
<!-- GS&#45;&gt;SU -->
<g id="edge1" class="edge"><title>GS&#45;&gt;SU</title>
<path fill="none" stroke="black" d="M463.254,-613.118C434.024,-601.222 393.798,-584.851 365.014,-573.137"/>
<polygon fill="black" stroke="black" points="366.306,-569.884 355.724,-569.356 363.667,-576.368 366.306,-569.884"/>
</g>
<!-- MX -->
<g id="node11" class="node"><title>MX</title>
<ellipse fill="none" stroke="black" cx="411" cy="-26.8701" rx="43.2674" ry="26.7407"/>
<text text-anchor="middle" x="411" y="-30.6701" font-family="Times,serif" font-size="14.00">MiniX: </text>
<text text-anchor="middle" x="411" y="-15.6701" font-family="Times,serif" font-size="14.00">E&#45;lit</text>
</g>
<!-- GS&#45;&gt;MX -->
<g id="edge4" class="edge"><title>GS&#45;&gt;MX</title>
<path fill="none" stroke="black" d="M510.946,-611.186C525.005,-585.064 549,-533.582 549,-486.48 549,-486.48 549,-486.48 549,-178.74 549,-120.701 492.708,-75.2567 452.029,-49.9942"/>
<polygon fill="black" stroke="black" points="453.726,-46.9303 443.355,-44.7622 450.11,-52.9243 453.726,-46.9303"/>
</g>
<!-- RR -->
<g id="node12" class="node"><title>RR</title>
<ellipse fill="none" stroke="black" cx="450" cy="-251.74" rx="71.4873" ry="18"/>
<text text-anchor="middle" x="450" y="-248.04" font-family="Times,serif" font-size="14.00">Required reading</text>
</g>
<!-- GS&#45;&gt;RR -->
<g id="edge5" class="edge"><title>GS&#45;&gt;RR</title>
<path fill="none" stroke="black" d="M501,-601.4C501,-572.827 501,-526.484 501,-486.48 501,-486.48 501,-486.48 501,-403.61 501,-357.903 479.733,-308.315 464.666,-278.918"/>
<polygon fill="black" stroke="black" points="497.5,-601.431 501,-611.431 504.5,-601.431 497.5,-601.431"/>
<polygon fill="black" stroke="black" points="467.595,-276.969 459.833,-269.757 461.404,-280.235 467.595,-276.969"/>
</g>
<!-- ST -->
<g id="node3" class="node"><title>ST</title>
<ellipse fill="none" stroke="black" cx="220" cy="-485.48" rx="31.6951" ry="18"/>
<text text-anchor="middle" x="220" y="-481.78" font-family="Times,serif" font-size="14.00">start()</text>
</g>
<!-- SU&#45;&gt;ST -->
<g id="edge2" class="edge"><title>SU&#45;&gt;ST</title>
<path fill="none" stroke="black" d="M307.984,-542.984C291.184,-532.195 267.454,-516.955 248.871,-505.021"/>
<polygon fill="black" stroke="black" points="250.52,-501.921 240.215,-499.462 246.738,-507.811 250.52,-501.921"/>
</g>
<!-- MW -->
<g id="node10" class="node"><title>MW</title>
<ellipse fill="none" stroke="black" cx="94" cy="-107.74" rx="38.1938" ry="18"/>
<text text-anchor="middle" x="94" y="-104.04" font-family="Times,serif" font-size="14.00">While()</text>
</g>
<!-- SU&#45;&gt;MW -->
<g id="edge6" class="edge"><title>SU&#45;&gt;MW</title>
<path fill="none" stroke="black" d="M283.572,-555.813C193.308,-551.833 0,-528.916 0,-405.61 0,-405.61 0,-405.61 0,-250.74 0,-201.286 40.133,-155.833 67.9523,-130.267"/>
<polygon fill="black" stroke="black" points="283.665,-559.319 293.791,-556.202 283.932,-552.324 283.665,-559.319"/>
<polygon fill="black" stroke="black" points="70.2969,-132.866 75.4286,-123.597 65.6367,-127.642 70.2969,-132.866"/>
</g>
<!-- DE -->
<g id="node4" class="node"><title>DE</title>
<ellipse fill="none" stroke="black" cx="166" cy="-404.61" rx="81.135" ry="26.7407"/>
<text text-anchor="middle" x="166" y="-408.41" font-family="Times,serif" font-size="14.00">Exercise in class: </text>
<text text-anchor="middle" x="166" y="-393.41" font-family="Times,serif" font-size="14.00">(Decode)</text>
</g>
<!-- ST&#45;&gt;DE -->
<g id="edge3" class="edge"><title>ST&#45;&gt;DE</title>
<path fill="none" stroke="black" d="M209.072,-468.52C203.342,-460.15 196.093,-449.563 189.184,-439.472"/>
<polygon fill="black" stroke="black" points="192.039,-437.447 183.502,-431.173 186.263,-441.401 192.039,-437.447"/>
</g>
<!-- EiC -->
<g id="node9" class="node"><title>EiC</title>
<ellipse fill="none" stroke="black" cx="362" cy="-179.74" rx="69.5877" ry="18"/>
<text text-anchor="middle" x="362" y="-176.04" font-family="Times,serif" font-size="14.00">Exercise in class</text>
</g>
<!-- ST&#45;&gt;EiC -->
<g id="edge20" class="edge"><title>ST&#45;&gt;EiC</title>
<path fill="none" stroke="black" d="M232.707,-468.55C240.305,-458.41 249.679,-444.733 256,-431.48 281.134,-378.787 271.489,-359.606 294,-305.74 308.951,-269.965 331.129,-231.072 346.053,-206.331"/>
<polygon fill="black" stroke="black" points="349.172,-207.939 351.387,-197.578 343.194,-204.296 349.172,-207.939"/>
</g>
<!-- ST&#45;&gt;MW -->
<g id="edge14" class="edge"><title>ST&#45;&gt;MW</title>
<path fill="none" stroke="black" d="M179.24,-479.046C147.25,-472.758 103.642,-459.419 76,-431.48 40.5827,-395.684 38,-375.097 38,-324.74 38,-324.74 38,-324.74 38,-250.74 38,-210.293 40.8815,-198.837 57,-161.74 61.3602,-151.705 67.7661,-141.626 74.0271,-132.992"/>
<polygon fill="black" stroke="black" points="178.72,-482.508 189.184,-480.849 179.969,-475.621 178.72,-482.508"/>
<polygon fill="black" stroke="black" points="76.9119,-134.98 80.1586,-124.895 71.3313,-130.755 76.9119,-134.98"/>
</g>
<!-- TX -->
<g id="node5" class="node"><title>TX</title>
<ellipse fill="none" stroke="black" cx="195" cy="-323.74" rx="46.5926" ry="18"/>
<text text-anchor="middle" x="195" y="-320.04" font-family="Times,serif" font-size="14.00">Textuality</text>
</g>
<!-- DE&#45;&gt;TX -->
<g id="edge9" class="edge"><title>DE&#45;&gt;TX</title>
<path fill="none" stroke="black" d="M175.496,-377.785C178.63,-369.261 182.12,-359.769 185.272,-351.198"/>
<polygon fill="black" stroke="black" points="188.608,-352.265 188.774,-341.672 182.038,-349.85 188.608,-352.265"/>
</g>
<!-- SC -->
<g id="node8" class="node"><title>SC</title>
<ellipse fill="none" stroke="black" cx="191" cy="-251.74" rx="55.7903" ry="18"/>
<text text-anchor="middle" x="191" y="-248.04" font-family="Times,serif" font-size="14.00">Source Code</text>
</g>
<!-- DE&#45;&gt;SC -->
<g id="edge18" class="edge"><title>DE&#45;&gt;SC</title>
<path fill="none" stroke="black" d="M145.457,-368.931C136.897,-349.909 130.672,-326.119 139,-305.74 143.762,-294.087 152.458,-283.612 161.393,-275.112"/>
<polygon fill="black" stroke="black" points="142.41,-370.668 149.937,-378.124 148.703,-367.601 142.41,-370.668"/>
<polygon fill="black" stroke="black" points="163.731,-277.717 168.874,-268.454 159.077,-272.488 163.731,-277.717"/>
</g>
<!-- TX&#45;&gt;SC -->
<g id="edge10" class="edge"><title>TX&#45;&gt;SC</title>
<path fill="none" stroke="black" d="M193.438,-295.405C193.146,-290.292 192.841,-284.95 192.549,-279.844"/>
<polygon fill="black" stroke="black" points="189.946,-295.653 194.011,-305.437 196.935,-295.253 189.946,-295.653"/>
<polygon fill="black" stroke="black" points="196.042,-279.628 191.977,-269.844 189.054,-280.028 196.042,-279.628"/>
</g>
<!-- CO -->
<g id="node6" class="node"><title>CO</title>
<ellipse fill="none" stroke="black" cx="151" cy="-179.74" rx="85.2851" ry="18"/>
<text text-anchor="middle" x="151" y="-176.04" font-family="Times,serif" font-size="14.00">Conditional structure</text>
</g>
<!-- CO&#45;&gt;MW -->
<g id="edge19" class="edge"><title>CO&#45;&gt;MW</title>
<path fill="none" stroke="black" d="M130.663,-153.765C125.196,-147.051 119.292,-139.801 113.853,-133.121"/>
<polygon fill="black" stroke="black" points="128.174,-156.251 137.202,-161.795 133.602,-151.831 128.174,-156.251"/>
<polygon fill="black" stroke="black" points="116.307,-130.591 107.279,-125.047 110.879,-135.011 116.307,-130.591"/>
</g>
<!-- JS -->
<g id="node7" class="node"><title>JS</title>
<ellipse fill="none" stroke="black" cx="313" cy="-107.74" rx="31.6951" ry="18"/>
<text text-anchor="middle" x="313" y="-104.04" font-family="Times,serif" font-size="14.00">JSON</text>
</g>
<!-- JS&#45;&gt;MX -->
<g id="edge15" class="edge"><title>JS&#45;&gt;MX</title>
<path fill="none" stroke="black" d="M330.52,-92.6397C343.46,-82.2259 361.479,-67.7245 377.187,-55.0827"/>
<polygon fill="black" stroke="black" points="379.555,-57.6692 385.152,-48.6728 375.167,-52.2159 379.555,-57.6692"/>
</g>
<!-- SC&#45;&gt;CO -->
<g id="edge12" class="edge"><title>SC&#45;&gt;CO</title>
<path fill="none" stroke="black" d="M176.223,-224.881C172.865,-219.004 169.295,-212.757 165.931,-206.869"/>
<polygon fill="black" stroke="black" points="173.317,-226.849 181.317,-233.795 179.395,-223.376 173.317,-226.849"/>
<polygon fill="black" stroke="black" points="168.872,-204.961 160.872,-198.015 162.794,-208.434 168.872,-204.961"/>
</g>
<!-- SC&#45;&gt;JS -->
<g id="edge13" class="edge"><title>SC&#45;&gt;JS</title>
<path fill="none" stroke="black" d="M216.176,-227.474C225.525,-218.466 236.031,-207.892 245,-197.74 263.477,-176.826 282.608,-151.39 295.853,-133.075"/>
<polygon fill="black" stroke="black" points="213.488,-225.2 208.654,-234.628 218.312,-230.272 213.488,-225.2"/>
<polygon fill="black" stroke="black" points="298.871,-134.873 301.854,-124.707 293.182,-130.794 298.871,-134.873"/>
</g>
<!-- SC&#45;&gt;EiC -->
<g id="edge11" class="edge"><title>SC&#45;&gt;EiC</title>
<path fill="none" stroke="black" d="M224.376,-237.077C250.748,-226.282 287.819,-211.107 316.842,-199.226"/>
<polygon fill="black" stroke="black" points="318.421,-202.361 326.35,-195.334 315.769,-195.883 318.421,-202.361"/>
</g>
<!-- MW&#45;&gt;MX -->
<g id="edge16" class="edge"><title>MW&#45;&gt;MX</title>
<path fill="none" stroke="black" d="M127.027,-98.5228C182.797,-84.6473 295.934,-56.4988 361.315,-40.2317"/>
<polygon fill="black" stroke="black" points="362.523,-43.5379 371.382,-37.727 360.833,-36.745 362.523,-43.5379"/>
</g>
<!-- Notes -->
<g id="node14" class="node"><title>Notes</title>
<ellipse fill="none" stroke="black" cx="94" cy="-26.8701" rx="31.3957" ry="18"/>
<text text-anchor="middle" x="94" y="-23.1701" font-family="Times,serif" font-size="14.00">Notes</text>
</g>
<!-- MW&#45;&gt;Notes -->
<g id="edge17" class="edge"><title>MW&#45;&gt;Notes</title>
<path fill="none" stroke="black" d="M94,-89.6265C94,-79.6013 94,-66.7063 94,-55.2947"/>
<polygon fill="black" stroke="black" points="97.5001,-54.9503 94,-44.9503 90.5001,-54.9503 97.5001,-54.9503"/>
</g>
<!-- RR&#45;&gt;SU -->
<g id="edge8" class="edge"><title>RR&#45;&gt;SU</title>
<path fill="none" stroke="black" d="M450.957,-269.837C451.492,-288.03 450.964,-317.477 444,-341.74 422.723,-415.877 373.395,-493.37 346.783,-531.81"/>
<polygon fill="black" stroke="black" points="343.72,-530.082 340.847,-540.28 349.453,-534.1 343.72,-530.082"/>
</g>
<!-- RR&#45;&gt;MX -->
<g id="edge7" class="edge"><title>RR&#45;&gt;MX</title>
<path fill="none" stroke="black" d="M448.878,-233.599C447.559,-215.619 445.024,-186.575 441,-161.74 435.562,-128.175 426.86,-90.4141 420.225,-63.5752"/>
<polygon fill="black" stroke="black" points="423.616,-62.7075 417.794,-53.8553 416.825,-64.4056 423.616,-62.7075"/>
</g>
<!-- FR -->
<g id="node13" class="node"><title>FR</title>
<ellipse fill="none" stroke="black" cx="369" cy="-323.74" rx="65.7887" ry="18"/>
<text text-anchor="middle" x="369" y="-320.04" font-family="Times,serif" font-size="14.00">Further reading</text>
</g>
<!-- RR&#45;&gt;FR -->
<g id="edge21" class="edge"><title>RR&#45;&gt;FR</title>
<path fill="none" stroke="black" d="M430.942,-269.21C420.474,-278.256 407.321,-289.623 395.831,-299.552"/>
<polygon fill="black" stroke="black" points="393.473,-296.964 388.196,-306.151 398.051,-302.261 393.473,-296.964"/>
</g>
</g>
</svg>
