<?xml version="1.0" encoding="UTF-8" standalone="no"?>
<!DOCTYPE svg PUBLIC "-//W3C//DTD SVG 1.1//EN"
 "http://www.w3.org/Graphics/SVG/1.1/DTD/svg11.dtd">
<!-- Generated by graphviz version 2.38.0 (20140413.2041)
 -->
<!-- Title: G Pages: 1 -->
<svg width="593pt" height="511pt"
 viewBox="0.00 0.00 592.88 511.48" xmlns="http://www.w3.org/2000/svg" xmlns:xlink="http://www.w3.org/1999/xlink">
<g id="graph0" class="graph" transform="scale(1 1) rotate(0) translate(4 507.48)">
<title>G</title>
<polygon fill="white" stroke="none" points="-4,4 -4,-507.48 588.884,-507.48 588.884,4 -4,4"/>
<!-- GS -->
<g id="node1" class="node"><title>GS</title>
<ellipse fill="none" stroke="grey" stroke-width="2" cx="137.494" cy="-485.48" rx="85.5853" ry="18"/>
<text text-anchor="middle" x="137.494" y="-481.78" font-family="Times,serif" font-size="14.00">Ch.7 &#45; Vocable Code</text>
</g>
<!-- SU -->
<g id="node2" class="node"><title>SU</title>
<ellipse fill="none" stroke="black" cx="137.494" cy="-413.48" rx="35.194" ry="18"/>
<text text-anchor="middle" x="137.494" y="-409.78" font-family="Times,serif" font-size="14.00">setup()</text>
</g>
<!-- GS&#45;&gt;SU -->
<g id="edge1" class="edge"><title>GS&#45;&gt;SU</title>
<path fill="none" stroke="black" d="M137.494,-467.177C137.494,-459.463 137.494,-450.193 137.494,-441.593"/>
<polygon fill="black" stroke="black" points="140.994,-441.585 137.494,-431.585 133.994,-441.585 140.994,-441.585"/>
</g>
<!-- MX -->
<g id="node12" class="node"><title>MX</title>
<ellipse fill="none" stroke="black" cx="277.494" cy="-26.8701" rx="50.41" ry="26.7407"/>
<text text-anchor="middle" x="277.494" y="-30.6701" font-family="Times,serif" font-size="14.00">MiniX 7: </text>
<text text-anchor="middle" x="277.494" y="-15.6701" font-family="Times,serif" font-size="14.00">E&#45;lit</text>
</g>
<!-- GS&#45;&gt;MX -->
<g id="edge4" class="edge"><title>GS&#45;&gt;MX</title>
<path fill="none" stroke="black" d="M208.991,-475.308C334.782,-457.154 582.494,-411.516 582.494,-333.61 582.494,-333.61 582.494,-333.61 582.494,-178.74 582.494,-138.293 592.055,-118.379 563.494,-89.7401 532.273,-58.4342 411.288,-41.097 337.039,-33.206"/>
<polygon fill="black" stroke="black" points="337.194,-29.7034 326.887,-32.1548 336.473,-36.6662 337.194,-29.7034"/>
</g>
<!-- RR -->
<g id="node13" class="node"><title>RR</title>
<ellipse fill="none" stroke="black" cx="71.4937" cy="-179.74" rx="71.4873" ry="18"/>
<text text-anchor="middle" x="71.4937" y="-176.04" font-family="Times,serif" font-size="14.00">Required reading</text>
</g>
<!-- GS&#45;&gt;RR -->
<g id="edge5" class="edge"><title>GS&#45;&gt;RR</title>
<path fill="none" stroke="black" d="M113.685,-459.953C106.414,-451.456 98.9152,-441.53 93.4937,-431.48 54.1454,-358.54 61.0243,-256.055 67.2324,-207.836"/>
<polygon fill="black" stroke="black" points="111.248,-462.479 120.513,-467.619 116.475,-457.823 111.248,-462.479"/>
<polygon fill="black" stroke="black" points="70.7087,-208.247 68.6092,-197.862 63.7745,-207.29 70.7087,-208.247"/>
</g>
<!-- ST -->
<g id="node3" class="node"><title>ST</title>
<ellipse fill="none" stroke="black" cx="249.494" cy="-413.48" rx="31.6951" ry="18"/>
<text text-anchor="middle" x="249.494" y="-409.78" font-family="Times,serif" font-size="14.00">start()</text>
</g>
<!-- SU&#45;&gt;ST -->
<g id="edge2" class="edge"><title>SU&#45;&gt;ST</title>
<path fill="none" stroke="black" d="M172.931,-413.48C184.42,-413.48 195.908,-413.48 207.397,-413.48"/>
<polygon fill="black" stroke="black" points="207.493,-416.98 217.493,-413.48 207.493,-409.98 207.493,-416.98"/>
</g>
<!-- MW -->
<g id="node11" class="node"><title>MW</title>
<ellipse fill="none" stroke="black" cx="137.494" cy="-332.61" rx="38.1938" ry="18"/>
<text text-anchor="middle" x="137.494" y="-328.91" font-family="Times,serif" font-size="14.00">While()</text>
</g>
<!-- SU&#45;&gt;MW -->
<g id="edge6" class="edge"><title>SU&#45;&gt;MW</title>
<path fill="none" stroke="black" d="M137.494,-385.018C137.494,-377.17 137.494,-368.623 137.494,-360.792"/>
<polygon fill="black" stroke="black" points="133.994,-385.367 137.494,-395.367 140.994,-385.367 133.994,-385.367"/>
<polygon fill="black" stroke="black" points="140.994,-360.69 137.494,-350.69 133.994,-360.69 140.994,-360.69"/>
</g>
<!-- DE -->
<g id="node4" class="node"><title>DE</title>
<ellipse fill="none" stroke="black" cx="275.494" cy="-332.61" rx="81.135" ry="26.7407"/>
<text text-anchor="middle" x="275.494" y="-336.41" font-family="Times,serif" font-size="14.00">Exercise in class: </text>
<text text-anchor="middle" x="275.494" y="-321.41" font-family="Times,serif" font-size="14.00">Decode</text>
</g>
<!-- ST&#45;&gt;DE -->
<g id="edge3" class="edge"><title>ST&#45;&gt;DE</title>
<path fill="none" stroke="black" d="M255.135,-395.367C257.68,-387.648 260.785,-378.228 263.796,-369.093"/>
<polygon fill="black" stroke="black" points="267.189,-369.98 266.996,-359.387 260.541,-367.789 267.189,-369.98"/>
</g>
<!-- EiC -->
<g id="node10" class="node"><title>EiC</title>
<ellipse fill="none" stroke="black" cx="484.494" cy="-107.74" rx="69.5877" ry="18"/>
<text text-anchor="middle" x="484.494" y="-104.04" font-family="Times,serif" font-size="14.00">Exercise in class</text>
</g>
<!-- ST&#45;&gt;EiC -->
<g id="edge22" class="edge"><title>ST&#45;&gt;EiC</title>
<path fill="none" stroke="black" d="M280.932,-409.82C337.503,-404.32 452.871,-389.61 477.494,-359.48 530.491,-294.629 507.81,-185.705 493.248,-135.528"/>
<polygon fill="black" stroke="black" points="496.536,-134.31 490.293,-125.749 489.835,-136.334 496.536,-134.31"/>
</g>
<!-- ST&#45;&gt;MW -->
<g id="edge16" class="edge"><title>ST&#45;&gt;MW</title>
<path fill="none" stroke="black" d="M221.934,-393.073C205.098,-381.217 183.593,-366.073 166.5,-354.036"/>
<polygon fill="black" stroke="black" points="220.049,-396.026 230.24,-398.922 224.079,-390.303 220.049,-396.026"/>
<polygon fill="black" stroke="black" points="168.202,-350.954 158.011,-348.058 164.172,-356.678 168.202,-350.954"/>
</g>
<!-- TX -->
<g id="node5" class="node"><title>TX</title>
<ellipse fill="none" stroke="black" cx="421.494" cy="-332.61" rx="46.5926" ry="18"/>
<text text-anchor="middle" x="421.494" y="-328.91" font-family="Times,serif" font-size="14.00">Textuality</text>
</g>
<!-- DE&#45;&gt;TX -->
<g id="edge9" class="edge"><title>DE&#45;&gt;TX</title>
<path fill="none" stroke="black" d="M357.048,-332.61C359.526,-332.61 362.004,-332.61 364.483,-332.61"/>
<polygon fill="black" stroke="black" points="364.67,-336.11 374.67,-332.61 364.67,-329.11 364.67,-336.11"/>
</g>
<!-- SC -->
<g id="node9" class="node"><title>SC</title>
<ellipse fill="none" stroke="black" cx="365.494" cy="-179.74" rx="55.7903" ry="18"/>
<text text-anchor="middle" x="365.494" y="-176.04" font-family="Times,serif" font-size="14.00">Source Code</text>
</g>
<!-- DE&#45;&gt;SC -->
<g id="edge20" class="edge"><title>DE&#45;&gt;SC</title>
<path fill="none" stroke="black" d="M290.761,-306.017C309.217,-275.079 339.749,-223.896 355.464,-197.553"/>
</g>
<!-- TP -->
<g id="node6" class="node"><title>TP</title>
<ellipse fill="none" stroke="black" cx="421.494" cy="-251.74" rx="28.6953" ry="18"/>
<text text-anchor="middle" x="421.494" y="-248.04" font-family="Times,serif" font-size="14.00">Type</text>
</g>
<!-- TX&#45;&gt;TP -->
<g id="edge10" class="edge"><title>TX&#45;&gt;TP</title>
<path fill="none" stroke="black" d="M421.494,-314.497C421.494,-304.471 421.494,-291.576 421.494,-280.165"/>
<polygon fill="black" stroke="black" points="424.994,-279.82 421.494,-269.82 417.994,-279.82 424.994,-279.82"/>
</g>
<!-- TX&#45;&gt;SC -->
<g id="edge11" class="edge"><title>TX&#45;&gt;SC</title>
<path fill="none" stroke="black" d="M403.348,-306.596C396.217,-295.729 388.546,-282.568 383.494,-269.74 375.659,-249.848 371.074,-226.054 368.494,-208.075"/>
<polygon fill="black" stroke="black" points="400.628,-308.82 409.141,-315.127 406.419,-304.888 400.628,-308.82"/>
<polygon fill="black" stroke="black" points="371.94,-207.436 367.166,-197.977 365,-208.348 371.94,-207.436"/>
</g>
<!-- TP&#45;&gt;SC -->
<g id="edge12" class="edge"><title>TP&#45;&gt;SC</title>
<path fill="none" stroke="black" d="M402.616,-227.143C397.066,-220.206 390.98,-212.598 385.369,-205.585"/>
<polygon fill="black" stroke="black" points="400.085,-229.583 409.065,-235.205 405.552,-225.21 400.085,-229.583"/>
<polygon fill="black" stroke="black" points="388.043,-203.324 379.063,-197.702 382.577,-207.697 388.043,-203.324"/>
</g>
<!-- CO -->
<g id="node7" class="node"><title>CO</title>
<ellipse fill="none" stroke="black" cx="266.494" cy="-107.74" rx="49.2915" ry="18"/>
<text text-anchor="middle" x="266.494" y="-104.04" font-family="Times,serif" font-size="14.00">Conditions</text>
</g>
<!-- CO&#45;&gt;MW -->
<g id="edge21" class="edge"><title>CO&#45;&gt;MW</title>
<path fill="none" stroke="black" d="M259.86,-135.885C250.813,-169.385 232.352,-227.134 203.494,-269.74 193.064,-285.139 178.16,-299.531 165.154,-310.552"/>
<polygon fill="black" stroke="black" points="263.324,-136.471 262.468,-125.911 256.552,-134.7 263.324,-136.471"/>
<polygon fill="black" stroke="black" points="162.862,-307.905 157.358,-316.957 167.306,-313.313 162.862,-307.905"/>
</g>
<!-- JS -->
<g id="node8" class="node"><title>JS</title>
<ellipse fill="none" stroke="black" cx="365.494" cy="-107.74" rx="31.6951" ry="18"/>
<text text-anchor="middle" x="365.494" y="-104.04" font-family="Times,serif" font-size="14.00">JSON</text>
</g>
<!-- JS&#45;&gt;MX -->
<g id="edge17" class="edge"><title>JS&#45;&gt;MX</title>
<path fill="none" stroke="black" d="M348.942,-91.9053C338.037,-82.1322 323.388,-69.003 310.193,-57.1771"/>
<polygon fill="black" stroke="black" points="312.415,-54.468 302.632,-50.4001 307.743,-59.6808 312.415,-54.468"/>
</g>
<!-- SC&#45;&gt;CO -->
<g id="edge14" class="edge"><title>SC&#45;&gt;CO</title>
<path fill="none" stroke="black" d="M334.531,-156.847C322.424,-148.287 308.589,-138.504 296.569,-130.006"/>
<polygon fill="black" stroke="black" points="332.843,-159.94 343.029,-162.856 336.885,-154.225 332.843,-159.94"/>
<polygon fill="black" stroke="black" points="298.375,-126.996 288.189,-124.08 294.333,-132.711 298.375,-126.996"/>
</g>
<!-- SC&#45;&gt;JS -->
<g id="edge15" class="edge"><title>SC&#45;&gt;JS</title>
<path fill="none" stroke="black" d="M365.494,-151.405C365.494,-146.427 365.494,-141.231 365.494,-136.247"/>
<polygon fill="black" stroke="black" points="361.994,-151.437 365.494,-161.437 368.994,-151.437 361.994,-151.437"/>
<polygon fill="black" stroke="black" points="368.994,-135.844 365.494,-125.844 361.994,-135.844 368.994,-135.844"/>
</g>
<!-- SC&#45;&gt;EiC -->
<g id="edge13" class="edge"><title>SC&#45;&gt;EiC</title>
<path fill="none" stroke="black" d="M391.022,-163.723C407.925,-153.781 430.328,-140.602 448.964,-129.64"/>
<polygon fill="black" stroke="black" points="450.924,-132.547 457.769,-124.46 447.375,-126.514 450.924,-132.547"/>
</g>
<!-- MW&#45;&gt;MX -->
<g id="edge18" class="edge"><title>MW&#45;&gt;MX</title>
<path fill="none" stroke="black" d="M147.935,-315.137C155.209,-303.001 164.624,-285.87 170.494,-269.74 198.455,-192.907 167.588,-160.535 208.494,-89.7401 216.146,-76.4967 227.629,-64.5575 239.044,-54.78"/>
<polygon fill="black" stroke="black" points="241.361,-57.4064 246.887,-48.3669 236.93,-51.9873 241.361,-57.4064"/>
</g>
<!-- Notes -->
<g id="node14" class="node"><title>Notes</title>
<ellipse fill="none" stroke="black" cx="130.494" cy="-251.74" rx="31.3957" ry="18"/>
<text text-anchor="middle" x="130.494" y="-248.04" font-family="Times,serif" font-size="14.00">Notes</text>
</g>
<!-- MW&#45;&gt;Notes -->
<g id="edge19" class="edge"><title>MW&#45;&gt;Notes</title>
<path fill="none" stroke="black" d="M135.975,-314.497C135.076,-304.368 133.917,-291.31 132.896,-279.812"/>
<polygon fill="black" stroke="black" points="136.38,-279.472 132.01,-269.82 129.407,-280.091 136.38,-279.472"/>
</g>
<!-- RR&#45;&gt;SU -->
<g id="edge8" class="edge"><title>RR&#45;&gt;SU</title>
<path fill="none" stroke="black" d="M69.9605,-197.876C67.724,-230.77 66.1726,-304.381 90.4937,-359.48 95.5639,-370.967 104.065,-381.721 112.454,-390.5"/>
<polygon fill="black" stroke="black" points="110.138,-393.131 119.709,-397.675 115.06,-388.155 110.138,-393.131"/>
</g>
<!-- RR&#45;&gt;MX -->
<g id="edge7" class="edge"><title>RR&#45;&gt;MX</title>
<path fill="none" stroke="black" d="M89.1687,-162.051C109.295,-143.426 143.537,-112.871 175.494,-89.7401 194.093,-76.2774 215.712,-62.8723 234.246,-51.9995"/>
<polygon fill="black" stroke="black" points="236.18,-54.924 243.071,-46.8762 232.665,-48.8703 236.18,-54.924"/>
</g>
</g>
</svg>
