<?xml version="1.0" encoding="UTF-8" standalone="no"?>
<!DOCTYPE svg PUBLIC "-//W3C//DTD SVG 1.1//EN"
 "http://www.w3.org/Graphics/SVG/1.1/DTD/svg11.dtd">
<!-- Generated by graphviz version 2.38.0 (20140413.2041)
 -->
<!-- Title: G Pages: 1 -->
<svg width="579pt" height="511pt"
 viewBox="0.00 0.00 578.54 511.48" xmlns="http://www.w3.org/2000/svg" xmlns:xlink="http://www.w3.org/1999/xlink">
<g id="graph0" class="graph" transform="scale(1 1) rotate(0) translate(4 507.48)">
<title>G</title>
<polygon fill="white" stroke="none" points="-4,4 -4,-507.48 574.544,-507.48 574.544,4 -4,4"/>
<!-- GS -->
<g id="node1" class="node"><title>GS</title>
<ellipse fill="none" stroke="grey" stroke-width="2" cx="266.544" cy="-485.48" rx="89.0842" ry="18"/>
<text text-anchor="middle" x="266.544" y="-481.78" font-family="Times,serif" font-size="14.00">Ch.1 &#45; Getting Started</text>
</g>
<!-- SU -->
<g id="node2" class="node"><title>SU</title>
<ellipse fill="none" stroke="black" cx="266.544" cy="-413.48" rx="35.194" ry="18"/>
<text text-anchor="middle" x="266.544" y="-409.78" font-family="Times,serif" font-size="14.00">setup()</text>
</g>
<!-- GS&#45;&gt;SU -->
<g id="edge1" class="edge"><title>GS&#45;&gt;SU</title>
<path fill="none" stroke="black" d="M266.544,-467.177C266.544,-459.463 266.544,-450.193 266.544,-441.593"/>
<polygon fill="black" stroke="black" points="270.044,-441.585 266.544,-431.585 263.044,-441.585 270.044,-441.585"/>
</g>
<!-- ST -->
<g id="node3" class="node"><title>ST</title>
<ellipse fill="none" stroke="black" cx="266.544" cy="-341.48" rx="31.6951" ry="18"/>
<text text-anchor="middle" x="266.544" y="-337.78" font-family="Times,serif" font-size="14.00">start()</text>
</g>
<!-- SU&#45;&gt;ST -->
<g id="edge2" class="edge"><title>SU&#45;&gt;ST</title>
<path fill="none" stroke="black" d="M266.544,-395.177C266.544,-387.463 266.544,-378.193 266.544,-369.593"/>
<polygon fill="black" stroke="black" points="270.044,-369.585 266.544,-359.585 263.044,-369.585 270.044,-369.585"/>
</g>
<!-- WE -->
<g id="node4" class="node"><title>WE</title>
<ellipse fill="none" stroke="black" cx="427.544" cy="-413.48" rx="90.9839" ry="18"/>
<text text-anchor="middle" x="427.544" y="-409.78" font-family="Times,serif" font-size="14.00">Working Environment</text>
</g>
<!-- ST&#45;&gt;WE -->
<g id="edge3" class="edge"><title>ST&#45;&gt;WE</title>
<path fill="none" stroke="black" d="M291.063,-353.141C315.179,-363.626 352.569,-379.882 382.12,-392.731"/>
<polygon fill="black" stroke="black" points="380.846,-395.993 391.412,-396.771 383.637,-389.574 380.846,-395.993"/>
</g>
<!-- MFP -->
<g id="node7" class="node"><title>MFP</title>
<ellipse fill="none" stroke="black" cx="202.544" cy="-269.48" rx="72.5877" ry="18"/>
<text text-anchor="middle" x="202.544" y="-265.78" font-family="Times,serif" font-size="14.00">My first program</text>
</g>
<!-- ST&#45;&gt;MFP -->
<g id="edge7" class="edge"><title>ST&#45;&gt;MFP</title>
<path fill="none" stroke="black" d="M252.34,-324.945C244.32,-316.173 234.113,-305.009 225.031,-295.076"/>
<polygon fill="black" stroke="black" points="227.383,-292.461 218.052,-287.442 222.216,-297.184 227.383,-292.461"/>
</g>
<!-- MW -->
<g id="node12" class="node"><title>MW</title>
<ellipse fill="none" stroke="black" cx="401.544" cy="-269.48" rx="38.1938" ry="18"/>
<text text-anchor="middle" x="401.544" y="-265.78" font-family="Times,serif" font-size="14.00">While()</text>
</g>
<!-- ST&#45;&gt;MW -->
<g id="edge11" class="edge"><title>ST&#45;&gt;MW</title>
<path fill="none" stroke="black" d="M289.14,-328.764C310.571,-317.651 343.056,-300.807 367.601,-288.08"/>
<polygon fill="black" stroke="black" points="369.313,-291.135 376.58,-283.425 366.091,-284.921 369.313,-291.135"/>
</g>
<!-- p5 -->
<g id="node5" class="node"><title>p5</title>
<ellipse fill="none" stroke="black" cx="344.544" cy="-341.48" rx="27.8951" ry="18"/>
<text text-anchor="middle" x="344.544" y="-337.78" font-family="Times,serif" font-size="14.00">p5.js</text>
</g>
<!-- WE&#45;&gt;p5 -->
<g id="edge4" class="edge"><title>WE&#45;&gt;p5</title>
<path fill="none" stroke="black" d="M407.874,-395.891C396.155,-386.008 381.19,-373.387 368.75,-362.895"/>
<polygon fill="black" stroke="black" points="370.9,-360.13 360.999,-356.358 366.387,-365.481 370.9,-360.13"/>
</g>
<!-- CE -->
<g id="node6" class="node"><title>CE</title>
<ellipse fill="none" stroke="black" cx="444.544" cy="-341.48" rx="53.8905" ry="18"/>
<text text-anchor="middle" x="444.544" y="-337.78" font-family="Times,serif" font-size="14.00">Code Editor</text>
</g>
<!-- WE&#45;&gt;CE -->
<g id="edge5" class="edge"><title>WE&#45;&gt;CE</title>
<path fill="none" stroke="black" d="M431.746,-395.177C433.64,-387.378 435.92,-377.989 438.028,-369.309"/>
<polygon fill="black" stroke="black" points="441.431,-370.128 440.39,-359.585 434.629,-368.476 441.431,-370.128"/>
</g>
<!-- Git -->
<g id="node11" class="node"><title>Git</title>
<ellipse fill="none" stroke="black" cx="543.544" cy="-341.48" rx="27" ry="18"/>
<text text-anchor="middle" x="543.544" y="-337.78" font-family="Times,serif" font-size="14.00">Git</text>
</g>
<!-- WE&#45;&gt;Git -->
<g id="edge6" class="edge"><title>WE&#45;&gt;Git</title>
<path fill="none" stroke="black" d="M454.448,-396.245C472.739,-385.208 496.886,-370.636 515.428,-359.447"/>
<polygon fill="black" stroke="black" points="517.276,-362.419 524.03,-354.256 513.66,-356.426 517.276,-362.419"/>
</g>
<!-- EiC -->
<g id="node8" class="node"><title>EiC</title>
<ellipse fill="none" stroke="black" cx="69.5438" cy="-188.61" rx="69.5877" ry="18"/>
<text text-anchor="middle" x="69.5438" y="-184.91" font-family="Times,serif" font-size="14.00">Exercise in class</text>
</g>
<!-- MFP&#45;&gt;EiC -->
<g id="edge8" class="edge"><title>MFP&#45;&gt;EiC</title>
<path fill="none" stroke="black" d="M175.949,-252.709C155.561,-240.619 127.233,-223.82 104.931,-210.595"/>
<polygon fill="black" stroke="black" points="106.479,-207.444 96.0926,-205.354 102.909,-213.465 106.479,-207.444"/>
</g>
<!-- RC -->
<g id="node9" class="node"><title>RC</title>
<ellipse fill="none" stroke="black" cx="167.544" cy="-98.8701" rx="72.25" ry="26.7407"/>
<text text-anchor="middle" x="167.544" y="-102.67" font-family="Times,serif" font-size="14.00">Reading code: &#160;</text>
<text text-anchor="middle" x="167.544" y="-87.6701" font-family="Times,serif" font-size="14.00">&#39;Hello World&#39;</text>
</g>
<!-- MFP&#45;&gt;RC -->
<g id="edge9" class="edge"><title>MFP&#45;&gt;RC</title>
<path fill="none" stroke="black" d="M196.784,-251.447C193.45,-241.129 189.369,-227.652 186.544,-215.48 180.403,-189.019 175.498,-158.704 172.212,-135.757"/>
<polygon fill="black" stroke="black" points="175.667,-135.192 170.817,-125.773 168.734,-136.161 175.667,-135.192"/>
</g>
<!-- RG -->
<g id="node10" class="node"><title>RG</title>
<ellipse fill="none" stroke="black" cx="266.544" cy="-188.61" rx="71.3357" ry="26.7407"/>
<text text-anchor="middle" x="266.544" y="-192.41" font-family="Times,serif" font-size="14.00">Reading: </text>
<text text-anchor="middle" x="266.544" y="-177.41" font-family="Times,serif" font-size="14.00">reference guide</text>
</g>
<!-- MFP&#45;&gt;RG -->
<g id="edge10" class="edge"><title>MFP&#45;&gt;RG</title>
<path fill="none" stroke="black" d="M216.117,-251.754C223.065,-243.191 231.772,-232.461 239.987,-222.338"/>
<polygon fill="black" stroke="black" points="242.842,-224.373 246.426,-214.403 237.407,-219.963 242.842,-224.373"/>
</g>
<!-- MX -->
<g id="node13" class="node"><title>MX</title>
<ellipse fill="none" stroke="black" cx="437.544" cy="-188.61" rx="82.0488" ry="26.7407"/>
<text text-anchor="middle" x="437.544" y="-192.41" font-family="Times,serif" font-size="14.00">MiniX 1: </text>
<text text-anchor="middle" x="437.544" y="-177.41" font-family="Times,serif" font-size="14.00">My First Program</text>
</g>
<!-- MW&#45;&gt;MX -->
<g id="edge12" class="edge"><title>MW&#45;&gt;MX</title>
<path fill="none" stroke="black" d="M409.179,-251.754C412.801,-243.818 417.273,-234.021 421.586,-224.571"/>
<polygon fill="black" stroke="black" points="424.841,-225.87 425.809,-215.319 418.473,-222.963 424.841,-225.87"/>
</g>
<!-- RR -->
<g id="node14" class="node"><title>RR</title>
<ellipse fill="none" stroke="black" cx="437.544" cy="-98.8701" rx="71.4873" ry="18"/>
<text text-anchor="middle" x="437.544" y="-95.1701" font-family="Times,serif" font-size="14.00">Required reading</text>
</g>
<!-- MX&#45;&gt;RR -->
<g id="edge13" class="edge"><title>MX&#45;&gt;RR</title>
<path fill="none" stroke="black" d="M437.544,-161.285C437.544,-150.534 437.544,-138.099 437.544,-127.242"/>
<polygon fill="black" stroke="black" points="441.044,-127.031 437.544,-117.031 434.044,-127.031 441.044,-127.031"/>
</g>
<!-- Notes -->
<g id="node15" class="node"><title>Notes</title>
<ellipse fill="none" stroke="black" cx="437.544" cy="-18" rx="31.3957" ry="18"/>
<text text-anchor="middle" x="437.544" y="-14.3" font-family="Times,serif" font-size="14.00">Notes</text>
</g>
<!-- RR&#45;&gt;Notes -->
<g id="edge14" class="edge"><title>RR&#45;&gt;Notes</title>
<path fill="none" stroke="black" d="M437.544,-80.7564C437.544,-70.7312 437.544,-57.8362 437.544,-46.4246"/>
<polygon fill="black" stroke="black" points="441.044,-46.0802 437.544,-36.0802 434.044,-46.0803 441.044,-46.0802"/>
</g>
</g>
</svg>
