<?xml version="1.0" encoding="UTF-8" standalone="no"?>
<!DOCTYPE svg PUBLIC "-//W3C//DTD SVG 1.1//EN"
 "http://www.w3.org/Graphics/SVG/1.1/DTD/svg11.dtd">
<!-- Generated by graphviz version 2.38.0 (20140413.2041)
 -->
<!-- Title: G Pages: 1 -->
<svg width="689pt" height="367pt"
 viewBox="0.00 0.00 689.39 367.48" xmlns="http://www.w3.org/2000/svg" xmlns:xlink="http://www.w3.org/1999/xlink">
<g id="graph0" class="graph" transform="scale(1 1) rotate(0) translate(4 363.48)">
<title>G</title>
<polygon fill="white" stroke="none" points="-4,4 -4,-363.48 685.389,-363.48 685.389,4 -4,4"/>
<!-- GS -->
<g id="node1" class="node"><title>GS</title>
<ellipse fill="none" stroke="grey" stroke-width="2" cx="89.0421" cy="-341.48" rx="89.0842" ry="18"/>
<text text-anchor="middle" x="89.0421" y="-337.78" font-family="Times,serif" font-size="14.00">Ch.1 &#45; Getting Started</text>
</g>
<!-- SU -->
<g id="node2" class="node"><title>SU</title>
<ellipse fill="none" stroke="black" cx="233.042" cy="-341.48" rx="35.194" ry="18"/>
<text text-anchor="middle" x="233.042" y="-337.78" font-family="Times,serif" font-size="14.00">setup()</text>
</g>
<!-- GS&#45;&gt;SU -->
<g id="edge1" class="edge"><title>GS&#45;&gt;SU</title>
<path fill="none" stroke="black" d="M178.198,-341.48C181.381,-341.48 184.563,-341.48 187.745,-341.48"/>
<polygon fill="black" stroke="black" points="187.908,-344.98 197.908,-341.48 187.908,-337.98 187.908,-344.98"/>
</g>
<!-- RR -->
<g id="node14" class="node"><title>RR</title>
<ellipse fill="none" stroke="black" cx="81.0421" cy="-197.48" rx="71.4873" ry="18"/>
<text text-anchor="middle" x="81.0421" y="-193.78" font-family="Times,serif" font-size="14.00">Required reading</text>
</g>
<!-- GS&#45;&gt;RR -->
<g id="edge4" class="edge"><title>GS&#45;&gt;RR</title>
<path fill="none" stroke="black" d="M87.5029,-313.159C86.0899,-288.079 84.007,-251.107 82.591,-225.973"/>
<polygon fill="black" stroke="black" points="84.0201,-313.564 88.0771,-323.352 91.009,-313.171 84.0201,-313.564"/>
<polygon fill="black" stroke="black" points="86.0675,-225.457 82.0105,-215.669 79.0786,-225.851 86.0675,-225.457"/>
</g>
<!-- ST -->
<g id="node3" class="node"><title>ST</title>
<ellipse fill="none" stroke="black" cx="243.042" cy="-269.48" rx="31.6951" ry="18"/>
<text text-anchor="middle" x="243.042" y="-265.78" font-family="Times,serif" font-size="14.00">start()</text>
</g>
<!-- SU&#45;&gt;ST -->
<g id="edge2" class="edge"><title>SU&#45;&gt;ST</title>
<path fill="none" stroke="black" d="M235.514,-323.177C236.616,-315.463 237.94,-306.193 239.169,-297.593"/>
<polygon fill="black" stroke="black" points="242.649,-297.979 240.599,-287.585 235.72,-296.989 242.649,-297.979"/>
</g>
<!-- MW -->
<g id="node12" class="node"><title>MW</title>
<ellipse fill="none" stroke="black" cx="643.042" cy="-116.61" rx="38.1938" ry="18"/>
<text text-anchor="middle" x="643.042" y="-112.91" font-family="Times,serif" font-size="14.00">While()</text>
</g>
<!-- SU&#45;&gt;MW -->
<g id="edge12" class="edge"><title>SU&#45;&gt;MW</title>
<path fill="none" stroke="black" d="M278.039,-338.913C367.16,-335.072 562.324,-322.774 618.042,-287.48 650.325,-267.031 654.145,-252.108 665.042,-215.48 672.179,-191.49 664.369,-163.59 656.145,-143.732"/>
<polygon fill="black" stroke="black" points="277.813,-335.419 267.967,-339.33 278.103,-342.413 277.813,-335.419"/>
<polygon fill="black" stroke="black" points="659.265,-142.134 652.011,-134.413 652.867,-144.973 659.265,-142.134"/>
</g>
<!-- WE -->
<g id="node4" class="node"><title>WE</title>
<ellipse fill="none" stroke="black" cx="518.042" cy="-269.48" rx="90.9839" ry="18"/>
<text text-anchor="middle" x="518.042" y="-265.78" font-family="Times,serif" font-size="14.00">Working Environment</text>
</g>
<!-- ST&#45;&gt;WE -->
<g id="edge3" class="edge"><title>ST&#45;&gt;WE</title>
<path fill="none" stroke="black" d="M275,-269.48C322.271,-269.48 369.543,-269.48 416.814,-269.48"/>
<polygon fill="black" stroke="black" points="416.901,-272.98 426.901,-269.48 416.901,-265.98 416.901,-272.98"/>
</g>
<!-- MFP -->
<g id="node7" class="node"><title>MFP</title>
<ellipse fill="none" stroke="black" cx="243.042" cy="-197.48" rx="72.5877" ry="18"/>
<text text-anchor="middle" x="243.042" y="-193.78" font-family="Times,serif" font-size="14.00">My first program</text>
</g>
<!-- ST&#45;&gt;MFP -->
<g id="edge8" class="edge"><title>ST&#45;&gt;MFP</title>
<path fill="none" stroke="black" d="M243.042,-251.177C243.042,-243.463 243.042,-234.193 243.042,-225.593"/>
<polygon fill="black" stroke="black" points="246.542,-225.585 243.042,-215.585 239.542,-225.585 246.542,-225.585"/>
</g>
<!-- p5 -->
<g id="node5" class="node"><title>p5</title>
<ellipse fill="none" stroke="black" cx="518.042" cy="-197.48" rx="27.8951" ry="18"/>
<text text-anchor="middle" x="518.042" y="-193.78" font-family="Times,serif" font-size="14.00">p5.js</text>
</g>
<!-- WE&#45;&gt;p5 -->
<g id="edge5" class="edge"><title>WE&#45;&gt;p5</title>
<path fill="none" stroke="black" d="M518.042,-251.177C518.042,-243.463 518.042,-234.193 518.042,-225.593"/>
<polygon fill="black" stroke="black" points="521.542,-225.585 518.042,-215.585 514.542,-225.585 521.542,-225.585"/>
</g>
<!-- CE -->
<g id="node6" class="node"><title>CE</title>
<ellipse fill="none" stroke="black" cx="533.042" cy="-116.61" rx="53.8905" ry="18"/>
<text text-anchor="middle" x="533.042" y="-112.91" font-family="Times,serif" font-size="14.00">Code Editor</text>
</g>
<!-- WE&#45;&gt;CE -->
<g id="edge6" class="edge"><title>WE&#45;&gt;CE</title>
<path fill="none" stroke="black" d="M534.079,-251.326C542.056,-241.604 550.867,-228.754 555.042,-215.48 562.552,-191.604 554.696,-163.69 546.36,-143.798"/>
<polygon fill="black" stroke="black" points="549.456,-142.148 542.166,-134.46 543.07,-145.016 549.456,-142.148"/>
</g>
<!-- WE&#45;&gt;MFP -->
<g id="edge20" class="edge"><title>WE&#45;&gt;MFP</title>
<path fill="none" stroke="black" d="M464.367,-254.817C417.669,-242.931 350.114,-225.735 301.94,-213.472"/>
<polygon fill="black" stroke="black" points="302.523,-210.009 291.969,-210.934 300.796,-216.793 302.523,-210.009"/>
</g>
<!-- Git -->
<g id="node11" class="node"><title>Git</title>
<ellipse fill="none" stroke="black" cx="629.042" cy="-197.48" rx="27" ry="18"/>
<text text-anchor="middle" x="629.042" y="-193.78" font-family="Times,serif" font-size="14.00">Git</text>
</g>
<!-- WE&#45;&gt;Git -->
<g id="edge7" class="edge"><title>WE&#45;&gt;Git</title>
<path fill="none" stroke="black" d="M544.067,-252.068C561.31,-241.194 583.9,-226.948 601.455,-215.878"/>
<polygon fill="black" stroke="black" points="603.529,-218.708 610.12,-210.413 599.795,-212.787 603.529,-218.708"/>
</g>
<!-- p5&#45;&gt;CE -->
<g id="edge19" class="edge"><title>p5&#45;&gt;CE</title>
<path fill="none" stroke="black" d="M523.198,-169.37C524.719,-161.373 526.383,-152.624 527.903,-144.633"/>
<polygon fill="black" stroke="black" points="519.727,-168.889 521.297,-179.367 526.604,-170.197 519.727,-168.889"/>
<polygon fill="black" stroke="black" points="531.364,-145.168 529.794,-134.69 524.487,-143.86 531.364,-145.168"/>
</g>
<!-- RG -->
<g id="node10" class="node"><title>RG</title>
<ellipse fill="none" stroke="black" cx="390.042" cy="-116.61" rx="71.3357" ry="26.7407"/>
<text text-anchor="middle" x="390.042" y="-120.41" font-family="Times,serif" font-size="14.00">Reading: </text>
<text text-anchor="middle" x="390.042" y="-105.41" font-family="Times,serif" font-size="14.00">reference guide</text>
</g>
<!-- p5&#45;&gt;RG -->
<g id="edge21" class="edge"><title>p5&#45;&gt;RG</title>
<path fill="none" stroke="black" d="M498.602,-184.502C481.759,-174.124 456.744,-158.71 434.97,-145.294"/>
<polygon fill="black" stroke="black" points="436.534,-142.146 426.185,-139.88 432.862,-148.106 436.534,-142.146"/>
</g>
<!-- EiC -->
<g id="node8" class="node"><title>EiC</title>
<ellipse fill="none" stroke="black" cx="403.042" cy="-197.48" rx="69.5877" ry="18"/>
<text text-anchor="middle" x="403.042" y="-193.78" font-family="Times,serif" font-size="14.00">Exercise in class</text>
</g>
<!-- MFP&#45;&gt;EiC -->
<g id="edge9" class="edge"><title>MFP&#45;&gt;EiC</title>
<path fill="none" stroke="black" d="M315.855,-197.48C318.297,-197.48 320.74,-197.48 323.182,-197.48"/>
<polygon fill="black" stroke="black" points="323.224,-200.98 333.224,-197.48 323.224,-193.98 323.224,-200.98"/>
</g>
<!-- RC -->
<g id="node9" class="node"><title>RC</title>
<ellipse fill="none" stroke="black" cx="228.042" cy="-116.61" rx="72.25" ry="26.7407"/>
<text text-anchor="middle" x="228.042" y="-120.41" font-family="Times,serif" font-size="14.00">Reading code: &#160;</text>
<text text-anchor="middle" x="228.042" y="-105.41" font-family="Times,serif" font-size="14.00">&#39;Hello World&#39;</text>
</g>
<!-- MFP&#45;&gt;RC -->
<g id="edge10" class="edge"><title>MFP&#45;&gt;RC</title>
<path fill="none" stroke="black" d="M239.787,-179.367C238.347,-171.796 236.596,-162.588 234.89,-153.619"/>
<polygon fill="black" stroke="black" points="238.31,-152.863 233.003,-143.693 231.433,-154.171 238.31,-152.863"/>
</g>
<!-- MFP&#45;&gt;RG -->
<g id="edge11" class="edge"><title>MFP&#45;&gt;RG</title>
<path fill="none" stroke="black" d="M272.085,-180.898C291.807,-170.316 318.37,-156.064 341.296,-143.764"/>
<polygon fill="black" stroke="black" points="343.052,-146.794 350.209,-138.982 339.742,-140.626 343.052,-146.794"/>
</g>
<!-- MX -->
<g id="node13" class="node"><title>MX</title>
<ellipse fill="none" stroke="black" cx="390.042" cy="-26.8701" rx="106.547" ry="26.7407"/>
<text text-anchor="middle" x="390.042" y="-30.6701" font-family="Times,serif" font-size="14.00">MiniX 1: </text>
<text text-anchor="middle" x="390.042" y="-15.6701" font-family="Times,serif" font-size="14.00">RUNME and README</text>
</g>
<!-- RG&#45;&gt;MX -->
<g id="edge18" class="edge"><title>RG&#45;&gt;MX</title>
<path fill="none" stroke="black" d="M390.042,-89.2852C390.042,-81.3185 390.042,-72.4275 390.042,-63.9391"/>
<polygon fill="black" stroke="black" points="393.542,-63.874 390.042,-53.874 386.542,-63.8741 393.542,-63.874"/>
</g>
<!-- Git&#45;&gt;MW -->
<g id="edge17" class="edge"><title>Git&#45;&gt;MW</title>
<path fill="none" stroke="black" d="M632.08,-179.367C633.878,-169.238 636.196,-156.18 638.237,-144.682"/>
<polygon fill="black" stroke="black" points="641.709,-145.148 640.01,-134.69 634.816,-143.925 641.709,-145.148"/>
</g>
<!-- MW&#45;&gt;MX -->
<g id="edge13" class="edge"><title>MW&#45;&gt;MX</title>
<path fill="none" stroke="black" d="M620.575,-101.982C612.957,-97.7045 604.287,-93.2013 596.042,-89.7401 557.166,-73.4194 512.51,-59.4598 474.735,-48.9534"/>
<polygon fill="black" stroke="black" points="475.352,-45.4933 464.782,-46.2203 473.498,-52.2434 475.352,-45.4933"/>
</g>
<!-- Notes -->
<g id="node15" class="node"><title>Notes</title>
<ellipse fill="none" stroke="black" cx="643.042" cy="-26.8701" rx="31.3957" ry="18"/>
<text text-anchor="middle" x="643.042" y="-23.1701" font-family="Times,serif" font-size="14.00">Notes</text>
</g>
<!-- MW&#45;&gt;Notes -->
<g id="edge14" class="edge"><title>MW&#45;&gt;Notes</title>
<path fill="none" stroke="black" d="M643.042,-98.2755C643.042,-85.9384 643.042,-69.1165 643.042,-55.0094"/>
<polygon fill="black" stroke="black" points="646.542,-54.8701 643.042,-44.8701 639.542,-54.8702 646.542,-54.8701"/>
</g>
<!-- RR&#45;&gt;SU -->
<g id="edge16" class="edge"><title>RR&#45;&gt;SU</title>
<path fill="none" stroke="black" d="M99.066,-215.318C126.462,-240.912 178.614,-289.633 209.142,-318.153"/>
<polygon fill="black" stroke="black" points="207.079,-321.015 216.775,-325.284 211.857,-315.9 207.079,-321.015"/>
</g>
<!-- RR&#45;&gt;MX -->
<g id="edge15" class="edge"><title>RR&#45;&gt;MX</title>
<path fill="none" stroke="black" d="M86.9824,-179.182C96.082,-155.328 115.778,-112.687 147.042,-89.7401 185.298,-61.6617 235.033,-46.2775 279.535,-37.8679"/>
<polygon fill="black" stroke="black" points="280.309,-41.2851 289.535,-36.077 279.075,-34.3947 280.309,-41.2851"/>
</g>
</g>
</svg>
