<?xml version="1.0" encoding="UTF-8" standalone="no"?>
<!DOCTYPE svg PUBLIC "-//W3C//DTD SVG 1.1//EN"
 "http://www.w3.org/Graphics/SVG/1.1/DTD/svg11.dtd">
<!-- Generated by graphviz version 2.38.0 (20140413.2041)
 -->
<!-- Title: G Pages: 1 -->
<svg width="745pt" height="367pt"
 viewBox="0.00 0.00 745.44 367.48" xmlns="http://www.w3.org/2000/svg" xmlns:xlink="http://www.w3.org/1999/xlink">
<g id="graph0" class="graph" transform="scale(1 1) rotate(0) translate(4 363.48)">
<title>G</title>
<polygon fill="white" stroke="none" points="-4,4 -4,-363.48 741.441,-363.48 741.441,4 -4,4"/>
<!-- GS -->
<g id="node1" class="node"><title>GS</title>
<ellipse fill="none" stroke="grey" stroke-width="2" cx="107.494" cy="-341.48" rx="89.0842" ry="18"/>
<text text-anchor="middle" x="107.494" y="-337.78" font-family="Times,serif" font-size="14.00">Ch.1 &#45; Getting Started</text>
</g>
<!-- SU -->
<g id="node2" class="node"><title>SU</title>
<ellipse fill="none" stroke="black" cx="107.494" cy="-269.48" rx="35.194" ry="18"/>
<text text-anchor="middle" x="107.494" y="-265.78" font-family="Times,serif" font-size="14.00">setup()</text>
</g>
<!-- GS&#45;&gt;SU -->
<g id="edge1" class="edge"><title>GS&#45;&gt;SU</title>
<path fill="none" stroke="black" d="M107.494,-323.177C107.494,-315.463 107.494,-306.193 107.494,-297.593"/>
<polygon fill="black" stroke="black" points="110.994,-297.585 107.494,-287.585 103.994,-297.585 110.994,-297.585"/>
</g>
<!-- MX -->
<g id="node13" class="node"><title>MX</title>
<ellipse fill="none" stroke="black" cx="170.494" cy="-26.8701" rx="82.0488" ry="26.7407"/>
<text text-anchor="middle" x="170.494" y="-30.6701" font-family="Times,serif" font-size="14.00">MiniX 1: </text>
<text text-anchor="middle" x="170.494" y="-15.6701" font-family="Times,serif" font-size="14.00">My First Program</text>
</g>
<!-- GS&#45;&gt;MX -->
<g id="edge4" class="edge"><title>GS&#45;&gt;MX</title>
<path fill="none" stroke="black" d="M126.105,-323.71C135.456,-314.1 145.952,-301.235 151.494,-287.48 181.669,-212.577 178.976,-115.754 174.598,-64.1058"/>
<polygon fill="black" stroke="black" points="178.079,-63.7344 173.679,-54.0962 171.108,-64.3743 178.079,-63.7344"/>
</g>
<!-- RR -->
<g id="node14" class="node"><title>RR</title>
<ellipse fill="none" stroke="black" cx="71.4937" cy="-116.61" rx="71.4873" ry="18"/>
<text text-anchor="middle" x="71.4937" y="-112.91" font-family="Times,serif" font-size="14.00">Required reading</text>
</g>
<!-- GS&#45;&gt;RR -->
<g id="edge3" class="edge"><title>GS&#45;&gt;RR</title>
<path fill="none" stroke="black" d="M88.4789,-323.864C79.0095,-314.299 68.5289,-301.428 63.4937,-287.48 46.1412,-239.412 55.9118,-178.686 64.0602,-144.395"/>
<polygon fill="black" stroke="black" points="67.4676,-145.195 66.5051,-134.644 60.6778,-143.493 67.4676,-145.195"/>
</g>
<!-- ST -->
<g id="node3" class="node"><title>ST</title>
<ellipse fill="none" stroke="black" cx="328.494" cy="-269.48" rx="31.6951" ry="18"/>
<text text-anchor="middle" x="328.494" y="-265.78" font-family="Times,serif" font-size="14.00">start()</text>
</g>
<!-- SU&#45;&gt;ST -->
<g id="edge2" class="edge"><title>SU&#45;&gt;ST</title>
<path fill="none" stroke="black" d="M142.888,-269.48C190.721,-269.48 238.553,-269.48 286.386,-269.48"/>
<polygon fill="black" stroke="black" points="286.593,-272.98 296.593,-269.48 286.593,-265.98 286.593,-272.98"/>
</g>
<!-- WE -->
<g id="node4" class="node"><title>WE</title>
<ellipse fill="none" stroke="black" cx="586.494" cy="-269.48" rx="90.9839" ry="18"/>
<text text-anchor="middle" x="586.494" y="-265.78" font-family="Times,serif" font-size="14.00">Working Environment</text>
</g>
<!-- ST&#45;&gt;WE -->
<g id="edge5" class="edge"><title>ST&#45;&gt;WE</title>
<path fill="none" stroke="black" d="M360.492,-269.48C401.95,-269.48 443.408,-269.48 484.867,-269.48"/>
<polygon fill="black" stroke="black" points="485.122,-272.98 495.122,-269.48 485.122,-265.98 485.122,-272.98"/>
</g>
<!-- MFP -->
<g id="node7" class="node"><title>MFP</title>
<ellipse fill="none" stroke="black" cx="392.494" cy="-197.48" rx="72.5877" ry="18"/>
<text text-anchor="middle" x="392.494" y="-193.78" font-family="Times,serif" font-size="14.00">My first program</text>
</g>
<!-- ST&#45;&gt;MFP -->
<g id="edge9" class="edge"><title>ST&#45;&gt;MFP</title>
<path fill="none" stroke="black" d="M342.697,-252.945C350.717,-244.173 360.924,-233.009 370.006,-223.076"/>
<polygon fill="black" stroke="black" points="372.821,-225.184 376.986,-215.442 367.655,-220.461 372.821,-225.184"/>
</g>
<!-- MW -->
<g id="node12" class="node"><title>MW</title>
<ellipse fill="none" stroke="black" cx="263.494" cy="-197.48" rx="38.1938" ry="18"/>
<text text-anchor="middle" x="263.494" y="-193.78" font-family="Times,serif" font-size="14.00">While()</text>
</g>
<!-- ST&#45;&gt;MW -->
<g id="edge13" class="edge"><title>ST&#45;&gt;MW</title>
<path fill="none" stroke="black" d="M314.39,-253.291C305.94,-244.191 295.016,-232.427 285.456,-222.132"/>
<polygon fill="black" stroke="black" points="287.844,-219.56 278.475,-214.614 282.715,-224.323 287.844,-219.56"/>
</g>
<!-- p5 -->
<g id="node5" class="node"><title>p5</title>
<ellipse fill="none" stroke="black" cx="709.494" cy="-197.48" rx="27.8951" ry="18"/>
<text text-anchor="middle" x="709.494" y="-193.78" font-family="Times,serif" font-size="14.00">p5.js</text>
</g>
<!-- WE&#45;&gt;p5 -->
<g id="edge6" class="edge"><title>WE&#45;&gt;p5</title>
<path fill="none" stroke="black" d="M615.021,-252.245C634.626,-241.088 660.578,-226.319 680.32,-215.083"/>
<polygon fill="black" stroke="black" points="682.223,-218.027 689.183,-210.039 678.76,-211.944 682.223,-218.027"/>
</g>
<!-- CE -->
<g id="node6" class="node"><title>CE</title>
<ellipse fill="none" stroke="black" cx="537.494" cy="-197.48" rx="53.8905" ry="18"/>
<text text-anchor="middle" x="537.494" y="-193.78" font-family="Times,serif" font-size="14.00">Code Editor</text>
</g>
<!-- WE&#45;&gt;CE -->
<g id="edge7" class="edge"><title>WE&#45;&gt;CE</title>
<path fill="none" stroke="black" d="M574.632,-251.535C568.794,-243.195 561.637,-232.971 555.17,-223.732"/>
<polygon fill="black" stroke="black" points="557.848,-221.454 549.246,-215.269 552.113,-225.469 557.848,-221.454"/>
</g>
<!-- Git -->
<g id="node11" class="node"><title>Git</title>
<ellipse fill="none" stroke="black" cx="636.494" cy="-197.48" rx="27" ry="18"/>
<text text-anchor="middle" x="636.494" y="-193.78" font-family="Times,serif" font-size="14.00">Git</text>
</g>
<!-- WE&#45;&gt;Git -->
<g id="edge8" class="edge"><title>WE&#45;&gt;Git</title>
<path fill="none" stroke="black" d="M598.597,-251.535C604.793,-242.861 612.444,-232.15 619.246,-222.627"/>
<polygon fill="black" stroke="black" points="622.223,-224.481 625.187,-214.31 616.526,-220.413 622.223,-224.481"/>
</g>
<!-- EiC -->
<g id="node8" class="node"><title>EiC</title>
<ellipse fill="none" stroke="black" cx="487.494" cy="-26.8701" rx="69.5877" ry="18"/>
<text text-anchor="middle" x="487.494" y="-23.1701" font-family="Times,serif" font-size="14.00">Exercise in class</text>
</g>
<!-- MFP&#45;&gt;EiC -->
<g id="edge10" class="edge"><title>MFP&#45;&gt;EiC</title>
<path fill="none" stroke="black" d="M425.337,-181.326C440.859,-172.477 458.201,-159.811 468.494,-143.48 485.31,-116.798 488.726,-80.0263 488.805,-55.1752"/>
<polygon fill="black" stroke="black" points="492.302,-54.9439 488.653,-44.9971 485.303,-55.0481 492.302,-54.9439"/>
</g>
<!-- RC -->
<g id="node9" class="node"><title>RC</title>
<ellipse fill="none" stroke="black" cx="587.494" cy="-116.61" rx="72.25" ry="26.7407"/>
<text text-anchor="middle" x="587.494" y="-120.41" font-family="Times,serif" font-size="14.00">Reading code: &#160;</text>
<text text-anchor="middle" x="587.494" y="-105.41" font-family="Times,serif" font-size="14.00">&#39;Hello World&#39;</text>
</g>
<!-- MFP&#45;&gt;RC -->
<g id="edge11" class="edge"><title>MFP&#45;&gt;RC</title>
<path fill="none" stroke="black" d="M428.715,-181.83C457.185,-170.315 497.377,-154.059 530.2,-140.783"/>
<polygon fill="black" stroke="black" points="531.728,-143.941 539.686,-136.947 529.103,-137.451 531.728,-143.941"/>
</g>
<!-- RG -->
<g id="node10" class="node"><title>RG</title>
<ellipse fill="none" stroke="black" cx="388.494" cy="-116.61" rx="71.3357" ry="26.7407"/>
<text text-anchor="middle" x="388.494" y="-120.41" font-family="Times,serif" font-size="14.00">Reading: </text>
<text text-anchor="middle" x="388.494" y="-105.41" font-family="Times,serif" font-size="14.00">reference guide</text>
</g>
<!-- MFP&#45;&gt;RG -->
<g id="edge12" class="edge"><title>MFP&#45;&gt;RG</title>
<path fill="none" stroke="black" d="M391.626,-179.367C391.246,-171.877 390.785,-162.786 390.335,-153.908"/>
<polygon fill="black" stroke="black" points="393.819,-153.503 389.816,-143.693 386.828,-153.858 393.819,-153.503"/>
</g>
<!-- MW&#45;&gt;MX -->
<g id="edge15" class="edge"><title>MW&#45;&gt;MX</title>
<path fill="none" stroke="black" d="M251.538,-180.153C244.223,-169.863 234.883,-156.168 227.494,-143.48 212.152,-117.136 196.997,-86.0912 186.174,-62.8087"/>
<polygon fill="black" stroke="black" points="189.322,-61.2773 181.959,-53.6599 182.965,-64.2069 189.322,-61.2773"/>
</g>
<!-- Notes -->
<g id="node15" class="node"><title>Notes</title>
<ellipse fill="none" stroke="black" cx="267.494" cy="-116.61" rx="31.3957" ry="18"/>
<text text-anchor="middle" x="267.494" y="-112.91" font-family="Times,serif" font-size="14.00">Notes</text>
</g>
<!-- MW&#45;&gt;Notes -->
<g id="edge14" class="edge"><title>MW&#45;&gt;Notes</title>
<path fill="none" stroke="black" d="M264.362,-179.367C264.875,-169.238 265.538,-156.18 266.121,-144.682"/>
<polygon fill="black" stroke="black" points="269.616,-144.855 266.627,-134.69 262.625,-144.5 269.616,-144.855"/>
</g>
<!-- RR&#45;&gt;SU -->
<g id="edge17" class="edge"><title>RR&#45;&gt;SU</title>
<path fill="none" stroke="black" d="M75.5937,-134.793C81.8031,-160.815 93.6484,-210.457 101.027,-241.379"/>
<polygon fill="black" stroke="black" points="97.7085,-242.552 103.434,-251.467 104.517,-240.927 97.7085,-242.552"/>
</g>
<!-- RR&#45;&gt;MX -->
<g id="edge16" class="edge"><title>RR&#45;&gt;MX</title>
<path fill="none" stroke="black" d="M90.1148,-99.1069C102.802,-87.8625 119.996,-72.6243 135.226,-59.1269"/>
<polygon fill="black" stroke="black" points="137.814,-61.5098 142.976,-52.2578 133.171,-56.2711 137.814,-61.5098"/>
</g>
</g>
</svg>
