<?xml version="1.0" encoding="UTF-8" standalone="no"?>
<!DOCTYPE svg PUBLIC "-//W3C//DTD SVG 1.1//EN"
 "http://www.w3.org/Graphics/SVG/1.1/DTD/svg11.dtd">
<!-- Generated by graphviz version 2.38.0 (20140413.2041)
 -->
<!-- Title: G Pages: 1 -->
<svg width="638pt" height="583pt"
 viewBox="0.00 0.00 637.59 583.48" xmlns="http://www.w3.org/2000/svg" xmlns:xlink="http://www.w3.org/1999/xlink">
<g id="graph0" class="graph" transform="scale(1 1) rotate(0) translate(4 579.48)">
<title>G</title>
<polygon fill="white" stroke="none" points="-4,4 -4,-579.48 633.592,-579.48 633.592,4 -4,4"/>
<!-- GS -->
<g id="node1" class="node"><title>GS</title>
<ellipse fill="none" stroke="black" cx="323.948" cy="-557.48" rx="64.189" ry="18"/>
<text text-anchor="middle" x="323.948" y="-553.78" font-family="Times,serif" font-size="14.00">Getting Started</text>
</g>
<!-- SU -->
<g id="node2" class="node"><title>SU</title>
<ellipse fill="none" stroke="black" cx="323.948" cy="-485.48" rx="35.194" ry="18"/>
<text text-anchor="middle" x="323.948" y="-481.78" font-family="Times,serif" font-size="14.00">setup()</text>
</g>
<!-- GS&#45;&gt;SU -->
<g id="edge1" class="edge"><title>GS&#45;&gt;SU</title>
<path fill="none" stroke="black" d="M323.948,-539.177C323.948,-531.463 323.948,-522.193 323.948,-513.593"/>
<polygon fill="black" stroke="black" points="327.448,-513.585 323.948,-503.585 320.448,-513.585 327.448,-513.585"/>
</g>
<!-- ST -->
<g id="node3" class="node"><title>ST</title>
<ellipse fill="none" stroke="black" cx="323.948" cy="-413.48" rx="31.6951" ry="18"/>
<text text-anchor="middle" x="323.948" y="-409.78" font-family="Times,serif" font-size="14.00">start()</text>
</g>
<!-- SU&#45;&gt;ST -->
<g id="edge2" class="edge"><title>SU&#45;&gt;ST</title>
<path fill="none" stroke="black" d="M323.948,-467.177C323.948,-459.463 323.948,-450.193 323.948,-441.593"/>
<polygon fill="black" stroke="black" points="327.448,-441.585 323.948,-431.585 320.448,-441.585 327.448,-441.585"/>
</g>
<!-- WE -->
<g id="node4" class="node"><title>WE</title>
<ellipse fill="none" stroke="black" cx="127.948" cy="-98.8701" rx="90.9839" ry="18"/>
<text text-anchor="middle" x="127.948" y="-95.1701" font-family="Times,serif" font-size="14.00">Working Environment</text>
</g>
<!-- ST&#45;&gt;WE -->
<g id="edge6" class="edge"><title>ST&#45;&gt;WE</title>
<path fill="none" stroke="black" d="M298.191,-402.838C257.865,-386.214 180.928,-348.002 146.948,-287.48 118.429,-236.686 120.376,-165.866 124.215,-127.397"/>
<polygon fill="black" stroke="black" points="127.744,-127.329 125.379,-117.001 120.788,-126.549 127.744,-127.329"/>
</g>
<!-- MFP -->
<g id="node7" class="node"><title>MFP</title>
<ellipse fill="none" stroke="black" cx="323.948" cy="-341.48" rx="72.5877" ry="18"/>
<text text-anchor="middle" x="323.948" y="-337.78" font-family="Times,serif" font-size="14.00">My first program</text>
</g>
<!-- ST&#45;&gt;MFP -->
<g id="edge7" class="edge"><title>ST&#45;&gt;MFP</title>
<path fill="none" stroke="black" d="M323.948,-395.177C323.948,-387.463 323.948,-378.193 323.948,-369.593"/>
<polygon fill="black" stroke="black" points="327.448,-369.585 323.948,-359.585 320.448,-369.585 327.448,-369.585"/>
</g>
<!-- MW -->
<g id="node12" class="node"><title>MW</title>
<ellipse fill="none" stroke="black" cx="484.948" cy="-341.48" rx="57.6901" ry="18"/>
<text text-anchor="middle" x="484.948" y="-337.78" font-family="Times,serif" font-size="14.00">meanWhile()</text>
</g>
<!-- ST&#45;&gt;MW -->
<g id="edge11" class="edge"><title>ST&#45;&gt;MW</title>
<path fill="none" stroke="black" d="M348.4,-401.849C373.562,-390.909 413.229,-373.662 443.339,-360.571"/>
<polygon fill="black" stroke="black" points="444.974,-363.677 452.749,-356.48 442.183,-357.257 444.974,-363.677"/>
</g>
<!-- p5 -->
<g id="node5" class="node"><title>p5</title>
<ellipse fill="none" stroke="black" cx="27.9475" cy="-18" rx="27.8951" ry="18"/>
<text text-anchor="middle" x="27.9475" y="-14.3" font-family="Times,serif" font-size="14.00">p5.js</text>
</g>
<!-- WE&#45;&gt;p5 -->
<g id="edge3" class="edge"><title>WE&#45;&gt;p5</title>
<path fill="none" stroke="black" d="M106.74,-81.1437C91.1171,-68.8219 69.8048,-52.0129 53.2847,-38.9835"/>
<polygon fill="black" stroke="black" points="55.1574,-36.0029 45.1381,-32.5582 50.8225,-41.4991 55.1574,-36.0029"/>
</g>
<!-- CE -->
<g id="node6" class="node"><title>CE</title>
<ellipse fill="none" stroke="black" cx="127.948" cy="-18" rx="53.8905" ry="18"/>
<text text-anchor="middle" x="127.948" y="-14.3" font-family="Times,serif" font-size="14.00">Code Editor</text>
</g>
<!-- WE&#45;&gt;CE -->
<g id="edge4" class="edge"><title>WE&#45;&gt;CE</title>
<path fill="none" stroke="black" d="M127.948,-80.7564C127.948,-70.7312 127.948,-57.8362 127.948,-46.4246"/>
<polygon fill="black" stroke="black" points="131.448,-46.0802 127.948,-36.0802 124.448,-46.0803 131.448,-46.0802"/>
</g>
<!-- Git -->
<g id="node11" class="node"><title>Git</title>
<ellipse fill="none" stroke="black" cx="226.948" cy="-18" rx="27" ry="18"/>
<text text-anchor="middle" x="226.948" y="-14.3" font-family="Times,serif" font-size="14.00">Git</text>
</g>
<!-- WE&#45;&gt;Git -->
<g id="edge5" class="edge"><title>WE&#45;&gt;Git</title>
<path fill="none" stroke="black" d="M148.943,-81.1437C164.506,-68.7448 185.773,-51.8026 202.17,-38.7396"/>
<polygon fill="black" stroke="black" points="204.604,-41.2753 210.244,-32.3068 200.242,-35.8003 204.604,-41.2753"/>
</g>
<!-- EiC -->
<g id="node8" class="node"><title>EiC</title>
<ellipse fill="none" stroke="black" cx="225.948" cy="-269.48" rx="69.5877" ry="18"/>
<text text-anchor="middle" x="225.948" y="-265.78" font-family="Times,serif" font-size="14.00">Exercise in class</text>
</g>
<!-- MFP&#45;&gt;EiC -->
<g id="edge8" class="edge"><title>MFP&#45;&gt;EiC</title>
<path fill="none" stroke="black" d="M301.218,-324.245C287.983,-314.792 271.119,-302.745 256.708,-292.452"/>
<polygon fill="black" stroke="black" points="258.725,-289.592 248.554,-286.628 254.657,-295.288 258.725,-289.592"/>
</g>
<!-- SC -->
<g id="node9" class="node"><title>SC</title>
<ellipse fill="none" stroke="black" cx="311.948" cy="-188.61" rx="69.0935" ry="26.7407"/>
<text text-anchor="middle" x="311.948" y="-192.41" font-family="Times,serif" font-size="14.00">Sample code: &#160;</text>
<text text-anchor="middle" x="311.948" y="-177.41" font-family="Times,serif" font-size="14.00">&#39;Hello World&#39;</text>
</g>
<!-- MFP&#45;&gt;SC -->
<g id="edge9" class="edge"><title>MFP&#45;&gt;SC</title>
<path fill="none" stroke="black" d="M322.594,-323.467C320.716,-299.857 317.274,-256.575 314.811,-225.616"/>
<polygon fill="black" stroke="black" points="318.3,-225.327 314.018,-215.636 311.322,-225.882 318.3,-225.327"/>
</g>
<!-- SR -->
<g id="node10" class="node"><title>SR</title>
<ellipse fill="none" stroke="black" cx="408.948" cy="-98.8701" rx="71.3357" ry="26.7407"/>
<text text-anchor="middle" x="408.948" y="-102.67" font-family="Times,serif" font-size="14.00">Sample code: </text>
<text text-anchor="middle" x="408.948" y="-87.6701" font-family="Times,serif" font-size="14.00">reference guide</text>
</g>
<!-- MFP&#45;&gt;SR -->
<g id="edge10" class="edge"><title>MFP&#45;&gt;SR</title>
<path fill="none" stroke="black" d="M335.223,-323.483C350.149,-300.149 376.183,-256.42 389.948,-215.48 398.604,-189.733 403.4,-159.386 406.007,-136.247"/>
<polygon fill="black" stroke="black" points="409.502,-136.473 407.057,-126.164 402.54,-135.748 409.502,-136.473"/>
</g>
<!-- MX -->
<g id="node13" class="node"><title>MX</title>
<ellipse fill="none" stroke="black" cx="508.948" cy="-269.48" rx="61.99" ry="18"/>
<text text-anchor="middle" x="508.948" y="-265.78" font-family="Times,serif" font-size="14.00">Mini&#45;Exercise</text>
</g>
<!-- MW&#45;&gt;MX -->
<g id="edge12" class="edge"><title>MW&#45;&gt;MX</title>
<path fill="none" stroke="black" d="M490.757,-323.535C493.459,-315.656 496.736,-306.097 499.761,-297.274"/>
<polygon fill="black" stroke="black" points="503.092,-298.35 503.025,-287.756 496.47,-296.08 503.092,-298.35"/>
</g>
<!-- RR -->
<g id="node14" class="node"><title>RR</title>
<ellipse fill="none" stroke="black" cx="535.948" cy="-188.61" rx="71.4873" ry="18"/>
<text text-anchor="middle" x="535.948" y="-184.91" font-family="Times,serif" font-size="14.00">Required reading</text>
</g>
<!-- MX&#45;&gt;RR -->
<g id="edge13" class="edge"><title>MX&#45;&gt;RR</title>
<path fill="none" stroke="black" d="M514.806,-251.367C518.309,-241.135 522.835,-227.913 526.8,-216.331"/>
<polygon fill="black" stroke="black" points="530.173,-217.285 530.1,-206.69 523.55,-215.018 530.173,-217.285"/>
</g>
<!-- FR -->
<g id="node15" class="node"><title>FR</title>
<ellipse fill="none" stroke="black" cx="563.948" cy="-98.8701" rx="65.7887" ry="18"/>
<text text-anchor="middle" x="563.948" y="-95.1701" font-family="Times,serif" font-size="14.00">Further reading</text>
</g>
<!-- RR&#45;&gt;FR -->
<g id="edge14" class="edge"><title>RR&#45;&gt;FR</title>
<path fill="none" stroke="black" d="M541.479,-170.276C545.455,-157.817 550.89,-140.786 555.419,-126.595"/>
<polygon fill="black" stroke="black" points="558.816,-127.461 558.522,-116.87 552.148,-125.333 558.816,-127.461"/>
</g>
<!-- Notes -->
<g id="node16" class="node"><title>Notes</title>
<ellipse fill="none" stroke="black" cx="563.948" cy="-18" rx="31.3957" ry="18"/>
<text text-anchor="middle" x="563.948" y="-14.3" font-family="Times,serif" font-size="14.00">Notes</text>
</g>
<!-- FR&#45;&gt;Notes -->
<g id="edge15" class="edge"><title>FR&#45;&gt;Notes</title>
<path fill="none" stroke="black" d="M563.948,-80.7564C563.948,-70.7312 563.948,-57.8362 563.948,-46.4246"/>
<polygon fill="black" stroke="black" points="567.448,-46.0802 563.948,-36.0802 560.448,-46.0803 567.448,-46.0802"/>
</g>
</g>
</svg>
