<?xml version="1.0" encoding="UTF-8" standalone="no"?>
<!DOCTYPE svg PUBLIC "-//W3C//DTD SVG 1.1//EN"
 "http://www.w3.org/Graphics/SVG/1.1/DTD/svg11.dtd">
<!-- Generated by graphviz version 2.38.0 (20140413.2041)
 -->
<!-- Title: G Pages: 1 -->
<svg width="680pt" height="367pt"
 viewBox="0.00 0.00 680.05 367.48" xmlns="http://www.w3.org/2000/svg" xmlns:xlink="http://www.w3.org/1999/xlink">
<g id="graph0" class="graph" transform="scale(1 1) rotate(0) translate(4 363.48)">
<title>G</title>
<polygon fill="white" stroke="none" points="-4,4 -4,-363.48 676.055,-363.48 676.055,4 -4,4"/>
<!-- GS -->
<g id="node1" class="node"><title>GS</title>
<ellipse fill="none" stroke="grey" stroke-width="2" cx="89.0421" cy="-341.48" rx="89.0842" ry="18"/>
<text text-anchor="middle" x="89.0421" y="-337.78" font-family="Times,serif" font-size="14.00">Ch.1 &#45; Getting Started</text>
</g>
<!-- SU -->
<g id="node2" class="node"><title>SU</title>
<ellipse fill="none" stroke="black" cx="233.042" cy="-341.48" rx="35.194" ry="18"/>
<text text-anchor="middle" x="233.042" y="-337.78" font-family="Times,serif" font-size="14.00">setup()</text>
</g>
<!-- GS&#45;&gt;SU -->
<g id="edge1" class="edge"><title>GS&#45;&gt;SU</title>
<path fill="none" stroke="black" d="M178.198,-341.48C181.381,-341.48 184.563,-341.48 187.745,-341.48"/>
<polygon fill="black" stroke="black" points="187.908,-344.98 197.908,-341.48 187.908,-337.98 187.908,-344.98"/>
</g>
<!-- RR -->
<g id="node14" class="node"><title>RR</title>
<ellipse fill="none" stroke="black" cx="81.0421" cy="-197.48" rx="71.4873" ry="18"/>
<text text-anchor="middle" x="81.0421" y="-193.78" font-family="Times,serif" font-size="14.00">Required reading</text>
</g>
<!-- GS&#45;&gt;RR -->
<g id="edge4" class="edge"><title>GS&#45;&gt;RR</title>
<path fill="none" stroke="black" d="M87.5029,-313.159C86.0899,-288.079 84.007,-251.107 82.591,-225.973"/>
<polygon fill="black" stroke="black" points="84.0201,-313.564 88.0771,-323.352 91.009,-313.171 84.0201,-313.564"/>
<polygon fill="black" stroke="black" points="86.0675,-225.457 82.0105,-215.669 79.0786,-225.851 86.0675,-225.457"/>
</g>
<!-- ST -->
<g id="node3" class="node"><title>ST</title>
<ellipse fill="none" stroke="black" cx="243.042" cy="-269.48" rx="31.6951" ry="18"/>
<text text-anchor="middle" x="243.042" y="-265.78" font-family="Times,serif" font-size="14.00">start()</text>
</g>
<!-- SU&#45;&gt;ST -->
<g id="edge2" class="edge"><title>SU&#45;&gt;ST</title>
<path fill="none" stroke="black" d="M235.514,-323.177C236.616,-315.463 237.94,-306.193 239.169,-297.593"/>
<polygon fill="black" stroke="black" points="242.649,-297.979 240.599,-287.585 235.72,-296.989 242.649,-297.979"/>
</g>
<!-- MW -->
<g id="node12" class="node"><title>MW</title>
<ellipse fill="none" stroke="black" cx="630.042" cy="-116.61" rx="38.1938" ry="18"/>
<text text-anchor="middle" x="630.042" y="-112.91" font-family="Times,serif" font-size="14.00">While()</text>
</g>
<!-- SU&#45;&gt;MW -->
<g id="edge12" class="edge"><title>SU&#45;&gt;MW</title>
<path fill="none" stroke="black" d="M278.349,-339.587C369.992,-336.966 573.383,-326.762 629.042,-287.48 670.497,-258.224 679.257,-228.468 666.042,-179.48 662.502,-166.357 655.415,-153.154 648.459,-142.334"/>
<polygon fill="black" stroke="black" points="278.169,-336.091 268.266,-339.858 278.356,-343.088 278.169,-336.091"/>
<polygon fill="black" stroke="black" points="651.229,-140.183 642.727,-133.861 645.431,-144.105 651.229,-140.183"/>
</g>
<!-- WE -->
<g id="node4" class="node"><title>WE</title>
<ellipse fill="none" stroke="black" cx="529.042" cy="-269.48" rx="90.9839" ry="18"/>
<text text-anchor="middle" x="529.042" y="-265.78" font-family="Times,serif" font-size="14.00">Working Environment</text>
</g>
<!-- ST&#45;&gt;WE -->
<g id="edge3" class="edge"><title>ST&#45;&gt;WE</title>
<path fill="none" stroke="black" d="M275.161,-269.48C325.987,-269.48 376.813,-269.48 427.639,-269.48"/>
<polygon fill="black" stroke="black" points="427.804,-272.98 437.804,-269.48 427.804,-265.98 427.804,-272.98"/>
</g>
<!-- MFP -->
<g id="node7" class="node"><title>MFP</title>
<ellipse fill="none" stroke="black" cx="243.042" cy="-197.48" rx="72.5877" ry="18"/>
<text text-anchor="middle" x="243.042" y="-193.78" font-family="Times,serif" font-size="14.00">My first program</text>
</g>
<!-- ST&#45;&gt;MFP -->
<g id="edge8" class="edge"><title>ST&#45;&gt;MFP</title>
<path fill="none" stroke="black" d="M243.042,-251.177C243.042,-243.463 243.042,-234.193 243.042,-225.593"/>
<polygon fill="black" stroke="black" points="246.542,-225.585 243.042,-215.585 239.542,-225.585 246.542,-225.585"/>
</g>
<!-- p5 -->
<g id="node5" class="node"><title>p5</title>
<ellipse fill="none" stroke="black" cx="557.042" cy="-197.48" rx="27.8951" ry="18"/>
<text text-anchor="middle" x="557.042" y="-193.78" font-family="Times,serif" font-size="14.00">p5.js</text>
</g>
<!-- WE&#45;&gt;p5 -->
<g id="edge5" class="edge"><title>WE&#45;&gt;p5</title>
<path fill="none" stroke="black" d="M535.963,-251.177C539.164,-243.176 543.034,-233.5 546.58,-224.635"/>
<polygon fill="black" stroke="black" points="549.929,-225.687 550.393,-215.103 543.43,-223.087 549.929,-225.687"/>
</g>
<!-- CE -->
<g id="node6" class="node"><title>CE</title>
<ellipse fill="none" stroke="black" cx="516.042" cy="-116.61" rx="53.8905" ry="18"/>
<text text-anchor="middle" x="516.042" y="-112.91" font-family="Times,serif" font-size="14.00">Code Editor</text>
</g>
<!-- WE&#45;&gt;CE -->
<g id="edge6" class="edge"><title>WE&#45;&gt;CE</title>
<path fill="none" stroke="black" d="M525.568,-251.371C523.609,-241.026 521.308,-227.547 520.042,-215.48 517.542,-191.649 516.582,-164.402 516.225,-144.718"/>
<polygon fill="black" stroke="black" points="519.723,-144.581 516.082,-134.631 512.724,-144.68 519.723,-144.581"/>
</g>
<!-- Git -->
<g id="node11" class="node"><title>Git</title>
<ellipse fill="none" stroke="black" cx="630.042" cy="-197.48" rx="27" ry="18"/>
<text text-anchor="middle" x="630.042" y="-193.78" font-family="Times,serif" font-size="14.00">Git</text>
</g>
<!-- WE&#45;&gt;Git -->
<g id="edge7" class="edge"><title>WE&#45;&gt;Git</title>
<path fill="none" stroke="black" d="M552.722,-252.068C567.973,-241.499 587.82,-227.743 603.588,-216.815"/>
<polygon fill="black" stroke="black" points="605.648,-219.646 611.873,-211.073 601.66,-213.892 605.648,-219.646"/>
</g>
<!-- p5&#45;&gt;CE -->
<g id="edge19" class="edge"><title>p5&#45;&gt;CE</title>
<path fill="none" stroke="black" d="M543.827,-171.06C539.255,-162.264 534.127,-152.4 529.533,-143.563"/>
<polygon fill="black" stroke="black" points="540.829,-172.88 548.547,-180.138 547.04,-169.651 540.829,-172.88"/>
<polygon fill="black" stroke="black" points="532.527,-141.734 524.809,-134.475 526.316,-144.962 532.527,-141.734"/>
</g>
<!-- EiC -->
<g id="node8" class="node"><title>EiC</title>
<ellipse fill="none" stroke="black" cx="403.042" cy="-197.48" rx="69.5877" ry="18"/>
<text text-anchor="middle" x="403.042" y="-193.78" font-family="Times,serif" font-size="14.00">Exercise in class</text>
</g>
<!-- MFP&#45;&gt;EiC -->
<g id="edge9" class="edge"><title>MFP&#45;&gt;EiC</title>
<path fill="none" stroke="black" d="M315.855,-197.48C318.297,-197.48 320.74,-197.48 323.182,-197.48"/>
<polygon fill="black" stroke="black" points="323.224,-200.98 333.224,-197.48 323.224,-193.98 323.224,-200.98"/>
</g>
<!-- RC -->
<g id="node9" class="node"><title>RC</title>
<ellipse fill="none" stroke="black" cx="203.042" cy="-116.61" rx="72.25" ry="26.7407"/>
<text text-anchor="middle" x="203.042" y="-120.41" font-family="Times,serif" font-size="14.00">Reading code: &#160;</text>
<text text-anchor="middle" x="203.042" y="-105.41" font-family="Times,serif" font-size="14.00">&#39;Hello World&#39;</text>
</g>
<!-- MFP&#45;&gt;RC -->
<g id="edge10" class="edge"><title>MFP&#45;&gt;RC</title>
<path fill="none" stroke="black" d="M234.363,-179.367C230.33,-171.416 225.382,-161.659 220.62,-152.27"/>
<polygon fill="black" stroke="black" points="223.606,-150.418 215.961,-143.083 217.362,-153.584 223.606,-150.418"/>
</g>
<!-- RG -->
<g id="node10" class="node"><title>RG</title>
<ellipse fill="none" stroke="black" cx="365.042" cy="-116.61" rx="71.3357" ry="26.7407"/>
<text text-anchor="middle" x="365.042" y="-120.41" font-family="Times,serif" font-size="14.00">Reading: </text>
<text text-anchor="middle" x="365.042" y="-105.41" font-family="Times,serif" font-size="14.00">reference guide</text>
</g>
<!-- MFP&#45;&gt;RG -->
<g id="edge11" class="edge"><title>MFP&#45;&gt;RG</title>
<path fill="none" stroke="black" d="M267.731,-180.52C283.168,-170.54 303.484,-157.406 321.558,-145.722"/>
<polygon fill="black" stroke="black" points="323.722,-148.49 330.22,-140.122 319.921,-142.612 323.722,-148.49"/>
</g>
<!-- MX -->
<g id="node13" class="node"><title>MX</title>
<ellipse fill="none" stroke="black" cx="365.042" cy="-26.8701" rx="106.547" ry="26.7407"/>
<text text-anchor="middle" x="365.042" y="-30.6701" font-family="Times,serif" font-size="14.00">MiniX 1: </text>
<text text-anchor="middle" x="365.042" y="-15.6701" font-family="Times,serif" font-size="14.00">RUNME and README</text>
</g>
<!-- RG&#45;&gt;MX -->
<g id="edge18" class="edge"><title>RG&#45;&gt;MX</title>
<path fill="none" stroke="black" d="M365.042,-89.2852C365.042,-81.3185 365.042,-72.4275 365.042,-63.9391"/>
<polygon fill="black" stroke="black" points="368.542,-63.874 365.042,-53.874 361.542,-63.8741 368.542,-63.874"/>
</g>
<!-- Git&#45;&gt;MW -->
<g id="edge17" class="edge"><title>Git&#45;&gt;MW</title>
<path fill="none" stroke="black" d="M630.042,-179.367C630.042,-169.341 630.042,-156.446 630.042,-145.035"/>
<polygon fill="black" stroke="black" points="633.542,-144.69 630.042,-134.69 626.542,-144.69 633.542,-144.69"/>
</g>
<!-- MW&#45;&gt;MX -->
<g id="edge13" class="edge"><title>MW&#45;&gt;MX</title>
<path fill="none" stroke="black" d="M606.342,-102.421C597.885,-98.0296 588.186,-93.3442 579.042,-89.7401 537.58,-73.3986 490.084,-59.2327 450.388,-48.5949"/>
<polygon fill="black" stroke="black" points="451.035,-45.1456 440.472,-45.9672 449.241,-51.9121 451.035,-45.1456"/>
</g>
<!-- Notes -->
<g id="node15" class="node"><title>Notes</title>
<ellipse fill="none" stroke="black" cx="630.042" cy="-26.8701" rx="31.3957" ry="18"/>
<text text-anchor="middle" x="630.042" y="-23.1701" font-family="Times,serif" font-size="14.00">Notes</text>
</g>
<!-- MW&#45;&gt;Notes -->
<g id="edge14" class="edge"><title>MW&#45;&gt;Notes</title>
<path fill="none" stroke="black" d="M630.042,-98.2755C630.042,-85.9384 630.042,-69.1165 630.042,-55.0094"/>
<polygon fill="black" stroke="black" points="633.542,-54.8701 630.042,-44.8701 626.542,-54.8702 633.542,-54.8701"/>
</g>
<!-- RR&#45;&gt;SU -->
<g id="edge16" class="edge"><title>RR&#45;&gt;SU</title>
<path fill="none" stroke="black" d="M99.066,-215.318C126.462,-240.912 178.614,-289.633 209.142,-318.153"/>
<polygon fill="black" stroke="black" points="207.079,-321.015 216.775,-325.284 211.857,-315.9 207.079,-321.015"/>
</g>
<!-- RR&#45;&gt;MX -->
<g id="edge15" class="edge"><title>RR&#45;&gt;MX</title>
<path fill="none" stroke="black" d="M82.7864,-179.329C86.1273,-155.651 95.6332,-113.217 122.042,-89.7401 157.281,-58.4135 206.199,-42.5196 250.913,-34.6074"/>
<polygon fill="black" stroke="black" points="251.682,-38.0279 260.978,-32.9459 250.542,-31.1214 251.682,-38.0279"/>
</g>
</g>
</svg>
