<?xml version="1.0" encoding="UTF-8" standalone="no"?>
<!DOCTYPE svg PUBLIC "-//W3C//DTD SVG 1.1//EN"
 "http://www.w3.org/Graphics/SVG/1.1/DTD/svg11.dtd">
<!-- Generated by graphviz version 2.38.0 (20140413.2041)
 -->
<!-- Title: G Pages: 1 -->
<svg width="702pt" height="601pt"
 viewBox="0.00 0.00 702.35 601.22" xmlns="http://www.w3.org/2000/svg" xmlns:xlink="http://www.w3.org/1999/xlink">
<g id="graph0" class="graph" transform="scale(1 1) rotate(0) translate(4 597.22)">
<title>G</title>
<polygon fill="white" stroke="none" points="-4,4 -4,-597.22 698.347,-597.22 698.347,4 -4,4"/>
<!-- GS -->
<g id="node1" class="node"><title>GS</title>
<ellipse fill="none" stroke="grey" stroke-width="2" cx="317.347" cy="-575.22" rx="89.0842" ry="18"/>
<text text-anchor="middle" x="317.347" y="-571.52" font-family="Times,serif" font-size="14.00">Ch.1 &#45; Getting Started</text>
</g>
<!-- SU -->
<g id="node2" class="node"><title>SU</title>
<ellipse fill="none" stroke="black" cx="255.347" cy="-431.22" rx="35.194" ry="18"/>
<text text-anchor="middle" x="255.347" y="-427.52" font-family="Times,serif" font-size="14.00">setup()</text>
</g>
<!-- GS&#45;&gt;SU -->
<g id="edge1" class="edge"><title>GS&#45;&gt;SU</title>
<path fill="none" stroke="black" d="M307.733,-557.297C302.064,-547.017 294.931,-533.543 289.347,-521.22 280.001,-500.596 270.928,-476.58 264.508,-458.696"/>
<polygon fill="black" stroke="black" points="267.782,-457.456 261.142,-449.201 261.185,-459.795 267.782,-457.456"/>
</g>
<!-- RR -->
<g id="node14" class="node"><title>RR</title>
<ellipse fill="none" stroke="black" cx="369.347" cy="-503.22" rx="71.4873" ry="18"/>
<text text-anchor="middle" x="369.347" y="-499.52" font-family="Times,serif" font-size="14.00">Required reading</text>
</g>
<!-- GS&#45;&gt;RR -->
<g id="edge4" class="edge"><title>GS&#45;&gt;RR</title>
<path fill="none" stroke="black" d="M336.021,-549.081C340.784,-542.669 345.905,-535.777 350.668,-529.365"/>
<polygon fill="black" stroke="black" points="333.088,-547.161 329.934,-557.275 338.707,-551.335 333.088,-547.161"/>
<polygon fill="black" stroke="black" points="353.721,-531.124 356.875,-521.009 348.102,-526.95 353.721,-531.124"/>
</g>
<!-- ST -->
<g id="node3" class="node"><title>ST</title>
<ellipse fill="none" stroke="black" cx="255.347" cy="-359.22" rx="31.6951" ry="18"/>
<text text-anchor="middle" x="255.347" y="-355.52" font-family="Times,serif" font-size="14.00">start()</text>
</g>
<!-- SU&#45;&gt;ST -->
<g id="edge2" class="edge"><title>SU&#45;&gt;ST</title>
<path fill="none" stroke="black" d="M255.347,-412.917C255.347,-405.203 255.347,-395.933 255.347,-387.333"/>
<polygon fill="black" stroke="black" points="258.847,-387.325 255.347,-377.325 251.847,-387.325 258.847,-387.325"/>
</g>
<!-- MW -->
<g id="node12" class="node"><title>MW</title>
<ellipse fill="none" stroke="black" cx="38.3466" cy="-116.61" rx="38.1938" ry="18"/>
<text text-anchor="middle" x="38.3466" y="-112.91" font-family="Times,serif" font-size="14.00">While()</text>
</g>
<!-- SU&#45;&gt;MW -->
<g id="edge12" class="edge"><title>SU&#45;&gt;MW</title>
<path fill="none" stroke="black" d="M217.631,-416.345C173.623,-398.052 102.311,-361.449 66.3466,-305.22 34.5564,-255.518 33.5483,-183.498 35.8075,-144.739"/>
<polygon fill="black" stroke="black" points="216.538,-419.678 227.12,-420.182 219.162,-413.189 216.538,-419.678"/>
<polygon fill="black" stroke="black" points="39.3008,-144.956 36.5085,-134.736 32.3179,-144.467 39.3008,-144.956"/>
</g>
<!-- WE -->
<g id="node4" class="node"><title>WE</title>
<ellipse fill="none" stroke="black" cx="165.347" cy="-287.22" rx="89.8845" ry="18"/>
<text text-anchor="middle" x="165.347" y="-283.52" font-family="Times,serif" font-size="14.00">Working environment</text>
</g>
<!-- ST&#45;&gt;WE -->
<g id="edge3" class="edge"><title>ST&#45;&gt;WE</title>
<path fill="none" stroke="black" d="M237.134,-344.055C224.94,-334.571 208.62,-321.877 194.621,-310.99"/>
<polygon fill="black" stroke="black" points="196.739,-308.203 186.697,-304.826 192.441,-313.728 196.739,-308.203"/>
</g>
<!-- MFP -->
<g id="node7" class="node"><title>MFP</title>
<ellipse fill="none" stroke="black" cx="345.347" cy="-287.22" rx="72.5877" ry="18"/>
<text text-anchor="middle" x="345.347" y="-283.52" font-family="Times,serif" font-size="14.00">My first program</text>
</g>
<!-- ST&#45;&gt;MFP -->
<g id="edge8" class="edge"><title>ST&#45;&gt;MFP</title>
<path fill="none" stroke="black" d="M273.559,-344.055C285.839,-334.504 302.304,-321.698 316.367,-310.76"/>
<polygon fill="black" stroke="black" points="318.575,-313.476 324.32,-304.574 314.278,-307.951 318.575,-313.476"/>
</g>
<!-- p5 -->
<g id="node5" class="node"><title>p5</title>
<ellipse fill="none" stroke="black" cx="202.347" cy="-206.35" rx="27.8951" ry="18"/>
<text text-anchor="middle" x="202.347" y="-202.65" font-family="Times,serif" font-size="14.00">p5.js</text>
</g>
<!-- WE&#45;&gt;p5 -->
<g id="edge5" class="edge"><title>WE&#45;&gt;p5</title>
<path fill="none" stroke="black" d="M173.375,-269.107C178.29,-258.63 184.675,-245.019 190.2,-233.242"/>
<polygon fill="black" stroke="black" points="193.509,-234.43 194.587,-223.89 187.172,-231.457 193.509,-234.43"/>
</g>
<!-- CE -->
<g id="node6" class="node"><title>CE</title>
<ellipse fill="none" stroke="black" cx="146.347" cy="-116.61" rx="51.9908" ry="18"/>
<text text-anchor="middle" x="146.347" y="-112.91" font-family="Times,serif" font-size="14.00">Code editor</text>
</g>
<!-- WE&#45;&gt;CE -->
<g id="edge6" class="edge"><title>WE&#45;&gt;CE</title>
<path fill="none" stroke="black" d="M163.42,-269.125C160.12,-239.838 153.359,-179.843 149.407,-144.773"/>
<polygon fill="black" stroke="black" points="152.876,-144.296 148.278,-134.751 145.92,-145.08 152.876,-144.296"/>
</g>
<!-- WE&#45;&gt;MFP -->
<g id="edge20" class="edge"><title>WE&#45;&gt;MFP</title>
<path fill="none" stroke="black" d="M255.347,-287.22C257.632,-287.22 259.917,-287.22 262.202,-287.22"/>
<polygon fill="black" stroke="black" points="262.222,-290.72 272.222,-287.22 262.222,-283.72 262.222,-290.72"/>
</g>
<!-- Git -->
<g id="node11" class="node"><title>Git</title>
<ellipse fill="none" stroke="black" cx="91.3466" cy="-206.35" rx="27" ry="18"/>
<text text-anchor="middle" x="91.3466" y="-202.65" font-family="Times,serif" font-size="14.00">Git</text>
</g>
<!-- WE&#45;&gt;Git -->
<g id="edge7" class="edge"><title>WE&#45;&gt;Git</title>
<path fill="none" stroke="black" d="M149.653,-269.494C138.691,-257.811 123.945,-242.094 112.025,-229.389"/>
<polygon fill="black" stroke="black" points="114.422,-226.829 105.027,-221.931 109.317,-231.619 114.422,-226.829"/>
</g>
<!-- p5&#45;&gt;CE -->
<g id="edge19" class="edge"><title>p5&#45;&gt;CE</title>
<path fill="none" stroke="black" d="M186.567,-180.627C179.074,-168.888 170.129,-154.873 162.58,-143.044"/>
<polygon fill="black" stroke="black" points="183.745,-182.711 192.075,-189.257 189.646,-178.945 183.745,-182.711"/>
<polygon fill="black" stroke="black" points="165.456,-141.045 157.125,-134.498 159.555,-144.811 165.456,-141.045"/>
</g>
<!-- RG -->
<g id="node10" class="node"><title>RG</title>
<ellipse fill="none" stroke="black" cx="287.347" cy="-116.61" rx="71.3357" ry="26.7407"/>
<text text-anchor="middle" x="287.347" y="-120.41" font-family="Times,serif" font-size="14.00">Reading the </text>
<text text-anchor="middle" x="287.347" y="-105.41" font-family="Times,serif" font-size="14.00">reference guide</text>
</g>
<!-- p5&#45;&gt;RG -->
<g id="edge21" class="edge"><title>p5&#45;&gt;RG</title>
<path fill="none" stroke="black" d="M216.766,-190.466C227.556,-179.328 242.718,-163.678 256.224,-149.736"/>
<polygon fill="black" stroke="black" points="259.075,-151.823 263.519,-142.206 254.047,-146.953 259.075,-151.823"/>
</g>
<!-- EiC -->
<g id="node8" class="node"><title>EiC</title>
<ellipse fill="none" stroke="black" cx="356.347" cy="-206.35" rx="69.5877" ry="18"/>
<text text-anchor="middle" x="356.347" y="-202.65" font-family="Times,serif" font-size="14.00">Exercise in class</text>
</g>
<!-- MFP&#45;&gt;EiC -->
<g id="edge9" class="edge"><title>MFP&#45;&gt;EiC</title>
<path fill="none" stroke="black" d="M347.733,-269.107C349.146,-258.978 350.967,-245.92 352.571,-234.422"/>
<polygon fill="black" stroke="black" points="356.049,-234.818 353.964,-224.431 349.117,-233.851 356.049,-234.818"/>
</g>
<!-- RC -->
<g id="node9" class="node"><title>RC</title>
<ellipse fill="none" stroke="black" cx="555.347" cy="-206.35" rx="111.032" ry="26.7407"/>
<text text-anchor="middle" x="555.347" y="-210.15" font-family="Times,serif" font-size="14.00">Reading the web console </text>
<text text-anchor="middle" x="555.347" y="-195.15" font-family="Times,serif" font-size="14.00">&#39;Hello World&#39;</text>
</g>
<!-- MFP&#45;&gt;RC -->
<g id="edge10" class="edge"><title>MFP&#45;&gt;RC</title>
<path fill="none" stroke="black" d="M383.864,-271.754C412.762,-260.901 453.074,-245.761 487.352,-232.887"/>
<polygon fill="black" stroke="black" points="488.715,-236.114 496.846,-229.322 486.253,-229.561 488.715,-236.114"/>
</g>
<!-- MFP&#45;&gt;RG -->
<g id="edge11" class="edge"><title>MFP&#45;&gt;RG</title>
<path fill="none" stroke="black" d="M314.483,-270.681C300.407,-261.802 285.164,-249.225 277.347,-233.22 265.2,-208.353 268.969,-176.883 275.07,-153.057"/>
<polygon fill="black" stroke="black" points="278.461,-153.929 277.789,-143.356 271.72,-152.041 278.461,-153.929"/>
</g>
<!-- MX -->
<g id="node13" class="node"><title>MX</title>
<ellipse fill="none" stroke="black" cx="287.347" cy="-26.8701" rx="106.547" ry="26.7407"/>
<text text-anchor="middle" x="287.347" y="-30.6701" font-family="Times,serif" font-size="14.00">MiniX: </text>
<text text-anchor="middle" x="287.347" y="-15.6701" font-family="Times,serif" font-size="14.00">RUNME and README</text>
</g>
<!-- RG&#45;&gt;MX -->
<g id="edge18" class="edge"><title>RG&#45;&gt;MX</title>
<path fill="none" stroke="black" d="M287.347,-89.2852C287.347,-81.3185 287.347,-72.4275 287.347,-63.9391"/>
<polygon fill="black" stroke="black" points="290.847,-63.874 287.347,-53.874 283.847,-63.8741 290.847,-63.874"/>
</g>
<!-- Git&#45;&gt;MW -->
<g id="edge17" class="edge"><title>Git&#45;&gt;MW</title>
<path fill="none" stroke="black" d="M81.6256,-189.257C73.8053,-176.311 62.6732,-157.882 53.6576,-142.957"/>
<polygon fill="black" stroke="black" points="56.5325,-140.947 48.3661,-134.197 50.5408,-144.566 56.5325,-140.947"/>
</g>
<!-- MW&#45;&gt;MX -->
<g id="edge13" class="edge"><title>MW&#45;&gt;MX</title>
<path fill="none" stroke="black" d="M60.825,-102.008C68.4434,-97.7326 77.1115,-93.2237 85.3466,-89.7401 123.332,-73.6715 166.923,-59.7816 203.865,-49.2569"/>
<polygon fill="black" stroke="black" points="204.922,-52.5952 213.6,-46.5168 203.026,-45.857 204.922,-52.5952"/>
</g>
<!-- Notes -->
<g id="node16" class="node"><title>Notes</title>
<ellipse fill="none" stroke="black" cx="38.3466" cy="-26.8701" rx="31.3957" ry="18"/>
<text text-anchor="middle" x="38.3466" y="-23.1701" font-family="Times,serif" font-size="14.00">Notes</text>
</g>
<!-- MW&#45;&gt;Notes -->
<g id="edge14" class="edge"><title>MW&#45;&gt;Notes</title>
<path fill="none" stroke="black" d="M38.3466,-98.2755C38.3466,-85.9384 38.3466,-69.1165 38.3466,-55.0094"/>
<polygon fill="black" stroke="black" points="41.8467,-54.8701 38.3466,-44.8701 34.8467,-54.8702 41.8467,-54.8701"/>
</g>
<!-- RR&#45;&gt;SU -->
<g id="edge16" class="edge"><title>RR&#45;&gt;SU</title>
<path fill="none" stroke="black" d="M343.478,-486.336C326.36,-475.825 303.838,-461.996 285.847,-450.949"/>
<polygon fill="black" stroke="black" points="287.257,-447.708 276.904,-445.458 283.595,-453.673 287.257,-447.708"/>
</g>
<!-- RR&#45;&gt;MX -->
<g id="edge15" class="edge"><title>RR&#45;&gt;MX</title>
<path fill="none" stroke="black" d="M440.669,-501.277C536.338,-495.805 694.347,-470.13 694.347,-360.22 694.347,-360.22 694.347,-360.22 694.347,-205.35 694.347,-77.6067 523.799,-40.877 403.505,-30.8583"/>
<polygon fill="black" stroke="black" points="403.726,-27.365 393.484,-30.0752 403.181,-34.3437 403.726,-27.365"/>
</g>
<!-- FR -->
<g id="node15" class="node"><title>FR</title>
<ellipse fill="none" stroke="black" cx="374.347" cy="-431.22" rx="65.7887" ry="18"/>
<text text-anchor="middle" x="374.347" y="-427.52" font-family="Times,serif" font-size="14.00">Further reading</text>
</g>
<!-- RR&#45;&gt;FR -->
<g id="edge22" class="edge"><title>RR&#45;&gt;FR</title>
<path fill="none" stroke="black" d="M370.583,-484.917C371.134,-477.203 371.796,-467.933 372.41,-459.333"/>
<polygon fill="black" stroke="black" points="375.903,-459.549 373.125,-449.325 368.921,-459.05 375.903,-459.549"/>
</g>
</g>
</svg>
