<?xml version="1.0" encoding="UTF-8" standalone="no"?>
<!DOCTYPE svg PUBLIC "-//W3C//DTD SVG 1.1//EN"
 "http://www.w3.org/Graphics/SVG/1.1/DTD/svg11.dtd">
<!-- Generated by graphviz version 2.38.0 (20140413.2041)
 -->
<!-- Title: G Pages: 1 -->
<svg width="802pt" height="601pt"
 viewBox="0.00 0.00 801.55 601.22" xmlns="http://www.w3.org/2000/svg" xmlns:xlink="http://www.w3.org/1999/xlink">
<g id="graph0" class="graph" transform="scale(1 1) rotate(0) translate(4 597.22)">
<title>G</title>
<polygon fill="white" stroke="none" points="-4,4 -4,-597.22 797.546,-597.22 797.546,4 -4,4"/>
<!-- GS -->
<g id="node1" class="node"><title>GS</title>
<polygon fill="none" stroke="black" points="430.046,-593.22 289.046,-593.22 289.046,-557.22 430.046,-557.22 430.046,-593.22"/>
<text text-anchor="middle" x="359.546" y="-571.52" font-family="Hershey-Noailles-help-me" font-size="14.00">1. Getting started</text>
</g>
<!-- SU -->
<g id="node2" class="node"><title>SU</title>
<ellipse fill="none" stroke="black" cx="286.546" cy="-431.22" rx="42.4939" ry="18"/>
<text text-anchor="middle" x="286.546" y="-427.52" font-family="Hershey-Noailles-help-me" font-size="14.00">setup()</text>
</g>
<!-- GS&#45;&gt;SU -->
<g id="edge1" class="edge"><title>GS&#45;&gt;SU</title>
<path fill="none" stroke="black" d="M347.061,-557.042C339.983,-546.9 331.233,-533.65 324.546,-521.22 313.582,-500.842 303.416,-476.629 296.363,-458.606"/>
<polygon fill="black" stroke="black" points="299.541,-457.117 292.684,-449.041 293.007,-459.63 299.541,-457.117"/>
</g>
<!-- RR -->
<g id="node14" class="node"><title>RR</title>
<ellipse fill="none" stroke="black" cx="420.546" cy="-503.22" rx="87.1846" ry="18"/>
<text text-anchor="middle" x="420.546" y="-499.52" font-family="Hershey-Noailles-help-me" font-size="14.00">Required reading</text>
</g>
<!-- GS&#45;&gt;RR -->
<g id="edge4" class="edge"><title>GS&#45;&gt;RR</title>
<path fill="none" stroke="black" d="M381.402,-549.14C387.054,-542.654 393.139,-535.672 398.786,-529.191"/>
<polygon fill="black" stroke="black" points="378.556,-547.078 374.625,-556.917 383.833,-551.677 378.556,-547.078"/>
<polygon fill="black" stroke="black" points="401.71,-531.163 405.641,-521.325 396.432,-526.564 401.71,-531.163"/>
</g>
<!-- ST -->
<g id="node3" class="node"><title>ST</title>
<ellipse fill="none" stroke="black" cx="286.546" cy="-359.22" rx="38.9931" ry="18"/>
<text text-anchor="middle" x="286.546" y="-355.52" font-family="Hershey-Noailles-help-me" font-size="14.00">start()</text>
</g>
<!-- SU&#45;&gt;ST -->
<g id="edge2" class="edge"><title>SU&#45;&gt;ST</title>
<path fill="none" stroke="black" d="M286.546,-412.917C286.546,-405.203 286.546,-395.933 286.546,-387.333"/>
<polygon fill="black" stroke="black" points="290.046,-387.325 286.546,-377.325 283.046,-387.325 290.046,-387.325"/>
</g>
<!-- MW -->
<g id="node12" class="node"><title>MW</title>
<ellipse fill="none" stroke="black" cx="43.5461" cy="-116.61" rx="43.5923" ry="18"/>
<text text-anchor="middle" x="43.5461" y="-112.91" font-family="Hershey-Noailles-help-me" font-size="14.00">While()</text>
</g>
<!-- SU&#45;&gt;MW -->
<g id="edge12" class="edge"><title>SU&#45;&gt;MW</title>
<path fill="none" stroke="black" d="M240.934,-418.545C188.361,-402.488 103.903,-368.156 62.5461,-305.22 30.2543,-256.079 33.9223,-183.541 38.9863,-144.627"/>
<polygon fill="black" stroke="black" points="240.099,-421.948 250.681,-421.424 242.082,-415.234 240.099,-421.948"/>
<polygon fill="black" stroke="black" points="42.4706,-144.986 40.4229,-134.591 35.5412,-143.994 42.4706,-144.986"/>
</g>
<!-- WE -->
<g id="node4" class="node"><title>WE</title>
<ellipse fill="none" stroke="black" cx="180.546" cy="-287.22" rx="108.581" ry="18"/>
<text text-anchor="middle" x="180.546" y="-283.52" font-family="Hershey-Noailles-help-me" font-size="14.00">Working environment</text>
</g>
<!-- ST&#45;&gt;WE -->
<g id="edge3" class="edge"><title>ST&#45;&gt;WE</title>
<path fill="none" stroke="black" d="M265.095,-344.055C250.465,-334.393 230.792,-321.401 214.104,-310.381"/>
<polygon fill="black" stroke="black" points="215.965,-307.416 205.692,-304.826 212.108,-313.257 215.965,-307.416"/>
</g>
<!-- MFP -->
<g id="node7" class="node"><title>MFP</title>
<ellipse fill="none" stroke="black" cx="392.546" cy="-287.22" rx="85.2851" ry="18"/>
<text text-anchor="middle" x="392.546" y="-283.52" font-family="Hershey-Noailles-help-me" font-size="14.00">My first program</text>
</g>
<!-- ST&#45;&gt;MFP -->
<g id="edge8" class="edge"><title>ST&#45;&gt;MFP</title>
<path fill="none" stroke="black" d="M307.997,-344.055C322.73,-334.325 342.578,-321.218 359.34,-310.149"/>
<polygon fill="black" stroke="black" points="361.366,-313.006 367.782,-304.574 357.508,-307.164 361.366,-313.006"/>
</g>
<!-- p5 -->
<g id="node5" class="node"><title>p5</title>
<ellipse fill="none" stroke="black" cx="221.546" cy="-206.35" rx="31.6951" ry="18"/>
<text text-anchor="middle" x="221.546" y="-202.65" font-family="Hershey-Noailles-help-me" font-size="14.00">p5.js</text>
</g>
<!-- WE&#45;&gt;p5 -->
<g id="edge5" class="edge"><title>WE&#45;&gt;p5</title>
<path fill="none" stroke="black" d="M189.443,-269.107C194.943,-258.525 202.106,-244.746 208.27,-232.889"/>
<polygon fill="black" stroke="black" points="211.441,-234.377 212.948,-223.89 205.23,-231.148 211.441,-234.377"/>
</g>
<!-- CE -->
<g id="node6" class="node"><title>CE</title>
<ellipse fill="none" stroke="black" cx="167.546" cy="-116.61" rx="62.2891" ry="18"/>
<text text-anchor="middle" x="167.546" y="-112.91" font-family="Hershey-Noailles-help-me" font-size="14.00">Code editor</text>
</g>
<!-- WE&#45;&gt;CE -->
<g id="edge6" class="edge"><title>WE&#45;&gt;CE</title>
<path fill="none" stroke="black" d="M179.228,-269.125C176.97,-239.838 172.344,-179.843 169.64,-144.773"/>
<polygon fill="black" stroke="black" points="173.126,-144.452 168.868,-134.751 166.147,-144.99 173.126,-144.452"/>
</g>
<!-- WE&#45;&gt;MFP -->
<g id="edge20" class="edge"><title>WE&#45;&gt;MFP</title>
<path fill="none" stroke="black" d="M289.445,-287.22C291.937,-287.22 294.428,-287.22 296.92,-287.22"/>
<polygon fill="black" stroke="black" points="297.165,-290.72 307.165,-287.22 297.165,-283.72 297.165,-290.72"/>
</g>
<!-- Git -->
<g id="node11" class="node"><title>Git</title>
<ellipse fill="none" stroke="black" cx="102.546" cy="-206.35" rx="27" ry="18"/>
<text text-anchor="middle" x="102.546" y="-202.65" font-family="Hershey-Noailles-help-me" font-size="14.00">Git</text>
</g>
<!-- WE&#45;&gt;Git -->
<g id="edge7" class="edge"><title>WE&#45;&gt;Git</title>
<path fill="none" stroke="black" d="M163.621,-269.107C152.045,-257.401 136.599,-241.783 124.137,-229.182"/>
<polygon fill="black" stroke="black" points="126.345,-226.437 116.824,-221.788 121.367,-231.359 126.345,-226.437"/>
</g>
<!-- p5&#45;&gt;CE -->
<g id="edge19" class="edge"><title>p5&#45;&gt;CE</title>
<path fill="none" stroke="black" d="M206.108,-180.266C199.01,-168.732 190.597,-155.064 183.444,-143.441"/>
<polygon fill="black" stroke="black" points="203.167,-182.165 211.389,-188.847 209.128,-178.496 203.167,-182.165"/>
<polygon fill="black" stroke="black" points="186.248,-141.32 178.026,-134.638 180.287,-144.989 186.248,-141.32"/>
</g>
<!-- RG -->
<g id="node10" class="node"><title>RG</title>
<ellipse fill="none" stroke="black" cx="335.546" cy="-116.61" rx="87.8629" ry="26.7407"/>
<text text-anchor="middle" x="335.546" y="-120.41" font-family="Hershey-Noailles-help-me" font-size="14.00">Reading the </text>
<text text-anchor="middle" x="335.546" y="-105.41" font-family="Hershey-Noailles-help-me" font-size="14.00">reference guide</text>
</g>
<!-- p5&#45;&gt;RG -->
<g id="edge21" class="edge"><title>p5&#45;&gt;RG</title>
<path fill="none" stroke="black" d="M239.61,-191.448C254.772,-179.778 276.975,-162.69 296.203,-147.891"/>
<polygon fill="black" stroke="black" points="298.443,-150.584 304.233,-141.711 294.173,-145.036 298.443,-150.584"/>
</g>
<!-- EiC -->
<g id="node8" class="node"><title>EiC</title>
<ellipse fill="none" stroke="black" cx="392.546" cy="-206.35" rx="82.5854" ry="18"/>
<text text-anchor="middle" x="392.546" y="-202.65" font-family="Hershey-Noailles-help-me" font-size="14.00">Exercise in class</text>
</g>
<!-- MFP&#45;&gt;EiC -->
<g id="edge9" class="edge"><title>MFP&#45;&gt;EiC</title>
<path fill="none" stroke="black" d="M392.546,-269.107C392.546,-259.082 392.546,-246.187 392.546,-234.775"/>
<polygon fill="black" stroke="black" points="396.046,-234.43 392.546,-224.431 389.046,-234.431 396.046,-234.43"/>
</g>
<!-- RC -->
<g id="node9" class="node"><title>RC</title>
<ellipse fill="none" stroke="black" cx="629.546" cy="-206.35" rx="136.443" ry="26.7407"/>
<text text-anchor="middle" x="629.546" y="-210.15" font-family="Hershey-Noailles-help-me" font-size="14.00">Reading the web console </text>
<text text-anchor="middle" x="629.546" y="-195.15" font-family="Hershey-Noailles-help-me" font-size="14.00">&#39;Hello World&#39;</text>
</g>
<!-- MFP&#45;&gt;RC -->
<g id="edge10" class="edge"><title>MFP&#45;&gt;RC</title>
<path fill="none" stroke="black" d="M436.292,-271.662C468.72,-260.871 513.771,-245.878 552.219,-233.083"/>
<polygon fill="black" stroke="black" points="553.457,-236.36 561.84,-229.882 551.247,-229.719 553.457,-236.36"/>
</g>
<!-- MFP&#45;&gt;RG -->
<g id="edge11" class="edge"><title>MFP&#45;&gt;RG</title>
<path fill="none" stroke="black" d="M347.772,-271.744C329.778,-263.473 310.877,-251.095 300.546,-233.22 285.937,-207.944 297.567,-175.97 311.219,-152.057"/>
<polygon fill="black" stroke="black" points="314.324,-153.687 316.5,-143.318 308.332,-150.066 314.324,-153.687"/>
</g>
<!-- MX -->
<g id="node13" class="node"><title>MX</title>
<ellipse fill="none" stroke="black" cx="335.546" cy="-26.8701" rx="115.931" ry="26.7407"/>
<text text-anchor="middle" x="335.546" y="-30.6701" font-family="Hershey-Noailles-help-me" font-size="14.00">MiniX: </text>
<text text-anchor="middle" x="335.546" y="-15.6701" font-family="Hershey-Noailles-help-me" font-size="14.00">RUNME and README</text>
</g>
<!-- RG&#45;&gt;MX -->
<g id="edge18" class="edge"><title>RG&#45;&gt;MX</title>
<path fill="none" stroke="black" d="M335.546,-89.2852C335.546,-81.3185 335.546,-72.4275 335.546,-63.9391"/>
<polygon fill="black" stroke="black" points="339.046,-63.874 335.546,-53.874 332.046,-63.8741 339.046,-63.874"/>
</g>
<!-- Git&#45;&gt;MW -->
<g id="edge17" class="edge"><title>Git&#45;&gt;MW</title>
<path fill="none" stroke="black" d="M91.9981,-189.664C83.1871,-176.561 70.4645,-157.641 60.2671,-142.476"/>
<polygon fill="black" stroke="black" points="63.0881,-140.399 54.6036,-134.054 57.2793,-144.305 63.0881,-140.399"/>
</g>
<!-- MW&#45;&gt;MX -->
<g id="edge13" class="edge"><title>MW&#45;&gt;MX</title>
<path fill="none" stroke="black" d="M68.9708,-101.915C77.5668,-97.6339 87.3251,-93.1448 96.5461,-89.7401 143.178,-72.5221 196.612,-58.2065 241.113,-47.6973"/>
<polygon fill="black" stroke="black" points="242.107,-51.0595 251.05,-45.3786 240.516,-44.2426 242.107,-51.0595"/>
</g>
<!-- Notes -->
<g id="node16" class="node"><title>Notes</title>
<ellipse fill="none" stroke="black" cx="43.5461" cy="-26.8701" rx="36.2938" ry="18"/>
<text text-anchor="middle" x="43.5461" y="-23.1701" font-family="Hershey-Noailles-help-me" font-size="14.00">Notes</text>
</g>
<!-- MW&#45;&gt;Notes -->
<g id="edge14" class="edge"><title>MW&#45;&gt;Notes</title>
<path fill="none" stroke="black" d="M43.5461,-98.2755C43.5461,-85.9384 43.5461,-69.1165 43.5461,-55.0094"/>
<polygon fill="black" stroke="black" points="47.0462,-54.8701 43.5461,-44.8701 40.0462,-54.8702 47.0462,-54.8701"/>
</g>
<!-- RR&#45;&gt;SU -->
<g id="edge16" class="edge"><title>RR&#45;&gt;SU</title>
<path fill="none" stroke="black" d="M390.139,-486.336C369.691,-475.654 342.683,-461.546 321.371,-450.412"/>
<polygon fill="black" stroke="black" points="322.807,-447.214 312.323,-445.686 319.566,-453.418 322.807,-447.214"/>
</g>
<!-- RR&#45;&gt;MX -->
<g id="edge15" class="edge"><title>RR&#45;&gt;MX</title>
<path fill="none" stroke="black" d="M485.945,-491.193C592.919,-471.281 793.546,-425.267 793.546,-360.22 793.546,-360.22 793.546,-360.22 793.546,-205.35 793.546,-129.176 570.491,-72.8848 435.707,-45.8232"/>
<polygon fill="black" stroke="black" points="436.249,-42.3626 425.759,-43.8466 434.885,-49.2284 436.249,-42.3626"/>
</g>
<!-- FR -->
<g id="node15" class="node"><title>FR</title>
<ellipse fill="none" stroke="black" cx="427.546" cy="-431.22" rx="81.4863" ry="18"/>
<text text-anchor="middle" x="427.546" y="-427.52" font-family="Hershey-Noailles-help-me" font-size="14.00">Further reading</text>
</g>
<!-- RR&#45;&gt;FR -->
<g id="edge22" class="edge"><title>RR&#45;&gt;FR</title>
<path fill="none" stroke="black" d="M422.276,-484.917C423.048,-477.203 423.975,-467.933 424.835,-459.333"/>
<polygon fill="black" stroke="black" points="428.323,-459.623 425.836,-449.325 421.358,-458.927 428.323,-459.623"/>
</g>
</g>
</svg>
