<?xml version="1.0" encoding="UTF-8" standalone="no"?>
<!DOCTYPE svg PUBLIC "-//W3C//DTD SVG 1.1//EN"
 "http://www.w3.org/Graphics/SVG/1.1/DTD/svg11.dtd">
<!-- Generated by graphviz version 2.38.0 (20140413.2041)
 -->
<!-- Title: G Pages: 1 -->
<svg width="711pt" height="367pt"
 viewBox="0.00 0.00 711.44 367.48" xmlns="http://www.w3.org/2000/svg" xmlns:xlink="http://www.w3.org/1999/xlink">
<g id="graph0" class="graph" transform="scale(1 1) rotate(0) translate(4 363.48)">
<title>G</title>
<polygon fill="white" stroke="none" points="-4,4 -4,-363.48 707.441,-363.48 707.441,4 -4,4"/>
<!-- GS -->
<g id="node1" class="node"><title>GS</title>
<ellipse fill="none" stroke="grey" stroke-width="2" cx="102.494" cy="-341.48" rx="89.0842" ry="18"/>
<text text-anchor="middle" x="102.494" y="-337.78" font-family="Times,serif" font-size="14.00">Ch.1 &#45; Getting Started</text>
</g>
<!-- SU -->
<g id="node2" class="node"><title>SU</title>
<ellipse fill="none" stroke="black" cx="134.494" cy="-269.48" rx="35.194" ry="18"/>
<text text-anchor="middle" x="134.494" y="-265.78" font-family="Times,serif" font-size="14.00">setup()</text>
</g>
<!-- GS&#45;&gt;SU -->
<g id="edge1" class="edge"><title>GS&#45;&gt;SU</title>
<path fill="none" stroke="black" d="M110.24,-323.535C113.935,-315.453 118.438,-305.602 122.557,-296.592"/>
<polygon fill="black" stroke="black" points="125.844,-297.819 126.819,-287.269 119.478,-294.909 125.844,-297.819"/>
</g>
<!-- RR -->
<g id="node14" class="node"><title>RR</title>
<ellipse fill="none" stroke="black" cx="71.4937" cy="-197.48" rx="71.4873" ry="18"/>
<text text-anchor="middle" x="71.4937" y="-193.78" font-family="Times,serif" font-size="14.00">Required reading</text>
</g>
<!-- GS&#45;&gt;RR -->
<g id="edge4" class="edge"><title>GS&#45;&gt;RR</title>
<path fill="none" stroke="black" d="M96.288,-313.37C94.4055,-305.067 92.346,-295.902 90.4937,-287.48 85.9406,-266.779 80.9417,-243.333 77.2146,-225.704"/>
<polygon fill="black" stroke="black" points="92.9173,-314.332 98.5489,-323.306 99.7428,-312.779 92.9173,-314.332"/>
<polygon fill="black" stroke="black" points="80.5626,-224.618 75.0737,-215.556 73.7134,-226.063 80.5626,-224.618"/>
</g>
<!-- ST -->
<g id="node3" class="node"><title>ST</title>
<ellipse fill="none" stroke="black" cx="341.494" cy="-269.48" rx="31.6951" ry="18"/>
<text text-anchor="middle" x="341.494" y="-265.78" font-family="Times,serif" font-size="14.00">start()</text>
</g>
<!-- SU&#45;&gt;ST -->
<g id="edge2" class="edge"><title>SU&#45;&gt;ST</title>
<path fill="none" stroke="black" d="M169.667,-269.48C212.945,-269.48 256.222,-269.48 299.499,-269.48"/>
<polygon fill="black" stroke="black" points="299.612,-272.98 309.612,-269.48 299.612,-265.98 299.612,-272.98"/>
</g>
<!-- WE -->
<g id="node4" class="node"><title>WE</title>
<ellipse fill="none" stroke="black" cx="591.494" cy="-269.48" rx="90.9839" ry="18"/>
<text text-anchor="middle" x="591.494" y="-265.78" font-family="Times,serif" font-size="14.00">Working Environment</text>
</g>
<!-- ST&#45;&gt;WE -->
<g id="edge3" class="edge"><title>ST&#45;&gt;WE</title>
<path fill="none" stroke="black" d="M373.72,-269.48C412.505,-269.48 451.289,-269.48 490.074,-269.48"/>
<polygon fill="black" stroke="black" points="490.471,-272.98 500.471,-269.48 490.471,-265.98 490.471,-272.98"/>
</g>
<!-- MFP -->
<g id="node7" class="node"><title>MFP</title>
<ellipse fill="none" stroke="black" cx="233.494" cy="-197.48" rx="72.5877" ry="18"/>
<text text-anchor="middle" x="233.494" y="-193.78" font-family="Times,serif" font-size="14.00">My first program</text>
</g>
<!-- ST&#45;&gt;MFP -->
<g id="edge8" class="edge"><title>ST&#45;&gt;MFP</title>
<path fill="none" stroke="black" d="M321.433,-255.478C306.125,-245.556 284.699,-231.669 266.828,-220.086"/>
<polygon fill="black" stroke="black" points="268.679,-217.114 258.383,-214.612 264.871,-222.988 268.679,-217.114"/>
</g>
<!-- MW -->
<g id="node12" class="node"><title>MW</title>
<ellipse fill="none" stroke="black" cx="509.494" cy="-116.61" rx="38.1938" ry="18"/>
<text text-anchor="middle" x="509.494" y="-112.91" font-family="Times,serif" font-size="14.00">While()</text>
</g>
<!-- ST&#45;&gt;MW -->
<g id="edge12" class="edge"><title>ST&#45;&gt;MW</title>
<path fill="none" stroke="black" d="M383.172,-264.802C417.107,-259.529 463.639,-246.698 490.494,-215.48 507.199,-196.061 510.939,-166.385 511.122,-144.802"/>
<polygon fill="black" stroke="black" points="382.503,-261.361 373.081,-266.208 383.469,-268.294 382.503,-261.361"/>
<polygon fill="black" stroke="black" points="514.619,-144.585 510.955,-134.644 507.62,-144.7 514.619,-144.585"/>
</g>
<!-- p5 -->
<g id="node5" class="node"><title>p5</title>
<ellipse fill="none" stroke="black" cx="675.494" cy="-197.48" rx="27.8951" ry="18"/>
<text text-anchor="middle" x="675.494" y="-193.78" font-family="Times,serif" font-size="14.00">p5.js</text>
</g>
<!-- WE&#45;&gt;p5 -->
<g id="edge5" class="edge"><title>WE&#45;&gt;p5</title>
<path fill="none" stroke="black" d="M611.4,-251.891C623.34,-241.942 638.609,-229.217 651.249,-218.684"/>
<polygon fill="black" stroke="black" points="653.672,-221.221 659.114,-212.13 649.191,-215.843 653.672,-221.221"/>
</g>
<!-- CE -->
<g id="node6" class="node"><title>CE</title>
<ellipse fill="none" stroke="black" cx="647.494" cy="-116.61" rx="53.8905" ry="18"/>
<text text-anchor="middle" x="647.494" y="-112.91" font-family="Times,serif" font-size="14.00">Code Editor</text>
</g>
<!-- WE&#45;&gt;CE -->
<g id="edge6" class="edge"><title>WE&#45;&gt;CE</title>
<path fill="none" stroke="black" d="M597.809,-251.467C607.472,-225.434 626.013,-175.483 637.51,-144.508"/>
<polygon fill="black" stroke="black" points="640.917,-145.386 641.116,-134.793 634.355,-142.95 640.917,-145.386"/>
</g>
<!-- Git -->
<g id="node11" class="node"><title>Git</title>
<ellipse fill="none" stroke="black" cx="564.494" cy="-197.48" rx="27" ry="18"/>
<text text-anchor="middle" x="564.494" y="-193.78" font-family="Times,serif" font-size="14.00">Git</text>
</g>
<!-- WE&#45;&gt;Git -->
<g id="edge7" class="edge"><title>WE&#45;&gt;Git</title>
<path fill="none" stroke="black" d="M584.819,-251.177C581.733,-243.176 578.001,-233.5 574.582,-224.635"/>
<polygon fill="black" stroke="black" points="577.769,-223.173 570.905,-215.103 571.238,-225.692 577.769,-223.173"/>
</g>
<!-- p5&#45;&gt;CE -->
<g id="edge19" class="edge"><title>p5&#45;&gt;CE</title>
<path fill="none" stroke="black" d="M666.105,-170.035C663.152,-161.716 659.891,-152.53 656.934,-144.202"/>
<polygon fill="black" stroke="black" points="662.912,-171.501 669.556,-179.754 669.508,-169.159 662.912,-171.501"/>
<polygon fill="black" stroke="black" points="660.164,-142.837 653.52,-134.584 653.567,-145.179 660.164,-142.837"/>
</g>
<!-- EiC -->
<g id="node8" class="node"><title>EiC</title>
<ellipse fill="none" stroke="black" cx="411.494" cy="-197.48" rx="69.5877" ry="18"/>
<text text-anchor="middle" x="411.494" y="-193.78" font-family="Times,serif" font-size="14.00">Exercise in class</text>
</g>
<!-- MFP&#45;&gt;EiC -->
<g id="edge9" class="edge"><title>MFP&#45;&gt;EiC</title>
<path fill="none" stroke="black" d="M306.501,-197.48C314.86,-197.48 323.218,-197.48 331.577,-197.48"/>
<polygon fill="black" stroke="black" points="331.772,-200.98 341.772,-197.48 331.772,-193.98 331.772,-200.98"/>
</g>
<!-- RC -->
<g id="node9" class="node"><title>RC</title>
<ellipse fill="none" stroke="black" cx="186.494" cy="-116.61" rx="72.25" ry="26.7407"/>
<text text-anchor="middle" x="186.494" y="-120.41" font-family="Times,serif" font-size="14.00">Reading code: &#160;</text>
<text text-anchor="middle" x="186.494" y="-105.41" font-family="Times,serif" font-size="14.00">&#39;Hello World&#39;</text>
</g>
<!-- MFP&#45;&gt;RC -->
<g id="edge10" class="edge"><title>MFP&#45;&gt;RC</title>
<path fill="none" stroke="black" d="M223.295,-179.367C218.458,-171.25 212.501,-161.252 206.798,-151.683"/>
<polygon fill="black" stroke="black" points="209.799,-149.881 201.673,-143.083 203.786,-153.465 209.799,-149.881"/>
</g>
<!-- RG -->
<g id="node10" class="node"><title>RG</title>
<ellipse fill="none" stroke="black" cx="348.494" cy="-116.61" rx="71.3357" ry="26.7407"/>
<text text-anchor="middle" x="348.494" y="-120.41" font-family="Times,serif" font-size="14.00">Reading: </text>
<text text-anchor="middle" x="348.494" y="-105.41" font-family="Times,serif" font-size="14.00">reference guide</text>
</g>
<!-- MFP&#45;&gt;RG -->
<g id="edge11" class="edge"><title>MFP&#45;&gt;RG</title>
<path fill="none" stroke="black" d="M257.043,-180.329C271.257,-170.581 289.782,-157.876 306.439,-146.452"/>
<polygon fill="black" stroke="black" points="308.68,-149.16 314.947,-140.617 304.721,-143.387 308.68,-149.16"/>
</g>
<!-- MX -->
<g id="node13" class="node"><title>MX</title>
<ellipse fill="none" stroke="black" cx="348.494" cy="-26.8701" rx="106.547" ry="26.7407"/>
<text text-anchor="middle" x="348.494" y="-30.6701" font-family="Times,serif" font-size="14.00">MiniX 1: </text>
<text text-anchor="middle" x="348.494" y="-15.6701" font-family="Times,serif" font-size="14.00">RUNME and README</text>
</g>
<!-- RG&#45;&gt;MX -->
<g id="edge18" class="edge"><title>RG&#45;&gt;MX</title>
<path fill="none" stroke="black" d="M348.494,-89.2852C348.494,-81.3185 348.494,-72.4275 348.494,-63.9391"/>
<polygon fill="black" stroke="black" points="351.994,-63.874 348.494,-53.874 344.994,-63.8741 351.994,-63.874"/>
</g>
<!-- Git&#45;&gt;MW -->
<g id="edge17" class="edge"><title>Git&#45;&gt;MW</title>
<path fill="none" stroke="black" d="M553.627,-180.898C545.946,-169.882 535.49,-154.889 526.684,-142.261"/>
<polygon fill="black" stroke="black" points="529.496,-140.175 520.905,-133.975 523.755,-144.179 529.496,-140.175"/>
</g>
<!-- MW&#45;&gt;MX -->
<g id="edge13" class="edge"><title>MW&#45;&gt;MX</title>
<path fill="none" stroke="black" d="M485.39,-102.475C463.148,-90.353 429.361,-71.9403 400.919,-56.4405"/>
<polygon fill="black" stroke="black" points="402.35,-53.2342 391.894,-51.5221 399,-59.3807 402.35,-53.2342"/>
</g>
<!-- Notes -->
<g id="node15" class="node"><title>Notes</title>
<ellipse fill="none" stroke="black" cx="509.494" cy="-26.8701" rx="31.3957" ry="18"/>
<text text-anchor="middle" x="509.494" y="-23.1701" font-family="Times,serif" font-size="14.00">Notes</text>
</g>
<!-- MW&#45;&gt;Notes -->
<g id="edge14" class="edge"><title>MW&#45;&gt;Notes</title>
<path fill="none" stroke="black" d="M509.494,-98.2755C509.494,-85.9384 509.494,-69.1165 509.494,-55.0094"/>
<polygon fill="black" stroke="black" points="512.994,-54.8701 509.494,-44.8701 505.994,-54.8702 512.994,-54.8701"/>
</g>
<!-- RR&#45;&gt;SU -->
<g id="edge16" class="edge"><title>RR&#45;&gt;SU</title>
<path fill="none" stroke="black" d="M86.7593,-215.442C94.8748,-224.459 104.969,-235.675 113.781,-245.466"/>
<polygon fill="black" stroke="black" points="111.221,-247.853 120.512,-252.945 116.424,-243.171 111.221,-247.853"/>
</g>
<!-- RR&#45;&gt;MX -->
<g id="edge15" class="edge"><title>RR&#45;&gt;MX</title>
<path fill="none" stroke="black" d="M72.0235,-179.404C73.7052,-155.815 80.3025,-113.486 105.494,-89.7401 126.568,-69.875 191.377,-53.9464 248.767,-43.2285"/>
<polygon fill="black" stroke="black" points="249.436,-46.6642 258.643,-41.4209 248.176,-39.7786 249.436,-46.6642"/>
</g>
</g>
</svg>
