<?xml version="1.0" encoding="UTF-8" standalone="no"?>
<!DOCTYPE svg PUBLIC "-//W3C//DTD SVG 1.1//EN"
 "http://www.w3.org/Graphics/SVG/1.1/DTD/svg11.dtd">
<!-- Generated by graphviz version 2.44.1 (0)
 -->
<!-- Title: G Pages: 1 -->
<svg width="538pt" height="439pt"
 viewBox="0.00 0.00 537.57 439.48" xmlns="http://www.w3.org/2000/svg" xmlns:xlink="http://www.w3.org/1999/xlink">
<g id="graph0" class="graph" transform="scale(1 1) rotate(0) translate(4 435.48)">
<title>G</title>
<polygon fill="white" stroke="transparent" points="-4,4 -4,-435.48 533.57,-435.48 533.57,4 -4,4"/>
<!-- GS -->
<g id="node1" class="node">
<title>GS</title>
<polygon fill="none" stroke="black" points="226.43,-431.48 37.43,-431.48 37.43,-395.48 226.43,-395.48 226.43,-431.48"/>
<text text-anchor="middle" x="131.93" y="-409.78" font-family="Hershey-Noailles-help-me" font-size="14.00">9. Algorithmic procedures</text>
</g>
<!-- SU -->
<g id="node2" class="node">
<title>SU</title>
<ellipse fill="none" stroke="black" cx="278.93" cy="-341.48" rx="44.39" ry="18"/>
<text text-anchor="middle" x="278.93" y="-337.78" font-family="Hershey-Noailles-help-me" font-size="14.00">setup()</text>
</g>
<!-- GS&#45;&gt;SU -->
<g id="edge1" class="edge">
<title>GS&#45;&gt;SU</title>
<path fill="none" stroke="black" d="M167.89,-395.36C190.35,-384.66 219.21,-370.92 241.87,-360.13"/>
<polygon fill="black" stroke="black" points="243.65,-363.16 251.17,-355.7 240.64,-356.84 243.65,-363.16"/>
</g>
<!-- MX -->
<g id="node10" class="node">
<title>MX</title>
<ellipse fill="none" stroke="black" cx="62.93" cy="-116.61" rx="62.87" ry="26.74"/>
<text text-anchor="middle" x="62.93" y="-120.41" font-family="Hershey-Noailles-help-me" font-size="14.00">MiniX: </text>
<text text-anchor="middle" x="62.93" y="-105.41" font-family="Hershey-Noailles-help-me" font-size="14.00">Flowcharts</text>
</g>
<!-- GS&#45;&gt;MX -->
<g id="edge3" class="edge">
<title>GS&#45;&gt;MX</title>
<path fill="none" stroke="black" d="M80.28,-395.44C63.79,-387.28 47.38,-375.66 37.93,-359.48 -0.2,-294.21 27.25,-201.91 47.18,-152.33"/>
<polygon fill="black" stroke="black" points="50.45,-153.58 51.05,-143.01 43.99,-150.9 50.45,-153.58"/>
</g>
<!-- ST -->
<g id="node3" class="node">
<title>ST</title>
<ellipse fill="none" stroke="black" cx="363.93" cy="-269.48" rx="40.09" ry="18"/>
<text text-anchor="middle" x="363.93" y="-265.78" font-family="Hershey-Noailles-help-me" font-size="14.00">start()</text>
</g>
<!-- SU&#45;&gt;ST -->
<g id="edge2" class="edge">
<title>SU&#45;&gt;ST</title>
<path fill="none" stroke="black" d="M297.8,-324.94C309.43,-315.36 324.53,-302.93 337.37,-292.36"/>
<polygon fill="black" stroke="black" points="339.92,-294.79 345.41,-285.73 335.47,-289.39 339.92,-294.79"/>
</g>
<!-- MW -->
<g id="node9" class="node">
<title>MW</title>
<ellipse fill="none" stroke="black" cx="262.93" cy="-269.48" rx="42.49" ry="18"/>
<text text-anchor="middle" x="262.93" y="-265.78" font-family="Hershey-Noailles-help-me" font-size="14.00">While()</text>
</g>
<!-- SU&#45;&gt;MW -->
<g id="edge11" class="edge">
<title>SU&#45;&gt;MW</title>
<path fill="none" stroke="black" d="M272.83,-313.77C271.61,-308.45 270.34,-302.87 269.12,-297.54"/>
<polygon fill="black" stroke="black" points="269.42,-314.57 275.06,-323.54 276.24,-313.01 269.42,-314.57"/>
<polygon fill="black" stroke="black" points="272.52,-296.72 266.88,-287.76 265.7,-298.28 272.52,-296.72"/>
</g>
<!-- DiC -->
<g id="node4" class="node">
<title>DiC</title>
<ellipse fill="none" stroke="black" cx="437.93" cy="-197.48" rx="91.78" ry="18"/>
<text text-anchor="middle" x="437.93" y="-193.78" font-family="Hershey-Noailles-help-me" font-size="14.00">Discussion in class</text>
</g>
<!-- ST&#45;&gt;DiC -->
<g id="edge4" class="edge">
<title>ST&#45;&gt;DiC</title>
<path fill="none" stroke="black" d="M380.36,-252.94C389.88,-243.93 402.07,-232.4 412.79,-222.27"/>
<polygon fill="black" stroke="black" points="415.4,-224.61 420.26,-215.19 410.59,-219.52 415.4,-224.61"/>
</g>
<!-- FC -->
<g id="node6" class="node">
<title>FC</title>
<ellipse fill="none" stroke="black" cx="262.93" cy="-197.48" rx="57.69" ry="18"/>
<text text-anchor="middle" x="262.93" y="-193.78" font-family="Hershey-Noailles-help-me" font-size="14.00">Flowcharts</text>
</g>
<!-- ST&#45;&gt;FC -->
<g id="edge6" class="edge">
<title>ST&#45;&gt;FC</title>
<path fill="none" stroke="black" d="M343.01,-253.98C328.87,-244.18 309.95,-231.07 294.06,-220.05"/>
<polygon fill="black" stroke="black" points="295.8,-217 285.59,-214.18 291.81,-222.76 295.8,-217"/>
</g>
<!-- EiC -->
<g id="node5" class="node">
<title>EiC</title>
<ellipse fill="none" stroke="black" cx="441.93" cy="-116.61" rx="83.39" ry="18"/>
<text text-anchor="middle" x="441.93" y="-112.91" font-family="Hershey-Noailles-help-me" font-size="14.00">Exercise in class</text>
</g>
<!-- DiC&#45;&gt;EiC -->
<g id="edge5" class="edge">
<title>DiC&#45;&gt;EiC</title>
<path fill="none" stroke="black" d="M438.8,-179.37C439.31,-169.24 439.98,-156.18 440.56,-144.68"/>
<polygon fill="black" stroke="black" points="444.06,-144.85 441.07,-134.69 437.06,-144.5 444.06,-144.85"/>
</g>
<!-- EiC1 -->
<g id="node7" class="node">
<title>EiC1</title>
<ellipse fill="none" stroke="black" cx="257.93" cy="-116.61" rx="83.39" ry="18"/>
<text text-anchor="middle" x="257.93" y="-112.91" font-family="Hershey-Noailles-help-me" font-size="14.00">Exercise in class</text>
</g>
<!-- FC&#45;&gt;EiC1 -->
<g id="edge7" class="edge">
<title>FC&#45;&gt;EiC1</title>
<path fill="none" stroke="black" d="M261.85,-179.37C261.21,-169.24 260.38,-156.18 259.65,-144.68"/>
<polygon fill="black" stroke="black" points="263.14,-144.45 259.02,-134.69 256.16,-144.89 263.14,-144.45"/>
</g>
<!-- FC&#45;&gt;MX -->
<g id="edge15" class="edge">
<title>FC&#45;&gt;MX</title>
<path fill="none" stroke="black" d="M228.55,-182.92C198.13,-170.93 153.2,-153.21 117.81,-139.25"/>
<polygon fill="black" stroke="black" points="118.69,-135.84 108.1,-135.42 116.12,-142.35 118.69,-135.84"/>
</g>
<!-- AM -->
<g id="node8" class="node">
<title>AM</title>
<ellipse fill="none" stroke="black" cx="257.93" cy="-26.87" rx="115.02" ry="26.74"/>
<text text-anchor="middle" x="257.93" y="-30.67" font-family="Hershey-Noailles-help-me" font-size="14.00">Flowcharts</text>
<text text-anchor="middle" x="257.93" y="-15.67" font-family="Hershey-Noailles-help-me" font-size="14.00">as an artistic medium</text>
</g>
<!-- EiC1&#45;&gt;AM -->
<g id="edge8" class="edge">
<title>EiC1&#45;&gt;AM</title>
<path fill="none" stroke="black" d="M257.93,-98.28C257.93,-88.46 257.93,-75.82 257.93,-63.95"/>
<polygon fill="black" stroke="black" points="261.43,-63.82 257.93,-53.82 254.43,-63.82 261.43,-63.82"/>
</g>
<!-- MW&#45;&gt;FC -->
<g id="edge10" class="edge">
<title>MW&#45;&gt;FC</title>
<path fill="none" stroke="black" d="M262.93,-241.15C262.93,-236.17 262.93,-230.97 262.93,-225.99"/>
<polygon fill="black" stroke="black" points="259.43,-241.18 262.93,-251.18 266.43,-241.18 259.43,-241.18"/>
<polygon fill="black" stroke="black" points="266.43,-225.58 262.93,-215.58 259.43,-225.58 266.43,-225.58"/>
</g>
<!-- Notes -->
<g id="node13" class="node">
<title>Notes</title>
<ellipse fill="none" stroke="black" cx="150.93" cy="-197.48" rx="36.29" ry="18"/>
<text text-anchor="middle" x="150.93" y="-193.78" font-family="Hershey-Noailles-help-me" font-size="14.00">Notes</text>
</g>
<!-- MW&#45;&gt;Notes -->
<g id="edge9" class="edge">
<title>MW&#45;&gt;Notes</title>
<path fill="none" stroke="black" d="M240,-254.15C223.06,-243.56 199.83,-229.04 181.34,-217.49"/>
<polygon fill="black" stroke="black" points="183.03,-214.41 172.7,-212.08 179.32,-220.35 183.03,-214.41"/>
</g>
<!-- RR -->
<g id="node11" class="node">
<title>RR</title>
<ellipse fill="none" stroke="black" cx="131.93" cy="-341.48" rx="85.29" ry="18"/>
<text text-anchor="middle" x="131.93" y="-337.78" font-family="Hershey-Noailles-help-me" font-size="14.00">Required reading</text>
</g>
<!-- RR&#45;&gt;GS -->
<g id="edge12" class="edge">
<title>RR&#45;&gt;GS</title>
<path fill="none" stroke="black" d="M131.93,-359.58C131.93,-367.27 131.93,-376.53 131.93,-385.15"/>
<polygon fill="black" stroke="black" points="128.43,-385.18 131.93,-395.18 135.43,-385.18 128.43,-385.18"/>
</g>
<!-- RR&#45;&gt;SU -->
<g id="edge13" class="edge">
<title>RR&#45;&gt;SU</title>
<path fill="none" stroke="black" d="M217.2,-341.48C219.65,-341.48 222.09,-341.48 224.53,-341.48"/>
<polygon fill="black" stroke="black" points="224.57,-344.98 234.57,-341.48 224.57,-337.98 224.57,-344.98"/>
</g>
<!-- RR&#45;&gt;MW -->
<g id="edge14" class="edge">
<title>RR&#45;&gt;MW</title>
<path fill="none" stroke="black" d="M161.66,-324.6C181.65,-313.91 208.05,-299.81 228.89,-288.67"/>
<polygon fill="black" stroke="black" points="230.56,-291.75 237.73,-283.95 227.26,-285.57 230.56,-291.75"/>
</g>
<!-- FR -->
<g id="node12" class="node">
<title>FR</title>
<ellipse fill="none" stroke="black" cx="124.93" cy="-269.48" rx="77.99" ry="18"/>
<text text-anchor="middle" x="124.93" y="-265.78" font-family="Hershey-Noailles-help-me" font-size="14.00">Further reading</text>
</g>
<!-- RR&#45;&gt;FR -->
<g id="edge16" class="edge">
<title>RR&#45;&gt;FR</title>
<path fill="none" stroke="black" d="M130.2,-323.18C129.43,-315.46 128.5,-306.19 127.64,-297.59"/>
<polygon fill="black" stroke="black" points="131.12,-297.19 126.64,-287.58 124.16,-297.88 131.12,-297.19"/>
</g>
</g>
</svg>
