<?xml version="1.0" encoding="UTF-8" standalone="no"?>
<!DOCTYPE svg PUBLIC "-//W3C//DTD SVG 1.1//EN"
 "http://www.w3.org/Graphics/SVG/1.1/DTD/svg11.dtd">
<!-- Generated by graphviz version 2.38.0 (20140413.2041)
 -->
<!-- Title: G Pages: 1 -->
<svg width="542pt" height="350pt"
 viewBox="0.00 0.00 541.74 349.74" xmlns="http://www.w3.org/2000/svg" xmlns:xlink="http://www.w3.org/1999/xlink">
<g id="graph0" class="graph" transform="scale(1 1) rotate(0) translate(4 345.74)">
<title>G</title>
<polygon fill="white" stroke="none" points="-4,4 -4,-345.74 537.737,-345.74 537.737,4 -4,4"/>
<!-- GS -->
<g id="node1" class="node"><title>GS</title>
<ellipse fill="none" stroke="grey" stroke-width="2" cx="369.29" cy="-323.74" rx="120.479" ry="18"/>
<text text-anchor="middle" x="369.29" y="-320.04" font-family="Times,serif" font-size="14.00">Ch.9 &#45; Algorithmic Procedures</text>
</g>
<!-- SU -->
<g id="node2" class="node"><title>SU</title>
<ellipse fill="none" stroke="black" cx="151.29" cy="-179.74" rx="35.194" ry="18"/>
<text text-anchor="middle" x="151.29" y="-176.04" font-family="Times,serif" font-size="14.00">setup()</text>
</g>
<!-- GS&#45;&gt;SU -->
<g id="edge1" class="edge"><title>GS&#45;&gt;SU</title>
<path fill="none" stroke="black" d="M343.426,-305.893C302.677,-279.35 223.761,-227.946 180.836,-199.986"/>
<polygon fill="black" stroke="black" points="182.539,-196.918 172.249,-194.393 178.718,-202.784 182.539,-196.918"/>
</g>
<!-- MX -->
<g id="node9" class="node"><title>MX</title>
<ellipse fill="none" stroke="black" cx="479.29" cy="-26.8701" rx="54.3945" ry="26.7407"/>
<text text-anchor="middle" x="479.29" y="-30.6701" font-family="Times,serif" font-size="14.00">MiniX 9: </text>
<text text-anchor="middle" x="479.29" y="-15.6701" font-family="Times,serif" font-size="14.00">Flowcharts</text>
</g>
<!-- GS&#45;&gt;MX -->
<g id="edge4" class="edge"><title>GS&#45;&gt;MX</title>
<path fill="none" stroke="black" d="M404.353,-306.289C420.009,-297.402 437.537,-285.082 449.29,-269.74 499.31,-204.447 500.792,-171.551 492.29,-89.7401 491.402,-81.2026 489.844,-72.1076 488.107,-63.5923"/>
<polygon fill="black" stroke="black" points="491.474,-62.6007 485.934,-53.5696 484.633,-64.0843 491.474,-62.6007"/>
</g>
<!-- RR -->
<g id="node10" class="node"><title>RR</title>
<ellipse fill="none" stroke="black" cx="369.29" cy="-251.74" rx="71.4873" ry="18"/>
<text text-anchor="middle" x="369.29" y="-248.04" font-family="Times,serif" font-size="14.00">Required reading</text>
</g>
<!-- GS&#45;&gt;RR -->
<g id="edge3" class="edge"><title>GS&#45;&gt;RR</title>
<path fill="none" stroke="black" d="M369.29,-305.437C369.29,-297.723 369.29,-288.453 369.29,-279.853"/>
<polygon fill="black" stroke="black" points="372.79,-279.844 369.29,-269.844 365.79,-279.844 372.79,-279.844"/>
</g>
<!-- ST -->
<g id="node3" class="node"><title>ST</title>
<ellipse fill="none" stroke="black" cx="236.29" cy="-179.74" rx="31.6951" ry="18"/>
<text text-anchor="middle" x="236.29" y="-176.04" font-family="Times,serif" font-size="14.00">start()</text>
</g>
<!-- SU&#45;&gt;ST -->
<g id="edge2" class="edge"><title>SU&#45;&gt;ST</title>
<path fill="none" stroke="black" d="M186.485,-179.74C189.095,-179.74 191.705,-179.74 194.315,-179.74"/>
<polygon fill="black" stroke="black" points="194.383,-183.24 204.383,-179.74 194.383,-176.24 194.383,-183.24"/>
</g>
<!-- DiC -->
<g id="node4" class="node"><title>DiC</title>
<ellipse fill="none" stroke="black" cx="364.29" cy="-179.74" rx="77.9862" ry="18"/>
<text text-anchor="middle" x="364.29" y="-176.04" font-family="Times,serif" font-size="14.00">Discussion in class</text>
</g>
<!-- ST&#45;&gt;DiC -->
<g id="edge7" class="edge"><title>ST&#45;&gt;DiC</title>
<path fill="none" stroke="black" d="M268.29,-179.74C270.915,-179.74 273.54,-179.74 276.165,-179.74"/>
<polygon fill="black" stroke="black" points="276.29,-183.24 286.29,-179.74 276.289,-176.24 276.29,-183.24"/>
</g>
<!-- FC -->
<g id="node5" class="node"><title>FC</title>
<ellipse fill="none" stroke="black" cx="118.29" cy="-107.74" rx="53.8905" ry="18"/>
<text text-anchor="middle" x="118.29" y="-104.04" font-family="Times,serif" font-size="14.00">Flow Charts</text>
</g>
<!-- ST&#45;&gt;FC -->
<g id="edge8" class="edge"><title>ST&#45;&gt;FC</title>
<path fill="none" stroke="black" d="M215.193,-166.226C197.754,-155.88 172.653,-140.99 152.368,-128.956"/>
<polygon fill="black" stroke="black" points="154.105,-125.917 143.719,-123.825 150.534,-131.938 154.105,-125.917"/>
</g>
<!-- MW -->
<g id="node8" class="node"><title>MW</title>
<ellipse fill="none" stroke="black" cx="385.29" cy="-107.74" rx="38.1938" ry="18"/>
<text text-anchor="middle" x="385.29" y="-104.04" font-family="Times,serif" font-size="14.00">While()</text>
</g>
<!-- ST&#45;&gt;MW -->
<g id="edge11" class="edge"><title>ST&#45;&gt;MW</title>
<path fill="none" stroke="black" d="M259.899,-167.648C284.049,-156.303 321.865,-138.537 349.657,-125.48"/>
<polygon fill="black" stroke="black" points="351.468,-128.496 359.031,-121.076 348.492,-122.161 351.468,-128.496"/>
</g>
<!-- EiC -->
<g id="node6" class="node"><title>EiC</title>
<ellipse fill="none" stroke="black" cx="259.29" cy="-107.74" rx="69.5877" ry="18"/>
<text text-anchor="middle" x="259.29" y="-104.04" font-family="Times,serif" font-size="14.00">Exercise in class</text>
</g>
<!-- FC&#45;&gt;EiC -->
<g id="edge9" class="edge"><title>FC&#45;&gt;EiC</title>
<path fill="none" stroke="black" d="M172.266,-107.74C174.704,-107.74 177.142,-107.74 179.58,-107.74"/>
<polygon fill="black" stroke="black" points="179.603,-111.24 189.603,-107.74 179.603,-104.24 179.603,-111.24"/>
</g>
<!-- AM -->
<g id="node7" class="node"><title>AM</title>
<ellipse fill="none" stroke="black" cx="118.29" cy="-26.8701" rx="118.079" ry="18"/>
<text text-anchor="middle" x="118.29" y="-23.1701" font-family="Times,serif" font-size="14.00">Flowcharts as artistic medium</text>
</g>
<!-- FC&#45;&gt;AM -->
<g id="edge10" class="edge"><title>FC&#45;&gt;AM</title>
<path fill="none" stroke="black" d="M118.29,-89.6265C118.29,-79.6013 118.29,-66.7063 118.29,-55.2947"/>
<polygon fill="black" stroke="black" points="121.79,-54.9503 118.29,-44.9503 114.79,-54.9503 121.79,-54.9503"/>
</g>
<!-- MW&#45;&gt;MX -->
<g id="edge13" class="edge"><title>MW&#45;&gt;MX</title>
<path fill="none" stroke="black" d="M403.414,-91.5332C415.009,-81.8042 430.433,-68.863 444.345,-57.19"/>
<polygon fill="black" stroke="black" points="446.91,-59.6064 452.321,-50.4975 442.411,-54.2439 446.91,-59.6064"/>
</g>
<!-- Notes -->
<g id="node11" class="node"><title>Notes</title>
<ellipse fill="none" stroke="black" cx="375.29" cy="-26.8701" rx="31.3957" ry="18"/>
<text text-anchor="middle" x="375.29" y="-23.1701" font-family="Times,serif" font-size="14.00">Notes</text>
</g>
<!-- MW&#45;&gt;Notes -->
<g id="edge12" class="edge"><title>MW&#45;&gt;Notes</title>
<path fill="none" stroke="black" d="M383.12,-89.6265C381.835,-79.4979 380.18,-66.4401 378.722,-54.9422"/>
<polygon fill="black" stroke="black" points="382.185,-54.4306 377.455,-44.9503 375.241,-55.3111 382.185,-54.4306"/>
</g>
<!-- RR&#45;&gt;SU -->
<g id="edge6" class="edge"><title>RR&#45;&gt;SU</title>
<path fill="none" stroke="black" d="M323.568,-237.804C288.303,-227.589 238.426,-212.621 195.29,-197.74 192.764,-196.869 190.167,-195.944 187.559,-194.992"/>
<polygon fill="black" stroke="black" points="188.76,-191.705 178.167,-191.482 186.309,-198.262 188.76,-191.705"/>
</g>
<!-- RR&#45;&gt;MX -->
<g id="edge5" class="edge"><title>RR&#45;&gt;MX</title>
<path fill="none" stroke="black" d="M405.106,-235.945C421.736,-227.249 440.232,-214.611 451.29,-197.74 477.685,-157.468 481.948,-100.613 481.481,-63.9928"/>
<polygon fill="black" stroke="black" points="484.974,-63.683 481.221,-53.7753 477.976,-63.861 484.974,-63.683"/>
</g>
</g>
</svg>
