<?xml version="1.0" encoding="UTF-8" standalone="no"?>
<!DOCTYPE svg PUBLIC "-//W3C//DTD SVG 1.1//EN"
 "http://www.w3.org/Graphics/SVG/1.1/DTD/svg11.dtd">
<!-- Generated by graphviz version 2.38.0 (20140413.2041)
 -->
<!-- Title: G Pages: 1 -->
<svg width="510pt" height="350pt"
 viewBox="0.00 0.00 509.94 349.74" xmlns="http://www.w3.org/2000/svg" xmlns:xlink="http://www.w3.org/1999/xlink">
<g id="graph0" class="graph" transform="scale(1 1) rotate(0) translate(4 345.74)">
<title>G</title>
<polygon fill="white" stroke="none" points="-4,4 -4,-345.74 505.941,-345.74 505.941,4 -4,4"/>
<!-- GS -->
<g id="node1" class="node"><title>GS</title>
<ellipse fill="none" stroke="grey" stroke-width="2" cx="189.494" cy="-314.87" rx="120.479" ry="18"/>
<text text-anchor="middle" x="189.494" y="-311.17" font-family="Times,serif" font-size="14.00">Ch.9 &#45; Algorithmic Procedures</text>
</g>
<!-- SU -->
<g id="node2" class="node"><title>SU</title>
<ellipse fill="none" stroke="black" cx="189.494" cy="-234" rx="35.194" ry="18"/>
<text text-anchor="middle" x="189.494" y="-230.3" font-family="Times,serif" font-size="14.00">setup()</text>
</g>
<!-- GS&#45;&gt;SU -->
<g id="edge1" class="edge"><title>GS&#45;&gt;SU</title>
<path fill="none" stroke="black" d="M189.494,-296.756C189.494,-286.731 189.494,-273.836 189.494,-262.425"/>
<polygon fill="black" stroke="black" points="192.994,-262.08 189.494,-252.08 185.994,-262.08 192.994,-262.08"/>
</g>
<!-- MX -->
<g id="node9" class="node"><title>MX</title>
<ellipse fill="none" stroke="black" cx="447.494" cy="-314.87" rx="54.3945" ry="26.7407"/>
<text text-anchor="middle" x="447.494" y="-318.67" font-family="Times,serif" font-size="14.00">MiniX 9: </text>
<text text-anchor="middle" x="447.494" y="-303.67" font-family="Times,serif" font-size="14.00">Flowcharts</text>
</g>
<!-- GS&#45;&gt;MX -->
<g id="edge3" class="edge"><title>GS&#45;&gt;MX</title>
<path fill="none" stroke="black" d="M309.927,-314.87C334.251,-314.87 358.574,-314.87 382.897,-314.87"/>
<polygon fill="black" stroke="black" points="382.951,-318.37 392.951,-314.87 382.951,-311.37 382.951,-318.37"/>
</g>
<!-- ST -->
<g id="node3" class="node"><title>ST</title>
<ellipse fill="none" stroke="black" cx="274.494" cy="-234" rx="31.6951" ry="18"/>
<text text-anchor="middle" x="274.494" y="-230.3" font-family="Times,serif" font-size="14.00">start()</text>
</g>
<!-- SU&#45;&gt;ST -->
<g id="edge2" class="edge"><title>SU&#45;&gt;ST</title>
<path fill="none" stroke="black" d="M224.689,-234C227.299,-234 229.909,-234 232.52,-234"/>
<polygon fill="black" stroke="black" points="232.588,-237.5 242.588,-234 232.587,-230.5 232.588,-237.5"/>
</g>
<!-- MW -->
<g id="node8" class="node"><title>MW</title>
<ellipse fill="none" stroke="black" cx="199.494" cy="-162" rx="38.1938" ry="18"/>
<text text-anchor="middle" x="199.494" y="-158.3" font-family="Times,serif" font-size="14.00">While()</text>
</g>
<!-- SU&#45;&gt;MW -->
<g id="edge10" class="edge"><title>SU&#45;&gt;MW</title>
<path fill="none" stroke="black" d="M193.399,-205.665C194.129,-200.552 194.892,-195.21 195.622,-190.104"/>
<polygon fill="black" stroke="black" points="189.915,-205.302 191.966,-215.697 196.845,-206.292 189.915,-205.302"/>
<polygon fill="black" stroke="black" points="199.101,-190.499 197.05,-180.104 192.171,-189.509 199.101,-190.499"/>
</g>
<!-- DiC -->
<g id="node4" class="node"><title>DiC</title>
<ellipse fill="none" stroke="black" cx="371.494" cy="-162" rx="77.9862" ry="18"/>
<text text-anchor="middle" x="371.494" y="-158.3" font-family="Times,serif" font-size="14.00">Discussion in class</text>
</g>
<!-- ST&#45;&gt;DiC -->
<g id="edge4" class="edge"><title>ST&#45;&gt;DiC</title>
<path fill="none" stroke="black" d="M293.658,-219.17C307.074,-209.488 325.289,-196.344 340.724,-185.205"/>
<polygon fill="black" stroke="black" points="342.905,-187.947 348.966,-179.257 338.808,-182.271 342.905,-187.947"/>
</g>
<!-- FC -->
<g id="node5" class="node"><title>FC</title>
<ellipse fill="none" stroke="black" cx="284.494" cy="-90" rx="53.8905" ry="18"/>
<text text-anchor="middle" x="284.494" y="-86.3" font-family="Times,serif" font-size="14.00">Flow Charts</text>
</g>
<!-- ST&#45;&gt;FC -->
<g id="edge5" class="edge"><title>ST&#45;&gt;FC</title>
<path fill="none" stroke="black" d="M275.7,-215.871C277.404,-191.67 280.535,-147.211 282.565,-118.393"/>
<polygon fill="black" stroke="black" points="286.072,-118.41 283.283,-108.189 279.089,-117.919 286.072,-118.41"/>
</g>
<!-- EiC -->
<g id="node6" class="node"><title>EiC</title>
<ellipse fill="none" stroke="black" cx="425.494" cy="-90" rx="69.5877" ry="18"/>
<text text-anchor="middle" x="425.494" y="-86.3" font-family="Times,serif" font-size="14.00">Exercise in class</text>
</g>
<!-- FC&#45;&gt;EiC -->
<g id="edge6" class="edge"><title>FC&#45;&gt;EiC</title>
<path fill="none" stroke="black" d="M338.47,-90C340.908,-90 343.346,-90 345.784,-90"/>
<polygon fill="black" stroke="black" points="345.807,-93.5001 355.807,-90 345.807,-86.5001 345.807,-93.5001"/>
</g>
<!-- AM -->
<g id="node7" class="node"><title>AM</title>
<ellipse fill="none" stroke="black" cx="284.494" cy="-18" rx="118.079" ry="18"/>
<text text-anchor="middle" x="284.494" y="-14.3" font-family="Times,serif" font-size="14.00">Flowcharts as artistic medium</text>
</g>
<!-- FC&#45;&gt;AM -->
<g id="edge7" class="edge"><title>FC&#45;&gt;AM</title>
<path fill="none" stroke="black" d="M284.494,-71.6966C284.494,-63.9827 284.494,-54.7125 284.494,-46.1124"/>
<polygon fill="black" stroke="black" points="287.994,-46.1043 284.494,-36.1043 280.994,-46.1044 287.994,-46.1043"/>
</g>
<!-- FC&#45;&gt;MX -->
<g id="edge14" class="edge"><title>FC&#45;&gt;MX</title>
<path fill="none" stroke="black" d="M324.924,-102.012C375.037,-115.85 454.394,-138.465 458.494,-144 487.318,-182.912 474.737,-241.605 461.946,-278.815"/>
<polygon fill="black" stroke="black" points="458.645,-277.652 458.541,-288.246 465.229,-280.029 458.645,-277.652"/>
</g>
<!-- MW&#45;&gt;FC -->
<g id="edge9" class="edge"><title>MW&#45;&gt;FC</title>
<path fill="none" stroke="black" d="M225.907,-139.248C235.936,-130.989 247.367,-121.575 257.453,-113.269"/>
<polygon fill="black" stroke="black" points="223.432,-136.752 217.937,-145.811 227.882,-142.156 223.432,-136.752"/>
<polygon fill="black" stroke="black" points="259.707,-115.947 265.201,-106.888 255.257,-110.544 259.707,-115.947"/>
</g>
<!-- Notes -->
<g id="node11" class="node"><title>Notes</title>
<ellipse fill="none" stroke="black" cx="181.494" cy="-90" rx="31.3957" ry="18"/>
<text text-anchor="middle" x="181.494" y="-86.3" font-family="Times,serif" font-size="14.00">Notes</text>
</g>
<!-- MW&#45;&gt;Notes -->
<g id="edge8" class="edge"><title>MW&#45;&gt;Notes</title>
<path fill="none" stroke="black" d="M195.136,-144.055C193.132,-136.261 190.705,-126.822 188.457,-118.079"/>
<polygon fill="black" stroke="black" points="191.816,-117.089 185.936,-108.275 185.037,-118.832 191.816,-117.089"/>
</g>
<!-- RR -->
<g id="node10" class="node"><title>RR</title>
<ellipse fill="none" stroke="black" cx="71.4937" cy="-162" rx="71.4873" ry="18"/>
<text text-anchor="middle" x="71.4937" y="-158.3" font-family="Times,serif" font-size="14.00">Required reading</text>
</g>
<!-- RR&#45;&gt;GS -->
<g id="edge11" class="edge"><title>RR&#45;&gt;GS</title>
<path fill="none" stroke="black" d="M84.5717,-179.721C105.253,-206.163 145.636,-257.795 169.824,-288.721"/>
<polygon fill="black" stroke="black" points="167.269,-291.136 176.187,-296.857 172.783,-286.823 167.269,-291.136"/>
</g>
<!-- RR&#45;&gt;SU -->
<g id="edge12" class="edge"><title>RR&#45;&gt;SU</title>
<path fill="none" stroke="black" d="M98.1338,-178.803C116.061,-189.438 139.76,-203.497 158.528,-214.631"/>
<polygon fill="black" stroke="black" points="156.912,-217.742 167.299,-219.834 160.484,-211.721 156.912,-217.742"/>
</g>
<!-- RR&#45;&gt;MW -->
<g id="edge13" class="edge"><title>RR&#45;&gt;MW</title>
<path fill="none" stroke="black" d="M142.994,-162C145.633,-162 148.272,-162 150.911,-162"/>
<polygon fill="black" stroke="black" points="151.091,-165.5 161.091,-162 151.091,-158.5 151.091,-165.5"/>
</g>
</g>
</svg>
