<?xml version="1.0" encoding="UTF-8" standalone="no"?>
<!DOCTYPE svg PUBLIC "-//W3C//DTD SVG 1.1//EN"
 "http://www.w3.org/Graphics/SVG/1.1/DTD/svg11.dtd">
<!-- Generated by graphviz version 2.38.0 (20140413.2041)
 -->
<!-- Title: G Pages: 1 -->
<svg width="474pt" height="422pt"
 viewBox="0.00 0.00 474.23 421.74" xmlns="http://www.w3.org/2000/svg" xmlns:xlink="http://www.w3.org/1999/xlink">
<g id="graph0" class="graph" transform="scale(1 1) rotate(0) translate(4 417.74)">
<title>G</title>
<polygon fill="white" stroke="none" points="-4,4 -4,-417.74 470.232,-417.74 470.232,4 -4,4"/>
<!-- GS -->
<g id="node1" class="node"><title>GS</title>
<ellipse fill="none" stroke="grey" stroke-width="2" cx="120.239" cy="-395.74" rx="120.479" ry="18"/>
<text text-anchor="middle" x="120.239" y="-392.04" font-family="Times,serif" font-size="14.00">Ch.9 &#45; Algorithmic Procedures</text>
</g>
<!-- SU -->
<g id="node2" class="node"><title>SU</title>
<ellipse fill="none" stroke="black" cx="245.239" cy="-323.74" rx="35.194" ry="18"/>
<text text-anchor="middle" x="245.239" y="-320.04" font-family="Times,serif" font-size="14.00">setup()</text>
</g>
<!-- GS&#45;&gt;SU -->
<g id="edge1" class="edge"><title>GS&#45;&gt;SU</title>
<path fill="none" stroke="black" d="M149.863,-378.151C169.059,-367.401 194.039,-353.412 213.619,-342.447"/>
<polygon fill="black" stroke="black" points="215.456,-345.43 222.471,-337.49 212.036,-339.322 215.456,-345.43"/>
</g>
<!-- MX -->
<g id="node10" class="node"><title>MX</title>
<ellipse fill="none" stroke="black" cx="58.2393" cy="-98.8701" rx="54.3945" ry="26.7407"/>
<text text-anchor="middle" x="58.2393" y="-102.67" font-family="Times,serif" font-size="14.00">MiniX[9]: </text>
<text text-anchor="middle" x="58.2393" y="-87.6701" font-family="Times,serif" font-size="14.00">Flowcharts</text>
</g>
<!-- GS&#45;&gt;MX -->
<g id="edge3" class="edge"><title>GS&#45;&gt;MX</title>
<path fill="none" stroke="black" d="M80.7385,-378.672C65.1913,-370.16 48.9889,-358.032 40.2393,-341.74 4.73336,-275.626 27.3883,-184.341 44.4319,-134.974"/>
<polygon fill="black" stroke="black" points="47.7875,-135.985 47.8538,-125.39 41.1951,-133.631 47.7875,-135.985"/>
</g>
<!-- ST -->
<g id="node3" class="node"><title>ST</title>
<ellipse fill="none" stroke="black" cx="325.239" cy="-251.74" rx="31.6951" ry="18"/>
<text text-anchor="middle" x="325.239" y="-248.04" font-family="Times,serif" font-size="14.00">start()</text>
</g>
<!-- SU&#45;&gt;ST -->
<g id="edge2" class="edge"><title>SU&#45;&gt;ST</title>
<path fill="none" stroke="black" d="M262.205,-307.895C273.417,-298.084 288.292,-285.069 300.776,-274.145"/>
<polygon fill="black" stroke="black" points="303.351,-276.543 308.572,-267.324 298.742,-271.275 303.351,-276.543"/>
</g>
<!-- MW -->
<g id="node9" class="node"><title>MW</title>
<ellipse fill="none" stroke="black" cx="237.239" cy="-251.74" rx="38.1938" ry="18"/>
<text text-anchor="middle" x="237.239" y="-248.04" font-family="Times,serif" font-size="14.00">While()</text>
</g>
<!-- SU&#45;&gt;MW -->
<g id="edge11" class="edge"><title>SU&#45;&gt;MW</title>
<path fill="none" stroke="black" d="M242.115,-295.405C241.531,-290.292 240.92,-284.95 240.337,-279.844"/>
<polygon fill="black" stroke="black" points="238.649,-295.899 243.262,-305.437 245.604,-295.104 238.649,-295.899"/>
<polygon fill="black" stroke="black" points="243.807,-279.382 239.194,-269.844 236.852,-280.177 243.807,-279.382"/>
</g>
<!-- DiC -->
<g id="node4" class="node"><title>DiC</title>
<ellipse fill="none" stroke="black" cx="388.239" cy="-179.74" rx="77.9862" ry="18"/>
<text text-anchor="middle" x="388.239" y="-176.04" font-family="Times,serif" font-size="14.00">Discussion in class</text>
</g>
<!-- ST&#45;&gt;DiC -->
<g id="edge4" class="edge"><title>ST&#45;&gt;DiC</title>
<path fill="none" stroke="black" d="M339.221,-235.205C347.116,-226.433 357.163,-215.269 366.103,-205.336"/>
<polygon fill="black" stroke="black" points="368.886,-207.476 372.974,-197.702 363.682,-202.793 368.886,-207.476"/>
</g>
<!-- FC -->
<g id="node6" class="node"><title>FC</title>
<ellipse fill="none" stroke="black" cx="237.239" cy="-179.74" rx="50.0912" ry="18"/>
<text text-anchor="middle" x="237.239" y="-176.04" font-family="Times,serif" font-size="14.00">Flowcharts</text>
</g>
<!-- ST&#45;&gt;FC -->
<g id="edge6" class="edge"><title>ST&#45;&gt;FC</title>
<path fill="none" stroke="black" d="M307.431,-236.575C295.172,-226.823 278.648,-213.679 264.713,-202.594"/>
<polygon fill="black" stroke="black" points="266.863,-199.832 256.858,-196.346 262.505,-205.31 266.863,-199.832"/>
</g>
<!-- EiC -->
<g id="node5" class="node"><title>EiC</title>
<ellipse fill="none" stroke="black" cx="391.239" cy="-98.8701" rx="69.5877" ry="18"/>
<text text-anchor="middle" x="391.239" y="-95.1701" font-family="Times,serif" font-size="14.00">Exercise in class</text>
</g>
<!-- DiC&#45;&gt;EiC -->
<g id="edge5" class="edge"><title>DiC&#45;&gt;EiC</title>
<path fill="none" stroke="black" d="M388.89,-161.626C389.272,-151.601 389.762,-138.706 390.196,-127.295"/>
<polygon fill="black" stroke="black" points="393.707,-127.076 390.59,-116.95 386.712,-126.81 393.707,-127.076"/>
</g>
<!-- EiC1 -->
<g id="node7" class="node"><title>EiC1</title>
<ellipse fill="none" stroke="black" cx="234.239" cy="-98.8701" rx="69.5877" ry="18"/>
<text text-anchor="middle" x="234.239" y="-95.1701" font-family="Times,serif" font-size="14.00">Exercise in class</text>
</g>
<!-- FC&#45;&gt;EiC1 -->
<g id="edge7" class="edge"><title>FC&#45;&gt;EiC1</title>
<path fill="none" stroke="black" d="M236.588,-161.626C236.207,-151.601 235.717,-138.706 235.282,-127.295"/>
<polygon fill="black" stroke="black" points="238.767,-126.81 234.889,-116.95 231.772,-127.076 238.767,-126.81"/>
</g>
<!-- FC&#45;&gt;MX -->
<g id="edge15" class="edge"><title>FC&#45;&gt;MX</title>
<path fill="none" stroke="black" d="M206.874,-165.361C179.549,-153.321 138.911,-135.415 107.03,-121.368"/>
<polygon fill="black" stroke="black" points="108.429,-118.16 97.8663,-117.33 105.606,-124.565 108.429,-118.16"/>
</g>
<!-- AM -->
<g id="node8" class="node"><title>AM</title>
<ellipse fill="none" stroke="black" cx="234.239" cy="-18" rx="128.877" ry="18"/>
<text text-anchor="middle" x="234.239" y="-14.3" font-family="Times,serif" font-size="14.00">Flowcharts as an artistic medium</text>
</g>
<!-- EiC1&#45;&gt;AM -->
<g id="edge8" class="edge"><title>EiC1&#45;&gt;AM</title>
<path fill="none" stroke="black" d="M234.239,-80.7564C234.239,-70.7312 234.239,-57.8362 234.239,-46.4246"/>
<polygon fill="black" stroke="black" points="237.739,-46.0802 234.239,-36.0802 230.739,-46.0803 237.739,-46.0802"/>
</g>
<!-- MW&#45;&gt;FC -->
<g id="edge10" class="edge"><title>MW&#45;&gt;FC</title>
<path fill="none" stroke="black" d="M237.239,-223.405C237.239,-218.427 237.239,-213.231 237.239,-208.247"/>
<polygon fill="black" stroke="black" points="233.739,-223.437 237.239,-233.437 240.739,-223.437 233.739,-223.437"/>
<polygon fill="black" stroke="black" points="240.739,-207.844 237.239,-197.844 233.739,-207.844 240.739,-207.844"/>
</g>
<!-- Notes -->
<g id="node13" class="node"><title>Notes</title>
<ellipse fill="none" stroke="black" cx="138.239" cy="-179.74" rx="31.3957" ry="18"/>
<text text-anchor="middle" x="138.239" y="-176.04" font-family="Times,serif" font-size="14.00">Notes</text>
</g>
<!-- MW&#45;&gt;Notes -->
<g id="edge9" class="edge"><title>MW&#45;&gt;Notes</title>
<path fill="none" stroke="black" d="M216.726,-236.236C202.008,-225.829 182.011,-211.69 165.885,-200.287"/>
<polygon fill="black" stroke="black" points="167.568,-197.191 157.383,-194.276 163.527,-202.907 167.568,-197.191"/>
</g>
<!-- RR -->
<g id="node11" class="node"><title>RR</title>
<ellipse fill="none" stroke="black" cx="120.239" cy="-323.74" rx="71.4873" ry="18"/>
<text text-anchor="middle" x="120.239" y="-320.04" font-family="Times,serif" font-size="14.00">Required reading</text>
</g>
<!-- RR&#45;&gt;GS -->
<g id="edge12" class="edge"><title>RR&#45;&gt;GS</title>
<path fill="none" stroke="black" d="M120.239,-341.844C120.239,-349.531 120.239,-358.794 120.239,-367.405"/>
<polygon fill="black" stroke="black" points="116.739,-367.437 120.239,-377.437 123.739,-367.437 116.739,-367.437"/>
</g>
<!-- RR&#45;&gt;SU -->
<g id="edge13" class="edge"><title>RR&#45;&gt;SU</title>
<path fill="none" stroke="black" d="M192.017,-323.74C194.624,-323.74 197.232,-323.74 199.839,-323.74"/>
<polygon fill="black" stroke="black" points="199.896,-327.24 209.896,-323.74 199.896,-320.24 199.896,-327.24"/>
</g>
<!-- RR&#45;&gt;MW -->
<g id="edge14" class="edge"><title>RR&#45;&gt;MW</title>
<path fill="none" stroke="black" d="M146.788,-306.856C164.286,-296.387 187.286,-282.627 205.714,-271.602"/>
<polygon fill="black" stroke="black" points="207.564,-274.573 214.348,-266.436 203.97,-268.566 207.564,-274.573"/>
</g>
<!-- FR -->
<g id="node12" class="node"><title>FR</title>
<ellipse fill="none" stroke="black" cx="115.239" cy="-251.74" rx="65.7887" ry="18"/>
<text text-anchor="middle" x="115.239" y="-248.04" font-family="Times,serif" font-size="14.00">Further reading</text>
</g>
<!-- RR&#45;&gt;FR -->
<g id="edge16" class="edge"><title>RR&#45;&gt;FR</title>
<path fill="none" stroke="black" d="M119.003,-305.437C118.452,-297.723 117.79,-288.453 117.176,-279.853"/>
<polygon fill="black" stroke="black" points="120.665,-279.57 116.461,-269.844 113.683,-280.068 120.665,-279.57"/>
</g>
</g>
</svg>
