<?xml version="1.0" encoding="UTF-8" standalone="no"?>
<!DOCTYPE svg PUBLIC "-//W3C//DTD SVG 1.1//EN"
 "http://www.w3.org/Graphics/SVG/1.1/DTD/svg11.dtd">
<!-- Generated by graphviz version 2.38.0 (20140413.2041)
 -->
<!-- Title: G Pages: 1 -->
<svg width="664pt" height="583pt"
 viewBox="0.00 0.00 664.14 583.48" xmlns="http://www.w3.org/2000/svg" xmlns:xlink="http://www.w3.org/1999/xlink">
<g id="graph0" class="graph" transform="scale(1 1) rotate(0) translate(4 579.48)">
<title>G</title>
<polygon fill="white" stroke="none" points="-4,4 -4,-579.48 660.138,-579.48 660.138,4 -4,4"/>
<!-- GS -->
<g id="node1" class="node"><title>GS</title>
<polygon fill="none" stroke="black" points="433.743,-575.48 240.743,-575.48 240.743,-539.48 433.743,-539.48 433.743,-575.48"/>
<text text-anchor="middle" x="337.243" y="-553.78" font-family="Hershey-Noailles-help-me" font-size="14.00">9. Algorithmic procedures</text>
</g>
<!-- SU -->
<g id="node2" class="node"><title>SU</title>
<ellipse fill="none" stroke="black" cx="337.243" cy="-485.48" rx="42.4939" ry="18"/>
<text text-anchor="middle" x="337.243" y="-481.78" font-family="Hershey-Noailles-help-me" font-size="14.00">setup()</text>
</g>
<!-- GS&#45;&gt;SU -->
<g id="edge1" class="edge"><title>GS&#45;&gt;SU</title>
<path fill="none" stroke="black" d="M337.243,-539.177C337.243,-531.463 337.243,-522.193 337.243,-513.593"/>
<polygon fill="black" stroke="black" points="340.743,-513.585 337.243,-503.585 333.743,-513.585 340.743,-513.585"/>
</g>
<!-- MX -->
<g id="node11" class="node"><title>MX</title>
<ellipse fill="none" stroke="black" cx="559.243" cy="-188.61" rx="65.1077" ry="26.7407"/>
<text text-anchor="middle" x="559.243" y="-192.41" font-family="Hershey-Noailles-help-me" font-size="14.00">MiniX: </text>
<text text-anchor="middle" x="559.243" y="-177.41" font-family="Hershey-Noailles-help-me" font-size="14.00">Flowcharts</text>
</g>
<!-- GS&#45;&gt;MX -->
<g id="edge3" class="edge"><title>GS&#45;&gt;MX</title>
<path fill="none" stroke="black" d="M400.608,-539.452C457.872,-519.767 533.243,-481.186 533.243,-414.48 533.243,-414.48 533.243,-414.48 533.243,-340.48 533.243,-300.602 542.174,-255.644 549.567,-225.259"/>
<polygon fill="black" stroke="black" points="552.966,-226.092 552,-215.542 546.176,-224.392 552.966,-226.092"/>
</g>
<!-- ST -->
<g id="node3" class="node"><title>ST</title>
<ellipse fill="none" stroke="black" cx="349.243" cy="-413.48" rx="38.9931" ry="18"/>
<text text-anchor="middle" x="349.243" y="-409.78" font-family="Hershey-Noailles-help-me" font-size="14.00">start()</text>
</g>
<!-- SU&#45;&gt;ST -->
<g id="edge2" class="edge"><title>SU&#45;&gt;ST</title>
<path fill="none" stroke="black" d="M340.209,-467.177C341.531,-459.463 343.121,-450.193 344.595,-441.593"/>
<polygon fill="black" stroke="black" points="348.071,-442.032 346.311,-431.585 341.171,-440.849 348.071,-442.032"/>
</g>
<!-- MW -->
<g id="node10" class="node"><title>MW</title>
<ellipse fill="none" stroke="black" cx="247.243" cy="-18" rx="43.5923" ry="18"/>
<text text-anchor="middle" x="247.243" y="-14.3" font-family="Hershey-Noailles-help-me" font-size="14.00">While()</text>
</g>
<!-- SU&#45;&gt;MW -->
<g id="edge14" class="edge"><title>SU&#45;&gt;MW</title>
<path fill="none" stroke="black" d="M306.921,-463.776C274.667,-439.034 228.243,-394.403 228.243,-342.48 228.243,-342.48 228.243,-342.48 228.243,-187.61 228.243,-137.372 236.675,-79.2401 242.305,-46.0277"/>
<polygon fill="black" stroke="black" points="305.072,-466.763 315.185,-469.923 309.251,-461.146 305.072,-466.763"/>
<polygon fill="black" stroke="black" points="245.755,-46.6134 244.02,-36.1617 238.859,-45.4145 245.755,-46.6134"/>
</g>
<!-- DiC -->
<g id="node4" class="node"><title>DiC</title>
<ellipse fill="none" stroke="black" cx="349.243" cy="-341.48" rx="92.8835" ry="18"/>
<text text-anchor="middle" x="349.243" y="-337.78" font-family="Hershey-Noailles-help-me" font-size="14.00">Discussion in class</text>
</g>
<!-- ST&#45;&gt;DiC -->
<g id="edge4" class="edge"><title>ST&#45;&gt;DiC</title>
<path fill="none" stroke="black" d="M349.243,-395.177C349.243,-387.463 349.243,-378.193 349.243,-369.593"/>
<polygon fill="black" stroke="black" points="352.743,-369.585 349.243,-359.585 345.743,-369.585 352.743,-369.585"/>
</g>
<!-- FC -->
<g id="node6" class="node"><title>FC</title>
<ellipse fill="none" stroke="black" cx="393.243" cy="-269.48" rx="59.5901" ry="18"/>
<text text-anchor="middle" x="393.243" y="-265.78" font-family="Hershey-Noailles-help-me" font-size="14.00">Flowcharts</text>
</g>
<!-- ST&#45;&gt;FC -->
<g id="edge6" class="edge"><title>ST&#45;&gt;FC</title>
<path fill="none" stroke="black" d="M383.657,-404.563C407.177,-397.166 436.636,-383.53 451.243,-359.48 459.548,-345.805 457.697,-338.121 451.243,-323.48 445.859,-311.268 436.118,-300.649 426.137,-292.189"/>
<polygon fill="black" stroke="black" points="428.174,-289.337 418.16,-285.878 423.831,-294.827 428.174,-289.337"/>
</g>
<!-- DiC&#45;&gt;FC -->
<g id="edge5" class="edge"><title>DiC&#45;&gt;FC</title>
<path fill="none" stroke="black" d="M359.894,-323.535C365.082,-315.281 371.43,-305.182 377.19,-296.018"/>
<polygon fill="black" stroke="black" points="380.331,-297.598 382.69,-287.269 374.405,-293.873 380.331,-297.598"/>
</g>
<!-- EiC -->
<g id="node5" class="node"><title>EiC</title>
<ellipse fill="none" stroke="black" cx="393.243" cy="-188.61" rx="82.5854" ry="18"/>
<text text-anchor="middle" x="393.243" y="-184.91" font-family="Hershey-Noailles-help-me" font-size="14.00">Exercise in class</text>
</g>
<!-- EiC1 -->
<g id="node7" class="node"><title>EiC1</title>
<ellipse fill="none" stroke="black" cx="600.243" cy="-98.8701" rx="55.7903" ry="18"/>
<text text-anchor="middle" x="600.243" y="-95.1701" font-family="Hershey-Noailles-help-me" font-size="14.00">Exercise 1</text>
</g>
<!-- EiC&#45;&gt;EiC1 -->
<g id="edge8" class="edge"><title>EiC&#45;&gt;EiC1</title>
<path fill="none" stroke="black" d="M429.299,-172.327C465.286,-157.074 520.539,-133.654 558.428,-117.594"/>
<polygon fill="black" stroke="black" points="559.823,-120.804 567.664,-113.679 557.091,-114.359 559.823,-120.804"/>
</g>
<!-- AM -->
<g id="node9" class="node"><title>AM</title>
<ellipse fill="none" stroke="black" cx="410.243" cy="-98.8701" rx="115.931" ry="26.7407"/>
<text text-anchor="middle" x="410.243" y="-102.67" font-family="Hershey-Noailles-help-me" font-size="14.00">Flowcharts</text>
<text text-anchor="middle" x="410.243" y="-87.6701" font-family="Hershey-Noailles-help-me" font-size="14.00">as an artistic medium</text>
</g>
<!-- EiC&#45;&gt;AM -->
<g id="edge10" class="edge"><title>EiC&#45;&gt;AM</title>
<path fill="none" stroke="black" d="M396.601,-170.276C398.502,-160.464 400.953,-147.817 403.251,-135.954"/>
<polygon fill="black" stroke="black" points="406.748,-136.305 405.214,-125.822 399.876,-134.974 406.748,-136.305"/>
</g>
<!-- FC&#45;&gt;EiC -->
<g id="edge7" class="edge"><title>FC&#45;&gt;EiC</title>
<path fill="none" stroke="black" d="M393.243,-251.367C393.243,-241.341 393.243,-228.446 393.243,-217.035"/>
<polygon fill="black" stroke="black" points="396.743,-216.69 393.243,-206.69 389.743,-216.69 396.743,-216.69"/>
</g>
<!-- FC&#45;&gt;MX -->
<g id="edge18" class="edge"><title>FC&#45;&gt;MX</title>
<path fill="none" stroke="black" d="M424.077,-253.83C447.748,-242.584 480.939,-226.814 508.506,-213.716"/>
<polygon fill="black" stroke="black" points="510.087,-216.84 517.618,-209.387 507.083,-210.517 510.087,-216.84"/>
</g>
<!-- EiC2 -->
<g id="node8" class="node"><title>EiC2</title>
<ellipse fill="none" stroke="black" cx="600.243" cy="-18" rx="55.7903" ry="18"/>
<text text-anchor="middle" x="600.243" y="-14.3" font-family="Hershey-Noailles-help-me" font-size="14.00">Exercise 2</text>
</g>
<!-- EiC1&#45;&gt;EiC2 -->
<g id="edge9" class="edge"><title>EiC1&#45;&gt;EiC2</title>
<path fill="none" stroke="black" d="M600.243,-80.7564C600.243,-70.7312 600.243,-57.8362 600.243,-46.4246"/>
<polygon fill="black" stroke="black" points="603.743,-46.0802 600.243,-36.0802 596.743,-46.0803 603.743,-46.0802"/>
</g>
<!-- AM&#45;&gt;MW -->
<g id="edge11" class="edge"><title>AM&#45;&gt;MW</title>
<path fill="none" stroke="black" d="M361.779,-74.42C336.705,-62.2876 306.609,-47.7254 283.561,-36.5734"/>
<polygon fill="black" stroke="black" points="284.994,-33.3784 274.468,-32.1733 281.945,-39.6795 284.994,-33.3784"/>
</g>
<!-- MW&#45;&gt;FC -->
<g id="edge13" class="edge"><title>MW&#45;&gt;FC</title>
<path fill="none" stroke="black" d="M248.31,-46.1556C251.21,-86.9331 261.913,-164.613 301.243,-215.48 313.039,-230.737 330.56,-242.376 347.156,-250.805"/>
<polygon fill="black" stroke="black" points="251.802,-45.9235 247.705,-36.1533 244.815,-46.3465 251.802,-45.9235"/>
<polygon fill="black" stroke="black" points="345.708,-253.993 356.239,-255.161 348.735,-247.681 345.708,-253.993"/>
</g>
<!-- Notes -->
<g id="node14" class="node"><title>Notes</title>
<ellipse fill="none" stroke="black" cx="345.243" cy="-18" rx="36.2938" ry="18"/>
<text text-anchor="middle" x="345.243" y="-14.3" font-family="Hershey-Noailles-help-me" font-size="14.00">Notes</text>
</g>
<!-- MW&#45;&gt;Notes -->
<g id="edge12" class="edge"><title>MW&#45;&gt;Notes</title>
<path fill="none" stroke="black" d="M290.883,-18C293.485,-18 296.086,-18 298.687,-18"/>
<polygon fill="black" stroke="black" points="298.72,-21.5001 308.72,-18 298.72,-14.5001 298.72,-21.5001"/>
</g>
<!-- RR -->
<g id="node12" class="node"><title>RR</title>
<ellipse fill="none" stroke="black" cx="190.243" cy="-485.48" rx="87.1846" ry="18"/>
<text text-anchor="middle" x="190.243" y="-481.78" font-family="Hershey-Noailles-help-me" font-size="14.00">Required reading</text>
</g>
<!-- RR&#45;&gt;GS -->
<g id="edge15" class="edge"><title>RR&#45;&gt;GS</title>
<path fill="none" stroke="black" d="M223.318,-502.23C243.607,-511.892 269.86,-524.393 292.05,-534.96"/>
<polygon fill="black" stroke="black" points="290.749,-538.217 301.283,-539.356 293.759,-531.897 290.749,-538.217"/>
</g>
<!-- RR&#45;&gt;SU -->
<g id="edge16" class="edge"><title>RR&#45;&gt;SU</title>
<path fill="none" stroke="black" d="M277.524,-485.48C279.862,-485.48 282.199,-485.48 284.537,-485.48"/>
<polygon fill="black" stroke="black" points="284.787,-488.98 294.786,-485.48 284.786,-481.98 284.787,-488.98"/>
</g>
<!-- RR&#45;&gt;MW -->
<g id="edge17" class="edge"><title>RR&#45;&gt;MW</title>
<path fill="none" stroke="black" d="M190.243,-467.431C190.243,-440.772 190.243,-387.595 190.243,-342.48 190.243,-342.48 190.243,-342.48 190.243,-187.61 190.243,-135.132 194.739,-120.719 214.243,-72 218.13,-62.291 223.774,-52.3719 229.299,-43.7803"/>
<polygon fill="black" stroke="black" points="232.275,-45.6273 234.935,-35.3719 226.46,-41.7298 232.275,-45.6273"/>
</g>
<!-- FR -->
<g id="node13" class="node"><title>FR</title>
<ellipse fill="none" stroke="black" cx="81.2428" cy="-413.48" rx="81.4863" ry="18"/>
<text text-anchor="middle" x="81.2428" y="-409.78" font-family="Hershey-Noailles-help-me" font-size="14.00">Further reading</text>
</g>
<!-- RR&#45;&gt;FR -->
<g id="edge19" class="edge"><title>RR&#45;&gt;FR</title>
<path fill="none" stroke="black" d="M164.962,-468.245C150.104,-458.703 131.133,-446.52 115.008,-436.164"/>
<polygon fill="black" stroke="black" points="116.692,-433.086 106.386,-430.628 112.909,-438.976 116.692,-433.086"/>
</g>
</g>
</svg>
