<?xml version="1.0" encoding="UTF-8" standalone="no"?>
<!DOCTYPE svg PUBLIC "-//W3C//DTD SVG 1.1//EN"
 "http://www.w3.org/Graphics/SVG/1.1/DTD/svg11.dtd">
<!-- Generated by graphviz version 2.38.0 (20140413.2041)
 -->
<!-- Title: G Pages: 1 -->
<svg width="554pt" height="439pt"
 viewBox="0.00 0.00 554.00 439.48" xmlns="http://www.w3.org/2000/svg" xmlns:xlink="http://www.w3.org/1999/xlink">
<g id="graph0" class="graph" transform="scale(1 1) rotate(0) translate(4 435.48)">
<title>G</title>
<polygon fill="white" stroke="none" points="-4,4 -4,-435.48 549.996,-435.48 549.996,4 -4,4"/>
<!-- GS -->
<g id="node1" class="node"><title>GS</title>
<polygon fill="none" stroke="black" points="235.554,-431.48 42.5538,-431.48 42.5538,-395.48 235.554,-395.48 235.554,-431.48"/>
<text text-anchor="middle" x="139.054" y="-409.78" font-family="Hershey-Noailles-help-me" font-size="14.00">9. Algorithmic procedures</text>
</g>
<!-- SU -->
<g id="node2" class="node"><title>SU</title>
<ellipse fill="none" stroke="black" cx="286.054" cy="-341.48" rx="42.4939" ry="18"/>
<text text-anchor="middle" x="286.054" y="-337.78" font-family="Hershey-Noailles-help-me" font-size="14.00">setup()</text>
</g>
<!-- GS&#45;&gt;SU -->
<g id="edge1" class="edge"><title>GS&#45;&gt;SU</title>
<path fill="none" stroke="black" d="M175.014,-395.356C197.624,-384.59 226.711,-370.738 249.444,-359.914"/>
<polygon fill="black" stroke="black" points="251.236,-362.937 258.76,-355.478 248.226,-356.617 251.236,-362.937"/>
</g>
<!-- MX -->
<g id="node10" class="node"><title>MX</title>
<ellipse fill="none" stroke="black" cx="65.0538" cy="-116.61" rx="65.1077" ry="26.7407"/>
<text text-anchor="middle" x="65.0538" y="-120.41" font-family="Hershey-Noailles-help-me" font-size="14.00">MiniX: </text>
<text text-anchor="middle" x="65.0538" y="-105.41" font-family="Hershey-Noailles-help-me" font-size="14.00">Flowcharts</text>
</g>
<!-- GS&#45;&gt;MX -->
<g id="edge3" class="edge"><title>GS&#45;&gt;MX</title>
<path fill="none" stroke="black" d="M85.8296,-395.443C69.1609,-387.315 52.6335,-375.712 43.0538,-359.48 4.77915,-294.629 30.6149,-202.547 49.7381,-152.79"/>
<polygon fill="black" stroke="black" points="53.0195,-154.01 53.4522,-143.424 46.5124,-151.429 53.0195,-154.01"/>
</g>
<!-- ST -->
<g id="node3" class="node"><title>ST</title>
<ellipse fill="none" stroke="black" cx="377.054" cy="-269.48" rx="38.9931" ry="18"/>
<text text-anchor="middle" x="377.054" y="-265.78" font-family="Hershey-Noailles-help-me" font-size="14.00">start()</text>
</g>
<!-- SU&#45;&gt;ST -->
<g id="edge2" class="edge"><title>SU&#45;&gt;ST</title>
<path fill="none" stroke="black" d="M305.799,-325.291C318.646,-315.409 335.578,-302.385 349.712,-291.512"/>
<polygon fill="black" stroke="black" points="351.867,-294.27 357.659,-285.399 347.599,-288.722 351.867,-294.27"/>
</g>
<!-- MW -->
<g id="node9" class="node"><title>MW</title>
<ellipse fill="none" stroke="black" cx="276.054" cy="-269.48" rx="43.5923" ry="18"/>
<text text-anchor="middle" x="276.054" y="-265.78" font-family="Hershey-Noailles-help-me" font-size="14.00">While()</text>
</g>
<!-- SU&#45;&gt;MW -->
<g id="edge11" class="edge"><title>SU&#45;&gt;MW</title>
<path fill="none" stroke="black" d="M282.149,-313.145C281.418,-308.032 280.655,-302.69 279.926,-297.584"/>
<polygon fill="black" stroke="black" points="278.703,-313.772 283.582,-323.177 285.632,-312.782 278.703,-313.772"/>
<polygon fill="black" stroke="black" points="283.376,-296.989 278.497,-287.585 276.447,-297.979 283.376,-296.989"/>
</g>
<!-- DiC -->
<g id="node4" class="node"><title>DiC</title>
<ellipse fill="none" stroke="black" cx="453.054" cy="-197.48" rx="92.8835" ry="18"/>
<text text-anchor="middle" x="453.054" y="-193.78" font-family="Hershey-Noailles-help-me" font-size="14.00">Discussion in class</text>
</g>
<!-- ST&#45;&gt;DiC -->
<g id="edge4" class="edge"><title>ST&#45;&gt;DiC</title>
<path fill="none" stroke="black" d="M393.921,-252.945C403.798,-243.847 416.469,-232.176 427.547,-221.973"/>
<polygon fill="black" stroke="black" points="429.923,-224.543 434.907,-215.194 425.181,-219.395 429.923,-224.543"/>
</g>
<!-- FC -->
<g id="node6" class="node"><title>FC</title>
<ellipse fill="none" stroke="black" cx="276.054" cy="-197.48" rx="59.5901" ry="18"/>
<text text-anchor="middle" x="276.054" y="-193.78" font-family="Hershey-Noailles-help-me" font-size="14.00">Flowcharts</text>
</g>
<!-- ST&#45;&gt;FC -->
<g id="edge6" class="edge"><title>ST&#45;&gt;FC</title>
<path fill="none" stroke="black" d="M356.127,-253.976C341.988,-244.177 323.076,-231.07 307.181,-220.053"/>
<polygon fill="black" stroke="black" points="308.923,-217.003 298.71,-214.183 304.936,-222.756 308.923,-217.003"/>
</g>
<!-- EiC -->
<g id="node5" class="node"><title>EiC</title>
<ellipse fill="none" stroke="black" cx="456.054" cy="-116.61" rx="82.5854" ry="18"/>
<text text-anchor="middle" x="456.054" y="-112.91" font-family="Hershey-Noailles-help-me" font-size="14.00">Exercise in class</text>
</g>
<!-- DiC&#45;&gt;EiC -->
<g id="edge5" class="edge"><title>DiC&#45;&gt;EiC</title>
<path fill="none" stroke="black" d="M453.705,-179.367C454.086,-169.341 454.577,-156.446 455.011,-145.035"/>
<polygon fill="black" stroke="black" points="458.521,-144.816 455.404,-134.69 451.526,-144.55 458.521,-144.816"/>
</g>
<!-- EiC1 -->
<g id="node7" class="node"><title>EiC1</title>
<ellipse fill="none" stroke="black" cx="273.054" cy="-116.61" rx="82.5854" ry="18"/>
<text text-anchor="middle" x="273.054" y="-112.91" font-family="Hershey-Noailles-help-me" font-size="14.00">Exercise in class</text>
</g>
<!-- FC&#45;&gt;EiC1 -->
<g id="edge7" class="edge"><title>FC&#45;&gt;EiC1</title>
<path fill="none" stroke="black" d="M275.403,-179.367C275.022,-169.341 274.531,-156.446 274.097,-145.035"/>
<polygon fill="black" stroke="black" points="277.581,-144.55 273.704,-134.69 270.586,-144.816 277.581,-144.55"/>
</g>
<!-- FC&#45;&gt;MX -->
<g id="edge15" class="edge"><title>FC&#45;&gt;MX</title>
<path fill="none" stroke="black" d="M239.782,-182.922C207.441,-170.833 159.561,-152.936 122.097,-138.932"/>
<polygon fill="black" stroke="black" points="122.914,-135.501 112.321,-135.278 120.463,-142.058 122.914,-135.501"/>
</g>
<!-- AM -->
<g id="node8" class="node"><title>AM</title>
<ellipse fill="none" stroke="black" cx="273.054" cy="-26.8701" rx="115.931" ry="26.7407"/>
<text text-anchor="middle" x="273.054" y="-30.6701" font-family="Hershey-Noailles-help-me" font-size="14.00">Flowcharts</text>
<text text-anchor="middle" x="273.054" y="-15.6701" font-family="Hershey-Noailles-help-me" font-size="14.00">as an artistic medium</text>
</g>
<!-- EiC1&#45;&gt;AM -->
<g id="edge8" class="edge"><title>EiC1&#45;&gt;AM</title>
<path fill="none" stroke="black" d="M273.054,-98.2755C273.054,-88.4643 273.054,-75.8168 273.054,-63.9541"/>
<polygon fill="black" stroke="black" points="276.554,-63.8222 273.054,-53.8222 269.554,-63.8222 276.554,-63.8222"/>
</g>
<!-- MW&#45;&gt;FC -->
<g id="edge10" class="edge"><title>MW&#45;&gt;FC</title>
<path fill="none" stroke="black" d="M276.054,-241.145C276.054,-236.167 276.054,-230.971 276.054,-225.987"/>
<polygon fill="black" stroke="black" points="272.554,-241.177 276.054,-251.177 279.554,-241.177 272.554,-241.177"/>
<polygon fill="black" stroke="black" points="279.554,-225.585 276.054,-215.585 272.554,-225.585 279.554,-225.585"/>
</g>
<!-- Notes -->
<g id="node13" class="node"><title>Notes</title>
<ellipse fill="none" stroke="black" cx="162.054" cy="-197.48" rx="36.2938" ry="18"/>
<text text-anchor="middle" x="162.054" y="-193.78" font-family="Hershey-Noailles-help-me" font-size="14.00">Notes</text>
</g>
<!-- MW&#45;&gt;Notes -->
<g id="edge9" class="edge"><title>MW&#45;&gt;Notes</title>
<path fill="none" stroke="black" d="M252.709,-254.146C235.389,-243.51 211.609,-228.909 192.75,-217.329"/>
<polygon fill="black" stroke="black" points="194.558,-214.332 184.205,-212.082 190.896,-220.297 194.558,-214.332"/>
</g>
<!-- RR -->
<g id="node11" class="node"><title>RR</title>
<ellipse fill="none" stroke="black" cx="139.054" cy="-341.48" rx="87.1846" ry="18"/>
<text text-anchor="middle" x="139.054" y="-337.78" font-family="Hershey-Noailles-help-me" font-size="14.00">Required reading</text>
</g>
<!-- RR&#45;&gt;GS -->
<g id="edge12" class="edge"><title>RR&#45;&gt;GS</title>
<path fill="none" stroke="black" d="M139.054,-359.585C139.054,-367.271 139.054,-376.534 139.054,-385.145"/>
<polygon fill="black" stroke="black" points="135.554,-385.177 139.054,-395.177 142.554,-385.177 135.554,-385.177"/>
</g>
<!-- RR&#45;&gt;SU -->
<g id="edge13" class="edge"><title>RR&#45;&gt;SU</title>
<path fill="none" stroke="black" d="M226.335,-341.48C228.673,-341.48 231.01,-341.48 233.348,-341.48"/>
<polygon fill="black" stroke="black" points="233.598,-344.98 243.598,-341.48 233.597,-337.98 233.598,-344.98"/>
</g>
<!-- RR&#45;&gt;MW -->
<g id="edge14" class="edge"><title>RR&#45;&gt;MW</title>
<path fill="none" stroke="black" d="M170.141,-324.596C191.141,-313.866 218.908,-299.679 240.742,-288.523"/>
<polygon fill="black" stroke="black" points="242.387,-291.613 249.7,-283.946 239.202,-285.379 242.387,-291.613"/>
</g>
<!-- FR -->
<g id="node12" class="node"><title>FR</title>
<ellipse fill="none" stroke="black" cx="133.054" cy="-269.48" rx="81.4863" ry="18"/>
<text text-anchor="middle" x="133.054" y="-265.78" font-family="Hershey-Noailles-help-me" font-size="14.00">Further reading</text>
</g>
<!-- RR&#45;&gt;FR -->
<g id="edge16" class="edge"><title>RR&#45;&gt;FR</title>
<path fill="none" stroke="black" d="M137.571,-323.177C136.909,-315.463 136.115,-306.193 135.378,-297.593"/>
<polygon fill="black" stroke="black" points="138.861,-297.249 134.52,-287.585 131.887,-297.847 138.861,-297.249"/>
</g>
</g>
</svg>
