<?xml version="1.0" encoding="UTF-8" standalone="no"?>
<!DOCTYPE svg PUBLIC "-//W3C//DTD SVG 1.1//EN"
 "http://www.w3.org/Graphics/SVG/1.1/DTD/svg11.dtd">
<!-- Generated by graphviz version 2.38.0 (20140413.2041)
 -->
<!-- Title: D Pages: 1 -->
<svg width="485pt" height="278pt"
 viewBox="0.00 0.00 484.70 278.00" xmlns="http://www.w3.org/2000/svg" xmlns:xlink="http://www.w3.org/1999/xlink">
<g id="graph0" class="graph" transform="scale(1 1) rotate(0) translate(4 274)">
<title>D</title>
<polygon fill="white" stroke="none" points="-4,4 -4,-274 480.696,-274 480.696,4 -4,4"/>
<!-- A -->
<g id="node1" class="node"><title>A</title>
<ellipse fill="lightgrey" stroke="lightgrey" cx="25.9977" cy="-217" rx="25.9954" ry="25.9954"/>
<text text-anchor="middle" x="25.9977" y="-213.3" font-family="Times,serif" font-size="14.00">start</text>
</g>
<!-- B -->
<g id="node2" class="node"><title>B</title>
<polygon fill="none" stroke="black" points="178.498,-236 69.4977,-236 69.4977,-198 178.498,-198 178.498,-236"/>
<text text-anchor="middle" x="123.998" y="-220.8" font-family="Times,serif" font-size="14.00">initialize a list of</text>
<text text-anchor="middle" x="123.998" y="-205.8" font-family="Times,serif" font-size="14.00"> emojis </text>
</g>
<!-- A&#45;&gt;B -->
<g id="edge1" class="edge"><title>A&#45;&gt;B</title>
<path fill="none" stroke="black" d="M52.0289,-217C54.48,-217 56.9311,-217 59.3822,-217"/>
<polygon fill="black" stroke="black" points="59.4589,-220.5 69.4589,-217 59.4588,-213.5 59.4589,-220.5"/>
</g>
<!-- G -->
<g id="node7" class="node"><title>G</title>
</g>
<!-- B&#45;&gt;G -->
<g id="edge2" class="edge"><title>B&#45;&gt;G</title>
<path fill="none" stroke="black" d="M178.748,-217C184.641,-217 190.534,-217 196.427,-217"/>
</g>
<!-- C -->
<g id="node3" class="node"><title>C</title>
<polygon fill="none" stroke="black" points="301.998,-270 215.998,-217 301.998,-164 387.998,-217 301.998,-270"/>
<text text-anchor="middle" x="301.998" y="-228.3" font-family="Times,serif" font-size="14.00">loop through</text>
<text text-anchor="middle" x="301.998" y="-213.3" font-family="Times,serif" font-size="14.00"> each emoji:</text>
<text text-anchor="middle" x="301.998" y="-198.3" font-family="Times,serif" font-size="14.00"> Finish?</text>
</g>
<!-- D -->
<g id="node4" class="node"><title>D</title>
<ellipse fill="lightgrey" stroke="lightgrey" cx="451.998" cy="-217" rx="24.8972" ry="24.8972"/>
<text text-anchor="middle" x="451.998" y="-213.3" font-family="Times,serif" font-size="14.00">End</text>
</g>
<!-- C&#45;&gt;D -->
<g id="edge4" class="edge"><title>C&#45;&gt;D</title>
<path fill="none" stroke="black" d="M388.384,-217C398.478,-217 408.289,-217 417.065,-217"/>
<polygon fill="black" stroke="black" points="417.205,-220.5 427.205,-217 417.205,-213.5 417.205,-220.5"/>
<text text-anchor="middle" x="407.649" y="-223.8" font-family="Times,serif" font-size="14.00">Yes</text>
</g>
<!-- E -->
<g id="node5" class="node"><title>E</title>
<polygon fill="none" stroke="black" points="373.998,-113 227.998,-113 227.998,-75 373.998,-75 373.998,-113"/>
<text text-anchor="middle" x="300.998" y="-97.8" font-family="Times,serif" font-size="14.00">print/log the emoji</text>
<text text-anchor="middle" x="300.998" y="-82.8" font-family="Times,serif" font-size="14.00"> (on the console screen)</text>
</g>
<!-- C&#45;&gt;E -->
<g id="edge5" class="edge"><title>C&#45;&gt;E</title>
<path fill="none" stroke="black" d="M301.568,-163.983C301.453,-150.055 301.333,-135.516 301.232,-123.396"/>
<polygon fill="black" stroke="black" points="304.729,-123.004 301.147,-113.033 297.73,-123.062 304.729,-123.004"/>
<text text-anchor="middle" x="313.498" y="-134.8" font-family="Times,serif" font-size="14.00"> &#160;No</text>
</g>
<!-- F -->
<g id="node6" class="node"><title>F</title>
<polygon fill="none" stroke="black" points="267.498,-38 192.498,-38 192.498,-0 267.498,-0 267.498,-38"/>
<text text-anchor="middle" x="229.998" y="-22.8" font-family="Times,serif" font-size="14.00">Go to the</text>
<text text-anchor="middle" x="229.998" y="-7.8" font-family="Times,serif" font-size="14.00">next emoji</text>
</g>
<!-- E&#45;&gt;F -->
<g id="edge6" class="edge"><title>E&#45;&gt;F</title>
<path fill="none" stroke="black" d="M283.447,-74.9551C274.743,-66.0054 264.084,-55.047 254.582,-45.2769"/>
<polygon fill="black" stroke="black" points="257.074,-42.8187 247.592,-38.0904 252.056,-47.6992 257.074,-42.8187"/>
</g>
<!-- F&#45;&gt;G -->
<g id="edge7" class="edge"><title>F&#45;&gt;G</title>
<path fill="none" stroke="black" d="M226.135,-38.2964C223.931,-48.9785 221.181,-62.7285 218.998,-75 210.282,-123.983 201.703,-182.879 198.409,-205.996"/>
<polygon fill="black" stroke="black" points="194.937,-205.552 197.006,-215.943 201.868,-206.53 194.937,-205.552"/>
</g>
<!-- G&#45;&gt;C -->
<g id="edge3" class="edge"><title>G&#45;&gt;C</title>
<path fill="none" stroke="black" d="M197.818,-217C200.429,-217 203.041,-217 205.652,-217"/>
<polygon fill="black" stroke="black" points="205.724,-220.5 215.724,-217 205.724,-213.5 205.724,-220.5"/>
</g>
</g>
</svg>
