<?xml version="1.0" encoding="UTF-8" standalone="no"?>
<!DOCTYPE svg PUBLIC "-//W3C//DTD SVG 1.1//EN"
 "http://www.w3.org/Graphics/SVG/1.1/DTD/svg11.dtd">
<!-- Generated by graphviz version 2.38.0 (20140413.2041)
 -->
<!-- Title: D Pages: 1 -->
<svg width="331pt" height="442pt"
 viewBox="0.00 0.00 330.70 442.00" xmlns="http://www.w3.org/2000/svg" xmlns:xlink="http://www.w3.org/1999/xlink">
<g id="graph0" class="graph" transform="scale(1 1) rotate(0) translate(4 437.995)">
<title>D</title>
<polygon fill="white" stroke="none" points="-4,4 -4,-437.995 326.698,-437.995 326.698,4 -4,4"/>
<!-- A -->
<g id="node1" class="node"><title>A</title>
<ellipse fill="lightgrey" stroke="lightgrey" cx="148" cy="-407.998" rx="25.9954" ry="25.9954"/>
<text text-anchor="middle" x="148" y="-404.298" font-family="Times,serif" font-size="14.00">start</text>
</g>
<!-- B -->
<g id="node2" class="node"><title>B</title>
<polygon fill="none" stroke="black" points="202.5,-345 93.5,-345 93.5,-307 202.5,-307 202.5,-345"/>
<text text-anchor="middle" x="148" y="-329.8" font-family="Times,serif" font-size="14.00">initialize a list of</text>
<text text-anchor="middle" x="148" y="-314.8" font-family="Times,serif" font-size="14.00"> emojis </text>
</g>
<!-- A&#45;&gt;B -->
<g id="edge1" class="edge"><title>A&#45;&gt;B</title>
<path fill="none" stroke="black" d="M148,-381.686C148,-373.225 148,-363.745 148,-355.086"/>
<polygon fill="black" stroke="black" points="151.5,-355.053 148,-345.053 144.5,-355.053 151.5,-355.053"/>
</g>
<!-- C -->
<g id="node3" class="node"><title>C</title>
<polygon fill="none" stroke="black" points="148,-270 62,-217 148,-164 234,-217 148,-270"/>
<text text-anchor="middle" x="148" y="-228.3" font-family="Times,serif" font-size="14.00">loop through</text>
<text text-anchor="middle" x="148" y="-213.3" font-family="Times,serif" font-size="14.00"> each emoji:</text>
<text text-anchor="middle" x="148" y="-198.3" font-family="Times,serif" font-size="14.00"> Finish?</text>
</g>
<!-- B&#45;&gt;C -->
<g id="edge2" class="edge"><title>B&#45;&gt;C</title>
<path fill="none" stroke="black" d="M148,-306.849C148,-299.326 148,-290.115 148,-280.505"/>
<polygon fill="black" stroke="black" points="151.5,-280.4 148,-270.4 144.5,-280.4 151.5,-280.4"/>
</g>
<!-- D -->
<g id="node4" class="node"><title>D</title>
<ellipse fill="lightgrey" stroke="lightgrey" cx="298" cy="-217" rx="24.8972" ry="24.8972"/>
<text text-anchor="middle" x="298" y="-213.3" font-family="Times,serif" font-size="14.00">End</text>
</g>
<!-- C&#45;&gt;D -->
<g id="edge3" class="edge"><title>C&#45;&gt;D</title>
<path fill="none" stroke="black" d="M234.386,-217C244.48,-217 254.291,-217 263.067,-217"/>
<polygon fill="black" stroke="black" points="263.207,-220.5 273.207,-217 263.207,-213.5 263.207,-220.5"/>
<text text-anchor="middle" x="253.651" y="-223.8" font-family="Times,serif" font-size="14.00">Yes</text>
</g>
<!-- E -->
<g id="node5" class="node"><title>E</title>
<polygon fill="none" stroke="black" points="146,-113 0,-113 0,-75 146,-75 146,-113"/>
<text text-anchor="middle" x="73" y="-97.8" font-family="Times,serif" font-size="14.00">print/log the emoji</text>
<text text-anchor="middle" x="73" y="-82.8" font-family="Times,serif" font-size="14.00"> (on the console screen)</text>
</g>
<!-- C&#45;&gt;E -->
<g id="edge4" class="edge"><title>C&#45;&gt;E</title>
<path fill="none" stroke="black" d="M124.475,-178.047C113.166,-159.802 99.8786,-138.364 89.6365,-121.84"/>
<polygon fill="black" stroke="black" points="92.535,-119.873 84.2917,-113.217 86.5852,-123.561 92.535,-119.873"/>
<text text-anchor="middle" x="112.5" y="-134.8" font-family="Times,serif" font-size="14.00">No</text>
</g>
<!-- F -->
<g id="node6" class="node"><title>F</title>
<polygon fill="none" stroke="black" points="179.5,-38 104.5,-38 104.5,-0 179.5,-0 179.5,-38"/>
<text text-anchor="middle" x="142" y="-22.8" font-family="Times,serif" font-size="14.00">Go to the</text>
<text text-anchor="middle" x="142" y="-7.8" font-family="Times,serif" font-size="14.00">next emoji</text>
</g>
<!-- E&#45;&gt;F -->
<g id="edge5" class="edge"><title>E&#45;&gt;F</title>
<path fill="none" stroke="black" d="M90.0562,-74.9551C98.4325,-66.0932 108.67,-55.2616 117.836,-45.5646"/>
<polygon fill="black" stroke="black" points="120.575,-47.762 124.901,-38.0904 115.488,-42.9535 120.575,-47.762"/>
</g>
<!-- F&#45;&gt;C -->
<g id="edge6" class="edge"><title>F&#45;&gt;C</title>
<path fill="none" stroke="black" d="M147.409,-38.1441C150.296,-48.7755 153.546,-62.5255 155,-75 158.143,-101.96 157.257,-131.98 155.239,-157.368"/>
<polygon fill="black" stroke="black" points="151.731,-157.311 154.348,-167.578 158.704,-157.92 151.731,-157.311"/>
</g>
</g>
</svg>
