<?xml version="1.0" encoding="UTF-8" standalone="no"?>
<!DOCTYPE svg PUBLIC "-//W3C//DTD SVG 1.1//EN"
 "http://www.w3.org/Graphics/SVG/1.1/DTD/svg11.dtd">
<!-- Generated by graphviz version 2.38.0 (20140413.2041)
 -->
<!-- Title: G Pages: 1 -->
<svg width="622pt" height="692pt"
 viewBox="0.00 0.00 622.41 692.48" xmlns="http://www.w3.org/2000/svg" xmlns:xlink="http://www.w3.org/1999/xlink">
<g id="graph0" class="graph" transform="scale(1 1) rotate(0) translate(4 688.48)">
<title>G</title>
<polygon fill="white" stroke="none" points="-4,4 -4,-688.48 618.406,-688.48 618.406,4 -4,4"/>
<!-- GS -->
<g id="node1" class="node"><title>GS</title>
<polygon fill="none" stroke="black" points="216.918,-684.48 37.9178,-684.48 37.9178,-648.48 216.918,-648.48 216.918,-684.48"/>
<text text-anchor="middle" x="127.418" y="-662.78" font-family="Hershey-Noailles-help-me" font-size="14.00">10. Machine unlearning</text>
</g>
<!-- SU -->
<g id="node2" class="node"><title>SU</title>
<ellipse fill="none" stroke="black" cx="274.418" cy="-557.48" rx="42.4939" ry="18"/>
<text text-anchor="middle" x="274.418" y="-553.78" font-family="Hershey-Noailles-help-me" font-size="14.00">setup()</text>
</g>
<!-- GS&#45;&gt;SU -->
<g id="edge1" class="edge"><title>GS&#45;&gt;SU</title>
<path fill="none" stroke="black" d="M151.036,-648.289C176.779,-629.551 217.978,-599.562 245.604,-579.454"/>
<polygon fill="black" stroke="black" points="247.684,-582.269 253.709,-573.554 243.565,-576.609 247.684,-582.269"/>
</g>
<!-- MX -->
<g id="node12" class="node"><title>MX</title>
<ellipse fill="none" stroke="black" cx="71.4178" cy="-332.61" rx="71.3357" ry="26.7407"/>
<text text-anchor="middle" x="71.4178" y="-336.41" font-family="Hershey-Noailles-help-me" font-size="14.00">MiniX: </text>
<text text-anchor="middle" x="71.4178" y="-321.41" font-family="Hershey-Noailles-help-me" font-size="14.00">Final Project</text>
</g>
<!-- GS&#45;&gt;MX -->
<g id="edge18" class="edge"><title>GS&#45;&gt;MX</title>
<path fill="none" stroke="black" d="M87.8413,-648.395C54.5759,-631.059 12.4178,-600.75 12.4178,-558.48 12.4178,-558.48 12.4178,-558.48 12.4178,-484.48 12.4178,-442.043 32.9151,-397.218 49.7468,-367.564"/>
<polygon fill="black" stroke="black" points="52.805,-369.267 54.826,-358.867 46.7604,-365.737 52.805,-369.267"/>
</g>
<!-- ST -->
<g id="node3" class="node"><title>ST</title>
<ellipse fill="none" stroke="black" cx="259.418" cy="-485.48" rx="38.9931" ry="18"/>
<text text-anchor="middle" x="259.418" y="-481.78" font-family="Hershey-Noailles-help-me" font-size="14.00">start()</text>
</g>
<!-- SU&#45;&gt;ST -->
<g id="edge2" class="edge"><title>SU&#45;&gt;ST</title>
<path fill="none" stroke="black" d="M270.787,-539.535C269.117,-531.741 267.094,-522.302 265.22,-513.559"/>
<polygon fill="black" stroke="black" points="268.637,-512.8 263.12,-503.756 261.793,-514.267 268.637,-512.8"/>
</g>
<!-- IO -->
<g id="node4" class="node"><title>IO</title>
<ellipse fill="none" stroke="black" cx="484.418" cy="-485.48" rx="129.977" ry="18"/>
<text text-anchor="middle" x="484.418" y="-481.78" font-family="Hershey-Noailles-help-me" font-size="14.00">Between input and output</text>
</g>
<!-- SU&#45;&gt;IO -->
<g id="edge3" class="edge"><title>SU&#45;&gt;IO</title>
<path fill="none" stroke="black" d="M306.77,-545.696C338.801,-535.019 388.524,-518.445 427.228,-505.544"/>
<polygon fill="black" stroke="black" points="428.433,-508.831 436.813,-502.349 426.219,-502.191 428.433,-508.831"/>
</g>
<!-- MW -->
<g id="node11" class="node"><title>MW</title>
<ellipse fill="none" stroke="black" cx="259.418" cy="-413.48" rx="43.5923" ry="18"/>
<text text-anchor="middle" x="259.418" y="-409.78" font-family="Hershey-Noailles-help-me" font-size="14.00">While()</text>
</g>
<!-- SU&#45;&gt;MW -->
<g id="edge6" class="edge"><title>SU&#45;&gt;MW</title>
<path fill="none" stroke="black" d="M293.799,-531.707C299.313,-523.232 304.587,-513.381 307.418,-503.48 311.816,-488.097 313.173,-482.409 307.418,-467.48 302.997,-456.013 294.817,-445.489 286.446,-436.893"/>
<polygon fill="black" stroke="black" points="290.881,-529.773 288.058,-539.985 296.633,-533.763 290.881,-529.773"/>
<polygon fill="black" stroke="black" points="288.766,-434.268 279.131,-429.86 283.914,-439.314 288.766,-434.268"/>
</g>
<!-- ST&#45;&gt;MW -->
<g id="edge16" class="edge"><title>ST&#45;&gt;MW</title>
<path fill="none" stroke="black" d="M259.418,-467.177C259.418,-459.463 259.418,-450.193 259.418,-441.593"/>
<polygon fill="black" stroke="black" points="262.918,-441.585 259.418,-431.585 255.918,-441.585 262.918,-441.585"/>
</g>
<!-- EiC -->
<g id="node5" class="node"><title>EiC</title>
<ellipse fill="none" stroke="black" cx="408.418" cy="-413.48" rx="82.5854" ry="18"/>
<text text-anchor="middle" x="408.418" y="-409.78" font-family="Hershey-Noailles-help-me" font-size="14.00">Exercise in class</text>
</g>
<!-- IO&#45;&gt;EiC -->
<g id="edge4" class="edge"><title>IO&#45;&gt;EiC</title>
<path fill="none" stroke="black" d="M466.02,-467.535C456.498,-458.765 444.715,-447.912 434.292,-438.311"/>
<polygon fill="black" stroke="black" points="436.372,-435.47 426.646,-431.269 431.63,-440.618 436.372,-435.47"/>
</g>
<!-- LA -->
<g id="node6" class="node"><title>LA</title>
<ellipse fill="none" stroke="black" cx="411.418" cy="-332.61" rx="100.983" ry="18"/>
<text text-anchor="middle" x="411.418" y="-328.91" font-family="Hershey-Noailles-help-me" font-size="14.00">Learning algorithms</text>
</g>
<!-- IO&#45;&gt;LA -->
<g id="edge11" class="edge"><title>IO&#45;&gt;LA</title>
<path fill="none" stroke="black" d="M493.594,-467.44C502.302,-448.773 512.418,-418.437 500.418,-395.48 491.297,-378.032 474.766,-364.511 458.405,-354.623"/>
<polygon fill="black" stroke="black" points="459.806,-351.393 449.381,-349.501 456.35,-357.481 459.806,-351.393"/>
</g>
<!-- EiC&#45;&gt;LA -->
<g id="edge8" class="edge"><title>EiC&#45;&gt;LA</title>
<path fill="none" stroke="black" d="M409.069,-395.367C409.45,-385.341 409.941,-372.446 410.375,-361.035"/>
<polygon fill="black" stroke="black" points="413.885,-360.816 410.768,-350.69 406.89,-360.55 413.885,-360.816"/>
</g>
<!-- LA&#45;&gt;LA -->
<g id="edge9" class="edge"><title>LA&#45;&gt;LA</title>
<path fill="none" stroke="black" d="M481.922,-347.573C508.36,-348.093 530.159,-343.105 530.159,-332.61 530.159,-322.115 508.36,-317.127 481.922,-317.647"/>
<polygon fill="black" stroke="black" points="481.746,-344.062 471.597,-347.105 481.428,-351.055 481.746,-344.062"/>
<polygon fill="black" stroke="black" points="481.428,-314.166 471.597,-318.116 481.746,-321.158 481.428,-314.166"/>
</g>
<!-- ml5 -->
<g id="node7" class="node"><title>ml5</title>
<ellipse fill="none" stroke="black" cx="411.418" cy="-251.74" rx="68.7879" ry="18"/>
<text text-anchor="middle" x="411.418" y="-248.04" font-family="Hershey-Noailles-help-me" font-size="14.00">ml5.js library</text>
</g>
<!-- LA&#45;&gt;ml5 -->
<g id="edge12" class="edge"><title>LA&#45;&gt;ml5</title>
<path fill="none" stroke="black" d="M411.418,-314.497C411.418,-304.471 411.418,-291.576 411.418,-280.165"/>
<polygon fill="black" stroke="black" points="414.918,-279.82 411.418,-269.82 407.918,-279.82 414.918,-279.82"/>
</g>
<!-- LA&#45;&gt;MW -->
<g id="edge10" class="edge"><title>LA&#45;&gt;MW</title>
<path fill="none" stroke="black" d="M370.995,-354.585C347.217,-366.923 317.439,-382.374 294.628,-394.21"/>
<polygon fill="black" stroke="black" points="372.853,-357.564 380.117,-349.852 369.629,-351.351 372.853,-357.564"/>
<polygon fill="black" stroke="black" points="292.812,-391.21 285.548,-398.922 296.036,-397.423 292.812,-391.21"/>
</g>
<!-- SC -->
<g id="node8" class="node"><title>SC</title>
<ellipse fill="none" stroke="black" cx="458.418" cy="-179.74" rx="64.9885" ry="18"/>
<text text-anchor="middle" x="458.418" y="-176.04" font-family="Hershey-Noailles-help-me" font-size="14.00">Source code</text>
</g>
<!-- ml5&#45;&gt;SC -->
<g id="edge13" class="edge"><title>ml5&#45;&gt;SC</title>
<path fill="none" stroke="black" d="M422.795,-233.795C428.395,-225.455 435.26,-215.231 441.463,-205.992"/>
<polygon fill="black" stroke="black" points="444.477,-207.782 447.145,-197.529 438.665,-203.88 444.477,-207.782"/>
</g>
<!-- RAG -->
<g id="node9" class="node"><title>RAG</title>
<ellipse fill="none" stroke="black" cx="411.418" cy="-98.8701" rx="130.63" ry="26.7407"/>
<text text-anchor="middle" x="411.418" y="-102.67" font-family="Hershey-Noailles-help-me" font-size="14.00">Reading </text>
<text text-anchor="middle" x="411.418" y="-87.6701" font-family="Hershey-Noailles-help-me" font-size="14.00">Auto Chapter Generator</text>
</g>
<!-- ml5&#45;&gt;RAG -->
<g id="edge20" class="edge"><title>ml5&#45;&gt;RAG</title>
<path fill="none" stroke="black" d="M400.232,-233.88C394.253,-223.843 387.503,-210.593 384.418,-197.74 380.683,-182.182 381.149,-177.403 384.418,-161.74 386.279,-152.821 389.5,-143.614 393.083,-135.115"/>
<polygon fill="black" stroke="black" points="396.329,-136.431 397.229,-125.874 389.942,-133.565 396.329,-136.431"/>
</g>
<!-- SC&#45;&gt;RAG -->
<g id="edge14" class="edge"><title>SC&#45;&gt;RAG</title>
<path fill="none" stroke="black" d="M448.219,-161.626C443.473,-153.661 437.647,-143.884 432.042,-134.479"/>
<polygon fill="black" stroke="black" points="434.905,-132.446 426.779,-125.647 428.891,-136.029 434.905,-132.446"/>
</g>
<!-- EiC2 -->
<g id="node10" class="node"><title>EiC2</title>
<ellipse fill="none" stroke="black" cx="411.418" cy="-18" rx="82.5854" ry="18"/>
<text text-anchor="middle" x="411.418" y="-14.3" font-family="Hershey-Noailles-help-me" font-size="14.00">Exercise in class</text>
</g>
<!-- RAG&#45;&gt;EiC2 -->
<g id="edge15" class="edge"><title>RAG&#45;&gt;EiC2</title>
<path fill="none" stroke="black" d="M411.418,-71.6075C411.418,-63.5064 411.418,-54.5675 411.418,-46.3924"/>
<polygon fill="black" stroke="black" points="414.918,-46.22 411.418,-36.22 407.918,-46.2201 414.918,-46.22"/>
</g>
<!-- MW&#45;&gt;MX -->
<g id="edge19" class="edge"><title>MW&#45;&gt;MX</title>
<path fill="none" stroke="black" d="M230.043,-400.157C202.573,-388.633 160.833,-371.122 127.064,-356.955"/>
<polygon fill="black" stroke="black" points="128.345,-353.697 117.769,-353.056 125.636,-360.152 128.345,-353.697"/>
</g>
<!-- Notes -->
<g id="node15" class="node"><title>Notes</title>
<ellipse fill="none" stroke="black" cx="256.418" cy="-332.61" rx="36.2938" ry="18"/>
<text text-anchor="middle" x="256.418" y="-328.91" font-family="Hershey-Noailles-help-me" font-size="14.00">Notes</text>
</g>
<!-- MW&#45;&gt;Notes -->
<g id="edge17" class="edge"><title>MW&#45;&gt;Notes</title>
<path fill="none" stroke="black" d="M258.767,-395.367C258.385,-385.341 257.895,-372.446 257.461,-361.035"/>
<polygon fill="black" stroke="black" points="260.945,-360.55 257.067,-350.69 253.95,-360.816 260.945,-360.55"/>
</g>
<!-- RR -->
<g id="node13" class="node"><title>RR</title>
<ellipse fill="none" stroke="black" cx="127.418" cy="-557.48" rx="87.1846" ry="18"/>
<text text-anchor="middle" x="127.418" y="-553.78" font-family="Hershey-Noailles-help-me" font-size="14.00">Required reading</text>
</g>
<!-- RR&#45;&gt;GS -->
<g id="edge5" class="edge"><title>RR&#45;&gt;GS</title>
<path fill="none" stroke="black" d="M127.418,-585.956C127.418,-601.969 127.418,-622.093 127.418,-638.091"/>
<polygon fill="black" stroke="black" points="130.918,-585.629 127.418,-575.629 123.918,-585.629 130.918,-585.629"/>
<polygon fill="black" stroke="black" points="123.918,-638.289 127.418,-648.289 130.918,-638.289 123.918,-638.289"/>
</g>
<!-- RR&#45;&gt;SU -->
<g id="edge7" class="edge"><title>RR&#45;&gt;SU</title>
<path fill="none" stroke="black" d="M214.699,-557.48C217.037,-557.48 219.374,-557.48 221.712,-557.48"/>
<polygon fill="black" stroke="black" points="221.962,-560.98 231.961,-557.48 221.961,-553.98 221.962,-560.98"/>
</g>
<!-- FR -->
<g id="node14" class="node"><title>FR</title>
<ellipse fill="none" stroke="black" cx="121.418" cy="-485.48" rx="81.4863" ry="18"/>
<text text-anchor="middle" x="121.418" y="-481.78" font-family="Hershey-Noailles-help-me" font-size="14.00">Further reading</text>
</g>
<!-- RR&#45;&gt;FR -->
<g id="edge21" class="edge"><title>RR&#45;&gt;FR</title>
<path fill="none" stroke="black" d="M125.935,-539.177C125.273,-531.463 124.479,-522.193 123.742,-513.593"/>
<polygon fill="black" stroke="black" points="127.225,-513.249 122.884,-503.585 120.251,-513.847 127.225,-513.249"/>
</g>
</g>
</svg>
