<?xml version="1.0" encoding="UTF-8" standalone="no"?>
<!DOCTYPE svg PUBLIC "-//W3C//DTD SVG 1.1//EN"
 "http://www.w3.org/Graphics/SVG/1.1/DTD/svg11.dtd">
<!-- Generated by graphviz version 2.38.0 (20140413.2041)
 -->
<!-- Title: G Pages: 1 -->
<svg width="530pt" height="655pt"
 viewBox="0.00 0.00 529.75 655.48" xmlns="http://www.w3.org/2000/svg" xmlns:xlink="http://www.w3.org/1999/xlink">
<g id="graph0" class="graph" transform="scale(1 1) rotate(0) translate(4 651.48)">
<title>G</title>
<polygon fill="white" stroke="none" points="-4,4 -4,-651.48 525.748,-651.48 525.748,4 -4,4"/>
<!-- GS -->
<g id="node1" class="node"><title>GS</title>
<ellipse fill="none" stroke="grey" stroke-width="2" cx="372.544" cy="-629.48" rx="105.082" ry="18"/>
<text text-anchor="middle" x="372.544" y="-625.78" font-family="Times,serif" font-size="14.00">Ch.10 &#45; Machine Learning</text>
</g>
<!-- SU -->
<g id="node2" class="node"><title>SU</title>
<ellipse fill="none" stroke="black" cx="273.544" cy="-485.48" rx="35.194" ry="18"/>
<text text-anchor="middle" x="273.544" y="-481.78" font-family="Times,serif" font-size="14.00">setup()</text>
</g>
<!-- GS&#45;&gt;SU -->
<g id="edge1" class="edge"><title>GS&#45;&gt;SU</title>
<path fill="none" stroke="black" d="M336.288,-612.368C320.57,-603.618 303.33,-591.315 292.544,-575.48 280.143,-557.276 275.614,-532.504 274.061,-513.717"/>
<polygon fill="black" stroke="black" points="277.553,-513.482 273.463,-503.709 270.565,-513.9 277.553,-513.482"/>
</g>
<!-- MX -->
<g id="node12" class="node"><title>MX</title>
<ellipse fill="none" stroke="black" cx="471.544" cy="-260.61" rx="50.41" ry="26.7407"/>
<text text-anchor="middle" x="471.544" y="-264.41" font-family="Times,serif" font-size="14.00">MiniX 7: </text>
<text text-anchor="middle" x="471.544" y="-249.41" font-family="Times,serif" font-size="14.00">E&#45;lit</text>
</g>
<!-- GS&#45;&gt;MX -->
<g id="edge6" class="edge"><title>GS&#45;&gt;MX</title>
<path fill="none" stroke="black" d="M408.8,-612.368C424.518,-603.618 441.757,-591.315 452.544,-575.48 475.315,-542.052 471.544,-526.927 471.544,-486.48 471.544,-486.48 471.544,-486.48 471.544,-412.48 471.544,-373.235 471.544,-328.247 471.544,-297.682"/>
<polygon fill="black" stroke="black" points="475.044,-297.506 471.544,-287.506 468.044,-297.506 475.044,-297.506"/>
</g>
<!-- RR -->
<g id="node13" class="node"><title>RR</title>
<ellipse fill="none" stroke="black" cx="372.544" cy="-557.48" rx="71.4873" ry="18"/>
<text text-anchor="middle" x="372.544" y="-553.78" font-family="Times,serif" font-size="14.00">Required reading</text>
</g>
<!-- GS&#45;&gt;RR -->
<g id="edge5" class="edge"><title>GS&#45;&gt;RR</title>
<path fill="none" stroke="black" d="M372.544,-611.177C372.544,-603.463 372.544,-594.193 372.544,-585.593"/>
<polygon fill="black" stroke="black" points="376.044,-585.585 372.544,-575.585 369.044,-585.585 376.044,-585.585"/>
</g>
<!-- ST -->
<g id="node3" class="node"><title>ST</title>
<ellipse fill="none" stroke="black" cx="358.544" cy="-485.48" rx="31.6951" ry="18"/>
<text text-anchor="middle" x="358.544" y="-481.78" font-family="Times,serif" font-size="14.00">start()</text>
</g>
<!-- SU&#45;&gt;ST -->
<g id="edge2" class="edge"><title>SU&#45;&gt;ST</title>
<path fill="none" stroke="black" d="M308.739,-485.48C311.349,-485.48 313.96,-485.48 316.57,-485.48"/>
<polygon fill="black" stroke="black" points="316.638,-488.98 326.638,-485.48 316.638,-481.98 316.638,-488.98"/>
</g>
<!-- IO -->
<g id="node4" class="node"><title>IO</title>
<ellipse fill="none" stroke="black" cx="225.544" cy="-413.48" rx="102.082" ry="18"/>
<text text-anchor="middle" x="225.544" y="-409.78" font-family="Times,serif" font-size="14.00">Between input and output</text>
</g>
<!-- ST&#45;&gt;IO -->
<g id="edge3" class="edge"><title>ST&#45;&gt;IO</title>
<path fill="none" stroke="black" d="M335.982,-472.606C316.747,-462.482 288.633,-447.685 265.586,-435.555"/>
<polygon fill="black" stroke="black" points="267.187,-432.443 256.708,-430.882 263.927,-438.637 267.187,-432.443"/>
</g>
<!-- SC -->
<g id="node8" class="node"><title>SC</title>
<ellipse fill="none" stroke="black" cx="264.544" cy="-179.74" rx="55.7903" ry="18"/>
<text text-anchor="middle" x="264.544" y="-176.04" font-family="Times,serif" font-size="14.00">Source Code</text>
</g>
<!-- ST&#45;&gt;SC -->
<g id="edge13" class="edge"><title>ST&#45;&gt;SC</title>
<path fill="none" stroke="black" d="M360.035,-467.432C362.957,-425.079 365.852,-312.796 323.544,-233.74 317.084,-221.67 306.743,-210.982 296.51,-202.422"/>
<polygon fill="black" stroke="black" points="298.422,-199.472 288.402,-196.028 294.087,-204.968 298.422,-199.472"/>
</g>
<!-- MW -->
<g id="node11" class="node"><title>MW</title>
<ellipse fill="none" stroke="black" cx="433.544" cy="-98.8701" rx="38.1938" ry="18"/>
<text text-anchor="middle" x="433.544" y="-95.1701" font-family="Times,serif" font-size="14.00">While()</text>
</g>
<!-- ST&#45;&gt;MW -->
<g id="edge16" class="edge"><title>ST&#45;&gt;MW</title>
<path fill="none" stroke="black" d="M365.459,-467.76C375.659,-441.542 393.544,-388.945 393.544,-342.48 393.544,-342.48 393.544,-342.48 393.544,-259.61 393.544,-211.579 410.772,-157.791 422.615,-126.489"/>
<polygon fill="black" stroke="black" points="426.03,-127.366 426.393,-116.777 419.506,-124.828 426.03,-127.366"/>
</g>
<!-- EiC -->
<g id="node5" class="node"><title>EiC</title>
<ellipse fill="none" stroke="black" cx="69.5438" cy="-341.48" rx="69.5877" ry="18"/>
<text text-anchor="middle" x="69.5438" y="-337.78" font-family="Times,serif" font-size="14.00">Exercise in class</text>
</g>
<!-- IO&#45;&gt;EiC -->
<g id="edge4" class="edge"><title>IO&#45;&gt;EiC</title>
<path fill="none" stroke="black" d="M190.145,-396.596C166.972,-386.198 136.562,-372.552 112.076,-361.565"/>
<polygon fill="black" stroke="black" points="113.226,-358.245 102.669,-357.344 110.36,-364.631 113.226,-358.245"/>
</g>
<!-- LA -->
<g id="node6" class="node"><title>LA</title>
<ellipse fill="none" stroke="black" cx="242.544" cy="-341.48" rx="85.2851" ry="18"/>
<text text-anchor="middle" x="242.544" y="-337.78" font-family="Times,serif" font-size="14.00">Learning Algorithms</text>
</g>
<!-- IO&#45;&gt;LA -->
<g id="edge10" class="edge"><title>IO&#45;&gt;LA</title>
<path fill="none" stroke="black" d="M229.746,-395.177C231.64,-387.378 233.92,-377.989 236.028,-369.309"/>
<polygon fill="black" stroke="black" points="239.431,-370.128 238.39,-359.585 232.629,-368.476 239.431,-370.128"/>
</g>
<!-- EiC&#45;&gt;LA -->
<g id="edge9" class="edge"><title>EiC&#45;&gt;LA</title>
<path fill="none" stroke="black" d="M139.149,-341.48C141.8,-341.48 144.45,-341.48 147.101,-341.48"/>
<polygon fill="black" stroke="black" points="147.324,-344.98 157.324,-341.48 147.324,-337.98 147.324,-344.98"/>
</g>
<!-- ml5 -->
<g id="node7" class="node"><title>ml5</title>
<ellipse fill="none" stroke="black" cx="255.544" cy="-260.61" rx="59.2899" ry="18"/>
<text text-anchor="middle" x="255.544" y="-256.91" font-family="Times,serif" font-size="14.00">ml5.js library</text>
</g>
<!-- LA&#45;&gt;ml5 -->
<g id="edge11" class="edge"><title>LA&#45;&gt;ml5</title>
<path fill="none" stroke="black" d="M245.365,-323.367C247.034,-313.238 249.186,-300.18 251.082,-288.682"/>
<polygon fill="black" stroke="black" points="254.556,-289.127 252.729,-278.69 247.649,-287.988 254.556,-289.127"/>
</g>
<!-- ml5&#45;&gt;SC -->
<g id="edge12" class="edge"><title>ml5&#45;&gt;SC</title>
<path fill="none" stroke="black" d="M257.497,-242.497C258.652,-232.368 260.143,-219.31 261.455,-207.812"/>
<polygon fill="black" stroke="black" points="264.938,-208.153 262.595,-197.82 257.983,-207.359 264.938,-208.153"/>
</g>
<!-- RAG -->
<g id="node9" class="node"><title>RAG</title>
<ellipse fill="none" stroke="black" cx="264.544" cy="-98.8701" rx="104.804" ry="26.7407"/>
<text text-anchor="middle" x="264.544" y="-102.67" font-family="Times,serif" font-size="14.00">Reading </text>
<text text-anchor="middle" x="264.544" y="-87.6701" font-family="Times,serif" font-size="14.00">Auto Chapter Generator</text>
</g>
<!-- SC&#45;&gt;RAG -->
<g id="edge14" class="edge"><title>SC&#45;&gt;RAG</title>
<path fill="none" stroke="black" d="M264.544,-161.626C264.544,-154.137 264.544,-145.046 264.544,-136.168"/>
<polygon fill="black" stroke="black" points="268.044,-135.953 264.544,-125.953 261.044,-135.953 268.044,-135.953"/>
</g>
<!-- EiC2 -->
<g id="node10" class="node"><title>EiC2</title>
<ellipse fill="none" stroke="black" cx="264.544" cy="-18" rx="69.5877" ry="18"/>
<text text-anchor="middle" x="264.544" y="-14.3" font-family="Times,serif" font-size="14.00">Exercise in class</text>
</g>
<!-- RAG&#45;&gt;EiC2 -->
<g id="edge15" class="edge"><title>RAG&#45;&gt;EiC2</title>
<path fill="none" stroke="black" d="M264.544,-71.6075C264.544,-63.5064 264.544,-54.5675 264.544,-46.3924"/>
<polygon fill="black" stroke="black" points="268.044,-46.22 264.544,-36.22 261.044,-46.2201 268.044,-46.22"/>
</g>
<!-- MW&#45;&gt;MX -->
<g id="edge18" class="edge"><title>MW&#45;&gt;MX</title>
<path fill="none" stroke="black" d="M437.623,-117.02C443.659,-142.39 455.104,-190.504 463.02,-223.781"/>
<polygon fill="black" stroke="black" points="459.635,-224.671 465.354,-233.59 466.445,-223.051 459.635,-224.671"/>
</g>
<!-- Notes -->
<g id="node14" class="node"><title>Notes</title>
<ellipse fill="none" stroke="black" cx="433.544" cy="-18" rx="31.3957" ry="18"/>
<text text-anchor="middle" x="433.544" y="-14.3" font-family="Times,serif" font-size="14.00">Notes</text>
</g>
<!-- MW&#45;&gt;Notes -->
<g id="edge17" class="edge"><title>MW&#45;&gt;Notes</title>
<path fill="none" stroke="black" d="M433.544,-80.7564C433.544,-70.7312 433.544,-57.8362 433.544,-46.4246"/>
<polygon fill="black" stroke="black" points="437.044,-46.0802 433.544,-36.0802 430.044,-46.0803 437.044,-46.0802"/>
</g>
<!-- RR&#45;&gt;SU -->
<g id="edge8" class="edge"><title>RR&#45;&gt;SU</title>
<path fill="none" stroke="black" d="M349.582,-540.245C335.353,-530.184 316.97,-517.186 301.844,-506.49"/>
<polygon fill="black" stroke="black" points="303.556,-503.414 293.37,-500.499 299.514,-509.13 303.556,-503.414"/>
</g>
<!-- RR&#45;&gt;MX -->
<g id="edge7" class="edge"><title>RR&#45;&gt;MX</title>
<path fill="none" stroke="black" d="M382.364,-539.186C387.888,-529.004 394.638,-515.754 399.544,-503.48 428.025,-432.225 451.237,-345.254 463.058,-297.426"/>
<polygon fill="black" stroke="black" points="466.497,-298.097 465.473,-287.551 459.697,-296.433 466.497,-298.097"/>
</g>
</g>
</svg>
