<?xml version="1.0" encoding="UTF-8" standalone="no"?>
<!DOCTYPE svg PUBLIC "-//W3C//DTD SVG 1.1//EN"
 "http://www.w3.org/Graphics/SVG/1.1/DTD/svg11.dtd">
<!-- Generated by graphviz version 2.38.0 (20140413.2041)
 -->
<!-- Title: G Pages: 1 -->
<svg width="521pt" height="692pt"
 viewBox="0.00 0.00 520.85 692.48" xmlns="http://www.w3.org/2000/svg" xmlns:xlink="http://www.w3.org/1999/xlink">
<g id="graph0" class="graph" transform="scale(1 1) rotate(0) translate(4 688.48)">
<title>G</title>
<polygon fill="white" stroke="none" points="-4,4 -4,-688.48 516.852,-688.48 516.852,4 -4,4"/>
<!-- GS -->
<g id="node1" class="node"><title>GS</title>
<ellipse fill="none" stroke="grey" stroke-width="2" cx="110.811" cy="-666.48" rx="105.082" ry="18"/>
<text text-anchor="middle" x="110.811" y="-662.78" font-family="Times,serif" font-size="14.00">Ch.10 &#45; Machine Learning</text>
</g>
<!-- SU -->
<g id="node2" class="node"><title>SU</title>
<ellipse fill="none" stroke="black" cx="235.811" cy="-557.48" rx="35.194" ry="18"/>
<text text-anchor="middle" x="235.811" y="-553.78" font-family="Times,serif" font-size="14.00">setup()</text>
</g>
<!-- GS&#45;&gt;SU -->
<g id="edge1" class="edge"><title>GS&#45;&gt;SU</title>
<path fill="none" stroke="black" d="M130.342,-648.761C151.963,-630.254 186.88,-600.365 210.563,-580.093"/>
<polygon fill="black" stroke="black" points="213.11,-582.52 218.43,-573.358 208.558,-577.202 213.11,-582.52"/>
</g>
<!-- MX -->
<g id="node12" class="node"><title>MX</title>
<ellipse fill="none" stroke="black" cx="60.8112" cy="-332.61" rx="60.623" ry="26.7407"/>
<text text-anchor="middle" x="60.8112" y="-336.41" font-family="Times,serif" font-size="14.00">MiniX: </text>
<text text-anchor="middle" x="60.8112" y="-321.41" font-family="Times,serif" font-size="14.00">Final Project</text>
</g>
<!-- GS&#45;&gt;MX -->
<g id="edge18" class="edge"><title>GS&#45;&gt;MX</title>
<path fill="none" stroke="black" d="M80.3001,-649.212C51.2116,-631.24 11.8112,-599.353 11.8112,-558.48 11.8112,-558.48 11.8112,-558.48 11.8112,-484.48 11.8112,-442.981 28.7894,-398.062 42.7579,-368.128"/>
<polygon fill="black" stroke="black" points="45.987,-369.489 47.162,-358.96 39.6772,-366.458 45.987,-369.489"/>
</g>
<!-- ST -->
<g id="node3" class="node"><title>ST</title>
<ellipse fill="none" stroke="black" cx="220.811" cy="-485.48" rx="31.6951" ry="18"/>
<text text-anchor="middle" x="220.811" y="-481.78" font-family="Times,serif" font-size="14.00">start()</text>
</g>
<!-- SU&#45;&gt;ST -->
<g id="edge2" class="edge"><title>SU&#45;&gt;ST</title>
<path fill="none" stroke="black" d="M232.18,-539.535C230.51,-531.741 228.487,-522.302 226.614,-513.559"/>
<polygon fill="black" stroke="black" points="230.031,-512.8 224.513,-503.756 223.186,-514.267 230.031,-512.8"/>
</g>
<!-- IO -->
<g id="node4" class="node"><title>IO</title>
<ellipse fill="none" stroke="black" cx="410.811" cy="-485.48" rx="102.082" ry="18"/>
<text text-anchor="middle" x="410.811" y="-481.78" font-family="Times,serif" font-size="14.00">Between input and output</text>
</g>
<!-- SU&#45;&gt;IO -->
<g id="edge3" class="edge"><title>SU&#45;&gt;IO</title>
<path fill="none" stroke="black" d="M262.771,-545.696C289.099,-535.165 329.768,-518.898 361.823,-506.076"/>
<polygon fill="black" stroke="black" points="363.484,-509.181 371.469,-502.217 360.884,-502.681 363.484,-509.181"/>
</g>
<!-- MW -->
<g id="node11" class="node"><title>MW</title>
<ellipse fill="none" stroke="black" cx="220.811" cy="-413.48" rx="38.1938" ry="18"/>
<text text-anchor="middle" x="220.811" y="-409.78" font-family="Times,serif" font-size="14.00">While()</text>
</g>
<!-- SU&#45;&gt;MW -->
<g id="edge6" class="edge"><title>SU&#45;&gt;MW</title>
<path fill="none" stroke="black" d="M251.63,-531.055C260.732,-513.15 269.056,-488.687 261.811,-467.48 258.106,-456.635 251.181,-446.288 244.063,-437.662"/>
<polygon fill="black" stroke="black" points="248.319,-529.813 246.587,-540.265 254.459,-533.175 248.319,-529.813"/>
<polygon fill="black" stroke="black" points="246.514,-435.149 237.277,-429.959 241.261,-439.776 246.514,-435.149"/>
</g>
<!-- ST&#45;&gt;MW -->
<g id="edge16" class="edge"><title>ST&#45;&gt;MW</title>
<path fill="none" stroke="black" d="M220.811,-467.177C220.811,-459.463 220.811,-450.193 220.811,-441.593"/>
<polygon fill="black" stroke="black" points="224.311,-441.585 220.811,-431.585 217.311,-441.585 224.311,-441.585"/>
</g>
<!-- EiC -->
<g id="node5" class="node"><title>EiC</title>
<ellipse fill="none" stroke="black" cx="349.811" cy="-413.48" rx="69.5877" ry="18"/>
<text text-anchor="middle" x="349.811" y="-409.78" font-family="Times,serif" font-size="14.00">Exercise in class</text>
</g>
<!-- IO&#45;&gt;EiC -->
<g id="edge4" class="edge"><title>IO&#45;&gt;EiC</title>
<path fill="none" stroke="black" d="M396.045,-467.535C388.552,-458.937 379.315,-448.337 371.072,-438.878"/>
<polygon fill="black" stroke="black" points="373.65,-436.509 364.442,-431.269 368.373,-441.108 373.65,-436.509"/>
</g>
<!-- LA -->
<g id="node6" class="node"><title>LA</title>
<ellipse fill="none" stroke="black" cx="350.811" cy="-332.61" rx="83.3857" ry="18"/>
<text text-anchor="middle" x="350.811" y="-328.91" font-family="Times,serif" font-size="14.00">Learning algorithms</text>
</g>
<!-- IO&#45;&gt;LA -->
<g id="edge11" class="edge"><title>IO&#45;&gt;LA</title>
<path fill="none" stroke="black" d="M420.472,-467.278C429.508,-448.737 440.059,-418.759 428.811,-395.48 420.702,-378.698 405.585,-365.076 390.802,-354.93"/>
<polygon fill="black" stroke="black" points="392.489,-351.853 382.192,-349.36 388.687,-357.73 392.489,-351.853"/>
</g>
<!-- EiC&#45;&gt;LA -->
<g id="edge8" class="edge"><title>EiC&#45;&gt;LA</title>
<path fill="none" stroke="black" d="M350.028,-395.367C350.155,-385.341 350.319,-372.446 350.463,-361.035"/>
<polygon fill="black" stroke="black" points="353.967,-360.734 350.595,-350.69 346.968,-360.645 353.967,-360.734"/>
</g>
<!-- LA&#45;&gt;LA -->
<g id="edge9" class="edge"><title>LA&#45;&gt;LA</title>
<path fill="none" stroke="black" d="M411.21,-347.58C433.599,-348.047 452.004,-343.056 452.004,-332.61 452.004,-322.164 433.599,-317.174 411.21,-317.64"/>
<polygon fill="black" stroke="black" points="411.234,-344.076 401.055,-347.015 410.845,-351.065 411.234,-344.076"/>
<polygon fill="black" stroke="black" points="410.845,-314.155 401.055,-318.205 411.234,-321.144 410.845,-314.155"/>
</g>
<!-- ml5 -->
<g id="node7" class="node"><title>ml5</title>
<ellipse fill="none" stroke="black" cx="350.811" cy="-251.74" rx="59.2899" ry="18"/>
<text text-anchor="middle" x="350.811" y="-248.04" font-family="Times,serif" font-size="14.00">ml5.js library</text>
</g>
<!-- LA&#45;&gt;ml5 -->
<g id="edge12" class="edge"><title>LA&#45;&gt;ml5</title>
<path fill="none" stroke="black" d="M350.811,-314.497C350.811,-304.471 350.811,-291.576 350.811,-280.165"/>
<polygon fill="black" stroke="black" points="354.311,-279.82 350.811,-269.82 347.311,-279.82 354.311,-279.82"/>
</g>
<!-- LA&#45;&gt;MW -->
<g id="edge10" class="edge"><title>LA&#45;&gt;MW</title>
<path fill="none" stroke="black" d="M315.214,-355.207C295.454,-367.195 271.1,-381.97 252.078,-393.511"/>
<polygon fill="black" stroke="black" points="317.2,-358.096 323.934,-349.916 313.569,-352.111 317.2,-358.096"/>
<polygon fill="black" stroke="black" points="250.19,-390.563 243.455,-398.742 253.821,-396.547 250.19,-390.563"/>
</g>
<!-- SC -->
<g id="node8" class="node"><title>SC</title>
<ellipse fill="none" stroke="black" cx="391.811" cy="-179.74" rx="53.8905" ry="18"/>
<text text-anchor="middle" x="391.811" y="-176.04" font-family="Times,serif" font-size="14.00">Source code</text>
</g>
<!-- ml5&#45;&gt;SC -->
<g id="edge13" class="edge"><title>ml5&#45;&gt;SC</title>
<path fill="none" stroke="black" d="M360.736,-233.795C365.571,-225.541 371.486,-215.441 376.853,-206.278"/>
<polygon fill="black" stroke="black" points="379.944,-207.927 381.978,-197.529 373.903,-204.389 379.944,-207.927"/>
</g>
<!-- RAG -->
<g id="node9" class="node"><title>RAG</title>
<ellipse fill="none" stroke="black" cx="350.811" cy="-98.8701" rx="104.804" ry="26.7407"/>
<text text-anchor="middle" x="350.811" y="-102.67" font-family="Times,serif" font-size="14.00">Reading </text>
<text text-anchor="middle" x="350.811" y="-87.6701" font-family="Times,serif" font-size="14.00">Auto Chapter Generator</text>
</g>
<!-- ml5&#45;&gt;RAG -->
<g id="edge20" class="edge"><title>ml5&#45;&gt;RAG</title>
<path fill="none" stroke="black" d="M341.681,-233.62C336.804,-223.496 331.304,-210.246 328.811,-197.74 325.684,-182.049 326.091,-177.507 328.811,-161.74 330.315,-153.02 332.93,-143.899 335.844,-135.423"/>
<polygon fill="black" stroke="black" points="339.204,-136.425 339.353,-125.831 332.63,-134.02 339.204,-136.425"/>
</g>
<!-- SC&#45;&gt;RAG -->
<g id="edge14" class="edge"><title>SC&#45;&gt;RAG</title>
<path fill="none" stroke="black" d="M382.915,-161.626C378.817,-153.743 373.796,-144.086 368.954,-134.77"/>
<polygon fill="black" stroke="black" points="371.929,-132.906 364.211,-125.647 365.718,-136.134 371.929,-132.906"/>
</g>
<!-- EiC2 -->
<g id="node10" class="node"><title>EiC2</title>
<ellipse fill="none" stroke="black" cx="350.811" cy="-18" rx="69.5877" ry="18"/>
<text text-anchor="middle" x="350.811" y="-14.3" font-family="Times,serif" font-size="14.00">Exercise in class</text>
</g>
<!-- RAG&#45;&gt;EiC2 -->
<g id="edge15" class="edge"><title>RAG&#45;&gt;EiC2</title>
<path fill="none" stroke="black" d="M350.811,-71.6075C350.811,-63.5064 350.811,-54.5675 350.811,-46.3924"/>
<polygon fill="black" stroke="black" points="354.311,-46.22 350.811,-36.22 347.311,-46.2201 354.311,-46.22"/>
</g>
<!-- MW&#45;&gt;MX -->
<g id="edge19" class="edge"><title>MW&#45;&gt;MX</title>
<path fill="none" stroke="black" d="M195.104,-399.808C172.168,-388.502 137.958,-371.639 109.807,-357.762"/>
<polygon fill="black" stroke="black" points="111.034,-354.465 100.518,-353.183 107.939,-360.744 111.034,-354.465"/>
</g>
<!-- Notes -->
<g id="node15" class="node"><title>Notes</title>
<ellipse fill="none" stroke="black" cx="218.811" cy="-332.61" rx="31.3957" ry="18"/>
<text text-anchor="middle" x="218.811" y="-328.91" font-family="Times,serif" font-size="14.00">Notes</text>
</g>
<!-- MW&#45;&gt;Notes -->
<g id="edge17" class="edge"><title>MW&#45;&gt;Notes</title>
<path fill="none" stroke="black" d="M220.377,-395.367C220.123,-385.341 219.796,-372.446 219.507,-361.035"/>
<polygon fill="black" stroke="black" points="222.997,-360.598 219.244,-350.69 215.999,-360.776 222.997,-360.598"/>
</g>
<!-- RR -->
<g id="node13" class="node"><title>RR</title>
<ellipse fill="none" stroke="black" cx="110.811" cy="-557.48" rx="71.4873" ry="18"/>
<text text-anchor="middle" x="110.811" y="-553.78" font-family="Times,serif" font-size="14.00">Required reading</text>
</g>
<!-- RR&#45;&gt;GS -->
<g id="edge5" class="edge"><title>RR&#45;&gt;GS</title>
<path fill="none" stroke="black" d="M110.811,-585.956C110.811,-601.969 110.811,-622.093 110.811,-638.091"/>
<polygon fill="black" stroke="black" points="114.311,-585.629 110.811,-575.629 107.311,-585.629 114.311,-585.629"/>
<polygon fill="black" stroke="black" points="107.311,-638.289 110.811,-648.289 114.311,-638.289 107.311,-638.289"/>
</g>
<!-- RR&#45;&gt;SU -->
<g id="edge7" class="edge"><title>RR&#45;&gt;SU</title>
<path fill="none" stroke="black" d="M182.589,-557.48C185.196,-557.48 187.803,-557.48 190.411,-557.48"/>
<polygon fill="black" stroke="black" points="190.468,-560.98 200.468,-557.48 190.468,-553.98 190.468,-560.98"/>
</g>
<!-- FR -->
<g id="node14" class="node"><title>FR</title>
<ellipse fill="none" stroke="black" cx="105.811" cy="-485.48" rx="65.7887" ry="18"/>
<text text-anchor="middle" x="105.811" y="-481.78" font-family="Times,serif" font-size="14.00">Further reading</text>
</g>
<!-- RR&#45;&gt;FR -->
<g id="edge21" class="edge"><title>RR&#45;&gt;FR</title>
<path fill="none" stroke="black" d="M109.575,-539.177C109.024,-531.463 108.362,-522.193 107.748,-513.593"/>
<polygon fill="black" stroke="black" points="111.237,-513.31 107.033,-503.585 104.254,-513.809 111.237,-513.31"/>
</g>
</g>
</svg>
