<?xml version="1.0" encoding="UTF-8" standalone="no"?>
<!DOCTYPE svg PUBLIC "-//W3C//DTD SVG 1.1//EN"
 "http://www.w3.org/Graphics/SVG/1.1/DTD/svg11.dtd">
<!-- Generated by graphviz version 2.38.0 (20140413.2041)
 -->
<!-- Title: G Pages: 1 -->
<svg width="575pt" height="583pt"
 viewBox="0.00 0.00 575.09 583.48" xmlns="http://www.w3.org/2000/svg" xmlns:xlink="http://www.w3.org/1999/xlink">
<g id="graph0" class="graph" transform="scale(1 1) rotate(0) translate(4 579.48)">
<title>G</title>
<polygon fill="white" stroke="none" points="-4,4 -4,-579.48 571.088,-579.48 571.088,4 -4,4"/>
<!-- GS -->
<g id="node1" class="node"><title>GS</title>
<ellipse fill="none" stroke="grey" stroke-width="2" cx="372.544" cy="-557.48" rx="105.082" ry="18"/>
<text text-anchor="middle" x="372.544" y="-553.78" font-family="Times,serif" font-size="14.00">Ch.10 &#45; Machine Learning</text>
</g>
<!-- SU -->
<g id="node2" class="node"><title>SU</title>
<ellipse fill="none" stroke="black" cx="273.544" cy="-413.48" rx="35.194" ry="18"/>
<text text-anchor="middle" x="273.544" y="-409.78" font-family="Times,serif" font-size="14.00">setup()</text>
</g>
<!-- GS&#45;&gt;SU -->
<g id="edge1" class="edge"><title>GS&#45;&gt;SU</title>
<path fill="none" stroke="black" d="M336.288,-540.368C320.57,-531.618 303.33,-519.315 292.544,-503.48 280.143,-485.276 275.614,-460.504 274.061,-441.717"/>
<polygon fill="black" stroke="black" points="277.553,-441.482 273.463,-431.709 270.565,-441.9 277.553,-441.482"/>
</g>
<!-- MX -->
<g id="node12" class="node"><title>MX</title>
<ellipse fill="none" stroke="black" cx="471.544" cy="-332.61" rx="50.41" ry="26.7407"/>
<text text-anchor="middle" x="471.544" y="-336.41" font-family="Times,serif" font-size="14.00">MiniX 7: </text>
<text text-anchor="middle" x="471.544" y="-321.41" font-family="Times,serif" font-size="14.00">E&#45;lit</text>
</g>
<!-- GS&#45;&gt;MX -->
<g id="edge6" class="edge"><title>GS&#45;&gt;MX</title>
<path fill="none" stroke="black" d="M409.939,-540.609C425.693,-531.969 442.64,-519.687 452.544,-503.48 477.401,-462.803 478.544,-406.287 475.946,-369.828"/>
<polygon fill="black" stroke="black" points="479.416,-369.321 475.086,-359.651 472.441,-369.911 479.416,-369.321"/>
</g>
<!-- RR -->
<g id="node13" class="node"><title>RR</title>
<ellipse fill="none" stroke="black" cx="372.544" cy="-485.48" rx="71.4873" ry="18"/>
<text text-anchor="middle" x="372.544" y="-481.78" font-family="Times,serif" font-size="14.00">Required reading</text>
</g>
<!-- GS&#45;&gt;RR -->
<g id="edge5" class="edge"><title>GS&#45;&gt;RR</title>
<path fill="none" stroke="black" d="M372.544,-539.177C372.544,-531.463 372.544,-522.193 372.544,-513.593"/>
<polygon fill="black" stroke="black" points="376.044,-513.585 372.544,-503.585 369.044,-513.585 376.044,-513.585"/>
</g>
<!-- ST -->
<g id="node3" class="node"><title>ST</title>
<ellipse fill="none" stroke="black" cx="358.544" cy="-413.48" rx="31.6951" ry="18"/>
<text text-anchor="middle" x="358.544" y="-409.78" font-family="Times,serif" font-size="14.00">start()</text>
</g>
<!-- SU&#45;&gt;ST -->
<g id="edge2" class="edge"><title>SU&#45;&gt;ST</title>
<path fill="none" stroke="black" d="M308.739,-413.48C311.349,-413.48 313.96,-413.48 316.57,-413.48"/>
<polygon fill="black" stroke="black" points="316.638,-416.98 326.638,-413.48 316.638,-409.98 316.638,-416.98"/>
</g>
<!-- IO -->
<g id="node4" class="node"><title>IO</title>
<ellipse fill="none" stroke="black" cx="225.544" cy="-332.61" rx="102.082" ry="18"/>
<text text-anchor="middle" x="225.544" y="-328.91" font-family="Times,serif" font-size="14.00">Between input and output</text>
</g>
<!-- ST&#45;&gt;IO -->
<g id="edge3" class="edge"><title>ST&#45;&gt;IO</title>
<path fill="none" stroke="black" d="M337.47,-399.983C317.335,-388.043 286.559,-369.793 262.371,-355.449"/>
<polygon fill="black" stroke="black" points="263.846,-352.254 253.459,-350.164 260.275,-358.275 263.846,-352.254"/>
</g>
<!-- SC -->
<g id="node8" class="node"><title>SC</title>
<ellipse fill="none" stroke="black" cx="305.544" cy="-107.74" rx="55.7903" ry="18"/>
<text text-anchor="middle" x="305.544" y="-104.04" font-family="Times,serif" font-size="14.00">Source Code</text>
</g>
<!-- ST&#45;&gt;SC -->
<g id="edge13" class="edge"><title>ST&#45;&gt;SC</title>
<path fill="none" stroke="black" d="M357.496,-395.191C354.712,-354.12 345.769,-247.699 323.544,-161.74 321.296,-153.045 318.325,-143.72 315.446,-135.354"/>
<polygon fill="black" stroke="black" points="318.675,-133.987 312.035,-125.731 312.077,-136.325 318.675,-133.987"/>
</g>
<!-- MW -->
<g id="node11" class="node"><title>MW</title>
<ellipse fill="none" stroke="black" cx="436.544" cy="-179.74" rx="38.1938" ry="18"/>
<text text-anchor="middle" x="436.544" y="-176.04" font-family="Times,serif" font-size="14.00">While()</text>
</g>
<!-- ST&#45;&gt;MW -->
<g id="edge16" class="edge"><title>ST&#45;&gt;MW</title>
<path fill="none" stroke="black" d="M364.279,-395.44C377.718,-355.514 411.326,-255.664 427.529,-207.523"/>
<polygon fill="black" stroke="black" points="430.927,-208.4 430.8,-197.805 424.293,-206.167 430.927,-208.4"/>
</g>
<!-- EiC -->
<g id="node5" class="node"><title>EiC</title>
<ellipse fill="none" stroke="black" cx="69.5438" cy="-251.74" rx="69.5877" ry="18"/>
<text text-anchor="middle" x="69.5438" y="-248.04" font-family="Times,serif" font-size="14.00">Exercise in class</text>
</g>
<!-- IO&#45;&gt;EiC -->
<g id="edge4" class="edge"><title>IO&#45;&gt;EiC</title>
<path fill="none" stroke="black" d="M193.598,-315.459C169.146,-303.097 135.286,-285.978 109.118,-272.748"/>
<polygon fill="black" stroke="black" points="110.36,-269.454 99.8564,-268.065 107.201,-275.701 110.36,-269.454"/>
</g>
<!-- LA -->
<g id="node6" class="node"><title>LA</title>
<ellipse fill="none" stroke="black" cx="242.544" cy="-251.74" rx="85.2851" ry="18"/>
<text text-anchor="middle" x="242.544" y="-248.04" font-family="Times,serif" font-size="14.00">Learning Algorithms</text>
</g>
<!-- IO&#45;&gt;LA -->
<g id="edge10" class="edge"><title>IO&#45;&gt;LA</title>
<path fill="none" stroke="black" d="M229.233,-314.497C231.416,-304.368 234.23,-291.31 236.709,-279.812"/>
<polygon fill="black" stroke="black" points="240.177,-280.333 238.862,-269.82 233.334,-278.858 240.177,-280.333"/>
</g>
<!-- EiC&#45;&gt;LA -->
<g id="edge9" class="edge"><title>EiC&#45;&gt;LA</title>
<path fill="none" stroke="black" d="M139.149,-251.74C141.8,-251.74 144.45,-251.74 147.101,-251.74"/>
<polygon fill="black" stroke="black" points="147.324,-255.24 157.324,-251.74 147.324,-248.24 147.324,-255.24"/>
</g>
<!-- ml5 -->
<g id="node7" class="node"><title>ml5</title>
<ellipse fill="none" stroke="black" cx="255.544" cy="-179.74" rx="59.2899" ry="18"/>
<text text-anchor="middle" x="255.544" y="-176.04" font-family="Times,serif" font-size="14.00">ml5.js library</text>
</g>
<!-- LA&#45;&gt;ml5 -->
<g id="edge11" class="edge"><title>LA&#45;&gt;ml5</title>
<path fill="none" stroke="black" d="M245.757,-233.437C247.19,-225.723 248.912,-216.453 250.509,-207.853"/>
<polygon fill="black" stroke="black" points="253.982,-208.315 252.367,-197.844 247.1,-207.037 253.982,-208.315"/>
</g>
<!-- ml5&#45;&gt;SC -->
<g id="edge12" class="edge"><title>ml5&#45;&gt;SC</title>
<path fill="none" stroke="black" d="M267.647,-161.795C273.666,-153.369 281.058,-143.02 287.711,-133.706"/>
<polygon fill="black" stroke="black" points="290.587,-135.701 293.552,-125.529 284.891,-131.632 290.587,-135.701"/>
</g>
<!-- RAG -->
<g id="node9" class="node"><title>RAG</title>
<ellipse fill="none" stroke="black" cx="305.544" cy="-26.8701" rx="104.804" ry="26.7407"/>
<text text-anchor="middle" x="305.544" y="-30.6701" font-family="Times,serif" font-size="14.00">Reading </text>
<text text-anchor="middle" x="305.544" y="-15.6701" font-family="Times,serif" font-size="14.00">Auto Chapter Generator</text>
</g>
<!-- SC&#45;&gt;RAG -->
<g id="edge14" class="edge"><title>SC&#45;&gt;RAG</title>
<path fill="none" stroke="black" d="M305.544,-89.6265C305.544,-82.137 305.544,-73.0458 305.544,-64.168"/>
<polygon fill="black" stroke="black" points="309.044,-63.9529 305.544,-53.953 302.044,-63.953 309.044,-63.9529"/>
</g>
<!-- EiC2 -->
<g id="node10" class="node"><title>EiC2</title>
<ellipse fill="none" stroke="black" cx="497.544" cy="-26.8701" rx="69.5877" ry="18"/>
<text text-anchor="middle" x="497.544" y="-23.1701" font-family="Times,serif" font-size="14.00">Exercise in class</text>
</g>
<!-- RAG&#45;&gt;EiC2 -->
<g id="edge15" class="edge"><title>RAG&#45;&gt;EiC2</title>
<path fill="none" stroke="black" d="M410.544,-26.8701C412.981,-26.8701 415.418,-26.8701 417.856,-26.8701"/>
<polygon fill="black" stroke="black" points="417.876,-30.3702 427.876,-26.8701 417.876,-23.3702 417.876,-30.3702"/>
</g>
<!-- MW&#45;&gt;MX -->
<g id="edge18" class="edge"><title>MW&#45;&gt;MX</title>
<path fill="none" stroke="black" d="M440.525,-197.901C446.016,-221.571 456.048,-264.813 463.216,-295.714"/>
<polygon fill="black" stroke="black" points="459.858,-296.724 465.527,-305.675 466.677,-295.142 459.858,-296.724"/>
</g>
<!-- Notes -->
<g id="node14" class="node"><title>Notes</title>
<ellipse fill="none" stroke="black" cx="524.544" cy="-179.74" rx="31.3957" ry="18"/>
<text text-anchor="middle" x="524.544" y="-176.04" font-family="Times,serif" font-size="14.00">Notes</text>
</g>
<!-- MW&#45;&gt;Notes -->
<g id="edge17" class="edge"><title>MW&#45;&gt;Notes</title>
<path fill="none" stroke="black" d="M475.044,-179.74C477.694,-179.74 480.345,-179.74 482.996,-179.74"/>
<polygon fill="black" stroke="black" points="483.22,-183.24 493.22,-179.74 483.22,-176.24 483.22,-183.24"/>
</g>
<!-- RR&#45;&gt;SU -->
<g id="edge8" class="edge"><title>RR&#45;&gt;SU</title>
<path fill="none" stroke="black" d="M349.582,-468.245C335.353,-458.184 316.97,-445.186 301.844,-434.49"/>
<polygon fill="black" stroke="black" points="303.556,-431.414 293.37,-428.499 299.514,-437.13 303.556,-431.414"/>
</g>
<!-- RR&#45;&gt;MX -->
<g id="edge7" class="edge"><title>RR&#45;&gt;MX</title>
<path fill="none" stroke="black" d="M383.708,-467.467C399.701,-443.094 429.451,-397.757 449.86,-366.655"/>
<polygon fill="black" stroke="black" points="452.789,-368.571 455.349,-358.29 446.937,-364.73 452.789,-368.571"/>
</g>
</g>
</svg>
