<?xml version="1.0" encoding="UTF-8" standalone="no"?>
<!DOCTYPE svg PUBLIC "-//W3C//DTD SVG 1.1//EN"
 "http://www.w3.org/Graphics/SVG/1.1/DTD/svg11.dtd">
<!-- Generated by graphviz version 2.38.0 (20140413.2041)
 -->
<!-- Title: G Pages: 1 -->
<svg width="643pt" height="511pt"
 viewBox="0.00 0.00 643.09 511.48" xmlns="http://www.w3.org/2000/svg" xmlns:xlink="http://www.w3.org/1999/xlink">
<g id="graph0" class="graph" transform="scale(1 1) rotate(0) translate(4 507.48)">
<title>G</title>
<polygon fill="white" stroke="none" points="-4,4 -4,-507.48 639.088,-507.48 639.088,4 -4,4"/>
<!-- GS -->
<g id="node1" class="node"><title>GS</title>
<ellipse fill="none" stroke="grey" stroke-width="2" cx="390.544" cy="-485.48" rx="105.082" ry="18"/>
<text text-anchor="middle" x="390.544" y="-481.78" font-family="Times,serif" font-size="14.00">Ch.10 &#45; Machine Learning</text>
</g>
<!-- SU -->
<g id="node2" class="node"><title>SU</title>
<ellipse fill="none" stroke="black" cx="291.544" cy="-341.48" rx="35.194" ry="18"/>
<text text-anchor="middle" x="291.544" y="-337.78" font-family="Times,serif" font-size="14.00">setup()</text>
</g>
<!-- GS&#45;&gt;SU -->
<g id="edge1" class="edge"><title>GS&#45;&gt;SU</title>
<path fill="none" stroke="black" d="M354.288,-468.368C338.57,-459.618 321.33,-447.315 310.544,-431.48 298.143,-413.276 293.614,-388.504 292.061,-369.717"/>
<polygon fill="black" stroke="black" points="295.553,-369.482 291.463,-359.709 288.565,-369.9 295.553,-369.482"/>
</g>
<!-- MX -->
<g id="node12" class="node"><title>MX</title>
<ellipse fill="none" stroke="black" cx="489.544" cy="-260.61" rx="50.41" ry="26.7407"/>
<text text-anchor="middle" x="489.544" y="-264.41" font-family="Times,serif" font-size="14.00">MiniX 7: </text>
<text text-anchor="middle" x="489.544" y="-249.41" font-family="Times,serif" font-size="14.00">E&#45;lit</text>
</g>
<!-- GS&#45;&gt;MX -->
<g id="edge6" class="edge"><title>GS&#45;&gt;MX</title>
<path fill="none" stroke="black" d="M427.939,-468.609C443.693,-459.969 460.64,-447.687 470.544,-431.48 495.401,-390.803 496.544,-334.287 493.946,-297.828"/>
<polygon fill="black" stroke="black" points="497.416,-297.321 493.086,-287.651 490.441,-297.911 497.416,-297.321"/>
</g>
<!-- RR -->
<g id="node13" class="node"><title>RR</title>
<ellipse fill="none" stroke="black" cx="390.544" cy="-413.48" rx="71.4873" ry="18"/>
<text text-anchor="middle" x="390.544" y="-409.78" font-family="Times,serif" font-size="14.00">Required reading</text>
</g>
<!-- GS&#45;&gt;RR -->
<g id="edge5" class="edge"><title>GS&#45;&gt;RR</title>
<path fill="none" stroke="black" d="M390.544,-467.177C390.544,-459.463 390.544,-450.193 390.544,-441.593"/>
<polygon fill="black" stroke="black" points="394.044,-441.585 390.544,-431.585 387.044,-441.585 394.044,-441.585"/>
</g>
<!-- ST -->
<g id="node3" class="node"><title>ST</title>
<ellipse fill="none" stroke="black" cx="376.544" cy="-341.48" rx="31.6951" ry="18"/>
<text text-anchor="middle" x="376.544" y="-337.78" font-family="Times,serif" font-size="14.00">start()</text>
</g>
<!-- SU&#45;&gt;ST -->
<g id="edge2" class="edge"><title>SU&#45;&gt;ST</title>
<path fill="none" stroke="black" d="M326.739,-341.48C329.349,-341.48 331.96,-341.48 334.57,-341.48"/>
<polygon fill="black" stroke="black" points="334.638,-344.98 344.638,-341.48 334.638,-337.98 334.638,-344.98"/>
</g>
<!-- IO -->
<g id="node4" class="node"><title>IO</title>
<ellipse fill="none" stroke="black" cx="242.544" cy="-260.61" rx="102.082" ry="18"/>
<text text-anchor="middle" x="242.544" y="-256.91" font-family="Times,serif" font-size="14.00">Between input and output</text>
</g>
<!-- ST&#45;&gt;IO -->
<g id="edge3" class="edge"><title>ST&#45;&gt;IO</title>
<path fill="none" stroke="black" d="M355.311,-327.983C334.936,-315.991 303.744,-297.632 279.326,-283.26"/>
<polygon fill="black" stroke="black" points="281.062,-280.22 270.669,-278.164 277.512,-286.253 281.062,-280.22"/>
</g>
<!-- SC -->
<g id="node8" class="node"><title>SC</title>
<ellipse fill="none" stroke="black" cx="373.544" cy="-107.74" rx="55.7903" ry="18"/>
<text text-anchor="middle" x="373.544" y="-104.04" font-family="Times,serif" font-size="14.00">Source Code</text>
</g>
<!-- ST&#45;&gt;SC -->
<g id="edge13" class="edge"><title>ST&#45;&gt;SC</title>
<path fill="none" stroke="black" d="M376.323,-323.44C375.807,-283.597 374.519,-184.082 373.894,-135.827"/>
<polygon fill="black" stroke="black" points="377.394,-135.759 373.765,-125.805 370.395,-135.85 377.394,-135.759"/>
</g>
<!-- MW -->
<g id="node11" class="node"><title>MW</title>
<ellipse fill="none" stroke="black" cx="486.544" cy="-107.74" rx="38.1938" ry="18"/>
<text text-anchor="middle" x="486.544" y="-104.04" font-family="Times,serif" font-size="14.00">While()</text>
</g>
<!-- ST&#45;&gt;MW -->
<g id="edge16" class="edge"><title>ST&#45;&gt;MW</title>
<path fill="none" stroke="black" d="M384.455,-323.814C403.396,-283.909 451.466,-182.641 474.23,-134.682"/>
<polygon fill="black" stroke="black" points="477.43,-136.101 478.557,-125.567 471.107,-133.1 477.43,-136.101"/>
</g>
<!-- EiC -->
<g id="node5" class="node"><title>EiC</title>
<ellipse fill="none" stroke="black" cx="69.5438" cy="-179.74" rx="69.5877" ry="18"/>
<text text-anchor="middle" x="69.5438" y="-176.04" font-family="Times,serif" font-size="14.00">Exercise in class</text>
</g>
<!-- IO&#45;&gt;EiC -->
<g id="edge4" class="edge"><title>IO&#45;&gt;EiC</title>
<path fill="none" stroke="black" d="M207.535,-243.65C179.827,-231.018 141.038,-213.334 111.639,-199.931"/>
<polygon fill="black" stroke="black" points="113.001,-196.705 102.45,-195.742 110.097,-203.075 113.001,-196.705"/>
</g>
<!-- LA -->
<g id="node6" class="node"><title>LA</title>
<ellipse fill="none" stroke="black" cx="242.544" cy="-179.74" rx="85.2851" ry="18"/>
<text text-anchor="middle" x="242.544" y="-176.04" font-family="Times,serif" font-size="14.00">Learning Algorithms</text>
</g>
<!-- IO&#45;&gt;LA -->
<g id="edge10" class="edge"><title>IO&#45;&gt;LA</title>
<path fill="none" stroke="black" d="M242.544,-242.497C242.544,-232.471 242.544,-219.576 242.544,-208.165"/>
<polygon fill="black" stroke="black" points="246.044,-207.82 242.544,-197.82 239.044,-207.82 246.044,-207.82"/>
</g>
<!-- EiC&#45;&gt;LA -->
<g id="edge9" class="edge"><title>EiC&#45;&gt;LA</title>
<path fill="none" stroke="black" d="M139.149,-179.74C141.8,-179.74 144.45,-179.74 147.101,-179.74"/>
<polygon fill="black" stroke="black" points="147.324,-183.24 157.324,-179.74 147.324,-176.24 147.324,-183.24"/>
</g>
<!-- ml5 -->
<g id="node7" class="node"><title>ml5</title>
<ellipse fill="none" stroke="black" cx="240.544" cy="-107.74" rx="59.2899" ry="18"/>
<text text-anchor="middle" x="240.544" y="-104.04" font-family="Times,serif" font-size="14.00">ml5.js library</text>
</g>
<!-- LA&#45;&gt;ml5 -->
<g id="edge11" class="edge"><title>LA&#45;&gt;ml5</title>
<path fill="none" stroke="black" d="M242.049,-161.437C241.829,-153.723 241.564,-144.453 241.318,-135.853"/>
<polygon fill="black" stroke="black" points="244.817,-135.74 241.033,-125.844 237.82,-135.94 244.817,-135.74"/>
</g>
<!-- ml5&#45;&gt;SC -->
<g id="edge12" class="edge"><title>ml5&#45;&gt;SC</title>
<path fill="none" stroke="black" d="M299.77,-107.74C302.376,-107.74 304.982,-107.74 307.587,-107.74"/>
<polygon fill="black" stroke="black" points="307.637,-111.24 317.637,-107.74 307.637,-104.24 307.637,-111.24"/>
</g>
<!-- RAG -->
<g id="node9" class="node"><title>RAG</title>
<ellipse fill="none" stroke="black" cx="373.544" cy="-26.8701" rx="104.804" ry="26.7407"/>
<text text-anchor="middle" x="373.544" y="-30.6701" font-family="Times,serif" font-size="14.00">Reading </text>
<text text-anchor="middle" x="373.544" y="-15.6701" font-family="Times,serif" font-size="14.00">Auto Chapter Generator</text>
</g>
<!-- SC&#45;&gt;RAG -->
<g id="edge14" class="edge"><title>SC&#45;&gt;RAG</title>
<path fill="none" stroke="black" d="M373.544,-89.6265C373.544,-82.137 373.544,-73.0458 373.544,-64.168"/>
<polygon fill="black" stroke="black" points="377.044,-63.9529 373.544,-53.953 370.044,-63.953 377.044,-63.9529"/>
</g>
<!-- EiC2 -->
<g id="node10" class="node"><title>EiC2</title>
<ellipse fill="none" stroke="black" cx="565.544" cy="-26.8701" rx="69.5877" ry="18"/>
<text text-anchor="middle" x="565.544" y="-23.1701" font-family="Times,serif" font-size="14.00">Exercise in class</text>
</g>
<!-- RAG&#45;&gt;EiC2 -->
<g id="edge15" class="edge"><title>RAG&#45;&gt;EiC2</title>
<path fill="none" stroke="black" d="M478.544,-26.8701C480.981,-26.8701 483.418,-26.8701 485.856,-26.8701"/>
<polygon fill="black" stroke="black" points="485.876,-30.3702 495.876,-26.8701 485.876,-23.3702 485.876,-30.3702"/>
</g>
<!-- MW&#45;&gt;MX -->
<g id="edge18" class="edge"><title>MW&#45;&gt;MX</title>
<path fill="none" stroke="black" d="M486.885,-125.901C487.354,-149.468 488.208,-192.437 488.822,-223.31"/>
<polygon fill="black" stroke="black" points="485.33,-223.746 489.028,-233.675 492.329,-223.607 485.33,-223.746"/>
</g>
<!-- Notes -->
<g id="node14" class="node"><title>Notes</title>
<ellipse fill="none" stroke="black" cx="574.544" cy="-107.74" rx="31.3957" ry="18"/>
<text text-anchor="middle" x="574.544" y="-104.04" font-family="Times,serif" font-size="14.00">Notes</text>
</g>
<!-- MW&#45;&gt;Notes -->
<g id="edge17" class="edge"><title>MW&#45;&gt;Notes</title>
<path fill="none" stroke="black" d="M525.044,-107.74C527.694,-107.74 530.345,-107.74 532.996,-107.74"/>
<polygon fill="black" stroke="black" points="533.22,-111.24 543.22,-107.74 533.22,-104.24 533.22,-111.24"/>
</g>
<!-- RR&#45;&gt;SU -->
<g id="edge8" class="edge"><title>RR&#45;&gt;SU</title>
<path fill="none" stroke="black" d="M367.582,-396.245C353.353,-386.184 334.97,-373.186 319.844,-362.49"/>
<polygon fill="black" stroke="black" points="321.556,-359.414 311.37,-356.499 317.514,-365.13 321.556,-359.414"/>
</g>
<!-- RR&#45;&gt;MX -->
<g id="edge7" class="edge"><title>RR&#45;&gt;MX</title>
<path fill="none" stroke="black" d="M401.708,-395.467C417.701,-371.094 447.451,-325.757 467.86,-294.655"/>
<polygon fill="black" stroke="black" points="470.789,-296.571 473.349,-286.29 464.937,-292.73 470.789,-296.571"/>
</g>
</g>
</svg>
