<?xml version="1.0" encoding="UTF-8" standalone="no"?>
<!DOCTYPE svg PUBLIC "-//W3C//DTD SVG 1.1//EN"
 "http://www.w3.org/Graphics/SVG/1.1/DTD/svg11.dtd">
<!-- Generated by graphviz version 2.38.0 (20140413.2041)
 -->
<!-- Title: G Pages: 1 -->
<svg width="644pt" height="511pt"
 viewBox="0.00 0.00 644.09 511.48" xmlns="http://www.w3.org/2000/svg" xmlns:xlink="http://www.w3.org/1999/xlink">
<g id="graph0" class="graph" transform="scale(1 1) rotate(0) translate(4 507.48)">
<title>G</title>
<polygon fill="white" stroke="none" points="-4,4 -4,-507.48 640.088,-507.48 640.088,4 -4,4"/>
<!-- GS -->
<g id="node1" class="node"><title>GS</title>
<ellipse fill="none" stroke="grey" stroke-width="2" cx="401.544" cy="-485.48" rx="105.082" ry="18"/>
<text text-anchor="middle" x="401.544" y="-481.78" font-family="Times,serif" font-size="14.00">Ch.10 &#45; Machine Learning</text>
</g>
<!-- SU -->
<g id="node2" class="node"><title>SU</title>
<ellipse fill="none" stroke="black" cx="302.544" cy="-341.48" rx="35.194" ry="18"/>
<text text-anchor="middle" x="302.544" y="-337.78" font-family="Times,serif" font-size="14.00">setup()</text>
</g>
<!-- GS&#45;&gt;SU -->
<g id="edge1" class="edge"><title>GS&#45;&gt;SU</title>
<path fill="none" stroke="black" d="M365.288,-468.368C349.57,-459.618 332.33,-447.315 321.544,-431.48 309.143,-413.276 304.614,-388.504 303.061,-369.717"/>
<polygon fill="black" stroke="black" points="306.553,-369.482 302.463,-359.709 299.565,-369.9 306.553,-369.482"/>
</g>
<!-- MX -->
<g id="node12" class="node"><title>MX</title>
<ellipse fill="none" stroke="black" cx="500.544" cy="-260.61" rx="60.623" ry="26.7407"/>
<text text-anchor="middle" x="500.544" y="-264.41" font-family="Times,serif" font-size="14.00">MiniX 7: </text>
<text text-anchor="middle" x="500.544" y="-249.41" font-family="Times,serif" font-size="14.00">Final Project</text>
</g>
<!-- GS&#45;&gt;MX -->
<g id="edge6" class="edge"><title>GS&#45;&gt;MX</title>
<path fill="none" stroke="black" d="M438.939,-468.609C454.693,-459.969 471.64,-447.687 481.544,-431.48 506.401,-390.803 507.544,-334.287 504.946,-297.828"/>
<polygon fill="black" stroke="black" points="508.416,-297.321 504.086,-287.651 501.441,-297.911 508.416,-297.321"/>
</g>
<!-- RR -->
<g id="node13" class="node"><title>RR</title>
<ellipse fill="none" stroke="black" cx="401.544" cy="-413.48" rx="71.4873" ry="18"/>
<text text-anchor="middle" x="401.544" y="-409.78" font-family="Times,serif" font-size="14.00">Required reading</text>
</g>
<!-- GS&#45;&gt;RR -->
<g id="edge5" class="edge"><title>GS&#45;&gt;RR</title>
<path fill="none" stroke="black" d="M401.544,-467.177C401.544,-459.463 401.544,-450.193 401.544,-441.593"/>
<polygon fill="black" stroke="black" points="405.044,-441.585 401.544,-431.585 398.044,-441.585 405.044,-441.585"/>
</g>
<!-- ST -->
<g id="node3" class="node"><title>ST</title>
<ellipse fill="none" stroke="black" cx="387.544" cy="-341.48" rx="31.6951" ry="18"/>
<text text-anchor="middle" x="387.544" y="-337.78" font-family="Times,serif" font-size="14.00">start()</text>
</g>
<!-- SU&#45;&gt;ST -->
<g id="edge2" class="edge"><title>SU&#45;&gt;ST</title>
<path fill="none" stroke="black" d="M337.739,-341.48C340.349,-341.48 342.96,-341.48 345.57,-341.48"/>
<polygon fill="black" stroke="black" points="345.638,-344.98 355.638,-341.48 345.638,-337.98 345.638,-344.98"/>
</g>
<!-- IO -->
<g id="node4" class="node"><title>IO</title>
<ellipse fill="none" stroke="black" cx="242.544" cy="-260.61" rx="102.082" ry="18"/>
<text text-anchor="middle" x="242.544" y="-256.91" font-family="Times,serif" font-size="14.00">Between input and output</text>
</g>
<!-- ST&#45;&gt;IO -->
<g id="edge3" class="edge"><title>ST&#45;&gt;IO</title>
<path fill="none" stroke="black" d="M365.205,-328.33C342.963,-316.231 308.365,-297.413 281.577,-282.842"/>
<polygon fill="black" stroke="black" points="282.918,-279.587 272.461,-277.883 279.573,-285.736 282.918,-279.587"/>
</g>
<!-- SC -->
<g id="node8" class="node"><title>SC</title>
<ellipse fill="none" stroke="black" cx="374.544" cy="-107.74" rx="55.7903" ry="18"/>
<text text-anchor="middle" x="374.544" y="-104.04" font-family="Times,serif" font-size="14.00">Source Code</text>
</g>
<!-- ST&#45;&gt;SC -->
<g id="edge13" class="edge"><title>ST&#45;&gt;SC</title>
<path fill="none" stroke="black" d="M386.588,-323.44C384.353,-283.597 378.77,-184.082 376.063,-135.827"/>
<polygon fill="black" stroke="black" points="379.556,-135.594 375.501,-125.805 372.567,-135.986 379.556,-135.594"/>
</g>
<!-- MW -->
<g id="node11" class="node"><title>MW</title>
<ellipse fill="none" stroke="black" cx="490.544" cy="-107.74" rx="38.1938" ry="18"/>
<text text-anchor="middle" x="490.544" y="-104.04" font-family="Times,serif" font-size="14.00">While()</text>
</g>
<!-- ST&#45;&gt;MW -->
<g id="edge16" class="edge"><title>ST&#45;&gt;MW</title>
<path fill="none" stroke="black" d="M393.917,-323.701C402.036,-302.559 416.682,-265.183 430.544,-233.74 445.803,-199.128 464.937,-159.909 477.438,-134.781"/>
<polygon fill="black" stroke="black" points="480.705,-136.073 482.042,-125.562 474.443,-132.945 480.705,-136.073"/>
</g>
<!-- EiC -->
<g id="node5" class="node"><title>EiC</title>
<ellipse fill="none" stroke="black" cx="69.5438" cy="-179.74" rx="69.5877" ry="18"/>
<text text-anchor="middle" x="69.5438" y="-176.04" font-family="Times,serif" font-size="14.00">Exercise in class</text>
</g>
<!-- IO&#45;&gt;EiC -->
<g id="edge4" class="edge"><title>IO&#45;&gt;EiC</title>
<path fill="none" stroke="black" d="M207.535,-243.65C179.827,-231.018 141.038,-213.334 111.639,-199.931"/>
<polygon fill="black" stroke="black" points="113.001,-196.705 102.45,-195.742 110.097,-203.075 113.001,-196.705"/>
</g>
<!-- LA -->
<g id="node6" class="node"><title>LA</title>
<ellipse fill="none" stroke="black" cx="242.544" cy="-179.74" rx="85.2851" ry="18"/>
<text text-anchor="middle" x="242.544" y="-176.04" font-family="Times,serif" font-size="14.00">Learning Algorithms</text>
</g>
<!-- IO&#45;&gt;LA -->
<g id="edge10" class="edge"><title>IO&#45;&gt;LA</title>
<path fill="none" stroke="black" d="M242.544,-242.497C242.544,-232.471 242.544,-219.576 242.544,-208.165"/>
<polygon fill="black" stroke="black" points="246.044,-207.82 242.544,-197.82 239.044,-207.82 246.044,-207.82"/>
</g>
<!-- EiC&#45;&gt;LA -->
<g id="edge9" class="edge"><title>EiC&#45;&gt;LA</title>
<path fill="none" stroke="black" d="M139.149,-179.74C141.8,-179.74 144.45,-179.74 147.101,-179.74"/>
<polygon fill="black" stroke="black" points="147.324,-183.24 157.324,-179.74 147.324,-176.24 147.324,-183.24"/>
</g>
<!-- ml5 -->
<g id="node7" class="node"><title>ml5</title>
<ellipse fill="none" stroke="black" cx="241.544" cy="-107.74" rx="59.2899" ry="18"/>
<text text-anchor="middle" x="241.544" y="-104.04" font-family="Times,serif" font-size="14.00">ml5.js library</text>
</g>
<!-- LA&#45;&gt;ml5 -->
<g id="edge11" class="edge"><title>LA&#45;&gt;ml5</title>
<path fill="none" stroke="black" d="M242.297,-161.437C242.186,-153.723 242.054,-144.453 241.931,-135.853"/>
<polygon fill="black" stroke="black" points="245.431,-135.793 241.788,-125.844 238.431,-135.893 245.431,-135.793"/>
</g>
<!-- ml5&#45;&gt;SC -->
<g id="edge12" class="edge"><title>ml5&#45;&gt;SC</title>
<path fill="none" stroke="black" d="M300.77,-107.74C303.376,-107.74 305.982,-107.74 308.587,-107.74"/>
<polygon fill="black" stroke="black" points="308.637,-111.24 318.637,-107.74 308.637,-104.24 308.637,-111.24"/>
</g>
<!-- RAG -->
<g id="node9" class="node"><title>RAG</title>
<ellipse fill="none" stroke="black" cx="374.544" cy="-26.8701" rx="104.804" ry="26.7407"/>
<text text-anchor="middle" x="374.544" y="-30.6701" font-family="Times,serif" font-size="14.00">Reading </text>
<text text-anchor="middle" x="374.544" y="-15.6701" font-family="Times,serif" font-size="14.00">Auto Chapter Generator</text>
</g>
<!-- SC&#45;&gt;RAG -->
<g id="edge14" class="edge"><title>SC&#45;&gt;RAG</title>
<path fill="none" stroke="black" d="M374.544,-89.6265C374.544,-82.137 374.544,-73.0458 374.544,-64.168"/>
<polygon fill="black" stroke="black" points="378.044,-63.9529 374.544,-53.953 371.044,-63.953 378.044,-63.9529"/>
</g>
<!-- EiC2 -->
<g id="node10" class="node"><title>EiC2</title>
<ellipse fill="none" stroke="black" cx="566.544" cy="-26.8701" rx="69.5877" ry="18"/>
<text text-anchor="middle" x="566.544" y="-23.1701" font-family="Times,serif" font-size="14.00">Exercise in class</text>
</g>
<!-- RAG&#45;&gt;EiC2 -->
<g id="edge15" class="edge"><title>RAG&#45;&gt;EiC2</title>
<path fill="none" stroke="black" d="M479.544,-26.8701C481.981,-26.8701 484.418,-26.8701 486.856,-26.8701"/>
<polygon fill="black" stroke="black" points="486.876,-30.3702 496.876,-26.8701 486.876,-23.3702 486.876,-30.3702"/>
</g>
<!-- MW&#45;&gt;MX -->
<g id="edge18" class="edge"><title>MW&#45;&gt;MX</title>
<path fill="none" stroke="black" d="M491.681,-125.901C493.243,-149.468 496.091,-192.437 498.138,-223.31"/>
<polygon fill="black" stroke="black" points="494.671,-223.928 498.825,-233.675 501.656,-223.465 494.671,-223.928"/>
</g>
<!-- Notes -->
<g id="node14" class="node"><title>Notes</title>
<ellipse fill="none" stroke="black" cx="578.544" cy="-107.74" rx="31.3957" ry="18"/>
<text text-anchor="middle" x="578.544" y="-104.04" font-family="Times,serif" font-size="14.00">Notes</text>
</g>
<!-- MW&#45;&gt;Notes -->
<g id="edge17" class="edge"><title>MW&#45;&gt;Notes</title>
<path fill="none" stroke="black" d="M529.044,-107.74C531.694,-107.74 534.345,-107.74 536.996,-107.74"/>
<polygon fill="black" stroke="black" points="537.22,-111.24 547.22,-107.74 537.22,-104.24 537.22,-111.24"/>
</g>
<!-- RR&#45;&gt;SU -->
<g id="edge8" class="edge"><title>RR&#45;&gt;SU</title>
<path fill="none" stroke="black" d="M378.582,-396.245C364.353,-386.184 345.97,-373.186 330.844,-362.49"/>
<polygon fill="black" stroke="black" points="332.556,-359.414 322.37,-356.499 328.514,-365.13 332.556,-359.414"/>
</g>
<!-- RR&#45;&gt;MX -->
<g id="edge7" class="edge"><title>RR&#45;&gt;MX</title>
<path fill="none" stroke="black" d="M412.708,-395.467C428.655,-371.165 458.279,-326.019 478.683,-294.925"/>
<polygon fill="black" stroke="black" points="481.614,-296.838 484.174,-286.557 475.761,-292.998 481.614,-296.838"/>
</g>
</g>
</svg>
