<?xml version="1.0" encoding="UTF-8" standalone="no"?>
<!DOCTYPE svg PUBLIC "-//W3C//DTD SVG 1.1//EN"
 "http://www.w3.org/Graphics/SVG/1.1/DTD/svg11.dtd">
<!-- Generated by graphviz version 2.38.0 (20140413.2041)
 -->
<!-- Title: G Pages: 1 -->
<svg width="630pt" height="439pt"
 viewBox="0.00 0.00 630.33 439.48" xmlns="http://www.w3.org/2000/svg" xmlns:xlink="http://www.w3.org/1999/xlink">
<g id="graph0" class="graph" transform="scale(1 1) rotate(0) translate(4 435.48)">
<title>G</title>
<polygon fill="white" stroke="none" points="-4,4 -4,-435.48 626.332,-435.48 626.332,4 -4,4"/>
<!-- GS -->
<g id="node1" class="node"><title>GS</title>
<ellipse fill="none" stroke="grey" stroke-width="2" cx="517.041" cy="-413.48" rx="105.082" ry="18"/>
<text text-anchor="middle" x="517.041" y="-409.78" font-family="Times,serif" font-size="14.00">Ch.10 &#45; Machine Learning</text>
</g>
<!-- SU -->
<g id="node2" class="node"><title>SU</title>
<ellipse fill="none" stroke="black" cx="343.041" cy="-341.48" rx="35.194" ry="18"/>
<text text-anchor="middle" x="343.041" y="-337.78" font-family="Times,serif" font-size="14.00">setup()</text>
</g>
<!-- GS&#45;&gt;SU -->
<g id="edge1" class="edge"><title>GS&#45;&gt;SU</title>
<path fill="none" stroke="black" d="M477.558,-396.596C448.138,-384.761 408.262,-368.719 379.575,-357.178"/>
<polygon fill="black" stroke="black" points="380.514,-353.783 369.93,-353.298 377.901,-360.277 380.514,-353.783"/>
</g>
<!-- MX -->
<g id="node12" class="node"><title>MX</title>
<ellipse fill="none" stroke="black" cx="517.041" cy="-188.61" rx="60.623" ry="26.7407"/>
<text text-anchor="middle" x="517.041" y="-192.41" font-family="Times,serif" font-size="14.00">MiniX 10: </text>
<text text-anchor="middle" x="517.041" y="-177.41" font-family="Times,serif" font-size="14.00">Final Project</text>
</g>
<!-- GS&#45;&gt;MX -->
<g id="edge18" class="edge"><title>GS&#45;&gt;MX</title>
<path fill="none" stroke="black" d="M517.041,-395.362C517.041,-359.182 517.041,-274.277 517.041,-225.596"/>
<polygon fill="black" stroke="black" points="520.541,-225.499 517.041,-215.499 513.541,-225.499 520.541,-225.499"/>
</g>
<!-- ST -->
<g id="node3" class="node"><title>ST</title>
<ellipse fill="none" stroke="black" cx="428.041" cy="-341.48" rx="31.6951" ry="18"/>
<text text-anchor="middle" x="428.041" y="-337.78" font-family="Times,serif" font-size="14.00">start()</text>
</g>
<!-- SU&#45;&gt;ST -->
<g id="edge2" class="edge"><title>SU&#45;&gt;ST</title>
<path fill="none" stroke="black" d="M378.236,-341.48C380.846,-341.48 383.457,-341.48 386.067,-341.48"/>
<polygon fill="black" stroke="black" points="386.135,-344.98 396.135,-341.48 386.135,-337.98 386.135,-344.98"/>
</g>
<!-- IO -->
<g id="node4" class="node"><title>IO</title>
<ellipse fill="none" stroke="black" cx="102.041" cy="-269.48" rx="102.082" ry="18"/>
<text text-anchor="middle" x="102.041" y="-265.78" font-family="Times,serif" font-size="14.00">Between input and output</text>
</g>
<!-- SU&#45;&gt;IO -->
<g id="edge3" class="edge"><title>SU&#45;&gt;IO</title>
<path fill="none" stroke="black" d="M313.005,-331.756C275.466,-320.853 210.324,-301.932 162.331,-287.992"/>
<polygon fill="black" stroke="black" points="163.25,-284.614 152.67,-285.186 161.297,-291.336 163.25,-284.614"/>
</g>
<!-- MW -->
<g id="node11" class="node"><title>MW</title>
<ellipse fill="none" stroke="black" cx="428.041" cy="-107.74" rx="38.1938" ry="18"/>
<text text-anchor="middle" x="428.041" y="-104.04" font-family="Times,serif" font-size="14.00">While()</text>
</g>
<!-- SU&#45;&gt;MW -->
<g id="edge6" class="edge"><title>SU&#45;&gt;MW</title>
<path fill="none" stroke="black" d="M357.516,-315.296C362.175,-306.639 367.137,-296.782 371.041,-287.48 392.973,-235.223 411.424,-171.429 420.994,-135.923"/>
<polygon fill="black" stroke="black" points="354.405,-313.69 352.643,-324.137 360.535,-317.069 354.405,-313.69"/>
<polygon fill="black" stroke="black" points="424.483,-136.42 423.672,-125.856 417.718,-134.62 424.483,-136.42"/>
</g>
<!-- ST&#45;&gt;MW -->
<g id="edge16" class="edge"><title>ST&#45;&gt;MW</title>
<path fill="none" stroke="black" d="M428.041,-323.44C428.041,-283.597 428.041,-184.082 428.041,-135.827"/>
<polygon fill="black" stroke="black" points="431.541,-135.805 428.041,-125.805 424.541,-135.806 431.541,-135.805"/>
</g>
<!-- EiC -->
<g id="node5" class="node"><title>EiC</title>
<ellipse fill="none" stroke="black" cx="292.041" cy="-269.48" rx="69.5877" ry="18"/>
<text text-anchor="middle" x="292.041" y="-265.78" font-family="Times,serif" font-size="14.00">Exercise in class</text>
</g>
<!-- IO&#45;&gt;EiC -->
<g id="edge4" class="edge"><title>IO&#45;&gt;EiC</title>
<path fill="none" stroke="black" d="M204.092,-269.48C206.747,-269.48 209.402,-269.48 212.058,-269.48"/>
<polygon fill="black" stroke="black" points="212.3,-272.98 222.3,-269.48 212.3,-265.98 212.3,-272.98"/>
</g>
<!-- LA -->
<g id="node6" class="node"><title>LA</title>
<ellipse fill="none" stroke="black" cx="221.041" cy="-188.61" rx="85.2851" ry="18"/>
<text text-anchor="middle" x="221.041" y="-184.91" font-family="Times,serif" font-size="14.00">Learning Algorithms</text>
</g>
<!-- IO&#45;&gt;LA -->
<g id="edge11" class="edge"><title>IO&#45;&gt;LA</title>
<path fill="none" stroke="black" d="M126.987,-251.946C144.718,-240.195 168.713,-224.292 188.029,-211.49"/>
<polygon fill="black" stroke="black" points="190.133,-214.294 196.535,-205.852 186.266,-208.459 190.133,-214.294"/>
</g>
<!-- EiC&#45;&gt;LA -->
<g id="edge8" class="edge"><title>EiC&#45;&gt;LA</title>
<path fill="none" stroke="black" d="M276.984,-251.754C267.167,-240.849 254.185,-226.429 243.199,-214.225"/>
<polygon fill="black" stroke="black" points="245.613,-211.675 236.321,-206.584 240.411,-216.358 245.613,-211.675"/>
</g>
<!-- LA&#45;&gt;LA -->
<g id="edge9" class="edge"><title>LA&#45;&gt;LA</title>
<path fill="none" stroke="black" d="M282.296,-203.574C305.256,-204.091 324.183,-199.103 324.183,-188.61 324.183,-178.117 305.256,-173.129 282.296,-173.647"/>
<polygon fill="black" stroke="black" points="282.432,-200.076 272.253,-203.015 282.043,-207.065 282.432,-200.076"/>
<polygon fill="black" stroke="black" points="282.043,-170.155 272.253,-174.205 282.432,-177.144 282.043,-170.155"/>
</g>
<!-- ml5 -->
<g id="node7" class="node"><title>ml5</title>
<ellipse fill="none" stroke="black" cx="183.041" cy="-107.74" rx="59.2899" ry="18"/>
<text text-anchor="middle" x="183.041" y="-104.04" font-family="Times,serif" font-size="14.00">ml5.js library</text>
</g>
<!-- LA&#45;&gt;ml5 -->
<g id="edge12" class="edge"><title>LA&#45;&gt;ml5</title>
<path fill="none" stroke="black" d="M212.796,-170.497C207.816,-160.161 201.367,-146.776 195.746,-135.11"/>
<polygon fill="black" stroke="black" points="198.764,-133.31 191.27,-125.82 192.458,-136.348 198.764,-133.31"/>
</g>
<!-- LA&#45;&gt;MW -->
<g id="edge10" class="edge"><title>LA&#45;&gt;MW</title>
<path fill="none" stroke="black" d="M269.811,-169.028C306.386,-155.093 355.761,-136.28 389.572,-123.397"/>
<polygon fill="black" stroke="black" points="268.562,-165.759 260.463,-172.59 271.054,-172.3 268.562,-165.759"/>
<polygon fill="black" stroke="black" points="391.004,-126.597 399.103,-119.766 388.512,-120.056 391.004,-126.597"/>
</g>
<!-- SC -->
<g id="node8" class="node"><title>SC</title>
<ellipse fill="none" stroke="black" cx="316.041" cy="-107.74" rx="55.7903" ry="18"/>
<text text-anchor="middle" x="316.041" y="-104.04" font-family="Times,serif" font-size="14.00">Source Code</text>
</g>
<!-- ml5&#45;&gt;SC -->
<g id="edge13" class="edge"><title>ml5&#45;&gt;SC</title>
<path fill="none" stroke="black" d="M242.268,-107.74C244.873,-107.74 247.479,-107.74 250.084,-107.74"/>
<polygon fill="black" stroke="black" points="250.135,-111.24 260.135,-107.74 250.134,-104.24 250.135,-111.24"/>
</g>
<!-- RAG -->
<g id="node9" class="node"><title>RAG</title>
<ellipse fill="none" stroke="black" cx="249.041" cy="-26.8701" rx="104.804" ry="26.7407"/>
<text text-anchor="middle" x="249.041" y="-30.6701" font-family="Times,serif" font-size="14.00">Reading </text>
<text text-anchor="middle" x="249.041" y="-15.6701" font-family="Times,serif" font-size="14.00">Auto Chapter Generator</text>
</g>
<!-- ml5&#45;&gt;RAG -->
<g id="edge20" class="edge"><title>ml5&#45;&gt;RAG</title>
<path fill="none" stroke="black" d="M197.038,-90.0138C204.084,-81.5934 212.884,-71.0775 221.23,-61.1043"/>
<polygon fill="black" stroke="black" points="224.05,-63.188 227.783,-53.2728 218.682,-58.6957 224.05,-63.188"/>
</g>
<!-- SC&#45;&gt;RAG -->
<g id="edge14" class="edge"><title>SC&#45;&gt;RAG</title>
<path fill="none" stroke="black" d="M301.832,-90.0138C294.679,-81.5934 285.746,-71.0775 277.273,-61.1043"/>
<polygon fill="black" stroke="black" points="279.762,-58.6281 270.621,-53.2728 274.427,-63.1601 279.762,-58.6281"/>
</g>
<!-- EiC2 -->
<g id="node10" class="node"><title>EiC2</title>
<ellipse fill="none" stroke="black" cx="441.041" cy="-26.8701" rx="69.5877" ry="18"/>
<text text-anchor="middle" x="441.041" y="-23.1701" font-family="Times,serif" font-size="14.00">Exercise in class</text>
</g>
<!-- RAG&#45;&gt;EiC2 -->
<g id="edge15" class="edge"><title>RAG&#45;&gt;EiC2</title>
<path fill="none" stroke="black" d="M354.041,-26.8701C356.478,-26.8701 358.916,-26.8701 361.353,-26.8701"/>
<polygon fill="black" stroke="black" points="361.373,-30.3702 371.373,-26.8701 361.373,-23.3702 361.373,-30.3702"/>
</g>
<!-- MW&#45;&gt;MX -->
<g id="edge19" class="edge"><title>MW&#45;&gt;MX</title>
<path fill="none" stroke="black" d="M445.18,-123.928C455.773,-133.316 469.748,-145.7 482.555,-157.05"/>
<polygon fill="black" stroke="black" points="480.533,-159.934 490.338,-163.947 485.175,-154.695 480.533,-159.934"/>
</g>
<!-- Notes -->
<g id="node14" class="node"><title>Notes</title>
<ellipse fill="none" stroke="black" cx="516.041" cy="-107.74" rx="31.3957" ry="18"/>
<text text-anchor="middle" x="516.041" y="-104.04" font-family="Times,serif" font-size="14.00">Notes</text>
</g>
<!-- MW&#45;&gt;Notes -->
<g id="edge17" class="edge"><title>MW&#45;&gt;Notes</title>
<path fill="none" stroke="black" d="M466.541,-107.74C469.192,-107.74 471.842,-107.74 474.493,-107.74"/>
<polygon fill="black" stroke="black" points="474.717,-111.24 484.717,-107.74 474.717,-104.24 474.717,-111.24"/>
</g>
<!-- RR -->
<g id="node13" class="node"><title>RR</title>
<ellipse fill="none" stroke="black" cx="305.041" cy="-413.48" rx="71.4873" ry="18"/>
<text text-anchor="middle" x="305.041" y="-409.78" font-family="Times,serif" font-size="14.00">Required reading</text>
</g>
<!-- RR&#45;&gt;GS -->
<g id="edge5" class="edge"><title>RR&#45;&gt;GS</title>
<path fill="none" stroke="black" d="M386.738,-413.48C391.637,-413.48 396.536,-413.48 401.435,-413.48"/>
<polygon fill="black" stroke="black" points="386.674,-409.98 376.674,-413.48 386.674,-416.98 386.674,-409.98"/>
<polygon fill="black" stroke="black" points="401.491,-416.98 411.491,-413.48 401.491,-409.98 401.491,-416.98"/>
</g>
<!-- RR&#45;&gt;SU -->
<g id="edge7" class="edge"><title>RR&#45;&gt;SU</title>
<path fill="none" stroke="black" d="M314.24,-395.535C318.674,-387.367 324.089,-377.392 329.022,-368.305"/>
<polygon fill="black" stroke="black" points="332.232,-369.728 333.927,-359.269 326.08,-366.388 332.232,-369.728"/>
</g>
</g>
</svg>
