<?xml version="1.0" encoding="UTF-8" standalone="no"?>
<!DOCTYPE svg PUBLIC "-//W3C//DTD SVG 1.1//EN"
 "http://www.w3.org/Graphics/SVG/1.1/DTD/svg11.dtd">
<!-- Generated by graphviz version 2.38.0 (20140413.2041)
 -->
<!-- Title: G Pages: 1 -->
<svg width="560pt" height="655pt"
 viewBox="0.00 0.00 560.19 655.48" xmlns="http://www.w3.org/2000/svg" xmlns:xlink="http://www.w3.org/1999/xlink">
<g id="graph0" class="graph" transform="scale(1 1) rotate(0) translate(4 651.48)">
<title>G</title>
<polygon fill="white" stroke="none" points="-4,4 -4,-651.48 556.191,-651.48 556.191,4 -4,4"/>
<!-- GS -->
<g id="node1" class="node"><title>GS</title>
<ellipse fill="none" stroke="grey" stroke-width="2" cx="348.51" cy="-629.48" rx="86.3847" ry="18"/>
<text text-anchor="middle" x="348.51" y="-625.78" font-family="Times,serif" font-size="14.00">Ch.8 &#45; Que(e)ry Data</text>
</g>
<!-- SU -->
<g id="node2" class="node"><title>SU</title>
<ellipse fill="none" stroke="black" cx="143.51" cy="-485.48" rx="35.194" ry="18"/>
<text text-anchor="middle" x="143.51" y="-481.78" font-family="Times,serif" font-size="14.00">setup()</text>
</g>
<!-- GS&#45;&gt;SU -->
<g id="edge1" class="edge"><title>GS&#45;&gt;SU</title>
<path fill="none" stroke="black" d="M323.501,-612.221C307.653,-601.842 286.774,-588.027 268.51,-575.48 234.725,-552.271 196.398,-524.812 171.193,-506.595"/>
<polygon fill="black" stroke="black" points="173.006,-503.587 162.853,-500.558 168.902,-509.257 173.006,-503.587"/>
</g>
<!-- MX -->
<g id="node14" class="node"><title>MX</title>
<ellipse fill="none" stroke="black" cx="464.51" cy="-242.87" rx="87.8629" ry="26.7407"/>
<text text-anchor="middle" x="464.51" y="-246.67" font-family="Times,serif" font-size="14.00">MiniX 8: </text>
<text text-anchor="middle" x="464.51" y="-231.67" font-family="Times,serif" font-size="14.00">Working with APIs</text>
</g>
<!-- GS&#45;&gt;MX -->
<g id="edge5" class="edge"><title>GS&#45;&gt;MX</title>
<path fill="none" stroke="black" d="M380.503,-612.707C420.424,-590.507 483.51,-546.008 483.51,-486.48 483.51,-486.48 483.51,-486.48 483.51,-403.61 483.51,-360.769 476.688,-311.914 471.219,-279.635"/>
<polygon fill="black" stroke="black" points="474.664,-279.018 469.502,-269.766 467.768,-280.218 474.664,-279.018"/>
</g>
<!-- RR -->
<g id="node15" class="node"><title>RR</title>
<ellipse fill="none" stroke="black" cx="348.51" cy="-557.48" rx="71.4873" ry="18"/>
<text text-anchor="middle" x="348.51" y="-553.78" font-family="Times,serif" font-size="14.00">Required reading</text>
</g>
<!-- GS&#45;&gt;RR -->
<g id="edge4" class="edge"><title>GS&#45;&gt;RR</title>
<path fill="none" stroke="black" d="M348.51,-611.177C348.51,-603.463 348.51,-594.193 348.51,-585.593"/>
<polygon fill="black" stroke="black" points="352.01,-585.585 348.51,-575.585 345.01,-585.585 352.01,-585.585"/>
</g>
<!-- ST -->
<g id="node3" class="node"><title>ST</title>
<ellipse fill="none" stroke="black" cx="228.51" cy="-485.48" rx="31.6951" ry="18"/>
<text text-anchor="middle" x="228.51" y="-481.78" font-family="Times,serif" font-size="14.00">start()</text>
</g>
<!-- SU&#45;&gt;ST -->
<g id="edge2" class="edge"><title>SU&#45;&gt;ST</title>
<path fill="none" stroke="black" d="M178.705,-485.48C181.315,-485.48 183.925,-485.48 186.536,-485.48"/>
<polygon fill="black" stroke="black" points="186.604,-488.98 196.604,-485.48 186.604,-481.98 186.604,-488.98"/>
</g>
<!-- EiC -->
<g id="node4" class="node"><title>EiC</title>
<ellipse fill="none" stroke="black" cx="347.51" cy="-485.48" rx="69.5877" ry="18"/>
<text text-anchor="middle" x="347.51" y="-481.78" font-family="Times,serif" font-size="14.00">Exercise in class</text>
</g>
<!-- ST&#45;&gt;EiC -->
<g id="edge3" class="edge"><title>ST&#45;&gt;EiC</title>
<path fill="none" stroke="black" d="M260.584,-485.48C263.019,-485.48 265.454,-485.48 267.89,-485.48"/>
<polygon fill="black" stroke="black" points="267.901,-488.98 277.901,-485.48 267.901,-481.98 267.901,-488.98"/>
</g>
<!-- IP -->
<g id="node5" class="node"><title>IP</title>
<ellipse fill="none" stroke="black" cx="189.51" cy="-404.61" rx="130.63" ry="26.7407"/>
<text text-anchor="middle" x="189.51" y="-408.41" font-family="Times,serif" font-size="14.00">Image Processing: </text>
<text text-anchor="middle" x="189.51" y="-393.41" font-family="Times,serif" font-size="14.00">Fetching, Loading and Display</text>
</g>
<!-- ST&#45;&gt;IP -->
<g id="edge8" class="edge"><title>ST&#45;&gt;IP</title>
<path fill="none" stroke="black" d="M220.239,-467.754C216.348,-459.886 211.553,-450.189 206.917,-440.814"/>
<polygon fill="black" stroke="black" points="209.944,-439.039 202.374,-431.626 203.669,-442.142 209.944,-439.039"/>
</g>
<!-- MW -->
<g id="node13" class="node"><title>MW</title>
<ellipse fill="none" stroke="black" cx="348.51" cy="-18" rx="38.1938" ry="18"/>
<text text-anchor="middle" x="348.51" y="-14.3" font-family="Times,serif" font-size="14.00">While()</text>
</g>
<!-- ST&#45;&gt;MW -->
<g id="edge18" class="edge"><title>ST&#45;&gt;MW</title>
<path fill="none" stroke="black" d="M252.372,-473.325C280.616,-459.914 324.48,-438.351 329.51,-431.48 357.97,-392.597 348.51,-372.926 348.51,-324.74 348.51,-324.74 348.51,-324.74 348.51,-161 348.51,-120.996 348.51,-74.6528 348.51,-46.0798"/>
<polygon fill="black" stroke="black" points="352.01,-46.0492 348.51,-36.0493 345.01,-46.0493 352.01,-46.0492"/>
</g>
<!-- SC -->
<g id="node6" class="node"><title>SC</title>
<ellipse fill="none" stroke="black" cx="90.5097" cy="-323.74" rx="55.7903" ry="18"/>
<text text-anchor="middle" x="90.5097" y="-320.04" font-family="Times,serif" font-size="14.00">Source Code</text>
</g>
<!-- IP&#45;&gt;SC -->
<g id="edge9" class="edge"><title>IP&#45;&gt;SC</title>
<path fill="none" stroke="black" d="M157.913,-378.438C145.315,-368.402 130.929,-356.941 118.692,-347.192"/>
<polygon fill="black" stroke="black" points="120.614,-344.248 110.612,-340.755 116.252,-349.723 120.614,-344.248"/>
</g>
<!-- LP -->
<g id="node11" class="node"><title>LP</title>
<ellipse fill="none" stroke="black" cx="220.51" cy="-323.74" rx="55.7903" ry="18"/>
<text text-anchor="middle" x="220.51" y="-320.04" font-family="Times,serif" font-size="14.00">LoadPixels()</text>
</g>
<!-- IP&#45;&gt;LP -->
<g id="edge11" class="edge"><title>IP&#45;&gt;LP</title>
<path fill="none" stroke="black" d="M199.66,-377.785C203.011,-369.261 206.742,-359.769 210.11,-351.198"/>
<polygon fill="black" stroke="black" points="213.454,-352.259 213.855,-341.672 206.939,-349.698 213.454,-352.259"/>
</g>
<!-- EiC2 -->
<g id="node7" class="node"><title>EiC2</title>
<ellipse fill="none" stroke="black" cx="90.5097" cy="-242.87" rx="90.5193" ry="26.7407"/>
<text text-anchor="middle" x="90.5097" y="-246.67" font-family="Times,serif" font-size="14.00">Exercise: </text>
<text text-anchor="middle" x="90.5097" y="-231.67" font-family="Times,serif" font-size="14.00">Accesing Web APIs</text>
</g>
<!-- SC&#45;&gt;EiC2 -->
<g id="edge12" class="edge"><title>SC&#45;&gt;EiC2</title>
<path fill="none" stroke="black" d="M90.5097,-305.626C90.5097,-298.137 90.5097,-289.046 90.5097,-280.168"/>
<polygon fill="black" stroke="black" points="94.0098,-279.953 90.5097,-269.953 87.0098,-279.953 94.0098,-279.953"/>
</g>
<!-- SC&#45;&gt;LP -->
<g id="edge10" class="edge"><title>SC&#45;&gt;LP</title>
<path fill="none" stroke="black" d="M146.623,-323.74C149.233,-323.74 151.842,-323.74 154.452,-323.74"/>
<polygon fill="black" stroke="black" points="154.517,-327.24 164.517,-323.74 154.517,-320.24 154.517,-327.24"/>
</g>
<!-- API -->
<g id="node8" class="node"><title>API</title>
<ellipse fill="none" stroke="black" cx="90.5097" cy="-162" rx="28.6953" ry="18"/>
<text text-anchor="middle" x="90.5097" y="-158.3" font-family="Times,serif" font-size="14.00">APIs</text>
</g>
<!-- EiC2&#45;&gt;API -->
<g id="edge13" class="edge"><title>EiC2&#45;&gt;API</title>
<path fill="none" stroke="black" d="M90.5097,-215.607C90.5097,-207.506 90.5097,-198.568 90.5097,-190.392"/>
<polygon fill="black" stroke="black" points="94.0098,-190.22 90.5097,-180.22 87.0098,-190.22 94.0098,-190.22"/>
</g>
<!-- QD -->
<g id="node9" class="node"><title>QD</title>
<ellipse fill="none" stroke="black" cx="90.5097" cy="-90" rx="72.5877" ry="18"/>
<text text-anchor="middle" x="90.5097" y="-86.3" font-family="Times,serif" font-size="14.00">Que(e)rying Data</text>
</g>
<!-- API&#45;&gt;QD -->
<g id="edge14" class="edge"><title>API&#45;&gt;QD</title>
<path fill="none" stroke="black" d="M90.5097,-143.697C90.5097,-135.983 90.5097,-126.712 90.5097,-118.112"/>
<polygon fill="black" stroke="black" points="94.0098,-118.104 90.5097,-108.104 87.0098,-118.104 94.0098,-118.104"/>
</g>
<!-- EiC3 -->
<g id="node10" class="node"><title>EiC3</title>
<ellipse fill="none" stroke="black" cx="250.51" cy="-90" rx="69.5877" ry="18"/>
<text text-anchor="middle" x="250.51" y="-86.3" font-family="Times,serif" font-size="14.00">Exercise in class</text>
</g>
<!-- QD&#45;&gt;EiC3 -->
<g id="edge15" class="edge"><title>QD&#45;&gt;EiC3</title>
<path fill="none" stroke="black" d="M163.322,-90C165.765,-90 168.207,-90 170.65,-90"/>
<polygon fill="black" stroke="black" points="170.692,-93.5001 180.692,-90 170.692,-86.5001 170.692,-93.5001"/>
</g>
<!-- ER -->
<g id="node12" class="node"><title>ER</title>
<ellipse fill="none" stroke="black" cx="143.51" cy="-18" rx="96.6831" ry="18"/>
<text text-anchor="middle" x="143.51" y="-14.3" font-family="Times,serif" font-size="14.00">Different types of errors</text>
</g>
<!-- QD&#45;&gt;ER -->
<g id="edge16" class="edge"><title>QD&#45;&gt;ER</title>
<path fill="none" stroke="black" d="M103.339,-72.055C109.626,-63.7526 117.325,-53.5837 124.295,-44.3778"/>
<polygon fill="black" stroke="black" points="127.184,-46.3606 130.43,-36.2753 121.603,-42.1352 127.184,-46.3606"/>
</g>
<!-- ER&#45;&gt;MW -->
<g id="edge17" class="edge"><title>ER&#45;&gt;MW</title>
<path fill="none" stroke="black" d="M240.404,-18C260.273,-18 280.142,-18 300.011,-18"/>
<polygon fill="black" stroke="black" points="300.082,-21.5001 310.082,-18 300.082,-14.5001 300.082,-21.5001"/>
</g>
<!-- MW&#45;&gt;MX -->
<g id="edge20" class="edge"><title>MW&#45;&gt;MX</title>
<path fill="none" stroke="black" d="M357.23,-35.7543C376.149,-72.1042 421.292,-158.837 446.575,-207.411"/>
<polygon fill="black" stroke="black" points="443.481,-209.05 451.203,-216.304 449.691,-205.818 443.481,-209.05"/>
</g>
<!-- Notes -->
<g id="node16" class="node"><title>Notes</title>
<ellipse fill="none" stroke="black" cx="436.51" cy="-18" rx="31.3957" ry="18"/>
<text text-anchor="middle" x="436.51" y="-14.3" font-family="Times,serif" font-size="14.00">Notes</text>
</g>
<!-- MW&#45;&gt;Notes -->
<g id="edge19" class="edge"><title>MW&#45;&gt;Notes</title>
<path fill="none" stroke="black" d="M387.01,-18C389.66,-18 392.311,-18 394.962,-18"/>
<polygon fill="black" stroke="black" points="395.185,-21.5001 405.185,-18 395.185,-14.5001 395.185,-21.5001"/>
</g>
<!-- RR&#45;&gt;SU -->
<g id="edge7" class="edge"><title>RR&#45;&gt;SU</title>
<path fill="none" stroke="black" d="M305.597,-543.006C273.046,-532.628 227.273,-517.696 187.51,-503.48 184.994,-502.581 182.405,-501.634 179.802,-500.668"/>
<polygon fill="black" stroke="black" points="181.013,-497.384 170.421,-497.126 178.54,-503.933 181.013,-497.384"/>
</g>
<!-- RR&#45;&gt;MX -->
<g id="edge6" class="edge"><title>RR&#45;&gt;MX</title>
<path fill="none" stroke="black" d="M382.33,-541.596C398.289,-532.815 416.08,-520.129 426.51,-503.48 470.175,-433.78 471.148,-333.253 467.93,-280.058"/>
<polygon fill="black" stroke="black" points="471.4,-279.498 467.218,-269.763 464.417,-279.981 471.4,-279.498"/>
</g>
</g>
</svg>
