<?xml version="1.0" encoding="UTF-8" standalone="no"?>
<!DOCTYPE svg PUBLIC "-//W3C//DTD SVG 1.1//EN"
 "http://www.w3.org/Graphics/SVG/1.1/DTD/svg11.dtd">
<!-- Generated by graphviz version 2.38.0 (20140413.2041)
 -->
<!-- Title: G Pages: 1 -->
<svg width="742pt" height="644pt"
 viewBox="0.00 0.00 741.99 643.65" xmlns="http://www.w3.org/2000/svg" xmlns:xlink="http://www.w3.org/1999/xlink">
<g id="graph0" class="graph" transform="scale(1 1) rotate(0) translate(4 639.647)">
<title>G</title>
<polygon fill="white" stroke="none" points="-4,4 -4,-639.647 737.987,-639.647 737.987,4 -4,4"/>
<!-- GS -->
<g id="node1" class="node"><title>GS</title>
<polygon fill="none" stroke="black" points="671.323,-635.647 540.323,-635.647 540.323,-599.647 671.323,-599.647 671.323,-635.647"/>
<text text-anchor="middle" x="605.823" y="-613.947" font-family="Hershey-Noailles-help-me" font-size="14.00">8. Que(e)ry data</text>
</g>
<!-- SU -->
<g id="node2" class="node"><title>SU</title>
<ellipse fill="none" stroke="black" cx="513.823" cy="-545.647" rx="42.4939" ry="18"/>
<text text-anchor="middle" x="513.823" y="-541.947" font-family="Hershey-Noailles-help-me" font-size="14.00">setup()</text>
</g>
<!-- GS&#45;&gt;SU -->
<g id="edge1" class="edge"><title>GS&#45;&gt;SU</title>
<path fill="none" stroke="black" d="M583.082,-599.343C570.598,-589.845 555.013,-577.987 541.79,-567.926"/>
<polygon fill="black" stroke="black" points="543.576,-564.886 533.498,-561.617 539.337,-570.457 543.576,-564.886"/>
</g>
<!-- MX -->
<g id="node14" class="node"><title>MX</title>
<ellipse fill="none" stroke="black" cx="621.823" cy="-292.43" rx="102.561" ry="37.4533"/>
<text text-anchor="middle" x="621.823" y="-303.73" font-family="Hershey-Noailles-help-me" font-size="14.00">MiniX: </text>
<text text-anchor="middle" x="621.823" y="-288.73" font-family="Hershey-Noailles-help-me" font-size="14.00">Working with APIs</text>
<text text-anchor="middle" x="621.823" y="-273.73" font-family="Hershey-Noailles-help-me" font-size="14.00">(in a group)</text>
</g>
<!-- GS&#45;&gt;MX -->
<g id="edge6" class="edge"><title>GS&#45;&gt;MX</title>
<path fill="none" stroke="black" d="M622.863,-599.633C653.184,-567.742 714.576,-495.333 727.823,-419.647 731.941,-396.12 738.97,-387.031 727.823,-365.907 719.822,-350.743 707.062,-338.15 693.124,-327.95"/>
<polygon fill="black" stroke="black" points="695.029,-325.012 684.809,-322.22 691.057,-330.776 695.029,-325.012"/>
</g>
<!-- RR -->
<g id="node15" class="node"><title>RR</title>
<ellipse fill="none" stroke="black" cx="605.823" cy="-473.647" rx="87.1846" ry="18"/>
<text text-anchor="middle" x="605.823" y="-469.947" font-family="Hershey-Noailles-help-me" font-size="14.00">Required reading</text>
</g>
<!-- GS&#45;&gt;RR -->
<g id="edge4" class="edge"><title>GS&#45;&gt;RR</title>
<path fill="none" stroke="black" d="M605.823,-589.326C605.823,-564.246 605.823,-527.274 605.823,-502.14"/>
<polygon fill="black" stroke="black" points="602.323,-589.518 605.823,-599.518 609.323,-589.518 602.323,-589.518"/>
<polygon fill="black" stroke="black" points="609.323,-501.836 605.823,-491.836 602.323,-501.836 609.323,-501.836"/>
</g>
<!-- ST -->
<g id="node3" class="node"><title>ST</title>
<ellipse fill="none" stroke="black" cx="239.823" cy="-473.647" rx="38.9931" ry="18"/>
<text text-anchor="middle" x="239.823" y="-469.947" font-family="Hershey-Noailles-help-me" font-size="14.00">start()</text>
</g>
<!-- SU&#45;&gt;ST -->
<g id="edge2" class="edge"><title>SU&#45;&gt;ST</title>
<path fill="none" stroke="black" d="M476.303,-537.169C431.195,-527.876 353.37,-510.876 287.823,-491.647 284.865,-490.779 281.822,-489.832 278.772,-488.844"/>
<polygon fill="black" stroke="black" points="279.697,-485.462 269.103,-485.592 277.465,-492.097 279.697,-485.462"/>
</g>
<!-- MW -->
<g id="node13" class="node"><title>MW</title>
<ellipse fill="none" stroke="black" cx="490.823" cy="-18" rx="43.5923" ry="18"/>
<text text-anchor="middle" x="490.823" y="-14.3" font-family="Hershey-Noailles-help-me" font-size="14.00">While()</text>
</g>
<!-- SU&#45;&gt;MW -->
<g id="edge5" class="edge"><title>SU&#45;&gt;MW</title>
<path fill="none" stroke="black" d="M507.142,-517.453C500.351,-487.389 490.823,-437.432 490.823,-393.777 490.823,-393.777 490.823,-393.777 490.823,-180.477 490.823,-133.582 490.823,-79.0265 490.823,-46.8444"/>
<polygon fill="black" stroke="black" points="503.823,-518.633 509.497,-527.58 510.641,-517.047 503.823,-518.633"/>
<polygon fill="black" stroke="black" points="494.323,-46.4434 490.823,-36.4435 487.323,-46.4435 494.323,-46.4434"/>
</g>
<!-- EiC -->
<g id="node4" class="node"><title>EiC</title>
<ellipse fill="none" stroke="black" cx="379.823" cy="-473.647" rx="82.5854" ry="18"/>
<text text-anchor="middle" x="379.823" y="-469.947" font-family="Hershey-Noailles-help-me" font-size="14.00">Exercise in class</text>
</g>
<!-- ST&#45;&gt;EiC -->
<g id="edge3" class="edge"><title>ST&#45;&gt;EiC</title>
<path fill="none" stroke="black" d="M278.925,-473.647C281.569,-473.647 284.213,-473.647 286.857,-473.647"/>
<polygon fill="black" stroke="black" points="287.055,-477.147 297.055,-473.647 287.055,-470.147 287.055,-477.147"/>
</g>
<!-- IP -->
<g id="node5" class="node"><title>IP</title>
<ellipse fill="none" stroke="black" cx="239.823" cy="-392.777" rx="149.813" ry="26.7407"/>
<text text-anchor="middle" x="239.823" y="-396.577" font-family="Hershey-Noailles-help-me" font-size="14.00">Image processing: </text>
<text text-anchor="middle" x="239.823" y="-381.577" font-family="Hershey-Noailles-help-me" font-size="14.00">fetching, loading and display</text>
</g>
<!-- ST&#45;&gt;IP -->
<g id="edge9" class="edge"><title>ST&#45;&gt;IP</title>
<path fill="none" stroke="black" d="M239.823,-455.533C239.823,-448.044 239.823,-438.952 239.823,-430.075"/>
<polygon fill="black" stroke="black" points="243.323,-429.86 239.823,-419.86 236.323,-429.86 243.323,-429.86"/>
</g>
<!-- ST&#45;&gt;MW -->
<g id="edge19" class="edge"><title>ST&#45;&gt;MW</title>
<path fill="none" stroke="black" d="M279.396,-458.538C282.245,-457.551 285.076,-456.579 287.823,-455.647 336.938,-438.988 362.676,-456.838 398.823,-419.647 439.566,-377.727 435.823,-351.887 435.823,-293.43 435.823,-293.43 435.823,-293.43 435.823,-180.477 435.823,-130.287 459.926,-75.7839 476.22,-44.6725"/>
<polygon fill="black" stroke="black" points="278.024,-455.309 269.738,-461.913 280.333,-461.918 278.024,-455.309"/>
<polygon fill="black" stroke="black" points="479.338,-46.2641 480.99,-35.7989 473.172,-42.9493 479.338,-46.2641"/>
</g>
<!-- SC -->
<g id="node6" class="node"><title>SC</title>
<ellipse fill="none" stroke="black" cx="192.823" cy="-292.43" rx="64.9885" ry="18"/>
<text text-anchor="middle" x="192.823" y="-288.73" font-family="Hershey-Noailles-help-me" font-size="14.00">Source code</text>
</g>
<!-- IP&#45;&gt;SC -->
<g id="edge10" class="edge"><title>IP&#45;&gt;SC</title>
<path fill="none" stroke="black" d="M227.475,-365.937C220.668,-351.695 212.238,-334.054 205.396,-319.738"/>
<polygon fill="black" stroke="black" points="208.423,-317.955 200.953,-310.441 202.107,-320.973 208.423,-317.955"/>
</g>
<!-- LP -->
<g id="node11" class="node"><title>LP</title>
<ellipse fill="none" stroke="black" cx="285.823" cy="-181.477" rx="64.189" ry="18"/>
<text text-anchor="middle" x="285.823" y="-177.777" font-family="Hershey-Noailles-help-me" font-size="14.00">LoadPixels()</text>
</g>
<!-- IP&#45;&gt;LP -->
<g id="edge12" class="edge"><title>IP&#45;&gt;LP</title>
<path fill="none" stroke="black" d="M253.079,-365.882C258.117,-355.023 263.449,-342.106 266.823,-329.907 278.158,-288.924 282.773,-239.624 284.623,-209.69"/>
<polygon fill="black" stroke="black" points="288.124,-209.768 285.186,-199.589 281.135,-209.378 288.124,-209.768"/>
</g>
<!-- EiC2 -->
<g id="node7" class="node"><title>EiC2</title>
<ellipse fill="none" stroke="black" cx="101.823" cy="-181.477" rx="101.647" ry="37.4533"/>
<text text-anchor="middle" x="101.823" y="-192.777" font-family="Hershey-Noailles-help-me" font-size="14.00">Exercise:</text>
<text text-anchor="middle" x="101.823" y="-177.777" font-family="Hershey-Noailles-help-me" font-size="14.00">Accesing web APIs</text>
<text text-anchor="middle" x="101.823" y="-162.777" font-family="Hershey-Noailles-help-me" font-size="14.00">(step by step)</text>
</g>
<!-- SC&#45;&gt;EiC2 -->
<g id="edge13" class="edge"><title>SC&#45;&gt;EiC2</title>
<path fill="none" stroke="black" d="M178.605,-274.406C167.594,-261.223 151.847,-242.369 137.476,-225.163"/>
<polygon fill="black" stroke="black" points="140.089,-222.831 130.992,-217.4 134.716,-227.318 140.089,-222.831"/>
</g>
<!-- SC&#45;&gt;LP -->
<g id="edge11" class="edge"><title>SC&#45;&gt;LP</title>
<path fill="none" stroke="black" d="M207.355,-274.406C222.779,-256.336 247.298,-227.61 264.823,-207.08"/>
<polygon fill="black" stroke="black" points="267.564,-209.259 271.394,-199.381 262.24,-204.715 267.564,-209.259"/>
</g>
<!-- API -->
<g id="node8" class="node"><title>API</title>
<ellipse fill="none" stroke="black" cx="101.823" cy="-90" rx="30.5947" ry="18"/>
<text text-anchor="middle" x="101.823" y="-86.3" font-family="Hershey-Noailles-help-me" font-size="14.00">APIs</text>
</g>
<!-- EiC2&#45;&gt;API -->
<g id="edge14" class="edge"><title>EiC2&#45;&gt;API</title>
<path fill="none" stroke="black" d="M101.823,-143.825C101.823,-135.331 101.823,-126.434 101.823,-118.416"/>
<polygon fill="black" stroke="black" points="105.323,-118.146 101.823,-108.146 98.3235,-118.146 105.323,-118.146"/>
</g>
<!-- QD -->
<g id="node9" class="node"><title>QD</title>
<ellipse fill="none" stroke="black" cx="237.823" cy="-90" rx="87.1846" ry="18"/>
<text text-anchor="middle" x="237.823" y="-86.3" font-family="Hershey-Noailles-help-me" font-size="14.00">Que(e)rying data</text>
</g>
<!-- API&#45;&gt;QD -->
<g id="edge15" class="edge"><title>API&#45;&gt;QD</title>
<path fill="none" stroke="black" d="M132.636,-90C135.272,-90 137.909,-90 140.545,-90"/>
<polygon fill="black" stroke="black" points="140.715,-93.5001 150.715,-90 140.715,-86.5001 140.715,-93.5001"/>
</g>
<!-- EiC3 -->
<g id="node10" class="node"><title>EiC3</title>
<ellipse fill="none" stroke="black" cx="101.823" cy="-18" rx="82.5854" ry="18"/>
<text text-anchor="middle" x="101.823" y="-14.3" font-family="Hershey-Noailles-help-me" font-size="14.00">Exercise in class</text>
</g>
<!-- QD&#45;&gt;EiC3 -->
<g id="edge16" class="edge"><title>QD&#45;&gt;EiC3</title>
<path fill="none" stroke="black" d="M206.963,-73.1159C187.575,-63.1367 162.376,-50.1668 141.508,-39.4261"/>
<polygon fill="black" stroke="black" points="143.055,-36.2857 132.562,-34.8212 139.851,-42.5097 143.055,-36.2857"/>
</g>
<!-- ER -->
<g id="node12" class="node"><title>ER</title>
<ellipse fill="none" stroke="black" cx="315.823" cy="-18" rx="113.98" ry="18"/>
<text text-anchor="middle" x="315.823" y="-14.3" font-family="Hershey-Noailles-help-me" font-size="14.00">Different types of bugs</text>
</g>
<!-- QD&#45;&gt;ER -->
<g id="edge17" class="edge"><title>QD&#45;&gt;ER</title>
<path fill="none" stroke="black" d="M256.705,-72.055C266.573,-63.1988 278.808,-52.2188 289.583,-42.5492"/>
<polygon fill="black" stroke="black" points="292.011,-45.073 297.116,-35.789 287.335,-39.8633 292.011,-45.073"/>
</g>
<!-- ER&#45;&gt;MW -->
<g id="edge18" class="edge"><title>ER&#45;&gt;MW</title>
<path fill="none" stroke="black" d="M429.642,-18C431.972,-18 434.302,-18 436.632,-18"/>
<polygon fill="black" stroke="black" points="436.849,-21.5001 446.849,-18 436.849,-14.5001 436.849,-21.5001"/>
</g>
<!-- MW&#45;&gt;MX -->
<g id="edge21" class="edge"><title>MW&#45;&gt;MX</title>
<path fill="none" stroke="black" d="M498.85,-35.6922C518.649,-76.8665 570.36,-184.405 600.038,-246.126"/>
<polygon fill="black" stroke="black" points="596.94,-247.758 604.428,-255.253 603.248,-244.724 596.94,-247.758"/>
</g>
<!-- Notes -->
<g id="node17" class="node"><title>Notes</title>
<ellipse fill="none" stroke="black" cx="588.823" cy="-18" rx="36.2938" ry="18"/>
<text text-anchor="middle" x="588.823" y="-14.3" font-family="Hershey-Noailles-help-me" font-size="14.00">Notes</text>
</g>
<!-- MW&#45;&gt;Notes -->
<g id="edge20" class="edge"><title>MW&#45;&gt;Notes</title>
<path fill="none" stroke="black" d="M534.464,-18C537.065,-18 539.666,-18 542.268,-18"/>
<polygon fill="black" stroke="black" points="542.301,-21.5001 552.301,-18 542.301,-14.5001 542.301,-21.5001"/>
</g>
<!-- RR&#45;&gt;SU -->
<g id="edge8" class="edge"><title>RR&#45;&gt;SU</title>
<path fill="none" stroke="black" d="M583.97,-491.275C571.358,-500.87 555.367,-513.038 541.839,-523.331"/>
<polygon fill="black" stroke="black" points="539.625,-520.617 533.786,-529.458 543.864,-526.188 539.625,-520.617"/>
</g>
<!-- RR&#45;&gt;MX -->
<g id="edge7" class="edge"><title>RR&#45;&gt;MX</title>
<path fill="none" stroke="black" d="M579.699,-456.347C567.583,-447.206 554.426,-434.624 547.823,-419.647 538.189,-397.792 538.569,-387.925 547.823,-365.907 552.772,-354.134 560.669,-343.315 569.499,-333.828"/>
<polygon fill="black" stroke="black" points="572.194,-336.08 576.741,-326.511 567.219,-331.156 572.194,-336.08"/>
</g>
<!-- FR -->
<g id="node16" class="node"><title>FR</title>
<ellipse fill="none" stroke="black" cx="637.823" cy="-392.777" rx="81.4863" ry="18"/>
<text text-anchor="middle" x="637.823" y="-389.077" font-family="Hershey-Noailles-help-me" font-size="14.00">Further reading</text>
</g>
<!-- RR&#45;&gt;FR -->
<g id="edge22" class="edge"><title>RR&#45;&gt;FR</title>
<path fill="none" stroke="black" d="M612.767,-455.533C616.96,-445.198 622.391,-431.813 627.124,-420.147"/>
<polygon fill="black" stroke="black" points="630.377,-421.439 630.893,-410.857 623.89,-418.807 630.377,-421.439"/>
</g>
</g>
</svg>
