<?xml version="1.0" encoding="UTF-8" standalone="no"?>
<!DOCTYPE svg PUBLIC "-//W3C//DTD SVG 1.1//EN"
 "http://www.w3.org/Graphics/SVG/1.1/DTD/svg11.dtd">
<!-- Generated by graphviz version 2.38.0 (20140413.2041)
 -->
<!-- Title: G Pages: 1 -->
<svg width="756pt" height="622pt"
 viewBox="0.00 0.00 756.04 622.43" xmlns="http://www.w3.org/2000/svg" xmlns:xlink="http://www.w3.org/1999/xlink">
<g id="graph0" class="graph" transform="scale(1 1) rotate(0) translate(4 618.434)">
<title>G</title>
<polygon fill="white" stroke="none" points="-4,4 -4,-618.434 752.042,-618.434 752.042,4 -4,4"/>
<!-- GS -->
<g id="node1" class="node"><title>GS</title>
<ellipse fill="none" stroke="grey" stroke-width="2" cx="634.128" cy="-596.434" rx="86.3847" ry="18"/>
<text text-anchor="middle" x="634.128" y="-592.734" font-family="Times,serif" font-size="14.00">Ch.8 &#45; Que(e)ry Data</text>
</g>
<!-- SU -->
<g id="node2" class="node"><title>SU</title>
<ellipse fill="none" stroke="black" cx="553.128" cy="-524.434" rx="35.194" ry="18"/>
<text text-anchor="middle" x="553.128" y="-520.734" font-family="Times,serif" font-size="14.00">setup()</text>
</g>
<!-- GS&#45;&gt;SU -->
<g id="edge1" class="edge"><title>GS&#45;&gt;SU</title>
<path fill="none" stroke="black" d="M614.933,-578.845C603.909,-569.318 589.943,-557.248 578.076,-546.993"/>
<polygon fill="black" stroke="black" points="580.113,-544.128 570.259,-540.237 575.536,-549.424 580.113,-544.128"/>
</g>
<!-- MX -->
<g id="node14" class="node"><title>MX</title>
<ellipse fill="none" stroke="black" cx="651.128" cy="-271.217" rx="87.8629" ry="37.4533"/>
<text text-anchor="middle" x="651.128" y="-282.517" font-family="Times,serif" font-size="14.00">MiniX: </text>
<text text-anchor="middle" x="651.128" y="-267.517" font-family="Times,serif" font-size="14.00">Working with APIs</text>
<text text-anchor="middle" x="651.128" y="-252.517" font-family="Times,serif" font-size="14.00">(in a group)</text>
</g>
<!-- GS&#45;&gt;MX -->
<g id="edge6" class="edge"><title>GS&#45;&gt;MX</title>
<path fill="none" stroke="black" d="M648.414,-578.453C674.474,-546.048 728.32,-472.037 742.128,-398.434 746.532,-374.959 752.498,-366.209 742.128,-344.693 735.223,-330.366 723.955,-317.994 711.661,-307.732"/>
<polygon fill="black" stroke="black" points="713.495,-304.721 703.47,-301.293 709.169,-310.225 713.495,-304.721"/>
</g>
<!-- RR -->
<g id="node15" class="node"><title>RR</title>
<ellipse fill="none" stroke="black" cx="634.128" cy="-452.434" rx="71.4873" ry="18"/>
<text text-anchor="middle" x="634.128" y="-448.734" font-family="Times,serif" font-size="14.00">Required reading</text>
</g>
<!-- GS&#45;&gt;RR -->
<g id="edge4" class="edge"><title>GS&#45;&gt;RR</title>
<path fill="none" stroke="black" d="M634.128,-568.113C634.128,-543.033 634.128,-506.061 634.128,-480.926"/>
<polygon fill="black" stroke="black" points="630.629,-568.305 634.128,-578.305 637.629,-568.305 630.629,-568.305"/>
<polygon fill="black" stroke="black" points="637.629,-480.623 634.128,-470.623 630.629,-480.623 637.629,-480.623"/>
</g>
<!-- ST -->
<g id="node3" class="node"><title>ST</title>
<ellipse fill="none" stroke="black" cx="318.128" cy="-452.434" rx="31.6951" ry="18"/>
<text text-anchor="middle" x="318.128" y="-448.734" font-family="Times,serif" font-size="14.00">start()</text>
</g>
<!-- SU&#45;&gt;ST -->
<g id="edge2" class="edge"><title>SU&#45;&gt;ST</title>
<path fill="none" stroke="black" d="M521.658,-516.282C482.775,-507.127 414.811,-490.079 358.128,-470.434 356.043,-469.711 353.912,-468.931 351.773,-468.117"/>
<polygon fill="black" stroke="black" points="353.045,-464.857 342.461,-464.399 350.449,-471.358 353.045,-464.857"/>
</g>
<!-- MW -->
<g id="node13" class="node"><title>MW</title>
<ellipse fill="none" stroke="black" cx="535.128" cy="-18" rx="38.1938" ry="18"/>
<text text-anchor="middle" x="535.128" y="-14.3" font-family="Times,serif" font-size="14.00">While()</text>
</g>
<!-- SU&#45;&gt;MW -->
<g id="edge5" class="edge"><title>SU&#45;&gt;MW</title>
<path fill="none" stroke="black" d="M547.899,-496.166C542.585,-466.039 535.128,-416.026 535.128,-372.563 535.128,-372.563 535.128,-372.563 535.128,-169.87 535.128,-126.713 535.128,-76.6128 535.128,-46.3839"/>
<polygon fill="black" stroke="black" points="544.512,-497.103 549.743,-506.317 551.4,-495.853 544.512,-497.103"/>
<polygon fill="black" stroke="black" points="538.629,-46.1957 535.128,-36.1957 531.629,-46.1958 538.629,-46.1957"/>
</g>
<!-- EiC -->
<g id="node4" class="node"><title>EiC</title>
<ellipse fill="none" stroke="black" cx="437.128" cy="-452.434" rx="69.5877" ry="18"/>
<text text-anchor="middle" x="437.128" y="-448.734" font-family="Times,serif" font-size="14.00">Exercise in class</text>
</g>
<!-- ST&#45;&gt;EiC -->
<g id="edge3" class="edge"><title>ST&#45;&gt;EiC</title>
<path fill="none" stroke="black" d="M350.203,-452.434C352.638,-452.434 355.073,-452.434 357.508,-452.434"/>
<polygon fill="black" stroke="black" points="357.52,-455.934 367.52,-452.434 357.52,-448.934 357.52,-455.934"/>
</g>
<!-- IP -->
<g id="node5" class="node"><title>IP</title>
<ellipse fill="none" stroke="black" cx="318.128" cy="-371.563" rx="123.988" ry="26.7407"/>
<text text-anchor="middle" x="318.128" y="-375.363" font-family="Times,serif" font-size="14.00">Image processing: </text>
<text text-anchor="middle" x="318.128" y="-360.363" font-family="Times,serif" font-size="14.00">fetching, loading and display</text>
</g>
<!-- ST&#45;&gt;IP -->
<g id="edge9" class="edge"><title>ST&#45;&gt;IP</title>
<path fill="none" stroke="black" d="M318.128,-434.32C318.128,-426.83 318.128,-417.739 318.128,-408.861"/>
<polygon fill="black" stroke="black" points="321.629,-408.646 318.128,-398.646 314.629,-408.646 321.629,-408.646"/>
</g>
<!-- ST&#45;&gt;MW -->
<g id="edge19" class="edge"><title>ST&#45;&gt;MW</title>
<path fill="none" stroke="black" d="M351.868,-437.002C353.984,-436.126 356.083,-435.264 358.128,-434.434 399.196,-417.763 421.741,-431.612 451.128,-398.434 489.5,-355.112 483.128,-330.088 483.128,-272.217 483.128,-272.217 483.128,-272.217 483.128,-169.87 483.128,-123.822 505.049,-73.9703 520.425,-44.6655"/>
<polygon fill="black" stroke="black" points="350.486,-433.787 342.614,-440.878 353.19,-440.243 350.486,-433.787"/>
<polygon fill="black" stroke="black" points="523.675,-46.0123 525.348,-35.5502 517.516,-42.686 523.675,-46.0123"/>
</g>
<!-- SC -->
<g id="node6" class="node"><title>SC</title>
<ellipse fill="none" stroke="black" cx="276.128" cy="-271.217" rx="53.8905" ry="18"/>
<text text-anchor="middle" x="276.128" y="-267.517" font-family="Times,serif" font-size="14.00">Source code</text>
</g>
<!-- IP&#45;&gt;SC -->
<g id="edge10" class="edge"><title>IP&#45;&gt;SC</title>
<path fill="none" stroke="black" d="M307.093,-344.724C301.011,-330.482 293.477,-312.841 287.364,-298.525"/>
<polygon fill="black" stroke="black" points="290.54,-297.05 283.393,-289.228 284.102,-299.799 290.54,-297.05"/>
</g>
<!-- LP -->
<g id="node11" class="node"><title>LP</title>
<ellipse fill="none" stroke="black" cx="358.128" cy="-170.87" rx="55.7903" ry="18"/>
<text text-anchor="middle" x="358.128" y="-167.17" font-family="Times,serif" font-size="14.00">LoadPixels()</text>
</g>
<!-- IP&#45;&gt;LP -->
<g id="edge12" class="edge"><title>IP&#45;&gt;LP</title>
<path fill="none" stroke="black" d="M328.13,-344.692C332.048,-333.727 336.278,-320.725 339.128,-308.693 348.011,-271.199 353.228,-226.873 355.882,-199.06"/>
<polygon fill="black" stroke="black" points="359.384,-199.188 356.806,-188.912 352.413,-198.553 359.384,-199.188"/>
</g>
<!-- EiC2 -->
<g id="node7" class="node"><title>EiC2</title>
<ellipse fill="none" stroke="black" cx="142.128" cy="-170.87" rx="142.257" ry="26.7407"/>
<text text-anchor="middle" x="142.128" y="-174.67" font-family="Times,serif" font-size="14.00">Exercise: </text>
<text text-anchor="middle" x="142.128" y="-159.67" font-family="Times,serif" font-size="14.00">Accesing web APIs (step by step)</text>
</g>
<!-- SC&#45;&gt;EiC2 -->
<g id="edge13" class="edge"><title>SC&#45;&gt;EiC2</title>
<path fill="none" stroke="black" d="M254.896,-254.633C236.016,-240.777 207.848,-220.104 184.388,-202.886"/>
<polygon fill="black" stroke="black" points="186.442,-200.052 176.309,-196.956 182.3,-205.695 186.442,-200.052"/>
</g>
<!-- SC&#45;&gt;LP -->
<g id="edge11" class="edge"><title>SC&#45;&gt;LP</title>
<path fill="none" stroke="black" d="M290.039,-253.534C303.115,-237.851 322.845,-214.187 337.706,-196.364"/>
<polygon fill="black" stroke="black" points="340.434,-198.557 344.15,-188.635 335.058,-194.074 340.434,-198.557"/>
</g>
<!-- API -->
<g id="node8" class="node"><title>API</title>
<ellipse fill="none" stroke="black" cx="142.128" cy="-90" rx="28.6953" ry="18"/>
<text text-anchor="middle" x="142.128" y="-86.3" font-family="Times,serif" font-size="14.00">APIs</text>
</g>
<!-- EiC2&#45;&gt;API -->
<g id="edge14" class="edge"><title>EiC2&#45;&gt;API</title>
<path fill="none" stroke="black" d="M142.128,-143.607C142.128,-135.506 142.128,-126.568 142.128,-118.392"/>
<polygon fill="black" stroke="black" points="145.629,-118.22 142.128,-108.22 138.629,-118.22 145.629,-118.22"/>
</g>
<!-- QD -->
<g id="node9" class="node"><title>QD</title>
<ellipse fill="none" stroke="black" cx="259.128" cy="-90" rx="70.6878" ry="18"/>
<text text-anchor="middle" x="259.128" y="-86.3" font-family="Times,serif" font-size="14.00">Que(e)rying data</text>
</g>
<!-- API&#45;&gt;QD -->
<g id="edge15" class="edge"><title>API&#45;&gt;QD</title>
<path fill="none" stroke="black" d="M170.921,-90C173.254,-90 175.587,-90 177.92,-90"/>
<polygon fill="black" stroke="black" points="178.149,-93.5001 188.149,-90 178.149,-86.5001 178.149,-93.5001"/>
</g>
<!-- EiC3 -->
<g id="node10" class="node"><title>EiC3</title>
<ellipse fill="none" stroke="black" cx="198.128" cy="-18" rx="69.5877" ry="18"/>
<text text-anchor="middle" x="198.128" y="-14.3" font-family="Times,serif" font-size="14.00">Exercise in class</text>
</g>
<!-- QD&#45;&gt;EiC3 -->
<g id="edge16" class="edge"><title>QD&#45;&gt;EiC3</title>
<path fill="none" stroke="black" d="M244.362,-72.055C236.869,-63.4567 227.632,-52.8566 219.389,-43.3974"/>
<polygon fill="black" stroke="black" points="221.967,-41.0287 212.759,-35.789 216.69,-45.6276 221.967,-41.0287"/>
</g>
<!-- ER -->
<g id="node12" class="node"><title>ER</title>
<ellipse fill="none" stroke="black" cx="382.128" cy="-18" rx="96.6831" ry="18"/>
<text text-anchor="middle" x="382.128" y="-14.3" font-family="Times,serif" font-size="14.00">Different types of errors</text>
</g>
<!-- QD&#45;&gt;ER -->
<g id="edge17" class="edge"><title>QD&#45;&gt;ER</title>
<path fill="none" stroke="black" d="M286.732,-73.2906C303.775,-63.5912 325.869,-51.0174 344.502,-40.4132"/>
<polygon fill="black" stroke="black" points="346.374,-43.3751 353.334,-35.387 342.912,-37.2913 346.374,-43.3751"/>
</g>
<!-- ER&#45;&gt;MW -->
<g id="edge18" class="edge"><title>ER&#45;&gt;MW</title>
<path fill="none" stroke="black" d="M479.248,-18C481.703,-18 484.159,-18 486.615,-18"/>
<polygon fill="black" stroke="black" points="486.71,-21.5001 496.71,-18 486.71,-14.5001 486.71,-21.5001"/>
</g>
<!-- MW&#45;&gt;MX -->
<g id="edge21" class="edge"><title>MW&#45;&gt;MX</title>
<path fill="none" stroke="black" d="M542.873,-35.7722C560.505,-73.9577 604.136,-168.446 630.307,-225.125"/>
<polygon fill="black" stroke="black" points="627.139,-226.612 634.508,-234.224 633.494,-223.677 627.139,-226.612"/>
</g>
<!-- Notes -->
<g id="node17" class="node"><title>Notes</title>
<ellipse fill="none" stroke="black" cx="623.128" cy="-18" rx="31.3957" ry="18"/>
<text text-anchor="middle" x="623.128" y="-14.3" font-family="Times,serif" font-size="14.00">Notes</text>
</g>
<!-- MW&#45;&gt;Notes -->
<g id="edge20" class="edge"><title>MW&#45;&gt;Notes</title>
<path fill="none" stroke="black" d="M573.628,-18C576.279,-18 578.93,-18 581.58,-18"/>
<polygon fill="black" stroke="black" points="581.804,-21.5001 591.804,-18 581.804,-14.5001 581.804,-21.5001"/>
</g>
<!-- RR&#45;&gt;SU -->
<g id="edge8" class="edge"><title>RR&#45;&gt;SU</title>
<path fill="none" stroke="black" d="M614.99,-469.973C603.975,-479.492 590.007,-491.564 578.131,-501.826"/>
<polygon fill="black" stroke="black" points="575.584,-499.402 570.306,-508.588 580.161,-504.698 575.584,-499.402"/>
</g>
<!-- RR&#45;&gt;MX -->
<g id="edge7" class="edge"><title>RR&#45;&gt;MX</title>
<path fill="none" stroke="black" d="M615.963,-434.658C606.919,-425.046 596.916,-412.182 592.128,-398.434 584.275,-375.877 584.127,-367.198 592.128,-344.693 596.038,-333.697 602.409,-323.159 609.549,-313.689"/>
<polygon fill="black" stroke="black" points="612.461,-315.651 615.979,-305.657 606.997,-311.276 612.461,-315.651"/>
</g>
<!-- FR -->
<g id="node16" class="node"><title>FR</title>
<ellipse fill="none" stroke="black" cx="667.128" cy="-371.563" rx="65.7887" ry="18"/>
<text text-anchor="middle" x="667.128" y="-367.863" font-family="Times,serif" font-size="14.00">Further reading</text>
</g>
<!-- RR&#45;&gt;FR -->
<g id="edge22" class="edge"><title>RR&#45;&gt;FR</title>
<path fill="none" stroke="black" d="M641.289,-434.32C645.613,-423.985 651.214,-410.599 656.095,-398.934"/>
<polygon fill="black" stroke="black" points="659.351,-400.22 659.982,-389.644 652.893,-397.518 659.351,-400.22"/>
</g>
</g>
</svg>
