<?xml version="1.0" encoding="UTF-8" standalone="no"?>
<!DOCTYPE svg PUBLIC "-//W3C//DTD SVG 1.1//EN"
 "http://www.w3.org/Graphics/SVG/1.1/DTD/svg11.dtd">
<!-- Generated by graphviz version 2.38.0 (20140413.2041)
 -->
<!-- Title: G Pages: 1 -->
<svg width="641pt" height="601pt"
 viewBox="0.00 0.00 641.19 601.22" xmlns="http://www.w3.org/2000/svg" xmlns:xlink="http://www.w3.org/1999/xlink">
<g id="graph0" class="graph" transform="scale(1 1) rotate(0) translate(4 597.22)">
<title>G</title>
<polygon fill="white" stroke="none" points="-4,4 -4,-597.22 637.191,-597.22 637.191,4 -4,4"/>
<!-- GS -->
<g id="node1" class="node"><title>GS</title>
<ellipse fill="none" stroke="grey" stroke-width="2" cx="528.51" cy="-575.22" rx="86.3847" ry="18"/>
<text text-anchor="middle" x="528.51" y="-571.52" font-family="Times,serif" font-size="14.00">Ch.8 &#45; Que(e)ry Data</text>
</g>
<!-- SU -->
<g id="node2" class="node"><title>SU</title>
<ellipse fill="none" stroke="black" cx="447.51" cy="-503.22" rx="35.194" ry="18"/>
<text text-anchor="middle" x="447.51" y="-499.52" font-family="Times,serif" font-size="14.00">setup()</text>
</g>
<!-- GS&#45;&gt;SU -->
<g id="edge1" class="edge"><title>GS&#45;&gt;SU</title>
<path fill="none" stroke="black" d="M509.314,-557.631C498.291,-548.105 484.324,-536.035 472.457,-525.78"/>
<polygon fill="black" stroke="black" points="474.494,-522.915 464.64,-519.024 469.917,-528.211 474.494,-522.915"/>
</g>
<!-- MX -->
<g id="node14" class="node"><title>MX</title>
<ellipse fill="none" stroke="black" cx="545.51" cy="-260.61" rx="87.8629" ry="26.7407"/>
<text text-anchor="middle" x="545.51" y="-264.41" font-family="Times,serif" font-size="14.00">MiniX 8: </text>
<text text-anchor="middle" x="545.51" y="-249.41" font-family="Times,serif" font-size="14.00">Working with APIs</text>
</g>
<!-- GS&#45;&gt;MX -->
<g id="edge6" class="edge"><title>GS&#45;&gt;MX</title>
<path fill="none" stroke="black" d="M544,-557.205C563.486,-534.532 595.92,-492.248 608.51,-449.22 624.41,-394.88 593.735,-332.76 569.859,-295.393"/>
<polygon fill="black" stroke="black" points="572.693,-293.333 564.275,-286.9 566.844,-297.178 572.693,-293.333"/>
</g>
<!-- RR -->
<g id="node15" class="node"><title>RR</title>
<ellipse fill="none" stroke="black" cx="528.51" cy="-431.22" rx="71.4873" ry="18"/>
<text text-anchor="middle" x="528.51" y="-427.52" font-family="Times,serif" font-size="14.00">Required reading</text>
</g>
<!-- GS&#45;&gt;RR -->
<g id="edge4" class="edge"><title>GS&#45;&gt;RR</title>
<path fill="none" stroke="black" d="M528.51,-546.899C528.51,-521.819 528.51,-484.847 528.51,-459.713"/>
<polygon fill="black" stroke="black" points="525.01,-547.092 528.51,-557.092 532.01,-547.092 525.01,-547.092"/>
<polygon fill="black" stroke="black" points="532.01,-459.41 528.51,-449.41 525.01,-459.41 532.01,-459.41"/>
</g>
<!-- ST -->
<g id="node3" class="node"><title>ST</title>
<ellipse fill="none" stroke="black" cx="212.51" cy="-431.22" rx="31.6951" ry="18"/>
<text text-anchor="middle" x="212.51" y="-427.52" font-family="Times,serif" font-size="14.00">start()</text>
</g>
<!-- SU&#45;&gt;ST -->
<g id="edge2" class="edge"><title>SU&#45;&gt;ST</title>
<path fill="none" stroke="black" d="M416.039,-495.069C377.156,-485.914 309.193,-468.866 252.51,-449.22 250.424,-448.498 248.293,-447.718 246.154,-446.904"/>
<polygon fill="black" stroke="black" points="247.427,-443.644 236.842,-443.185 244.831,-450.144 247.427,-443.644"/>
</g>
<!-- MW -->
<g id="node13" class="node"><title>MW</title>
<ellipse fill="none" stroke="black" cx="429.51" cy="-18" rx="38.1938" ry="18"/>
<text text-anchor="middle" x="429.51" y="-14.3" font-family="Times,serif" font-size="14.00">While()</text>
</g>
<!-- SU&#45;&gt;MW -->
<g id="edge5" class="edge"><title>SU&#45;&gt;MW</title>
<path fill="none" stroke="black" d="M442.281,-474.953C436.966,-444.826 429.51,-394.813 429.51,-351.35 429.51,-351.35 429.51,-351.35 429.51,-169.87 429.51,-126.713 429.51,-76.6128 429.51,-46.3839"/>
<polygon fill="black" stroke="black" points="438.894,-475.89 444.124,-485.104 445.781,-474.639 438.894,-475.89"/>
<polygon fill="black" stroke="black" points="433.01,-46.1957 429.51,-36.1957 426.01,-46.1958 433.01,-46.1957"/>
</g>
<!-- EiC -->
<g id="node4" class="node"><title>EiC</title>
<ellipse fill="none" stroke="black" cx="331.51" cy="-431.22" rx="69.5877" ry="18"/>
<text text-anchor="middle" x="331.51" y="-427.52" font-family="Times,serif" font-size="14.00">Exercise in class</text>
</g>
<!-- ST&#45;&gt;EiC -->
<g id="edge3" class="edge"><title>ST&#45;&gt;EiC</title>
<path fill="none" stroke="black" d="M244.584,-431.22C247.019,-431.22 249.454,-431.22 251.89,-431.22"/>
<polygon fill="black" stroke="black" points="251.901,-434.72 261.901,-431.22 251.901,-427.72 251.901,-434.72"/>
</g>
<!-- IP -->
<g id="node5" class="node"><title>IP</title>
<ellipse fill="none" stroke="black" cx="212.51" cy="-350.35" rx="130.63" ry="26.7407"/>
<text text-anchor="middle" x="212.51" y="-354.15" font-family="Times,serif" font-size="14.00">Image Processing: </text>
<text text-anchor="middle" x="212.51" y="-339.15" font-family="Times,serif" font-size="14.00">Fetching, Loading and Display</text>
</g>
<!-- ST&#45;&gt;IP -->
<g id="edge9" class="edge"><title>ST&#45;&gt;IP</title>
<path fill="none" stroke="black" d="M212.51,-413.107C212.51,-405.617 212.51,-396.526 212.51,-387.648"/>
<polygon fill="black" stroke="black" points="216.01,-387.433 212.51,-377.433 209.01,-387.433 216.01,-387.433"/>
</g>
<!-- ST&#45;&gt;MW -->
<g id="edge19" class="edge"><title>ST&#45;&gt;MW</title>
<path fill="none" stroke="black" d="M246.226,-415.732C248.348,-414.87 250.455,-414.026 252.51,-413.22 296.486,-395.975 320.816,-412.246 352.51,-377.22 388.053,-337.94 381.51,-314.584 381.51,-261.61 381.51,-261.61 381.51,-261.61 381.51,-169.87 381.51,-124.185 401.744,-74.2249 415.937,-44.7995"/>
<polygon fill="black" stroke="black" points="244.857,-412.511 236.959,-419.572 247.537,-418.977 244.857,-412.511"/>
<polygon fill="black" stroke="black" points="419.171,-46.157 420.481,-35.6435 412.901,-43.0451 419.171,-46.157"/>
</g>
<!-- SC -->
<g id="node6" class="node"><title>SC</title>
<ellipse fill="none" stroke="black" cx="170.51" cy="-260.61" rx="55.7903" ry="18"/>
<text text-anchor="middle" x="170.51" y="-256.91" font-family="Times,serif" font-size="14.00">Source Code</text>
</g>
<!-- IP&#45;&gt;SC -->
<g id="edge10" class="edge"><title>IP&#45;&gt;SC</title>
<path fill="none" stroke="black" d="M200.135,-323.5C194.746,-312.24 188.438,-299.063 183.032,-287.769"/>
<polygon fill="black" stroke="black" points="186.033,-285.932 178.558,-278.424 179.719,-288.955 186.033,-285.932"/>
</g>
<!-- LP -->
<g id="node11" class="node"><title>LP</title>
<ellipse fill="none" stroke="black" cx="254.51" cy="-170.87" rx="55.7903" ry="18"/>
<text text-anchor="middle" x="254.51" y="-167.17" font-family="Times,serif" font-size="14.00">LoadPixels()</text>
</g>
<!-- IP&#45;&gt;LP -->
<g id="edge12" class="edge"><title>IP&#45;&gt;LP</title>
<path fill="none" stroke="black" d="M223.382,-323.52C227.66,-312.562 232.306,-299.553 235.51,-287.48 243.427,-257.645 248.635,-222.555 251.563,-198.925"/>
<polygon fill="black" stroke="black" points="255.045,-199.278 252.749,-188.935 248.094,-198.452 255.045,-199.278"/>
</g>
<!-- EiC2 -->
<g id="node7" class="node"><title>EiC2</title>
<ellipse fill="none" stroke="black" cx="90.5097" cy="-170.87" rx="90.5193" ry="26.7407"/>
<text text-anchor="middle" x="90.5097" y="-174.67" font-family="Times,serif" font-size="14.00">Exercise: </text>
<text text-anchor="middle" x="90.5097" y="-159.67" font-family="Times,serif" font-size="14.00">Accesing Web APIs</text>
</g>
<!-- SC&#45;&gt;EiC2 -->
<g id="edge13" class="edge"><title>SC&#45;&gt;EiC2</title>
<path fill="none" stroke="black" d="M155.462,-243.107C145.549,-232.235 132.232,-217.629 120.237,-204.473"/>
<polygon fill="black" stroke="black" points="122.686,-201.965 113.363,-196.934 117.514,-206.682 122.686,-201.965"/>
</g>
<!-- SC&#45;&gt;LP -->
<g id="edge11" class="edge"><title>SC&#45;&gt;LP</title>
<path fill="none" stroke="black" d="M186.309,-243.107C199.098,-229.749 217.283,-210.754 231.659,-195.738"/>
<polygon fill="black" stroke="black" points="234.393,-197.943 238.781,-188.299 229.337,-193.102 234.393,-197.943"/>
</g>
<!-- API -->
<g id="node8" class="node"><title>API</title>
<ellipse fill="none" stroke="black" cx="90.5097" cy="-90" rx="28.6953" ry="18"/>
<text text-anchor="middle" x="90.5097" y="-86.3" font-family="Times,serif" font-size="14.00">APIs</text>
</g>
<!-- EiC2&#45;&gt;API -->
<g id="edge14" class="edge"><title>EiC2&#45;&gt;API</title>
<path fill="none" stroke="black" d="M90.5097,-143.607C90.5097,-135.506 90.5097,-126.568 90.5097,-118.392"/>
<polygon fill="black" stroke="black" points="94.0098,-118.22 90.5097,-108.22 87.0098,-118.22 94.0098,-118.22"/>
</g>
<!-- QD -->
<g id="node9" class="node"><title>QD</title>
<ellipse fill="none" stroke="black" cx="209.51" cy="-90" rx="72.5877" ry="18"/>
<text text-anchor="middle" x="209.51" y="-86.3" font-family="Times,serif" font-size="14.00">Que(e)rying Data</text>
</g>
<!-- API&#45;&gt;QD -->
<g id="edge15" class="edge"><title>API&#45;&gt;QD</title>
<path fill="none" stroke="black" d="M119.33,-90C121.667,-90 124.005,-90 126.342,-90"/>
<polygon fill="black" stroke="black" points="126.591,-93.5001 136.591,-90 126.591,-86.5001 126.591,-93.5001"/>
</g>
<!-- EiC3 -->
<g id="node10" class="node"><title>EiC3</title>
<ellipse fill="none" stroke="black" cx="92.5097" cy="-18" rx="69.5877" ry="18"/>
<text text-anchor="middle" x="92.5097" y="-14.3" font-family="Times,serif" font-size="14.00">Exercise in class</text>
</g>
<!-- QD&#45;&gt;EiC3 -->
<g id="edge16" class="edge"><title>QD&#45;&gt;EiC3</title>
<path fill="none" stroke="black" d="M182.961,-73.1159C166.655,-63.3605 145.572,-50.7469 127.864,-40.1519"/>
<polygon fill="black" stroke="black" points="129.332,-36.9519 118.954,-34.8212 125.738,-42.9589 129.332,-36.9519"/>
</g>
<!-- ER -->
<g id="node12" class="node"><title>ER</title>
<ellipse fill="none" stroke="black" cx="276.51" cy="-18" rx="96.6831" ry="18"/>
<text text-anchor="middle" x="276.51" y="-14.3" font-family="Times,serif" font-size="14.00">Different types of errors</text>
</g>
<!-- QD&#45;&gt;ER -->
<g id="edge17" class="edge"><title>QD&#45;&gt;ER</title>
<path fill="none" stroke="black" d="M225.388,-72.411C233.693,-63.7338 244.019,-52.946 253.211,-43.3418"/>
<polygon fill="black" stroke="black" points="255.894,-45.6005 260.28,-35.9562 250.837,-40.7603 255.894,-45.6005"/>
</g>
<!-- ER&#45;&gt;MW -->
<g id="edge18" class="edge"><title>ER&#45;&gt;MW</title>
<path fill="none" stroke="black" d="M373.629,-18C376.085,-18 378.54,-18 380.996,-18"/>
<polygon fill="black" stroke="black" points="381.092,-21.5001 391.092,-18 381.092,-14.5001 381.092,-21.5001"/>
</g>
<!-- MW&#45;&gt;MX -->
<g id="edge21" class="edge"><title>MW&#45;&gt;MX</title>
<path fill="none" stroke="black" d="M437.643,-35.8714C456.459,-74.8987 503.309,-172.076 528.63,-224.598"/>
<polygon fill="black" stroke="black" points="525.6,-226.373 533.096,-233.861 531.906,-223.333 525.6,-226.373"/>
</g>
<!-- Notes -->
<g id="node16" class="node"><title>Notes</title>
<ellipse fill="none" stroke="black" cx="517.51" cy="-18" rx="31.3957" ry="18"/>
<text text-anchor="middle" x="517.51" y="-14.3" font-family="Times,serif" font-size="14.00">Notes</text>
</g>
<!-- MW&#45;&gt;Notes -->
<g id="edge20" class="edge"><title>MW&#45;&gt;Notes</title>
<path fill="none" stroke="black" d="M468.01,-18C470.66,-18 473.311,-18 475.962,-18"/>
<polygon fill="black" stroke="black" points="476.185,-21.5001 486.185,-18 476.185,-14.5001 476.185,-21.5001"/>
</g>
<!-- RR&#45;&gt;SU -->
<g id="edge8" class="edge"><title>RR&#45;&gt;SU</title>
<path fill="none" stroke="black" d="M509.372,-448.759C498.356,-458.279 484.388,-470.35 472.513,-480.613"/>
<polygon fill="black" stroke="black" points="469.965,-478.188 464.688,-487.375 474.542,-483.485 469.965,-478.188"/>
</g>
<!-- RR&#45;&gt;MX -->
<g id="edge7" class="edge"><title>RR&#45;&gt;MX</title>
<path fill="none" stroke="black" d="M530.233,-413.125C532.953,-386.15 538.299,-333.125 541.889,-297.518"/>
<polygon fill="black" stroke="black" points="545.376,-297.825 542.897,-287.524 538.411,-297.123 545.376,-297.825"/>
</g>
</g>
</svg>
