<?xml version="1.0" encoding="UTF-8" standalone="no"?>
<!DOCTYPE svg PUBLIC "-//W3C//DTD SVG 1.1//EN"
 "http://www.w3.org/Graphics/SVG/1.1/DTD/svg11.dtd">
<!-- Generated by graphviz version 2.38.0 (20140413.2041)
 -->
<!-- Title: G Pages: 1 -->
<svg width="294pt" height="548pt"
 viewBox="0.00 0.00 293.97 548.00" xmlns="http://www.w3.org/2000/svg" xmlns:xlink="http://www.w3.org/1999/xlink">
<g id="graph0" class="graph" transform="scale(1 1) rotate(0) translate(4 544)">
<title>G</title>
<polygon fill="white" stroke="none" points="-4,4 -4,-544 289.975,-544 289.975,4 -4,4"/>
<!-- GS -->
<g id="node1" class="node"><title>GS</title>
<polygon fill="none" stroke="black" points="176.987,-540 108.987,-540 108.987,-504 176.987,-504 176.987,-540"/>
<text text-anchor="middle" x="142.987" y="-518.3" font-family="Hershey-Noailles-help-me" font-size="14.00">Preface</text>
</g>
<!-- book -->
<g id="node2" class="node"><title>book</title>
<ellipse fill="none" stroke="black" cx="142.987" cy="-450" rx="127.277" ry="18"/>
<text text-anchor="middle" x="142.987" y="-446.3" font-family="Hershey-Noailles-help-me" font-size="14.00">What kind of book is this?</text>
</g>
<!-- GS&#45;&gt;book -->
<g id="edge1" class="edge"><title>GS&#45;&gt;book</title>
<path fill="none" stroke="black" d="M142.987,-503.697C142.987,-495.983 142.987,-486.712 142.987,-478.112"/>
<polygon fill="black" stroke="black" points="146.487,-478.104 142.987,-468.104 139.487,-478.104 146.487,-478.104"/>
</g>
<!-- AP -->
<g id="node3" class="node"><title>AP</title>
<ellipse fill="none" stroke="black" cx="142.987" cy="-378" rx="142.975" ry="18"/>
<text text-anchor="middle" x="142.987" y="-374.3" font-family="Hershey-Noailles-help-me" font-size="14.00">Why aesthetic programming?</text>
</g>
<!-- book&#45;&gt;AP -->
<g id="edge2" class="edge"><title>book&#45;&gt;AP</title>
<path fill="none" stroke="black" d="M142.987,-431.697C142.987,-423.983 142.987,-414.712 142.987,-406.112"/>
<polygon fill="black" stroke="black" points="146.487,-406.104 142.987,-396.104 139.487,-406.104 146.487,-406.104"/>
</g>
<!-- SS -->
<g id="node4" class="node"><title>SS</title>
<ellipse fill="none" stroke="black" cx="142.987" cy="-306" rx="110.48" ry="18"/>
<text text-anchor="middle" x="142.987" y="-302.3" font-family="Hershey-Noailles-help-me" font-size="14.00">And software studies?</text>
</g>
<!-- AP&#45;&gt;SS -->
<g id="edge3" class="edge"><title>AP&#45;&gt;SS</title>
<path fill="none" stroke="black" d="M142.987,-359.697C142.987,-351.983 142.987,-342.712 142.987,-334.112"/>
<polygon fill="black" stroke="black" points="146.487,-334.104 142.987,-324.104 139.487,-334.104 146.487,-334.104"/>
</g>
<!-- OP -->
<g id="node5" class="node"><title>OP</title>
<ellipse fill="none" stroke="black" cx="142.987" cy="-234" rx="83.3857" ry="18"/>
<text text-anchor="middle" x="142.987" y="-230.3" font-family="Hershey-Noailles-help-me" font-size="14.00">Open publishing</text>
</g>
<!-- SS&#45;&gt;OP -->
<g id="edge4" class="edge"><title>SS&#45;&gt;OP</title>
<path fill="none" stroke="black" d="M142.987,-287.697C142.987,-279.983 142.987,-270.712 142.987,-262.112"/>
<polygon fill="black" stroke="black" points="146.487,-262.104 142.987,-252.104 139.487,-262.104 146.487,-262.104"/>
</g>
<!-- TOC -->
<g id="node6" class="node"><title>TOC</title>
<ellipse fill="none" stroke="black" cx="142.987" cy="-162" rx="85.2851" ry="18"/>
<text text-anchor="middle" x="142.987" y="-158.3" font-family="Hershey-Noailles-help-me" font-size="14.00">Flow of contents</text>
</g>
<!-- OP&#45;&gt;TOC -->
<g id="edge5" class="edge"><title>OP&#45;&gt;TOC</title>
<path fill="none" stroke="black" d="M142.987,-215.697C142.987,-207.983 142.987,-198.712 142.987,-190.112"/>
<polygon fill="black" stroke="black" points="146.487,-190.104 142.987,-180.104 139.487,-190.104 146.487,-190.104"/>
</g>
<!-- BO -->
<g id="node7" class="node"><title>BO</title>
<ellipse fill="none" stroke="black" cx="142.987" cy="-90" rx="81.7856" ry="18"/>
<text text-anchor="middle" x="142.987" y="-86.3" font-family="Hershey-Noailles-help-me" font-size="14.00">The book object</text>
</g>
<!-- TOC&#45;&gt;BO -->
<g id="edge6" class="edge"><title>TOC&#45;&gt;BO</title>
<path fill="none" stroke="black" d="M142.987,-143.697C142.987,-135.983 142.987,-126.712 142.987,-118.112"/>
<polygon fill="black" stroke="black" points="146.487,-118.104 142.987,-108.104 139.487,-118.104 146.487,-118.104"/>
</g>
<!-- Notes -->
<g id="node8" class="node"><title>Notes</title>
<ellipse fill="none" stroke="black" cx="142.987" cy="-18" rx="36.2938" ry="18"/>
<text text-anchor="middle" x="142.987" y="-14.3" font-family="Hershey-Noailles-help-me" font-size="14.00">Notes</text>
</g>
<!-- BO&#45;&gt;Notes -->
<g id="edge7" class="edge"><title>BO&#45;&gt;Notes</title>
<path fill="none" stroke="black" d="M142.987,-71.6966C142.987,-63.9827 142.987,-54.7125 142.987,-46.1124"/>
<polygon fill="black" stroke="black" points="146.487,-46.1043 142.987,-36.1043 139.487,-46.1044 146.487,-46.1043"/>
</g>
</g>
</svg>
