<?xml version="1.0" encoding="UTF-8" standalone="no"?>
<!DOCTYPE svg PUBLIC "-//W3C//DTD SVG 1.1//EN"
 "http://www.w3.org/Graphics/SVG/1.1/DTD/svg11.dtd">
<!-- Generated by graphviz version 2.38.0 (20140413.2041)
 -->
<!-- Title: G Pages: 1 -->
<svg width="1071pt" height="566pt"
 viewBox="0.00 0.00 1071.33 565.74" xmlns="http://www.w3.org/2000/svg" xmlns:xlink="http://www.w3.org/1999/xlink">
<g id="graph0" class="graph" transform="scale(1 1) rotate(0) translate(4 561.74)">
<title>G</title>
<polygon fill="white" stroke="none" points="-4,4 -4,-561.74 1067.33,-561.74 1067.33,4 -4,4"/>
<!-- GS -->
<g id="node1" class="node"><title>GS</title>
<ellipse fill="none" stroke="grey" stroke-width="2" cx="560.544" cy="-539.74" rx="103.982" ry="18"/>
<text text-anchor="middle" x="560.544" y="-536.04" font-family="Times,serif" font-size="14.00">Ch.2 &#45; Variable Geometry</text>
</g>
<!-- SU -->
<g id="node2" class="node"><title>SU</title>
<ellipse fill="none" stroke="black" cx="560.544" cy="-467.74" rx="35.194" ry="18"/>
<text text-anchor="middle" x="560.544" y="-464.04" font-family="Times,serif" font-size="14.00">setup()</text>
</g>
<!-- GS&#45;&gt;SU -->
<g id="edge1" class="edge"><title>GS&#45;&gt;SU</title>
<path fill="none" stroke="black" d="M560.544,-521.437C560.544,-513.723 560.544,-504.453 560.544,-495.853"/>
<polygon fill="black" stroke="black" points="564.044,-495.844 560.544,-485.844 557.044,-495.844 564.044,-495.844"/>
</g>
<!-- ST -->
<g id="node3" class="node"><title>ST</title>
<ellipse fill="none" stroke="black" cx="560.544" cy="-395.74" rx="31.6951" ry="18"/>
<text text-anchor="middle" x="560.544" y="-392.04" font-family="Times,serif" font-size="14.00">start()</text>
</g>
<!-- SU&#45;&gt;ST -->
<g id="edge2" class="edge"><title>SU&#45;&gt;ST</title>
<path fill="none" stroke="black" d="M560.544,-449.437C560.544,-441.723 560.544,-432.453 560.544,-423.853"/>
<polygon fill="black" stroke="black" points="564.044,-423.844 560.544,-413.844 557.044,-423.844 564.044,-423.844"/>
</g>
<!-- SC -->
<g id="node4" class="node"><title>SC</title>
<ellipse fill="none" stroke="black" cx="560.544" cy="-323.74" rx="55.7903" ry="18"/>
<text text-anchor="middle" x="560.544" y="-320.04" font-family="Times,serif" font-size="14.00">Source Code</text>
</g>
<!-- ST&#45;&gt;SC -->
<g id="edge3" class="edge"><title>ST&#45;&gt;SC</title>
<path fill="none" stroke="black" d="M560.544,-377.437C560.544,-369.723 560.544,-360.453 560.544,-351.853"/>
<polygon fill="black" stroke="black" points="564.044,-351.844 560.544,-341.844 557.044,-351.844 564.044,-351.844"/>
</g>
<!-- CO -->
<g id="node5" class="node"><title>CO</title>
<ellipse fill="none" stroke="black" cx="167.544" cy="-251.74" rx="57.3905" ry="18"/>
<text text-anchor="middle" x="167.544" y="-248.04" font-family="Times,serif" font-size="14.00">Coordination</text>
</g>
<!-- SC&#45;&gt;CO -->
<g id="edge4" class="edge"><title>SC&#45;&gt;CO</title>
<path fill="none" stroke="black" d="M512.747,-314.227C440.606,-301.377 304.066,-277.057 226.07,-263.165"/>
<polygon fill="black" stroke="black" points="226.389,-259.666 215.93,-261.358 225.161,-266.558 226.389,-259.666"/>
</g>
<!-- VB -->
<g id="node7" class="node"><title>VB</title>
<ellipse fill="none" stroke="black" cx="385.544" cy="-251.74" rx="44.393" ry="18"/>
<text text-anchor="middle" x="385.544" y="-248.04" font-family="Times,serif" font-size="14.00">Variables</text>
</g>
<!-- SC&#45;&gt;VB -->
<g id="edge6" class="edge"><title>SC&#45;&gt;VB</title>
<path fill="none" stroke="black" d="M526.802,-309.243C497.854,-297.664 456.089,-280.958 425.48,-268.714"/>
<polygon fill="black" stroke="black" points="426.549,-265.372 415.964,-264.908 423.949,-271.872 426.549,-265.372"/>
</g>
<!-- OF -->
<g id="node9" class="node"><title>OF</title>
<ellipse fill="none" stroke="black" cx="560.544" cy="-251.74" rx="65.7887" ry="18"/>
<text text-anchor="middle" x="560.544" y="-248.04" font-family="Times,serif" font-size="14.00">Other functions</text>
</g>
<!-- SC&#45;&gt;OF -->
<g id="edge8" class="edge"><title>SC&#45;&gt;OF</title>
<path fill="none" stroke="black" d="M560.544,-305.437C560.544,-297.723 560.544,-288.453 560.544,-279.853"/>
<polygon fill="black" stroke="black" points="564.044,-279.844 560.544,-269.844 557.044,-279.844 564.044,-279.844"/>
</g>
<!-- CS -->
<g id="node11" class="node"><title>CS</title>
<ellipse fill="none" stroke="black" cx="769.544" cy="-251.74" rx="87.1846" ry="18"/>
<text text-anchor="middle" x="769.544" y="-248.04" font-family="Times,serif" font-size="14.00">Conditional Structure</text>
</g>
<!-- SC&#45;&gt;CS -->
<g id="edge10" class="edge"><title>SC&#45;&gt;CS</title>
<path fill="none" stroke="black" d="M597.909,-310.226C630.782,-299.215 679.027,-283.057 716.002,-270.673"/>
<polygon fill="black" stroke="black" points="717.254,-273.944 725.625,-267.45 715.031,-267.307 717.254,-273.944"/>
</g>
<!-- MW -->
<g id="node14" class="node"><title>MW</title>
<ellipse fill="none" stroke="black" cx="948.544" cy="-251.74" rx="38.1938" ry="18"/>
<text text-anchor="middle" x="948.544" y="-248.04" font-family="Times,serif" font-size="14.00">While()</text>
</g>
<!-- SC&#45;&gt;MW -->
<g id="edge16" class="edge"><title>SC&#45;&gt;MW</title>
<path fill="none" stroke="black" d="M609.223,-314.743C669.493,-304.736 775.243,-286.83 865.544,-269.74 878.077,-267.368 891.643,-264.653 904.104,-262.098"/>
<polygon fill="black" stroke="black" points="905.178,-265.45 914.265,-260.002 903.764,-258.595 905.178,-265.45"/>
</g>
<!-- EiC -->
<g id="node6" class="node"><title>EiC</title>
<ellipse fill="none" stroke="black" cx="69.5438" cy="-170.87" rx="69.5877" ry="18"/>
<text text-anchor="middle" x="69.5438" y="-167.17" font-family="Times,serif" font-size="14.00">Exercise in class</text>
</g>
<!-- CO&#45;&gt;EiC -->
<g id="edge5" class="edge"><title>CO&#45;&gt;EiC</title>
<path fill="none" stroke="black" d="M147.712,-234.78C133.424,-223.28 113.933,-207.594 97.9889,-194.763"/>
<polygon fill="black" stroke="black" points="100.006,-191.893 90.0207,-188.35 95.6167,-197.346 100.006,-191.893"/>
</g>
<!-- DiC -->
<g id="node13" class="node"><title>DiC</title>
<ellipse fill="none" stroke="black" cx="522.544" cy="-90" rx="77.9862" ry="18"/>
<text text-anchor="middle" x="522.544" y="-86.3" font-family="Times,serif" font-size="14.00">Discussion in class</text>
</g>
<!-- CO&#45;&gt;DiC -->
<g id="edge12" class="edge"><title>CO&#45;&gt;DiC</title>
<path fill="none" stroke="black" d="M165.098,-233.584C162.78,-209.898 162.621,-167.456 186.544,-144 220.92,-110.295 347.8,-98.0245 435.411,-93.5573"/>
<polygon fill="black" stroke="black" points="435.805,-97.0424 445.624,-93.0625 435.467,-90.0506 435.805,-97.0424"/>
</g>
<!-- YVB -->
<g id="node8" class="node"><title>YVB</title>
<ellipse fill="none" stroke="black" cx="276.544" cy="-170.87" rx="80.6858" ry="18"/>
<text text-anchor="middle" x="276.544" y="-167.17" font-family="Times,serif" font-size="14.00">Why use variables?</text>
</g>
<!-- VB&#45;&gt;YVB -->
<g id="edge7" class="edge"><title>VB&#45;&gt;YVB</title>
<path fill="none" stroke="black" d="M364.785,-235.72C348.648,-224.043 326.005,-207.659 307.696,-194.411"/>
<polygon fill="black" stroke="black" points="309.257,-191.221 299.104,-188.194 305.154,-196.892 309.257,-191.221"/>
</g>
<!-- VB&#45;&gt;DiC -->
<g id="edge13" class="edge"><title>VB&#45;&gt;DiC</title>
<path fill="none" stroke="black" d="M383.982,-233.636C382.83,-210.777 384.17,-170.122 404.544,-144 418.196,-126.496 438.898,-114.608 459.17,-106.608"/>
<polygon fill="black" stroke="black" points="460.559,-109.826 468.739,-103.093 458.146,-103.256 460.559,-109.826"/>
</g>
<!-- BAO -->
<g id="node10" class="node"><title>BAO</title>
<ellipse fill="none" stroke="black" cx="522.544" cy="-170.87" rx="108.581" ry="18"/>
<text text-anchor="middle" x="522.544" y="-167.17" font-family="Times,serif" font-size="14.00">Basic Arithmetic Operators</text>
</g>
<!-- OF&#45;&gt;BAO -->
<g id="edge9" class="edge"><title>OF&#45;&gt;BAO</title>
<path fill="none" stroke="black" d="M552.298,-233.626C547.319,-223.291 540.87,-209.906 535.249,-198.24"/>
<polygon fill="black" stroke="black" points="538.267,-196.44 530.773,-188.95 531.961,-199.478 538.267,-196.44"/>
</g>
<!-- OF&#45;&gt;DiC -->
<g id="edge15" class="edge"><title>OF&#45;&gt;DiC</title>
<path fill="none" stroke="black" d="M596.696,-236.456C613.218,-227.887 631.164,-215.206 640.544,-197.74 651.844,-176.698 653.519,-164.052 640.544,-144 628.747,-125.77 609.029,-113.75 589.056,-105.85"/>
<polygon fill="black" stroke="black" points="590.172,-102.531 579.578,-102.398 587.777,-109.109 590.172,-102.531"/>
</g>
<!-- RO -->
<g id="node12" class="node"><title>RO</title>
<ellipse fill="none" stroke="black" cx="769.544" cy="-170.87" rx="81.7856" ry="18"/>
<text text-anchor="middle" x="769.544" y="-167.17" font-family="Times,serif" font-size="14.00">Relational operators</text>
</g>
<!-- CS&#45;&gt;RO -->
<g id="edge11" class="edge"><title>CS&#45;&gt;RO</title>
<path fill="none" stroke="black" d="M769.544,-233.626C769.544,-223.601 769.544,-210.706 769.544,-199.295"/>
<polygon fill="black" stroke="black" points="773.044,-198.95 769.544,-188.95 766.044,-198.95 773.044,-198.95"/>
</g>
<!-- CS&#45;&gt;DiC -->
<g id="edge14" class="edge"><title>CS&#45;&gt;DiC</title>
<path fill="none" stroke="black" d="M813.844,-236.149C831.646,-227.857 850.339,-215.493 860.544,-197.74 872.447,-177.033 876.07,-162.15 860.544,-144 828.943,-107.058 699.561,-95.6892 610.364,-92.2939"/>
<polygon fill="black" stroke="black" points="610.356,-88.7915 600.238,-91.9358 610.108,-95.7871 610.356,-88.7915"/>
</g>
<!-- MX -->
<g id="node15" class="node"><title>MX</title>
<ellipse fill="none" stroke="black" cx="985.544" cy="-170.87" rx="77.5641" ry="26.7407"/>
<text text-anchor="middle" x="985.544" y="-174.67" font-family="Times,serif" font-size="14.00">MiniX 2: </text>
<text text-anchor="middle" x="985.544" y="-159.67" font-family="Times,serif" font-size="14.00">Geometric emoji</text>
</g>
<!-- MW&#45;&gt;MX -->
<g id="edge17" class="edge"><title>MW&#45;&gt;MX</title>
<path fill="none" stroke="black" d="M956.391,-234.014C960.113,-226.078 964.709,-216.281 969.143,-206.831"/>
<polygon fill="black" stroke="black" points="972.405,-208.119 973.483,-197.579 966.067,-205.146 972.405,-208.119"/>
</g>
<!-- RR -->
<g id="node16" class="node"><title>RR</title>
<ellipse fill="none" stroke="black" cx="985.544" cy="-90" rx="71.4873" ry="18"/>
<text text-anchor="middle" x="985.544" y="-86.3" font-family="Times,serif" font-size="14.00">Required reading</text>
</g>
<!-- MX&#45;&gt;RR -->
<g id="edge18" class="edge"><title>MX&#45;&gt;RR</title>
<path fill="none" stroke="black" d="M985.544,-143.607C985.544,-135.506 985.544,-126.568 985.544,-118.392"/>
<polygon fill="black" stroke="black" points="989.044,-118.22 985.544,-108.22 982.044,-118.22 989.044,-118.22"/>
</g>
<!-- Notes -->
<g id="node17" class="node"><title>Notes</title>
<ellipse fill="none" stroke="black" cx="985.544" cy="-18" rx="31.3957" ry="18"/>
<text text-anchor="middle" x="985.544" y="-14.3" font-family="Times,serif" font-size="14.00">Notes</text>
</g>
<!-- RR&#45;&gt;Notes -->
<g id="edge19" class="edge"><title>RR&#45;&gt;Notes</title>
<path fill="none" stroke="black" d="M985.544,-71.6966C985.544,-63.9827 985.544,-54.7125 985.544,-46.1124"/>
<polygon fill="black" stroke="black" points="989.044,-46.1043 985.544,-36.1043 982.044,-46.1044 989.044,-46.1043"/>
</g>
</g>
</svg>
