<?xml version="1.0" encoding="UTF-8" standalone="no"?>
<!DOCTYPE svg PUBLIC "-//W3C//DTD SVG 1.1//EN"
 "http://www.w3.org/Graphics/SVG/1.1/DTD/svg11.dtd">
<!-- Generated by graphviz version 2.38.0 (20140413.2041)
 -->
<!-- Title: G Pages: 1 -->
<svg width="814pt" height="422pt"
 viewBox="0.00 0.00 813.53 421.74" xmlns="http://www.w3.org/2000/svg" xmlns:xlink="http://www.w3.org/1999/xlink">
<g id="graph0" class="graph" transform="scale(1 1) rotate(0) translate(4 417.74)">
<title>G</title>
<polygon fill="white" stroke="none" points="-4,4 -4,-417.74 809.531,-417.74 809.531,4 -4,4"/>
<!-- GS -->
<g id="node1" class="node"><title>GS</title>
<ellipse fill="none" stroke="grey" stroke-width="2" cx="103.991" cy="-395.74" rx="103.982" ry="18"/>
<text text-anchor="middle" x="103.991" y="-392.04" font-family="Times,serif" font-size="14.00">Ch.2 &#45; Variable Geometry</text>
</g>
<!-- SU -->
<g id="node2" class="node"><title>SU</title>
<ellipse fill="none" stroke="black" cx="184.991" cy="-323.74" rx="35.194" ry="18"/>
<text text-anchor="middle" x="184.991" y="-320.04" font-family="Times,serif" font-size="14.00">setup()</text>
</g>
<!-- GS&#45;&gt;SU -->
<g id="edge6" class="edge"><title>GS&#45;&gt;SU</title>
<path fill="none" stroke="black" d="M123.599,-377.795C134.555,-368.327 148.32,-356.431 160.038,-346.305"/>
<polygon fill="black" stroke="black" points="162.486,-348.815 167.763,-339.628 157.909,-343.519 162.486,-348.815"/>
</g>
<!-- MX -->
<g id="node15" class="node"><title>MX</title>
<ellipse fill="none" stroke="black" cx="103.991" cy="-98.8701" rx="77.5641" ry="26.7407"/>
<text text-anchor="middle" x="103.991" y="-102.67" font-family="Times,serif" font-size="14.00">MiniX 2: </text>
<text text-anchor="middle" x="103.991" y="-87.6701" font-family="Times,serif" font-size="14.00">Geometric emoji</text>
</g>
<!-- GS&#45;&gt;MX -->
<g id="edge1" class="edge"><title>GS&#45;&gt;MX</title>
<path fill="none" stroke="black" d="M88.5002,-377.725C69.0142,-355.052 36.5808,-312.768 23.9908,-269.74 9.28658,-219.487 44.5281,-165.422 72.8286,-132.111"/>
<polygon fill="black" stroke="black" points="75.5249,-134.345 79.472,-124.513 70.255,-129.737 75.5249,-134.345"/>
</g>
<!-- RR -->
<g id="node16" class="node"><title>RR</title>
<ellipse fill="none" stroke="black" cx="103.991" cy="-251.74" rx="71.4873" ry="18"/>
<text text-anchor="middle" x="103.991" y="-248.04" font-family="Times,serif" font-size="14.00">Required reading</text>
</g>
<!-- GS&#45;&gt;RR -->
<g id="edge2" class="edge"><title>GS&#45;&gt;RR</title>
<path fill="none" stroke="black" d="M103.991,-367.419C103.991,-342.339 103.991,-305.367 103.991,-280.233"/>
<polygon fill="black" stroke="black" points="100.491,-367.612 103.991,-377.612 107.491,-367.612 100.491,-367.612"/>
<polygon fill="black" stroke="black" points="107.491,-279.929 103.991,-269.929 100.491,-279.929 107.491,-279.929"/>
</g>
<!-- ST -->
<g id="node3" class="node"><title>ST</title>
<ellipse fill="none" stroke="black" cx="262.991" cy="-251.74" rx="31.6951" ry="18"/>
<text text-anchor="middle" x="262.991" y="-248.04" font-family="Times,serif" font-size="14.00">start()</text>
</g>
<!-- SU&#45;&gt;ST -->
<g id="edge7" class="edge"><title>SU&#45;&gt;ST</title>
<path fill="none" stroke="black" d="M201.916,-307.551C212.795,-297.788 227.092,-284.957 239.117,-274.165"/>
<polygon fill="black" stroke="black" points="241.529,-276.704 246.633,-267.42 236.853,-271.494 241.529,-276.704"/>
</g>
<!-- MW -->
<g id="node14" class="node"><title>MW</title>
<ellipse fill="none" stroke="black" cx="188.991" cy="-179.74" rx="38.1938" ry="18"/>
<text text-anchor="middle" x="188.991" y="-176.04" font-family="Times,serif" font-size="14.00">While()</text>
</g>
<!-- SU&#45;&gt;MW -->
<g id="edge3" class="edge"><title>SU&#45;&gt;MW</title>
<path fill="none" stroke="black" d="M185.76,-295.419C186.467,-270.339 187.508,-233.367 188.216,-208.233"/>
<polygon fill="black" stroke="black" points="182.256,-295.517 185.473,-305.612 189.254,-295.714 182.256,-295.517"/>
<polygon fill="black" stroke="black" points="191.724,-208.024 188.507,-197.929 184.726,-207.827 191.724,-208.024"/>
</g>
<!-- SC -->
<g id="node4" class="node"><title>SC</title>
<ellipse fill="none" stroke="black" cx="423.991" cy="-323.74" rx="55.7903" ry="18"/>
<text text-anchor="middle" x="423.991" y="-320.04" font-family="Times,serif" font-size="14.00">Source Code</text>
</g>
<!-- ST&#45;&gt;SC -->
<g id="edge8" class="edge"><title>ST&#45;&gt;SC</title>
<path fill="none" stroke="black" d="M287.378,-263.343C312.641,-274.327 352.575,-291.69 382.757,-304.812"/>
<polygon fill="black" stroke="black" points="381.616,-308.133 392.182,-308.91 384.407,-301.713 381.616,-308.133"/>
</g>
<!-- ST&#45;&gt;MW -->
<g id="edge20" class="edge"><title>ST&#45;&gt;MW</title>
<path fill="none" stroke="black" d="M247.297,-235.895C237.301,-226.439 224.156,-214.005 212.879,-203.337"/>
<polygon fill="black" stroke="black" points="215.101,-200.621 205.431,-196.292 210.29,-205.706 215.101,-200.621"/>
</g>
<!-- CO -->
<g id="node5" class="node"><title>CO</title>
<ellipse fill="none" stroke="black" cx="423.991" cy="-251.74" rx="50.0912" ry="18"/>
<text text-anchor="middle" x="423.991" y="-248.04" font-family="Times,serif" font-size="14.00">Coordinate</text>
</g>
<!-- SC&#45;&gt;CO -->
<g id="edge9" class="edge"><title>SC&#45;&gt;CO</title>
<path fill="none" stroke="black" d="M423.991,-305.437C423.991,-297.723 423.991,-288.453 423.991,-279.853"/>
<polygon fill="black" stroke="black" points="427.491,-279.844 423.991,-269.844 420.491,-279.844 427.491,-279.844"/>
</g>
<!-- VB -->
<g id="node7" class="node"><title>VB</title>
<ellipse fill="none" stroke="black" cx="314.991" cy="-98.8701" rx="44.393" ry="18"/>
<text text-anchor="middle" x="314.991" y="-95.1701" font-family="Times,serif" font-size="14.00">Variables</text>
</g>
<!-- SC&#45;&gt;VB -->
<g id="edge11" class="edge"><title>SC&#45;&gt;VB</title>
<path fill="none" stroke="black" d="M401.25,-307.197C388.911,-297.691 374.318,-284.532 364.991,-269.74 336.46,-224.493 323.614,-162.278 318.312,-127.064"/>
<polygon fill="black" stroke="black" points="321.763,-126.464 316.9,-117.051 314.831,-127.442 321.763,-126.464"/>
</g>
<!-- OF -->
<g id="node9" class="node"><title>OF</title>
<ellipse fill="none" stroke="black" cx="657.991" cy="-323.74" rx="65.7887" ry="18"/>
<text text-anchor="middle" x="657.991" y="-320.04" font-family="Times,serif" font-size="14.00">Other functions</text>
</g>
<!-- SC&#45;&gt;OF -->
<g id="edge13" class="edge"><title>SC&#45;&gt;OF</title>
<path fill="none" stroke="black" d="M480.206,-323.74C514.127,-323.74 548.049,-323.74 581.97,-323.74"/>
<polygon fill="black" stroke="black" points="582.016,-327.24 592.016,-323.74 582.016,-320.24 582.016,-327.24"/>
</g>
<!-- CS -->
<g id="node11" class="node"><title>CS</title>
<ellipse fill="none" stroke="black" cx="578.991" cy="-251.74" rx="87.1846" ry="18"/>
<text text-anchor="middle" x="578.991" y="-248.04" font-family="Times,serif" font-size="14.00">Conditional Structure</text>
</g>
<!-- SC&#45;&gt;CS -->
<g id="edge15" class="edge"><title>SC&#45;&gt;CS</title>
<path fill="none" stroke="black" d="M454.985,-308.743C478.039,-298.331 509.806,-283.985 535.415,-272.42"/>
<polygon fill="black" stroke="black" points="536.871,-275.602 544.544,-268.297 533.99,-269.223 536.871,-275.602"/>
</g>
<!-- EiC -->
<g id="node6" class="node"><title>EiC</title>
<ellipse fill="none" stroke="black" cx="433.991" cy="-179.74" rx="69.5877" ry="18"/>
<text text-anchor="middle" x="433.991" y="-176.04" font-family="Times,serif" font-size="14.00">Exercise in class</text>
</g>
<!-- CO&#45;&gt;EiC -->
<g id="edge10" class="edge"><title>CO&#45;&gt;EiC</title>
<path fill="none" stroke="black" d="M426.463,-233.437C427.565,-225.723 428.889,-216.453 430.118,-207.853"/>
<polygon fill="black" stroke="black" points="433.598,-208.239 431.547,-197.844 426.668,-207.249 433.598,-208.239"/>
</g>
<!-- DiC -->
<g id="node13" class="node"><title>DiC</title>
<ellipse fill="none" stroke="black" cx="454.991" cy="-98.8701" rx="77.9862" ry="18"/>
<text text-anchor="middle" x="454.991" y="-95.1701" font-family="Times,serif" font-size="14.00">Discussion in class</text>
</g>
<!-- EiC&#45;&gt;DiC -->
<g id="edge17" class="edge"><title>EiC&#45;&gt;DiC</title>
<path fill="none" stroke="black" d="M438.547,-161.626C441.244,-151.498 444.721,-138.44 447.783,-126.942"/>
<polygon fill="black" stroke="black" points="451.252,-127.514 450.443,-116.95 444.488,-125.713 451.252,-127.514"/>
</g>
<!-- YVB -->
<g id="node8" class="node"><title>YVB</title>
<ellipse fill="none" stroke="black" cx="314.991" cy="-18" rx="80.6858" ry="18"/>
<text text-anchor="middle" x="314.991" y="-14.3" font-family="Times,serif" font-size="14.00">Why use variables?</text>
</g>
<!-- VB&#45;&gt;YVB -->
<g id="edge12" class="edge"><title>VB&#45;&gt;YVB</title>
<path fill="none" stroke="black" d="M314.991,-80.7564C314.991,-70.7312 314.991,-57.8362 314.991,-46.4246"/>
<polygon fill="black" stroke="black" points="318.491,-46.0802 314.991,-36.0802 311.491,-46.0803 318.491,-46.0802"/>
</g>
<!-- VB&#45;&gt;DiC -->
<g id="edge18" class="edge"><title>VB&#45;&gt;DiC</title>
<path fill="none" stroke="black" d="M359.288,-98.8701C361.758,-98.8701 364.229,-98.8701 366.7,-98.8701"/>
<polygon fill="black" stroke="black" points="366.858,-102.37 376.858,-98.8701 366.858,-95.3702 366.858,-102.37"/>
</g>
<!-- BAO -->
<g id="node10" class="node"><title>BAO</title>
<ellipse fill="none" stroke="black" cx="696.991" cy="-98.8701" rx="108.581" ry="18"/>
<text text-anchor="middle" x="696.991" y="-95.1701" font-family="Times,serif" font-size="14.00">Basic Arithmetic Operators</text>
</g>
<!-- OF&#45;&gt;BAO -->
<g id="edge14" class="edge"><title>OF&#45;&gt;BAO</title>
<path fill="none" stroke="black" d="M672.214,-305.936C690.462,-283.162 721.169,-240.422 732.991,-197.74 737.262,-182.321 737.158,-177.188 732.991,-161.74 729.526,-148.898 722.666,-135.979 715.855,-125.293"/>
<polygon fill="black" stroke="black" points="718.698,-123.248 710.221,-116.892 712.884,-127.147 718.698,-123.248"/>
</g>
<!-- RO -->
<g id="node12" class="node"><title>RO</title>
<ellipse fill="none" stroke="black" cx="641.991" cy="-179.74" rx="81.7856" ry="18"/>
<text text-anchor="middle" x="641.991" y="-176.04" font-family="Times,serif" font-size="14.00">Relational operators</text>
</g>
<!-- CS&#45;&gt;RO -->
<g id="edge16" class="edge"><title>CS&#45;&gt;RO</title>
<path fill="none" stroke="black" d="M594.241,-233.795C601.98,-225.197 611.52,-214.597 620.033,-205.137"/>
<polygon fill="black" stroke="black" points="622.793,-207.303 626.881,-197.529 617.589,-202.621 622.793,-207.303"/>
</g>
<!-- CS&#45;&gt;DiC -->
<g id="edge19" class="edge"><title>CS&#45;&gt;DiC</title>
<path fill="none" stroke="black" d="M567.144,-233.567C554.347,-215.31 533.085,-185.811 512.991,-161.74 502.181,-148.792 489.431,-135.042 478.642,-123.801"/>
<polygon fill="black" stroke="black" points="481.005,-121.21 471.534,-116.461 475.976,-126.079 481.005,-121.21"/>
</g>
<!-- RO&#45;&gt;BAO -->
<g id="edge5" class="edge"><title>RO&#45;&gt;BAO</title>
<path fill="none" stroke="black" d="M653.925,-161.626C663.15,-148.397 675.86,-130.171 685.08,-116.95"/>
</g>
<!-- MW&#45;&gt;VB -->
<g id="edge4" class="edge"><title>MW&#45;&gt;VB</title>
<path fill="none" stroke="black" d="M219.937,-159.369C239.163,-147.335 263.819,-131.901 283.201,-119.769"/>
<polygon fill="black" stroke="black" points="217.846,-156.549 211.227,-164.821 221.56,-162.482 217.846,-156.549"/>
<polygon fill="black" stroke="black" points="285.078,-122.724 291.697,-114.451 281.363,-116.79 285.078,-122.724"/>
</g>
<!-- MW&#45;&gt;MX -->
<g id="edge22" class="edge"><title>MW&#45;&gt;MX</title>
<path fill="none" stroke="black" d="M172.198,-163.158C162.434,-154.099 149.772,-142.349 138.012,-131.438"/>
<polygon fill="black" stroke="black" points="140.165,-128.661 130.454,-124.425 135.404,-133.792 140.165,-128.661"/>
</g>
<!-- Notes -->
<g id="node17" class="node"><title>Notes</title>
<ellipse fill="none" stroke="black" cx="276.991" cy="-179.74" rx="31.3957" ry="18"/>
<text text-anchor="middle" x="276.991" y="-176.04" font-family="Times,serif" font-size="14.00">Notes</text>
</g>
<!-- MW&#45;&gt;Notes -->
<g id="edge21" class="edge"><title>MW&#45;&gt;Notes</title>
<path fill="none" stroke="black" d="M227.491,-179.74C230.141,-179.74 232.792,-179.74 235.443,-179.74"/>
<polygon fill="black" stroke="black" points="235.667,-183.24 245.667,-179.74 235.667,-176.24 235.667,-183.24"/>
</g>
<!-- RR&#45;&gt;SU -->
<g id="edge24" class="edge"><title>RR&#45;&gt;SU</title>
<path fill="none" stroke="black" d="M123.129,-269.279C134.144,-278.798 148.113,-290.87 159.988,-301.133"/>
<polygon fill="black" stroke="black" points="157.958,-304.004 167.813,-307.895 162.535,-298.708 157.958,-304.004"/>
</g>
<!-- RR&#45;&gt;MX -->
<g id="edge23" class="edge"><title>RR&#45;&gt;MX</title>
<path fill="none" stroke="black" d="M103.991,-233.727C103.991,-210.22 103.991,-167.211 103.991,-136.281"/>
<polygon fill="black" stroke="black" points="107.491,-135.896 103.991,-125.896 100.491,-135.896 107.491,-135.896"/>
</g>
</g>
</svg>
