<?xml version="1.0" encoding="UTF-8" standalone="no"?>
<!DOCTYPE svg PUBLIC "-//W3C//DTD SVG 1.1//EN"
 "http://www.w3.org/Graphics/SVG/1.1/DTD/svg11.dtd">
<!-- Generated by graphviz version 2.44.1 (0)
 -->
<!-- Title: G Pages: 1 -->
<svg width="1063pt" height="494pt"
 viewBox="0.00 0.00 1062.98 493.74" xmlns="http://www.w3.org/2000/svg" xmlns:xlink="http://www.w3.org/1999/xlink">
<g id="graph0" class="graph" transform="scale(1 1) rotate(0) translate(4 489.74)">
<title>G</title>
<polygon fill="white" stroke="transparent" points="-4,4 -4,-489.74 1058.98,-489.74 1058.98,4 -4,4"/>
<!-- GS -->
<g id="node1" class="node">
<title>GS</title>
<polygon fill="none" stroke="black" points="934.84,-485.74 779.84,-485.74 779.84,-449.74 934.84,-449.74 934.84,-485.74"/>
<text text-anchor="middle" x="857.34" y="-464.04" font-family="Hershey-Noailles-help-me" font-size="14.00">2. Variable geometry</text>
</g>
<!-- SU -->
<g id="node2" class="node">
<title>SU</title>
<ellipse fill="none" stroke="black" cx="765.34" cy="-395.74" rx="44.39" ry="18"/>
<text text-anchor="middle" x="765.34" y="-392.04" font-family="Hershey-Noailles-help-me" font-size="14.00">setup()</text>
</g>
<!-- GS&#45;&gt;SU -->
<g id="edge6" class="edge">
<title>GS&#45;&gt;SU</title>
<path fill="none" stroke="black" d="M834.6,-449.44C822.21,-440 806.75,-428.25 793.59,-418.23"/>
<polygon fill="black" stroke="black" points="795.4,-415.21 785.32,-411.94 791.16,-420.78 795.4,-415.21"/>
</g>
<!-- MX -->
<g id="node15" class="node">
<title>MX</title>
<ellipse fill="none" stroke="black" cx="847.34" cy="-170.87" rx="90.52" ry="26.74"/>
<text text-anchor="middle" x="847.34" y="-174.67" font-family="Hershey-Noailles-help-me" font-size="14.00">MiniX: </text>
<text text-anchor="middle" x="847.34" y="-159.67" font-family="Hershey-Noailles-help-me" font-size="14.00">Geometric emoji</text>
</g>
<!-- GS&#45;&gt;MX -->
<g id="edge1" class="edge">
<title>GS&#45;&gt;MX</title>
<path fill="none" stroke="black" d="M889.24,-449.67C956.27,-411.6 1100.75,-316.54 1040.34,-233.74 1018.26,-203.47 981.15,-187.68 945.34,-179.56"/>
<polygon fill="black" stroke="black" points="945.79,-176.07 935.29,-177.46 944.37,-182.93 945.79,-176.07"/>
</g>
<!-- RR -->
<g id="node16" class="node">
<title>RR</title>
<ellipse fill="none" stroke="black" cx="857.34" cy="-323.74" rx="85.29" ry="18"/>
<text text-anchor="middle" x="857.34" y="-320.04" font-family="Hershey-Noailles-help-me" font-size="14.00">Required reading</text>
</g>
<!-- GS&#45;&gt;RR -->
<g id="edge2" class="edge">
<title>GS&#45;&gt;RR</title>
<path fill="none" stroke="black" d="M857.34,-439.42C857.34,-414.34 857.34,-377.37 857.34,-352.23"/>
<polygon fill="black" stroke="black" points="853.84,-439.61 857.34,-449.61 860.84,-439.61 853.84,-439.61"/>
<polygon fill="black" stroke="black" points="860.84,-351.93 857.34,-341.93 853.84,-351.93 860.84,-351.93"/>
</g>
<!-- ST -->
<g id="node3" class="node">
<title>ST</title>
<ellipse fill="none" stroke="black" cx="676.34" cy="-323.74" rx="40.09" ry="18"/>
<text text-anchor="middle" x="676.34" y="-320.04" font-family="Hershey-Noailles-help-me" font-size="14.00">start()</text>
</g>
<!-- SU&#45;&gt;ST -->
<g id="edge7" class="edge">
<title>SU&#45;&gt;ST</title>
<path fill="none" stroke="black" d="M745.59,-379.2C733.21,-369.47 717.08,-356.78 703.5,-346.1"/>
<polygon fill="black" stroke="black" points="705.45,-343.18 695.43,-339.75 701.13,-348.68 705.45,-343.18"/>
</g>
<!-- MW -->
<g id="node14" class="node">
<title>MW</title>
<ellipse fill="none" stroke="black" cx="686.34" cy="-251.74" rx="42.49" ry="18"/>
<text text-anchor="middle" x="686.34" y="-248.04" font-family="Hershey-Noailles-help-me" font-size="14.00">While()</text>
</g>
<!-- SU&#45;&gt;MW -->
<g id="edge3" class="edge">
<title>SU&#45;&gt;MW</title>
<path fill="none" stroke="black" d="M755.25,-368.46C747.89,-350.35 737.16,-325.98 725.34,-305.74 719.73,-296.12 712.73,-286.14 706.22,-277.47"/>
<polygon fill="black" stroke="black" points="752.03,-369.82 758.98,-377.81 758.53,-367.23 752.03,-369.82"/>
<polygon fill="black" stroke="black" points="708.81,-275.1 699.94,-269.3 703.26,-279.36 708.81,-275.1"/>
</g>
<!-- SC -->
<g id="node4" class="node">
<title>SC</title>
<ellipse fill="none" stroke="black" cx="526.34" cy="-251.74" rx="65.79" ry="18"/>
<text text-anchor="middle" x="526.34" y="-248.04" font-family="Hershey-Noailles-help-me" font-size="14.00">Source code</text>
</g>
<!-- ST&#45;&gt;SC -->
<g id="edge8" class="edge">
<title>ST&#45;&gt;SC</title>
<path fill="none" stroke="black" d="M649.53,-310.23C626.71,-299.58 593.58,-284.12 567.42,-271.91"/>
<polygon fill="black" stroke="black" points="568.67,-268.63 558.13,-267.57 565.71,-274.98 568.67,-268.63"/>
</g>
<!-- ST&#45;&gt;MW -->
<g id="edge20" class="edge">
<title>ST&#45;&gt;MW</title>
<path fill="none" stroke="black" d="M678.82,-305.44C679.92,-297.72 681.24,-288.45 682.47,-279.85"/>
<polygon fill="black" stroke="black" points="685.95,-280.24 683.9,-269.84 679.02,-279.25 685.95,-280.24"/>
</g>
<!-- CO -->
<g id="node5" class="node">
<title>CO</title>
<ellipse fill="none" stroke="black" cx="526.34" cy="-170.87" rx="57.69" ry="18"/>
<text text-anchor="middle" x="526.34" y="-167.17" font-family="Hershey-Noailles-help-me" font-size="14.00">Coordinate</text>
</g>
<!-- SC&#45;&gt;CO -->
<g id="edge9" class="edge">
<title>SC&#45;&gt;CO</title>
<path fill="none" stroke="black" d="M526.34,-233.63C526.34,-223.6 526.34,-210.71 526.34,-199.29"/>
<polygon fill="black" stroke="black" points="529.84,-198.95 526.34,-188.95 522.84,-198.95 529.84,-198.95"/>
</g>
<!-- VB -->
<g id="node7" class="node">
<title>VB</title>
<ellipse fill="none" stroke="black" cx="687.34" cy="-170.87" rx="50.09" ry="18"/>
<text text-anchor="middle" x="687.34" y="-167.17" font-family="Hershey-Noailles-help-me" font-size="14.00">Variables</text>
</g>
<!-- SC&#45;&gt;VB -->
<g id="edge11" class="edge">
<title>SC&#45;&gt;VB</title>
<path fill="none" stroke="black" d="M557,-235.72C583.4,-222.79 621.58,-204.09 649.8,-190.26"/>
<polygon fill="black" stroke="black" points="651.51,-193.32 658.95,-185.78 648.43,-187.03 651.51,-193.32"/>
</g>
<!-- OF -->
<g id="node9" class="node">
<title>OF</title>
<ellipse fill="none" stroke="black" cx="77.34" cy="-90" rx="77.19" ry="18"/>
<text text-anchor="middle" x="77.34" y="-86.3" font-family="Hershey-Noailles-help-me" font-size="14.00">Other functions</text>
</g>
<!-- SC&#45;&gt;OF -->
<g id="edge13" class="edge">
<title>SC&#45;&gt;OF</title>
<path fill="none" stroke="black" d="M462.45,-247.45C400.51,-242.43 304.95,-229.74 228.34,-197.74 179.81,-177.47 131.56,-139.43 103.1,-114.66"/>
<polygon fill="black" stroke="black" points="105.08,-111.74 95.27,-107.75 100.45,-116.99 105.08,-111.74"/>
</g>
<!-- CS -->
<g id="node11" class="node">
<title>CS</title>
<ellipse fill="none" stroke="black" cx="344.34" cy="-170.87" rx="106.68" ry="18"/>
<text text-anchor="middle" x="344.34" y="-167.17" font-family="Hershey-Noailles-help-me" font-size="14.00">Conditional structures</text>
</g>
<!-- SC&#45;&gt;CS -->
<g id="edge15" class="edge">
<title>SC&#45;&gt;CS</title>
<path fill="none" stroke="black" d="M492.54,-236.09C463.84,-223.66 422.39,-205.69 390.62,-191.92"/>
<polygon fill="black" stroke="black" points="391.66,-188.56 381.09,-187.8 388.88,-194.98 391.66,-188.56"/>
</g>
<!-- EiC -->
<g id="node6" class="node">
<title>EiC</title>
<ellipse fill="none" stroke="black" cx="509.34" cy="-90" rx="83.39" ry="18"/>
<text text-anchor="middle" x="509.34" y="-86.3" font-family="Hershey-Noailles-help-me" font-size="14.00">Exercise in class</text>
</g>
<!-- CO&#45;&gt;EiC -->
<g id="edge10" class="edge">
<title>CO&#45;&gt;EiC</title>
<path fill="none" stroke="black" d="M522.65,-152.76C520.47,-142.63 517.66,-129.57 515.18,-118.07"/>
<polygon fill="black" stroke="black" points="518.55,-117.12 513.02,-108.08 511.71,-118.59 518.55,-117.12"/>
</g>
<!-- DiC -->
<g id="node13" class="node">
<title>DiC</title>
<ellipse fill="none" stroke="black" cx="509.34" cy="-18" rx="91.78" ry="18"/>
<text text-anchor="middle" x="509.34" y="-14.3" font-family="Hershey-Noailles-help-me" font-size="14.00">Discussion in class</text>
</g>
<!-- EiC&#45;&gt;DiC -->
<g id="edge17" class="edge">
<title>EiC&#45;&gt;DiC</title>
<path fill="none" stroke="black" d="M509.34,-71.7C509.34,-63.98 509.34,-54.71 509.34,-46.11"/>
<polygon fill="black" stroke="black" points="512.84,-46.1 509.34,-36.1 505.84,-46.1 512.84,-46.1"/>
</g>
<!-- YVB -->
<g id="node8" class="node">
<title>YVB</title>
<ellipse fill="none" stroke="black" cx="705.34" cy="-90" rx="94.78" ry="18"/>
<text text-anchor="middle" x="705.34" y="-86.3" font-family="Hershey-Noailles-help-me" font-size="14.00">Why use variables?</text>
</g>
<!-- VB&#45;&gt;YVB -->
<g id="edge12" class="edge">
<title>VB&#45;&gt;YVB</title>
<path fill="none" stroke="black" d="M691.25,-152.76C693.56,-142.63 696.54,-129.57 699.16,-118.07"/>
<polygon fill="black" stroke="black" points="702.63,-118.61 701.45,-108.08 695.81,-117.05 702.63,-118.61"/>
</g>
<!-- VB&#45;&gt;DiC -->
<g id="edge18" class="edge">
<title>VB&#45;&gt;DiC</title>
<path fill="none" stroke="black" d="M717.61,-156.53C751.99,-141.06 804.06,-116.6 809.34,-108 817.72,-94.37 819.63,-84.26 809.34,-72 783.93,-41.7 685.84,-28.72 608.66,-23.16"/>
<polygon fill="black" stroke="black" points="608.61,-19.64 598.4,-22.45 608.13,-26.63 608.61,-19.64"/>
</g>
<!-- BAO -->
<g id="node10" class="node">
<title>BAO</title>
<ellipse fill="none" stroke="black" cx="174.34" cy="-18" rx="126.18" ry="18"/>
<text text-anchor="middle" x="174.34" y="-14.3" font-family="Hershey-Noailles-help-me" font-size="14.00">Basic arithmetic operators</text>
</g>
<!-- OF&#45;&gt;BAO -->
<g id="edge14" class="edge">
<title>OF&#45;&gt;BAO</title>
<path fill="none" stroke="black" d="M99.84,-72.76C112.54,-63.6 128.62,-52 142.58,-41.92"/>
<polygon fill="black" stroke="black" points="144.89,-44.57 150.95,-35.88 140.8,-38.89 144.89,-44.57"/>
</g>
<!-- RO -->
<g id="node12" class="node">
<title>RO</title>
<ellipse fill="none" stroke="black" cx="271.34" cy="-90" rx="98.58" ry="18"/>
<text text-anchor="middle" x="271.34" y="-86.3" font-family="Hershey-Noailles-help-me" font-size="14.00">Relational operators</text>
</g>
<!-- CS&#45;&gt;RO -->
<g id="edge16" class="edge">
<title>CS&#45;&gt;RO</title>
<path fill="none" stroke="black" d="M328.5,-152.76C318.39,-141.83 305.12,-127.49 293.91,-115.39"/>
<polygon fill="black" stroke="black" points="296.26,-112.77 286.9,-107.81 291.13,-117.53 296.26,-112.77"/>
</g>
<!-- CS&#45;&gt;DiC -->
<g id="edge19" class="edge">
<title>CS&#45;&gt;DiC</title>
<path fill="none" stroke="black" d="M354.18,-152.63C366.78,-131.65 390.24,-96.07 417.34,-72 431.51,-59.41 449.14,-48.39 465.16,-39.7"/>
<polygon fill="black" stroke="black" points="467.15,-42.61 474.38,-34.86 463.89,-36.41 467.15,-42.61"/>
</g>
<!-- RO&#45;&gt;BAO -->
<g id="edge5" class="edge">
<title>RO&#45;&gt;BAO</title>
<path fill="none" stroke="black" d="M248.36,-72.41C233,-61.33 212.89,-46.82 197.5,-35.71"/>
</g>
<!-- MW&#45;&gt;VB -->
<g id="edge4" class="edge">
<title>MW&#45;&gt;VB</title>
<path fill="none" stroke="black" d="M686.69,-223.28C686.79,-215.43 686.9,-206.88 687,-199.05"/>
<polygon fill="black" stroke="black" points="683.19,-223.58 686.56,-233.63 690.19,-223.67 683.19,-223.58"/>
<polygon fill="black" stroke="black" points="690.5,-198.99 687.13,-188.95 683.5,-198.91 690.5,-198.99"/>
</g>
<!-- MW&#45;&gt;MX -->
<g id="edge22" class="edge">
<title>MW&#45;&gt;MX</title>
<path fill="none" stroke="black" d="M712.93,-237.72C734.5,-227.15 765.63,-211.9 792.5,-198.74"/>
<polygon fill="black" stroke="black" points="794.36,-201.72 801.81,-194.18 791.29,-195.43 794.36,-201.72"/>
</g>
<!-- Notes -->
<g id="node18" class="node">
<title>Notes</title>
<ellipse fill="none" stroke="black" cx="783.34" cy="-251.74" rx="36.29" ry="18"/>
<text text-anchor="middle" x="783.34" y="-248.04" font-family="Hershey-Noailles-help-me" font-size="14.00">Notes</text>
</g>
<!-- MW&#45;&gt;Notes -->
<g id="edge21" class="edge">
<title>MW&#45;&gt;Notes</title>
<path fill="none" stroke="black" d="M728.78,-251.74C731.39,-251.74 734,-251.74 736.61,-251.74"/>
<polygon fill="black" stroke="black" points="736.68,-255.24 746.68,-251.74 736.68,-248.24 736.68,-255.24"/>
</g>
<!-- RR&#45;&gt;SU -->
<g id="edge24" class="edge">
<title>RR&#45;&gt;SU</title>
<path fill="none" stroke="black" d="M835.49,-341.37C822.88,-350.96 806.89,-363.13 793.36,-373.42"/>
<polygon fill="black" stroke="black" points="791.14,-370.71 785.31,-379.55 795.38,-376.28 791.14,-370.71"/>
</g>
<!-- RR&#45;&gt;MX -->
<g id="edge23" class="edge">
<title>RR&#45;&gt;MX</title>
<path fill="none" stroke="black" d="M856.22,-305.73C854.65,-282.12 851.78,-238.83 849.73,-207.88"/>
<polygon fill="black" stroke="black" points="853.22,-207.64 849.07,-197.9 846.24,-208.11 853.22,-207.64"/>
</g>
<!-- FR -->
<g id="node17" class="node">
<title>FR</title>
<ellipse fill="none" stroke="black" cx="953.34" cy="-251.74" rx="77.99" ry="18"/>
<text text-anchor="middle" x="953.34" y="-248.04" font-family="Hershey-Noailles-help-me" font-size="14.00">Further reading</text>
</g>
<!-- RR&#45;&gt;FR -->
<g id="edge25" class="edge">
<title>RR&#45;&gt;FR</title>
<path fill="none" stroke="black" d="M880.09,-306.15C892.77,-296.91 908.72,-285.28 922.5,-275.23"/>
<polygon fill="black" stroke="black" points="924.74,-277.93 930.76,-269.21 920.61,-272.27 924.74,-277.93"/>
</g>
</g>
</svg>
