<?xml version="1.0" encoding="UTF-8" standalone="no"?>
<!DOCTYPE svg PUBLIC "-//W3C//DTD SVG 1.1//EN"
 "http://www.w3.org/Graphics/SVG/1.1/DTD/svg11.dtd">
<!-- Generated by graphviz version 2.38.0 (20140413.2041)
 -->
<!-- Title: G Pages: 1 -->
<svg width="1060pt" height="494pt"
 viewBox="0.00 0.00 1060.33 493.74" xmlns="http://www.w3.org/2000/svg" xmlns:xlink="http://www.w3.org/1999/xlink">
<g id="graph0" class="graph" transform="scale(1 1) rotate(0) translate(4 489.74)">
<title>G</title>
<polygon fill="white" stroke="none" points="-4,4 -4,-489.74 1056.33,-489.74 1056.33,4 -4,4"/>
<!-- GS -->
<g id="node1" class="node"><title>GS</title>
<ellipse fill="none" stroke="grey" stroke-width="2" cx="875.544" cy="-467.74" rx="103.982" ry="18"/>
<text text-anchor="middle" x="875.544" y="-464.04" font-family="Times,serif" font-size="14.00">Ch.2 &#45; Variable Geometry</text>
</g>
<!-- SU -->
<g id="node2" class="node"><title>SU</title>
<ellipse fill="none" stroke="black" cx="776.544" cy="-323.74" rx="35.194" ry="18"/>
<text text-anchor="middle" x="776.544" y="-320.04" font-family="Times,serif" font-size="14.00">setup()</text>
</g>
<!-- GS&#45;&gt;SU -->
<g id="edge3" class="edge"><title>GS&#45;&gt;SU</title>
<path fill="none" stroke="black" d="M839.288,-450.628C823.57,-441.878 806.33,-429.575 795.544,-413.74 783.143,-395.536 778.614,-370.764 777.061,-351.977"/>
<polygon fill="black" stroke="black" points="780.553,-351.742 776.463,-341.969 773.565,-352.16 780.553,-351.742"/>
</g>
<!-- MX -->
<g id="node15" class="node"><title>MX</title>
<ellipse fill="none" stroke="black" cx="974.544" cy="-170.87" rx="77.5641" ry="26.7407"/>
<text text-anchor="middle" x="974.544" y="-174.67" font-family="Times,serif" font-size="14.00">MiniX 2: </text>
<text text-anchor="middle" x="974.544" y="-159.67" font-family="Times,serif" font-size="14.00">Geometric emoji</text>
</g>
<!-- GS&#45;&gt;MX -->
<g id="edge2" class="edge"><title>GS&#45;&gt;MX</title>
<path fill="none" stroke="black" d="M913.603,-450.79C929.287,-442.192 945.993,-429.964 955.544,-413.74 993.546,-349.183 987.916,-257.588 980.937,-207.681"/>
<polygon fill="black" stroke="black" points="984.384,-207.061 979.443,-197.689 977.461,-208.096 984.384,-207.061"/>
</g>
<!-- RR -->
<g id="node16" class="node"><title>RR</title>
<ellipse fill="none" stroke="black" cx="875.544" cy="-395.74" rx="71.4873" ry="18"/>
<text text-anchor="middle" x="875.544" y="-392.04" font-family="Times,serif" font-size="14.00">Required reading</text>
</g>
<!-- GS&#45;&gt;RR -->
<g id="edge1" class="edge"><title>GS&#45;&gt;RR</title>
<path fill="none" stroke="black" d="M875.544,-449.437C875.544,-441.723 875.544,-432.453 875.544,-423.853"/>
<polygon fill="black" stroke="black" points="879.044,-423.844 875.544,-413.844 872.044,-423.844 879.044,-423.844"/>
</g>
<!-- ST -->
<g id="node3" class="node"><title>ST</title>
<ellipse fill="none" stroke="black" cx="861.544" cy="-323.74" rx="31.6951" ry="18"/>
<text text-anchor="middle" x="861.544" y="-320.04" font-family="Times,serif" font-size="14.00">start()</text>
</g>
<!-- SU&#45;&gt;ST -->
<g id="edge4" class="edge"><title>SU&#45;&gt;ST</title>
<path fill="none" stroke="black" d="M811.739,-323.74C814.349,-323.74 816.96,-323.74 819.57,-323.74"/>
<polygon fill="black" stroke="black" points="819.638,-327.24 829.638,-323.74 819.638,-320.24 819.638,-327.24"/>
</g>
<!-- SC -->
<g id="node4" class="node"><title>SC</title>
<ellipse fill="none" stroke="black" cx="502.544" cy="-251.74" rx="55.7903" ry="18"/>
<text text-anchor="middle" x="502.544" y="-248.04" font-family="Times,serif" font-size="14.00">Source Code</text>
</g>
<!-- ST&#45;&gt;SC -->
<g id="edge5" class="edge"><title>ST&#45;&gt;SC</title>
<path fill="none" stroke="black" d="M837.589,-311.738C832.074,-309.507 826.174,-307.353 820.544,-305.74 733.85,-280.895 630.309,-266.329 565.474,-258.945"/>
<polygon fill="black" stroke="black" points="565.736,-255.453 555.409,-257.821 564.959,-262.41 565.736,-255.453"/>
</g>
<!-- MW -->
<g id="node14" class="node"><title>MW</title>
<ellipse fill="none" stroke="black" cx="861.544" cy="-251.74" rx="38.1938" ry="18"/>
<text text-anchor="middle" x="861.544" y="-248.04" font-family="Times,serif" font-size="14.00">While()</text>
</g>
<!-- ST&#45;&gt;MW -->
<g id="edge18" class="edge"><title>ST&#45;&gt;MW</title>
<path fill="none" stroke="black" d="M861.544,-305.437C861.544,-297.723 861.544,-288.453 861.544,-279.853"/>
<polygon fill="black" stroke="black" points="865.044,-279.844 861.544,-269.844 858.044,-279.844 865.044,-279.844"/>
</g>
<!-- CO -->
<g id="node5" class="node"><title>CO</title>
<ellipse fill="none" stroke="black" cx="148.544" cy="-170.87" rx="57.3905" ry="18"/>
<text text-anchor="middle" x="148.544" y="-167.17" font-family="Times,serif" font-size="14.00">Coordination</text>
</g>
<!-- SC&#45;&gt;CO -->
<g id="edge6" class="edge"><title>SC&#45;&gt;CO</title>
<path fill="none" stroke="black" d="M458.068,-240.831C393.554,-226.458 274.08,-199.839 203.935,-184.211"/>
<polygon fill="black" stroke="black" points="204.477,-180.746 193.956,-181.988 202.955,-187.579 204.477,-180.746"/>
</g>
<!-- VB -->
<g id="node7" class="node"><title>VB</title>
<ellipse fill="none" stroke="black" cx="346.544" cy="-170.87" rx="44.393" ry="18"/>
<text text-anchor="middle" x="346.544" y="-167.17" font-family="Times,serif" font-size="14.00">Variables</text>
</g>
<!-- SC&#45;&gt;VB -->
<g id="edge8" class="edge"><title>SC&#45;&gt;VB</title>
<path fill="none" stroke="black" d="M473.931,-236.274C448.089,-223.209 409.961,-203.932 382.155,-189.874"/>
<polygon fill="black" stroke="black" points="383.657,-186.712 373.154,-185.323 380.499,-192.959 383.657,-186.712"/>
</g>
<!-- OF -->
<g id="node9" class="node"><title>OF</title>
<ellipse fill="none" stroke="black" cx="502.544" cy="-170.87" rx="65.7887" ry="18"/>
<text text-anchor="middle" x="502.544" y="-167.17" font-family="Times,serif" font-size="14.00">Other functions</text>
</g>
<!-- SC&#45;&gt;OF -->
<g id="edge10" class="edge"><title>SC&#45;&gt;OF</title>
<path fill="none" stroke="black" d="M502.544,-233.626C502.544,-223.601 502.544,-210.706 502.544,-199.295"/>
<polygon fill="black" stroke="black" points="506.044,-198.95 502.544,-188.95 499.044,-198.95 506.044,-198.95"/>
</g>
<!-- CS -->
<g id="node11" class="node"><title>CS</title>
<ellipse fill="none" stroke="black" cx="711.544" cy="-170.87" rx="87.1846" ry="18"/>
<text text-anchor="middle" x="711.544" y="-167.17" font-family="Times,serif" font-size="14.00">Conditional Structure</text>
</g>
<!-- SC&#45;&gt;CS -->
<g id="edge12" class="edge"><title>SC&#45;&gt;CS</title>
<path fill="none" stroke="black" d="M537.526,-237.539C571.592,-224.683 623.697,-205.021 662.016,-190.56"/>
<polygon fill="black" stroke="black" points="663.321,-193.809 671.442,-187.003 660.85,-187.259 663.321,-193.809"/>
</g>
<!-- EiC -->
<g id="node6" class="node"><title>EiC</title>
<ellipse fill="none" stroke="black" cx="69.5438" cy="-90" rx="69.5877" ry="18"/>
<text text-anchor="middle" x="69.5438" y="-86.3" font-family="Times,serif" font-size="14.00">Exercise in class</text>
</g>
<!-- CO&#45;&gt;EiC -->
<g id="edge7" class="edge"><title>CO&#45;&gt;EiC</title>
<path fill="none" stroke="black" d="M132.175,-153.528C121.022,-142.393 106.07,-127.466 93.5721,-114.989"/>
<polygon fill="black" stroke="black" points="95.7133,-112.181 86.1635,-107.592 90.7676,-117.135 95.7133,-112.181"/>
</g>
<!-- DiC -->
<g id="node13" class="node"><title>DiC</title>
<ellipse fill="none" stroke="black" cx="483.544" cy="-18" rx="77.9862" ry="18"/>
<text text-anchor="middle" x="483.544" y="-14.3" font-family="Times,serif" font-size="14.00">Discussion in class</text>
</g>
<!-- EiC&#45;&gt;DiC -->
<g id="edge14" class="edge"><title>EiC&#45;&gt;DiC</title>
<path fill="none" stroke="black" d="M120.226,-77.5064C129.303,-75.5756 138.69,-73.6617 147.544,-72 236.841,-55.2407 340.163,-39.4829 408.4,-29.576"/>
<polygon fill="black" stroke="black" points="409.229,-32.9926 418.625,-28.0972 408.227,-26.0647 409.229,-32.9926"/>
</g>
<!-- YVB -->
<g id="node8" class="node"><title>YVB</title>
<ellipse fill="none" stroke="black" cx="237.544" cy="-90" rx="80.6858" ry="18"/>
<text text-anchor="middle" x="237.544" y="-86.3" font-family="Times,serif" font-size="14.00">Why use variables?</text>
</g>
<!-- VB&#45;&gt;YVB -->
<g id="edge9" class="edge"><title>VB&#45;&gt;YVB</title>
<path fill="none" stroke="black" d="M325.785,-154.85C309.648,-143.173 287.005,-126.789 268.696,-113.541"/>
<polygon fill="black" stroke="black" points="270.257,-110.351 260.104,-107.324 266.154,-116.022 270.257,-110.351"/>
</g>
<!-- VB&#45;&gt;DiC -->
<g id="edge15" class="edge"><title>VB&#45;&gt;DiC</title>
<path fill="none" stroke="black" d="M345.366,-152.709C344.832,-131.491 347.052,-95.3313 365.544,-72 379.332,-54.6031 400.065,-42.7391 420.324,-34.729"/>
<polygon fill="black" stroke="black" points="421.71,-37.9481 429.884,-31.2066 419.29,-31.3798 421.71,-37.9481"/>
</g>
<!-- BAO -->
<g id="node10" class="node"><title>BAO</title>
<ellipse fill="none" stroke="black" cx="483.544" cy="-90" rx="108.581" ry="18"/>
<text text-anchor="middle" x="483.544" y="-86.3" font-family="Times,serif" font-size="14.00">Basic Arithmetic Operators</text>
</g>
<!-- OF&#45;&gt;BAO -->
<g id="edge11" class="edge"><title>OF&#45;&gt;BAO</title>
<path fill="none" stroke="black" d="M498.421,-152.756C495.981,-142.628 492.835,-129.57 490.066,-118.072"/>
<polygon fill="black" stroke="black" points="493.403,-116.982 487.659,-108.08 486.598,-118.622 493.403,-116.982"/>
</g>
<!-- OF&#45;&gt;DiC -->
<g id="edge17" class="edge"><title>OF&#45;&gt;DiC</title>
<path fill="none" stroke="black" d="M541.853,-156.295C563.635,-146.52 588.82,-130.956 601.544,-108 609.3,-94.0059 610.236,-85.433 601.544,-72 589.747,-53.77 570.029,-41.7502 550.056,-33.85"/>
<polygon fill="black" stroke="black" points="551.172,-30.5315 540.578,-30.3981 548.777,-37.1089 551.172,-30.5315"/>
</g>
<!-- RO -->
<g id="node12" class="node"><title>RO</title>
<ellipse fill="none" stroke="black" cx="730.544" cy="-90" rx="81.7856" ry="18"/>
<text text-anchor="middle" x="730.544" y="-86.3" font-family="Times,serif" font-size="14.00">Relational operators</text>
</g>
<!-- CS&#45;&gt;RO -->
<g id="edge13" class="edge"><title>CS&#45;&gt;RO</title>
<path fill="none" stroke="black" d="M715.667,-152.756C718.107,-142.628 721.252,-129.57 724.022,-118.072"/>
<polygon fill="black" stroke="black" points="727.49,-118.622 726.429,-108.08 720.684,-116.982 727.49,-118.622"/>
</g>
<!-- CS&#45;&gt;DiC -->
<g id="edge16" class="edge"><title>CS&#45;&gt;DiC</title>
<path fill="none" stroke="black" d="M751.497,-154.695C793.362,-136.585 849.459,-104.633 821.544,-72 789.943,-35.0577 660.561,-23.6892 571.364,-20.2939"/>
<polygon fill="black" stroke="black" points="571.356,-16.7915 561.238,-19.9358 571.108,-23.7871 571.356,-16.7915"/>
</g>
<!-- MW&#45;&gt;MX -->
<g id="edge20" class="edge"><title>MW&#45;&gt;MX</title>
<path fill="none" stroke="black" d="M882.007,-236.457C896.109,-226.615 915.35,-213.185 932.636,-201.121"/>
<polygon fill="black" stroke="black" points="934.736,-203.923 940.933,-195.329 930.73,-198.183 934.736,-203.923"/>
</g>
<!-- Notes -->
<g id="node17" class="node"><title>Notes</title>
<ellipse fill="none" stroke="black" cx="847.544" cy="-170.87" rx="31.3957" ry="18"/>
<text text-anchor="middle" x="847.544" y="-167.17" font-family="Times,serif" font-size="14.00">Notes</text>
</g>
<!-- MW&#45;&gt;Notes -->
<g id="edge19" class="edge"><title>MW&#45;&gt;Notes</title>
<path fill="none" stroke="black" d="M858.506,-233.626C856.708,-223.498 854.39,-210.44 852.349,-198.942"/>
<polygon fill="black" stroke="black" points="855.77,-198.185 850.576,-188.95 848.877,-199.408 855.77,-198.185"/>
</g>
<!-- RR&#45;&gt;SU -->
<g id="edge22" class="edge"><title>RR&#45;&gt;SU</title>
<path fill="none" stroke="black" d="M852.582,-378.505C838.353,-368.444 819.97,-355.446 804.844,-344.75"/>
<polygon fill="black" stroke="black" points="806.556,-341.674 796.37,-338.758 802.514,-347.39 806.556,-341.674"/>
</g>
<!-- RR&#45;&gt;MX -->
<g id="edge21" class="edge"><title>RR&#45;&gt;MX</title>
<path fill="none" stroke="black" d="M884.607,-377.705C890,-367.386 896.874,-353.909 902.544,-341.74 923.907,-295.892 946.31,-241.971 960.342,-207.382"/>
<polygon fill="black" stroke="black" points="963.741,-208.313 964.244,-197.73 957.251,-205.69 963.741,-208.313"/>
</g>
</g>
</svg>
