<?xml version="1.0" encoding="UTF-8" standalone="no"?>
<!DOCTYPE svg PUBLIC "-//W3C//DTD SVG 1.1//EN"
 "http://www.w3.org/Graphics/SVG/1.1/DTD/svg11.dtd">
<!-- Generated by graphviz version 2.38.0 (20140413.2041)
 -->
<!-- Title: G Pages: 1 -->
<svg width="1085pt" height="494pt"
 viewBox="0.00 0.00 1085.04 493.74" xmlns="http://www.w3.org/2000/svg" xmlns:xlink="http://www.w3.org/1999/xlink">
<g id="graph0" class="graph" transform="scale(1 1) rotate(0) translate(4 489.74)">
<title>G</title>
<polygon fill="white" stroke="none" points="-4,4 -4,-489.74 1081.04,-489.74 1081.04,4 -4,4"/>
<!-- GS -->
<g id="node1" class="node"><title>GS</title>
<polygon fill="none" stroke="black" points="953.743,-485.74 792.743,-485.74 792.743,-449.74 953.743,-449.74 953.743,-485.74"/>
<text text-anchor="middle" x="873.243" y="-464.04" font-family="Hershey-Noailles-help-me" font-size="14.00">2. Variable geometry</text>
</g>
<!-- SU -->
<g id="node2" class="node"><title>SU</title>
<ellipse fill="none" stroke="black" cx="781.243" cy="-395.74" rx="42.4939" ry="18"/>
<text text-anchor="middle" x="781.243" y="-392.04" font-family="Hershey-Noailles-help-me" font-size="14.00">setup()</text>
</g>
<!-- GS&#45;&gt;SU -->
<g id="edge6" class="edge"><title>GS&#45;&gt;SU</title>
<path fill="none" stroke="black" d="M850.501,-449.437C838.018,-439.938 822.432,-428.08 809.209,-418.019"/>
<polygon fill="black" stroke="black" points="810.995,-414.98 800.917,-411.71 806.756,-420.551 810.995,-414.98"/>
</g>
<!-- MX -->
<g id="node15" class="node"><title>MX</title>
<ellipse fill="none" stroke="black" cx="863.243" cy="-170.87" rx="91.4341" ry="26.7407"/>
<text text-anchor="middle" x="863.243" y="-174.67" font-family="Hershey-Noailles-help-me" font-size="14.00">MiniX: </text>
<text text-anchor="middle" x="863.243" y="-159.67" font-family="Hershey-Noailles-help-me" font-size="14.00">Geometric emoji</text>
</g>
<!-- GS&#45;&gt;MX -->
<g id="edge1" class="edge"><title>GS&#45;&gt;MX</title>
<path fill="none" stroke="black" d="M906.32,-449.644C975.405,-411.702 1123.7,-317.207 1062.24,-233.74 1039.06,-202.249 999.971,-186.32 962.549,-178.427"/>
<polygon fill="black" stroke="black" points="963.051,-174.96 952.569,-176.498 961.723,-181.832 963.051,-174.96"/>
</g>
<!-- RR -->
<g id="node16" class="node"><title>RR</title>
<ellipse fill="none" stroke="black" cx="873.243" cy="-323.74" rx="87.1846" ry="18"/>
<text text-anchor="middle" x="873.243" y="-320.04" font-family="Hershey-Noailles-help-me" font-size="14.00">Required reading</text>
</g>
<!-- GS&#45;&gt;RR -->
<g id="edge2" class="edge"><title>GS&#45;&gt;RR</title>
<path fill="none" stroke="black" d="M873.243,-439.419C873.243,-414.339 873.243,-377.367 873.243,-352.233"/>
<polygon fill="black" stroke="black" points="869.743,-439.612 873.243,-449.612 876.743,-439.612 869.743,-439.612"/>
<polygon fill="black" stroke="black" points="876.743,-351.929 873.243,-341.929 869.743,-351.929 876.743,-351.929"/>
</g>
<!-- ST -->
<g id="node3" class="node"><title>ST</title>
<ellipse fill="none" stroke="black" cx="691.243" cy="-323.74" rx="38.9931" ry="18"/>
<text text-anchor="middle" x="691.243" y="-320.04" font-family="Hershey-Noailles-help-me" font-size="14.00">start()</text>
</g>
<!-- SU&#45;&gt;ST -->
<g id="edge7" class="edge"><title>SU&#45;&gt;ST</title>
<path fill="none" stroke="black" d="M761.714,-379.551C749.127,-369.761 732.576,-356.888 718.677,-346.077"/>
<polygon fill="black" stroke="black" points="720.466,-343.036 710.424,-339.659 716.169,-348.561 720.466,-343.036"/>
</g>
<!-- MW -->
<g id="node14" class="node"><title>MW</title>
<ellipse fill="none" stroke="black" cx="701.243" cy="-251.74" rx="43.5923" ry="18"/>
<text text-anchor="middle" x="701.243" y="-248.04" font-family="Hershey-Noailles-help-me" font-size="14.00">While()</text>
</g>
<!-- SU&#45;&gt;MW -->
<g id="edge3" class="edge"><title>SU&#45;&gt;MW</title>
<path fill="none" stroke="black" d="M770.379,-368.547C762.525,-350.472 751.225,-326.121 739.243,-305.74 733.648,-296.224 726.803,-286.268 720.471,-277.589"/>
<polygon fill="black" stroke="black" points="767.22,-370.06 774.371,-377.877 773.655,-367.307 767.22,-370.06"/>
<polygon fill="black" stroke="black" points="723.154,-275.331 714.376,-269.398 717.538,-279.51 723.154,-275.331"/>
</g>
<!-- SC -->
<g id="node4" class="node"><title>SC</title>
<ellipse fill="none" stroke="black" cx="538.243" cy="-251.74" rx="64.9885" ry="18"/>
<text text-anchor="middle" x="538.243" y="-248.04" font-family="Hershey-Noailles-help-me" font-size="14.00">Source code</text>
</g>
<!-- ST&#45;&gt;SC -->
<g id="edge8" class="edge"><title>ST&#45;&gt;SC</title>
<path fill="none" stroke="black" d="M664.592,-310.547C641.157,-299.825 606.666,-284.045 579.64,-271.68"/>
<polygon fill="black" stroke="black" points="580.971,-268.44 570.422,-267.462 578.059,-274.806 580.971,-268.44"/>
</g>
<!-- ST&#45;&gt;MW -->
<g id="edge20" class="edge"><title>ST&#45;&gt;MW</title>
<path fill="none" stroke="black" d="M693.715,-305.437C694.817,-297.723 696.141,-288.453 697.37,-279.853"/>
<polygon fill="black" stroke="black" points="700.85,-280.239 698.799,-269.844 693.92,-279.249 700.85,-280.239"/>
</g>
<!-- CO -->
<g id="node5" class="node"><title>CO</title>
<ellipse fill="none" stroke="black" cx="538.243" cy="-170.87" rx="59.5901" ry="18"/>
<text text-anchor="middle" x="538.243" y="-167.17" font-family="Hershey-Noailles-help-me" font-size="14.00">Coordinate</text>
</g>
<!-- SC&#45;&gt;CO -->
<g id="edge9" class="edge"><title>SC&#45;&gt;CO</title>
<path fill="none" stroke="black" d="M538.243,-233.626C538.243,-223.601 538.243,-210.706 538.243,-199.295"/>
<polygon fill="black" stroke="black" points="541.743,-198.95 538.243,-188.95 534.743,-198.95 541.743,-198.95"/>
</g>
<!-- VB -->
<g id="node7" class="node"><title>VB</title>
<ellipse fill="none" stroke="black" cx="702.243" cy="-170.87" rx="51.1914" ry="18"/>
<text text-anchor="middle" x="702.243" y="-167.17" font-family="Hershey-Noailles-help-me" font-size="14.00">Variables</text>
</g>
<!-- SC&#45;&gt;VB -->
<g id="edge11" class="edge"><title>SC&#45;&gt;VB</title>
<path fill="none" stroke="black" d="M569.476,-235.72C596.362,-222.79 635.252,-204.087 663.998,-190.263"/>
<polygon fill="black" stroke="black" points="665.83,-193.265 673.325,-185.777 662.796,-186.957 665.83,-193.265"/>
</g>
<!-- OF -->
<g id="node9" class="node"><title>OF</title>
<ellipse fill="none" stroke="black" cx="81.2428" cy="-90" rx="81.4863" ry="18"/>
<text text-anchor="middle" x="81.2428" y="-86.3" font-family="Hershey-Noailles-help-me" font-size="14.00">Other functions</text>
</g>
<!-- SC&#45;&gt;OF -->
<g id="edge13" class="edge"><title>SC&#45;&gt;OF</title>
<path fill="none" stroke="black" d="M474.509,-247.988C410.766,-243.363 311.003,-230.966 231.243,-197.74 182.906,-177.604 135.005,-139.526 106.777,-114.716"/>
<polygon fill="black" stroke="black" points="108.804,-111.834 99.0119,-107.787 104.143,-117.057 108.804,-111.834"/>
</g>
<!-- CS -->
<g id="node11" class="node"><title>CS</title>
<ellipse fill="none" stroke="black" cx="350.243" cy="-170.87" rx="110.48" ry="18"/>
<text text-anchor="middle" x="350.243" y="-167.17" font-family="Hershey-Noailles-help-me" font-size="14.00">Conditional structures</text>
</g>
<!-- SC&#45;&gt;CS -->
<g id="edge15" class="edge"><title>SC&#45;&gt;CS</title>
<path fill="none" stroke="black" d="M503.761,-236.274C474.045,-223.808 430.848,-205.686 397.841,-191.838"/>
<polygon fill="black" stroke="black" points="398.962,-188.513 388.386,-187.872 396.254,-194.968 398.962,-188.513"/>
</g>
<!-- EiC -->
<g id="node6" class="node"><title>EiC</title>
<ellipse fill="none" stroke="black" cx="521.243" cy="-90" rx="82.5854" ry="18"/>
<text text-anchor="middle" x="521.243" y="-86.3" font-family="Hershey-Noailles-help-me" font-size="14.00">Exercise in class</text>
</g>
<!-- CO&#45;&gt;EiC -->
<g id="edge10" class="edge"><title>CO&#45;&gt;EiC</title>
<path fill="none" stroke="black" d="M534.554,-152.756C532.371,-142.628 529.556,-129.57 527.078,-118.072"/>
<polygon fill="black" stroke="black" points="530.453,-117.118 524.924,-108.08 523.61,-118.593 530.453,-117.118"/>
</g>
<!-- DiC -->
<g id="node13" class="node"><title>DiC</title>
<ellipse fill="none" stroke="black" cx="521.243" cy="-18" rx="92.8835" ry="18"/>
<text text-anchor="middle" x="521.243" y="-14.3" font-family="Hershey-Noailles-help-me" font-size="14.00">Discussion in class</text>
</g>
<!-- EiC&#45;&gt;DiC -->
<g id="edge17" class="edge"><title>EiC&#45;&gt;DiC</title>
<path fill="none" stroke="black" d="M521.243,-71.6966C521.243,-63.9827 521.243,-54.7125 521.243,-46.1124"/>
<polygon fill="black" stroke="black" points="524.743,-46.1043 521.243,-36.1043 517.743,-46.1044 524.743,-46.1043"/>
</g>
<!-- YVB -->
<g id="node8" class="node"><title>YVB</title>
<ellipse fill="none" stroke="black" cx="720.243" cy="-90" rx="98.2828" ry="18"/>
<text text-anchor="middle" x="720.243" y="-86.3" font-family="Hershey-Noailles-help-me" font-size="14.00">Why use variables?</text>
</g>
<!-- VB&#45;&gt;YVB -->
<g id="edge12" class="edge"><title>VB&#45;&gt;YVB</title>
<path fill="none" stroke="black" d="M706.149,-152.756C708.46,-142.628 711.44,-129.57 714.064,-118.072"/>
<polygon fill="black" stroke="black" points="717.532,-118.608 716.345,-108.08 710.707,-117.051 717.532,-118.608"/>
</g>
<!-- VB&#45;&gt;DiC -->
<g id="edge18" class="edge"><title>VB&#45;&gt;DiC</title>
<path fill="none" stroke="black" d="M733.559,-156.438C768.787,-141.014 821.831,-116.717 827.243,-108 835.682,-94.4066 837.546,-84.2411 827.243,-72 801.189,-41.0462 700.514,-28.1702 621.665,-22.8143"/>
<polygon fill="black" stroke="black" points="621.881,-19.321 611.675,-22.1675 621.428,-26.3064 621.881,-19.321"/>
</g>
<!-- BAO -->
<g id="node10" class="node"><title>BAO</title>
<ellipse fill="none" stroke="black" cx="181.243" cy="-18" rx="128.077" ry="18"/>
<text text-anchor="middle" x="181.243" y="-14.3" font-family="Hershey-Noailles-help-me" font-size="14.00">Basic arithmetic operators</text>
</g>
<!-- OF&#45;&gt;BAO -->
<g id="edge14" class="edge"><title>OF&#45;&gt;BAO</title>
<path fill="none" stroke="black" d="M104.688,-72.5881C117.787,-63.4188 134.312,-51.8518 148.653,-41.8131"/>
<polygon fill="black" stroke="black" points="151.064,-44.3972 157.25,-35.7953 147.05,-38.6626 151.064,-44.3972"/>
</g>
<!-- RO -->
<g id="node12" class="node"><title>RO</title>
<ellipse fill="none" stroke="black" cx="281.243" cy="-90" rx="100.983" ry="18"/>
<text text-anchor="middle" x="281.243" y="-86.3" font-family="Hershey-Noailles-help-me" font-size="14.00">Relational operators</text>
</g>
<!-- CS&#45;&gt;RO -->
<g id="edge16" class="edge"><title>CS&#45;&gt;RO</title>
<path fill="none" stroke="black" d="M335.271,-152.756C325.712,-141.83 313.171,-127.495 302.577,-115.386"/>
<polygon fill="black" stroke="black" points="305.167,-113.031 295.949,-107.809 299.899,-117.64 305.167,-113.031"/>
</g>
<!-- CS&#45;&gt;DiC -->
<g id="edge19" class="edge"><title>CS&#45;&gt;DiC</title>
<path fill="none" stroke="black" d="M361.199,-152.689C375.144,-131.777 400.857,-96.259 429.243,-72 443.768,-59.5865 461.614,-48.5363 477.71,-39.7805"/>
<polygon fill="black" stroke="black" points="479.742,-42.6655 486.946,-34.8975 476.47,-36.4771 479.742,-42.6655"/>
</g>
<!-- RO&#45;&gt;BAO -->
<g id="edge5" class="edge"><title>RO&#45;&gt;BAO</title>
<path fill="none" stroke="black" d="M257.544,-72.411C241.719,-61.3333 220.979,-46.8157 205.118,-35.7125"/>
</g>
<!-- MW&#45;&gt;VB -->
<g id="edge4" class="edge"><title>MW&#45;&gt;VB</title>
<path fill="none" stroke="black" d="M701.591,-223.277C701.69,-215.43 701.799,-206.883 701.898,-199.052"/>
<polygon fill="black" stroke="black" points="698.087,-223.583 701.46,-233.626 705.086,-223.672 698.087,-223.583"/>
<polygon fill="black" stroke="black" points="705.399,-198.994 702.026,-188.95 698.4,-198.905 705.399,-198.994"/>
</g>
<!-- MW&#45;&gt;MX -->
<g id="edge22" class="edge"><title>MW&#45;&gt;MX</title>
<path fill="none" stroke="black" d="M728.358,-237.539C750.032,-226.987 781.127,-211.848 808,-198.765"/>
<polygon fill="black" stroke="black" points="809.848,-201.758 817.307,-194.234 806.784,-195.465 809.848,-201.758"/>
</g>
<!-- Notes -->
<g id="node18" class="node"><title>Notes</title>
<ellipse fill="none" stroke="black" cx="799.243" cy="-251.74" rx="36.2938" ry="18"/>
<text text-anchor="middle" x="799.243" y="-248.04" font-family="Hershey-Noailles-help-me" font-size="14.00">Notes</text>
</g>
<!-- MW&#45;&gt;Notes -->
<g id="edge21" class="edge"><title>MW&#45;&gt;Notes</title>
<path fill="none" stroke="black" d="M744.883,-251.74C747.485,-251.74 750.086,-251.74 752.687,-251.74"/>
<polygon fill="black" stroke="black" points="752.72,-255.24 762.72,-251.74 752.72,-248.24 752.72,-255.24"/>
</g>
<!-- RR&#45;&gt;SU -->
<g id="edge24" class="edge"><title>RR&#45;&gt;SU</title>
<path fill="none" stroke="black" d="M851.389,-341.368C838.777,-350.964 822.786,-363.131 809.258,-373.424"/>
<polygon fill="black" stroke="black" points="807.044,-370.71 801.205,-379.551 811.283,-376.281 807.044,-370.71"/>
</g>
<!-- RR&#45;&gt;MX -->
<g id="edge23" class="edge"><title>RR&#45;&gt;MX</title>
<path fill="none" stroke="black" d="M872.115,-305.727C870.55,-282.117 867.681,-238.835 865.629,-207.876"/>
<polygon fill="black" stroke="black" points="869.122,-207.643 864.968,-197.896 862.137,-208.106 869.122,-207.643"/>
</g>
<!-- FR -->
<g id="node17" class="node"><title>FR</title>
<ellipse fill="none" stroke="black" cx="972.243" cy="-251.74" rx="81.4863" ry="18"/>
<text text-anchor="middle" x="972.243" y="-248.04" font-family="Hershey-Noailles-help-me" font-size="14.00">Further reading</text>
</g>
<!-- RR&#45;&gt;FR -->
<g id="edge25" class="edge"><title>RR&#45;&gt;FR</title>
<path fill="none" stroke="black" d="M896.454,-306.328C909.735,-296.937 926.574,-285.031 941.004,-274.828"/>
<polygon fill="black" stroke="black" points="943.033,-277.68 949.177,-269.049 938.991,-271.965 943.033,-277.68"/>
</g>
</g>
</svg>
