<?xml version="1.0" encoding="UTF-8" standalone="no"?>
<!DOCTYPE svg PUBLIC "-//W3C//DTD SVG 1.1//EN"
 "http://www.w3.org/Graphics/SVG/1.1/DTD/svg11.dtd">
<!-- Generated by graphviz version 2.38.0 (20140413.2041)
 -->
<!-- Title: G Pages: 1 -->
<svg width="927pt" height="494pt"
 viewBox="0.00 0.00 926.65 493.74" xmlns="http://www.w3.org/2000/svg" xmlns:xlink="http://www.w3.org/1999/xlink">
<g id="graph0" class="graph" transform="scale(1 1) rotate(0) translate(4 489.74)">
<title>G</title>
<polygon fill="white" stroke="none" points="-4,4 -4,-489.74 922.654,-489.74 922.654,4 -4,4"/>
<!-- GS -->
<g id="node1" class="node"><title>GS</title>
<ellipse fill="none" stroke="grey" stroke-width="2" cx="741.644" cy="-467.74" rx="103.982" ry="18"/>
<text text-anchor="middle" x="741.644" y="-464.04" font-family="Times,serif" font-size="14.00">Ch.2 &#45; Variable Geometry</text>
</g>
<!-- SU -->
<g id="node2" class="node"><title>SU</title>
<ellipse fill="none" stroke="black" cx="660.644" cy="-395.74" rx="35.194" ry="18"/>
<text text-anchor="middle" x="660.644" y="-392.04" font-family="Times,serif" font-size="14.00">setup()</text>
</g>
<!-- GS&#45;&gt;SU -->
<g id="edge6" class="edge"><title>GS&#45;&gt;SU</title>
<path fill="none" stroke="black" d="M722.036,-449.795C711.08,-440.327 697.315,-428.431 685.597,-418.305"/>
<polygon fill="black" stroke="black" points="687.726,-415.519 677.872,-411.628 683.149,-420.815 687.726,-415.519"/>
</g>
<!-- MX -->
<g id="node15" class="node"><title>MX</title>
<ellipse fill="none" stroke="black" cx="735.644" cy="-170.87" rx="77.5641" ry="26.7407"/>
<text text-anchor="middle" x="735.644" y="-174.67" font-family="Times,serif" font-size="14.00">MiniX: </text>
<text text-anchor="middle" x="735.644" y="-159.67" font-family="Times,serif" font-size="14.00">Geometric emoji</text>
</g>
<!-- GS&#45;&gt;MX -->
<g id="edge1" class="edge"><title>GS&#45;&gt;MX</title>
<path fill="none" stroke="black" d="M768.853,-450.36C828.582,-412.327 961.483,-315.076 904.644,-233.74 885.1,-205.772 851.478,-190.407 819.344,-181.981"/>
<polygon fill="black" stroke="black" points="819.98,-178.534 809.437,-179.583 818.333,-185.338 819.98,-178.534"/>
</g>
<!-- RR -->
<g id="node16" class="node"><title>RR</title>
<ellipse fill="none" stroke="black" cx="741.644" cy="-323.74" rx="71.4873" ry="18"/>
<text text-anchor="middle" x="741.644" y="-320.04" font-family="Times,serif" font-size="14.00">Required reading</text>
</g>
<!-- GS&#45;&gt;RR -->
<g id="edge2" class="edge"><title>GS&#45;&gt;RR</title>
<path fill="none" stroke="black" d="M741.644,-439.419C741.644,-414.339 741.644,-377.367 741.644,-352.233"/>
<polygon fill="black" stroke="black" points="738.144,-439.612 741.644,-449.612 745.144,-439.612 738.144,-439.612"/>
<polygon fill="black" stroke="black" points="745.144,-351.929 741.644,-341.929 738.144,-351.929 745.144,-351.929"/>
</g>
<!-- ST -->
<g id="node3" class="node"><title>ST</title>
<ellipse fill="none" stroke="black" cx="582.644" cy="-323.74" rx="31.6951" ry="18"/>
<text text-anchor="middle" x="582.644" y="-320.04" font-family="Times,serif" font-size="14.00">start()</text>
</g>
<!-- SU&#45;&gt;ST -->
<g id="edge7" class="edge"><title>SU&#45;&gt;ST</title>
<path fill="none" stroke="black" d="M643.719,-379.551C632.84,-369.788 618.543,-356.957 606.518,-346.165"/>
<polygon fill="black" stroke="black" points="608.782,-343.494 599.001,-339.42 604.106,-348.704 608.782,-343.494"/>
</g>
<!-- MW -->
<g id="node14" class="node"><title>MW</title>
<ellipse fill="none" stroke="black" cx="588.644" cy="-251.74" rx="38.1938" ry="18"/>
<text text-anchor="middle" x="588.644" y="-248.04" font-family="Times,serif" font-size="14.00">While()</text>
</g>
<!-- SU&#45;&gt;MW -->
<g id="edge3" class="edge"><title>SU&#45;&gt;MW</title>
<path fill="none" stroke="black" d="M651.18,-368.335C644.354,-350.304 634.467,-326.089 623.644,-305.74 618.518,-296.102 612.122,-285.992 606.206,-277.217"/>
<polygon fill="black" stroke="black" points="647.972,-369.751 654.736,-377.906 654.534,-367.313 647.972,-369.751"/>
<polygon fill="black" stroke="black" points="609.069,-275.203 600.513,-268.953 603.304,-279.174 609.069,-275.203"/>
</g>
<!-- SC -->
<g id="node4" class="node"><title>SC</title>
<ellipse fill="none" stroke="black" cx="465.644" cy="-251.74" rx="53.8905" ry="18"/>
<text text-anchor="middle" x="465.644" y="-248.04" font-family="Times,serif" font-size="14.00">Source code</text>
</g>
<!-- ST&#45;&gt;SC -->
<g id="edge8" class="edge"><title>ST&#45;&gt;SC</title>
<path fill="none" stroke="black" d="M561.456,-310.064C544.21,-299.746 519.539,-284.985 499.551,-273.026"/>
<polygon fill="black" stroke="black" points="501.119,-269.886 490.74,-267.755 497.525,-275.893 501.119,-269.886"/>
</g>
<!-- ST&#45;&gt;MW -->
<g id="edge20" class="edge"><title>ST&#45;&gt;MW</title>
<path fill="none" stroke="black" d="M584.127,-305.437C584.789,-297.723 585.583,-288.453 586.32,-279.853"/>
<polygon fill="black" stroke="black" points="589.811,-280.107 587.178,-269.844 582.837,-279.509 589.811,-280.107"/>
</g>
<!-- CO -->
<g id="node5" class="node"><title>CO</title>
<ellipse fill="none" stroke="black" cx="465.644" cy="-170.87" rx="50.0912" ry="18"/>
<text text-anchor="middle" x="465.644" y="-167.17" font-family="Times,serif" font-size="14.00">Coordinate</text>
</g>
<!-- SC&#45;&gt;CO -->
<g id="edge9" class="edge"><title>SC&#45;&gt;CO</title>
<path fill="none" stroke="black" d="M465.644,-233.626C465.644,-223.601 465.644,-210.706 465.644,-199.295"/>
<polygon fill="black" stroke="black" points="469.144,-198.95 465.644,-188.95 462.144,-198.95 469.144,-198.95"/>
</g>
<!-- VB -->
<g id="node7" class="node"><title>VB</title>
<ellipse fill="none" stroke="black" cx="593.644" cy="-170.87" rx="44.393" ry="18"/>
<text text-anchor="middle" x="593.644" y="-167.17" font-family="Times,serif" font-size="14.00">Variables</text>
</g>
<!-- SC&#45;&gt;VB -->
<g id="edge11" class="edge"><title>SC&#45;&gt;VB</title>
<path fill="none" stroke="black" d="M490.324,-235.533C510.628,-223.022 539.553,-205.199 561.637,-191.592"/>
<polygon fill="black" stroke="black" points="563.657,-194.459 570.334,-186.233 559.985,-188.499 563.657,-194.459"/>
</g>
<!-- OF -->
<g id="node9" class="node"><title>OF</title>
<ellipse fill="none" stroke="black" cx="65.6442" cy="-90" rx="65.7887" ry="18"/>
<text text-anchor="middle" x="65.6442" y="-86.3" font-family="Times,serif" font-size="14.00">Other functions</text>
</g>
<!-- SC&#45;&gt;OF -->
<g id="edge13" class="edge"><title>SC&#45;&gt;OF</title>
<path fill="none" stroke="black" d="M413.823,-246.518C360.843,-240.722 277.124,-227.408 210.644,-197.74 163.879,-176.87 117.585,-138.997 90.3122,-114.431"/>
<polygon fill="black" stroke="black" points="92.5523,-111.737 82.8094,-107.574 87.8299,-116.904 92.5523,-111.737"/>
</g>
<!-- CS -->
<g id="node11" class="node"><title>CS</title>
<ellipse fill="none" stroke="black" cx="308.644" cy="-170.87" rx="89.0842" ry="18"/>
<text text-anchor="middle" x="308.644" y="-167.17" font-family="Times,serif" font-size="14.00">Conditional structures</text>
</g>
<!-- SC&#45;&gt;CS -->
<g id="edge15" class="edge"><title>SC&#45;&gt;CS</title>
<path fill="none" stroke="black" d="M436.848,-236.274C412.272,-223.928 376.655,-206.036 349.195,-192.241"/>
<polygon fill="black" stroke="black" points="350.731,-189.096 340.224,-187.734 347.588,-195.351 350.731,-189.096"/>
</g>
<!-- EiC -->
<g id="node6" class="node"><title>EiC</title>
<ellipse fill="none" stroke="black" cx="439.644" cy="-90" rx="69.5877" ry="18"/>
<text text-anchor="middle" x="439.644" y="-86.3" font-family="Times,serif" font-size="14.00">Exercise in class</text>
</g>
<!-- CO&#45;&gt;EiC -->
<g id="edge10" class="edge"><title>CO&#45;&gt;EiC</title>
<path fill="none" stroke="black" d="M460.003,-152.756C456.63,-142.525 452.271,-129.303 448.453,-117.721"/>
<polygon fill="black" stroke="black" points="451.73,-116.482 445.275,-108.08 445.082,-118.673 451.73,-116.482"/>
</g>
<!-- DiC -->
<g id="node13" class="node"><title>DiC</title>
<ellipse fill="none" stroke="black" cx="439.644" cy="-18" rx="77.9862" ry="18"/>
<text text-anchor="middle" x="439.644" y="-14.3" font-family="Times,serif" font-size="14.00">Discussion in class</text>
</g>
<!-- EiC&#45;&gt;DiC -->
<g id="edge17" class="edge"><title>EiC&#45;&gt;DiC</title>
<path fill="none" stroke="black" d="M439.644,-71.6966C439.644,-63.9827 439.644,-54.7125 439.644,-46.1124"/>
<polygon fill="black" stroke="black" points="443.144,-46.1043 439.644,-36.1043 436.144,-46.1044 443.144,-46.1043"/>
</g>
<!-- YVB -->
<g id="node8" class="node"><title>YVB</title>
<ellipse fill="none" stroke="black" cx="607.644" cy="-90" rx="80.6858" ry="18"/>
<text text-anchor="middle" x="607.644" y="-86.3" font-family="Times,serif" font-size="14.00">Why use variables?</text>
</g>
<!-- VB&#45;&gt;YVB -->
<g id="edge12" class="edge"><title>VB&#45;&gt;YVB</title>
<path fill="none" stroke="black" d="M596.682,-152.756C598.48,-142.628 600.798,-129.57 602.839,-118.072"/>
<polygon fill="black" stroke="black" points="606.311,-118.538 604.612,-108.08 599.418,-117.315 606.311,-118.538"/>
</g>
<!-- VB&#45;&gt;DiC -->
<g id="edge18" class="edge"><title>VB&#45;&gt;DiC</title>
<path fill="none" stroke="black" d="M622.01,-156.954C649.819,-143.639 689.232,-122.793 697.644,-108 705.553,-94.0916 707.756,-84.3999 697.644,-72 675.861,-45.2867 590.256,-31.6556 523.555,-24.9629"/>
<polygon fill="black" stroke="black" points="523.734,-21.464 513.443,-23.9862 523.061,-28.4315 523.734,-21.464"/>
</g>
<!-- BAO -->
<g id="node10" class="node"><title>BAO</title>
<ellipse fill="none" stroke="black" cx="148.644" cy="-18" rx="103.982" ry="18"/>
<text text-anchor="middle" x="148.644" y="-14.3" font-family="Times,serif" font-size="14.00">Basic arithmetic operators</text>
</g>
<!-- OF&#45;&gt;BAO -->
<g id="edge14" class="edge"><title>OF&#45;&gt;BAO</title>
<path fill="none" stroke="black" d="M84.8947,-72.7646C95.5559,-63.7732 108.999,-52.4361 120.788,-42.4931"/>
<polygon fill="black" stroke="black" points="123.244,-45.0007 128.632,-35.8781 118.731,-39.6497 123.244,-45.0007"/>
</g>
<!-- RO -->
<g id="node12" class="node"><title>RO</title>
<ellipse fill="none" stroke="black" cx="231.644" cy="-90" rx="81.7856" ry="18"/>
<text text-anchor="middle" x="231.644" y="-86.3" font-family="Times,serif" font-size="14.00">Relational operators</text>
</g>
<!-- CS&#45;&gt;RO -->
<g id="edge16" class="edge"><title>CS&#45;&gt;RO</title>
<path fill="none" stroke="black" d="M292.314,-153.144C281.493,-142.06 267.127,-127.345 255.091,-115.016"/>
<polygon fill="black" stroke="black" points="257.441,-112.413 247.95,-107.702 252.432,-117.303 257.441,-112.413"/>
</g>
<!-- CS&#45;&gt;DiC -->
<g id="edge19" class="edge"><title>CS&#45;&gt;DiC</title>
<path fill="none" stroke="black" d="M314.745,-152.745C322.805,-131.889 338.602,-96.4266 360.644,-72 371.899,-59.5277 386.682,-48.5993 400.413,-39.957"/>
<polygon fill="black" stroke="black" points="402.495,-42.788 409.237,-34.6147 398.87,-36.8 402.495,-42.788"/>
</g>
<!-- RO&#45;&gt;BAO -->
<g id="edge5" class="edge"><title>RO&#45;&gt;BAO</title>
<path fill="none" stroke="black" d="M211.974,-72.411C198.839,-61.3333 181.626,-46.8157 168.46,-35.7125"/>
</g>
<!-- MW&#45;&gt;VB -->
<g id="edge4" class="edge"><title>MW&#45;&gt;VB</title>
<path fill="none" stroke="black" d="M590.363,-223.63C590.864,-215.723 591.412,-207.081 591.914,-199.162"/>
<polygon fill="black" stroke="black" points="586.869,-223.425 589.729,-233.626 593.855,-223.868 586.869,-223.425"/>
<polygon fill="black" stroke="black" points="595.422,-199.152 592.561,-188.95 588.436,-198.709 595.422,-199.152"/>
</g>
<!-- MW&#45;&gt;MX -->
<g id="edge22" class="edge"><title>MW&#45;&gt;MX</title>
<path fill="none" stroke="black" d="M612.918,-237.716C632.673,-227.117 661.208,-211.807 685.793,-198.617"/>
<polygon fill="black" stroke="black" points="687.491,-201.678 694.648,-193.866 684.181,-195.51 687.491,-201.678"/>
</g>
<!-- Notes -->
<g id="node18" class="node"><title>Notes</title>
<ellipse fill="none" stroke="black" cx="676.644" cy="-251.74" rx="31.3957" ry="18"/>
<text text-anchor="middle" x="676.644" y="-248.04" font-family="Times,serif" font-size="14.00">Notes</text>
</g>
<!-- MW&#45;&gt;Notes -->
<g id="edge21" class="edge"><title>MW&#45;&gt;Notes</title>
<path fill="none" stroke="black" d="M627.144,-251.74C629.795,-251.74 632.445,-251.74 635.096,-251.74"/>
<polygon fill="black" stroke="black" points="635.32,-255.24 645.32,-251.74 635.32,-248.24 635.32,-255.24"/>
</g>
<!-- RR&#45;&gt;SU -->
<g id="edge24" class="edge"><title>RR&#45;&gt;SU</title>
<path fill="none" stroke="black" d="M722.506,-341.279C711.491,-350.798 697.522,-362.87 685.647,-373.133"/>
<polygon fill="black" stroke="black" points="683.1,-370.708 677.822,-379.895 687.677,-376.004 683.1,-370.708"/>
</g>
<!-- RR&#45;&gt;MX -->
<g id="edge23" class="edge"><title>RR&#45;&gt;MX</title>
<path fill="none" stroke="black" d="M740.968,-305.727C740.033,-282.22 738.322,-239.211 737.092,-208.281"/>
<polygon fill="black" stroke="black" points="740.574,-207.749 736.679,-197.896 733.579,-208.027 740.574,-207.749"/>
</g>
<!-- FR -->
<g id="node17" class="node"><title>FR</title>
<ellipse fill="none" stroke="black" cx="829.644" cy="-251.74" rx="65.7887" ry="18"/>
<text text-anchor="middle" x="829.644" y="-248.04" font-family="Times,serif" font-size="14.00">Further reading</text>
</g>
<!-- RR&#45;&gt;FR -->
<g id="edge25" class="edge"><title>RR&#45;&gt;FR</title>
<path fill="none" stroke="black" d="M762.499,-306.151C774.09,-296.931 788.676,-285.329 801.29,-275.295"/>
<polygon fill="black" stroke="black" points="803.595,-277.933 809.243,-268.969 799.238,-272.455 803.595,-277.933"/>
</g>
</g>
</svg>
