<?xml version="1.0" encoding="UTF-8" standalone="no"?>
<!DOCTYPE svg PUBLIC "-//W3C//DTD SVG 1.1//EN"
 "http://www.w3.org/Graphics/SVG/1.1/DTD/svg11.dtd">
<!-- Generated by graphviz version 2.38.0 (20140413.2041)
 -->
<!-- Title: G Pages: 1 -->
<svg width="137pt" height="188pt"
 viewBox="0.00 0.00 136.69 188.00" xmlns="http://www.w3.org/2000/svg" xmlns:xlink="http://www.w3.org/1999/xlink">
<g id="graph0" class="graph" transform="scale(1 1) rotate(0) translate(4 184)">
<title>G</title>
<polygon fill="white" stroke="none" points="-4,4 -4,-184 132.689,-184 132.689,4 -4,4"/>
<!-- GS -->
<g id="node1" class="node"><title>GS</title>
<polygon fill="none" stroke="black" points="117.844,-180 10.8443,-180 10.8443,-144 117.844,-144 117.844,-180"/>
<text text-anchor="middle" x="64.3443" y="-158.3" font-family="Hershey-Noailles-help-me" font-size="14.00">Design notes</text>
</g>
<!-- book -->
<g id="node2" class="node"><title>book</title>
<ellipse fill="none" stroke="black" cx="64.3443" cy="-90" rx="64.189" ry="18"/>
<text text-anchor="middle" x="64.3443" y="-86.3" font-family="Hershey-Noailles-help-me" font-size="14.00">Book layout</text>
</g>
<!-- GS&#45;&gt;book -->
<g id="edge1" class="edge"><title>GS&#45;&gt;book</title>
<path fill="none" stroke="black" d="M64.3443,-143.697C64.3443,-135.983 64.3443,-126.712 64.3443,-118.112"/>
<polygon fill="black" stroke="black" points="67.8444,-118.104 64.3443,-108.104 60.8444,-118.104 67.8444,-118.104"/>
</g>
<!-- fonts -->
<g id="node3" class="node"><title>fonts</title>
<ellipse fill="none" stroke="black" cx="64.3443" cy="-18" rx="35.194" ry="18"/>
<text text-anchor="middle" x="64.3443" y="-14.3" font-family="Hershey-Noailles-help-me" font-size="14.00">Fonts</text>
</g>
<!-- book&#45;&gt;fonts -->
<g id="edge2" class="edge"><title>book&#45;&gt;fonts</title>
<path fill="none" stroke="black" d="M64.3443,-71.6966C64.3443,-63.9827 64.3443,-54.7125 64.3443,-46.1124"/>
<polygon fill="black" stroke="black" points="67.8444,-46.1043 64.3443,-36.1043 60.8444,-46.1044 67.8444,-46.1043"/>
</g>
</g>
</svg>
