<?xml version="1.0" encoding="UTF-8" standalone="no"?>
<!DOCTYPE svg PUBLIC "-//W3C//DTD SVG 1.1//EN"
 "http://www.w3.org/Graphics/SVG/1.1/DTD/svg11.dtd">
<!-- Generated by graphviz version 2.38.0 (20140413.2041)
 -->
<!-- Title: toc Pages: 1 -->
<svg width="780pt" height="1196pt"
 viewBox="0.00 0.00 780.00 1196.00" xmlns="http://www.w3.org/2000/svg" xmlns:xlink="http://www.w3.org/1999/xlink">
<g id="graph0" class="graph" transform="scale(1 1) rotate(0) translate(4 1192)">
<title>toc</title>
<polygon fill="white" stroke="none" points="-4,4 -4,-1192 776,-1192 776,4 -4,4"/>
<!-- TOC -->
<g id="node1" class="node"><title>TOC</title>
<polygon fill="none" stroke="black" points="367.5,-1188 230.5,-1188 230.5,-1152 367.5,-1152 367.5,-1188"/>
<text text-anchor="middle" x="299" y="-1166.3" font-family="Hershey-Noailles-help-me" font-size="14.00">Table of Contents</text>
</g>
<!-- OSP -->
<g id="node2" class="node"><title>OSP</title>
<polygon fill="none" stroke="black" points="389,-1116 209,-1116 209,-1080 389,-1080 389,-1116"/>
<text text-anchor="middle" x="299" y="-1094.3" font-family="Hershey-Noailles-help-me" font-size="14.00">Open Source Publishing</text>
</g>
<!-- TOC&#45;&gt;OSP -->
<g id="edge1" class="edge"><title>TOC&#45;&gt;OSP</title>
<path fill="none" stroke="black" d="M299,-1151.7C299,-1143.98 299,-1134.71 299,-1126.11"/>
<polygon fill="black" stroke="black" points="302.5,-1126.1 299,-1116.1 295.5,-1126.1 302.5,-1126.1"/>
</g>
<!-- Ack -->
<g id="node3" class="node"><title>Ack</title>
<polygon fill="none" stroke="black" points="374.5,-1044 223.5,-1044 223.5,-1008 374.5,-1008 374.5,-1044"/>
<text text-anchor="middle" x="299" y="-1022.3" font-family="Hershey-Noailles-help-me" font-size="14.00">Acknowledgements</text>
</g>
<!-- OSP&#45;&gt;Ack -->
<g id="edge2" class="edge"><title>OSP&#45;&gt;Ack</title>
<path fill="none" stroke="black" d="M299,-1079.7C299,-1071.98 299,-1062.71 299,-1054.11"/>
<polygon fill="black" stroke="black" points="302.5,-1054.1 299,-1044.1 295.5,-1054.1 302.5,-1054.1"/>
</g>
<!-- 0 -->
<g id="node4" class="node"><title>0</title>
<polygon fill="none" stroke="black" points="333,-972 265,-972 265,-936 333,-936 333,-972"/>
<text text-anchor="middle" x="299" y="-950.3" font-family="Hershey-Noailles-help-me" font-size="14.00">Preface</text>
</g>
<!-- Ack&#45;&gt;0 -->
<g id="edge3" class="edge"><title>Ack&#45;&gt;0</title>
<path fill="none" stroke="black" d="M299,-1007.7C299,-999.983 299,-990.712 299,-982.112"/>
<polygon fill="black" stroke="black" points="302.5,-982.104 299,-972.104 295.5,-982.104 302.5,-982.104"/>
</g>
<!-- 1 -->
<g id="node5" class="node"><title>1</title>
<polygon fill="none" stroke="black" points="668.5,-900 527.5,-900 527.5,-864 668.5,-864 668.5,-900"/>
<text text-anchor="middle" x="598" y="-878.3" font-family="Hershey-Noailles-help-me" font-size="14.00">1. Getting started</text>
</g>
<!-- 0&#45;&gt;1 -->
<g id="edge4" class="edge"><title>0&#45;&gt;1</title>
<path fill="none" stroke="black" d="M333.008,-945.038C377.592,-934.6 457.216,-915.96 517.579,-901.828"/>
<polygon fill="black" stroke="black" points="518.533,-905.199 527.472,-899.512 516.938,-898.383 518.533,-905.199"/>
</g>
<!-- 11 -->
<g id="node15" class="node"><title>11</title>
<polygon fill="none" stroke="black" points="521,-180 275,-180 275,-144 521,-144 521,-180"/>
<text text-anchor="middle" x="398" y="-158.3" font-family="Hershey-Noailles-help-me" font-size="14.00">Afterword: Recurrent imaginaries</text>
</g>
<!-- 0&#45;&gt;11 -->
<g id="edge18" class="edge"><title>0&#45;&gt;11</title>
<path fill="none" stroke="black" d="M254.823,-951.661C171.629,-946.537 0,-922.459 0,-811 0,-811 0,-811 0,-305 0,-260.268 10.5257,-241.896 47,-216 81.5863,-191.444 180.464,-177.972 264.492,-170.764"/>
<polygon fill="black" stroke="black" points="254.815,-955.166 264.992,-952.22 255.199,-948.176 254.815,-955.166"/>
<polygon fill="black" stroke="black" points="264.986,-174.235 274.661,-169.916 264.404,-167.259 264.986,-174.235"/>
</g>
<!-- 2 -->
<g id="node6" class="node"><title>2</title>
<polygon fill="none" stroke="black" points="678.5,-828 517.5,-828 517.5,-792 678.5,-792 678.5,-828"/>
<text text-anchor="middle" x="598" y="-806.3" font-family="Hershey-Noailles-help-me" font-size="14.00">2. Variable geometry</text>
</g>
<!-- 1&#45;&gt;2 -->
<g id="edge5" class="edge"><title>1&#45;&gt;2</title>
<path fill="none" stroke="black" d="M598,-863.697C598,-855.983 598,-846.712 598,-838.112"/>
<polygon fill="black" stroke="black" points="601.5,-838.104 598,-828.104 594.5,-838.104 601.5,-838.104"/>
</g>
<!-- 1&#45;&gt;11 -->
<g id="edge20" class="edge"><title>1&#45;&gt;11</title>
<path fill="none" stroke="black" d="M649.265,-863.939C700.59,-843.238 772,-802.945 772,-739 772,-739 772,-739 772,-305 772,-258.027 754.203,-241.876 715,-216 684.811,-196.074 603.892,-182.737 531.371,-174.426"/>
<polygon fill="black" stroke="black" points="531.527,-170.921 521.2,-173.286 530.748,-177.878 531.527,-170.921"/>
</g>
<!-- 3 -->
<g id="node7" class="node"><title>3</title>
<polygon fill="none" stroke="black" points="463.5,-756 340.5,-756 340.5,-720 463.5,-720 463.5,-756"/>
<text text-anchor="middle" x="402" y="-734.3" font-family="Hershey-Noailles-help-me" font-size="14.00">3. Infinite loops</text>
</g>
<!-- 2&#45;&gt;3 -->
<g id="edge6" class="edge"><title>2&#45;&gt;3</title>
<path fill="none" stroke="black" d="M550.304,-791.966C522.918,-782.185 488.342,-769.836 459.466,-759.524"/>
<polygon fill="black" stroke="black" points="460.505,-756.178 449.91,-756.111 458.15,-762.77 460.505,-756.178"/>
</g>
<!-- 4 -->
<g id="node8" class="node"><title>4</title>
<polygon fill="none" stroke="black" points="464.5,-684 339.5,-684 339.5,-648 464.5,-648 464.5,-684"/>
<text text-anchor="middle" x="402" y="-662.3" font-family="Hershey-Noailles-help-me" font-size="14.00">4. Data capture</text>
</g>
<!-- 2&#45;&gt;4 -->
<g id="edge32" class="edge"><title>2&#45;&gt;4</title>
<path fill="none" stroke="black" d="M565.909,-785.75C529.483,-759.36 470.415,-716.566 434.019,-690.197"/>
<polygon fill="black" stroke="black" points="564.206,-788.839 574.358,-791.871 568.313,-783.17 564.206,-788.839"/>
<polygon fill="black" stroke="black" points="435.878,-687.222 425.726,-684.189 431.771,-692.891 435.878,-687.222"/>
</g>
<!-- 6 -->
<g id="node10" class="node"><title>6</title>
<polygon fill="none" stroke="black" points="667.5,-540 506.5,-540 506.5,-504 667.5,-504 667.5,-540"/>
<text text-anchor="middle" x="587" y="-518.3" font-family="Hershey-Noailles-help-me" font-size="14.00">6. Object abstraction</text>
</g>
<!-- 2&#45;&gt;6 -->
<g id="edge19" class="edge"><title>2&#45;&gt;6</title>
<path fill="none" stroke="black" d="M596.95,-781.702C594.854,-727.194 590.17,-605.412 588.063,-550.631"/>
<polygon fill="black" stroke="black" points="593.463,-782.108 597.345,-791.966 600.458,-781.839 593.463,-782.108"/>
<polygon fill="black" stroke="black" points="591.547,-550.165 587.666,-540.306 584.553,-550.434 591.547,-550.165"/>
</g>
<!-- 2&#45;&gt;11 -->
<g id="edge21" class="edge"><title>2&#45;&gt;11</title>
<path fill="none" stroke="black" d="M632.67,-791.935C672.964,-769.376 734,-725.543 734,-667 734,-667 734,-667 734,-305 734,-212.735 625.175,-179.496 531.392,-167.982"/>
<polygon fill="black" stroke="black" points="531.541,-164.476 521.206,-166.808 530.74,-171.43 531.541,-164.476"/>
</g>
<!-- 3&#45;&gt;4 -->
<g id="edge7" class="edge"><title>3&#45;&gt;4</title>
<path fill="none" stroke="black" d="M402,-719.697C402,-711.983 402,-702.712 402,-694.112"/>
<polygon fill="black" stroke="black" points="405.5,-694.104 402,-684.104 398.5,-694.104 405.5,-694.104"/>
</g>
<!-- 3&#45;&gt;11 -->
<g id="edge22" class="edge"><title>3&#45;&gt;11</title>
<path fill="none" stroke="black" d="M340.252,-726.084C236.402,-705.952 38,-659.102 38,-595 38,-595 38,-595 38,-305 38,-259.188 52.351,-242.102 90,-216 118.422,-196.295 194.913,-183.073 264.552,-174.763"/>
<polygon fill="black" stroke="black" points="265.243,-178.206 274.77,-173.572 264.432,-171.253 265.243,-178.206"/>
</g>
<!-- 5 -->
<g id="node9" class="node"><title>5</title>
<polygon fill="none" stroke="black" points="570,-612 430,-612 430,-576 570,-576 570,-612"/>
<text text-anchor="middle" x="500" y="-590.3" font-family="Hershey-Noailles-help-me" font-size="14.00">5. Auto generator</text>
</g>
<!-- 4&#45;&gt;5 -->
<g id="edge8" class="edge"><title>4&#45;&gt;5</title>
<path fill="none" stroke="black" d="M425.973,-647.876C438.55,-638.893 454.132,-627.763 467.752,-618.034"/>
<polygon fill="black" stroke="black" points="469.831,-620.85 475.934,-612.19 465.763,-615.154 469.831,-620.85"/>
</g>
<!-- 8 -->
<g id="node12" class="node"><title>8</title>
<polygon fill="none" stroke="black" points="373.5,-396 242.5,-396 242.5,-360 373.5,-360 373.5,-396"/>
<text text-anchor="middle" x="308" y="-374.3" font-family="Hershey-Noailles-help-me" font-size="14.00">8. Que(e)ry data</text>
</g>
<!-- 4&#45;&gt;8 -->
<g id="edge33" class="edge"><title>4&#45;&gt;8</title>
<path fill="none" stroke="black" d="M393.266,-638.425C375.4,-584.067 334.853,-460.701 316.871,-405.992"/>
<polygon fill="black" stroke="black" points="389.954,-639.559 396.401,-647.966 396.604,-637.373 389.954,-639.559"/>
<polygon fill="black" stroke="black" points="320.136,-404.714 313.688,-396.306 313.486,-406.899 320.136,-404.714"/>
</g>
<!-- 10 -->
<g id="node14" class="node"><title>10</title>
<polygon fill="none" stroke="black" points="487.5,-252 308.5,-252 308.5,-216 487.5,-216 487.5,-252"/>
<text text-anchor="middle" x="398" y="-230.3" font-family="Hershey-Noailles-help-me" font-size="14.00">10. Machine unlearning</text>
</g>
<!-- 4&#45;&gt;10 -->
<g id="edge30" class="edge"><title>4&#45;&gt;10</title>
<path fill="none" stroke="black" d="M402,-637.92C402,-609.347 402,-563.004 402,-523 402,-523 402,-523 402,-377 402,-336.98 400.393,-290.641 399.216,-262.073"/>
<polygon fill="black" stroke="black" points="398.5,-637.951 402,-647.951 405.5,-637.951 398.5,-637.951"/>
<polygon fill="black" stroke="black" points="402.711,-261.887 398.79,-252.045 395.718,-262.184 402.711,-261.887"/>
</g>
<!-- 4&#45;&gt;11 -->
<g id="edge23" class="edge"><title>4&#45;&gt;11</title>
<path fill="none" stroke="black" d="M339.144,-664.576C244.412,-660.251 76,-636.589 76,-523 76,-523 76,-523 76,-305 76,-217.696 176.323,-183.612 264.973,-170.537"/>
<polygon fill="black" stroke="black" points="265.467,-174.002 274.887,-169.153 264.5,-167.069 265.467,-174.002"/>
</g>
<!-- 5&#45;&gt;6 -->
<g id="edge9" class="edge"><title>5&#45;&gt;6</title>
<path fill="none" stroke="black" d="M521.506,-575.697C532.463,-566.881 545.946,-556.032 557.825,-546.474"/>
<polygon fill="black" stroke="black" points="560.145,-549.1 565.742,-540.104 555.756,-543.646 560.145,-549.1"/>
</g>
<!-- 5&#45;&gt;11 -->
<g id="edge24" class="edge"><title>5&#45;&gt;11</title>
<path fill="none" stroke="black" d="M498.795,-575.824C498.125,-565.456 497.357,-551.976 497,-540 496.933,-537.751 497.155,-217.931 496,-216 488.018,-202.655 475.385,-192.465 461.809,-184.765"/>
<polygon fill="black" stroke="black" points="463.276,-181.582 452.791,-180.056 460.036,-187.787 463.276,-181.582"/>
</g>
<!-- 7 -->
<g id="node11" class="node"><title>7</title>
<polygon fill="none" stroke="black" points="705.5,-468 582.5,-468 582.5,-432 705.5,-432 705.5,-468"/>
<text text-anchor="middle" x="644" y="-446.3" font-family="Hershey-Noailles-help-me" font-size="14.00">7. Vocable code</text>
</g>
<!-- 6&#45;&gt;7 -->
<g id="edge10" class="edge"><title>6&#45;&gt;7</title>
<path fill="none" stroke="black" d="M601.09,-503.697C607.923,-495.305 616.257,-485.07 623.756,-475.861"/>
<polygon fill="black" stroke="black" points="626.472,-478.069 630.072,-468.104 621.044,-473.649 626.472,-478.069"/>
</g>
<!-- 6&#45;&gt;10 -->
<g id="edge31" class="edge"><title>6&#45;&gt;10</title>
<path fill="none" stroke="black" d="M562.631,-496.425C554.846,-487.849 546.557,-477.887 540,-468 490.997,-394.11 506.185,-359.677 454,-288 446.367,-277.516 436.492,-267.378 427.165,-258.824"/>
<polygon fill="black" stroke="black" points="560.195,-498.944 569.575,-503.869 565.314,-494.169 560.195,-498.944"/>
<polygon fill="black" stroke="black" points="429.322,-256.059 419.52,-252.039 424.675,-261.294 429.322,-256.059"/>
</g>
<!-- 6&#45;&gt;11 -->
<g id="edge25" class="edge"><title>6&#45;&gt;11</title>
<path fill="none" stroke="black" d="M580.322,-503.811C570.679,-477.402 554,-425.064 554,-379 554,-379 554,-379 554,-305 554,-264.031 557.204,-246.633 530,-216 517.617,-202.056 501.053,-191.727 483.853,-184.093"/>
<polygon fill="black" stroke="black" points="484.833,-180.711 474.255,-180.124 482.158,-187.18 484.833,-180.711"/>
</g>
<!-- 7&#45;&gt;2 -->
<g id="edge12" class="edge"><title>7&#45;&gt;2</title>
<path fill="none" stroke="black" d="M661.944,-476.944C667.083,-485.29 672.291,-494.772 676,-504 691.118,-541.618 696,-552.458 696,-593 696,-667 696,-667 696,-667 696,-715.462 656.858,-759.385 628.048,-785.151"/>
<polygon fill="black" stroke="black" points="664.81,-474.931 656.468,-468.399 658.917,-478.708 664.81,-474.931"/>
<polygon fill="black" stroke="black" points="625.499,-782.729 620.238,-791.925 630.085,-788.017 625.499,-782.729"/>
</g>
<!-- 7&#45;&gt;8 -->
<g id="edge11" class="edge"><title>7&#45;&gt;8</title>
<path fill="none" stroke="black" d="M572.4,-434.083C516.84,-422.508 440.017,-406.504 383.494,-394.728"/>
<polygon fill="black" stroke="black" points="571.869,-437.548 582.372,-436.161 573.296,-430.695 571.869,-437.548"/>
<polygon fill="black" stroke="black" points="384.045,-391.268 373.541,-392.654 382.617,-398.12 384.045,-391.268"/>
</g>
<!-- 7&#45;&gt;11 -->
<g id="edge26" class="edge"><title>7&#45;&gt;11</title>
<path fill="none" stroke="black" d="M643.529,-431.926C641.414,-389.276 629.928,-277.123 568,-216 553.535,-201.723 535.288,-191.283 516.155,-183.652"/>
<polygon fill="black" stroke="black" points="517.297,-180.342 506.705,-180.127 514.851,-186.901 517.297,-180.342"/>
</g>
<!-- 9 -->
<g id="node13" class="node"><title>9</title>
<polygon fill="none" stroke="black" points="335.5,-324 142.5,-324 142.5,-288 335.5,-288 335.5,-324"/>
<text text-anchor="middle" x="239" y="-302.3" font-family="Hershey-Noailles-help-me" font-size="14.00">9. Algorithmic procedures</text>
</g>
<!-- 8&#45;&gt;9 -->
<g id="edge13" class="edge"><title>8&#45;&gt;9</title>
<path fill="none" stroke="black" d="M290.944,-359.697C282.505,-351.135 272.175,-340.656 262.957,-331.304"/>
<polygon fill="black" stroke="black" points="265.373,-328.769 255.86,-324.104 260.387,-333.683 265.373,-328.769"/>
</g>
<!-- 8&#45;&gt;10 -->
<g id="edge34" class="edge"><title>8&#45;&gt;10</title>
<path fill="none" stroke="black" d="M325.571,-351.701C331.52,-342.987 338.138,-333.125 344,-324 357.476,-303.023 372.109,-278.809 382.739,-260.939"/>
<polygon fill="black" stroke="black" points="322.673,-349.738 319.898,-359.963 328.444,-353.7 322.673,-349.738"/>
<polygon fill="black" stroke="black" points="385.817,-262.61 387.905,-252.223 379.796,-259.04 385.817,-262.61"/>
</g>
<!-- 8&#45;&gt;11 -->
<g id="edge27" class="edge"><title>8&#45;&gt;11</title>
<path fill="none" stroke="black" d="M242.297,-368.872C181.663,-358.296 104.944,-335.262 133,-288 166.698,-231.234 234.331,-199.899 292.834,-182.798"/>
<polygon fill="black" stroke="black" points="293.835,-186.152 302.512,-180.073 291.938,-179.414 293.835,-186.152"/>
</g>
<!-- 9&#45;&gt;10 -->
<g id="edge14" class="edge"><title>9&#45;&gt;10</title>
<path fill="none" stroke="black" d="M277.896,-287.876C299.632,-278.307 326.904,-266.3 349.964,-256.148"/>
<polygon fill="black" stroke="black" points="351.489,-259.301 359.231,-252.068 348.668,-252.894 351.489,-259.301"/>
</g>
<!-- 9&#45;&gt;11 -->
<g id="edge28" class="edge"><title>9&#45;&gt;11</title>
<path fill="none" stroke="black" d="M247.339,-287.772C257.409,-268.378 275.905,-236.859 299,-216 312.787,-203.547 330.029,-193.021 346.242,-184.713"/>
<polygon fill="black" stroke="black" points="348.215,-187.643 355.635,-180.08 345.119,-181.365 348.215,-187.643"/>
</g>
<!-- 10&#45;&gt;5 -->
<g id="edge29" class="edge"><title>10&#45;&gt;5</title>
<path fill="none" stroke="black" d="M406.499,-252.007C418.772,-278.178 440,-330.21 440,-377 440,-451 440,-451 440,-451 440,-491.969 446.92,-502.762 464,-540 468.337,-549.455 474.309,-559.075 480.143,-567.477"/>
<polygon fill="black" stroke="black" points="477.41,-569.671 486.098,-575.734 483.088,-565.576 477.41,-569.671"/>
</g>
<!-- 10&#45;&gt;11 -->
<g id="edge15" class="edge"><title>10&#45;&gt;11</title>
<path fill="none" stroke="black" d="M398,-215.697C398,-207.983 398,-198.712 398,-190.112"/>
<polygon fill="black" stroke="black" points="401.5,-190.104 398,-180.104 394.5,-190.104 401.5,-190.104"/>
</g>
<!-- Bi -->
<g id="node16" class="node"><title>Bi</title>
<polygon fill="none" stroke="black" points="449,-108 347,-108 347,-72 449,-72 449,-108"/>
<text text-anchor="middle" x="398" y="-86.3" font-family="Hershey-Noailles-help-me" font-size="14.00">Bibliography</text>
</g>
<!-- 11&#45;&gt;Bi -->
<g id="edge16" class="edge"><title>11&#45;&gt;Bi</title>
<path fill="none" stroke="black" d="M398,-143.697C398,-135.983 398,-126.712 398,-118.112"/>
<polygon fill="black" stroke="black" points="401.5,-118.104 398,-108.104 394.5,-118.104 401.5,-118.104"/>
</g>
<!-- Project -->
<g id="node17" class="node"><title>Project</title>
<polygon fill="none" stroke="black" points="457,-36 339,-36 339,-0 457,-0 457,-36"/>
<text text-anchor="middle" x="398" y="-14.3" font-family="Hershey-Noailles-help-me" font-size="14.00">List of Projects</text>
</g>
<!-- Bi&#45;&gt;Project -->
<g id="edge17" class="edge"><title>Bi&#45;&gt;Project</title>
<path fill="none" stroke="black" d="M398,-71.6966C398,-63.9827 398,-54.7125 398,-46.1124"/>
<polygon fill="black" stroke="black" points="401.5,-46.1043 398,-36.1043 394.5,-46.1044 401.5,-46.1043"/>
</g>
</g>
</svg>
