<?xml version="1.0" encoding="UTF-8" standalone="no"?>
<!DOCTYPE svg PUBLIC "-//W3C//DTD SVG 1.1//EN"
 "http://www.w3.org/Graphics/SVG/1.1/DTD/svg11.dtd">
<!-- Generated by graphviz version 2.38.0 (20140413.2041)
 -->
<!-- Title: toc Pages: 1 -->
<svg width="612pt" height="1268pt"
 viewBox="0.00 0.00 612.27 1268.00" xmlns="http://www.w3.org/2000/svg" xmlns:xlink="http://www.w3.org/1999/xlink">
<g id="graph0" class="graph" transform="scale(1 1) rotate(0) translate(4 1264)">
<title>toc</title>
<polygon fill="white" stroke="none" points="-4,4 -4,-1264 608.271,-1264 608.271,4 -4,4"/>
<!-- TOC -->
<g id="node1" class="node"><title>TOC</title>
<ellipse fill="none" stroke="black" cx="96.8414" cy="-1242" rx="74.187" ry="18"/>
<text text-anchor="middle" x="96.8414" y="-1238.3" font-family="Times,serif" font-size="14.00">Table of Contents</text>
</g>
<!-- Ack -->
<g id="node2" class="node"><title>Ack</title>
<ellipse fill="none" stroke="black" cx="96.8414" cy="-1170" rx="81.4863" ry="18"/>
<text text-anchor="middle" x="96.8414" y="-1166.3" font-family="Times,serif" font-size="14.00">Acknowledgements</text>
</g>
<!-- TOC&#45;&gt;Ack -->
<g id="edge1" class="edge"><title>TOC&#45;&gt;Ack</title>
<path fill="none" stroke="black" d="M96.8414,-1223.7C96.8414,-1215.98 96.8414,-1206.71 96.8414,-1198.11"/>
<polygon fill="black" stroke="black" points="100.342,-1198.1 96.8414,-1188.1 93.3415,-1198.1 100.342,-1198.1"/>
</g>
<!-- OSP -->
<g id="node3" class="node"><title>OSP</title>
<ellipse fill="none" stroke="black" cx="96.8414" cy="-1098" rx="96.6831" ry="18"/>
<text text-anchor="middle" x="96.8414" y="-1094.3" font-family="Times,serif" font-size="14.00">Open Source Publishing</text>
</g>
<!-- Ack&#45;&gt;OSP -->
<g id="edge2" class="edge"><title>Ack&#45;&gt;OSP</title>
<path fill="none" stroke="black" d="M96.8414,-1151.7C96.8414,-1143.98 96.8414,-1134.71 96.8414,-1126.11"/>
<polygon fill="black" stroke="black" points="100.342,-1126.1 96.8414,-1116.1 93.3415,-1126.1 100.342,-1126.1"/>
</g>
<!-- 0 -->
<g id="node4" class="node"><title>0</title>
<ellipse fill="none" stroke="black" cx="96.8414" cy="-1026" rx="37.0935" ry="18"/>
<text text-anchor="middle" x="96.8414" y="-1022.3" font-family="Times,serif" font-size="14.00">Preface</text>
</g>
<!-- OSP&#45;&gt;0 -->
<g id="edge3" class="edge"><title>OSP&#45;&gt;0</title>
<path fill="none" stroke="black" d="M96.8414,-1079.7C96.8414,-1071.98 96.8414,-1062.71 96.8414,-1054.11"/>
<polygon fill="black" stroke="black" points="100.342,-1054.1 96.8414,-1044.1 93.3415,-1054.1 100.342,-1054.1"/>
</g>
<!-- 1 -->
<g id="node5" class="node"><title>1</title>
<ellipse fill="none" stroke="black" cx="147.841" cy="-954" rx="73.387" ry="18"/>
<text text-anchor="middle" x="147.841" y="-950.3" font-family="Times,serif" font-size="14.00">1. Getting Started</text>
</g>
<!-- 0&#45;&gt;1 -->
<g id="edge4" class="edge"><title>0&#45;&gt;1</title>
<path fill="none" stroke="black" d="M108.67,-1008.76C114.798,-1000.35 122.421,-989.89 129.31,-980.436"/>
<polygon fill="black" stroke="black" points="132.306,-982.267 135.365,-972.124 126.648,-978.145 132.306,-982.267"/>
</g>
<!-- 11 -->
<g id="node15" class="node"><title>11</title>
<ellipse fill="none" stroke="black" cx="236.841" cy="-234" rx="144.874" ry="18"/>
<text text-anchor="middle" x="236.841" y="-230.3" font-family="Times,serif" font-size="14.00">11. Afterword: Recurrent Imaginaries</text>
</g>
<!-- 0&#45;&gt;11 -->
<g id="edge18" class="edge"><title>0&#45;&gt;11</title>
<path fill="none" stroke="black" d="M79.8985,-999.809C74.7655,-991.271 69.5195,-981.489 65.8414,-972 51.2232,-934.287 46.8414,-923.447 46.8414,-883 46.8414,-883 46.8414,-883 46.8414,-377 46.8414,-331.41 63.1896,-317.626 97.8414,-288 115.882,-272.576 138.883,-261.396 160.958,-253.401"/>
<polygon fill="black" stroke="black" points="77.0727,-1001.89 85.3445,-1008.51 83.0066,-998.178 77.0727,-1001.89"/>
<polygon fill="black" stroke="black" points="162.36,-256.62 170.678,-250.057 160.083,-250 162.36,-256.62"/>
</g>
<!-- 2 -->
<g id="node6" class="node"><title>2</title>
<ellipse fill="none" stroke="black" cx="220.841" cy="-882" rx="88.2844" ry="18"/>
<text text-anchor="middle" x="220.841" y="-878.3" font-family="Times,serif" font-size="14.00">2. Variable Geometry</text>
</g>
<!-- 1&#45;&gt;2 -->
<g id="edge5" class="edge"><title>1&#45;&gt;2</title>
<path fill="none" stroke="black" d="M165.141,-936.411C174.347,-927.583 185.831,-916.572 195.976,-906.844"/>
<polygon fill="black" stroke="black" points="198.617,-909.16 203.413,-899.713 193.772,-904.108 198.617,-909.16"/>
</g>
<!-- 1&#45;&gt;11 -->
<g id="edge20" class="edge"><title>1&#45;&gt;11</title>
<path fill="none" stroke="black" d="M134.788,-936.147C116.335,-910.588 84.8414,-859.816 84.8414,-811 84.8414,-811 84.8414,-811 84.8414,-377 84.8414,-331.41 103.012,-319.633 135.841,-288 149.618,-274.726 167.38,-263.922 184.158,-255.615"/>
<polygon fill="black" stroke="black" points="185.811,-258.705 193.347,-251.257 182.811,-252.38 185.811,-258.705"/>
</g>
<!-- 3 -->
<g id="node7" class="node"><title>3</title>
<ellipse fill="none" stroke="black" cx="220.841" cy="-810" rx="70.3881" ry="18"/>
<text text-anchor="middle" x="220.841" y="-806.3" font-family="Times,serif" font-size="14.00">3. Infinite Loops</text>
</g>
<!-- 2&#45;&gt;3 -->
<g id="edge6" class="edge"><title>2&#45;&gt;3</title>
<path fill="none" stroke="black" d="M220.841,-863.697C220.841,-855.983 220.841,-846.712 220.841,-838.112"/>
<polygon fill="black" stroke="black" points="224.342,-838.104 220.841,-828.104 217.342,-838.104 224.342,-838.104"/>
</g>
<!-- 4 -->
<g id="node8" class="node"><title>4</title>
<ellipse fill="none" stroke="black" cx="301.841" cy="-738" rx="66.8882" ry="18"/>
<text text-anchor="middle" x="301.841" y="-734.3" font-family="Times,serif" font-size="14.00">4. Data Capture</text>
</g>
<!-- 2&#45;&gt;4 -->
<g id="edge29" class="edge"><title>2&#45;&gt;4</title>
<path fill="none" stroke="black" d="M266.982,-860.4C279.901,-852.249 292.427,-841.534 299.841,-828 310.083,-809.304 309.87,-784.919 307.494,-766.401"/>
<polygon fill="black" stroke="black" points="264.897,-857.565 258.033,-865.636 268.432,-863.607 264.897,-857.565"/>
<polygon fill="black" stroke="black" points="310.911,-765.603 305.907,-756.264 303.995,-766.685 310.911,-765.603"/>
</g>
<!-- 6 -->
<g id="node10" class="node"><title>6</title>
<ellipse fill="none" stroke="black" cx="353.841" cy="-594" rx="85.5853" ry="18"/>
<text text-anchor="middle" x="353.841" y="-590.3" font-family="Times,serif" font-size="14.00">6. Object Orientation</text>
</g>
<!-- 2&#45;&gt;6 -->
<g id="edge19" class="edge"><title>2&#45;&gt;6</title>
<path fill="none" stroke="black" d="M266.743,-860.834C284.015,-852.087 303.234,-840.882 318.841,-828 350.748,-801.664 361.785,-794.129 377.841,-756 396.521,-711.641 398.754,-694.367 385.841,-648 383.173,-638.419 378.253,-628.84 373.058,-620.513"/>
<polygon fill="black" stroke="black" points="264.814,-857.883 257.384,-865.436 267.902,-864.165 264.814,-857.883"/>
<polygon fill="black" stroke="black" points="375.863,-618.41 367.406,-612.028 370.037,-622.291 375.863,-618.41"/>
</g>
<!-- 2&#45;&gt;11 -->
<g id="edge21" class="edge"><title>2&#45;&gt;11</title>
<path fill="none" stroke="black" d="M185.843,-865.245C170.106,-856.447 152.674,-844.002 141.841,-828 119.167,-794.506 122.841,-779.447 122.841,-739 122.841,-739 122.841,-739 122.841,-377 122.841,-325.851 168.374,-282.637 201.887,-257.758"/>
<polygon fill="black" stroke="black" points="204.044,-260.518 210.113,-251.834 199.953,-254.838 204.044,-260.518"/>
</g>
<!-- 3&#45;&gt;4 -->
<g id="edge7" class="edge"><title>3&#45;&gt;4</title>
<path fill="none" stroke="black" d="M240.037,-792.411C250.528,-783.345 263.686,-771.974 275.161,-762.057"/>
<polygon fill="black" stroke="black" points="277.506,-764.657 282.783,-755.47 272.929,-759.36 277.506,-764.657"/>
</g>
<!-- 3&#45;&gt;11 -->
<g id="edge22" class="edge"><title>3&#45;&gt;11</title>
<path fill="none" stroke="black" d="M208.409,-792.051C190.835,-766.368 160.841,-715.441 160.841,-667 160.841,-667 160.841,-667 160.841,-377 160.841,-331.641 191.358,-286.749 213.716,-259.946"/>
<polygon fill="black" stroke="black" points="216.486,-262.093 220.351,-252.228 211.178,-257.53 216.486,-262.093"/>
</g>
<!-- 5 -->
<g id="node9" class="node"><title>5</title>
<ellipse fill="none" stroke="black" cx="301.841" cy="-666" rx="75.2868" ry="18"/>
<text text-anchor="middle" x="301.841" y="-662.3" font-family="Times,serif" font-size="14.00">5. Auto Generator</text>
</g>
<!-- 4&#45;&gt;5 -->
<g id="edge8" class="edge"><title>4&#45;&gt;5</title>
<path fill="none" stroke="black" d="M301.841,-719.697C301.841,-711.983 301.841,-702.712 301.841,-694.112"/>
<polygon fill="black" stroke="black" points="305.342,-694.104 301.841,-684.104 298.342,-694.104 305.342,-694.104"/>
</g>
<!-- 8 -->
<g id="node12" class="node"><title>8</title>
<ellipse fill="none" stroke="black" cx="470.841" cy="-450" rx="70.6878" ry="18"/>
<text text-anchor="middle" x="470.841" y="-446.3" font-family="Times,serif" font-size="14.00">8. Que(e)ry Data</text>
</g>
<!-- 4&#45;&gt;8 -->
<g id="edge30" class="edge"><title>4&#45;&gt;8</title>
<path fill="none" stroke="black" d="M340.888,-716.923C376.579,-696.118 427.019,-659.921 448.841,-612 468.694,-568.404 471.89,-511.808 471.791,-478.638"/>
<polygon fill="black" stroke="black" points="339.127,-713.898 332.159,-721.879 342.583,-719.986 339.127,-713.898"/>
<polygon fill="black" stroke="black" points="475.286,-478.291 471.65,-468.34 468.287,-478.387 475.286,-478.291"/>
</g>
<!-- 4&#45;&gt;11 -->
<g id="edge23" class="edge"><title>4&#45;&gt;11</title>
<path fill="none" stroke="black" d="M266.359,-722.605C249.198,-713.888 229.779,-701.112 217.841,-684 194.7,-650.828 198.841,-635.447 198.841,-595 198.841,-595 198.841,-595 198.841,-377 198.841,-335.633 214.076,-289.722 225.253,-261.605"/>
<polygon fill="black" stroke="black" points="228.598,-262.673 229.152,-252.093 222.121,-260.019 228.598,-262.673"/>
</g>
<!-- 5&#45;&gt;6 -->
<g id="edge9" class="edge"><title>5&#45;&gt;6</title>
<path fill="none" stroke="black" d="M314.429,-648.055C320.597,-639.753 328.151,-629.584 334.989,-620.378"/>
<polygon fill="black" stroke="black" points="337.855,-622.39 341.008,-612.275 332.235,-618.216 337.855,-622.39"/>
</g>
<!-- 5&#45;&gt;11 -->
<g id="edge24" class="edge"><title>5&#45;&gt;11</title>
<path fill="none" stroke="black" d="M284.985,-648.218C276.016,-638.413 265.496,-625.365 258.841,-612 240.68,-575.525 236.841,-563.746 236.841,-523 236.841,-523 236.841,-523 236.841,-377 236.841,-336.996 236.841,-290.653 236.841,-262.08"/>
<polygon fill="black" stroke="black" points="240.342,-262.049 236.841,-252.049 233.342,-262.049 240.342,-262.049"/>
</g>
<!-- 7 -->
<g id="node11" class="node"><title>7</title>
<ellipse fill="none" stroke="black" cx="372.841" cy="-522" rx="70.3881" ry="18"/>
<text text-anchor="middle" x="372.841" y="-518.3" font-family="Times,serif" font-size="14.00">7. Vocable Code</text>
</g>
<!-- 6&#45;&gt;7 -->
<g id="edge10" class="edge"><title>6&#45;&gt;7</title>
<path fill="none" stroke="black" d="M358.538,-575.697C360.655,-567.898 363.203,-558.509 365.559,-549.829"/>
<polygon fill="black" stroke="black" points="368.957,-550.672 368.199,-540.104 362.201,-548.838 368.957,-550.672"/>
</g>
<!-- 6&#45;&gt;11 -->
<g id="edge25" class="edge"><title>6&#45;&gt;11</title>
<path fill="none" stroke="black" d="M328.765,-576.672C316.423,-567.364 302.396,-554.64 293.841,-540 273.436,-505.078 274.841,-491.447 274.841,-451 274.841,-451 274.841,-451 274.841,-377 274.841,-335.633 259.607,-289.722 248.43,-261.605"/>
<polygon fill="black" stroke="black" points="251.562,-260.019 244.531,-252.093 245.085,-262.673 251.562,-260.019"/>
</g>
<!-- 7&#45;&gt;8 -->
<g id="edge11" class="edge"><title>7&#45;&gt;8</title>
<path fill="none" stroke="black" d="M403.737,-498.932C415.232,-490.721 428.274,-481.405 439.783,-473.184"/>
<polygon fill="black" stroke="black" points="401.674,-496.104 395.571,-504.765 405.743,-501.8 401.674,-496.104"/>
<polygon fill="black" stroke="black" points="442.132,-475.808 448.235,-467.147 438.063,-470.112 442.132,-475.808"/>
</g>
<!-- 7&#45;&gt;11 -->
<g id="edge26" class="edge"><title>7&#45;&gt;11</title>
<path fill="none" stroke="black" d="M369.308,-503.791C360.509,-463.591 334.935,-361.367 288.841,-288 282.265,-277.532 273.317,-267.468 264.699,-258.976"/>
<polygon fill="black" stroke="black" points="266.944,-256.282 257.277,-251.946 262.131,-261.364 266.944,-256.282"/>
</g>
<!-- 9 -->
<g id="node13" class="node"><title>9</title>
<ellipse fill="none" stroke="black" cx="483.841" cy="-378" rx="104.782" ry="18"/>
<text text-anchor="middle" x="483.841" y="-374.3" font-family="Times,serif" font-size="14.00">9. Algorithmic Procedures</text>
</g>
<!-- 8&#45;&gt;9 -->
<g id="edge12" class="edge"><title>8&#45;&gt;9</title>
<path fill="none" stroke="black" d="M474.055,-431.697C475.487,-423.983 477.209,-414.712 478.806,-406.112"/>
<polygon fill="black" stroke="black" points="482.28,-406.575 480.665,-396.104 475.398,-405.297 482.28,-406.575"/>
</g>
<!-- 10 -->
<g id="node14" class="node"><title>10</title>
<ellipse fill="none" stroke="black" cx="506.841" cy="-306" rx="89.8845" ry="18"/>
<text text-anchor="middle" x="506.841" y="-302.3" font-family="Times,serif" font-size="14.00">10. Machine Learning</text>
</g>
<!-- 8&#45;&gt;10 -->
<g id="edge31" class="edge"><title>8&#45;&gt;10</title>
<path fill="none" stroke="black" d="M538.796,-436.54C561.451,-428.798 584.338,-416.268 597.841,-396 606.713,-382.685 605.815,-373.872 597.841,-360 589.466,-345.43 575.373,-334.49 560.747,-326.451"/>
<polygon fill="black" stroke="black" points="537.622,-433.24 529.128,-439.573 539.717,-439.919 537.622,-433.24"/>
<polygon fill="black" stroke="black" points="562.12,-323.223 551.619,-321.815 558.95,-329.464 562.12,-323.223"/>
</g>
<!-- 8&#45;&gt;11 -->
<g id="edge27" class="edge"><title>8&#45;&gt;11</title>
<path fill="none" stroke="black" d="M429.833,-435.287C409.512,-426.723 385.944,-413.877 369.841,-396 335.264,-357.612 360.469,-327.223 326.841,-288 315.699,-275.004 300.535,-264.385 285.831,-256.158"/>
<polygon fill="black" stroke="black" points="287.248,-252.948 276.776,-251.345 283.963,-259.129 287.248,-252.948"/>
</g>
<!-- 9&#45;&gt;10 -->
<g id="edge13" class="edge"><title>9&#45;&gt;10</title>
<path fill="none" stroke="black" d="M489.527,-359.697C492.089,-351.898 495.174,-342.509 498.026,-333.829"/>
<polygon fill="black" stroke="black" points="501.425,-334.697 501.221,-324.104 494.775,-332.512 501.425,-334.697"/>
</g>
<!-- 9&#45;&gt;11 -->
<g id="edge28" class="edge"><title>9&#45;&gt;11</title>
<path fill="none" stroke="black" d="M458.803,-360.355C443.79,-350.174 424.451,-336.705 407.841,-324 388.045,-308.857 386.158,-300.917 364.841,-288 343.063,-274.803 317.405,-263.457 294.801,-254.687"/>
<polygon fill="black" stroke="black" points="295.913,-251.365 285.321,-251.089 293.428,-257.91 295.913,-251.365"/>
</g>
<!-- 10&#45;&gt;11 -->
<g id="edge14" class="edge"><title>10&#45;&gt;11</title>
<path fill="none" stroke="black" d="M454.142,-291.337C411.964,-280.402 352.454,-264.974 306.373,-253.027"/>
<polygon fill="black" stroke="black" points="307.017,-249.578 296.458,-250.456 305.26,-256.354 307.017,-249.578"/>
</g>
<!-- Bi -->
<g id="node16" class="node"><title>Bi</title>
<ellipse fill="none" stroke="black" cx="236.841" cy="-162" rx="57.3905" ry="18"/>
<text text-anchor="middle" x="236.841" y="-158.3" font-family="Times,serif" font-size="14.00">Bibliography</text>
</g>
<!-- 11&#45;&gt;Bi -->
<g id="edge15" class="edge"><title>11&#45;&gt;Bi</title>
<path fill="none" stroke="black" d="M236.841,-215.697C236.841,-207.983 236.841,-198.712 236.841,-190.112"/>
<polygon fill="black" stroke="black" points="240.342,-190.104 236.841,-180.104 233.342,-190.104 240.342,-190.104"/>
</g>
<!-- Project -->
<g id="node17" class="node"><title>Project</title>
<ellipse fill="none" stroke="black" cx="236.841" cy="-90" rx="64.9885" ry="18"/>
<text text-anchor="middle" x="236.841" y="-86.3" font-family="Times,serif" font-size="14.00">List of Projects</text>
</g>
<!-- Bi&#45;&gt;Project -->
<g id="edge16" class="edge"><title>Bi&#45;&gt;Project</title>
<path fill="none" stroke="black" d="M236.841,-143.697C236.841,-135.983 236.841,-126.712 236.841,-118.112"/>
<polygon fill="black" stroke="black" points="240.342,-118.104 236.841,-108.104 233.342,-118.104 240.342,-118.104"/>
</g>
<!-- Ind -->
<g id="node18" class="node"><title>Ind</title>
<ellipse fill="none" stroke="black" cx="236.841" cy="-18" rx="30.5947" ry="18"/>
<text text-anchor="middle" x="236.841" y="-14.3" font-family="Times,serif" font-size="14.00">Index</text>
</g>
<!-- Project&#45;&gt;Ind -->
<g id="edge17" class="edge"><title>Project&#45;&gt;Ind</title>
<path fill="none" stroke="black" d="M236.841,-71.6966C236.841,-63.9827 236.841,-54.7125 236.841,-46.1124"/>
<polygon fill="black" stroke="black" points="240.342,-46.1043 236.841,-36.1043 233.342,-46.1044 240.342,-46.1043"/>
</g>
</g>
</svg>
