<?xml version="1.0" encoding="UTF-8" standalone="no"?>
<!DOCTYPE svg PUBLIC "-//W3C//DTD SVG 1.1//EN"
 "http://www.w3.org/Graphics/SVG/1.1/DTD/svg11.dtd">
<!-- Generated by graphviz version 2.38.0 (20140413.2041)
 -->
<!-- Title: toc Pages: 1 -->
<svg width="641pt" height="1268pt"
 viewBox="0.00 0.00 641.00 1268.00" xmlns="http://www.w3.org/2000/svg" xmlns:xlink="http://www.w3.org/1999/xlink">
<g id="graph0" class="graph" transform="scale(1 1) rotate(0) translate(4 1264)">
<title>toc</title>
<polygon fill="white" stroke="none" points="-4,4 -4,-1264 637,-1264 637,4 -4,4"/>
<!-- TOC -->
<g id="node1" class="node"><title>TOC</title>
<polygon fill="none" stroke="black" points="158.5,-1260 21.5,-1260 21.5,-1224 158.5,-1224 158.5,-1260"/>
<text text-anchor="middle" x="90" y="-1238.3" font-family="Hershey-Noailles-help-me" font-size="14.00">Table of Contents</text>
</g>
<!-- Ack -->
<g id="node2" class="node"><title>Ack</title>
<polygon fill="none" stroke="black" points="165.5,-1188 14.5,-1188 14.5,-1152 165.5,-1152 165.5,-1188"/>
<text text-anchor="middle" x="90" y="-1166.3" font-family="Hershey-Noailles-help-me" font-size="14.00">Acknowledgements</text>
</g>
<!-- TOC&#45;&gt;Ack -->
<g id="edge1" class="edge"><title>TOC&#45;&gt;Ack</title>
<path fill="none" stroke="black" d="M90,-1223.7C90,-1215.98 90,-1206.71 90,-1198.11"/>
<polygon fill="black" stroke="black" points="93.5001,-1198.1 90,-1188.1 86.5001,-1198.1 93.5001,-1198.1"/>
</g>
<!-- OSP -->
<g id="node3" class="node"><title>OSP</title>
<polygon fill="none" stroke="black" points="180,-1116 0,-1116 0,-1080 180,-1080 180,-1116"/>
<text text-anchor="middle" x="90" y="-1094.3" font-family="Hershey-Noailles-help-me" font-size="14.00">Open Source Publishing</text>
</g>
<!-- Ack&#45;&gt;OSP -->
<g id="edge2" class="edge"><title>Ack&#45;&gt;OSP</title>
<path fill="none" stroke="black" d="M90,-1151.7C90,-1143.98 90,-1134.71 90,-1126.11"/>
<polygon fill="black" stroke="black" points="93.5001,-1126.1 90,-1116.1 86.5001,-1126.1 93.5001,-1126.1"/>
</g>
<!-- 0 -->
<g id="node4" class="node"><title>0</title>
<polygon fill="none" stroke="black" points="124,-1044 56,-1044 56,-1008 124,-1008 124,-1044"/>
<text text-anchor="middle" x="90" y="-1022.3" font-family="Hershey-Noailles-help-me" font-size="14.00">Preface</text>
</g>
<!-- OSP&#45;&gt;0 -->
<g id="edge3" class="edge"><title>OSP&#45;&gt;0</title>
<path fill="none" stroke="black" d="M90,-1079.7C90,-1071.98 90,-1062.71 90,-1054.11"/>
<polygon fill="black" stroke="black" points="93.5001,-1054.1 90,-1044.1 86.5001,-1054.1 93.5001,-1054.1"/>
</g>
<!-- 1 -->
<g id="node5" class="node"><title>1</title>
<polygon fill="none" stroke="black" points="210.5,-972 69.5,-972 69.5,-936 210.5,-936 210.5,-972"/>
<text text-anchor="middle" x="140" y="-950.3" font-family="Hershey-Noailles-help-me" font-size="14.00">1. Getting started</text>
</g>
<!-- 0&#45;&gt;1 -->
<g id="edge4" class="edge"><title>0&#45;&gt;1</title>
<path fill="none" stroke="black" d="M102.36,-1007.7C108.233,-999.474 115.369,-989.483 121.842,-980.421"/>
<polygon fill="black" stroke="black" points="124.818,-982.276 127.783,-972.104 119.122,-978.207 124.818,-982.276"/>
</g>
<!-- 11 -->
<g id="node15" class="node"><title>11</title>
<polygon fill="none" stroke="black" points="354,-252 108,-252 108,-216 354,-216 354,-252"/>
<text text-anchor="middle" x="231" y="-230.3" font-family="Hershey-Noailles-help-me" font-size="14.00">Afterword: Recurrent imaginaries</text>
</g>
<!-- 0&#45;&gt;11 -->
<g id="edge18" class="edge"><title>0&#45;&gt;11</title>
<path fill="none" stroke="black" d="M73.4003,-999.353C68.5077,-990.906 63.5263,-981.292 60,-972 45.6495,-934.184 41,-923.447 41,-883 41,-883 41,-883 41,-377 41,-331.41 57.3482,-317.626 92,-288 108.438,-273.946 128.995,-263.416 149.217,-255.607"/>
<polygon fill="black" stroke="black" points="70.4442,-1001.23 78.6013,-1007.99 76.4409,-997.618 70.4442,-1001.23"/>
<polygon fill="black" stroke="black" points="150.599,-258.829 158.782,-252.099 148.188,-252.257 150.599,-258.829"/>
</g>
<!-- 2 -->
<g id="node6" class="node"><title>2</title>
<polygon fill="none" stroke="black" points="287.5,-900 126.5,-900 126.5,-864 287.5,-864 287.5,-900"/>
<text text-anchor="middle" x="207" y="-878.3" font-family="Hershey-Noailles-help-me" font-size="14.00">2. Variable geometry</text>
</g>
<!-- 1&#45;&gt;2 -->
<g id="edge5" class="edge"><title>1&#45;&gt;2</title>
<path fill="none" stroke="black" d="M156.562,-935.697C164.675,-927.22 174.588,-916.864 183.471,-907.583"/>
<polygon fill="black" stroke="black" points="186.243,-909.749 190.629,-900.104 181.186,-904.908 186.243,-909.749"/>
</g>
<!-- 1&#45;&gt;11 -->
<g id="edge20" class="edge"><title>1&#45;&gt;11</title>
<path fill="none" stroke="black" d="M127.063,-935.655C109.157,-909.878 79,-859.296 79,-811 79,-811 79,-811 79,-377 79,-331.41 97.1708,-319.633 130,-288 143.231,-275.251 160.14,-264.781 176.322,-256.612"/>
<polygon fill="black" stroke="black" points="178.249,-259.569 185.732,-252.069 175.205,-253.265 178.249,-259.569"/>
</g>
<!-- 3 -->
<g id="node7" class="node"><title>3</title>
<polygon fill="none" stroke="black" points="268.5,-828 145.5,-828 145.5,-792 268.5,-792 268.5,-828"/>
<text text-anchor="middle" x="207" y="-806.3" font-family="Hershey-Noailles-help-me" font-size="14.00">3. Infinite loops</text>
</g>
<!-- 2&#45;&gt;3 -->
<g id="edge6" class="edge"><title>2&#45;&gt;3</title>
<path fill="none" stroke="black" d="M207,-863.697C207,-855.983 207,-846.712 207,-838.112"/>
<polygon fill="black" stroke="black" points="210.5,-838.104 207,-828.104 203.5,-838.104 210.5,-838.104"/>
</g>
<!-- 4 -->
<g id="node8" class="node"><title>4</title>
<polygon fill="none" stroke="black" points="462.5,-756 337.5,-756 337.5,-720 462.5,-720 462.5,-756"/>
<text text-anchor="middle" x="400" y="-734.3" font-family="Hershey-Noailles-help-me" font-size="14.00">4. Data capture</text>
</g>
<!-- 2&#45;&gt;4 -->
<g id="edge30" class="edge"><title>2&#45;&gt;4</title>
<path fill="none" stroke="black" d="M256.822,-859.557C274.63,-850.89 294.387,-840.071 311,-828 336.832,-809.231 362.171,-782.891 379.164,-763.739"/>
<polygon fill="black" stroke="black" points="255.241,-856.433 247.714,-863.889 258.247,-862.755 255.241,-856.433"/>
<polygon fill="black" stroke="black" points="381.97,-765.847 385.913,-756.014 376.698,-761.242 381.97,-765.847"/>
</g>
<!-- 6 -->
<g id="node10" class="node"><title>6</title>
<polygon fill="none" stroke="black" points="371.5,-612 210.5,-612 210.5,-576 371.5,-576 371.5,-612"/>
<text text-anchor="middle" x="291" y="-590.3" font-family="Hershey-Noailles-help-me" font-size="14.00">6. Object abstraction</text>
</g>
<!-- 2&#45;&gt;6 -->
<g id="edge19" class="edge"><title>2&#45;&gt;6</title>
<path fill="none" stroke="black" d="M249.237,-858.102C260.129,-850.068 270.581,-839.995 277,-828 312.758,-761.183 303.744,-667.65 296.289,-622.088"/>
<polygon fill="black" stroke="black" points="247.14,-855.296 240.882,-863.845 251.105,-861.065 247.14,-855.296"/>
<polygon fill="black" stroke="black" points="299.712,-621.346 294.55,-612.094 292.816,-622.546 299.712,-621.346"/>
</g>
<!-- 2&#45;&gt;11 -->
<g id="edge21" class="edge"><title>2&#45;&gt;11</title>
<path fill="none" stroke="black" d="M174.433,-863.797C160.576,-854.889 145.462,-842.764 136,-828 114.176,-793.946 117,-779.447 117,-739 117,-739 117,-739 117,-377 117,-325.997 162.274,-282.884 195.759,-257.971"/>
<polygon fill="black" stroke="black" points="197.923,-260.726 203.984,-252.036 193.826,-255.05 197.923,-260.726"/>
</g>
<!-- 3&#45;&gt;4 -->
<g id="edge7" class="edge"><title>3&#45;&gt;4</title>
<path fill="none" stroke="black" d="M254.213,-791.876C281.066,-782.137 314.88,-769.872 343.18,-759.608"/>
<polygon fill="black" stroke="black" points="344.733,-762.768 352.94,-756.068 342.346,-756.188 344.733,-762.768"/>
</g>
<!-- 3&#45;&gt;11 -->
<g id="edge22" class="edge"><title>3&#45;&gt;11</title>
<path fill="none" stroke="black" d="M196.226,-791.813C180.994,-765.828 155,-714.519 155,-667 155,-667 155,-667 155,-377 155,-331.641 185.517,-286.749 207.875,-259.946"/>
<polygon fill="black" stroke="black" points="210.645,-262.093 214.509,-252.228 205.336,-257.53 210.645,-262.093"/>
</g>
<!-- 5 -->
<g id="node9" class="node"><title>5</title>
<polygon fill="none" stroke="black" points="587,-684 447,-684 447,-648 587,-648 587,-684"/>
<text text-anchor="middle" x="517" y="-662.3" font-family="Hershey-Noailles-help-me" font-size="14.00">5. Auto generator</text>
</g>
<!-- 4&#45;&gt;5 -->
<g id="edge8" class="edge"><title>4&#45;&gt;5</title>
<path fill="none" stroke="black" d="M428.621,-719.876C443.919,-710.724 462.943,-699.342 479.418,-689.485"/>
<polygon fill="black" stroke="black" points="481.484,-692.327 488.269,-684.19 477.89,-686.32 481.484,-692.327"/>
</g>
<!-- 8 -->
<g id="node12" class="node"><title>8</title>
<polygon fill="none" stroke="black" points="459.5,-468 328.5,-468 328.5,-432 459.5,-432 459.5,-468"/>
<text text-anchor="middle" x="394" y="-446.3" font-family="Hershey-Noailles-help-me" font-size="14.00">8. Que(e)ry data</text>
</g>
<!-- 4&#45;&gt;8 -->
<g id="edge31" class="edge"><title>4&#45;&gt;8</title>
<path fill="none" stroke="black" d="M399.427,-709.702C398.284,-655.194 395.729,-533.412 394.58,-478.631"/>
<polygon fill="black" stroke="black" points="395.934,-710.042 399.643,-719.966 402.932,-709.895 395.934,-710.042"/>
<polygon fill="black" stroke="black" points="398.072,-478.231 394.363,-468.306 391.074,-478.378 398.072,-478.231"/>
</g>
<!-- 4&#45;&gt;11 -->
<g id="edge23" class="edge"><title>4&#45;&gt;11</title>
<path fill="none" stroke="black" d="M462.781,-734.109C504.951,-729.079 559.31,-716.208 596,-684 628.193,-655.739 633,-637.838 633,-595 633,-595 633,-595 633,-377 633,-333.07 625.402,-314.011 590,-288 554.593,-261.986 451.2,-248.585 364.415,-241.777"/>
<polygon fill="black" stroke="black" points="364.426,-238.267 354.19,-240.998 363.895,-245.247 364.426,-238.267"/>
</g>
<!-- 5&#45;&gt;6 -->
<g id="edge9" class="edge"><title>5&#45;&gt;6</title>
<path fill="none" stroke="black" d="M462.003,-647.966C430.014,-638.057 389.516,-625.514 355.962,-615.121"/>
<polygon fill="black" stroke="black" points="356.831,-611.726 346.243,-612.111 354.76,-618.413 356.831,-611.726"/>
</g>
<!-- 5&#45;&gt;11 -->
<g id="edge24" class="edge"><title>5&#45;&gt;11</title>
<path fill="none" stroke="black" d="M533.925,-647.853C556.865,-622.712 595,-573.348 595,-523 595,-523 595,-523 595,-377 595,-334.813 594.61,-314.764 562,-288 531.855,-263.26 442.558,-249.898 364.304,-242.781"/>
<polygon fill="black" stroke="black" points="364.598,-239.293 354.33,-241.902 363.984,-246.266 364.598,-239.293"/>
</g>
<!-- 7 -->
<g id="node11" class="node"><title>7</title>
<polygon fill="none" stroke="black" points="352.5,-540 229.5,-540 229.5,-504 352.5,-504 352.5,-540"/>
<text text-anchor="middle" x="291" y="-518.3" font-family="Hershey-Noailles-help-me" font-size="14.00">7. Vocable code</text>
</g>
<!-- 6&#45;&gt;7 -->
<g id="edge10" class="edge"><title>6&#45;&gt;7</title>
<path fill="none" stroke="black" d="M291,-575.697C291,-567.983 291,-558.712 291,-550.112"/>
<polygon fill="black" stroke="black" points="294.5,-550.104 291,-540.104 287.5,-550.104 294.5,-550.104"/>
</g>
<!-- 6&#45;&gt;11 -->
<g id="edge25" class="edge"><title>6&#45;&gt;11</title>
<path fill="none" stroke="black" d="M259.72,-575.887C245.791,-566.855 230.252,-554.604 220,-540 196.251,-506.168 193,-492.336 193,-451 193,-451 193,-451 193,-377 193,-335.633 208.235,-289.722 219.412,-261.605"/>
<polygon fill="black" stroke="black" points="222.756,-262.673 223.31,-252.093 216.279,-260.019 222.756,-262.673"/>
</g>
<!-- 7&#45;&gt;8 -->
<g id="edge11" class="edge"><title>7&#45;&gt;8</title>
<path fill="none" stroke="black" d="M324.788,-498.037C336.187,-490.29 348.904,-481.648 360.297,-473.905"/>
<polygon fill="black" stroke="black" points="322.5,-495.36 316.197,-503.876 326.435,-501.15 322.5,-495.36"/>
<polygon fill="black" stroke="black" points="362.403,-476.705 368.707,-468.19 358.468,-470.916 362.403,-476.705"/>
</g>
<!-- 7&#45;&gt;11 -->
<g id="edge26" class="edge"><title>7&#45;&gt;11</title>
<path fill="none" stroke="black" d="M286.576,-503.963C277.839,-469.931 258.083,-391.047 245,-324 240.981,-303.405 237.33,-279.953 234.764,-262.296"/>
<polygon fill="black" stroke="black" points="238.191,-261.533 233.314,-252.127 231.261,-262.521 238.191,-261.533"/>
</g>
<!-- 9 -->
<g id="node13" class="node"><title>9</title>
<polygon fill="none" stroke="black" points="490.5,-396 297.5,-396 297.5,-360 490.5,-360 490.5,-396"/>
<text text-anchor="middle" x="394" y="-374.3" font-family="Hershey-Noailles-help-me" font-size="14.00">9. Algorithmic procedures</text>
</g>
<!-- 8&#45;&gt;9 -->
<g id="edge12" class="edge"><title>8&#45;&gt;9</title>
<path fill="none" stroke="black" d="M394,-431.697C394,-423.983 394,-414.712 394,-406.112"/>
<polygon fill="black" stroke="black" points="397.5,-406.104 394,-396.104 390.5,-406.104 397.5,-406.104"/>
</g>
<!-- 10 -->
<g id="node14" class="node"><title>10</title>
<polygon fill="none" stroke="black" points="553.5,-324 374.5,-324 374.5,-288 553.5,-288 553.5,-324"/>
<text text-anchor="middle" x="464" y="-302.3" font-family="Hershey-Noailles-help-me" font-size="14.00">10. Machine unlearning</text>
</g>
<!-- 8&#45;&gt;10 -->
<g id="edge32" class="edge"><title>8&#45;&gt;10</title>
<path fill="none" stroke="black" d="M463.849,-427.294C477.804,-419.657 490.704,-409.481 499,-396 511.376,-375.89 499.199,-350.656 485.93,-332.198"/>
<polygon fill="black" stroke="black" points="461.931,-424.341 454.565,-431.956 465.072,-430.597 461.931,-424.341"/>
<polygon fill="black" stroke="black" points="488.697,-330.053 479.841,-324.237 483.136,-334.306 488.697,-330.053"/>
</g>
<!-- 8&#45;&gt;11 -->
<g id="edge27" class="edge"><title>8&#45;&gt;11</title>
<path fill="none" stroke="black" d="M340.981,-431.973C322.126,-423.675 302.101,-411.958 288,-396 270.028,-375.662 248.612,-302.082 237.868,-261.806"/>
<polygon fill="black" stroke="black" points="241.244,-260.882 235.314,-252.103 234.474,-262.664 241.244,-260.882"/>
</g>
<!-- 9&#45;&gt;10 -->
<g id="edge13" class="edge"><title>9&#45;&gt;10</title>
<path fill="none" stroke="black" d="M411.303,-359.697C419.865,-351.135 430.344,-340.656 439.696,-331.304"/>
<polygon fill="black" stroke="black" points="442.299,-333.65 446.896,-324.104 437.35,-328.701 442.299,-333.65"/>
</g>
<!-- 9&#45;&gt;11 -->
<g id="edge28" class="edge"><title>9&#45;&gt;11</title>
<path fill="none" stroke="black" d="M374.338,-359.871C345.457,-334.711 291.44,-287.654 258.597,-259.042"/>
<polygon fill="black" stroke="black" points="260.57,-256.119 250.731,-252.189 255.972,-261.397 260.57,-256.119"/>
</g>
<!-- 10&#45;&gt;5 -->
<g id="edge29" class="edge"><title>10&#45;&gt;5</title>
<path fill="none" stroke="black" d="M485.103,-324.32C512.542,-348.925 557,-396.839 557,-449 557,-523 557,-523 557,-523 557,-564.516 540.963,-610.388 529.198,-638.455"/>
<polygon fill="black" stroke="black" points="525.85,-637.381 525.095,-647.949 532.275,-640.158 525.85,-637.381"/>
</g>
<!-- 10&#45;&gt;11 -->
<g id="edge14" class="edge"><title>10&#45;&gt;11</title>
<path fill="none" stroke="black" d="M407.3,-287.966C374.32,-278.057 332.568,-265.514 297.974,-255.121"/>
<polygon fill="black" stroke="black" points="298.539,-251.636 287.955,-252.111 296.525,-258.34 298.539,-251.636"/>
</g>
<!-- Bi -->
<g id="node16" class="node"><title>Bi</title>
<polygon fill="none" stroke="black" points="282,-180 180,-180 180,-144 282,-144 282,-180"/>
<text text-anchor="middle" x="231" y="-158.3" font-family="Hershey-Noailles-help-me" font-size="14.00">Bibliography</text>
</g>
<!-- 11&#45;&gt;Bi -->
<g id="edge15" class="edge"><title>11&#45;&gt;Bi</title>
<path fill="none" stroke="black" d="M231,-215.697C231,-207.983 231,-198.712 231,-190.112"/>
<polygon fill="black" stroke="black" points="234.5,-190.104 231,-180.104 227.5,-190.104 234.5,-190.104"/>
</g>
<!-- Project -->
<g id="node17" class="node"><title>Project</title>
<polygon fill="none" stroke="black" points="290,-108 172,-108 172,-72 290,-72 290,-108"/>
<text text-anchor="middle" x="231" y="-86.3" font-family="Hershey-Noailles-help-me" font-size="14.00">List of Projects</text>
</g>
<!-- Bi&#45;&gt;Project -->
<g id="edge16" class="edge"><title>Bi&#45;&gt;Project</title>
<path fill="none" stroke="black" d="M231,-143.697C231,-135.983 231,-126.712 231,-118.112"/>
<polygon fill="black" stroke="black" points="234.5,-118.104 231,-108.104 227.5,-118.104 234.5,-118.104"/>
</g>
<!-- Ind -->
<g id="node18" class="node"><title>Ind</title>
<polygon fill="none" stroke="black" points="258.5,-36 203.5,-36 203.5,-0 258.5,-0 258.5,-36"/>
<text text-anchor="middle" x="231" y="-14.3" font-family="Hershey-Noailles-help-me" font-size="14.00">Index</text>
</g>
<!-- Project&#45;&gt;Ind -->
<g id="edge17" class="edge"><title>Project&#45;&gt;Ind</title>
<path fill="none" stroke="black" d="M231,-71.6966C231,-63.9827 231,-54.7125 231,-46.1124"/>
<polygon fill="black" stroke="black" points="234.5,-46.1043 231,-36.1043 227.5,-46.1044 234.5,-46.1043"/>
</g>
</g>
</svg>
