<?xml version="1.0" encoding="UTF-8" standalone="no"?>
<!DOCTYPE svg PUBLIC "-//W3C//DTD SVG 1.1//EN"
 "http://www.w3.org/Graphics/SVG/1.1/DTD/svg11.dtd">
<!-- Generated by graphviz version 2.38.0 (20140413.2041)
 -->
<!-- Title: toc Pages: 1 -->
<svg width="663pt" height="1268pt"
 viewBox="0.00 0.00 662.84 1268.00" xmlns="http://www.w3.org/2000/svg" xmlns:xlink="http://www.w3.org/1999/xlink">
<g id="graph0" class="graph" transform="scale(1 1) rotate(0) translate(4 1264)">
<title>toc</title>
<polygon fill="white" stroke="none" points="-4,4 -4,-1264 658.841,-1264 658.841,4 -4,4"/>
<!-- TOC -->
<g id="node1" class="node"><title>TOC</title>
<ellipse fill="none" stroke="black" cx="96.8414" cy="-1242" rx="74.187" ry="18"/>
<text text-anchor="middle" x="96.8414" y="-1238.3" font-family="Times,serif" font-size="14.00">Table of Contents</text>
</g>
<!-- Ack -->
<g id="node2" class="node"><title>Ack</title>
<ellipse fill="none" stroke="black" cx="96.8414" cy="-1170" rx="81.4863" ry="18"/>
<text text-anchor="middle" x="96.8414" y="-1166.3" font-family="Times,serif" font-size="14.00">Acknowledgements</text>
</g>
<!-- TOC&#45;&gt;Ack -->
<g id="edge1" class="edge"><title>TOC&#45;&gt;Ack</title>
<path fill="none" stroke="black" d="M96.8414,-1223.7C96.8414,-1215.98 96.8414,-1206.71 96.8414,-1198.11"/>
<polygon fill="black" stroke="black" points="100.342,-1198.1 96.8414,-1188.1 93.3415,-1198.1 100.342,-1198.1"/>
</g>
<!-- OSP -->
<g id="node3" class="node"><title>OSP</title>
<ellipse fill="none" stroke="black" cx="96.8414" cy="-1098" rx="96.6831" ry="18"/>
<text text-anchor="middle" x="96.8414" y="-1094.3" font-family="Times,serif" font-size="14.00">Open Source Publishing</text>
</g>
<!-- Ack&#45;&gt;OSP -->
<g id="edge2" class="edge"><title>Ack&#45;&gt;OSP</title>
<path fill="none" stroke="black" d="M96.8414,-1151.7C96.8414,-1143.98 96.8414,-1134.71 96.8414,-1126.11"/>
<polygon fill="black" stroke="black" points="100.342,-1126.1 96.8414,-1116.1 93.3415,-1126.1 100.342,-1126.1"/>
</g>
<!-- 0 -->
<g id="node4" class="node"><title>0</title>
<ellipse fill="none" stroke="black" cx="96.8414" cy="-1026" rx="37.0935" ry="18"/>
<text text-anchor="middle" x="96.8414" y="-1022.3" font-family="Times,serif" font-size="14.00">Preface</text>
</g>
<!-- OSP&#45;&gt;0 -->
<g id="edge3" class="edge"><title>OSP&#45;&gt;0</title>
<path fill="none" stroke="black" d="M96.8414,-1079.7C96.8414,-1071.98 96.8414,-1062.71 96.8414,-1054.11"/>
<polygon fill="black" stroke="black" points="100.342,-1054.1 96.8414,-1044.1 93.3415,-1054.1 100.342,-1054.1"/>
</g>
<!-- 1 -->
<g id="node5" class="node"><title>1</title>
<ellipse fill="none" stroke="black" cx="147.841" cy="-954" rx="73.387" ry="18"/>
<text text-anchor="middle" x="147.841" y="-950.3" font-family="Times,serif" font-size="14.00">1. Getting Started</text>
</g>
<!-- 0&#45;&gt;1 -->
<g id="edge4" class="edge"><title>0&#45;&gt;1</title>
<path fill="none" stroke="black" d="M108.67,-1008.76C114.798,-1000.35 122.421,-989.89 129.31,-980.436"/>
<polygon fill="black" stroke="black" points="132.306,-982.267 135.365,-972.124 126.648,-978.145 132.306,-982.267"/>
</g>
<!-- 11 -->
<g id="node15" class="node"><title>11</title>
<ellipse fill="none" stroke="black" cx="236.841" cy="-234" rx="131.077" ry="18"/>
<text text-anchor="middle" x="236.841" y="-230.3" font-family="Times,serif" font-size="14.00">Afterword: Recurrent Imaginaries</text>
</g>
<!-- 0&#45;&gt;11 -->
<g id="edge18" class="edge"><title>0&#45;&gt;11</title>
<path fill="none" stroke="black" d="M79.8985,-999.809C74.7655,-991.271 69.5195,-981.489 65.8414,-972 51.2232,-934.287 46.8414,-923.447 46.8414,-883 46.8414,-883 46.8414,-883 46.8414,-377 46.8414,-331.41 63.1896,-317.626 97.8414,-288 116.22,-272.287 139.748,-260.978 162.2,-252.954"/>
<polygon fill="black" stroke="black" points="77.0727,-1001.89 85.3445,-1008.51 83.0066,-998.178 77.0727,-1001.89"/>
<polygon fill="black" stroke="black" points="163.396,-256.244 171.738,-249.713 161.143,-249.616 163.396,-256.244"/>
</g>
<!-- 2 -->
<g id="node6" class="node"><title>2</title>
<ellipse fill="none" stroke="black" cx="220.841" cy="-882" rx="88.2844" ry="18"/>
<text text-anchor="middle" x="220.841" y="-878.3" font-family="Times,serif" font-size="14.00">2. Variable Geometry</text>
</g>
<!-- 1&#45;&gt;2 -->
<g id="edge5" class="edge"><title>1&#45;&gt;2</title>
<path fill="none" stroke="black" d="M165.141,-936.411C174.347,-927.583 185.831,-916.572 195.976,-906.844"/>
<polygon fill="black" stroke="black" points="198.617,-909.16 203.413,-899.713 193.772,-904.108 198.617,-909.16"/>
</g>
<!-- 1&#45;&gt;11 -->
<g id="edge20" class="edge"><title>1&#45;&gt;11</title>
<path fill="none" stroke="black" d="M134.788,-936.147C116.335,-910.588 84.8414,-859.816 84.8414,-811 84.8414,-811 84.8414,-811 84.8414,-377 84.8414,-331.41 103.012,-319.633 135.841,-288 149.738,-274.61 167.691,-263.734 184.598,-255.398"/>
<polygon fill="black" stroke="black" points="186.302,-258.464 193.85,-251.029 183.313,-252.134 186.302,-258.464"/>
</g>
<!-- 3 -->
<g id="node7" class="node"><title>3</title>
<ellipse fill="none" stroke="black" cx="220.841" cy="-810" rx="70.3881" ry="18"/>
<text text-anchor="middle" x="220.841" y="-806.3" font-family="Times,serif" font-size="14.00">3. Infinite Loops</text>
</g>
<!-- 2&#45;&gt;3 -->
<g id="edge6" class="edge"><title>2&#45;&gt;3</title>
<path fill="none" stroke="black" d="M220.841,-863.697C220.841,-855.983 220.841,-846.712 220.841,-838.112"/>
<polygon fill="black" stroke="black" points="224.342,-838.104 220.841,-828.104 217.342,-838.104 224.342,-838.104"/>
</g>
<!-- 4 -->
<g id="node8" class="node"><title>4</title>
<ellipse fill="none" stroke="black" cx="422.841" cy="-738" rx="66.8882" ry="18"/>
<text text-anchor="middle" x="422.841" y="-734.3" font-family="Times,serif" font-size="14.00">4. Data Capture</text>
</g>
<!-- 2&#45;&gt;4 -->
<g id="edge30" class="edge"><title>2&#45;&gt;4</title>
<path fill="none" stroke="black" d="M270.346,-861.892C290.575,-853.006 313.675,-841.422 332.841,-828 359.302,-809.471 385.049,-782.876 402.178,-763.587"/>
<polygon fill="black" stroke="black" points="268.79,-858.75 260.978,-865.907 271.548,-865.184 268.79,-858.75"/>
<polygon fill="black" stroke="black" points="405.026,-765.647 408.968,-755.813 399.754,-761.042 405.026,-765.647"/>
</g>
<!-- 6 -->
<g id="node10" class="node"><title>6</title>
<ellipse fill="none" stroke="black" cx="308.841" cy="-594" rx="85.5853" ry="18"/>
<text text-anchor="middle" x="308.841" y="-590.3" font-family="Times,serif" font-size="14.00">6. Object Orientation</text>
</g>
<!-- 2&#45;&gt;6 -->
<g id="edge19" class="edge"><title>2&#45;&gt;6</title>
<path fill="none" stroke="black" d="M266.85,-860.327C279.762,-852.173 292.318,-841.474 299.841,-828 336.748,-761.902 324.537,-668.038 315.274,-622.245"/>
<polygon fill="black" stroke="black" points="264.767,-857.491 257.911,-865.569 268.308,-863.53 264.767,-857.491"/>
<polygon fill="black" stroke="black" points="318.64,-621.247 313.13,-612.198 311.794,-622.708 318.64,-621.247"/>
</g>
<!-- 2&#45;&gt;11 -->
<g id="edge21" class="edge"><title>2&#45;&gt;11</title>
<path fill="none" stroke="black" d="M185.843,-865.245C170.106,-856.447 152.674,-844.002 141.841,-828 119.167,-794.506 122.841,-779.447 122.841,-739 122.841,-739 122.841,-739 122.841,-377 122.841,-325.706 168.634,-282.391 202.173,-257.546"/>
<polygon fill="black" stroke="black" points="204.323,-260.311 210.401,-251.633 200.238,-254.627 204.323,-260.311"/>
</g>
<!-- 3&#45;&gt;4 -->
<g id="edge7" class="edge"><title>3&#45;&gt;4</title>
<path fill="none" stroke="black" d="M260.75,-795.17C293.225,-783.916 339.198,-767.985 373.893,-755.962"/>
<polygon fill="black" stroke="black" points="375.057,-759.263 383.36,-752.682 372.765,-752.649 375.057,-759.263"/>
</g>
<!-- 3&#45;&gt;11 -->
<g id="edge22" class="edge"><title>3&#45;&gt;11</title>
<path fill="none" stroke="black" d="M208.409,-792.051C190.835,-766.368 160.841,-715.441 160.841,-667 160.841,-667 160.841,-667 160.841,-377 160.841,-331.641 191.358,-286.749 213.716,-259.946"/>
<polygon fill="black" stroke="black" points="216.486,-262.093 220.351,-252.228 211.178,-257.53 216.486,-262.093"/>
</g>
<!-- 5 -->
<g id="node9" class="node"><title>5</title>
<ellipse fill="none" stroke="black" cx="538.841" cy="-666" rx="75.2868" ry="18"/>
<text text-anchor="middle" x="538.841" y="-662.3" font-family="Times,serif" font-size="14.00">5. Auto Generator</text>
</g>
<!-- 4&#45;&gt;5 -->
<g id="edge8" class="edge"><title>4&#45;&gt;5</title>
<path fill="none" stroke="black" d="M448.874,-721.291C465.029,-711.542 485.995,-698.89 503.623,-688.252"/>
<polygon fill="black" stroke="black" points="505.741,-691.062 512.494,-682.899 502.124,-685.069 505.741,-691.062"/>
</g>
<!-- 8 -->
<g id="node12" class="node"><title>8</title>
<ellipse fill="none" stroke="black" cx="407.841" cy="-450" rx="70.6878" ry="18"/>
<text text-anchor="middle" x="407.841" y="-446.3" font-family="Times,serif" font-size="14.00">8. Que(e)ry Data</text>
</g>
<!-- 4&#45;&gt;8 -->
<g id="edge31" class="edge"><title>4&#45;&gt;8</title>
<path fill="none" stroke="black" d="M421.41,-709.702C418.551,-655.194 412.164,-533.412 409.291,-478.631"/>
<polygon fill="black" stroke="black" points="417.929,-710.163 421.948,-719.966 424.919,-709.796 417.929,-710.163"/>
<polygon fill="black" stroke="black" points="412.768,-478.109 408.749,-468.306 405.778,-478.476 412.768,-478.109"/>
</g>
<!-- 4&#45;&gt;11 -->
<g id="edge23" class="edge"><title>4&#45;&gt;11</title>
<path fill="none" stroke="black" d="M488.805,-734.856C531.849,-730.107 586.578,-717.268 622.841,-684 653.816,-655.584 654.841,-637.035 654.841,-595 654.841,-595 654.841,-595 654.841,-377 654.841,-332.676 645.867,-313.823 609.841,-288 572.052,-260.913 461.196,-247.565 370.084,-241.051"/>
<polygon fill="black" stroke="black" points="370.143,-237.547 359.925,-240.347 369.659,-244.53 370.143,-237.547"/>
</g>
<!-- 5&#45;&gt;6 -->
<g id="edge9" class="edge"><title>5&#45;&gt;6</title>
<path fill="none" stroke="black" d="M494.222,-651.42C457.371,-640.205 404.853,-624.221 365.118,-612.128"/>
<polygon fill="black" stroke="black" points="365.894,-608.705 355.309,-609.142 363.856,-615.402 365.894,-608.705"/>
</g>
<!-- 5&#45;&gt;11 -->
<g id="edge24" class="edge"><title>5&#45;&gt;11</title>
<path fill="none" stroke="black" d="M555.383,-648.272C578.279,-623.264 616.841,-573.629 616.841,-523 616.841,-523 616.841,-523 616.841,-377 616.841,-334.331 614.296,-314.485 580.841,-288 548.119,-262.095 450.552,-248.714 367.647,-241.885"/>
<polygon fill="black" stroke="black" points="367.861,-238.391 357.615,-241.084 367.304,-245.369 367.861,-238.391"/>
</g>
<!-- 7 -->
<g id="node11" class="node"><title>7</title>
<ellipse fill="none" stroke="black" cx="308.841" cy="-522" rx="70.3881" ry="18"/>
<text text-anchor="middle" x="308.841" y="-518.3" font-family="Times,serif" font-size="14.00">7. Vocable Code</text>
</g>
<!-- 6&#45;&gt;7 -->
<g id="edge10" class="edge"><title>6&#45;&gt;7</title>
<path fill="none" stroke="black" d="M308.841,-575.697C308.841,-567.983 308.841,-558.712 308.841,-550.112"/>
<polygon fill="black" stroke="black" points="312.342,-550.104 308.841,-540.104 305.342,-550.104 312.342,-550.104"/>
</g>
<!-- 6&#45;&gt;11 -->
<g id="edge25" class="edge"><title>6&#45;&gt;11</title>
<path fill="none" stroke="black" d="M275.899,-577.301C260.069,-568.313 241.954,-555.687 229.841,-540 204.242,-506.847 198.841,-492.886 198.841,-451 198.841,-451 198.841,-451 198.841,-377 198.841,-335.633 214.076,-289.722 225.253,-261.605"/>
<polygon fill="black" stroke="black" points="228.598,-262.673 229.152,-252.093 222.121,-260.019 228.598,-262.673"/>
</g>
<!-- 7&#45;&gt;8 -->
<g id="edge11" class="edge"><title>7&#45;&gt;8</title>
<path fill="none" stroke="black" d="M340.052,-498.932C351.778,-490.641 365.098,-481.223 376.808,-472.943"/>
<polygon fill="black" stroke="black" points="337.947,-496.134 331.803,-504.765 341.989,-501.849 337.947,-496.134"/>
<polygon fill="black" stroke="black" points="378.86,-475.778 385.005,-467.147 374.819,-470.063 378.86,-475.778"/>
</g>
<!-- 7&#45;&gt;11 -->
<g id="edge26" class="edge"><title>7&#45;&gt;11</title>
<path fill="none" stroke="black" d="M302.953,-503.806C291.499,-469.82 266.015,-391.482 250.841,-324 246.238,-303.527 242.615,-280.07 240.208,-262.379"/>
<polygon fill="black" stroke="black" points="243.642,-261.646 238.87,-252.187 236.702,-262.558 243.642,-261.646"/>
</g>
<!-- 9 -->
<g id="node13" class="node"><title>9</title>
<ellipse fill="none" stroke="black" cx="407.841" cy="-378" rx="104.782" ry="18"/>
<text text-anchor="middle" x="407.841" y="-374.3" font-family="Times,serif" font-size="14.00">9. Algorithmic Procedures</text>
</g>
<!-- 8&#45;&gt;9 -->
<g id="edge12" class="edge"><title>8&#45;&gt;9</title>
<path fill="none" stroke="black" d="M407.841,-431.697C407.841,-423.983 407.841,-414.712 407.841,-406.112"/>
<polygon fill="black" stroke="black" points="411.342,-406.104 407.841,-396.104 404.342,-406.104 411.342,-406.104"/>
</g>
<!-- 10 -->
<g id="node14" class="node"><title>10</title>
<ellipse fill="none" stroke="black" cx="481.841" cy="-306" rx="89.8845" ry="18"/>
<text text-anchor="middle" x="481.841" y="-302.3" font-family="Times,serif" font-size="14.00">10. Machine Learning</text>
</g>
<!-- 8&#45;&gt;10 -->
<g id="edge32" class="edge"><title>8&#45;&gt;10</title>
<path fill="none" stroke="black" d="M470.086,-434.476C490.085,-426.548 510.087,-414.427 521.841,-396 534.877,-375.564 520.844,-350.169 505.93,-331.743"/>
<polygon fill="black" stroke="black" points="468.809,-431.216 460.617,-437.936 471.211,-437.791 468.809,-431.216"/>
<polygon fill="black" stroke="black" points="508.283,-329.11 499.109,-323.809 502.975,-333.674 508.283,-329.11"/>
</g>
<!-- 8&#45;&gt;11 -->
<g id="edge27" class="edge"><title>8&#45;&gt;11</title>
<path fill="none" stroke="black" d="M360.709,-436.528C337.83,-428.341 311.535,-415.459 293.841,-396 284.515,-385.744 258.398,-304.558 244.998,-261.543"/>
<polygon fill="black" stroke="black" points="248.34,-260.505 242.035,-251.99 241.654,-262.578 248.34,-260.505"/>
</g>
<!-- 9&#45;&gt;10 -->
<g id="edge13" class="edge"><title>9&#45;&gt;10</title>
<path fill="none" stroke="black" d="M425.755,-360.055C435.026,-351.285 446.499,-340.432 456.648,-330.831"/>
<polygon fill="black" stroke="black" points="459.234,-333.204 464.093,-323.789 454.423,-328.118 459.234,-333.204"/>
</g>
<!-- 9&#45;&gt;11 -->
<g id="edge28" class="edge"><title>9&#45;&gt;11</title>
<path fill="none" stroke="black" d="M387.554,-360.153C357.086,-334.852 299.417,-286.964 264.925,-258.321"/>
<polygon fill="black" stroke="black" points="267.032,-255.521 257.102,-251.825 262.56,-260.906 267.032,-255.521"/>
</g>
<!-- 10&#45;&gt;5 -->
<g id="edge29" class="edge"><title>10&#45;&gt;5</title>
<path fill="none" stroke="black" d="M503.369,-323.714C531.946,-347.965 578.841,-395.857 578.841,-449 578.841,-523 578.841,-523 578.841,-523 578.841,-564.516 562.805,-610.388 551.04,-638.455"/>
<polygon fill="black" stroke="black" points="547.691,-637.381 546.936,-647.949 554.116,-640.158 547.691,-637.381"/>
</g>
<!-- 10&#45;&gt;11 -->
<g id="edge14" class="edge"><title>10&#45;&gt;11</title>
<path fill="none" stroke="black" d="M432.557,-290.919C394.653,-280.089 341.978,-265.039 300.822,-253.28"/>
<polygon fill="black" stroke="black" points="301.736,-249.901 291.16,-250.519 299.813,-256.632 301.736,-249.901"/>
</g>
<!-- Bi -->
<g id="node16" class="node"><title>Bi</title>
<ellipse fill="none" stroke="black" cx="236.841" cy="-162" rx="57.3905" ry="18"/>
<text text-anchor="middle" x="236.841" y="-158.3" font-family="Times,serif" font-size="14.00">Bibliography</text>
</g>
<!-- 11&#45;&gt;Bi -->
<g id="edge15" class="edge"><title>11&#45;&gt;Bi</title>
<path fill="none" stroke="black" d="M236.841,-215.697C236.841,-207.983 236.841,-198.712 236.841,-190.112"/>
<polygon fill="black" stroke="black" points="240.342,-190.104 236.841,-180.104 233.342,-190.104 240.342,-190.104"/>
</g>
<!-- Project -->
<g id="node17" class="node"><title>Project</title>
<ellipse fill="none" stroke="black" cx="236.841" cy="-90" rx="64.9885" ry="18"/>
<text text-anchor="middle" x="236.841" y="-86.3" font-family="Times,serif" font-size="14.00">List of Projects</text>
</g>
<!-- Bi&#45;&gt;Project -->
<g id="edge16" class="edge"><title>Bi&#45;&gt;Project</title>
<path fill="none" stroke="black" d="M236.841,-143.697C236.841,-135.983 236.841,-126.712 236.841,-118.112"/>
<polygon fill="black" stroke="black" points="240.342,-118.104 236.841,-108.104 233.342,-118.104 240.342,-118.104"/>
</g>
<!-- Ind -->
<g id="node18" class="node"><title>Ind</title>
<ellipse fill="none" stroke="black" cx="236.841" cy="-18" rx="30.5947" ry="18"/>
<text text-anchor="middle" x="236.841" y="-14.3" font-family="Times,serif" font-size="14.00">Index</text>
</g>
<!-- Project&#45;&gt;Ind -->
<g id="edge17" class="edge"><title>Project&#45;&gt;Ind</title>
<path fill="none" stroke="black" d="M236.841,-71.6966C236.841,-63.9827 236.841,-54.7125 236.841,-46.1124"/>
<polygon fill="black" stroke="black" points="240.342,-46.1043 236.841,-36.1043 233.342,-46.1044 240.342,-46.1043"/>
</g>
</g>
</svg>
