<?xml version="1.0" encoding="UTF-8" standalone="no"?>
<!DOCTYPE svg PUBLIC "-//W3C//DTD SVG 1.1//EN"
 "http://www.w3.org/Graphics/SVG/1.1/DTD/svg11.dtd">
<!-- Generated by graphviz version 2.44.1 (0)
 -->
<!-- Title: toc Pages: 1 -->
<svg width="637pt" height="1268pt"
 viewBox="0.00 0.00 637.00 1268.00" xmlns="http://www.w3.org/2000/svg" xmlns:xlink="http://www.w3.org/1999/xlink">
<g id="graph0" class="graph" transform="scale(1 1) rotate(0) translate(4 1264)">
<title>toc</title>
<polygon fill="white" stroke="transparent" points="-4,4 -4,-1264 633,-1264 633,4 -4,4"/>
<!-- TOC -->
<g id="node1" class="node">
<title>TOC</title>
<polygon fill="none" stroke="black" points="155.5,-1260 20.5,-1260 20.5,-1224 155.5,-1224 155.5,-1260"/>
<text text-anchor="middle" x="88" y="-1238.3" font-family="Hershey-Noailles-help-me" font-size="14.00">Table of Contents</text>
</g>
<!-- Ack -->
<g id="node2" class="node">
<title>Ack</title>
<polygon fill="none" stroke="black" points="161,-1188 15,-1188 15,-1152 161,-1152 161,-1188"/>
<text text-anchor="middle" x="88" y="-1166.3" font-family="Hershey-Noailles-help-me" font-size="14.00">Acknowledgements</text>
</g>
<!-- TOC&#45;&gt;Ack -->
<g id="edge1" class="edge">
<title>TOC&#45;&gt;Ack</title>
<path fill="none" stroke="black" d="M88,-1223.7C88,-1215.98 88,-1206.71 88,-1198.11"/>
<polygon fill="black" stroke="black" points="91.5,-1198.1 88,-1188.1 84.5,-1198.1 91.5,-1198.1"/>
</g>
<!-- OSP -->
<g id="node3" class="node">
<title>OSP</title>
<polygon fill="none" stroke="black" points="176,-1116 0,-1116 0,-1080 176,-1080 176,-1116"/>
<text text-anchor="middle" x="88" y="-1094.3" font-family="Hershey-Noailles-help-me" font-size="14.00">Open Source Publishing</text>
</g>
<!-- Ack&#45;&gt;OSP -->
<g id="edge2" class="edge">
<title>Ack&#45;&gt;OSP</title>
<path fill="none" stroke="black" d="M88,-1151.7C88,-1143.98 88,-1134.71 88,-1126.11"/>
<polygon fill="black" stroke="black" points="91.5,-1126.1 88,-1116.1 84.5,-1126.1 91.5,-1126.1"/>
</g>
<!-- 0 -->
<g id="node4" class="node">
<title>0</title>
<polygon fill="none" stroke="black" points="121.5,-1044 54.5,-1044 54.5,-1008 121.5,-1008 121.5,-1044"/>
<text text-anchor="middle" x="88" y="-1022.3" font-family="Hershey-Noailles-help-me" font-size="14.00">Preface</text>
</g>
<!-- OSP&#45;&gt;0 -->
<g id="edge3" class="edge">
<title>OSP&#45;&gt;0</title>
<path fill="none" stroke="black" d="M88,-1079.7C88,-1071.98 88,-1062.71 88,-1054.11"/>
<polygon fill="black" stroke="black" points="91.5,-1054.1 88,-1044.1 84.5,-1054.1 91.5,-1054.1"/>
</g>
<!-- 1 -->
<g id="node5" class="node">
<title>1</title>
<polygon fill="none" stroke="black" points="202.5,-972 69.5,-972 69.5,-936 202.5,-936 202.5,-972"/>
<text text-anchor="middle" x="136" y="-950.3" font-family="Hershey-Noailles-help-me" font-size="14.00">1. Getting started</text>
</g>
<!-- 0&#45;&gt;1 -->
<g id="edge4" class="edge">
<title>0&#45;&gt;1</title>
<path fill="none" stroke="black" d="M99.87,-1007.7C105.5,-999.47 112.35,-989.48 118.57,-980.42"/>
<polygon fill="black" stroke="black" points="121.5,-982.33 124.27,-972.1 115.73,-978.37 121.5,-982.33"/>
</g>
<!-- 11 -->
<g id="node15" class="node">
<title>11</title>
<polygon fill="none" stroke="black" points="348.5,-252 113.5,-252 113.5,-216 348.5,-216 348.5,-252"/>
<text text-anchor="middle" x="231" y="-230.3" font-family="Hershey-Noailles-help-me" font-size="14.00">Afterword: Recurrent imaginaries</text>
</g>
<!-- 0&#45;&gt;11 -->
<g id="edge18" class="edge">
<title>0&#45;&gt;11</title>
<path fill="none" stroke="black" d="M72.42,-998.97C67.9,-990.58 63.3,-981.1 60,-972 46.2,-933.98 41,-923.45 41,-883 41,-883 41,-883 41,-377 41,-331.41 57.35,-317.63 92,-288 108.44,-273.95 128.99,-263.42 149.22,-255.61"/>
<polygon fill="black" stroke="black" points="69.47,-1000.87 77.41,-1007.89 75.58,-997.45 69.47,-1000.87"/>
<polygon fill="black" stroke="black" points="150.6,-258.83 158.78,-252.1 148.19,-252.26 150.6,-258.83"/>
</g>
<!-- 2 -->
<g id="node6" class="node">
<title>2</title>
<polygon fill="none" stroke="black" points="281.5,-900 126.5,-900 126.5,-864 281.5,-864 281.5,-900"/>
<text text-anchor="middle" x="204" y="-878.3" font-family="Hershey-Noailles-help-me" font-size="14.00">2. Variable geometry</text>
</g>
<!-- 1&#45;&gt;2 -->
<g id="edge5" class="edge">
<title>1&#45;&gt;2</title>
<path fill="none" stroke="black" d="M152.81,-935.7C161.13,-927.14 171.31,-916.66 180.39,-907.3"/>
<polygon fill="black" stroke="black" points="182.93,-909.72 187.38,-900.1 177.91,-904.84 182.93,-909.72"/>
</g>
<!-- 1&#45;&gt;11 -->
<g id="edge20" class="edge">
<title>1&#45;&gt;11</title>
<path fill="none" stroke="black" d="M124.19,-935.96C107.49,-910.16 79,-859.08 79,-811 79,-811 79,-811 79,-377 79,-331.41 97.17,-319.63 130,-288 143.23,-275.25 160.14,-264.78 176.32,-256.61"/>
<polygon fill="black" stroke="black" points="178.25,-259.57 185.73,-252.07 175.21,-253.27 178.25,-259.57"/>
</g>
<!-- 3 -->
<g id="node7" class="node">
<title>3</title>
<polygon fill="none" stroke="black" points="263,-828 145,-828 145,-792 263,-792 263,-828"/>
<text text-anchor="middle" x="204" y="-806.3" font-family="Hershey-Noailles-help-me" font-size="14.00">3. Infinite loops</text>
</g>
<!-- 2&#45;&gt;3 -->
<g id="edge6" class="edge">
<title>2&#45;&gt;3</title>
<path fill="none" stroke="black" d="M204,-863.7C204,-855.98 204,-846.71 204,-838.11"/>
<polygon fill="black" stroke="black" points="207.5,-838.1 204,-828.1 200.5,-838.1 207.5,-838.1"/>
</g>
<!-- 4 -->
<g id="node8" class="node">
<title>4</title>
<polygon fill="none" stroke="black" points="454.5,-756 335.5,-756 335.5,-720 454.5,-720 454.5,-756"/>
<text text-anchor="middle" x="395" y="-734.3" font-family="Hershey-Noailles-help-me" font-size="14.00">4. Data capture</text>
</g>
<!-- 2&#45;&gt;4 -->
<g id="edge30" class="edge">
<title>2&#45;&gt;4</title>
<path fill="none" stroke="black" d="M252.36,-859.29C269.64,-850.6 288.82,-839.84 305,-828 330.76,-809.16 356.26,-783.04 373.51,-763.98"/>
<polygon fill="black" stroke="black" points="250.42,-856.34 242.99,-863.9 253.51,-862.63 250.42,-856.34"/>
<polygon fill="black" stroke="black" points="376.33,-766.07 380.37,-756.28 371.1,-761.42 376.33,-766.07"/>
</g>
<!-- 6 -->
<g id="node10" class="node">
<title>6</title>
<polygon fill="none" stroke="black" points="367,-612 209,-612 209,-576 367,-576 367,-612"/>
<text text-anchor="middle" x="288" y="-590.3" font-family="Hershey-Noailles-help-me" font-size="14.00">6. Object abstraction</text>
</g>
<!-- 2&#45;&gt;6 -->
<g id="edge19" class="edge">
<title>2&#45;&gt;6</title>
<path fill="none" stroke="black" d="M244.7,-858.06C255.38,-849.99 265.67,-839.9 272,-828 307.59,-761.05 299.72,-667.58 292.9,-622.06"/>
<polygon fill="black" stroke="black" points="242.67,-855.22 236.52,-863.84 246.7,-860.93 242.67,-855.22"/>
<polygon fill="black" stroke="black" points="296.33,-621.4 291.3,-612.07 289.42,-622.5 296.33,-621.4"/>
</g>
<!-- 2&#45;&gt;11 -->
<g id="edge21" class="edge">
<title>2&#45;&gt;11</title>
<path fill="none" stroke="black" d="M173.5,-863.99C160.04,-854.98 145.22,-842.71 136,-828 114.53,-793.72 117,-779.45 117,-739 117,-739 117,-739 117,-377 117,-326 162.27,-282.88 195.76,-257.97"/>
<polygon fill="black" stroke="black" points="197.92,-260.73 203.98,-252.04 193.83,-255.05 197.92,-260.73"/>
</g>
<!-- 3&#45;&gt;4 -->
<g id="edge7" class="edge">
<title>3&#45;&gt;4</title>
<path fill="none" stroke="black" d="M250.72,-791.88C277.3,-782.14 310.76,-769.87 338.77,-759.61"/>
<polygon fill="black" stroke="black" points="340.24,-762.8 348.43,-756.07 337.83,-756.22 340.24,-762.8"/>
</g>
<!-- 3&#45;&gt;11 -->
<g id="edge22" class="edge">
<title>3&#45;&gt;11</title>
<path fill="none" stroke="black" d="M193.85,-791.73C179.49,-765.64 155,-714.2 155,-667 155,-667 155,-667 155,-377 155,-331.64 185.52,-286.75 207.88,-259.95"/>
<polygon fill="black" stroke="black" points="210.64,-262.09 214.51,-252.23 205.34,-257.53 210.64,-262.09"/>
</g>
<!-- 5 -->
<g id="node9" class="node">
<title>5</title>
<polygon fill="none" stroke="black" points="580,-684 448,-684 448,-648 580,-648 580,-684"/>
<text text-anchor="middle" x="514" y="-662.3" font-family="Hershey-Noailles-help-me" font-size="14.00">5. Auto generator</text>
</g>
<!-- 4&#45;&gt;5 -->
<g id="edge8" class="edge">
<title>4&#45;&gt;5</title>
<path fill="none" stroke="black" d="M424.11,-719.88C439.67,-710.72 459.02,-699.34 475.78,-689.48"/>
<polygon fill="black" stroke="black" points="477.93,-692.28 484.78,-684.19 474.38,-686.24 477.93,-692.28"/>
</g>
<!-- 8 -->
<g id="node12" class="node">
<title>8</title>
<polygon fill="none" stroke="black" points="456.5,-468 327.5,-468 327.5,-432 456.5,-432 456.5,-468"/>
<text text-anchor="middle" x="392" y="-446.3" font-family="Hershey-Noailles-help-me" font-size="14.00">8. Que(e)ry data</text>
</g>
<!-- 4&#45;&gt;8 -->
<g id="edge31" class="edge">
<title>4&#45;&gt;8</title>
<path fill="none" stroke="black" d="M394.71,-709.7C394.14,-655.19 392.86,-533.41 392.29,-478.63"/>
<polygon fill="black" stroke="black" points="391.22,-710 394.82,-719.97 398.22,-709.93 391.22,-710"/>
<polygon fill="black" stroke="black" points="395.79,-478.27 392.18,-468.31 388.79,-478.34 395.79,-478.27"/>
</g>
<!-- 4&#45;&gt;11 -->
<g id="edge23" class="edge">
<title>4&#45;&gt;11</title>
<path fill="none" stroke="black" d="M454.62,-733.89C496.54,-728.83 551.59,-716 589,-684 621.96,-655.81 629,-638.37 629,-595 629,-595 629,-595 629,-377 629,-332.87 620.65,-314 585,-288 549.5,-262.11 445.22,-248.65 358.96,-241.79"/>
<polygon fill="black" stroke="black" points="359.05,-238.29 348.81,-241.01 358.51,-245.26 359.05,-238.29"/>
</g>
<!-- 5&#45;&gt;6 -->
<g id="edge9" class="edge">
<title>5&#45;&gt;6</title>
<path fill="none" stroke="black" d="M459,-647.97C427.01,-638.06 386.52,-625.51 352.96,-615.12"/>
<polygon fill="black" stroke="black" points="353.83,-611.73 343.24,-612.11 351.76,-618.41 353.83,-611.73"/>
</g>
<!-- 5&#45;&gt;11 -->
<g id="edge24" class="edge">
<title>5&#45;&gt;11</title>
<path fill="none" stroke="black" d="M530.71,-647.81C553.35,-622.62 591,-573.2 591,-523 591,-523 591,-523 591,-377 591,-334.66 589.83,-314.74 557,-288 526.79,-263.39 436.79,-249.98 358.98,-242.8"/>
<polygon fill="black" stroke="black" points="358.86,-239.28 348.59,-241.87 358.23,-246.25 358.86,-239.28"/>
</g>
<!-- 7 -->
<g id="node11" class="node">
<title>7</title>
<polygon fill="none" stroke="black" points="350,-540 226,-540 226,-504 350,-504 350,-540"/>
<text text-anchor="middle" x="288" y="-518.3" font-family="Hershey-Noailles-help-me" font-size="14.00">7. Vocable code</text>
</g>
<!-- 6&#45;&gt;7 -->
<g id="edge10" class="edge">
<title>6&#45;&gt;7</title>
<path fill="none" stroke="black" d="M288,-575.7C288,-567.98 288,-558.71 288,-550.11"/>
<polygon fill="black" stroke="black" points="291.5,-550.1 288,-540.1 284.5,-550.1 291.5,-550.1"/>
</g>
<!-- 6&#45;&gt;11 -->
<g id="edge25" class="edge">
<title>6&#45;&gt;11</title>
<path fill="none" stroke="black" d="M256.15,-575.8C242.27,-566.82 226.94,-554.63 217,-540 193.99,-506.11 193,-491.97 193,-451 193,-451 193,-451 193,-377 193,-335.63 208.23,-289.72 219.41,-261.61"/>
<polygon fill="black" stroke="black" points="222.76,-262.67 223.31,-252.09 216.28,-260.02 222.76,-262.67"/>
</g>
<!-- 7&#45;&gt;8 -->
<g id="edge11" class="edge">
<title>7&#45;&gt;8</title>
<path fill="none" stroke="black" d="M322.12,-498.04C333.63,-490.29 346.47,-481.65 357.97,-473.91"/>
<polygon fill="black" stroke="black" points="319.78,-495.39 313.44,-503.88 323.69,-501.2 319.78,-495.39"/>
<polygon fill="black" stroke="black" points="360.12,-476.68 366.46,-468.19 356.21,-470.87 360.12,-476.68"/>
</g>
<!-- 7&#45;&gt;11 -->
<g id="edge26" class="edge">
<title>7&#45;&gt;11</title>
<path fill="none" stroke="black" d="M283.92,-503.94C275.85,-469.87 257.56,-390.92 245,-324 241.13,-303.38 237.47,-279.93 234.87,-262.28"/>
<polygon fill="black" stroke="black" points="238.29,-261.5 233.39,-252.11 231.36,-262.51 238.29,-261.5"/>
</g>
<!-- 9 -->
<g id="node13" class="node">
<title>9</title>
<polygon fill="none" stroke="black" points="486.5,-396 297.5,-396 297.5,-360 486.5,-360 486.5,-396"/>
<text text-anchor="middle" x="392" y="-374.3" font-family="Hershey-Noailles-help-me" font-size="14.00">9. Algorithmic procedures</text>
</g>
<!-- 8&#45;&gt;9 -->
<g id="edge12" class="edge">
<title>8&#45;&gt;9</title>
<path fill="none" stroke="black" d="M392,-431.7C392,-423.98 392,-414.71 392,-406.11"/>
<polygon fill="black" stroke="black" points="395.5,-406.1 392,-396.1 388.5,-406.1 395.5,-406.1"/>
</g>
<!-- 10 -->
<g id="node14" class="node">
<title>10</title>
<polygon fill="none" stroke="black" points="548,-324 380,-324 380,-288 548,-288 548,-324"/>
<text text-anchor="middle" x="464" y="-302.3" font-family="Hershey-Noailles-help-me" font-size="14.00">10. Machine unlearning</text>
</g>
<!-- 8&#45;&gt;10 -->
<g id="edge32" class="edge">
<title>8&#45;&gt;10</title>
<path fill="none" stroke="black" d="M460.98,-427.29C474.88,-419.64 487.75,-409.47 496,-396 508.15,-376.18 497.07,-351.06 484.74,-332.57"/>
<polygon fill="black" stroke="black" points="459.08,-424.33 451.73,-431.96 462.23,-430.58 459.08,-424.33"/>
<polygon fill="black" stroke="black" points="487.53,-330.44 478.88,-324.33 481.82,-334.5 487.53,-330.44"/>
</g>
<!-- 8&#45;&gt;11 -->
<g id="edge27" class="edge">
<title>8&#45;&gt;11</title>
<path fill="none" stroke="black" d="M341.31,-431.99C322.77,-423.63 302.93,-411.87 289,-396 271.05,-375.57 249.12,-302.03 238.07,-261.78"/>
<polygon fill="black" stroke="black" points="241.44,-260.82 235.44,-252.09 234.68,-262.65 241.44,-260.82"/>
</g>
<!-- 9&#45;&gt;10 -->
<g id="edge13" class="edge">
<title>9&#45;&gt;10</title>
<path fill="none" stroke="black" d="M409.8,-359.7C418.6,-351.14 429.38,-340.66 439,-331.3"/>
<polygon fill="black" stroke="black" points="441.68,-333.58 446.41,-324.1 436.8,-328.57 441.68,-333.58"/>
</g>
<!-- 9&#45;&gt;11 -->
<g id="edge28" class="edge">
<title>9&#45;&gt;11</title>
<path fill="none" stroke="black" d="M372.58,-359.87C344.05,-334.71 290.7,-287.65 258.26,-259.04"/>
<polygon fill="black" stroke="black" points="260.3,-256.18 250.49,-252.19 255.67,-261.43 260.3,-256.18"/>
</g>
<!-- 10&#45;&gt;5 -->
<g id="edge29" class="edge">
<title>10&#45;&gt;5</title>
<path fill="none" stroke="black" d="M483.75,-324.09C509.97,-348.79 553,-397.21 553,-449 553,-523 553,-523 553,-523 553,-564.44 537.36,-610.33 525.89,-638.42"/>
<polygon fill="black" stroke="black" points="522.55,-637.35 521.89,-647.93 529,-640.07 522.55,-637.35"/>
</g>
<!-- 10&#45;&gt;11 -->
<g id="edge14" class="edge">
<title>10&#45;&gt;11</title>
<path fill="none" stroke="black" d="M407.3,-287.97C374.32,-278.06 332.57,-265.51 297.97,-255.12"/>
<polygon fill="black" stroke="black" points="298.54,-251.64 287.95,-252.11 296.52,-258.34 298.54,-251.64"/>
</g>
<!-- Bi -->
<g id="node16" class="node">
<title>Bi</title>
<polygon fill="none" stroke="black" points="281,-180 181,-180 181,-144 281,-144 281,-180"/>
<text text-anchor="middle" x="231" y="-158.3" font-family="Hershey-Noailles-help-me" font-size="14.00">Bibliography</text>
</g>
<!-- 11&#45;&gt;Bi -->
<g id="edge15" class="edge">
<title>11&#45;&gt;Bi</title>
<path fill="none" stroke="black" d="M231,-215.7C231,-207.98 231,-198.71 231,-190.11"/>
<polygon fill="black" stroke="black" points="234.5,-190.1 231,-180.1 227.5,-190.1 234.5,-190.1"/>
</g>
<!-- Project -->
<g id="node17" class="node">
<title>Project</title>
<polygon fill="none" stroke="black" points="289,-108 173,-108 173,-72 289,-72 289,-108"/>
<text text-anchor="middle" x="231" y="-86.3" font-family="Hershey-Noailles-help-me" font-size="14.00">List of Projects</text>
</g>
<!-- Bi&#45;&gt;Project -->
<g id="edge16" class="edge">
<title>Bi&#45;&gt;Project</title>
<path fill="none" stroke="black" d="M231,-143.7C231,-135.98 231,-126.71 231,-118.11"/>
<polygon fill="black" stroke="black" points="234.5,-118.1 231,-108.1 227.5,-118.1 234.5,-118.1"/>
</g>
<!-- Ind -->
<g id="node18" class="node">
<title>Ind</title>
<polygon fill="none" stroke="black" points="258,-36 204,-36 204,0 258,0 258,-36"/>
<text text-anchor="middle" x="231" y="-14.3" font-family="Hershey-Noailles-help-me" font-size="14.00">Index</text>
</g>
<!-- Project&#45;&gt;Ind -->
<g id="edge17" class="edge">
<title>Project&#45;&gt;Ind</title>
<path fill="none" stroke="black" d="M231,-71.7C231,-63.98 231,-54.71 231,-46.11"/>
<polygon fill="black" stroke="black" points="234.5,-46.1 231,-36.1 227.5,-46.1 234.5,-46.1"/>
</g>
</g>
</svg>
