<?xml version="1.0" encoding="UTF-8" standalone="no"?>
<!DOCTYPE svg PUBLIC "-//W3C//DTD SVG 1.1//EN"
 "http://www.w3.org/Graphics/SVG/1.1/DTD/svg11.dtd">
<!-- Generated by graphviz version 2.44.1 (0)
 -->
<!-- Title: toc Pages: 1 -->
<svg width="635pt" height="1268pt"
 viewBox="0.00 0.00 635.00 1268.00" xmlns="http://www.w3.org/2000/svg" xmlns:xlink="http://www.w3.org/1999/xlink">
<g id="graph0" class="graph" transform="scale(1 1) rotate(0) translate(4 1264)">
<title>toc</title>
<polygon fill="white" stroke="transparent" points="-4,4 -4,-1264 631,-1264 631,4 -4,4"/>
<!-- TOC -->
<g id="node1" class="node">
<title>TOC</title>
<polygon fill="none" stroke="black" points="155.5,-1260 20.5,-1260 20.5,-1224 155.5,-1224 155.5,-1260"/>
<text text-anchor="middle" x="88" y="-1238.3" font-family="Hershey-Noailles-help-me" font-size="14.00">Table of Contents</text>
</g>
<!-- Ack -->
<g id="node2" class="node">
<title>Ack</title>
<polygon fill="none" stroke="black" points="161,-1188 15,-1188 15,-1152 161,-1152 161,-1188"/>
<text text-anchor="middle" x="88" y="-1166.3" font-family="Hershey-Noailles-help-me" font-size="14.00">Acknowledgements</text>
</g>
<!-- TOC&#45;&gt;Ack -->
<g id="edge1" class="edge">
<title>TOC&#45;&gt;Ack</title>
<path fill="none" stroke="black" d="M88,-1223.7C88,-1215.98 88,-1206.71 88,-1198.11"/>
<polygon fill="black" stroke="black" points="91.5,-1198.1 88,-1188.1 84.5,-1198.1 91.5,-1198.1"/>
</g>
<!-- OSP -->
<g id="node3" class="node">
<title>OSP</title>
<polygon fill="none" stroke="black" points="176,-1116 0,-1116 0,-1080 176,-1080 176,-1116"/>
<text text-anchor="middle" x="88" y="-1094.3" font-family="Hershey-Noailles-help-me" font-size="14.00">Open Source Publishing</text>
</g>
<!-- Ack&#45;&gt;OSP -->
<g id="edge2" class="edge">
<title>Ack&#45;&gt;OSP</title>
<path fill="none" stroke="black" d="M88,-1151.7C88,-1143.98 88,-1134.71 88,-1126.11"/>
<polygon fill="black" stroke="black" points="91.5,-1126.1 88,-1116.1 84.5,-1126.1 91.5,-1126.1"/>
</g>
<!-- 0 -->
<g id="node4" class="node">
<title>0</title>
<polygon fill="none" stroke="black" points="121.5,-1044 54.5,-1044 54.5,-1008 121.5,-1008 121.5,-1044"/>
<text text-anchor="middle" x="88" y="-1022.3" font-family="Hershey-Noailles-help-me" font-size="14.00">Preface</text>
</g>
<!-- OSP&#45;&gt;0 -->
<g id="edge3" class="edge">
<title>OSP&#45;&gt;0</title>
<path fill="none" stroke="black" d="M88,-1079.7C88,-1071.98 88,-1062.71 88,-1054.11"/>
<polygon fill="black" stroke="black" points="91.5,-1054.1 88,-1044.1 84.5,-1054.1 91.5,-1054.1"/>
</g>
<!-- 1 -->
<g id="node5" class="node">
<title>1</title>
<polygon fill="none" stroke="black" points="203,-972 69,-972 69,-936 203,-936 203,-972"/>
<text text-anchor="middle" x="136" y="-950.3" font-family="Hershey-Noailles-help-me" font-size="14.00">1. Getting Started</text>
</g>
<!-- 0&#45;&gt;1 -->
<g id="edge4" class="edge">
<title>0&#45;&gt;1</title>
<path fill="none" stroke="black" d="M99.87,-1007.7C105.5,-999.47 112.35,-989.48 118.57,-980.42"/>
<polygon fill="black" stroke="black" points="121.5,-982.33 124.27,-972.1 115.73,-978.37 121.5,-982.33"/>
</g>
<!-- 11 -->
<g id="node15" class="node">
<title>11</title>
<polygon fill="none" stroke="black" points="349,-252 113,-252 113,-216 349,-216 349,-252"/>
<text text-anchor="middle" x="231" y="-230.3" font-family="Hershey-Noailles-help-me" font-size="14.00">Afterword: Recurrent Imaginaries</text>
</g>
<!-- 0&#45;&gt;11 -->
<g id="edge18" class="edge">
<title>0&#45;&gt;11</title>
<path fill="none" stroke="black" d="M72.42,-998.97C67.9,-990.58 63.3,-981.1 60,-972 46.2,-933.98 41,-923.45 41,-883 41,-883 41,-883 41,-377 41,-331.41 57.35,-317.63 92,-288 108.44,-273.95 128.99,-263.42 149.22,-255.61"/>
<polygon fill="black" stroke="black" points="69.47,-1000.87 77.41,-1007.89 75.58,-997.45 69.47,-1000.87"/>
<polygon fill="black" stroke="black" points="150.6,-258.83 158.78,-252.1 148.19,-252.26 150.6,-258.83"/>
</g>
<!-- 2 -->
<g id="node6" class="node">
<title>2</title>
<polygon fill="none" stroke="black" points="284.5,-900 127.5,-900 127.5,-864 284.5,-864 284.5,-900"/>
<text text-anchor="middle" x="206" y="-878.3" font-family="Hershey-Noailles-help-me" font-size="14.00">2. Variable Geometry</text>
</g>
<!-- 1&#45;&gt;2 -->
<g id="edge5" class="edge">
<title>1&#45;&gt;2</title>
<path fill="none" stroke="black" d="M153.3,-935.7C161.86,-927.14 172.34,-916.66 181.7,-907.3"/>
<polygon fill="black" stroke="black" points="184.3,-909.65 188.9,-900.1 179.35,-904.7 184.3,-909.65"/>
</g>
<!-- 1&#45;&gt;11 -->
<g id="edge20" class="edge">
<title>1&#45;&gt;11</title>
<path fill="none" stroke="black" d="M124.19,-935.96C107.49,-910.16 79,-859.08 79,-811 79,-811 79,-811 79,-377 79,-331.41 97.17,-319.63 130,-288 143.23,-275.25 160.14,-264.78 176.32,-256.61"/>
<polygon fill="black" stroke="black" points="178.25,-259.57 185.73,-252.07 175.21,-253.27 178.25,-259.57"/>
</g>
<!-- 3 -->
<g id="node7" class="node">
<title>3</title>
<polygon fill="none" stroke="black" points="266.5,-828 145.5,-828 145.5,-792 266.5,-792 266.5,-828"/>
<text text-anchor="middle" x="206" y="-806.3" font-family="Hershey-Noailles-help-me" font-size="14.00">3. Infinite Loops</text>
</g>
<!-- 2&#45;&gt;3 -->
<g id="edge6" class="edge">
<title>2&#45;&gt;3</title>
<path fill="none" stroke="black" d="M206,-863.7C206,-855.98 206,-846.71 206,-838.11"/>
<polygon fill="black" stroke="black" points="209.5,-838.1 206,-828.1 202.5,-838.1 209.5,-838.1"/>
</g>
<!-- 4 -->
<g id="node8" class="node">
<title>4</title>
<polygon fill="none" stroke="black" points="456.5,-756 335.5,-756 335.5,-720 456.5,-720 456.5,-756"/>
<text text-anchor="middle" x="396" y="-734.3" font-family="Hershey-Noailles-help-me" font-size="14.00">4. Data Capture</text>
</g>
<!-- 2&#45;&gt;4 -->
<g id="edge30" class="edge">
<title>2&#45;&gt;4</title>
<path fill="none" stroke="black" d="M255.41,-859.59C273.05,-850.93 292.61,-840.1 309,-828 334.4,-809.25 359.15,-782.9 375.72,-763.75"/>
<polygon fill="black" stroke="black" points="253.88,-856.44 246.38,-863.92 256.91,-862.75 253.88,-856.44"/>
<polygon fill="black" stroke="black" points="378.48,-765.9 382.29,-756.02 373.14,-761.37 378.48,-765.9"/>
</g>
<!-- 6 -->
<g id="node10" class="node">
<title>6</title>
<polygon fill="none" stroke="black" points="367.5,-612 212.5,-612 212.5,-576 367.5,-576 367.5,-612"/>
<text text-anchor="middle" x="290" y="-590.3" font-family="Hershey-Noailles-help-me" font-size="14.00">6. Object Orientation</text>
</g>
<!-- 2&#45;&gt;6 -->
<g id="edge19" class="edge">
<title>2&#45;&gt;6</title>
<path fill="none" stroke="black" d="M247.32,-858.19C258.16,-850.12 268.6,-840 275,-828 310.68,-761.12 302.24,-667.61 295.09,-622.07"/>
<polygon fill="black" stroke="black" points="245.23,-855.38 239.02,-863.96 249.23,-861.13 245.23,-855.38"/>
<polygon fill="black" stroke="black" points="298.52,-621.37 293.42,-612.08 291.62,-622.52 298.52,-621.37"/>
</g>
<!-- 2&#45;&gt;11 -->
<g id="edge21" class="edge">
<title>2&#45;&gt;11</title>
<path fill="none" stroke="black" d="M174.25,-863.94C160.49,-854.99 145.41,-842.79 136,-828 114.29,-793.87 117,-779.45 117,-739 117,-739 117,-739 117,-377 117,-326 162.27,-282.88 195.76,-257.97"/>
<polygon fill="black" stroke="black" points="197.92,-260.73 203.98,-252.04 193.83,-255.05 197.92,-260.73"/>
</g>
<!-- 3&#45;&gt;4 -->
<g id="edge7" class="edge">
<title>3&#45;&gt;4</title>
<path fill="none" stroke="black" d="M252.48,-791.88C278.92,-782.14 312.2,-769.87 340.06,-759.61"/>
<polygon fill="black" stroke="black" points="341.5,-762.81 349.67,-756.07 339.08,-756.24 341.5,-762.81"/>
</g>
<!-- 3&#45;&gt;11 -->
<g id="edge22" class="edge">
<title>3&#45;&gt;11</title>
<path fill="none" stroke="black" d="M195.43,-791.79C180.49,-765.77 155,-714.41 155,-667 155,-667 155,-667 155,-377 155,-331.64 185.52,-286.75 207.88,-259.95"/>
<polygon fill="black" stroke="black" points="210.64,-262.09 214.51,-252.23 205.34,-257.53 210.64,-262.09"/>
</g>
<!-- 5 -->
<g id="node9" class="node">
<title>5</title>
<polygon fill="none" stroke="black" points="581,-684 447,-684 447,-648 581,-648 581,-684"/>
<text text-anchor="middle" x="514" y="-662.3" font-family="Hershey-Noailles-help-me" font-size="14.00">5. Auto Generator</text>
</g>
<!-- 4&#45;&gt;5 -->
<g id="edge8" class="edge">
<title>4&#45;&gt;5</title>
<path fill="none" stroke="black" d="M424.87,-719.88C440.29,-710.72 459.48,-699.34 476.1,-689.48"/>
<polygon fill="black" stroke="black" points="478.21,-692.3 485.02,-684.19 474.64,-686.28 478.21,-692.3"/>
</g>
<!-- 8 -->
<g id="node12" class="node">
<title>8</title>
<polygon fill="none" stroke="black" points="455.5,-468 326.5,-468 326.5,-432 455.5,-432 455.5,-468"/>
<text text-anchor="middle" x="391" y="-446.3" font-family="Hershey-Noailles-help-me" font-size="14.00">8. Que(e)ry Data</text>
</g>
<!-- 4&#45;&gt;8 -->
<g id="edge31" class="edge">
<title>4&#45;&gt;8</title>
<path fill="none" stroke="black" d="M395.52,-709.7C394.57,-655.19 392.44,-533.41 391.48,-478.63"/>
<polygon fill="black" stroke="black" points="392.03,-710.03 395.7,-719.97 399.03,-709.91 392.03,-710.03"/>
<polygon fill="black" stroke="black" points="394.98,-478.24 391.3,-468.31 387.98,-478.37 394.98,-478.24"/>
</g>
<!-- 4&#45;&gt;11 -->
<g id="edge23" class="edge">
<title>4&#45;&gt;11</title>
<path fill="none" stroke="black" d="M456.8,-734.11C498.73,-729.12 553.31,-716.3 590,-684 622.16,-655.7 627,-637.84 627,-595 627,-595 627,-595 627,-377 627,-332.47 617.19,-313.94 581,-288 545.93,-262.85 444,-249.35 359.13,-242.28"/>
<polygon fill="black" stroke="black" points="359.38,-238.79 349.13,-241.47 358.82,-245.76 359.38,-238.79"/>
</g>
<!-- 5&#45;&gt;6 -->
<g id="edge9" class="edge">
<title>5&#45;&gt;6</title>
<path fill="none" stroke="black" d="M459.49,-647.97C427.78,-638.06 387.64,-625.51 354.39,-615.12"/>
<polygon fill="black" stroke="black" points="355.34,-611.75 344.75,-612.11 353.26,-618.43 355.34,-611.75"/>
</g>
<!-- 5&#45;&gt;11 -->
<g id="edge24" class="edge">
<title>5&#45;&gt;11</title>
<path fill="none" stroke="black" d="M530.27,-647.73C552.33,-622.45 589,-572.91 589,-523 589,-523 589,-523 589,-377 589,-334.33 586.32,-314.66 553,-288 523.2,-264.16 435.61,-250.74 359.3,-243.37"/>
<polygon fill="black" stroke="black" points="359.38,-239.86 349.09,-242.41 358.72,-246.83 359.38,-239.86"/>
</g>
<!-- 7 -->
<g id="node11" class="node">
<title>7</title>
<polygon fill="none" stroke="black" points="352.5,-540 227.5,-540 227.5,-504 352.5,-504 352.5,-540"/>
<text text-anchor="middle" x="290" y="-518.3" font-family="Hershey-Noailles-help-me" font-size="14.00">7. Vocable Code</text>
</g>
<!-- 6&#45;&gt;7 -->
<g id="edge10" class="edge">
<title>6&#45;&gt;7</title>
<path fill="none" stroke="black" d="M290,-575.7C290,-567.98 290,-558.71 290,-550.11"/>
<polygon fill="black" stroke="black" points="293.5,-550.1 290,-540.1 286.5,-550.1 293.5,-550.1"/>
</g>
<!-- 6&#45;&gt;11 -->
<g id="edge25" class="edge">
<title>6&#45;&gt;11</title>
<path fill="none" stroke="black" d="M258.65,-575.93C244.71,-566.91 229.18,-554.66 219,-540 195.5,-506.15 193,-492.21 193,-451 193,-451 193,-451 193,-377 193,-335.63 208.23,-289.72 219.41,-261.61"/>
<polygon fill="black" stroke="black" points="222.76,-262.67 223.31,-252.09 216.28,-260.02 222.76,-262.67"/>
</g>
<!-- 7&#45;&gt;8 -->
<g id="edge11" class="edge">
<title>7&#45;&gt;8</title>
<path fill="none" stroke="black" d="M323.13,-498.04C334.31,-490.29 346.78,-481.65 357.95,-473.91"/>
<polygon fill="black" stroke="black" points="320.93,-495.3 314.71,-503.88 324.92,-501.06 320.93,-495.3"/>
<polygon fill="black" stroke="black" points="359.97,-476.76 366.2,-468.19 355.98,-471.01 359.97,-476.76"/>
</g>
<!-- 7&#45;&gt;11 -->
<g id="edge26" class="edge">
<title>7&#45;&gt;11</title>
<path fill="none" stroke="black" d="M285.69,-503.96C277.18,-469.91 257.91,-391 245,-324 241.03,-303.39 237.38,-279.94 234.8,-262.29"/>
<polygon fill="black" stroke="black" points="238.22,-261.52 233.34,-252.12 231.3,-262.52 238.22,-261.52"/>
</g>
<!-- 9 -->
<g id="node13" class="node">
<title>9</title>
<polygon fill="none" stroke="black" points="485,-396 297,-396 297,-360 485,-360 485,-396"/>
<text text-anchor="middle" x="391" y="-374.3" font-family="Hershey-Noailles-help-me" font-size="14.00">9. Algorithmic Procedures</text>
</g>
<!-- 8&#45;&gt;9 -->
<g id="edge12" class="edge">
<title>8&#45;&gt;9</title>
<path fill="none" stroke="black" d="M391,-431.7C391,-423.98 391,-414.71 391,-406.11"/>
<polygon fill="black" stroke="black" points="394.5,-406.1 391,-396.1 387.5,-406.1 394.5,-406.1"/>
</g>
<!-- 10 -->
<g id="node14" class="node">
<title>10</title>
<polygon fill="none" stroke="black" points="543.5,-324 388.5,-324 388.5,-288 543.5,-288 543.5,-324"/>
<text text-anchor="middle" x="466" y="-302.3" font-family="Hershey-Noailles-help-me" font-size="14.00">10. Machine Learning</text>
</g>
<!-- 8&#45;&gt;10 -->
<g id="edge32" class="edge">
<title>8&#45;&gt;10</title>
<path fill="none" stroke="black" d="M459.11,-427.28C472.97,-419.63 485.8,-409.45 494,-396 505.96,-376.39 496.08,-351.2 484.89,-332.63"/>
<polygon fill="black" stroke="black" points="457.23,-424.31 449.9,-431.96 460.4,-430.56 457.23,-424.31"/>
<polygon fill="black" stroke="black" points="487.74,-330.59 479.38,-324.09 481.86,-334.39 487.74,-330.59"/>
</g>
<!-- 8&#45;&gt;11 -->
<g id="edge27" class="edge">
<title>8&#45;&gt;11</title>
<path fill="none" stroke="black" d="M340,-431.91C321.53,-423.57 301.82,-411.83 288,-396 270.15,-375.56 248.68,-302.02 237.9,-261.78"/>
<polygon fill="black" stroke="black" points="241.27,-260.86 235.33,-252.09 234.51,-262.65 241.27,-260.86"/>
</g>
<!-- 9&#45;&gt;10 -->
<g id="edge13" class="edge">
<title>9&#45;&gt;10</title>
<path fill="none" stroke="black" d="M409.54,-359.7C418.8,-351.05 430.16,-340.45 440.26,-331.03"/>
<polygon fill="black" stroke="black" points="442.75,-333.49 447.67,-324.1 437.98,-328.37 442.75,-333.49"/>
</g>
<!-- 9&#45;&gt;11 -->
<g id="edge28" class="edge">
<title>9&#45;&gt;11</title>
<path fill="none" stroke="black" d="M371.7,-359.87C343.35,-334.71 290.33,-287.65 258.09,-259.04"/>
<polygon fill="black" stroke="black" points="260.17,-256.21 250.37,-252.19 255.52,-261.44 260.17,-256.21"/>
</g>
<!-- 10&#45;&gt;5 -->
<g id="edge29" class="edge">
<title>10&#45;&gt;5</title>
<path fill="none" stroke="black" d="M484.86,-324.27C509.91,-349.18 551,-397.86 551,-449 551,-523 551,-523 551,-523 551,-564.29 536.17,-610.23 525.28,-638.37"/>
<polygon fill="black" stroke="black" points="521.94,-637.3 521.49,-647.89 528.44,-639.89 521.94,-637.3"/>
</g>
<!-- 10&#45;&gt;11 -->
<g id="edge14" class="edge">
<title>10&#45;&gt;11</title>
<path fill="none" stroke="black" d="M408.81,-287.97C375.41,-278.01 333.08,-265.41 298.1,-254.99"/>
<polygon fill="black" stroke="black" points="299.03,-251.61 288.44,-252.11 297.03,-258.32 299.03,-251.61"/>
</g>
<!-- Bi -->
<g id="node16" class="node">
<title>Bi</title>
<polygon fill="none" stroke="black" points="281,-180 181,-180 181,-144 281,-144 281,-180"/>
<text text-anchor="middle" x="231" y="-158.3" font-family="Hershey-Noailles-help-me" font-size="14.00">Bibliography</text>
</g>
<!-- 11&#45;&gt;Bi -->
<g id="edge15" class="edge">
<title>11&#45;&gt;Bi</title>
<path fill="none" stroke="black" d="M231,-215.7C231,-207.98 231,-198.71 231,-190.11"/>
<polygon fill="black" stroke="black" points="234.5,-190.1 231,-180.1 227.5,-190.1 234.5,-190.1"/>
</g>
<!-- Project -->
<g id="node17" class="node">
<title>Project</title>
<polygon fill="none" stroke="black" points="289,-108 173,-108 173,-72 289,-72 289,-108"/>
<text text-anchor="middle" x="231" y="-86.3" font-family="Hershey-Noailles-help-me" font-size="14.00">List of Projects</text>
</g>
<!-- Bi&#45;&gt;Project -->
<g id="edge16" class="edge">
<title>Bi&#45;&gt;Project</title>
<path fill="none" stroke="black" d="M231,-143.7C231,-135.98 231,-126.71 231,-118.11"/>
<polygon fill="black" stroke="black" points="234.5,-118.1 231,-108.1 227.5,-118.1 234.5,-118.1"/>
</g>
<!-- Ind -->
<g id="node18" class="node">
<title>Ind</title>
<polygon fill="none" stroke="black" points="258,-36 204,-36 204,0 258,0 258,-36"/>
<text text-anchor="middle" x="231" y="-14.3" font-family="Hershey-Noailles-help-me" font-size="14.00">Index</text>
</g>
<!-- Project&#45;&gt;Ind -->
<g id="edge17" class="edge">
<title>Project&#45;&gt;Ind</title>
<path fill="none" stroke="black" d="M231,-71.7C231,-63.98 231,-54.71 231,-46.11"/>
<polygon fill="black" stroke="black" points="234.5,-46.1 231,-36.1 227.5,-46.1 234.5,-46.1"/>
</g>
</g>
</svg>
