<?xml version="1.0" encoding="UTF-8" standalone="no"?>
<!DOCTYPE svg PUBLIC "-//W3C//DTD SVG 1.1//EN"
 "http://www.w3.org/Graphics/SVG/1.1/DTD/svg11.dtd">
<!-- Generated by graphviz version 2.38.0 (20140413.2041)
 -->
<!-- Title: G Pages: 1 -->
<svg width="823pt" height="566pt"
 viewBox="0.00 0.00 823.11 566.22" xmlns="http://www.w3.org/2000/svg" xmlns:xlink="http://www.w3.org/1999/xlink">
<g id="graph0" class="graph" transform="scale(1 1) rotate(0) translate(4 562.22)">
<title>G</title>
<polygon fill="white" stroke="none" points="-4,4 -4,-562.22 819.108,-562.22 819.108,4 -4,4"/>
<!-- GS -->
<g id="node1" class="node"><title>GS</title>
<polygon fill="none" stroke="black" points="735.608,-558.22 594.608,-558.22 594.608,-522.22 735.608,-522.22 735.608,-558.22"/>
<text text-anchor="middle" x="665.108" y="-536.52" font-family="Hershey-Noailles-help-me" font-size="14.00">5. Auto&#45;generator</text>
</g>
<!-- SU -->
<g id="node2" class="node"><title>SU</title>
<ellipse fill="none" stroke="black" cx="550.108" cy="-468.22" rx="42.4939" ry="18"/>
<text text-anchor="middle" x="550.108" y="-464.52" font-family="Hershey-Noailles-help-me" font-size="14.00">setup()</text>
</g>
<!-- GS&#45;&gt;SU -->
<g id="edge1" class="edge"><title>GS&#45;&gt;SU</title>
<path fill="none" stroke="black" d="M636.975,-522.096C620.328,-511.963 599.19,-499.097 581.935,-488.593"/>
<polygon fill="black" stroke="black" points="583.671,-485.553 573.309,-483.343 580.031,-491.532 583.671,-485.553"/>
</g>
<!-- RR -->
<g id="node11" class="node"><title>RR</title>
<ellipse fill="none" stroke="black" cx="665.108" cy="-396.22" rx="87.1846" ry="18"/>
<text text-anchor="middle" x="665.108" y="-392.52" font-family="Hershey-Noailles-help-me" font-size="14.00">Required reading</text>
</g>
<!-- GS&#45;&gt;RR -->
<g id="edge7" class="edge"><title>GS&#45;&gt;RR</title>
<path fill="none" stroke="black" d="M665.108,-511.899C665.108,-486.819 665.108,-449.847 665.108,-424.713"/>
<polygon fill="black" stroke="black" points="661.608,-512.092 665.108,-522.092 668.608,-512.092 661.608,-512.092"/>
<polygon fill="black" stroke="black" points="668.608,-424.41 665.108,-414.41 661.608,-424.41 668.608,-424.41"/>
</g>
<!-- MX -->
<g id="node14" class="node"><title>MX</title>
<ellipse fill="none" stroke="black" cx="597.108" cy="-26.8701" rx="27" ry="18"/>
<text text-anchor="middle" x="597.108" y="-23.1701" font-family="Hershey-Noailles-help-me" font-size="14.00">MX</text>
</g>
<!-- GS&#45;&gt;MX -->
<g id="edge6" class="edge"><title>GS&#45;&gt;MX</title>
<path fill="none" stroke="black" d="M705.305,-522.165C749.737,-500.296 815.108,-457.823 815.108,-397.22 815.108,-397.22 815.108,-397.22 815.108,-196.48 815.108,-104.927 693.314,-56.0371 631.797,-37.1824"/>
<polygon fill="black" stroke="black" points="632.697,-33.7988 622.115,-34.3106 630.707,-40.5098 632.697,-33.7988"/>
</g>
<!-- ST -->
<g id="node3" class="node"><title>ST</title>
<ellipse fill="none" stroke="black" cx="483.108" cy="-396.22" rx="38.9931" ry="18"/>
<text text-anchor="middle" x="483.108" y="-392.52" font-family="Hershey-Noailles-help-me" font-size="14.00">start()</text>
</g>
<!-- SU&#45;&gt;ST -->
<g id="edge2" class="edge"><title>SU&#45;&gt;ST</title>
<path fill="none" stroke="black" d="M534.904,-451.336C526.167,-442.207 515.033,-430.576 505.329,-420.437"/>
<polygon fill="black" stroke="black" points="507.694,-417.846 498.251,-413.042 502.637,-422.686 507.694,-417.846"/>
</g>
<!-- MW -->
<g id="node10" class="node"><title>MW</title>
<ellipse fill="none" stroke="black" cx="512.108" cy="-197.48" rx="43.5923" ry="18"/>
<text text-anchor="middle" x="512.108" y="-193.78" font-family="Hershey-Noailles-help-me" font-size="14.00">While()</text>
</g>
<!-- SU&#45;&gt;MW -->
<g id="edge8" class="edge"><title>SU&#45;&gt;MW</title>
<path fill="none" stroke="black" d="M546.448,-440.163C540.895,-399.281 529.945,-319.329 520.108,-251.48 518.887,-243.062 517.518,-233.899 516.263,-225.595"/>
<polygon fill="black" stroke="black" points="542.99,-440.712 547.803,-450.151 549.927,-439.771 542.99,-440.712"/>
<polygon fill="black" stroke="black" points="519.715,-225.019 514.752,-215.659 512.795,-226.071 519.715,-225.019"/>
</g>
<!-- EiC -->
<g id="node4" class="node"><title>EiC</title>
<ellipse fill="none" stroke="black" cx="388.108" cy="-315.35" rx="96.3333" ry="26.7407"/>
<text text-anchor="middle" x="388.108" y="-319.15" font-family="Hershey-Noailles-help-me" font-size="14.00">Exercise in class: </text>
<text text-anchor="middle" x="388.108" y="-304.15" font-family="Hershey-Noailles-help-me" font-size="14.00">10 PRINT</text>
</g>
<!-- ST&#45;&gt;EiC -->
<g id="edge3" class="edge"><title>ST&#45;&gt;EiC</title>
<path fill="none" stroke="black" d="M464.791,-380.013C453.703,-370.808 439.152,-358.728 425.708,-347.566"/>
<polygon fill="black" stroke="black" points="427.884,-344.824 417.954,-341.129 423.413,-350.21 427.884,-344.824"/>
</g>
<!-- ST&#45;&gt;MW -->
<g id="edge17" class="edge"><title>ST&#45;&gt;MW</title>
<path fill="none" stroke="black" d="M486.59,-378.076C488.632,-367.719 491.181,-354.24 493.108,-342.22 499.573,-301.889 505.476,-254.934 508.932,-225.957"/>
<polygon fill="black" stroke="black" points="512.436,-226.125 510.133,-215.783 505.485,-225.304 512.436,-226.125"/>
</g>
<!-- LA -->
<g id="node5" class="node"><title>LA</title>
<ellipse fill="none" stroke="black" cx="361.108" cy="-197.48" rx="73.387" ry="18"/>
<text text-anchor="middle" x="361.108" y="-193.78" font-family="Hershey-Noailles-help-me" font-size="14.00">Langton&#39;s Ant</text>
</g>
<!-- EiC&#45;&gt;LA -->
<g id="edge4" class="edge"><title>EiC&#45;&gt;LA</title>
<path fill="none" stroke="black" d="M382.048,-288.347C377.693,-269.656 371.835,-244.517 367.422,-225.58"/>
<polygon fill="black" stroke="black" points="370.817,-224.723 365.138,-215.778 363.999,-226.312 370.817,-224.723"/>
</g>
<!-- LA&#45;&gt;SU -->
<g id="edge5" class="edge"><title>LA&#45;&gt;SU</title>
<path fill="none" stroke="black" d="M332.695,-221.691C300.908,-250.566 257.074,-301.082 283.108,-342.22 330.748,-417.501 437.037,-448.198 500.198,-460.137"/>
<polygon fill="black" stroke="black" points="335.283,-224.075 340.467,-214.835 330.652,-218.826 335.283,-224.075"/>
<polygon fill="black" stroke="black" points="499.866,-463.634 510.328,-461.961 501.107,-456.744 499.866,-463.634"/>
</g>
<!-- SC -->
<g id="node6" class="node"><title>SC</title>
<ellipse fill="none" stroke="black" cx="176.108" cy="-116.61" rx="86.9483" ry="26.7407"/>
<text text-anchor="middle" x="176.108" y="-120.41" font-family="Hershey-Noailles-help-me" font-size="14.00">Source code</text>
<text text-anchor="middle" x="176.108" y="-105.41" font-family="Hershey-Noailles-help-me" font-size="14.00">(Langton&#39;s Ant)</text>
</g>
<!-- LA&#45;&gt;SC -->
<g id="edge12" class="edge"><title>LA&#45;&gt;SC</title>
<path fill="none" stroke="black" d="M325.875,-181.46C300.334,-170.571 265.188,-155.587 235.362,-142.872"/>
<polygon fill="black" stroke="black" points="236.455,-139.533 225.884,-138.831 233.71,-145.972 236.455,-139.533"/>
</g>
<!-- RLA -->
<g id="node7" class="node"><title>RLA</title>
<ellipse fill="none" stroke="black" cx="361.108" cy="-116.61" rx="79.8062" ry="26.7407"/>
<text text-anchor="middle" x="361.108" y="-120.41" font-family="Hershey-Noailles-help-me" font-size="14.00">Reading </text>
<text text-anchor="middle" x="361.108" y="-105.41" font-family="Hershey-Noailles-help-me" font-size="14.00">Langton&#39;s Ant</text>
</g>
<!-- LA&#45;&gt;RLA -->
<g id="edge13" class="edge"><title>LA&#45;&gt;RLA</title>
<path fill="none" stroke="black" d="M361.108,-179.367C361.108,-171.877 361.108,-162.786 361.108,-153.908"/>
<polygon fill="black" stroke="black" points="364.608,-153.693 361.108,-143.693 357.608,-153.693 364.608,-153.693"/>
</g>
<!-- LA&#45;&gt;MW -->
<g id="edge20" class="edge"><title>LA&#45;&gt;MW</title>
<path fill="none" stroke="black" d="M434.838,-197.48C442.603,-197.48 450.368,-197.48 458.134,-197.48"/>
<polygon fill="black" stroke="black" points="458.342,-200.98 468.342,-197.48 458.342,-193.98 458.342,-200.98"/>
</g>
<!-- SC&#45;&gt;RLA -->
<g id="edge9" class="edge"><title>SC&#45;&gt;RLA</title>
<path fill="none" stroke="black" d="M263.188,-116.61C269.18,-116.61 275.173,-116.61 281.165,-116.61"/>
</g>
<!-- AL -->
<g id="node8" class="node"><title>AL</title>
<ellipse fill="none" stroke="black" cx="130.108" cy="-26.8701" rx="130.215" ry="26.7407"/>
<text text-anchor="middle" x="130.108" y="-30.6701" font-family="Hershey-Noailles-help-me" font-size="14.00">Two&#45;dimensional arrays </text>
<text text-anchor="middle" x="130.108" y="-15.6701" font-family="Hershey-Noailles-help-me" font-size="14.00">&amp; nested for&#45;loops</text>
</g>
<!-- SC&#45;&gt;AL -->
<g id="edge16" class="edge"><title>SC&#45;&gt;AL</title>
<path fill="none" stroke="black" d="M162.555,-89.7598C158.149,-81.356 153.183,-71.8844 148.486,-62.9246"/>
<polygon fill="black" stroke="black" points="151.466,-61.0703 143.722,-53.8389 145.266,-64.3207 151.466,-61.0703"/>
</g>
<!-- EiC2 -->
<g id="node9" class="node"><title>EiC2</title>
<ellipse fill="none" stroke="black" cx="361.108" cy="-26.8701" rx="82.5854" ry="18"/>
<text text-anchor="middle" x="361.108" y="-23.1701" font-family="Hershey-Noailles-help-me" font-size="14.00">Exercise in class</text>
</g>
<!-- SC&#45;&gt;EiC2 -->
<g id="edge14" class="edge"><title>SC&#45;&gt;EiC2</title>
<path fill="none" stroke="black" d="M222.314,-93.696C251.929,-79.6503 290.074,-61.5591 318.879,-47.898"/>
<polygon fill="black" stroke="black" points="320.728,-50.8949 328.263,-43.4472 317.728,-44.5701 320.728,-50.8949"/>
</g>
<!-- RLA&#45;&gt;EiC2 -->
<g id="edge15" class="edge"><title>RLA&#45;&gt;EiC2</title>
<path fill="none" stroke="black" d="M361.108,-89.2852C361.108,-78.5336 361.108,-66.0986 361.108,-55.2416"/>
<polygon fill="black" stroke="black" points="364.608,-55.0314 361.108,-45.0314 357.608,-55.0314 364.608,-55.0314"/>
</g>
<!-- Notes -->
<g id="node13" class="node"><title>Notes</title>
<ellipse fill="none" stroke="black" cx="495.108" cy="-116.61" rx="36.2938" ry="18"/>
<text text-anchor="middle" x="495.108" y="-112.91" font-family="Hershey-Noailles-help-me" font-size="14.00">Notes</text>
</g>
<!-- MW&#45;&gt;Notes -->
<g id="edge18" class="edge"><title>MW&#45;&gt;Notes</title>
<path fill="none" stroke="black" d="M508.419,-179.367C506.236,-169.238 503.421,-156.18 500.943,-144.682"/>
<polygon fill="black" stroke="black" points="504.318,-143.728 498.789,-134.69 497.475,-145.203 504.318,-143.728"/>
</g>
<!-- MW&#45;&gt;MX -->
<g id="edge19" class="edge"><title>MW&#45;&gt;MX</title>
<path fill="none" stroke="black" d="M521.055,-179.833C526.612,-169.423 533.861,-155.715 540.108,-143.48 555.778,-112.787 573.222,-77.1846 584.635,-53.6869"/>
<polygon fill="black" stroke="black" points="587.921,-54.9322 589.134,-44.4071 581.622,-51.8783 587.921,-54.9322"/>
</g>
<!-- RR&#45;&gt;SU -->
<g id="edge11" class="edge"><title>RR&#45;&gt;SU</title>
<path fill="none" stroke="black" d="M638.241,-413.574C621.492,-423.769 599.845,-436.945 582.197,-447.688"/>
<polygon fill="black" stroke="black" points="580.102,-444.866 573.38,-453.055 583.741,-450.845 580.102,-444.866"/>
</g>
<!-- FR -->
<g id="node12" class="node"><title>FR</title>
<ellipse fill="none" stroke="black" cx="706.108" cy="-315.35" rx="81.4863" ry="18"/>
<text text-anchor="middle" x="706.108" y="-311.65" font-family="Hershey-Noailles-help-me" font-size="14.00">Further reading</text>
</g>
<!-- RR&#45;&gt;FR -->
<g id="edge21" class="edge"><title>RR&#45;&gt;FR</title>
<path fill="none" stroke="black" d="M674.004,-378.107C679.43,-367.668 686.474,-354.118 692.581,-342.371"/>
<polygon fill="black" stroke="black" points="695.722,-343.918 697.229,-333.431 689.511,-340.689 695.722,-343.918"/>
</g>
<!-- RR&#45;&gt;MX -->
<g id="edge10" class="edge"><title>RR&#45;&gt;MX</title>
<path fill="none" stroke="black" d="M645.154,-378.487C634.967,-368.888 623.248,-356.022 616.108,-342.22 597.375,-306.01 597.108,-293.249 597.108,-252.48 597.108,-252.48 597.108,-252.48 597.108,-196.48 597.108,-146.774 597.108,-88.8252 597.108,-55.4375"/>
<polygon fill="black" stroke="black" points="600.608,-55.1037 597.108,-45.1037 593.608,-55.1037 600.608,-55.1037"/>
</g>
</g>
</svg>
