<?xml version="1.0" encoding="UTF-8" standalone="no"?>
<!DOCTYPE svg PUBLIC "-//W3C//DTD SVG 1.1//EN"
 "http://www.w3.org/Graphics/SVG/1.1/DTD/svg11.dtd">
<!-- Generated by graphviz version 2.38.0 (20140413.2041)
 -->
<!-- Title: G Pages: 1 -->
<svg width="712pt" height="566pt"
 viewBox="0.00 0.00 712.19 566.22" xmlns="http://www.w3.org/2000/svg" xmlns:xlink="http://www.w3.org/1999/xlink">
<g id="graph0" class="graph" transform="scale(1 1) rotate(0) translate(4 562.22)">
<title>G</title>
<polygon fill="white" stroke="none" points="-4,4 -4,-562.22 708.187,-562.22 708.187,4 -4,4"/>
<!-- GS -->
<g id="node1" class="node"><title>GS</title>
<ellipse fill="none" stroke="grey" stroke-width="2" cx="570.187" cy="-540.22" rx="90.9839" ry="18"/>
<text text-anchor="middle" x="570.187" y="-536.52" font-family="Times,serif" font-size="14.00">Ch.5 &#45; Auto Generator</text>
</g>
<!-- SU -->
<g id="node2" class="node"><title>SU</title>
<ellipse fill="none" stroke="black" cx="471.187" cy="-468.22" rx="35.194" ry="18"/>
<text text-anchor="middle" x="471.187" y="-464.52" font-family="Times,serif" font-size="14.00">setup()</text>
</g>
<!-- GS&#45;&gt;SU -->
<g id="edge1" class="edge"><title>GS&#45;&gt;SU</title>
<path fill="none" stroke="black" d="M546.976,-522.808C532.739,-512.742 514.415,-499.785 499.351,-489.134"/>
<polygon fill="black" stroke="black" points="501.1,-486.084 490.914,-483.168 497.058,-491.8 501.1,-486.084"/>
</g>
<!-- RR -->
<g id="node11" class="node"><title>RR</title>
<ellipse fill="none" stroke="black" cx="570.187" cy="-396.22" rx="71.4873" ry="18"/>
<text text-anchor="middle" x="570.187" y="-392.52" font-family="Times,serif" font-size="14.00">Required reading</text>
</g>
<!-- GS&#45;&gt;RR -->
<g id="edge7" class="edge"><title>GS&#45;&gt;RR</title>
<path fill="none" stroke="black" d="M570.187,-511.899C570.187,-486.819 570.187,-449.847 570.187,-424.713"/>
<polygon fill="black" stroke="black" points="566.687,-512.092 570.187,-522.092 573.687,-512.092 566.687,-512.092"/>
<polygon fill="black" stroke="black" points="573.687,-424.41 570.187,-414.41 566.687,-424.41 573.687,-424.41"/>
</g>
<!-- MX -->
<g id="node14" class="node"><title>MX</title>
<ellipse fill="none" stroke="black" cx="516.187" cy="-26.8701" rx="27" ry="18"/>
<text text-anchor="middle" x="516.187" y="-23.1701" font-family="Times,serif" font-size="14.00">MX</text>
</g>
<!-- GS&#45;&gt;MX -->
<g id="edge6" class="edge"><title>GS&#45;&gt;MX</title>
<path fill="none" stroke="black" d="M602.284,-523.193C641.926,-500.86 704.187,-456.37 704.187,-397.22 704.187,-397.22 704.187,-397.22 704.187,-196.48 704.187,-114.139 603.002,-61.8652 549.097,-39.8595"/>
<polygon fill="black" stroke="black" points="550.204,-36.5331 539.618,-36.1023 547.624,-43.0406 550.204,-36.5331"/>
</g>
<!-- ST -->
<g id="node3" class="node"><title>ST</title>
<ellipse fill="none" stroke="black" cx="411.187" cy="-396.22" rx="31.6951" ry="18"/>
<text text-anchor="middle" x="411.187" y="-392.52" font-family="Times,serif" font-size="14.00">start()</text>
</g>
<!-- SU&#45;&gt;ST -->
<g id="edge2" class="edge"><title>SU&#45;&gt;ST</title>
<path fill="none" stroke="black" d="M457.572,-451.336C449.824,-442.297 439.973,-430.803 431.343,-420.736"/>
<polygon fill="black" stroke="black" points="433.914,-418.356 424.748,-413.042 428.599,-422.912 433.914,-418.356"/>
</g>
<!-- MW -->
<g id="node10" class="node"><title>MW</title>
<ellipse fill="none" stroke="black" cx="433.187" cy="-197.48" rx="38.1938" ry="18"/>
<text text-anchor="middle" x="433.187" y="-193.78" font-family="Times,serif" font-size="14.00">While()</text>
</g>
<!-- SU&#45;&gt;MW -->
<g id="edge8" class="edge"><title>SU&#45;&gt;MW</title>
<path fill="none" stroke="black" d="M467.852,-440.135C462.744,-399.215 452.488,-319.217 442.187,-251.48 440.905,-243.046 439.391,-233.878 437.974,-225.575"/>
<polygon fill="black" stroke="black" points="464.388,-440.64 469.094,-450.132 471.334,-439.776 464.388,-440.64"/>
<polygon fill="black" stroke="black" points="441.409,-224.899 436.256,-215.642 434.511,-226.092 441.409,-224.899"/>
</g>
<!-- EiC -->
<g id="node4" class="node"><title>EiC</title>
<ellipse fill="none" stroke="black" cx="324.187" cy="-315.35" rx="81.135" ry="26.7407"/>
<text text-anchor="middle" x="324.187" y="-319.15" font-family="Times,serif" font-size="14.00">Exercise in class: </text>
<text text-anchor="middle" x="324.187" y="-304.15" font-family="Times,serif" font-size="14.00">10 PRINT</text>
</g>
<!-- ST&#45;&gt;EiC -->
<g id="edge3" class="edge"><title>ST&#45;&gt;EiC</title>
<path fill="none" stroke="black" d="M394.823,-380.385C384.633,-371.147 371.134,-358.91 358.669,-347.61"/>
<polygon fill="black" stroke="black" points="360.839,-344.853 351.08,-340.73 356.138,-350.039 360.839,-344.853"/>
</g>
<!-- ST&#45;&gt;MW -->
<g id="edge17" class="edge"><title>ST&#45;&gt;MW</title>
<path fill="none" stroke="black" d="M413.101,-378.105C416.921,-343.949 425.517,-267.075 430.128,-225.841"/>
<polygon fill="black" stroke="black" points="433.629,-226.023 431.262,-215.696 426.673,-225.245 433.629,-226.023"/>
</g>
<!-- LA -->
<g id="node5" class="node"><title>LA</title>
<ellipse fill="none" stroke="black" cx="304.187" cy="-197.48" rx="60.3893" ry="18"/>
<text text-anchor="middle" x="304.187" y="-193.78" font-family="Times,serif" font-size="14.00">Langton&#39;s Ant</text>
</g>
<!-- EiC&#45;&gt;LA -->
<g id="edge4" class="edge"><title>EiC&#45;&gt;LA</title>
<path fill="none" stroke="black" d="M319.699,-288.347C316.488,-269.742 312.174,-244.749 308.91,-225.844"/>
<polygon fill="black" stroke="black" points="312.323,-225.037 307.173,-215.778 305.425,-226.228 312.323,-225.037"/>
</g>
<!-- LA&#45;&gt;SU -->
<g id="edge5" class="edge"><title>LA&#45;&gt;SU</title>
<path fill="none" stroke="black" d="M277.933,-222.18C249.044,-251.236 209.742,-301.619 234.187,-342.22 276.428,-412.377 372.648,-445.156 428.632,-458.787"/>
<polygon fill="black" stroke="black" points="280.658,-224.411 285.375,-214.924 275.772,-219.399 280.658,-224.411"/>
<polygon fill="black" stroke="black" points="428.061,-462.248 438.595,-461.115 429.654,-455.432 428.061,-462.248"/>
</g>
<!-- SC -->
<g id="node6" class="node"><title>SC</title>
<ellipse fill="none" stroke="black" cx="148.187" cy="-116.61" rx="72.25" ry="26.7407"/>
<text text-anchor="middle" x="148.187" y="-120.41" font-family="Times,serif" font-size="14.00">Source code</text>
<text text-anchor="middle" x="148.187" y="-105.41" font-family="Times,serif" font-size="14.00">(Langton&#39;s Ant)</text>
</g>
<!-- LA&#45;&gt;SC -->
<g id="edge12" class="edge"><title>LA&#45;&gt;SC</title>
<path fill="none" stroke="black" d="M274.845,-181.645C253.464,-170.836 223.961,-155.92 198.809,-143.203"/>
<polygon fill="black" stroke="black" points="200.265,-140.018 189.762,-138.629 197.107,-146.265 200.265,-140.018"/>
</g>
<!-- RLA -->
<g id="node7" class="node"><title>RLA</title>
<ellipse fill="none" stroke="black" cx="304.187" cy="-116.61" rx="65.5227" ry="26.7407"/>
<text text-anchor="middle" x="304.187" y="-120.41" font-family="Times,serif" font-size="14.00">Reading </text>
<text text-anchor="middle" x="304.187" y="-105.41" font-family="Times,serif" font-size="14.00">Langton&#39;s Ant</text>
</g>
<!-- LA&#45;&gt;RLA -->
<g id="edge13" class="edge"><title>LA&#45;&gt;RLA</title>
<path fill="none" stroke="black" d="M304.187,-179.367C304.187,-171.877 304.187,-162.786 304.187,-153.908"/>
<polygon fill="black" stroke="black" points="307.687,-153.693 304.187,-143.693 300.687,-153.693 307.687,-153.693"/>
</g>
<!-- LA&#45;&gt;MW -->
<g id="edge20" class="edge"><title>LA&#45;&gt;MW</title>
<path fill="none" stroke="black" d="M364.656,-197.48C371.215,-197.48 377.773,-197.48 384.332,-197.48"/>
<polygon fill="black" stroke="black" points="384.639,-200.98 394.639,-197.48 384.638,-193.98 384.639,-200.98"/>
</g>
<!-- SC&#45;&gt;RLA -->
<g id="edge9" class="edge"><title>SC&#45;&gt;RLA</title>
<path fill="none" stroke="black" d="M220.398,-116.61C226.399,-116.61 232.399,-116.61 238.4,-116.61"/>
</g>
<!-- AL -->
<g id="node8" class="node"><title>AL</title>
<ellipse fill="none" stroke="black" cx="108.187" cy="-26.8701" rx="108.375" ry="26.7407"/>
<text text-anchor="middle" x="108.187" y="-30.6701" font-family="Times,serif" font-size="14.00">Two&#45;dimensional arrays </text>
<text text-anchor="middle" x="108.187" y="-15.6701" font-family="Times,serif" font-size="14.00">&amp; nested for&#45;loops</text>
</g>
<!-- SC&#45;&gt;AL -->
<g id="edge16" class="edge"><title>SC&#45;&gt;AL</title>
<path fill="none" stroke="black" d="M136.402,-89.7598C132.611,-81.4445 128.344,-72.0837 124.297,-63.2077"/>
<polygon fill="black" stroke="black" points="127.359,-61.486 120.026,-53.8389 120.99,-64.3898 127.359,-61.486"/>
</g>
<!-- EiC2 -->
<g id="node9" class="node"><title>EiC2</title>
<ellipse fill="none" stroke="black" cx="304.187" cy="-26.8701" rx="69.5877" ry="18"/>
<text text-anchor="middle" x="304.187" y="-23.1701" font-family="Times,serif" font-size="14.00">Exercise in class</text>
</g>
<!-- SC&#45;&gt;EiC2 -->
<g id="edge14" class="edge"><title>SC&#45;&gt;EiC2</title>
<path fill="none" stroke="black" d="M187.15,-93.696C211.797,-79.8335 243.451,-62.0303 267.624,-48.4348"/>
<polygon fill="black" stroke="black" points="269.491,-51.4001 276.491,-43.4472 266.06,-45.2989 269.491,-51.4001"/>
</g>
<!-- RLA&#45;&gt;EiC2 -->
<g id="edge15" class="edge"><title>RLA&#45;&gt;EiC2</title>
<path fill="none" stroke="black" d="M304.187,-89.2852C304.187,-78.5336 304.187,-66.0986 304.187,-55.2416"/>
<polygon fill="black" stroke="black" points="307.687,-55.0314 304.187,-45.0314 300.687,-55.0314 307.687,-55.0314"/>
</g>
<!-- Notes -->
<g id="node13" class="node"><title>Notes</title>
<ellipse fill="none" stroke="black" cx="419.187" cy="-116.61" rx="31.3957" ry="18"/>
<text text-anchor="middle" x="419.187" y="-112.91" font-family="Times,serif" font-size="14.00">Notes</text>
</g>
<!-- MW&#45;&gt;Notes -->
<g id="edge18" class="edge"><title>MW&#45;&gt;Notes</title>
<path fill="none" stroke="black" d="M430.15,-179.367C428.352,-169.238 426.034,-156.18 423.993,-144.682"/>
<polygon fill="black" stroke="black" points="427.413,-143.925 422.219,-134.69 420.521,-145.148 427.413,-143.925"/>
</g>
<!-- MW&#45;&gt;MX -->
<g id="edge19" class="edge"><title>MW&#45;&gt;MX</title>
<path fill="none" stroke="black" d="M441.449,-179.697C456.066,-150.003 486.56,-88.0562 503.736,-53.1643"/>
<polygon fill="black" stroke="black" points="506.927,-54.6074 508.203,-44.0897 500.646,-51.5158 506.927,-54.6074"/>
</g>
<!-- RR&#45;&gt;SU -->
<g id="edge11" class="edge"><title>RR&#45;&gt;SU</title>
<path fill="none" stroke="black" d="M547.413,-413.324C533.229,-423.353 514.863,-436.338 499.714,-447.05"/>
<polygon fill="black" stroke="black" points="497.366,-444.424 491.221,-453.055 501.407,-450.139 497.366,-444.424"/>
</g>
<!-- FR -->
<g id="node12" class="node"><title>FR</title>
<ellipse fill="none" stroke="black" cx="610.187" cy="-315.35" rx="65.7887" ry="18"/>
<text text-anchor="middle" x="610.187" y="-311.65" font-family="Times,serif" font-size="14.00">Further reading</text>
</g>
<!-- RR&#45;&gt;FR -->
<g id="edge21" class="edge"><title>RR&#45;&gt;FR</title>
<path fill="none" stroke="black" d="M578.867,-378.107C584.161,-367.668 591.033,-354.118 596.991,-342.371"/>
<polygon fill="black" stroke="black" points="600.123,-343.932 601.525,-333.431 593.88,-340.766 600.123,-343.932"/>
</g>
<!-- RR&#45;&gt;MX -->
<g id="edge10" class="edge"><title>RR&#45;&gt;MX</title>
<path fill="none" stroke="black" d="M556.772,-378.486C549.383,-368.491 540.633,-355.241 535.187,-342.22 519.456,-304.609 516.187,-293.249 516.187,-252.48 516.187,-252.48 516.187,-252.48 516.187,-196.48 516.187,-146.774 516.187,-88.8252 516.187,-55.4375"/>
<polygon fill="black" stroke="black" points="519.687,-55.1037 516.187,-45.1037 512.687,-55.1037 519.687,-55.1037"/>
</g>
</g>
</svg>
