<?xml version="1.0" encoding="UTF-8" standalone="no"?>
<!DOCTYPE svg PUBLIC "-//W3C//DTD SVG 1.1//EN"
 "http://www.w3.org/Graphics/SVG/1.1/DTD/svg11.dtd">
<!-- Generated by graphviz version 2.38.0 (20140413.2041)
 -->
<!-- Title: G Pages: 1 -->
<svg width="599pt" height="547pt"
 viewBox="0.00 0.00 599.18 546.96" xmlns="http://www.w3.org/2000/svg" xmlns:xlink="http://www.w3.org/1999/xlink">
<g id="graph0" class="graph" transform="scale(1 1) rotate(0) translate(4 542.96)">
<title>G</title>
<polygon fill="white" stroke="none" points="-4,4 -4,-542.96 595.182,-542.96 595.182,4 -4,4"/>
<!-- GS -->
<g id="node1" class="node"><title>GS</title>
<ellipse fill="none" stroke="grey" stroke-width="2" cx="393.187" cy="-520.96" rx="90.9839" ry="18"/>
<text text-anchor="middle" x="393.187" y="-517.26" font-family="Times,serif" font-size="14.00">Ch.5 &#45; Auto Generator</text>
</g>
<!-- SU -->
<g id="node2" class="node"><title>SU</title>
<ellipse fill="none" stroke="black" cx="294.187" cy="-376.96" rx="35.194" ry="18"/>
<text text-anchor="middle" x="294.187" y="-373.26" font-family="Times,serif" font-size="14.00">setup()</text>
</g>
<!-- GS&#45;&gt;SU -->
<g id="edge1" class="edge"><title>GS&#45;&gt;SU</title>
<path fill="none" stroke="black" d="M357.75,-504.301C341.815,-495.525 324.162,-483.07 313.187,-466.96 300.786,-448.756 296.257,-423.984 294.704,-405.197"/>
<polygon fill="black" stroke="black" points="298.196,-404.963 294.106,-395.189 291.209,-405.38 298.196,-404.963"/>
</g>
<!-- MX -->
<g id="node11" class="node"><title>MX</title>
<ellipse fill="none" stroke="black" cx="492.187" cy="-206.35" rx="98.9899" ry="26.7407"/>
<text text-anchor="middle" x="492.187" y="-210.15" font-family="Times,serif" font-size="14.00">MiniX 5: </text>
<text text-anchor="middle" x="492.187" y="-195.15" font-family="Times,serif" font-size="14.00">A Generative Program</text>
</g>
<!-- GS&#45;&gt;MX -->
<g id="edge6" class="edge"><title>GS&#45;&gt;MX</title>
<path fill="none" stroke="black" d="M430.455,-504.487C446.386,-495.872 463.512,-483.497 473.187,-466.96 514.373,-396.567 506.933,-296.405 498.957,-243.429"/>
<polygon fill="black" stroke="black" points="502.402,-242.809 497.369,-233.486 495.49,-243.913 502.402,-242.809"/>
</g>
<!-- RR -->
<g id="node12" class="node"><title>RR</title>
<ellipse fill="none" stroke="black" cx="393.187" cy="-448.96" rx="71.4873" ry="18"/>
<text text-anchor="middle" x="393.187" y="-445.26" font-family="Times,serif" font-size="14.00">Required reading</text>
</g>
<!-- GS&#45;&gt;RR -->
<g id="edge5" class="edge"><title>GS&#45;&gt;RR</title>
<path fill="none" stroke="black" d="M393.187,-502.657C393.187,-494.943 393.187,-485.673 393.187,-477.073"/>
<polygon fill="black" stroke="black" points="396.687,-477.065 393.187,-467.065 389.687,-477.065 396.687,-477.065"/>
</g>
<!-- ST -->
<g id="node3" class="node"><title>ST</title>
<ellipse fill="none" stroke="black" cx="379.187" cy="-376.96" rx="31.6951" ry="18"/>
<text text-anchor="middle" x="379.187" y="-373.26" font-family="Times,serif" font-size="14.00">start()</text>
</g>
<!-- SU&#45;&gt;ST -->
<g id="edge2" class="edge"><title>SU&#45;&gt;ST</title>
<path fill="none" stroke="black" d="M329.383,-376.96C331.993,-376.96 334.603,-376.96 337.213,-376.96"/>
<polygon fill="black" stroke="black" points="337.281,-380.461 347.281,-376.96 337.281,-373.461 337.281,-380.461"/>
</g>
<!-- EiC -->
<g id="node4" class="node"><title>EiC</title>
<ellipse fill="none" stroke="black" cx="238.187" cy="-296.09" rx="81.135" ry="26.7407"/>
<text text-anchor="middle" x="238.187" y="-299.89" font-family="Times,serif" font-size="14.00">Exercise in class: </text>
<text text-anchor="middle" x="238.187" y="-284.89" font-family="Times,serif" font-size="14.00">10 PRINT</text>
</g>
<!-- ST&#45;&gt;EiC -->
<g id="edge3" class="edge"><title>ST&#45;&gt;EiC</title>
<path fill="none" stroke="black" d="M357.156,-363.637C338.475,-353.188 310.994,-337.816 287.15,-324.478"/>
<polygon fill="black" stroke="black" points="288.651,-321.308 278.215,-319.48 285.234,-327.417 288.651,-321.308"/>
</g>
<!-- MW -->
<g id="node10" class="node"><title>MW</title>
<ellipse fill="none" stroke="black" cx="379.187" cy="-296.09" rx="38.1938" ry="18"/>
<text text-anchor="middle" x="379.187" y="-292.39" font-family="Times,serif" font-size="14.00">While()</text>
</g>
<!-- ST&#45;&gt;MW -->
<g id="edge14" class="edge"><title>ST&#45;&gt;MW</title>
<path fill="none" stroke="black" d="M379.187,-358.847C379.187,-348.822 379.187,-335.927 379.187,-324.515"/>
<polygon fill="black" stroke="black" points="382.687,-324.171 379.187,-314.171 375.687,-324.171 382.687,-324.171"/>
</g>
<!-- LA -->
<g id="node5" class="node"><title>LA</title>
<ellipse fill="none" stroke="black" cx="234.187" cy="-206.35" rx="60.3893" ry="18"/>
<text text-anchor="middle" x="234.187" y="-202.65" font-family="Times,serif" font-size="14.00">Langton&#39;s Ant</text>
</g>
<!-- EiC&#45;&gt;LA -->
<g id="edge4" class="edge"><title>EiC&#45;&gt;LA</title>
<path fill="none" stroke="black" d="M236.987,-268.765C236.497,-258.014 235.93,-245.579 235.435,-234.722"/>
<polygon fill="black" stroke="black" points="238.922,-234.342 234.97,-224.512 231.929,-234.661 238.922,-234.342"/>
</g>
<!-- SC -->
<g id="node6" class="node"><title>SC</title>
<ellipse fill="none" stroke="black" cx="164.187" cy="-116.61" rx="55.7903" ry="18"/>
<text text-anchor="middle" x="164.187" y="-112.91" font-family="Times,serif" font-size="14.00">Source Code</text>
</g>
<!-- LA&#45;&gt;SC -->
<g id="edge9" class="edge"><title>LA&#45;&gt;SC</title>
<path fill="none" stroke="black" d="M220.691,-188.433C210.262,-175.362 195.676,-157.079 183.936,-142.364"/>
<polygon fill="black" stroke="black" points="186.378,-139.812 177.405,-134.178 180.906,-144.178 186.378,-139.812"/>
</g>
<!-- RLA -->
<g id="node7" class="node"><title>RLA</title>
<ellipse fill="none" stroke="black" cx="304.187" cy="-116.61" rx="65.5227" ry="26.7407"/>
<text text-anchor="middle" x="304.187" y="-120.41" font-family="Times,serif" font-size="14.00">Reading </text>
<text text-anchor="middle" x="304.187" y="-105.41" font-family="Times,serif" font-size="14.00">Langton&#39;s Ant</text>
</g>
<!-- LA&#45;&gt;RLA -->
<g id="edge10" class="edge"><title>LA&#45;&gt;RLA</title>
<path fill="none" stroke="black" d="M247.684,-188.433C256.304,-177.629 267.765,-163.263 278.111,-150.295"/>
<polygon fill="black" stroke="black" points="280.873,-152.445 284.374,-142.445 275.401,-148.079 280.873,-152.445"/>
</g>
<!-- AL -->
<g id="node8" class="node"><title>AL</title>
<ellipse fill="none" stroke="black" cx="108.187" cy="-26.8701" rx="108.375" ry="26.7407"/>
<text text-anchor="middle" x="108.187" y="-30.6701" font-family="Times,serif" font-size="14.00">Two&#45;dimensional arrays </text>
<text text-anchor="middle" x="108.187" y="-15.6701" font-family="Times,serif" font-size="14.00">&amp; nested for&#45;loops</text>
</g>
<!-- SC&#45;&gt;AL -->
<g id="edge13" class="edge"><title>SC&#45;&gt;AL</title>
<path fill="none" stroke="black" d="M153.39,-98.693C146.779,-88.3351 138.079,-74.7045 130.079,-62.1696"/>
<polygon fill="black" stroke="black" points="133.017,-60.2668 124.686,-53.7204 127.116,-64.0329 133.017,-60.2668"/>
</g>
<!-- EiC2 -->
<g id="node9" class="node"><title>EiC2</title>
<ellipse fill="none" stroke="black" cx="304.187" cy="-26.8701" rx="69.5877" ry="18"/>
<text text-anchor="middle" x="304.187" y="-23.1701" font-family="Times,serif" font-size="14.00">Exercise in class</text>
</g>
<!-- SC&#45;&gt;EiC2 -->
<g id="edge11" class="edge"><title>SC&#45;&gt;EiC2</title>
<path fill="none" stroke="black" d="M188.573,-100.327C211.139,-86.1849 244.906,-65.0228 270.129,-49.2151"/>
<polygon fill="black" stroke="black" points="272.047,-52.1435 278.662,-43.8673 268.33,-46.2121 272.047,-52.1435"/>
</g>
<!-- RLA&#45;&gt;EiC2 -->
<g id="edge12" class="edge"><title>RLA&#45;&gt;EiC2</title>
<path fill="none" stroke="black" d="M304.187,-89.2852C304.187,-78.5336 304.187,-66.0986 304.187,-55.2416"/>
<polygon fill="black" stroke="black" points="307.687,-55.0314 304.187,-45.0314 300.687,-55.0314 307.687,-55.0314"/>
</g>
<!-- MW&#45;&gt;MX -->
<g id="edge16" class="edge"><title>MW&#45;&gt;MX</title>
<path fill="none" stroke="black" d="M398.101,-280.405C412.812,-268.982 433.744,-252.729 452.131,-238.452"/>
<polygon fill="black" stroke="black" points="454.617,-240.954 460.369,-232.056 450.324,-235.425 454.617,-240.954"/>
</g>
<!-- Notes -->
<g id="node13" class="node"><title>Notes</title>
<ellipse fill="none" stroke="black" cx="344.187" cy="-206.35" rx="31.3957" ry="18"/>
<text text-anchor="middle" x="344.187" y="-202.65" font-family="Times,serif" font-size="14.00">Notes</text>
</g>
<!-- MW&#45;&gt;Notes -->
<g id="edge15" class="edge"><title>MW&#45;&gt;Notes</title>
<path fill="none" stroke="black" d="M372.439,-278.173C367.403,-265.55 360.429,-248.065 354.669,-233.627"/>
<polygon fill="black" stroke="black" points="357.871,-232.207 350.915,-224.216 351.369,-234.801 357.871,-232.207"/>
</g>
<!-- RR&#45;&gt;SU -->
<g id="edge8" class="edge"><title>RR&#45;&gt;SU</title>
<path fill="none" stroke="black" d="M370.226,-431.725C355.997,-421.664 337.614,-408.666 322.487,-397.97"/>
<polygon fill="black" stroke="black" points="324.199,-394.894 314.013,-391.979 320.158,-400.61 324.199,-394.894"/>
</g>
<!-- RR&#45;&gt;MX -->
<g id="edge7" class="edge"><title>RR&#45;&gt;MX</title>
<path fill="none" stroke="black" d="M402.403,-430.995C407.851,-420.7 414.728,-407.225 420.187,-394.96 443.37,-342.882 466.291,-280.853 479.84,-242.792"/>
<polygon fill="black" stroke="black" points="483.203,-243.782 483.242,-233.187 476.604,-241.445 483.203,-243.782"/>
</g>
</g>
</svg>
