<?xml version="1.0" encoding="UTF-8" standalone="no"?>
<!DOCTYPE svg PUBLIC "-//W3C//DTD SVG 1.1//EN"
 "http://www.w3.org/Graphics/SVG/1.1/DTD/svg11.dtd">
<!-- Generated by graphviz version 2.38.0 (20140413.2041)
 -->
<!-- Title: G Pages: 1 -->
<svg width="727pt" height="566pt"
 viewBox="0.00 0.00 727.18 566.22" xmlns="http://www.w3.org/2000/svg" xmlns:xlink="http://www.w3.org/1999/xlink">
<g id="graph0" class="graph" transform="scale(1 1) rotate(0) translate(4 562.22)">
<title>G</title>
<polygon fill="white" stroke="none" points="-4,4 -4,-562.22 723.182,-562.22 723.182,4 -4,4"/>
<!-- GS -->
<g id="node1" class="node"><title>GS</title>
<ellipse fill="none" stroke="grey" stroke-width="2" cx="531.187" cy="-540.22" rx="90.9839" ry="18"/>
<text text-anchor="middle" x="531.187" y="-536.52" font-family="Times,serif" font-size="14.00">Ch.5 &#45; Auto Generator</text>
</g>
<!-- SU -->
<g id="node2" class="node"><title>SU</title>
<ellipse fill="none" stroke="black" cx="432.187" cy="-468.22" rx="35.194" ry="18"/>
<text text-anchor="middle" x="432.187" y="-464.52" font-family="Times,serif" font-size="14.00">setup()</text>
</g>
<!-- GS&#45;&gt;SU -->
<g id="edge1" class="edge"><title>GS&#45;&gt;SU</title>
<path fill="none" stroke="black" d="M507.976,-522.808C493.739,-512.742 475.415,-499.785 460.351,-489.134"/>
<polygon fill="black" stroke="black" points="462.1,-486.084 451.914,-483.168 458.058,-491.8 462.1,-486.084"/>
</g>
<!-- MX -->
<g id="node11" class="node"><title>MX</title>
<ellipse fill="none" stroke="black" cx="620.187" cy="-26.8701" rx="98.9899" ry="26.7407"/>
<text text-anchor="middle" x="620.187" y="-30.6701" font-family="Times,serif" font-size="14.00">MiniX [5]: </text>
<text text-anchor="middle" x="620.187" y="-15.6701" font-family="Times,serif" font-size="14.00">A Generative Program</text>
</g>
<!-- GS&#45;&gt;MX -->
<g id="edge6" class="edge"><title>GS&#45;&gt;MX</title>
<path fill="none" stroke="black" d="M560.963,-523.146C598.501,-500.462 658.187,-455.266 658.187,-397.22 658.187,-397.22 658.187,-397.22 658.187,-196.48 658.187,-149.707 644.099,-97.382 633.079,-63.6068"/>
<polygon fill="black" stroke="black" points="636.271,-62.1176 629.776,-53.747 629.634,-64.3409 636.271,-62.1176"/>
</g>
<!-- RR -->
<g id="node12" class="node"><title>RR</title>
<ellipse fill="none" stroke="black" cx="531.187" cy="-396.22" rx="71.4873" ry="18"/>
<text text-anchor="middle" x="531.187" y="-392.52" font-family="Times,serif" font-size="14.00">Required reading</text>
</g>
<!-- GS&#45;&gt;RR -->
<g id="edge7" class="edge"><title>GS&#45;&gt;RR</title>
<path fill="none" stroke="black" d="M531.187,-511.899C531.187,-486.819 531.187,-449.847 531.187,-424.713"/>
<polygon fill="black" stroke="black" points="527.687,-512.092 531.187,-522.092 534.687,-512.092 527.687,-512.092"/>
<polygon fill="black" stroke="black" points="534.687,-424.41 531.187,-414.41 527.687,-424.41 534.687,-424.41"/>
</g>
<!-- ST -->
<g id="node3" class="node"><title>ST</title>
<ellipse fill="none" stroke="black" cx="372.187" cy="-396.22" rx="31.6951" ry="18"/>
<text text-anchor="middle" x="372.187" y="-392.52" font-family="Times,serif" font-size="14.00">start()</text>
</g>
<!-- SU&#45;&gt;ST -->
<g id="edge2" class="edge"><title>SU&#45;&gt;ST</title>
<path fill="none" stroke="black" d="M418.572,-451.336C410.824,-442.297 400.973,-430.803 392.343,-420.736"/>
<polygon fill="black" stroke="black" points="394.914,-418.356 385.748,-413.042 389.599,-422.912 394.914,-418.356"/>
</g>
<!-- MW -->
<g id="node10" class="node"><title>MW</title>
<ellipse fill="none" stroke="black" cx="417.187" cy="-197.48" rx="38.1938" ry="18"/>
<text text-anchor="middle" x="417.187" y="-193.78" font-family="Times,serif" font-size="14.00">While()</text>
</g>
<!-- SU&#45;&gt;MW -->
<g id="edge8" class="edge"><title>SU&#45;&gt;MW</title>
<path fill="none" stroke="black" d="M430.662,-439.9C427.782,-388.288 421.572,-277.028 418.7,-225.583"/>
<polygon fill="black" stroke="black" points="427.174,-440.211 431.226,-450.001 434.163,-439.821 427.174,-440.211"/>
<polygon fill="black" stroke="black" points="422.192,-225.346 418.14,-215.557 415.203,-225.736 422.192,-225.346"/>
</g>
<!-- EiC -->
<g id="node4" class="node"><title>EiC</title>
<ellipse fill="none" stroke="black" cx="285.187" cy="-315.35" rx="81.135" ry="26.7407"/>
<text text-anchor="middle" x="285.187" y="-319.15" font-family="Times,serif" font-size="14.00">Exercise in class: </text>
<text text-anchor="middle" x="285.187" y="-304.15" font-family="Times,serif" font-size="14.00">10 PRINT</text>
</g>
<!-- ST&#45;&gt;EiC -->
<g id="edge3" class="edge"><title>ST&#45;&gt;EiC</title>
<path fill="none" stroke="black" d="M355.823,-380.385C345.633,-371.147 332.134,-358.91 319.669,-347.61"/>
<polygon fill="black" stroke="black" points="321.839,-344.853 312.08,-340.73 317.138,-350.039 321.839,-344.853"/>
</g>
<!-- ST&#45;&gt;MW -->
<g id="edge17" class="edge"><title>ST&#45;&gt;MW</title>
<path fill="none" stroke="black" d="M376.102,-378.105C383.951,-343.791 401.661,-266.36 411.06,-225.268"/>
<polygon fill="black" stroke="black" points="414.496,-225.944 413.314,-215.416 407.672,-224.384 414.496,-225.944"/>
</g>
<!-- LA -->
<g id="node5" class="node"><title>LA</title>
<ellipse fill="none" stroke="black" cx="285.187" cy="-197.48" rx="60.3893" ry="18"/>
<text text-anchor="middle" x="285.187" y="-193.78" font-family="Times,serif" font-size="14.00">Langton&#39;s Ant</text>
</g>
<!-- EiC&#45;&gt;LA -->
<g id="edge4" class="edge"><title>EiC&#45;&gt;LA</title>
<path fill="none" stroke="black" d="M285.187,-288.347C285.187,-269.742 285.187,-244.749 285.187,-225.844"/>
<polygon fill="black" stroke="black" points="288.687,-225.778 285.187,-215.778 281.687,-225.778 288.687,-225.778"/>
</g>
<!-- LA&#45;&gt;SU -->
<g id="edge5" class="edge"><title>LA&#45;&gt;SU</title>
<path fill="none" stroke="black" d="M254.16,-220.643C218.785,-248.749 169.036,-298.786 195.187,-342.22 237.428,-412.377 333.648,-445.156 389.632,-458.787"/>
<polygon fill="black" stroke="black" points="256.57,-223.204 262.344,-214.321 252.29,-217.664 256.57,-223.204"/>
<polygon fill="black" stroke="black" points="389.061,-462.248 399.595,-461.115 390.654,-455.432 389.061,-462.248"/>
</g>
<!-- SC -->
<g id="node6" class="node"><title>SC</title>
<ellipse fill="none" stroke="black" cx="148.187" cy="-116.61" rx="72.25" ry="26.7407"/>
<text text-anchor="middle" x="148.187" y="-120.41" font-family="Times,serif" font-size="14.00">Source code</text>
<text text-anchor="middle" x="148.187" y="-105.41" font-family="Times,serif" font-size="14.00">(Langton&#39;s Ant)</text>
</g>
<!-- LA&#45;&gt;SC -->
<g id="edge12" class="edge"><title>LA&#45;&gt;SC</title>
<path fill="none" stroke="black" d="M258.772,-181.273C240.743,-170.894 216.363,-156.858 195.082,-144.607"/>
<polygon fill="black" stroke="black" points="196.592,-141.438 186.179,-139.482 193.099,-147.504 196.592,-141.438"/>
</g>
<!-- RLA -->
<g id="node7" class="node"><title>RLA</title>
<ellipse fill="none" stroke="black" cx="304.187" cy="-116.61" rx="65.5227" ry="26.7407"/>
<text text-anchor="middle" x="304.187" y="-120.41" font-family="Times,serif" font-size="14.00">Reading </text>
<text text-anchor="middle" x="304.187" y="-105.41" font-family="Times,serif" font-size="14.00">Langton&#39;s Ant</text>
</g>
<!-- LA&#45;&gt;RLA -->
<g id="edge13" class="edge"><title>LA&#45;&gt;RLA</title>
<path fill="none" stroke="black" d="M289.31,-179.367C291.15,-171.73 293.391,-162.428 295.569,-153.385"/>
<polygon fill="black" stroke="black" points="299.038,-153.929 297.978,-143.387 292.233,-152.29 299.038,-153.929"/>
</g>
<!-- LA&#45;&gt;MW -->
<g id="edge20" class="edge"><title>LA&#45;&gt;MW</title>
<path fill="none" stroke="black" d="M345.773,-197.48C353.403,-197.48 361.032,-197.48 368.661,-197.48"/>
<polygon fill="black" stroke="black" points="368.691,-200.98 378.691,-197.48 368.691,-193.98 368.691,-200.98"/>
</g>
<!-- SC&#45;&gt;RLA -->
<g id="edge9" class="edge"><title>SC&#45;&gt;RLA</title>
<path fill="none" stroke="black" d="M220.398,-116.61C226.399,-116.61 232.399,-116.61 238.4,-116.61"/>
</g>
<!-- AL -->
<g id="node8" class="node"><title>AL</title>
<ellipse fill="none" stroke="black" cx="108.187" cy="-26.8701" rx="108.375" ry="26.7407"/>
<text text-anchor="middle" x="108.187" y="-30.6701" font-family="Times,serif" font-size="14.00">Two&#45;dimensional arrays </text>
<text text-anchor="middle" x="108.187" y="-15.6701" font-family="Times,serif" font-size="14.00">&amp; nested for&#45;loops</text>
</g>
<!-- SC&#45;&gt;AL -->
<g id="edge16" class="edge"><title>SC&#45;&gt;AL</title>
<path fill="none" stroke="black" d="M136.402,-89.7598C132.611,-81.4445 128.344,-72.0837 124.297,-63.2077"/>
<polygon fill="black" stroke="black" points="127.359,-61.486 120.026,-53.8389 120.99,-64.3898 127.359,-61.486"/>
</g>
<!-- EiC2 -->
<g id="node9" class="node"><title>EiC2</title>
<ellipse fill="none" stroke="black" cx="304.187" cy="-26.8701" rx="69.5877" ry="18"/>
<text text-anchor="middle" x="304.187" y="-23.1701" font-family="Times,serif" font-size="14.00">Exercise in class</text>
</g>
<!-- SC&#45;&gt;EiC2 -->
<g id="edge14" class="edge"><title>SC&#45;&gt;EiC2</title>
<path fill="none" stroke="black" d="M187.15,-93.696C211.797,-79.8335 243.451,-62.0303 267.624,-48.4348"/>
<polygon fill="black" stroke="black" points="269.491,-51.4001 276.491,-43.4472 266.06,-45.2989 269.491,-51.4001"/>
</g>
<!-- RLA&#45;&gt;EiC2 -->
<g id="edge15" class="edge"><title>RLA&#45;&gt;EiC2</title>
<path fill="none" stroke="black" d="M304.187,-89.2852C304.187,-78.5336 304.187,-66.0986 304.187,-55.2416"/>
<polygon fill="black" stroke="black" points="307.687,-55.0314 304.187,-45.0314 300.687,-55.0314 307.687,-55.0314"/>
</g>
<!-- MW&#45;&gt;MX -->
<g id="edge19" class="edge"><title>MW&#45;&gt;MX</title>
<path fill="none" stroke="black" d="M415.285,-179.469C413.681,-156.343 414.438,-114.978 436.187,-89.7401 457.721,-64.7527 489.684,-49.8282 520.955,-40.9245"/>
<polygon fill="black" stroke="black" points="521.862,-44.305 530.625,-38.3501 520.061,-37.5406 521.862,-44.305"/>
</g>
<!-- Notes -->
<g id="node14" class="node"><title>Notes</title>
<ellipse fill="none" stroke="black" cx="476.187" cy="-116.61" rx="31.3957" ry="18"/>
<text text-anchor="middle" x="476.187" y="-112.91" font-family="Times,serif" font-size="14.00">Notes</text>
</g>
<!-- MW&#45;&gt;Notes -->
<g id="edge18" class="edge"><title>MW&#45;&gt;Notes</title>
<path fill="none" stroke="black" d="M429.412,-180.138C437.749,-168.994 448.928,-154.05 458.267,-141.566"/>
<polygon fill="black" stroke="black" points="461.193,-143.497 464.381,-133.393 455.588,-139.304 461.193,-143.497"/>
</g>
<!-- RR&#45;&gt;SU -->
<g id="edge11" class="edge"><title>RR&#45;&gt;SU</title>
<path fill="none" stroke="black" d="M508.413,-413.324C494.229,-423.353 475.863,-436.338 460.714,-447.05"/>
<polygon fill="black" stroke="black" points="458.366,-444.424 452.221,-453.055 462.407,-450.139 458.366,-444.424"/>
</g>
<!-- RR&#45;&gt;MX -->
<g id="edge10" class="edge"><title>RR&#45;&gt;MX</title>
<path fill="none" stroke="black" d="M560.453,-379.763C574.854,-370.693 591.22,-357.92 601.187,-342.22 623.039,-307.803 620.187,-293.249 620.187,-252.48 620.187,-252.48 620.187,-252.48 620.187,-196.48 620.187,-150.916 620.187,-98.4261 620.187,-64.2771"/>
<polygon fill="black" stroke="black" points="623.687,-63.8663 620.187,-53.8663 616.687,-63.8663 623.687,-63.8663"/>
</g>
<!-- FR -->
<g id="node13" class="node"><title>FR</title>
<ellipse fill="none" stroke="black" cx="526.187" cy="-315.35" rx="65.7887" ry="18"/>
<text text-anchor="middle" x="526.187" y="-311.65" font-family="Times,serif" font-size="14.00">Further reading</text>
</g>
<!-- RR&#45;&gt;FR -->
<g id="edge21" class="edge"><title>RR&#45;&gt;FR</title>
<path fill="none" stroke="black" d="M530.102,-378.107C529.46,-367.978 528.633,-354.92 527.904,-343.422"/>
<polygon fill="black" stroke="black" points="531.396,-343.189 527.27,-333.431 524.41,-343.632 531.396,-343.189"/>
</g>
</g>
</svg>
