<?xml version="1.0" encoding="UTF-8" standalone="no"?>
<!DOCTYPE svg PUBLIC "-//W3C//DTD SVG 1.1//EN"
 "http://www.w3.org/Graphics/SVG/1.1/DTD/svg11.dtd">
<!-- Generated by graphviz version 2.38.0 (20140413.2041)
 -->
<!-- Title: G Pages: 1 -->
<svg width="663pt" height="457pt"
 viewBox="0.00 0.00 663.18 457.22" xmlns="http://www.w3.org/2000/svg" xmlns:xlink="http://www.w3.org/1999/xlink">
<g id="graph0" class="graph" transform="scale(1 1) rotate(0) translate(4 453.22)">
<title>G</title>
<polygon fill="white" stroke="none" points="-4,4 -4,-453.22 659.182,-453.22 659.182,4 -4,4"/>
<!-- GS -->
<g id="node1" class="node"><title>GS</title>
<ellipse fill="none" stroke="grey" stroke-width="2" cx="528.187" cy="-431.22" rx="90.9839" ry="18"/>
<text text-anchor="middle" x="528.187" y="-427.52" font-family="Times,serif" font-size="14.00">Ch.5 &#45; Auto Generator</text>
</g>
<!-- SU -->
<g id="node2" class="node"><title>SU</title>
<ellipse fill="none" stroke="black" cx="447.187" cy="-359.22" rx="35.194" ry="18"/>
<text text-anchor="middle" x="447.187" y="-355.52" font-family="Times,serif" font-size="14.00">setup()</text>
</g>
<!-- GS&#45;&gt;SU -->
<g id="edge1" class="edge"><title>GS&#45;&gt;SU</title>
<path fill="none" stroke="black" d="M508.579,-413.275C497.623,-403.807 483.858,-391.911 472.141,-381.785"/>
<polygon fill="black" stroke="black" points="474.27,-378.999 464.415,-375.108 469.693,-384.295 474.27,-378.999"/>
</g>
<!-- MX -->
<g id="node11" class="node"><title>MX</title>
<ellipse fill="none" stroke="black" cx="556.187" cy="-206.35" rx="98.9899" ry="26.7407"/>
<text text-anchor="middle" x="556.187" y="-210.15" font-family="Times,serif" font-size="14.00">MiniX 5: </text>
<text text-anchor="middle" x="556.187" y="-195.15" font-family="Times,serif" font-size="14.00">A Generative Program</text>
</g>
<!-- GS&#45;&gt;MX -->
<g id="edge5" class="edge"><title>GS&#45;&gt;MX</title>
<path fill="none" stroke="black" d="M543.678,-413.205C563.164,-390.532 595.597,-348.248 608.187,-305.22 612.681,-289.864 613.666,-284.253 608.187,-269.22 604.362,-258.723 597.886,-248.771 590.777,-240.039"/>
<polygon fill="black" stroke="black" points="593.329,-237.639 584.13,-232.383 588.043,-242.229 593.329,-237.639"/>
</g>
<!-- RR -->
<g id="node12" class="node"><title>RR</title>
<ellipse fill="none" stroke="black" cx="528.187" cy="-287.22" rx="71.4873" ry="18"/>
<text text-anchor="middle" x="528.187" y="-283.52" font-family="Times,serif" font-size="14.00">Required reading</text>
</g>
<!-- GS&#45;&gt;RR -->
<g id="edge6" class="edge"><title>GS&#45;&gt;RR</title>
<path fill="none" stroke="black" d="M528.187,-402.899C528.187,-377.819 528.187,-340.847 528.187,-315.713"/>
<polygon fill="black" stroke="black" points="524.687,-403.092 528.187,-413.092 531.687,-403.092 524.687,-403.092"/>
<polygon fill="black" stroke="black" points="531.687,-315.41 528.187,-305.41 524.687,-315.41 531.687,-315.41"/>
</g>
<!-- ST -->
<g id="node3" class="node"><title>ST</title>
<ellipse fill="none" stroke="black" cx="369.187" cy="-287.22" rx="31.6951" ry="18"/>
<text text-anchor="middle" x="369.187" y="-283.52" font-family="Times,serif" font-size="14.00">start()</text>
</g>
<!-- SU&#45;&gt;ST -->
<g id="edge2" class="edge"><title>SU&#45;&gt;ST</title>
<path fill="none" stroke="black" d="M430.262,-343.031C419.383,-333.268 405.087,-320.438 393.061,-309.645"/>
<polygon fill="black" stroke="black" points="395.325,-306.974 385.545,-302.9 390.649,-312.184 395.325,-306.974"/>
</g>
<!-- MW -->
<g id="node10" class="node"><title>MW</title>
<ellipse fill="none" stroke="black" cx="428.187" cy="-116.61" rx="38.1938" ry="18"/>
<text text-anchor="middle" x="428.187" y="-112.91" font-family="Times,serif" font-size="14.00">While()</text>
</g>
<!-- SU&#45;&gt;MW -->
<g id="edge7" class="edge"><title>SU&#45;&gt;MW</title>
<path fill="none" stroke="black" d="M445.025,-330.833C441.367,-284.508 434,-191.216 430.345,-144.934"/>
<polygon fill="black" stroke="black" points="441.544,-331.223 445.821,-340.916 448.523,-330.672 441.544,-331.223"/>
<polygon fill="black" stroke="black" points="433.818,-144.451 429.541,-134.757 426.84,-145.002 433.818,-144.451"/>
</g>
<!-- EiC -->
<g id="node4" class="node"><title>EiC</title>
<ellipse fill="none" stroke="black" cx="126.187" cy="-206.35" rx="81.135" ry="26.7407"/>
<text text-anchor="middle" x="126.187" y="-210.15" font-family="Times,serif" font-size="14.00">Exercise in class: </text>
<text text-anchor="middle" x="126.187" y="-195.15" font-family="Times,serif" font-size="14.00">10 PRINT</text>
</g>
<!-- ST&#45;&gt;EiC -->
<g id="edge3" class="edge"><title>ST&#45;&gt;EiC</title>
<path fill="none" stroke="black" d="M342.254,-277.479C306.457,-265.86 241.999,-244.939 192.773,-228.962"/>
<polygon fill="black" stroke="black" points="193.735,-225.595 183.143,-225.836 191.574,-232.253 193.735,-225.595"/>
</g>
<!-- ST&#45;&gt;MW -->
<g id="edge16" class="edge"><title>ST&#45;&gt;MW</title>
<path fill="none" stroke="black" d="M375.06,-269.437C385.327,-240.097 406.611,-179.27 418.895,-144.165"/>
<polygon fill="black" stroke="black" points="422.251,-145.171 422.251,-134.576 415.644,-142.859 422.251,-145.171"/>
</g>
<!-- LA -->
<g id="node5" class="node"><title>LA</title>
<ellipse fill="none" stroke="black" cx="303.187" cy="-206.35" rx="60.3893" ry="18"/>
<text text-anchor="middle" x="303.187" y="-202.65" font-family="Times,serif" font-size="14.00">Langton&#39;s Ant</text>
</g>
<!-- EiC&#45;&gt;LA -->
<g id="edge4" class="edge"><title>EiC&#45;&gt;LA</title>
<path fill="none" stroke="black" d="M207.773,-206.35C215.987,-206.35 224.202,-206.35 232.416,-206.35"/>
<polygon fill="black" stroke="black" points="232.435,-209.85 242.435,-206.35 232.435,-202.85 232.435,-209.85"/>
</g>
<!-- SC -->
<g id="node6" class="node"><title>SC</title>
<ellipse fill="none" stroke="black" cx="164.187" cy="-116.61" rx="55.7903" ry="18"/>
<text text-anchor="middle" x="164.187" y="-112.91" font-family="Times,serif" font-size="14.00">Source Code</text>
</g>
<!-- LA&#45;&gt;SC -->
<g id="edge11" class="edge"><title>LA&#45;&gt;SC</title>
<path fill="none" stroke="black" d="M278.657,-189.866C256.028,-175.582 222.253,-154.263 197.25,-138.48"/>
<polygon fill="black" stroke="black" points="198.797,-135.318 188.473,-132.94 195.061,-141.237 198.797,-135.318"/>
</g>
<!-- RLA -->
<g id="node7" class="node"><title>RLA</title>
<ellipse fill="none" stroke="black" cx="304.187" cy="-116.61" rx="65.5227" ry="26.7407"/>
<text text-anchor="middle" x="304.187" y="-120.41" font-family="Times,serif" font-size="14.00">Reading </text>
<text text-anchor="middle" x="304.187" y="-105.41" font-family="Times,serif" font-size="14.00">Langton&#39;s Ant</text>
</g>
<!-- LA&#45;&gt;RLA -->
<g id="edge12" class="edge"><title>LA&#45;&gt;RLA</title>
<path fill="none" stroke="black" d="M303.385,-188.016C303.497,-178.204 303.641,-165.557 303.776,-153.694"/>
<polygon fill="black" stroke="black" points="307.277,-153.602 303.892,-143.562 300.278,-153.522 307.277,-153.602"/>
</g>
<!-- LA&#45;&gt;MW -->
<g id="edge19" class="edge"><title>LA&#45;&gt;MW</title>
<path fill="none" stroke="black" d="M325.824,-189.461C346.444,-174.987 377.001,-153.539 399.36,-137.845"/>
<polygon fill="black" stroke="black" points="401.615,-140.538 407.789,-131.928 397.593,-134.809 401.615,-140.538"/>
</g>
<!-- SC&#45;&gt;RLA -->
<g id="edge8" class="edge"><title>SC&#45;&gt;RLA</title>
<path fill="none" stroke="black" d="M220.242,-116.61C226.254,-116.61 232.265,-116.61 238.277,-116.61"/>
</g>
<!-- AL -->
<g id="node8" class="node"><title>AL</title>
<ellipse fill="none" stroke="black" cx="108.187" cy="-26.8701" rx="108.375" ry="26.7407"/>
<text text-anchor="middle" x="108.187" y="-30.6701" font-family="Times,serif" font-size="14.00">Two&#45;dimensional arrays </text>
<text text-anchor="middle" x="108.187" y="-15.6701" font-family="Times,serif" font-size="14.00">&amp; nested for&#45;loops</text>
</g>
<!-- SC&#45;&gt;AL -->
<g id="edge15" class="edge"><title>SC&#45;&gt;AL</title>
<path fill="none" stroke="black" d="M153.39,-98.693C146.779,-88.3351 138.079,-74.7045 130.079,-62.1696"/>
<polygon fill="black" stroke="black" points="133.017,-60.2668 124.686,-53.7204 127.116,-64.0329 133.017,-60.2668"/>
</g>
<!-- EiC2 -->
<g id="node9" class="node"><title>EiC2</title>
<ellipse fill="none" stroke="black" cx="304.187" cy="-26.8701" rx="69.5877" ry="18"/>
<text text-anchor="middle" x="304.187" y="-23.1701" font-family="Times,serif" font-size="14.00">Exercise in class</text>
</g>
<!-- SC&#45;&gt;EiC2 -->
<g id="edge13" class="edge"><title>SC&#45;&gt;EiC2</title>
<path fill="none" stroke="black" d="M188.573,-100.327C211.139,-86.1849 244.906,-65.0228 270.129,-49.2151"/>
<polygon fill="black" stroke="black" points="272.047,-52.1435 278.662,-43.8673 268.33,-46.2121 272.047,-52.1435"/>
</g>
<!-- RLA&#45;&gt;EiC2 -->
<g id="edge14" class="edge"><title>RLA&#45;&gt;EiC2</title>
<path fill="none" stroke="black" d="M304.187,-89.2852C304.187,-78.5336 304.187,-66.0986 304.187,-55.2416"/>
<polygon fill="black" stroke="black" points="307.687,-55.0314 304.187,-45.0314 300.687,-55.0314 307.687,-55.0314"/>
</g>
<!-- MW&#45;&gt;MX -->
<g id="edge18" class="edge"><title>MW&#45;&gt;MX</title>
<path fill="none" stroke="black" d="M448.997,-131.875C466.142,-143.627 491.038,-160.692 512.523,-175.419"/>
<polygon fill="black" stroke="black" points="510.645,-178.376 520.872,-181.143 514.603,-172.602 510.645,-178.376"/>
</g>
<!-- Notes -->
<g id="node13" class="node"><title>Notes</title>
<ellipse fill="none" stroke="black" cx="516.187" cy="-116.61" rx="31.3957" ry="18"/>
<text text-anchor="middle" x="516.187" y="-112.91" font-family="Times,serif" font-size="14.00">Notes</text>
</g>
<!-- MW&#45;&gt;Notes -->
<g id="edge17" class="edge"><title>MW&#45;&gt;Notes</title>
<path fill="none" stroke="black" d="M466.687,-116.61C469.338,-116.61 471.989,-116.61 474.639,-116.61"/>
<polygon fill="black" stroke="black" points="474.863,-120.11 484.863,-116.61 474.863,-113.11 474.863,-120.11"/>
</g>
<!-- RR&#45;&gt;SU -->
<g id="edge10" class="edge"><title>RR&#45;&gt;SU</title>
<path fill="none" stroke="black" d="M509.049,-304.759C498.034,-314.279 484.066,-326.35 472.19,-336.613"/>
<polygon fill="black" stroke="black" points="469.643,-334.188 464.365,-343.375 474.22,-339.485 469.643,-334.188"/>
</g>
<!-- RR&#45;&gt;MX -->
<g id="edge9" class="edge"><title>RR&#45;&gt;MX</title>
<path fill="none" stroke="black" d="M534.263,-269.107C537.003,-261.388 540.348,-251.968 543.59,-242.833"/>
<polygon fill="black" stroke="black" points="546.989,-243.722 547.036,-233.128 540.392,-241.38 546.989,-243.722"/>
</g>
</g>
</svg>
