<?xml version="1.0" encoding="UTF-8" standalone="no"?>
<!DOCTYPE svg PUBLIC "-//W3C//DTD SVG 1.1//EN"
 "http://www.w3.org/Graphics/SVG/1.1/DTD/svg11.dtd">
<!-- Generated by graphviz version 2.38.0 (20140413.2041)
 -->
<!-- Title: G Pages: 1 -->
<svg width="676pt" height="566pt"
 viewBox="0.00 0.00 676.18 566.22" xmlns="http://www.w3.org/2000/svg" xmlns:xlink="http://www.w3.org/1999/xlink">
<g id="graph0" class="graph" transform="scale(1 1) rotate(0) translate(4 562.22)">
<title>G</title>
<polygon fill="white" stroke="none" points="-4,4 -4,-562.22 672.182,-562.22 672.182,4 -4,4"/>
<!-- GS -->
<g id="node1" class="node"><title>GS</title>
<ellipse fill="none" stroke="grey" stroke-width="2" cx="541.187" cy="-540.22" rx="90.9839" ry="18"/>
<text text-anchor="middle" x="541.187" y="-536.52" font-family="Times,serif" font-size="14.00">Ch.5 &#45; Auto Generator</text>
</g>
<!-- SU -->
<g id="node2" class="node"><title>SU</title>
<ellipse fill="none" stroke="black" cx="442.187" cy="-468.22" rx="35.194" ry="18"/>
<text text-anchor="middle" x="442.187" y="-464.52" font-family="Times,serif" font-size="14.00">setup()</text>
</g>
<!-- GS&#45;&gt;SU -->
<g id="edge1" class="edge"><title>GS&#45;&gt;SU</title>
<path fill="none" stroke="black" d="M517.976,-522.808C503.739,-512.742 485.415,-499.785 470.351,-489.134"/>
<polygon fill="black" stroke="black" points="472.1,-486.084 461.914,-483.168 468.058,-491.8 472.1,-486.084"/>
</g>
<!-- MX -->
<g id="node11" class="node"><title>MX</title>
<ellipse fill="none" stroke="black" cx="569.187" cy="-315.35" rx="98.9899" ry="26.7407"/>
<text text-anchor="middle" x="569.187" y="-319.15" font-family="Times,serif" font-size="14.00">MiniX 5: </text>
<text text-anchor="middle" x="569.187" y="-304.15" font-family="Times,serif" font-size="14.00">A Generative Program</text>
</g>
<!-- GS&#45;&gt;MX -->
<g id="edge6" class="edge"><title>GS&#45;&gt;MX</title>
<path fill="none" stroke="black" d="M556.678,-522.205C576.164,-499.532 608.597,-457.248 621.187,-414.22 625.681,-398.864 626.666,-393.253 621.187,-378.22 617.362,-367.723 610.886,-357.771 603.777,-349.039"/>
<polygon fill="black" stroke="black" points="606.329,-346.639 597.13,-341.383 601.043,-351.229 606.329,-346.639"/>
</g>
<!-- RR -->
<g id="node12" class="node"><title>RR</title>
<ellipse fill="none" stroke="black" cx="541.187" cy="-396.22" rx="71.4873" ry="18"/>
<text text-anchor="middle" x="541.187" y="-392.52" font-family="Times,serif" font-size="14.00">Required reading</text>
</g>
<!-- GS&#45;&gt;RR -->
<g id="edge7" class="edge"><title>GS&#45;&gt;RR</title>
<path fill="none" stroke="black" d="M541.187,-511.899C541.187,-486.819 541.187,-449.847 541.187,-424.713"/>
<polygon fill="black" stroke="black" points="537.687,-512.092 541.187,-522.092 544.687,-512.092 537.687,-512.092"/>
<polygon fill="black" stroke="black" points="544.687,-424.41 541.187,-414.41 537.687,-424.41 544.687,-424.41"/>
</g>
<!-- ST -->
<g id="node3" class="node"><title>ST</title>
<ellipse fill="none" stroke="black" cx="382.187" cy="-396.22" rx="31.6951" ry="18"/>
<text text-anchor="middle" x="382.187" y="-392.52" font-family="Times,serif" font-size="14.00">start()</text>
</g>
<!-- SU&#45;&gt;ST -->
<g id="edge2" class="edge"><title>SU&#45;&gt;ST</title>
<path fill="none" stroke="black" d="M428.572,-451.336C420.824,-442.297 410.973,-430.803 402.343,-420.736"/>
<polygon fill="black" stroke="black" points="404.914,-418.356 395.748,-413.042 399.599,-422.912 404.914,-418.356"/>
</g>
<!-- MW -->
<g id="node10" class="node"><title>MW</title>
<ellipse fill="none" stroke="black" cx="427.187" cy="-197.48" rx="38.1938" ry="18"/>
<text text-anchor="middle" x="427.187" y="-193.78" font-family="Times,serif" font-size="14.00">While()</text>
</g>
<!-- SU&#45;&gt;MW -->
<g id="edge8" class="edge"><title>SU&#45;&gt;MW</title>
<path fill="none" stroke="black" d="M440.662,-439.9C437.782,-388.288 431.572,-277.028 428.7,-225.583"/>
<polygon fill="black" stroke="black" points="437.174,-440.211 441.226,-450.001 444.163,-439.821 437.174,-440.211"/>
<polygon fill="black" stroke="black" points="432.192,-225.346 428.14,-215.557 425.203,-225.736 432.192,-225.346"/>
</g>
<!-- EiC -->
<g id="node4" class="node"><title>EiC</title>
<ellipse fill="none" stroke="black" cx="295.187" cy="-315.35" rx="81.135" ry="26.7407"/>
<text text-anchor="middle" x="295.187" y="-319.15" font-family="Times,serif" font-size="14.00">Exercise in class: </text>
<text text-anchor="middle" x="295.187" y="-304.15" font-family="Times,serif" font-size="14.00">10 PRINT</text>
</g>
<!-- ST&#45;&gt;EiC -->
<g id="edge3" class="edge"><title>ST&#45;&gt;EiC</title>
<path fill="none" stroke="black" d="M365.823,-380.385C355.633,-371.147 342.134,-358.91 329.669,-347.61"/>
<polygon fill="black" stroke="black" points="331.839,-344.853 322.08,-340.73 327.138,-350.039 331.839,-344.853"/>
</g>
<!-- ST&#45;&gt;MW -->
<g id="edge17" class="edge"><title>ST&#45;&gt;MW</title>
<path fill="none" stroke="black" d="M386.102,-378.105C393.951,-343.791 411.661,-266.36 421.06,-225.268"/>
<polygon fill="black" stroke="black" points="424.496,-225.944 423.314,-215.416 417.672,-224.384 424.496,-225.944"/>
</g>
<!-- LA -->
<g id="node5" class="node"><title>LA</title>
<ellipse fill="none" stroke="black" cx="295.187" cy="-197.48" rx="60.3893" ry="18"/>
<text text-anchor="middle" x="295.187" y="-193.78" font-family="Times,serif" font-size="14.00">Langton&#39;s Ant</text>
</g>
<!-- EiC&#45;&gt;LA -->
<g id="edge4" class="edge"><title>EiC&#45;&gt;LA</title>
<path fill="none" stroke="black" d="M295.187,-288.347C295.187,-269.742 295.187,-244.749 295.187,-225.844"/>
<polygon fill="black" stroke="black" points="298.687,-225.778 295.187,-215.778 291.687,-225.778 298.687,-225.778"/>
</g>
<!-- LA&#45;&gt;SU -->
<g id="edge5" class="edge"><title>LA&#45;&gt;SU</title>
<path fill="none" stroke="black" d="M264.16,-220.643C228.785,-248.749 179.036,-298.786 205.187,-342.22 247.428,-412.377 343.648,-445.156 399.632,-458.787"/>
<polygon fill="black" stroke="black" points="266.57,-223.204 272.344,-214.321 262.29,-217.664 266.57,-223.204"/>
<polygon fill="black" stroke="black" points="399.061,-462.248 409.595,-461.115 400.654,-455.432 399.061,-462.248"/>
</g>
<!-- SC -->
<g id="node6" class="node"><title>SC</title>
<ellipse fill="none" stroke="black" cx="164.187" cy="-116.61" rx="55.7903" ry="18"/>
<text text-anchor="middle" x="164.187" y="-112.91" font-family="Times,serif" font-size="14.00">Source Code</text>
</g>
<!-- LA&#45;&gt;SC -->
<g id="edge12" class="edge"><title>LA&#45;&gt;SC</title>
<path fill="none" stroke="black" d="M269.618,-181.086C249.331,-168.872 220.779,-151.682 198.504,-138.271"/>
<polygon fill="black" stroke="black" points="200.064,-135.125 189.692,-132.966 196.454,-141.122 200.064,-135.125"/>
</g>
<!-- RLA -->
<g id="node7" class="node"><title>RLA</title>
<ellipse fill="none" stroke="black" cx="304.187" cy="-116.61" rx="65.5227" ry="26.7407"/>
<text text-anchor="middle" x="304.187" y="-120.41" font-family="Times,serif" font-size="14.00">Reading </text>
<text text-anchor="middle" x="304.187" y="-105.41" font-family="Times,serif" font-size="14.00">Langton&#39;s Ant</text>
</g>
<!-- LA&#45;&gt;RLA -->
<g id="edge13" class="edge"><title>LA&#45;&gt;RLA</title>
<path fill="none" stroke="black" d="M297.14,-179.367C297.995,-171.877 299.032,-162.786 300.045,-153.908"/>
<polygon fill="black" stroke="black" points="303.555,-154.025 301.211,-143.693 296.6,-153.232 303.555,-154.025"/>
</g>
<!-- LA&#45;&gt;MW -->
<g id="edge20" class="edge"><title>LA&#45;&gt;MW</title>
<path fill="none" stroke="black" d="M355.773,-197.48C363.403,-197.48 371.032,-197.48 378.661,-197.48"/>
<polygon fill="black" stroke="black" points="378.691,-200.98 388.691,-197.48 378.691,-193.98 378.691,-200.98"/>
</g>
<!-- SC&#45;&gt;RLA -->
<g id="edge9" class="edge"><title>SC&#45;&gt;RLA</title>
<path fill="none" stroke="black" d="M220.242,-116.61C226.254,-116.61 232.265,-116.61 238.277,-116.61"/>
</g>
<!-- AL -->
<g id="node8" class="node"><title>AL</title>
<ellipse fill="none" stroke="black" cx="108.187" cy="-26.8701" rx="108.375" ry="26.7407"/>
<text text-anchor="middle" x="108.187" y="-30.6701" font-family="Times,serif" font-size="14.00">Two&#45;dimensional arrays </text>
<text text-anchor="middle" x="108.187" y="-15.6701" font-family="Times,serif" font-size="14.00">&amp; nested for&#45;loops</text>
</g>
<!-- SC&#45;&gt;AL -->
<g id="edge16" class="edge"><title>SC&#45;&gt;AL</title>
<path fill="none" stroke="black" d="M153.39,-98.693C146.779,-88.3351 138.079,-74.7045 130.079,-62.1696"/>
<polygon fill="black" stroke="black" points="133.017,-60.2668 124.686,-53.7204 127.116,-64.0329 133.017,-60.2668"/>
</g>
<!-- EiC2 -->
<g id="node9" class="node"><title>EiC2</title>
<ellipse fill="none" stroke="black" cx="304.187" cy="-26.8701" rx="69.5877" ry="18"/>
<text text-anchor="middle" x="304.187" y="-23.1701" font-family="Times,serif" font-size="14.00">Exercise in class</text>
</g>
<!-- SC&#45;&gt;EiC2 -->
<g id="edge14" class="edge"><title>SC&#45;&gt;EiC2</title>
<path fill="none" stroke="black" d="M188.573,-100.327C211.139,-86.1849 244.906,-65.0228 270.129,-49.2151"/>
<polygon fill="black" stroke="black" points="272.047,-52.1435 278.662,-43.8673 268.33,-46.2121 272.047,-52.1435"/>
</g>
<!-- RLA&#45;&gt;EiC2 -->
<g id="edge15" class="edge"><title>RLA&#45;&gt;EiC2</title>
<path fill="none" stroke="black" d="M304.187,-89.2852C304.187,-78.5336 304.187,-66.0986 304.187,-55.2416"/>
<polygon fill="black" stroke="black" points="307.687,-55.0314 304.187,-45.0314 300.687,-55.0314 307.687,-55.0314"/>
</g>
<!-- MW&#45;&gt;MX -->
<g id="edge19" class="edge"><title>MW&#45;&gt;MX</title>
<path fill="none" stroke="black" d="M445.458,-213.389C466.912,-230.895 503.081,-260.409 530.789,-283.018"/>
<polygon fill="black" stroke="black" points="528.764,-285.883 538.725,-289.493 533.19,-280.459 528.764,-285.883"/>
</g>
<!-- Notes -->
<g id="node13" class="node"><title>Notes</title>
<ellipse fill="none" stroke="black" cx="427.187" cy="-116.61" rx="31.3957" ry="18"/>
<text text-anchor="middle" x="427.187" y="-112.91" font-family="Times,serif" font-size="14.00">Notes</text>
</g>
<!-- MW&#45;&gt;Notes -->
<g id="edge18" class="edge"><title>MW&#45;&gt;Notes</title>
<path fill="none" stroke="black" d="M427.187,-179.367C427.187,-169.341 427.187,-156.446 427.187,-145.035"/>
<polygon fill="black" stroke="black" points="430.687,-144.69 427.187,-134.69 423.687,-144.69 430.687,-144.69"/>
</g>
<!-- RR&#45;&gt;SU -->
<g id="edge11" class="edge"><title>RR&#45;&gt;SU</title>
<path fill="none" stroke="black" d="M518.413,-413.324C504.229,-423.353 485.863,-436.338 470.714,-447.05"/>
<polygon fill="black" stroke="black" points="468.366,-444.424 462.221,-453.055 472.407,-450.139 468.366,-444.424"/>
</g>
<!-- RR&#45;&gt;MX -->
<g id="edge10" class="edge"><title>RR&#45;&gt;MX</title>
<path fill="none" stroke="black" d="M547.263,-378.107C550.003,-370.388 553.348,-360.968 556.59,-351.833"/>
<polygon fill="black" stroke="black" points="559.989,-352.722 560.036,-342.128 553.392,-350.38 559.989,-352.722"/>
</g>
</g>
</svg>
